<?xml version="1.0" encoding="UTF-8"?>
<svg id="Layer_1" xmlns="http://www.w3.org/2000/svg" xmlns:xlink="http://www.w3.org/1999/xlink" version="1.1" viewBox="0 0 551 618">
  <!-- Generator: Adobe Illustrator 30.6.0, SVG Export Plug-In . SVG Version: 2.1.4 Build 109)  -->
  <defs>
    <style>
      .st0, .st1 {
        fill: none;
      }

      .st2 {
        fill: #368ddf;
      }

      .st3 {
        fill: #dbdbdb;
      }

      .st1 {
        opacity: .5;
        stroke: #fff;
        stroke-linejoin: round;
        stroke-width: 2px;
      }

      .st4 {
        fill: #c0daf5;
      }

      .st5 {
        fill: #0c4171;
      }

      .st6 {
        fill: #fff;
      }

      .st7 {
        fill: #7db4ea;
      }

      .st8 {
        fill: #092845;
      }

      .st9 {
        fill: #494949;
      }

      .st10 {
        fill: #b6b6b6;
      }

      .st11 {
        clip-path: url(#clippath);
      }

      .st12 {
        fill: #1167b2;
      }
    </style>
    <clipPath id="clippath">
      <rect class="st0" width="551" height="618"/>
    </clipPath>
  </defs>
  <g class="st11">
    <rect class="st3" x=".2" y="339.6" width="541.4" height="269.3" rx="4" ry="4"/>
    <rect class="st4" x=".2" y="256.8" width="541.4" height="79.4" rx="4" ry="4"/>
    <rect class="st7" x=".2" y="86.7" width="541.4" height="167.2" rx="4" ry="4"/>
    <rect class="st4" x=".2" y="20.9" width="541.4" height="62.4" rx="4" ry="4"/>
    <rect class="st2" x="233.9" y="298.7" width="73" height="30.6"/>
    <rect class="st12" x="309.5" y="298.7" width="72.8" height="30.6"/>
    <rect class="st5" x="384.8" y="298.7" width="73" height="30.6"/>
    <rect class="st8" x="460.2" y="298.5" width="73" height="30.8"/>
    <rect class="st7" x="158.5" y="298.7" width="73" height="30.6"/>
    <rect class="st12" x="234.3" y="153.8" width="73" height="90.2"/>
    <rect class="st12" x="309.7" y="153.8" width="73" height="90.2"/>
    <rect class="st12" x="385" y="153.8" width="73" height="90.2"/>
    <rect class="st12" x="460.6" y="153.5" width="72.8" height="90.4"/>
    <rect class="st12" x="158.9" y="153.8" width="72.8" height="90.2"/>
    <rect class="st12" x="158.9" y="96.2" width="73" height="54.6"/>
    <path class="st6" d="M194.2,111.2c0,3.1-1.2,4.8-3.2,4.8s-3-1.7-3-4.7c0-3.1,1.3-4.7,3.2-4.7s3,1.7,3,4.6ZM189.2,111.4c0,2.4.7,3.7,1.8,3.7s1.8-1.5,1.8-3.8-.6-3.7-1.8-3.7-1.8,1.3-1.8,3.8Z"/>
    <rect class="st12" x="234.3" y="96.2" width="73" height="54.6"/>
    <path class="st6" d="M266.2,107.9h0l-1.6.9-.2-.9,2-1.1h1v9.1h-1.2v-8Z"/>
    <rect class="st12" x="309.7" y="96.2" width="73" height="54.6"/>
    <path class="st6" d="M338.9,115.9v-.8l1-.9c2.3-2.2,3.4-3.4,3.4-4.8s-.4-1.8-1.8-1.8-1.5.4-1.9.8l-.4-.9c.6-.5,1.5-.9,2.6-.9,2,0,2.8,1.3,2.8,2.6s-1.2,3-3.1,4.9l-.7.7h0s4.1,0,4.1,0v1h-5.8Z"/>
    <rect class="st12" x="385" y="96.2" width="73" height="54.6"/>
    <path class="st6" d="M414.6,114.5c.3.2,1.1.6,2,.6,1.6,0,2.1-1,2.1-1.8,0-1.3-1.2-1.8-2.4-1.8h-.7v-.9h.7c.9,0,2-.5,2-1.5s-.5-1.4-1.6-1.4-1.4.3-1.8.6l-.3-.9c.5-.4,1.4-.7,2.4-.7,1.8,0,2.6,1.1,2.6,2.2s-.6,1.8-1.7,2.2h0c1.1.2,2,1.1,2,2.4,0,1.5-1.1,2.7-3.3,2.7s-1.9-.3-2.4-.6l.3-.9Z"/>
    <rect class="st12" x="460.4" y="96.2" width="73.3" height="54.6"/>
    <path class="st6" d="M493.6,115.9v-2.5h-4.2v-.8l4.1-5.8h1.3v5.7h1.3v1h-1.3v2.5h-1.2ZM493.6,112.4v-3c0-.5,0-1,0-1.4h0c-.3.5-.5.9-.8,1.3l-2.2,3.1h0s3,0,3,0Z"/>
    <polygon class="st10" points="159.3 446.4 159.3 399.7 534.1 446.4 159.3 446.4"/>
    <polygon class="st9" points="534.1 399.7 534.1 446.4 159.3 399.7 534.1 399.7"/>
    <g>
      <path d="M172.1,436c-.3.2-1,.4-1.9.4-2,0-3.4-1.4-3.4-3.5s1.4-3.6,3.6-3.6,1.4.2,1.7.4l-.3.9c-.3-.2-.8-.3-1.4-.3-1.6,0-2.4,1.2-2.4,2.6s1,2.5,2.4,2.5,1.2-.2,1.5-.3l.2.9Z"/>
      <path d="M179.6,432.8c0,2.5-1.8,3.6-3.4,3.6s-3.2-1.3-3.2-3.5,1.5-3.6,3.4-3.6,3.3,1.4,3.3,3.5ZM174.2,432.9c0,1.5.8,2.6,2,2.6s2.1-1.1,2.1-2.6-.6-2.6-2-2.6-2.1,1.3-2.1,2.6Z"/>
      <path d="M181,435c.4.2,1,.5,1.6.5.9,0,1.3-.4,1.3-1s-.3-.9-1.2-1.2c-1.2-.4-1.8-1.1-1.8-1.9s.9-2,2.3-2,1.3.2,1.7.4l-.3.9c-.3-.2-.8-.4-1.4-.4s-1.1.4-1.1.9.4.8,1.3,1.2c1.2.4,1.8,1,1.8,2s-.9,2-2.5,2-1.4-.2-1.9-.5l.3-.9Z"/>
      <path d="M188.2,427.8v1.6h1.8v.9h-1.8v3.7c0,.8.2,1.3.9,1.3s.5,0,.7,0v.9c-.2,0-.6.2-1,.2s-1-.2-1.3-.5c-.3-.4-.5-1-.5-1.8v-3.7h-1.1v-.9h1.1v-1.3l1.2-.4Z"/>
      <path d="M191.2,435c.4.2,1,.5,1.6.5.9,0,1.3-.4,1.3-1s-.3-.9-1.2-1.2c-1.2-.4-1.8-1.1-1.8-1.9s.9-2,2.3-2,1.3.2,1.7.4l-.3.9c-.3-.2-.8-.4-1.4-.4s-1.1.4-1.1.9.4.8,1.3,1.2c1.2.4,1.8,1,1.8,2s-.9,2-2.5,2-1.4-.2-1.9-.5l.3-.9Z"/>
    </g>
    <path class="st6" d="M475.5,411.8c0,1.7,1.1,2.4,2.3,2.4s1.4-.2,1.9-.3l.2.9c-.4.2-1.2.4-2.3.4-2.1,0-3.3-1.4-3.3-3.4s1.2-3.6,3.2-3.6,2.8,1.9,2.8,3.2,0,.4,0,.6h-4.8ZM479.1,410.9c0-.8-.3-2-1.7-2s-1.8,1.1-1.9,2h3.6Z"/>
    <path class="st6" d="M490.3,406.2c-.3-.2-.8-.4-1.4-.4-1.3,0-1.7.9-1.7,2v.3h4v6.8h-1.2v-5.8h-2.7v5.8h-1.2v-5.8h-2.9v5.8h-1.2v-5.8h-.9v-.9h.9v-.2c0-.8.2-1.7.8-2.2.4-.4,1-.7,1.7-.7s.9.2,1.2.3l-.4.9c-.2-.1-.5-.2-.8-.2s-.7.1-.9.4c-.3.4-.4,1-.4,1.6v.3h2.9v-.4c0-1.8,1.1-2.9,3-2.9s1.3.2,1.7.4l-.4.9Z"/>
    <g>
      <path class="st6" d="M498,414.7c-.3.2-1,.4-1.9.4-2,0-3.4-1.4-3.4-3.5s1.4-3.6,3.6-3.6,1.4.2,1.7.4l-.3.9c-.3-.2-.8-.3-1.4-.3-1.6,0-2.4,1.2-2.4,2.6s1,2.5,2.4,2.5,1.2-.2,1.5-.3l.2.9Z"/>
      <path class="st6" d="M500.8,406.3c0,.4-.3.8-.8.8s-.7-.3-.7-.8.3-.8.8-.8.8.3.8.8ZM499.5,414.9v-6.8h1.2v6.8h-1.2Z"/>
      <path class="st6" d="M503.4,411.8c0,1.7,1.1,2.4,2.3,2.4s1.4-.2,1.9-.3l.2.9c-.4.2-1.2.4-2.3.4-2.1,0-3.3-1.4-3.3-3.4s1.2-3.6,3.2-3.6,2.8,1.9,2.8,3.2,0,.4,0,.6h-4.8ZM507,410.9c0-.8-.3-2-1.7-2s-1.8,1.1-1.9,2h3.6Z"/>
      <path class="st6" d="M509.8,410c0-.7,0-1.3,0-1.8h1.1v1.1h0c.3-.6,1.1-1.3,2.2-1.3s2.4.6,2.4,2.9v4h-1.2v-3.9c0-1.1-.4-2-1.6-2s-1.4.6-1.7,1.3c0,.2,0,.4,0,.6v4.1h-1.2v-4.9Z"/>
      <path class="st6" d="M522.4,414.7c-.3.2-1,.4-1.9.4-2,0-3.4-1.4-3.4-3.5s1.4-3.6,3.6-3.6,1.4.2,1.7.4l-.3.9c-.3-.2-.8-.3-1.4-.3-1.6,0-2.4,1.2-2.4,2.6s1,2.5,2.4,2.5,1.2-.2,1.5-.3l.2.9Z"/>
      <path class="st6" d="M524.5,408.2l1.5,4c.2.4.3,1,.4,1.4h0c.1-.4.3-.9.4-1.4l1.3-4h1.3l-1.8,4.8c-.9,2.3-1.5,3.5-2.3,4.2-.6.5-1.2.7-1.5.8l-.3-1c.3,0,.7-.3,1.1-.6.3-.3.7-.7,1-1.4,0-.1,0-.2,0-.3s0-.2,0-.3l-2.5-6.2h1.3Z"/>
    </g>
    <circle class="st4" cx="195.3" cy="190.6" r="28.6" transform="translate(-71 131.2) rotate(-31.7)"/>
    <circle class="st4" cx="270.5" cy="190.6" r="28.6" transform="translate(-55.5 247.1) rotate(-45)"/>
    <path class="st8" d="M270.5,162c15.7,0,28.4,12.6,28.6,28.3l-28.6.2v-28.6Z"/>
    <circle class="st4" cx="346.3" cy="190.8" r="28.6" transform="translate(81 484) rotate(-76.7)"/>
    <path class="st8" d="M346.3,162.2c15.8,0,28.6,12.8,28.6,28.6s-12.8,28.6-28.6,28.6v-57.1Z"/>
    <circle class="st4" cx="421.9" cy="191.7" r="28.6" transform="translate(-9 21.3) rotate(-2.9)"/>
    <path class="st8" d="M421.9,163.1c15.8,0,28.6,12.8,28.6,28.6s-12.8,28.6-28.6,28.6-28.4-12.6-28.6-28.2l28.6-.3v-28.6Z"/>
    <ellipse class="st8" cx="497" cy="190.3" rx="28.6" ry="28.5"/>
    <polygon class="st10" points="159.3 499.2 159.3 452.5 534.1 499.2 159.3 499.2"/>
    <polygon class="st9" points="534.1 452.5 534.1 499.2 159.3 452.5 534.1 452.5"/>
    <g>
      <path d="M169.8,488.2h0c-.4.7-1.1,1.2-2.2,1.2-1.6,0-2.9-1.4-2.9-3.4s1.6-3.7,3.1-3.7,1.8.5,2.1,1.2h0v-1h1.2c0,.6,0,1.2,0,1.9v7.7h-1.2v-3.8ZM169.8,485.2c0-.2,0-.3,0-.5-.2-.8-.8-1.4-1.8-1.4s-2,1.1-2,2.6.6,2.5,2,2.5,1.5-.5,1.8-1.3c0-.2,0-.4,0-.6v-1.3Z"/>
      <path d="M178.7,487.4c0,.7,0,1.3,0,1.9h-1.1v-1.1h0c-.3.5-1,1.3-2.2,1.3s-2.3-.6-2.3-3v-4h1.2v3.7c0,1.3.4,2.2,1.5,2.2s1.4-.6,1.6-1.1c0-.2.1-.4.1-.6v-4.1h1.2v4.9Z"/>
      <path d="M185.5,487.6c0,.6,0,1.2,0,1.6h-1.1v-.9h-.1c-.4.5-1.1,1-2.1,1-1.4,0-2.1-1-2.1-1.9,0-1.6,1.5-2.5,4.1-2.5h0c0-.7-.2-1.7-1.5-1.7-.6,0-1.3.2-1.8.5l-.3-.8c.6-.3,1.4-.6,2.2-.6,2.1,0,2.6,1.4,2.6,2.8v2.5ZM184.3,485.8c-1.3,0-2.9.2-2.9,1.5s.5,1.2,1.1,1.2c.9,0,1.5-.6,1.7-1.1,0-.1,0-.3,0-.4v-1.2Z"/>
      <path d="M187.5,479.3h1.2v9.9h-1.2v-9.9Z"/>
      <path d="M192.2,480.5c0,.4-.3.8-.8.8s-.7-.3-.7-.8.3-.8.8-.8.8.3.8.8ZM190.8,489.2v-6.8h1.2v6.8h-1.2Z"/>
      <path d="M195.5,480.8v1.6h1.8v.9h-1.8v3.7c0,.8.2,1.3.9,1.3s.5,0,.7,0v.9c-.2,0-.6.2-1,.2s-1-.2-1.3-.5c-.3-.4-.5-1-.5-1.8v-3.7h-1.1v-.9h1.1v-1.3l1.2-.4Z"/>
      <path d="M199.3,482.4l1.5,4c.2.4.3,1,.4,1.4h0c.1-.4.3-.9.4-1.4l1.3-4h1.3l-1.8,4.8c-.9,2.3-1.5,3.5-2.3,4.2-.6.5-1.2.7-1.5.8l-.3-1c.3,0,.7-.3,1.1-.6.3-.3.7-.7,1-1.4,0-.1,0-.2,0-.3s0-.2,0-.3l-2.5-6.2h1.3Z"/>
      <path d="M213.2,489c-.3.2-1,.4-1.9.4-2,0-3.4-1.4-3.4-3.5s1.4-3.6,3.6-3.6,1.4.2,1.7.4l-.3.9c-.3-.2-.8-.3-1.4-.3-1.6,0-2.4,1.2-2.4,2.6s1,2.5,2.4,2.5,1.2-.2,1.5-.3l.2.9Z"/>
      <path d="M220.7,485.8c0,2.5-1.8,3.6-3.4,3.6s-3.2-1.3-3.2-3.5,1.5-3.6,3.4-3.6,3.3,1.4,3.3,3.5ZM215.3,485.8c0,1.5.8,2.6,2,2.6s2.1-1.1,2.1-2.6-.6-2.6-2-2.6-2.1,1.3-2.1,2.6Z"/>
      <path d="M222.3,484.3c0-.7,0-1.3,0-1.8h1.1v1.1h0c.3-.6,1.1-1.3,2.2-1.3s2.4.6,2.4,2.9v4h-1.2v-3.9c0-1.1-.4-2-1.6-2s-1.4.6-1.7,1.3c0,.2,0,.4,0,.6v4.1h-1.2v-4.9Z"/>
    </g>
    <path d="M230.1,489.2v-5.8h-.9v-.9h.9v-.4c0-1.8,1.1-2.9,3-2.9s1.4.2,1.7.4l-.4.9c-.3-.2-.8-.4-1.4-.4-1.3,0-1.7.9-1.7,2v.3h3.9v6.8h-1.2v-5.8h-2.7v5.8h-1.2Z"/>
    <g>
      <path d="M243.2,479.3v8.2c0,.6,0,1.3,0,1.8h-1.1v-1.2h0c-.4.8-1.2,1.3-2.3,1.3-1.6,0-2.9-1.4-2.9-3.4,0-2.3,1.4-3.6,3-3.6s1.7.5,2,1h0v-4h1.2ZM242,485.2c0-.2,0-.4,0-.5-.2-.8-.9-1.4-1.8-1.4s-2,1.1-2,2.6.7,2.5,2,2.5,1.6-.6,1.8-1.5c0-.2,0-.3,0-.5v-1.2Z"/>
      <path d="M245.9,486.1c0,1.7,1.1,2.4,2.3,2.4s1.4-.2,1.9-.4l.2.9c-.4.2-1.2.4-2.3.4-2.1,0-3.3-1.4-3.3-3.4s1.2-3.6,3.2-3.6,2.8,1.9,2.8,3.2,0,.4,0,.6h-4.8ZM249.5,485.2c0-.8-.3-2-1.7-2s-1.8,1.1-1.9,2h3.6Z"/>
      <path d="M252.3,484.3c0-.7,0-1.3,0-1.8h1.1v1.1h0c.3-.6,1.1-1.3,2.2-1.3s2.4.6,2.4,2.9v4h-1.2v-3.9c0-1.1-.4-2-1.6-2s-1.4.6-1.7,1.3c0,.2,0,.4,0,.6v4.1h-1.2v-4.9Z"/>
      <path d="M264.9,489c-.3.2-1,.4-1.9.4-2,0-3.4-1.4-3.4-3.5s1.4-3.6,3.6-3.6,1.4.2,1.7.4l-.3.9c-.3-.2-.8-.3-1.4-.3-1.6,0-2.4,1.2-2.4,2.6s1,2.5,2.4,2.5,1.2-.2,1.5-.3l.2.9Z"/>
      <path d="M266.9,486.1c0,1.7,1.1,2.4,2.3,2.4s1.4-.2,1.9-.4l.2.9c-.4.2-1.2.4-2.3.4-2.1,0-3.3-1.4-3.3-3.4s1.2-3.6,3.2-3.6,2.8,1.9,2.8,3.2,0,.4,0,.6h-4.8ZM270.5,485.2c0-.8-.3-2-1.7-2s-1.8,1.1-1.9,2h3.6Z"/>
    </g>
    <g>
      <path class="st6" d="M471.6,466.9h0c-.4.7-1.1,1.2-2.2,1.2-1.6,0-2.9-1.4-2.9-3.4s1.6-3.7,3.1-3.7,1.8.5,2.1,1.2h0v-1h1.2c0,.6,0,1.2,0,1.9v7.7h-1.2v-3.8ZM471.6,463.9c0-.2,0-.4,0-.5-.2-.8-.8-1.4-1.8-1.4s-2,1.1-2,2.6.6,2.5,2,2.5,1.5-.5,1.8-1.3c0-.2,0-.4,0-.6v-1.3Z"/>
      <path class="st6" d="M480.6,466.1c0,.7,0,1.3,0,1.9h-1.1v-1.1h0c-.3.5-1,1.3-2.2,1.3s-2.3-.6-2.3-3v-4h1.2v3.7c0,1.3.4,2.2,1.5,2.2s1.4-.6,1.6-1.1c0-.2.1-.4.1-.6v-4.1h1.2v4.9Z"/>
      <path class="st6" d="M487.4,466.3c0,.6,0,1.2,0,1.6h-1.1v-.9h-.1c-.4.5-1.1,1-2.1,1-1.4,0-2.1-1-2.1-1.9,0-1.6,1.5-2.5,4.1-2.5h0c0-.7-.2-1.7-1.5-1.7-.6,0-1.3.2-1.8.5l-.3-.8c.6-.3,1.4-.6,2.2-.6,2.1,0,2.6,1.4,2.6,2.8v2.5ZM486.2,464.5c-1.3,0-2.9.2-2.9,1.5s.5,1.2,1.1,1.2c.9,0,1.5-.6,1.7-1.1,0-.1,0-.3,0-.4v-1.2Z"/>
      <path class="st6" d="M489.4,458h1.2v9.9h-1.2v-9.9Z"/>
      <path class="st6" d="M494,459.3c0,.4-.3.8-.8.8s-.7-.3-.7-.8.3-.8.8-.8.8.3.8.8ZM492.7,468v-6.8h1.2v6.8h-1.2Z"/>
      <path class="st6" d="M497.4,459.5v1.6h1.8v.9h-1.8v3.7c0,.8.2,1.3.9,1.3s.5,0,.7,0v.9c-.2,0-.6.2-1,.2s-1-.2-1.3-.5c-.3-.4-.5-1-.5-1.8v-3.7h-1.1v-.9h1.1v-1.3l1.2-.4Z"/>
      <path class="st6" d="M501.1,461.2l1.5,4c.2.4.3,1,.4,1.4h0c.1-.4.3-.9.4-1.4l1.3-4h1.3l-1.8,4.8c-.9,2.3-1.5,3.5-2.3,4.2-.6.5-1.2.7-1.5.8l-.3-1c.3,0,.7-.3,1.1-.6.3-.3.7-.7,1-1.4,0-.1,0-.2,0-.3s0-.2,0-.3l-2.5-6.2h1.3Z"/>
      <path class="st6" d="M510.2,463.3c0-.8,0-1.5,0-2.1h1.1v1.3h0c.3-.9,1.1-1.5,1.9-1.5s.2,0,.3,0v1.2c-.1,0-.3,0-.4,0-.9,0-1.5.6-1.7,1.6,0,.2,0,.4,0,.6v3.6h-1.2v-4.7Z"/>
      <path class="st6" d="M516.2,459.3c0,.4-.3.8-.8.8s-.7-.3-.7-.8.3-.8.8-.8.8.3.8.8ZM514.9,468v-6.8h1.2v6.8h-1.2Z"/>
      <path class="st6" d="M518,466.7c.4.2,1,.5,1.6.5.9,0,1.3-.4,1.3-1s-.3-.9-1.2-1.2c-1.2-.4-1.8-1.1-1.8-1.9s.9-2,2.3-2,1.3.2,1.7.4l-.3.9c-.3-.2-.8-.4-1.4-.4s-1.1.4-1.1.9.4.8,1.3,1.2c1.2.4,1.8,1,1.8,2s-.9,2-2.5,2-1.4-.2-1.9-.5l.3-.9Z"/>
      <path class="st6" d="M524.9,464.3h0c.2-.2.4-.5.6-.8l2-2.3h1.5l-2.6,2.8,3,4h-1.5l-2.3-3.2-.6.7v2.5h-1.2v-9.9h1.2v6.3Z"/>
    </g>
    <polygon class="st7" points="158.7 76.9 158.7 30.2 533.5 76.9 158.7 76.9"/>
    <polygon class="st5" points="533.5 30.2 533.5 76.9 158.7 30.2 533.5 30.2"/>
    <g>
      <path d="M169.9,57.6v4h4.6v-4h1.2v9.4h-1.2v-4.4h-4.6v4.4h-1.2v-9.4h1.2Z"/>
      <path d="M179,57.6v5.6c0,2.1.9,3,2.2,3s2.3-.9,2.3-3v-5.6h1.2v5.5c0,2.9-1.5,4.1-3.6,4.1s-3.4-1.1-3.4-4v-5.6h1.2Z"/>
      <path d="M194.8,62.9c0-1.3-.2-2.9-.2-4.1h0c-.3,1.1-.7,2.3-1.2,3.6l-1.7,4.6h-.9l-1.5-4.5c-.4-1.3-.8-2.5-1.1-3.7h0c0,1.2,0,2.7-.2,4.2l-.3,4h-1.2l.7-9.4h1.6l1.6,4.6c.4,1.2.7,2.2,1,3.2h0c.3-1,.6-2,1-3.2l1.7-4.6h1.6l.6,9.4h-1.2l-.2-4.1Z"/>
      <path d="M199.5,64.1l-1,3h-1.3l3.2-9.4h1.5l3.2,9.4h-1.3l-1-3h-3.3ZM202.6,63.1l-.9-2.7c-.2-.6-.4-1.2-.5-1.7h0c-.1.5-.3,1.1-.5,1.7l-.9,2.7h2.9Z"/>
      <path d="M206.6,67v-9.4h1.3l3,4.8c.7,1.1,1.2,2.1,1.7,3.1h0c-.1-1.3-.1-2.4-.1-3.9v-4h1.1v9.4h-1.2l-3-4.8c-.7-1-1.3-2.1-1.8-3.2h0c0,1.2,0,2.3,0,3.9v4h-1.1Z"/>
    </g>
    <g>
      <path class="st6" d="M471.6,44.2l-1,3h-1.3l3.2-9.4h1.5l3.2,9.4h-1.3l-1-3h-3.3ZM474.7,43.3l-.9-2.7c-.2-.6-.4-1.2-.5-1.7h0c-.1.5-.3,1.1-.5,1.7l-.9,2.7h2.9Z"/>
      <path class="st6" d="M479.9,37.7v9.4h-1.2v-9.4h1.2Z"/>
      <path class="st6" d="M486.5,44.2l-1,3h-1.3l3.2-9.4h1.5l3.2,9.4h-1.3l-1-3h-3.3ZM489.6,43.3l-.9-2.7c-.2-.6-.4-1.2-.5-1.7h0c-.1.5-.3,1.1-.5,1.7l-.9,2.7h2.9Z"/>
      <path class="st6" d="M500.5,46.8c-.5.2-1.6.5-2.9.5s-2.6-.4-3.5-1.2c-.8-.8-1.3-2-1.3-3.5,0-2.8,1.9-4.9,5.1-4.9s2,.2,2.4.4l-.3,1c-.5-.2-1.1-.4-2.1-.4-2.3,0-3.8,1.4-3.8,3.8s1.4,3.8,3.6,3.8,1.3-.1,1.6-.3v-2.8h-1.9v-1h3.1v4.5Z"/>
      <path class="st6" d="M507.2,42.8h-3.7v3.4h4.1v1h-5.3v-9.4h5.1v1h-3.9v3h3.7v1Z"/>
      <path class="st6" d="M509.2,47.2v-9.4h1.3l3,4.8c.7,1.1,1.2,2.1,1.7,3.1h0c-.1-1.3-.1-2.4-.1-3.9v-4h1.1v9.4h-1.2l-3-4.8c-.7-1-1.3-2.1-1.8-3.2h0c0,1.2,0,2.3,0,3.9v4h-1.1Z"/>
      <path class="st6" d="M520.3,38.8h-2.9v-1h7v1h-2.9v8.4h-1.2v-8.4Z"/>
    </g>
    <polygon class="st10" points="159.3 394 159.3 347.3 534.1 394 159.3 394"/>
    <polygon class="st9" points="534.1 347.3 534.1 394 159.3 347.3 534.1 347.3"/>
    <g>
      <path d="M172.1,383.9c-.3.2-1,.4-1.9.4-2,0-3.4-1.4-3.4-3.5s1.4-3.6,3.6-3.6,1.4.2,1.7.4l-.3.9c-.3-.2-.8-.3-1.4-.3-1.6,0-2.4,1.2-2.4,2.6s1,2.5,2.4,2.5,1.2-.2,1.5-.3l.2.9Z"/>
      <path d="M179.6,380.7c0,2.5-1.8,3.6-3.4,3.6s-3.2-1.3-3.2-3.5,1.5-3.6,3.4-3.6,3.3,1.4,3.3,3.5ZM174.2,380.7c0,1.5.8,2.6,2,2.6s2.1-1.1,2.1-2.6-.6-2.6-2-2.6-2.1,1.3-2.1,2.6Z"/>
      <path d="M181.1,379.2c0-.7,0-1.3,0-1.8h1.1v1.1h0c.3-.6,1.1-1.3,2.2-1.3s2.4.6,2.4,2.9v4h-1.2v-3.9c0-1.1-.4-2-1.6-2s-1.4.6-1.7,1.3c0,.2,0,.4,0,.6v4.1h-1.2v-4.9Z"/>
      <path d="M190.4,375.7v1.6h1.8v.9h-1.8v3.7c0,.8.2,1.3.9,1.3s.5,0,.7,0v.9c-.2,0-.6.2-1,.2s-1-.2-1.3-.5c-.3-.4-.5-1-.5-1.8v-3.7h-1.1v-.9h1.1v-1.3l1.2-.4Z"/>
      <path d="M193.5,379.4c0-.8,0-1.5,0-2.1h1.1v1.3h0c.3-.9,1.1-1.5,1.9-1.5s.2,0,.3,0v1.2c-.1,0-.3,0-.4,0-.9,0-1.5.6-1.7,1.6,0,.2,0,.4,0,.6v3.6h-1.2v-4.7Z"/>
      <path d="M204.1,380.7c0,2.5-1.8,3.6-3.4,3.6s-3.2-1.3-3.2-3.5,1.5-3.6,3.4-3.6,3.3,1.4,3.3,3.5ZM198.7,380.7c0,1.5.8,2.6,2,2.6s2.1-1.1,2.1-2.6-.6-2.6-2-2.6-2.1,1.3-2.1,2.6Z"/>
      <path d="M205.6,374.2h1.2v9.9h-1.2v-9.9Z"/>
      <path d="M216.7,382.5c0,.6,0,1.2,0,1.6h-1.1v-.9h-.1c-.4.5-1.1,1-2.1,1-1.4,0-2.1-1-2.1-1.9,0-1.6,1.5-2.5,4.1-2.5h0c0-.7-.2-1.7-1.5-1.7-.6,0-1.3.2-1.8.5l-.3-.8c.6-.4,1.4-.6,2.2-.6,2.1,0,2.6,1.4,2.6,2.8v2.5ZM215.5,380.6c-1.3,0-2.9.2-2.9,1.5s.5,1.2,1.1,1.2c.9,0,1.5-.6,1.7-1.1,0-.1,0-.3,0-.4v-1.2Z"/>
      <path d="M224.3,382.2c0,.7,0,1.3,0,1.9h-1.1v-1.1h0c-.3.5-1,1.3-2.2,1.3s-2.3-.6-2.3-3v-4h1.2v3.7c0,1.3.4,2.2,1.5,2.2s1.4-.6,1.6-1.1c0-.2.1-.4.1-.6v-4.1h1.2v4.9Z"/>
      <path d="M227.9,375.7v1.6h1.8v.9h-1.8v3.7c0,.8.2,1.3.9,1.3s.5,0,.7,0v.9c-.2,0-.6.2-1,.2s-1-.2-1.3-.5c-.3-.4-.5-1-.5-1.8v-3.7h-1.1v-.9h1.1v-1.3l1.2-.4Z"/>
      <path d="M231,374.2h1.2v4.2h0c.2-.3.5-.7.9-.9.4-.2.8-.3,1.3-.3.9,0,2.4.6,2.4,2.9v4h-1.2v-3.9c0-1.1-.4-2-1.6-2s-1.4.6-1.7,1.2c0,.2,0,.4,0,.6v4.1h-1.2v-9.9Z"/>
      <path d="M244.9,380.7c0,2.5-1.8,3.6-3.4,3.6s-3.2-1.3-3.2-3.5,1.5-3.6,3.4-3.6,3.3,1.4,3.3,3.5ZM239.6,380.7c0,1.5.8,2.6,2,2.6s2.1-1.1,2.1-2.6-.6-2.6-2-2.6-2.1,1.3-2.1,2.6Z"/>
      <path d="M246.5,379.4c0-.8,0-1.5,0-2.1h1.1v1.3h0c.3-.9,1.1-1.5,1.9-1.5s.2,0,.3,0v1.2c-.1,0-.3,0-.4,0-.9,0-1.5.6-1.7,1.6,0,.2,0,.4,0,.6v3.6h-1.2v-4.7Z"/>
      <path d="M252.5,375.4c0,.4-.3.8-.8.8s-.7-.3-.7-.8.3-.8.8-.8.8.3.8.8ZM251.1,384.1v-6.8h1.2v6.8h-1.2Z"/>
      <path d="M255.9,375.7v1.6h1.8v.9h-1.8v3.7c0,.8.2,1.3.9,1.3s.5,0,.7,0v.9c-.2,0-.6.2-1,.2s-1-.2-1.3-.5c-.3-.4-.5-1-.5-1.8v-3.7h-1.1v-.9h1.1v-1.3l1.2-.4Z"/>
      <path d="M259.6,377.3l1.5,4c.2.4.3,1,.4,1.4h0c.1-.4.3-.9.4-1.4l1.3-4h1.3l-1.8,4.8c-.9,2.3-1.5,3.5-2.3,4.2-.6.5-1.2.7-1.5.8l-.3-1c.3,0,.7-.3,1.1-.6.3-.3.7-.7,1-1.4,0-.1,0-.2,0-.3s0-.2,0-.3l-2.5-6.2h1.3Z"/>
    </g>
    <g>
      <path class="st6" d="M473.9,352.8v8.2c0,.6,0,1.3,0,1.8h-1.1v-1.2h0c-.4.8-1.2,1.3-2.3,1.3-1.6,0-2.9-1.4-2.9-3.4,0-2.3,1.4-3.6,3-3.6s1.7.5,2,1h0v-4h1.2ZM472.7,358.8c0-.2,0-.4,0-.5-.2-.8-.9-1.4-1.8-1.4s-2,1.1-2,2.6.7,2.5,2,2.5,1.6-.6,1.8-1.5c0-.2,0-.3,0-.5v-1.2Z"/>
      <path class="st6" d="M476.6,359.6c0,1.7,1.1,2.4,2.3,2.4s1.4-.2,1.9-.3l.2.9c-.4.2-1.2.4-2.3.4-2.1,0-3.3-1.4-3.3-3.4s1.2-3.6,3.2-3.6,2.8,1.9,2.8,3.2,0,.4,0,.6h-4.8ZM480.2,358.7c0-.8-.3-2-1.7-2s-1.8,1.1-1.9,2h3.6Z"/>
      <path class="st6" d="M482.9,352.8h1.2v9.9h-1.2v-9.9Z"/>
      <path class="st6" d="M486.9,359.6c0,1.7,1.1,2.4,2.3,2.4s1.4-.2,1.9-.3l.2.9c-.4.2-1.2.4-2.3.4-2.1,0-3.3-1.4-3.3-3.4s1.2-3.6,3.2-3.6,2.8,1.9,2.8,3.2,0,.4,0,.6h-4.8ZM490.6,358.7c0-.8-.3-2-1.7-2s-1.8,1.1-1.9,2h3.6Z"/>
      <path class="st6" d="M499.1,361.8c0,1.6-.3,2.5-1,3.1-.7.6-1.6.8-2.5.8s-1.7-.2-2.3-.6l.3-1c.4.3,1.1.5,2,.5,1.3,0,2.2-.7,2.2-2.4v-.7h0c-.4.6-1.1,1.1-2.2,1.1-1.7,0-2.9-1.4-2.9-3.3s1.5-3.6,3.1-3.6,1.8.6,2.1,1.2h0v-1h1.1c0,.5,0,1,0,1.8v3.9ZM497.8,358.7c0-.2,0-.4,0-.5-.2-.7-.8-1.3-1.7-1.3s-2,1-2,2.6.7,2.4,2,2.4,1.5-.5,1.7-1.3c0-.2,0-.4,0-.7v-1.2Z"/>
      <path class="st6" d="M505.9,361.2c0,.6,0,1.2,0,1.6h-1.1v-.9h-.1c-.4.5-1.1,1-2.1,1-1.4,0-2.1-1-2.1-1.9,0-1.6,1.5-2.5,4.1-2.5h0c0-.7-.2-1.7-1.5-1.7-.6,0-1.3.2-1.8.5l-.3-.8c.6-.4,1.4-.6,2.2-.6,2.1,0,2.6,1.4,2.6,2.8v2.5ZM504.7,359.3c-1.3,0-2.9.2-2.9,1.5s.5,1.2,1.1,1.2c.9,0,1.5-.6,1.7-1.1,0-.1,0-.3,0-.4v-1.2Z"/>
      <path class="st6" d="M509.3,354.4v1.6h1.8v.9h-1.8v3.7c0,.8.2,1.3.9,1.3s.5,0,.7,0v.9c-.2,0-.6.2-1,.2s-1-.2-1.3-.5c-.3-.4-.5-1-.5-1.8v-3.7h-1.1v-.9h1.1v-1.3l1.2-.4Z"/>
      <path class="st6" d="M513.8,354.1c0,.4-.3.8-.8.8s-.7-.3-.7-.8.3-.8.8-.8.8.3.8.8ZM512.4,362.8v-6.8h1.2v6.8h-1.2Z"/>
      <path class="st6" d="M521.8,359.3c0,2.5-1.8,3.6-3.4,3.6s-3.2-1.3-3.2-3.5,1.5-3.6,3.4-3.6,3.3,1.4,3.3,3.5ZM516.5,359.4c0,1.5.8,2.6,2,2.6s2.1-1.1,2.1-2.6-.6-2.6-2-2.6-2.1,1.3-2.1,2.6Z"/>
      <path class="st6" d="M523.4,357.8c0-.7,0-1.3,0-1.8h1.1v1.1h0c.3-.6,1.1-1.3,2.2-1.3s2.4.6,2.4,2.9v4h-1.2v-3.9c0-1.1-.4-2-1.6-2s-1.4.6-1.7,1.3c0,.2,0,.4,0,.6v4.1h-1.2v-4.9Z"/>
    </g>
    <g>
      <path class="st6" d="M169.3,134.2c0-.9,0-1.6,0-2.2h1.8v.9h.1c.3-.4.9-1.1,2.1-1.1s1.6.5,1.9,1.2h0c.3-.4.6-.6.9-.8.4-.2.8-.3,1.3-.3,1.3,0,2.3.9,2.3,3v4h-2.1v-3.7c0-1-.3-1.6-1-1.6s-.8.3-1,.7c0,.2,0,.4,0,.5v4h-2.1v-3.9c0-.9-.3-1.4-1-1.4s-.9.4-1,.8c0,.2,0,.4,0,.5v4h-2.1v-4.7Z"/>
      <path class="st6" d="M187,137.3c0,.6,0,1.3.1,1.7h-1.9v-.7h-.2c-.4.5-1.1.8-2,.8-1.4,0-2.2-1-2.2-2.1,0-1.8,1.6-2.6,4-2.6h0c0-.5-.2-1-1.2-1s-1.4.2-1.9.5l-.4-1.4c.5-.3,1.4-.6,2.7-.6,2.3,0,3,1.3,3,3v2.4ZM185,135.7c-1.1,0-2,.3-2,1.1s.4.8.8.8,1-.4,1.1-.8c0-.1,0-.2,0-.4v-.7Z"/>
      <path class="st6" d="M188.7,134.2c0-.9,0-1.6,0-2.2h1.8v1h.1c.3-.4,1-1.1,2.1-1.1s2.5.9,2.5,3v4h-2.1v-3.8c0-.9-.3-1.5-1.1-1.5s-.9.4-1.1.8c0,.1,0,.3,0,.5v4h-2.1v-4.7Z"/>
      <path class="st6" d="M203.4,136.7c0,.9,0,1.6,0,2.2h-1.8v-1h-.1c-.3.4-.9,1.1-2.1,1.1s-2.4-.9-2.4-3v-4h2.1v3.7c0,1,.3,1.6,1.1,1.6s.9-.4,1.1-.7c0-.1,0-.3,0-.5v-4.1h2.1v4.7Z"/>
      <path class="st6" d="M210.8,137.3c0,.6,0,1.3.1,1.7h-1.9v-.7h-.2c-.4.5-1.1.8-2,.8-1.4,0-2.2-1-2.2-2.1,0-1.8,1.6-2.6,4-2.6h0c0-.5-.2-1-1.2-1s-1.4.2-1.9.5l-.4-1.4c.5-.3,1.4-.6,2.7-.6,2.3,0,3,1.3,3,3v2.4ZM208.7,135.7c-1.1,0-2,.3-2,1.1s.4.8.8.8,1-.4,1.1-.8c0-.1,0-.2,0-.4v-.7Z"/>
      <path class="st6" d="M212.5,129h2.1v9.9h-2.1v-9.9Z"/>
      <path class="st6" d="M216.3,129h2.1v9.9h-2.1v-9.9Z"/>
      <path class="st6" d="M221.8,132.1l1,3.4c.1.4.3.9.3,1.3h0c0-.4.2-.9.3-1.3l.9-3.4h2.3l-1.6,4.5c-1,2.7-1.6,3.8-2.4,4.5-.7.6-1.5.9-2,.9l-.5-1.8c.3,0,.6-.2.9-.4.3-.2.7-.5.9-.9,0-.1.1-.2.1-.3s0-.2,0-.3l-2.5-6.3h2.4Z"/>
    </g>
    <g>
      <path class="st6" d="M467.8,137.3c0,.6,0,1.3.1,1.7h-1.9v-.7h-.2c-.4.5-1.1.8-2,.8-1.4,0-2.2-1-2.2-2.1,0-1.8,1.6-2.6,4-2.6h0c0-.5-.2-1-1.2-1s-1.4.2-1.9.5l-.4-1.4c.5-.3,1.4-.6,2.7-.6,2.3,0,3,1.3,3,3v2.4ZM465.8,135.7c-1.1,0-2,.3-2,1.1s.4.8.8.8,1-.4,1.1-.8c0-.1,0-.2,0-.4v-.7Z"/>
      <path class="st6" d="M475.2,136.7c0,.9,0,1.6,0,2.2h-1.8v-1h-.1c-.3.4-.9,1.1-2.1,1.1s-2.4-.9-2.4-3v-4h2.1v3.7c0,1,.3,1.6,1.1,1.6s.9-.4,1.1-.7c0-.1,0-.3,0-.5v-4.1h2.1v4.7Z"/>
      <path class="st6" d="M478.6,130.2v1.8h1.5v1.6h-1.5v2.5c0,.8.2,1.2.8,1.2s.4,0,.6,0v1.6c-.3,0-.8.2-1.4.2s-1.3-.2-1.6-.6c-.4-.4-.6-1.1-.6-2v-2.8h-.9v-1.6h.9v-1.3l2.1-.6Z"/>
      <path class="st6" d="M487.3,135.4c0,2.5-1.8,3.7-3.6,3.7s-3.5-1.3-3.5-3.5,1.5-3.6,3.7-3.6,3.5,1.4,3.5,3.5ZM482.3,135.5c0,1.2.5,2.1,1.4,2.1s1.4-.8,1.4-2.1-.4-2-1.4-2-1.4,1.1-1.4,2.1Z"/>
      <path class="st6" d="M487.9,134.2c0-.9,0-1.6,0-2.2h1.8v1h.1c.3-.4,1-1.1,2.1-1.1s2.5.9,2.5,3v4h-2.1v-3.8c0-.9-.3-1.5-1.1-1.5s-.9.4-1.1.8c0,.1,0,.3,0,.5v4h-2.1v-4.7Z"/>
      <path class="st6" d="M502.1,135.4c0,2.5-1.8,3.7-3.6,3.7s-3.5-1.3-3.5-3.5,1.5-3.6,3.7-3.6,3.5,1.4,3.5,3.5ZM497.1,135.5c0,1.2.5,2.1,1.4,2.1s1.4-.8,1.4-2.1-.4-2-1.4-2-1.4,1.1-1.4,2.1Z"/>
      <path class="st6" d="M502.7,134.2c0-.9,0-1.6,0-2.2h1.8v.9h.1c.3-.4.9-1.1,2.1-1.1s1.6.5,1.9,1.2h0c.3-.4.6-.6.9-.8.4-.2.8-.3,1.3-.3,1.3,0,2.3.9,2.3,3v4h-2.1v-3.7c0-1-.3-1.6-1-1.6s-.8.3-1,.7c0,.2,0,.4,0,.5v4h-2.1v-3.9c0-.9-.3-1.4-1-1.4s-.9.4-1,.8c0,.2,0,.4,0,.5v4h-2.1v-4.7Z"/>
      <path class="st6" d="M520.7,135.4c0,2.5-1.8,3.7-3.6,3.7s-3.5-1.3-3.5-3.5,1.5-3.6,3.7-3.6,3.5,1.4,3.5,3.5ZM515.8,135.5c0,1.2.5,2.1,1.4,2.1s1.4-.8,1.4-2.1-.4-2-1.4-2-1.4,1.1-1.4,2.1Z"/>
      <path class="st6" d="M527.8,136.7c0,.9,0,1.6,0,2.2h-1.8v-1h-.1c-.3.4-.9,1.1-2.1,1.1s-2.4-.9-2.4-3v-4h2.1v3.7c0,1,.3,1.6,1.1,1.6s.9-.4,1.1-.7c0-.1,0-.3,0-.5v-4.1h2.1v4.7Z"/>
      <path class="st6" d="M528.7,137.1c.4.2,1.2.5,1.8.5s.9-.2.9-.6-.2-.5-1-.8c-1.4-.5-2-1.2-2-2.1,0-1.3,1.1-2.3,2.8-2.3s1.5.2,1.9.4l-.4,1.5c-.3-.2-.9-.4-1.5-.4s-.8.2-.8.5.3.5,1.1.8c1.3.4,1.8,1.1,1.8,2.1,0,1.3-1,2.2-3,2.2s-1.7-.2-2.2-.5l.4-1.5Z"/>
    </g>
    <g>
      <path class="st6" d="M398.6,129v7.9c0,.8,0,1.6,0,2h-1.9v-1h-.1c-.4.8-1.3,1.1-2.1,1.1-1.6,0-2.9-1.4-2.9-3.5,0-2.3,1.4-3.7,3.1-3.7s1.5.3,1.8.8h0v-3.7h2.1ZM396.4,135c0-.1,0-.3,0-.4-.1-.6-.6-1-1.2-1-1,0-1.5.9-1.5,1.9s.6,1.9,1.5,1.9,1.1-.4,1.2-1c0-.2,0-.3,0-.5v-.9Z"/>
      <path class="st6" d="M401.9,136.2c0,.9.9,1.3,1.9,1.3s1.3,0,1.9-.3l.3,1.4c-.7.3-1.6.4-2.5.4-2.3,0-3.7-1.3-3.7-3.5s1.1-3.7,3.5-3.7,3.1,1.7,3.1,3.4,0,.7,0,.8h-4.4ZM404.4,134.7c0-.5-.2-1.4-1.2-1.4s-1.3.8-1.3,1.4h2.5Z"/>
      <path class="st6" d="M407.7,129h2.1v9.9h-2.1v-9.9Z"/>
      <path class="st6" d="M413.2,136.2c0,.9.9,1.3,1.9,1.3s1.3,0,1.9-.3l.3,1.4c-.7.3-1.6.4-2.5.4-2.3,0-3.7-1.3-3.7-3.5s1.1-3.7,3.5-3.7,3.1,1.7,3.1,3.4,0,.7,0,.8h-4.4ZM415.7,134.7c0-.5-.2-1.4-1.2-1.4s-1.3.8-1.3,1.4h2.5Z"/>
      <path class="st6" d="M425.4,137.9c0,1.3-.3,2.4-1.1,3.1-.7.6-1.8.8-2.8.8s-1.8-.2-2.5-.5l.4-1.6c.4.3,1.2.5,2,.5s1.8-.5,1.8-1.8v-.4h0c-.4.6-1.1.9-1.8.9-1.7,0-2.9-1.4-2.9-3.3s1.4-3.6,3.1-3.6,1.5.4,1.9,1h0v-.8h1.9c0,.4,0,1,0,2v3.8ZM423.3,134.9c0-.1,0-.3,0-.4-.2-.6-.6-.9-1.1-.9s-1.4.7-1.4,1.9.5,1.8,1.4,1.8,1-.4,1.1-.9c0-.2,0-.4,0-.6v-1Z"/>
      <path class="st6" d="M432.8,137.3c0,.6,0,1.3.1,1.7h-1.9v-.7h-.2c-.4.5-1.1.8-2,.8-1.4,0-2.2-1-2.2-2.1,0-1.8,1.6-2.6,4-2.6h0c0-.5-.2-1-1.2-1s-1.4.2-1.9.5l-.4-1.4c.5-.3,1.4-.6,2.7-.6,2.3,0,3,1.3,3,3v2.4ZM430.7,135.7c-1.1,0-2,.3-2,1.1s.4.8.8.8,1-.4,1.1-.8c0-.1,0-.2,0-.4v-.7Z"/>
      <path class="st6" d="M436.8,130.2v1.8h1.5v1.6h-1.5v2.5c0,.8.2,1.2.8,1.2s.4,0,.6,0v1.6c-.3,0-.8.2-1.4.2s-1.3-.2-1.6-.6c-.4-.4-.6-1.1-.6-2v-2.8h-.9v-1.6h.9v-1.3l2.1-.6Z"/>
      <path class="st6" d="M441.1,136.2c0,.9.9,1.3,1.9,1.3s1.3,0,1.9-.3l.3,1.4c-.7.3-1.6.4-2.5.4-2.3,0-3.7-1.3-3.7-3.5s1.1-3.7,3.5-3.7,3.1,1.7,3.1,3.4,0,.7,0,.8h-4.4ZM443.6,134.7c0-.5-.2-1.4-1.2-1.4s-1.3.8-1.3,1.4h2.5Z"/>
      <path class="st6" d="M453.5,129v7.9c0,.8,0,1.6,0,2h-1.9v-1h-.1c-.4.8-1.3,1.1-2.1,1.1-1.6,0-2.9-1.4-2.9-3.5,0-2.3,1.4-3.7,3.1-3.7s1.5.3,1.8.8h0v-3.7h2.1ZM451.4,135c0-.1,0-.3,0-.4-.1-.6-.6-1-1.2-1-1,0-1.5.9-1.5,1.9s.6,1.9,1.5,1.9,1.1-.4,1.2-1c0-.2,0-.3,0-.5v-.9Z"/>
    </g>
    <g>
      <path class="st6" d="M313,137.1c.4.2,1.2.5,1.8.5s.9-.2.9-.6-.2-.5-1-.8c-1.4-.5-2-1.2-2-2.1,0-1.3,1.1-2.3,2.8-2.3s1.5.2,1.9.4l-.4,1.5c-.3-.2-.9-.4-1.5-.4s-.8.2-.8.5.3.5,1.1.8c1.3.4,1.8,1.1,1.8,2.1,0,1.3-1,2.2-3,2.2s-1.7-.2-2.2-.5l.4-1.5Z"/>
      <path class="st6" d="M325.6,136.7c0,.9,0,1.6,0,2.2h-1.8v-1h-.1c-.3.4-.9,1.1-2.1,1.1s-2.4-.9-2.4-3v-4h2.1v3.7c0,1,.3,1.6,1.1,1.6s.9-.4,1.1-.7c0-.1,0-.3,0-.5v-4.1h2.1v4.7Z"/>
      <path class="st6" d="M327.3,134.4c0-.9,0-1.7,0-2.3h1.8v1h.1c.5-.7,1.3-1.1,2.3-1.1,1.5,0,2.8,1.3,2.8,3.5s-1.6,3.7-3.1,3.7-1.5-.3-1.8-.8h0v3.4h-2.1v-7.3ZM329.4,136c0,.2,0,.3,0,.4.1.6.6,1,1.2,1,.9,0,1.5-.8,1.5-1.9s-.5-1.9-1.4-1.9-1.1.4-1.3,1.1c0,.1,0,.3,0,.4v.9Z"/>
      <path class="st6" d="M337.3,136.2c0,.9.9,1.3,1.9,1.3s1.3,0,1.9-.3l.3,1.4c-.7.3-1.6.4-2.5.4-2.3,0-3.7-1.3-3.7-3.5s1.1-3.7,3.5-3.7,3.1,1.7,3.1,3.4,0,.7,0,.8h-4.4ZM339.8,134.7c0-.5-.2-1.4-1.2-1.4s-1.3.8-1.3,1.4h2.5Z"/>
      <path class="st6" d="M343.1,134.3c0-1,0-1.7,0-2.3h1.8v1.3h.1c.3-1,1.2-1.4,1.8-1.4s.3,0,.4,0v2c-.2,0-.3,0-.6,0-.8,0-1.3.4-1.5,1.1,0,.1,0,.3,0,.5v3.5h-2.1v-4.6Z"/>
      <path class="st6" d="M350.2,132.1l.9,3.2c.2.6.3,1.1.4,1.7h0c.1-.6.2-1.1.4-1.7l.9-3.2h2.2l-2.5,6.8h-2.1l-2.5-6.8h2.3Z"/>
      <path class="st6" d="M358.3,130.2c0,.6-.4,1.1-1.1,1.1s-1.1-.5-1.1-1.1.4-1.1,1.1-1.1,1.1.5,1.1,1.1ZM356.1,138.9v-6.8h2.1v6.8h-2.1Z"/>
      <path class="st6" d="M359.9,137.1c.4.2,1.2.5,1.8.5s.9-.2.9-.6-.2-.5-1-.8c-1.4-.5-2-1.2-2-2.1,0-1.3,1.1-2.3,2.8-2.3s1.5.2,1.9.4l-.4,1.5c-.3-.2-.9-.4-1.5-.4s-.8.2-.8.5.3.5,1.1.8c1.3.4,1.8,1.1,1.8,2.1,0,1.3-1,2.2-3,2.2s-1.7-.2-2.2-.5l.4-1.5Z"/>
      <path class="st6" d="M367.6,136.2c0,.9.9,1.3,1.9,1.3s1.3,0,1.9-.3l.3,1.4c-.7.3-1.6.4-2.5.4-2.3,0-3.7-1.3-3.7-3.5s1.1-3.7,3.5-3.7,3.1,1.7,3.1,3.4,0,.7,0,.8h-4.4ZM370.1,134.7c0-.5-.2-1.4-1.2-1.4s-1.3.8-1.3,1.4h2.5Z"/>
      <path class="st6" d="M380,129v7.9c0,.8,0,1.6,0,2h-1.9v-1h-.1c-.4.8-1.3,1.1-2.1,1.1-1.6,0-2.9-1.4-2.9-3.5,0-2.3,1.4-3.7,3.1-3.7s1.5.3,1.8.8h0v-3.7h2.1ZM377.9,135c0-.1,0-.3,0-.4-.1-.6-.6-1-1.2-1-1,0-1.5.9-1.5,1.9s.6,1.9,1.5,1.9,1.1-.4,1.2-1c0-.2,0-.3,0-.5v-.9Z"/>
    </g>
    <g>
      <path class="st6" d="M254.6,137.3c0,.6,0,1.3.1,1.7h-1.9v-.7h-.2c-.4.5-1.1.8-2,.8-1.4,0-2.2-1-2.2-2.1,0-1.8,1.6-2.6,4-2.6h0c0-.5-.2-1-1.2-1s-1.4.2-1.9.5l-.4-1.4c.5-.3,1.4-.6,2.7-.6,2.3,0,3,1.3,3,3v2.4ZM252.5,135.7c-1.1,0-2,.3-2,1.1s.4.8.8.8,1-.4,1.1-.8c0-.1,0-.2,0-.4v-.7Z"/>
      <path class="st6" d="M256.3,137.1c.4.2,1.2.5,1.8.5s.9-.2.9-.6-.2-.5-1-.8c-1.4-.5-2-1.2-2-2.1,0-1.3,1.1-2.3,2.8-2.3s1.5.2,1.9.4l-.4,1.5c-.3-.2-.9-.4-1.5-.4s-.8.2-.8.5.3.5,1.1.8c1.3.4,1.8,1.1,1.8,2.1,0,1.3-1,2.2-3,2.2s-1.7-.2-2.2-.5l.4-1.5Z"/>
      <path class="st6" d="M262.4,137.1c.4.2,1.2.5,1.8.5s.9-.2.9-.6-.2-.5-1-.8c-1.4-.5-2-1.2-2-2.1,0-1.3,1.1-2.3,2.8-2.3s1.5.2,1.9.4l-.4,1.5c-.3-.2-.9-.4-1.5-.4s-.8.2-.8.5.3.5,1.1.8c1.3.4,1.8,1.1,1.8,2.1,0,1.3-1,2.2-3,2.2s-1.7-.2-2.2-.5l.4-1.5Z"/>
      <path class="st6" d="M270.6,130.2c0,.6-.4,1.1-1.1,1.1s-1.1-.5-1.1-1.1.4-1.1,1.1-1.1,1.1.5,1.1,1.1ZM268.4,138.9v-6.8h2.1v6.8h-2.1Z"/>
      <path class="st6" d="M272.3,137.1c.4.2,1.2.5,1.8.5s.9-.2.9-.6-.2-.5-1-.8c-1.4-.5-2-1.2-2-2.1,0-1.3,1.1-2.3,2.8-2.3s1.5.2,1.9.4l-.4,1.5c-.3-.2-.9-.4-1.5-.4s-.8.2-.8.5.3.5,1.1.8c1.3.4,1.8,1.1,1.8,2.1,0,1.3-1,2.2-3,2.2s-1.7-.2-2.2-.5l.4-1.5Z"/>
      <path class="st6" d="M280.7,130.2v1.8h1.5v1.6h-1.5v2.5c0,.8.2,1.2.8,1.2s.4,0,.6,0v1.6c-.3,0-.8.2-1.4.2s-1.3-.2-1.6-.6c-.4-.4-.6-1.1-.6-2v-2.8h-.9v-1.6h.9v-1.3l2.1-.6Z"/>
      <path class="st6" d="M285.1,136.2c0,.9.9,1.3,1.9,1.3s1.3,0,1.9-.3l.3,1.4c-.7.3-1.6.4-2.5.4-2.3,0-3.7-1.3-3.7-3.5s1.1-3.7,3.5-3.7,3.1,1.7,3.1,3.4,0,.7,0,.8h-4.4ZM287.6,134.7c0-.5-.2-1.4-1.2-1.4s-1.3.8-1.3,1.4h2.5Z"/>
      <path class="st6" d="M297.5,129v7.9c0,.8,0,1.6,0,2h-1.9v-1h-.1c-.4.8-1.3,1.1-2.1,1.1-1.6,0-2.9-1.4-2.9-3.5,0-2.3,1.4-3.7,3.1-3.7s1.5.3,1.8.8h0v-3.7h2.1ZM295.3,135c0-.1,0-.3,0-.4-.1-.6-.6-1-1.2-1-1,0-1.5.9-1.5,1.9s.6,1.9,1.5,1.9,1.1-.4,1.2-1c0-.2,0-.3,0-.5v-.9Z"/>
    </g>
    <g>
      <path d="M185.7,315.8c.4.2,1,.5,1.6.5.9,0,1.3-.4,1.3-1s-.3-.9-1.2-1.2c-1.2-.4-1.8-1.1-1.8-1.9s.9-2,2.3-2,1.3.2,1.7.4l-.3.9c-.3-.2-.8-.4-1.4-.4s-1.1.4-1.1.9.4.8,1.3,1.2c1.2.4,1.8,1,1.8,2s-.9,2-2.5,2-1.4-.2-1.9-.5l.3-.9Z"/>
      <path d="M192.1,313.9c0,1.7,1.1,2.4,2.3,2.4s1.4-.2,1.9-.3l.2.9c-.4.2-1.2.4-2.3.4-2.1,0-3.3-1.4-3.3-3.4s1.2-3.6,3.2-3.6,2.8,1.9,2.8,3.2,0,.4,0,.6h-4.8ZM195.7,313c0-.8-.3-2-1.7-2s-1.8,1.1-1.9,2h3.6Z"/>
      <path d="M198.4,307.1h1.2v9.9h-1.2v-9.9Z"/>
      <path d="M201.9,317v-5.8h-.9v-.9h.9v-.3c0-1,.2-1.8.8-2.4.5-.4,1.1-.6,1.7-.6s.8,0,1.1.2l-.2,1c-.2,0-.4-.2-.8-.2-1,0-1.3.9-1.3,2v.4h1.6v.9h-1.6v5.8h-1.2Z"/>
    </g>
    <g>
      <path class="st6" d="M471.5,315.6c.3.2,1.1.6,2,.6,1.6,0,2.1-1,2.1-1.8,0-1.3-1.2-1.8-2.4-1.8h-.7v-.9h.7c.9,0,2-.5,2-1.5s-.5-1.4-1.6-1.4-1.4.3-1.8.6l-.3-.9c.5-.3,1.4-.7,2.4-.7,1.8,0,2.6,1.1,2.6,2.2s-.6,1.8-1.7,2.2h0c1.1.2,2,1.1,2,2.4,0,1.5-1.1,2.7-3.3,2.7s-1.9-.3-2.4-.6l.3-.9Z"/>
      <path class="st6" d="M478.8,312.4c0-.8,0-1.5,0-2.1h1.1v1.3h0c.3-.9,1.1-1.5,1.9-1.5s.2,0,.3,0v1.2c-.1,0-.3,0-.4,0-.9,0-1.5.6-1.7,1.6,0,.2,0,.4,0,.6v3.6h-1.2v-4.7Z"/>
      <path class="st6" d="M489.1,307.1v8.2c0,.6,0,1.3,0,1.8h-1.1v-1.2h0c-.4.8-1.2,1.3-2.3,1.3-1.6,0-2.9-1.4-2.9-3.4,0-2.3,1.4-3.6,3-3.6s1.7.5,2,1h0v-4h1.2ZM487.8,313c0-.2,0-.4,0-.5-.2-.8-.9-1.4-1.8-1.4s-2,1.1-2,2.6.7,2.5,2,2.5,1.6-.6,1.8-1.5c0-.2,0-.3,0-.5v-1.2Z"/>
      <path class="st6" d="M494,312.8v.9h-3.5v-.9h3.5Z"/>
      <path class="st6" d="M495.4,312.5c0-.9,0-1.6,0-2.2h1.1v1.2h0c.5-.8,1.3-1.3,2.4-1.3,1.7,0,2.9,1.4,2.9,3.4s-1.5,3.6-3.1,3.6-1.7-.4-2.1-1.1h0v3.7h-1.2v-7.3ZM496.6,314.3c0,.2,0,.3,0,.5.2.9,1,1.4,1.8,1.4,1.3,0,2.1-1.1,2.1-2.6s-.7-2.5-2-2.5-1.6.6-1.9,1.5c0,.2,0,.3,0,.5v1.2Z"/>
      <path class="st6" d="M508.1,315.4c0,.6,0,1.2,0,1.6h-1.1v-.9h-.1c-.4.5-1.1,1-2.1,1-1.4,0-2.1-1-2.1-1.9,0-1.6,1.5-2.5,4.1-2.5h0c0-.7-.2-1.7-1.5-1.7-.6,0-1.3.2-1.8.5l-.3-.8c.6-.4,1.4-.6,2.2-.6,2.1,0,2.6,1.4,2.6,2.8v2.5ZM507,313.6c-1.3,0-2.9.2-2.9,1.5s.5,1.2,1.1,1.2c.9,0,1.5-.6,1.7-1.1,0-.1,0-.3,0-.4v-1.2Z"/>
      <path class="st6" d="M510.1,312.4c0-.8,0-1.5,0-2.1h1.1v1.3h0c.3-.9,1.1-1.5,1.9-1.5s.2,0,.3,0v1.2c-.1,0-.3,0-.4,0-.9,0-1.5.6-1.7,1.6,0,.2,0,.4,0,.6v3.6h-1.2v-4.7Z"/>
      <path class="st6" d="M516.5,308.6v1.6h1.8v.9h-1.8v3.7c0,.8.2,1.3.9,1.3s.5,0,.7,0v.9c-.2,0-.6.2-1,.2s-1-.2-1.3-.5c-.3-.4-.5-1-.5-1.8v-3.7h-1.1v-.9h1.1v-1.3l1.2-.4Z"/>
      <path class="st6" d="M520.2,310.2l1.5,4c.2.4.3,1,.4,1.4h0c.1-.4.3-.9.4-1.4l1.3-4h1.3l-1.8,4.8c-.9,2.3-1.5,3.5-2.3,4.2-.6.5-1.2.7-1.5.8l-.3-1c.3,0,.7-.3,1.1-.6.3-.3.7-.7,1-1.4,0-.1,0-.2,0-.3s0-.2,0-.3l-2.5-6.2h1.3Z"/>
    </g>
    <path class="st6" d="M399.1,313.6c0,2.5-1.8,3.6-3.4,3.6s-3.2-1.3-3.2-3.5,1.5-3.6,3.4-3.6,3.3,1.4,3.3,3.5ZM393.8,313.6c0,1.5.8,2.6,2,2.6s2.1-1.1,2.1-2.6-.6-2.6-2-2.6-2.1,1.3-2.1,2.6Z"/>
    <path class="st6" d="M404.9,317v-5.8h-2.9v5.8h-1.2v-5.8h-.9v-.9h.9v-.2c0-1,.2-1.8.8-2.3.4-.4,1-.6,1.7-.6s.8.1,1,.2l-.3.9c-.2,0-.4-.2-.7-.2-1,0-1.2.8-1.2,1.9v.3h2.9v-.3c0-1,.2-1.8.8-2.4.5-.4,1.1-.6,1.6-.6s.8,0,1.1.2l-.2,1c-.2,0-.4-.2-.8-.2-1,0-1.3.9-1.3,2v.4h1.6v.9h-1.6v5.8h-1.2Z"/>
    <g>
      <path class="st6" d="M408.5,315.8c.4.2,1,.5,1.6.5.9,0,1.3-.4,1.3-1s-.3-.9-1.2-1.2c-1.2-.4-1.8-1.1-1.8-1.9s.9-2,2.3-2,1.3.2,1.7.4l-.3.9c-.3-.2-.8-.4-1.4-.4s-1.1.4-1.1.9.4.8,1.3,1.2c1.2.4,1.8,1,1.8,2s-.9,2-2.5,2-1.4-.2-1.9-.5l.3-.9Z"/>
      <path class="st6" d="M414.2,307.1h1.2v4.2h0c.2-.3.5-.7.9-.9.4-.2.8-.3,1.3-.3.9,0,2.4.6,2.4,2.9v4h-1.2v-3.9c0-1.1-.4-2-1.6-2s-1.4.6-1.7,1.2c0,.2,0,.4,0,.6v4.1h-1.2v-9.9Z"/>
      <path class="st6" d="M428.2,313.6c0,2.5-1.8,3.6-3.4,3.6s-3.2-1.3-3.2-3.5,1.5-3.6,3.4-3.6,3.3,1.4,3.3,3.5ZM422.8,313.6c0,1.5.8,2.6,2,2.6s2.1-1.1,2.1-2.6-.6-2.6-2-2.6-2.1,1.3-2.1,2.6Z"/>
      <path class="st6" d="M429.7,312.4c0-.8,0-1.5,0-2.1h1.1v1.3h0c.3-.9,1.1-1.5,1.9-1.5s.2,0,.3,0v1.2c-.1,0-.3,0-.4,0-.9,0-1.5.6-1.7,1.6,0,.2,0,.4,0,.6v3.6h-1.2v-4.7Z"/>
      <path class="st6" d="M435.7,308.3c0,.4-.3.8-.8.8s-.7-.3-.7-.8.3-.8.8-.8.8.3.8.8ZM434.3,317v-6.8h1.2v6.8h-1.2Z"/>
      <path class="st6" d="M437.6,312.1c0-.7,0-1.3,0-1.8h1.1v1.1h0c.3-.6,1.1-1.3,2.2-1.3s2.4.6,2.4,2.9v4h-1.2v-3.9c0-1.1-.4-2-1.6-2s-1.4.6-1.7,1.3c0,.2,0,.4,0,.6v4.1h-1.2v-4.9Z"/>
      <path class="st6" d="M451.2,316c0,1.6-.3,2.5-1,3.1-.7.6-1.6.8-2.5.8s-1.7-.2-2.3-.6l.3-1c.4.3,1.1.5,2,.5,1.3,0,2.2-.7,2.2-2.4v-.7h0c-.4.6-1.1,1.1-2.2,1.1-1.7,0-2.9-1.4-2.9-3.3s1.5-3.6,3.1-3.6,1.8.6,2.1,1.2h0v-1h1.1c0,.5,0,1,0,1.8v3.9ZM449.9,312.9c0-.2,0-.4,0-.5-.2-.7-.8-1.3-1.7-1.3s-2,1-2,2.6.7,2.4,2,2.4,1.5-.5,1.7-1.3c0-.2,0-.4,0-.7v-1.2Z"/>
    </g>
    <g>
      <path class="st6" d="M251.7,315.4c0,.6,0,1.2,0,1.6h-1.1v-.9h-.1c-.4.5-1.1,1-2.1,1-1.4,0-2.1-1-2.1-1.9,0-1.6,1.5-2.5,4.1-2.5h0c0-.7-.2-1.7-1.5-1.7-.6,0-1.3.2-1.8.5l-.3-.8c.6-.4,1.4-.6,2.2-.6,2.1,0,2.6,1.4,2.6,2.8v2.5ZM250.5,313.6c-1.3,0-2.9.2-2.9,1.5s.5,1.2,1.1,1.2c.9,0,1.5-.6,1.7-1.1,0-.1,0-.3,0-.4v-1.2Z"/>
      <path class="st6" d="M253.5,315.8c.4.2,1,.5,1.6.5.9,0,1.3-.4,1.3-1s-.3-.9-1.2-1.2c-1.2-.4-1.8-1.1-1.8-1.9s.9-2,2.3-2,1.3.2,1.7.4l-.3.9c-.3-.2-.8-.4-1.4-.4s-1.1.4-1.1.9.4.8,1.3,1.2c1.2.4,1.8,1,1.8,2s-.9,2-2.5,2-1.4-.2-1.9-.5l.3-.9Z"/>
      <path class="st6" d="M259.1,315.8c.4.2,1,.5,1.6.5.9,0,1.3-.4,1.3-1s-.3-.9-1.2-1.2c-1.2-.4-1.8-1.1-1.8-1.9s.9-2,2.3-2,1.3.2,1.7.4l-.3.9c-.3-.2-.8-.4-1.4-.4s-1.1.4-1.1.9.4.8,1.3,1.2c1.2.4,1.8,1,1.8,2s-.9,2-2.5,2-1.4-.2-1.9-.5l.3-.9Z"/>
      <path class="st6" d="M266.2,308.3c0,.4-.3.8-.8.8s-.7-.3-.7-.8.3-.8.8-.8.8.3.8.8ZM264.8,317v-6.8h1.2v6.8h-1.2Z"/>
      <path class="st6" d="M267.9,315.8c.4.2,1,.5,1.6.5.9,0,1.3-.4,1.3-1s-.3-.9-1.2-1.2c-1.2-.4-1.8-1.1-1.8-1.9s.9-2,2.3-2,1.3.2,1.7.4l-.3.9c-.3-.2-.8-.4-1.4-.4s-1.1.4-1.1.9.4.8,1.3,1.2c1.2.4,1.8,1,1.8,2s-.9,2-2.5,2-1.4-.2-1.9-.5l.3-.9Z"/>
      <path class="st6" d="M275.1,308.6v1.6h1.8v.9h-1.8v3.7c0,.8.2,1.3.9,1.3s.5,0,.7,0v.9c-.2,0-.6.2-1,.2s-1-.2-1.3-.5c-.3-.4-.5-1-.5-1.8v-3.7h-1.1v-.9h1.1v-1.3l1.2-.4Z"/>
      <path class="st6" d="M283,315.4c0,.6,0,1.2,0,1.6h-1.1v-.9h-.1c-.4.5-1.1,1-2.1,1-1.4,0-2.1-1-2.1-1.9,0-1.6,1.5-2.5,4.1-2.5h0c0-.7-.2-1.7-1.5-1.7-.6,0-1.3.2-1.8.5l-.3-.8c.6-.4,1.4-.6,2.2-.6,2.1,0,2.6,1.4,2.6,2.8v2.5ZM281.8,313.6c-1.3,0-2.9.2-2.9,1.5s.5,1.2,1.1,1.2c.9,0,1.5-.6,1.7-1.1,0-.1,0-.3,0-.4v-1.2Z"/>
      <path class="st6" d="M285,312.1c0-.7,0-1.3,0-1.8h1.1v1.1h0c.3-.6,1.1-1.3,2.2-1.3s2.4.6,2.4,2.9v4h-1.2v-3.9c0-1.1-.4-2-1.6-2s-1.4.6-1.7,1.3c0,.2,0,.4,0,.6v4.1h-1.2v-4.9Z"/>
      <path class="st6" d="M294.2,308.6v1.6h1.8v.9h-1.8v3.7c0,.8.2,1.3.9,1.3s.5,0,.7,0v.9c-.2,0-.6.2-1,.2s-1-.2-1.3-.5c-.3-.4-.5-1-.5-1.8v-3.7h-1.1v-.9h1.1v-1.3l1.2-.4Z"/>
    </g>
    <g>
      <path class="st6" d="M322.9,316.8c-.3.2-1,.4-1.9.4-2,0-3.4-1.4-3.4-3.5s1.4-3.6,3.6-3.6,1.4.2,1.7.4l-.3.9c-.3-.2-.8-.3-1.4-.3-1.6,0-2.4,1.2-2.4,2.6s1,2.5,2.4,2.5,1.2-.2,1.5-.3l.2.9Z"/>
      <path class="st6" d="M330.4,313.6c0,2.5-1.8,3.6-3.4,3.6s-3.2-1.3-3.2-3.5,1.5-3.6,3.4-3.6,3.3,1.4,3.3,3.5ZM325,313.6c0,1.5.8,2.6,2,2.6s2.1-1.1,2.1-2.6-.6-2.6-2-2.6-2.1,1.3-2.1,2.6Z"/>
      <path class="st6" d="M335,312.8v.9h-3.5v-.9h3.5Z"/>
      <path class="st6" d="M336.9,310.2l.9,3.4c.2.8.4,1.5.5,2.2h0c.2-.7.4-1.4.6-2.1l1.1-3.5h1l1.1,3.4c.3.8.4,1.5.6,2.2h0c.1-.7.3-1.4.5-2.2l1-3.4h1.2l-2.2,6.8h-1.1l-1-3.2c-.2-.8-.4-1.4-.6-2.2h0c-.2.8-.4,1.5-.6,2.2l-1.1,3.2h-1.1l-2-6.8h1.3Z"/>
      <path class="st6" d="M352.7,313.6c0,2.5-1.8,3.6-3.4,3.6s-3.2-1.3-3.2-3.5,1.5-3.6,3.4-3.6,3.3,1.4,3.3,3.5ZM347.3,313.6c0,1.5.8,2.6,2,2.6s2.1-1.1,2.1-2.6-.6-2.6-2-2.6-2.1,1.3-2.1,2.6Z"/>
      <path class="st6" d="M354.3,312.4c0-.8,0-1.5,0-2.1h1.1v1.3h0c.3-.9,1.1-1.5,1.9-1.5s.2,0,.3,0v1.2c-.1,0-.3,0-.4,0-.9,0-1.5.6-1.7,1.6,0,.2,0,.4,0,.6v3.6h-1.2v-4.7Z"/>
      <path class="st6" d="M360.1,313.3h0c.2-.2.4-.5.6-.8l2-2.3h1.5l-2.6,2.8,3,4h-1.5l-2.3-3.2-.6.7v2.5h-1.2v-9.9h1.2v6.3Z"/>
      <path class="st6" d="M366.1,313.9c0,1.7,1.1,2.4,2.3,2.4s1.4-.2,1.9-.3l.2.9c-.4.2-1.2.4-2.3.4-2.1,0-3.3-1.4-3.3-3.4s1.2-3.6,3.2-3.6,2.8,1.9,2.8,3.2,0,.4,0,.6h-4.8ZM369.8,313c0-.8-.3-2-1.7-2s-1.8,1.1-1.9,2h3.6Z"/>
      <path class="st6" d="M372.5,312.4c0-.8,0-1.5,0-2.1h1.1v1.3h0c.3-.9,1.1-1.5,1.9-1.5s.2,0,.3,0v1.2c-.1,0-.3,0-.4,0-.9,0-1.5.6-1.7,1.6,0,.2,0,.4,0,.6v3.6h-1.2v-4.7Z"/>
    </g>
    <g>
      <path class="st5" d="M16.6,196.6l-3.1-9.4h1.9l1.3,4.3c.4,1.2.7,2.3.9,3.4h0c.3-1.1.6-2.3,1-3.4l1.4-4.3h1.8l-3.3,9.4h-2Z"/>
      <path class="st5" d="M24.3,187.9c0,.5-.4.9-1,.9s-1-.4-1-.9.4-.9,1-.9,1,.4,1,.9ZM22.4,196.6v-6.8h1.7v6.8h-1.7Z"/>
      <path class="st5" d="M27.3,193.7c0,1.2,1,1.8,2.1,1.8s1.4-.1,1.9-.3l.3,1.2c-.6.3-1.4.4-2.4.4-2.2,0-3.5-1.4-3.5-3.4s1.1-3.7,3.3-3.7,2.9,1.8,2.9,3.3,0,.6,0,.7h-4.6ZM30.2,192.5c0-.6-.3-1.7-1.4-1.7s-1.5,1-1.6,1.7h3Z"/>
      <path class="st5" d="M34.3,189.8l.7,3.1c.2.7.3,1.5.4,2.2h0c.1-.7.4-1.5.5-2.2l.9-3.1h1.4l.9,3c.2.8.4,1.5.5,2.3h0c0-.7.3-1.5.4-2.3l.8-3h1.7l-2.1,6.8h-1.6l-.8-2.8c-.2-.7-.4-1.4-.5-2.2h0c-.2.8-.3,1.5-.5,2.2l-.9,2.8h-1.6l-2-6.8h1.8Z"/>
    </g>
    <g>
      <path d="M14.3,370.4c.5.4,1.3.6,2.2.6,1.2,0,2-.7,2-1.6s-.5-1.4-1.8-1.9c-1.5-.6-2.5-1.4-2.5-2.7s1.2-2.6,3.1-2.6,1.7.2,2.1.5l-.3,1c-.3-.2-.9-.4-1.8-.4-1.3,0-1.8.8-1.8,1.4s.6,1.3,1.9,1.8c1.6.6,2.4,1.4,2.4,2.8s-1.1,2.7-3.3,2.7-1.9-.3-2.4-.6l.3-1Z"/>
      <path d="M27.5,368.5c0,2.5-1.8,3.6-3.4,3.6s-3.2-1.3-3.2-3.5,1.5-3.6,3.4-3.6,3.3,1.4,3.3,3.5ZM22.2,368.5c0,1.5.8,2.6,2,2.6s2.1-1.1,2.1-2.6-.6-2.6-2-2.6-2.1,1.3-2.1,2.6Z"/>
      <path d="M29.5,365.1l1.3,3.8c.2.6.4,1.2.5,1.8h0c.2-.6.4-1.1.6-1.8l1.3-3.8h1.3l-2.7,6.8h-1.2l-2.6-6.8h1.3Z"/>
      <path d="M36.3,368.8c0,1.7,1.1,2.4,2.3,2.4s1.4-.2,1.9-.4l.2.9c-.4.2-1.2.4-2.3.4-2.1,0-3.3-1.4-3.3-3.4s1.2-3.6,3.2-3.6,2.8,1.9,2.8,3.2,0,.4,0,.6h-4.8ZM39.9,367.9c0-.8-.3-2-1.7-2s-1.8,1.1-1.9,2h3.6Z"/>
      <path d="M42.6,367.3c0-.8,0-1.5,0-2.1h1.1v1.3h0c.3-.9,1.1-1.5,1.9-1.5s.2,0,.3,0v1.2c-.1,0-.3,0-.4,0-.9,0-1.5.6-1.7,1.6,0,.2,0,.4,0,.6v3.6h-1.2v-4.7Z"/>
      <path d="M47.8,368.8c0,1.7,1.1,2.4,2.3,2.4s1.4-.2,1.9-.4l.2.9c-.4.2-1.2.4-2.3.4-2.1,0-3.3-1.4-3.3-3.4s1.2-3.6,3.2-3.6,2.8,1.9,2.8,3.2,0,.4,0,.6h-4.8ZM51.4,367.9c0-.8-.3-2-1.7-2s-1.8,1.1-1.9,2h3.6Z"/>
      <path d="M55.5,363.2c0,.4-.3.8-.8.8s-.7-.3-.7-.8.3-.8.8-.8.8.3.8.8ZM54.1,371.9v-6.8h1.2v6.8h-1.2Z"/>
      <path d="M63.2,370.9c0,1.6-.3,2.5-1,3.1-.7.6-1.6.8-2.5.8s-1.7-.2-2.3-.6l.3-1c.4.3,1.1.5,2,.5,1.3,0,2.2-.7,2.2-2.4v-.7h0c-.4.6-1.1,1.1-2.2,1.1-1.7,0-2.9-1.4-2.9-3.3s1.5-3.6,3.1-3.6,1.8.6,2.1,1.2h0v-1h1.1c0,.5,0,1,0,1.8v3.9ZM61.9,367.8c0-.2,0-.4,0-.5-.2-.7-.8-1.3-1.7-1.3s-2,1-2,2.6.7,2.4,2,2.4,1.5-.5,1.7-1.3c0-.2,0-.4,0-.7v-1.2Z"/>
      <path d="M65.1,367c0-.7,0-1.3,0-1.8h1.1v1.1h0c.3-.6,1.1-1.3,2.2-1.3s2.4.6,2.4,2.9v4h-1.2v-3.9c0-1.1-.4-2-1.6-2s-1.4.6-1.7,1.3c0,.2,0,.4,0,.6v4.1h-1.2v-4.9Z"/>
      <path d="M74.3,363.5v1.6h1.8v.9h-1.8v3.7c0,.8.2,1.3.9,1.3s.5,0,.7,0v.9c-.2,0-.6.2-1,.2s-1-.2-1.3-.5c-.3-.4-.5-1-.5-1.8v-3.7h-1.1v-.9h1.1v-1.3l1.2-.4Z"/>
      <path d="M78,365.1l1.5,4c.2.4.3,1,.4,1.4h0c.1-.4.3-.9.4-1.4l1.3-4h1.3l-1.8,4.8c-.9,2.3-1.5,3.5-2.3,4.2-.6.5-1.2.7-1.5.8l-.3-1c.3,0,.7-.3,1.1-.6.3-.3.7-.7,1-1.4,0-.1,0-.2,0-.3s0-.2,0-.3l-2.5-6.2h1.3Z"/>
    </g>
    <g>
      <path d="M14.5,414.7c.6,0,1.4-.2,2.3-.2s2.1.3,2.6.8c.5.4.8,1.1.8,2s-.3,1.5-.7,2c-.7.7-1.7,1-2.9,1s-.7,0-1,0v3.8h-1.2v-9.3ZM15.7,419.3c.3,0,.6,0,1,0,1.5,0,2.4-.7,2.4-2s-.9-1.9-2.2-1.9-.9,0-1.1,0v3.7Z"/>
      <path d="M21.7,419.4c0-.8,0-1.5,0-2.1h1.1v1.3h0c.3-.9,1.1-1.5,1.9-1.5s.2,0,.3,0v1.2c-.1,0-.3,0-.4,0-.9,0-1.5.6-1.7,1.6,0,.2,0,.4,0,.6v3.6h-1.2v-4.7Z"/>
      <path d="M32.3,420.6c0,2.5-1.8,3.6-3.4,3.6s-3.2-1.3-3.2-3.5,1.5-3.6,3.4-3.6,3.3,1.4,3.3,3.5ZM26.9,420.7c0,1.5.8,2.6,2,2.6s2.1-1.1,2.1-2.6-.6-2.6-2-2.6-2.1,1.3-2.1,2.6Z"/>
      <path d="M39.6,414.1v8.2c0,.6,0,1.3,0,1.8h-1.1v-1.2h0c-.4.8-1.2,1.3-2.3,1.3-1.6,0-2.9-1.4-2.9-3.4,0-2.3,1.4-3.6,3-3.6s1.7.5,2,1h0v-4h1.2ZM38.4,420.1c0-.2,0-.4,0-.5-.2-.8-.9-1.4-1.8-1.4s-2,1.1-2,2.6.7,2.5,2,2.5,1.6-.6,1.8-1.5c0-.2,0-.3,0-.5v-1.2Z"/>
      <path d="M47.4,422.2c0,.7,0,1.3,0,1.9h-1.1v-1.1h0c-.3.5-1,1.3-2.2,1.3s-2.3-.6-2.3-3v-4h1.2v3.7c0,1.3.4,2.2,1.5,2.2s1.4-.6,1.6-1.1c0-.2.1-.4.1-.6v-4.1h1.2v4.9Z"/>
      <path d="M54.2,423.8c-.3.2-1,.4-1.9.4-2,0-3.4-1.4-3.4-3.5s1.4-3.6,3.6-3.6,1.4.2,1.7.4l-.3.9c-.3-.2-.8-.3-1.4-.3-1.6,0-2.4,1.2-2.4,2.6s1,2.5,2.4,2.5,1.2-.2,1.5-.3l.2.9Z"/>
      <path d="M57.3,415.7v1.6h1.8v.9h-1.8v3.7c0,.8.2,1.3.9,1.3s.5,0,.7,0v.9c-.2,0-.6.2-1,.2s-1-.2-1.3-.5c-.3-.4-.5-1-.5-1.8v-3.7h-1.1v-.9h1.1v-1.3l1.2-.4Z"/>
      <path d="M61.9,415.4c0,.4-.3.8-.8.8s-.7-.3-.7-.8.3-.8.8-.8.8.3.8.8ZM60.5,424.1v-6.8h1.2v6.8h-1.2Z"/>
      <path d="M64.2,417.3l1.3,3.8c.2.6.4,1.2.5,1.8h0c.2-.6.4-1.1.6-1.8l1.3-3.8h1.3l-2.7,6.8h-1.2l-2.6-6.8h1.3Z"/>
      <path d="M71.9,415.4c0,.4-.3.8-.8.8s-.7-.3-.7-.8.3-.8.8-.8.8.3.8.8ZM70.5,424.1v-6.8h1.2v6.8h-1.2Z"/>
      <path d="M75.3,415.7v1.6h1.8v.9h-1.8v3.7c0,.8.2,1.3.9,1.3s.5,0,.7,0v.9c-.2,0-.6.2-1,.2s-1-.2-1.3-.5c-.3-.4-.5-1-.5-1.8v-3.7h-1.1v-.9h1.1v-1.3l1.2-.4Z"/>
      <path d="M79,417.3l1.5,4c.2.4.3,1,.4,1.4h0c.1-.4.3-.9.4-1.4l1.3-4h1.3l-1.8,4.8c-.9,2.3-1.5,3.5-2.3,4.2-.6.5-1.2.7-1.5.8l-.3-1c.3,0,.7-.3,1.1-.6.3-.3.7-.7,1-1.4,0-.1,0-.2,0-.3s0-.2,0-.3l-2.5-6.2h1.3Z"/>
    </g>
    <g>
      <path d="M14.9,467.8c.6-.1,1.5-.2,2.3-.2,1.3,0,2.2.3,2.7.8.5.4.7,1.1.7,1.8,0,1.2-.8,2.1-1.8,2.4h0c.7.3,1.1,1,1.4,1.9.3,1.3.5,2.2.7,2.6h-1.3c-.2-.3-.4-1.1-.6-2.3-.3-1.3-.8-1.8-1.9-1.8h-1.1v4.1h-1.2v-9.3ZM16.2,472.1h1.2c1.3,0,2.1-.7,2.1-1.8s-.9-1.8-2.2-1.8-1,0-1.2,0v3.4Z"/>
      <path d="M23.9,468.4c0,.4-.3.8-.8.8s-.7-.3-.7-.8.3-.8.8-.8.8.3.8.8ZM22.5,477.1v-6.8h1.2v6.8h-1.2Z"/>
      <path d="M25.7,475.8c.4.2,1,.5,1.6.5.9,0,1.3-.4,1.3-1s-.4-.9-1.2-1.2c-1.2-.4-1.8-1.1-1.8-1.9s.9-2,2.3-2,1.3.2,1.7.4l-.3.9c-.3-.2-.8-.4-1.4-.4s-1.1.4-1.1.9.4.8,1.3,1.2c1.2.4,1.8,1,1.8,2s-.9,2-2.5,2-1.4-.2-1.9-.5l.3-.9Z"/>
      <path d="M32.6,473.4h0c.2-.2.4-.5.6-.8l2-2.3h1.5l-2.6,2.8,3,4h-1.5l-2.3-3.2-.6.7v2.5h-1.2v-9.9h1.2v6.3Z"/>
    </g>
    <g>
      <path class="st5" d="M14.4,117.8h1.7v8h3.9v1.4h-5.6v-9.4Z"/>
      <path class="st5" d="M22.3,124.3c0,1.2,1,1.8,2.1,1.8s1.4-.1,1.9-.3l.3,1.2c-.6.3-1.4.4-2.4.4-2.2,0-3.5-1.4-3.5-3.4s1.1-3.7,3.3-3.7,2.9,1.8,2.9,3.3,0,.6,0,.7h-4.6ZM25.3,123.1c0-.6-.3-1.7-1.4-1.7s-1.5,1-1.6,1.7h3Z"/>
      <path class="st5" d="M29.4,120.4l1.1,3.5c.2.6.3,1.1.5,1.7h0c.1-.6.3-1.1.5-1.7l1.1-3.5h1.8l-2.6,6.8h-1.7l-2.5-6.8h1.9Z"/>
      <path class="st5" d="M36.4,124.3c0,1.2,1,1.8,2.1,1.8s1.4-.1,1.9-.3l.3,1.2c-.6.3-1.4.4-2.4.4-2.2,0-3.5-1.4-3.5-3.4s1.1-3.7,3.3-3.7,2.9,1.8,2.9,3.3,0,.6,0,.7h-4.6ZM39.4,123.1c0-.6-.3-1.7-1.4-1.7s-1.5,1-1.6,1.7h3Z"/>
      <path class="st5" d="M42.5,117.3h1.7v9.9h-1.7v-9.9Z"/>
    </g>
    <g>
      <path class="st12" d="M16.3,309.6h-2.9v-1h7v1h-2.9v8.4h-1.2v-8.4Z"/>
      <path class="st12" d="M21.3,308.1h1.2v4.2h0c.2-.3.5-.7.9-.9.4-.2.8-.3,1.3-.3.9,0,2.4.6,2.4,2.9v4h-1.2v-3.9c0-1.1-.4-2-1.6-2s-1.4.6-1.7,1.2c0,.2,0,.4,0,.6v4.1h-1.2v-9.9Z"/>
      <path class="st12" d="M30.4,309.4c0,.4-.3.8-.8.8s-.7-.3-.7-.8.3-.8.8-.8.8.3.8.8ZM29.1,318.1v-6.8h1.2v6.8h-1.2Z"/>
      <path class="st12" d="M32.3,313.1c0-.7,0-1.3,0-1.8h1.1v1.1h0c.3-.6,1.1-1.3,2.2-1.3s2.4.6,2.4,2.9v4h-1.2v-3.9c0-1.1-.4-2-1.6-2s-1.4.6-1.7,1.3c0,.2,0,.4,0,.6v4.1h-1.2v-4.9Z"/>
      <path class="st12" d="M41.3,314.4h0c.2-.2.4-.5.6-.8l2-2.3h1.5l-2.6,2.8,3,4h-1.5l-2.3-3.2-.6.7v2.5h-1.2v-9.9h1.2v6.3Z"/>
    </g>
    <g>
      <path class="st6" d="M180.1,229l.9,3.4c.2.8.4,1.5.5,2.2h0c.2-.7.4-1.4.6-2.1l1.1-3.5h1l1.1,3.4c.3.8.4,1.5.6,2.2h0c.1-.7.3-1.4.5-2.2l1-3.4h1.2l-2.2,6.8h-1.1l-1-3.2c-.2-.8-.4-1.4-.6-2.2h0c-.2.8-.4,1.5-.6,2.2l-1.1,3.2h-1.1l-2-6.8h1.3Z"/>
      <path class="st6" d="M189.9,225.8h1.2v4.2h0c.2-.4.5-.7.9-.9.4-.2.8-.3,1.3-.3.9,0,2.4.6,2.4,2.9v4h-1.2v-3.9c0-1.1-.4-2-1.6-2s-1.4.6-1.7,1.2c0,.2,0,.4,0,.6v4.1h-1.2v-9.9Z"/>
      <path class="st6" d="M199.1,227c0,.4-.3.8-.8.8s-.7-.3-.7-.8.3-.8.8-.8.8.3.8.8ZM197.7,235.7v-6.8h1.2v6.8h-1.2Z"/>
      <path class="st6" d="M202.5,227.3v1.6h1.8v.9h-1.8v3.7c0,.8.2,1.3.9,1.3s.5,0,.7,0v.9c-.2,0-.6.2-1,.2s-1-.2-1.3-.5c-.3-.4-.5-1-.5-1.8v-3.7h-1.1v-.9h1.1v-1.3l1.2-.4Z"/>
      <path class="st6" d="M206.2,232.6c0,1.7,1.1,2.4,2.3,2.4s1.4-.2,1.9-.4l.2.9c-.4.2-1.2.4-2.3.4-2.1,0-3.3-1.4-3.3-3.4s1.2-3.6,3.2-3.6,2.8,1.9,2.8,3.2,0,.4,0,.6h-4.8ZM209.8,231.7c0-.8-.3-2-1.7-2s-1.8,1.1-1.9,2h3.6Z"/>
    </g>
    <g>
      <path class="st6" d="M483.4,225.8h1.2v4.3h0c.4-.8,1.2-1.2,2.3-1.2,1.7,0,2.9,1.4,2.9,3.4s-1.5,3.6-3.1,3.6-1.8-.4-2.3-1.3h0v1.1h-1.1c0-.5,0-1.1,0-1.8v-8.2ZM484.6,233c0,.2,0,.3,0,.4.2.9,1,1.4,1.8,1.4,1.3,0,2.1-1.1,2.1-2.6s-.7-2.5-2-2.5-1.6.6-1.9,1.5c0,.2,0,.3,0,.5v1.2Z"/>
      <path class="st6" d="M491.3,225.8h1.2v9.9h-1.2v-9.9Z"/>
      <path class="st6" d="M499.4,234.1c0,.6,0,1.2,0,1.6h-1.1v-.9h-.1c-.4.5-1.1,1-2.1,1-1.4,0-2.1-1-2.1-1.9,0-1.6,1.5-2.5,4.1-2.5h0c0-.7-.2-1.7-1.5-1.7-.6,0-1.3.2-1.8.5l-.3-.8c.6-.4,1.4-.6,2.2-.6,2.1,0,2.6,1.4,2.6,2.8v2.5ZM498.2,232.3c-1.3,0-2.9.2-2.9,1.5s.5,1.2,1.1,1.2c.9,0,1.5-.6,1.7-1.1,0-.1,0-.3,0-.4v-1.2Z"/>
      <path class="st6" d="M506.2,235.5c-.3.2-1,.4-1.9.4-2,0-3.4-1.4-3.4-3.5s1.4-3.6,3.6-3.6,1.4.2,1.7.4l-.3.9c-.3-.2-.8-.3-1.4-.3-1.6,0-2.4,1.2-2.4,2.6s1,2.5,2.4,2.5,1.2-.2,1.5-.3l.2.9Z"/>
      <path class="st6" d="M508.9,232.1h0c.2-.2.4-.5.6-.8l2-2.3h1.5l-2.6,2.8,3,4h-1.5l-2.3-3.2-.6.7v2.5h-1.2v-9.9h1.2v6.3Z"/>
    </g>
    <g>
      <path class="st6" d="M399.1,234.7c0,1.6-.3,2.5-1,3.1-.7.6-1.6.8-2.5.8s-1.7-.2-2.3-.6l.3-1c.4.3,1.1.5,2,.5,1.3,0,2.2-.7,2.2-2.4v-.7h0c-.4.6-1.1,1.1-2.2,1.1-1.7,0-2.9-1.4-2.9-3.3s1.5-3.6,3.1-3.6,1.8.6,2.1,1.2h0v-1h1.1c0,.5,0,1,0,1.8v3.9ZM397.9,231.6c0-.2,0-.4,0-.5-.2-.7-.8-1.3-1.7-1.3s-2,1-2,2.6.7,2.4,2,2.4,1.5-.5,1.7-1.3c0-.2,0-.4,0-.7v-1.2Z"/>
      <path class="st6" d="M401.1,231.1c0-.8,0-1.5,0-2.1h1.1v1.3h0c.3-.9,1.1-1.5,1.9-1.5s.2,0,.3,0v1.2c-.1,0-.3,0-.4,0-.9,0-1.5.6-1.7,1.6,0,.2,0,.4,0,.6v3.6h-1.2v-4.7Z"/>
      <path class="st6" d="M406.2,232.6c0,1.7,1.1,2.4,2.3,2.4s1.4-.2,1.9-.4l.2.9c-.4.2-1.2.4-2.3.4-2.1,0-3.3-1.4-3.3-3.4s1.2-3.6,3.2-3.6,2.8,1.9,2.8,3.2,0,.4,0,.6h-4.8ZM409.8,231.7c0-.8-.3-2-1.7-2s-1.8,1.1-1.9,2h3.6Z"/>
      <path class="st6" d="M413,229l1.5,4c.2.4.3,1,.4,1.4h0c.1-.4.3-.9.4-1.4l1.3-4h1.3l-1.8,4.8c-.9,2.3-1.5,3.5-2.3,4.2-.6.5-1.2.7-1.5.8l-.3-1c.3,0,.7-.3,1.1-.6.3-.3.7-.7,1-1.4,0-.1,0-.2,0-.3s0-.2,0-.3l-2.5-6.2h1.3Z"/>
      <path class="st6" d="M421.1,236.3l3.9-10.2h1l-3.9,10.2h-.9Z"/>
      <path class="st6" d="M435.7,225.8v8.2c0,.6,0,1.3,0,1.8h-1.1v-1.2h0c-.4.8-1.2,1.3-2.3,1.3-1.6,0-2.9-1.4-2.9-3.4,0-2.3,1.4-3.6,3-3.6s1.7.5,2,1h0v-4h1.2ZM434.5,231.7c0-.2,0-.4,0-.5-.2-.8-.9-1.4-1.8-1.4s-2,1.1-2,2.6.7,2.5,2,2.5,1.6-.6,1.8-1.5c0-.2,0-.3,0-.5v-1.2Z"/>
      <path class="st6" d="M442.5,234.1c0,.6,0,1.2,0,1.6h-1.1v-.9h-.1c-.4.5-1.1,1-2.1,1-1.4,0-2.1-1-2.1-1.9,0-1.6,1.5-2.5,4.1-2.5h0c0-.7-.2-1.7-1.5-1.7-.6,0-1.3.2-1.8.5l-.3-.8c.6-.4,1.4-.6,2.2-.6,2.1,0,2.6,1.4,2.6,2.8v2.5ZM441.4,232.3c-1.3,0-2.9.2-2.9,1.5s.5,1.2,1.1,1.2c.9,0,1.5-.6,1.7-1.1,0-.1,0-.3,0-.4v-1.2Z"/>
      <path class="st6" d="M444.5,231.1c0-.8,0-1.5,0-2.1h1.1v1.3h0c.3-.9,1.1-1.5,1.9-1.5s.2,0,.3,0v1.2c-.1,0-.3,0-.4,0-.9,0-1.5.6-1.7,1.6,0,.2,0,.4,0,.6v3.6h-1.2v-4.7Z"/>
      <path class="st6" d="M450.4,232.1h0c.2-.2.4-.5.6-.8l2-2.3h1.5l-2.6,2.8,3,4h-1.5l-2.3-3.2-.6.7v2.5h-1.2v-9.9h1.2v6.3Z"/>
    </g>
    <g>
      <path class="st6" d="M337.2,234.7c0,1.6-.3,2.5-1,3.1-.7.6-1.6.8-2.5.8s-1.7-.2-2.3-.6l.3-1c.4.3,1.1.5,2,.5,1.3,0,2.2-.7,2.2-2.4v-.7h0c-.4.6-1.1,1.1-2.2,1.1-1.7,0-2.9-1.4-2.9-3.3s1.5-3.6,3.1-3.6,1.8.6,2.1,1.2h0v-1h1.1c0,.5,0,1,0,1.8v3.9ZM335.9,231.6c0-.2,0-.4,0-.5-.2-.7-.8-1.3-1.7-1.3s-2,1-2,2.6.7,2.4,2,2.4,1.5-.5,1.7-1.3c0-.2,0-.4,0-.7v-1.2Z"/>
      <path class="st6" d="M339.1,231.1c0-.8,0-1.5,0-2.1h1.1v1.3h0c.3-.9,1.1-1.5,1.9-1.5s.2,0,.3,0v1.2c-.1,0-.3,0-.4,0-.9,0-1.5.6-1.7,1.6,0,.2,0,.4,0,.6v3.6h-1.2v-4.7Z"/>
      <path class="st6" d="M344.2,232.6c0,1.7,1.1,2.4,2.3,2.4s1.4-.2,1.9-.4l.2.9c-.4.2-1.2.4-2.3.4-2.1,0-3.3-1.4-3.3-3.4s1.2-3.6,3.2-3.6,2.8,1.9,2.8,3.2,0,.4,0,.6h-4.8ZM347.9,231.7c0-.8-.3-2-1.7-2s-1.8,1.1-1.9,2h3.6Z"/>
      <path class="st6" d="M351,229l1.5,4c.2.4.3,1,.4,1.4h0c.1-.4.3-.9.4-1.4l1.3-4h1.3l-1.8,4.8c-.9,2.3-1.5,3.5-2.3,4.2-.6.5-1.2.7-1.5.8l-.3-1c.3,0,.7-.3,1.1-.6.3-.3.7-.7,1-1.4,0-.1,0-.2,0-.3s0-.2,0-.3l-2.5-6.2h1.3Z"/>
    </g>
    <g>
      <path class="st6" d="M248,234.7c0,1.6-.3,2.5-1,3.1-.7.6-1.6.8-2.5.8s-1.7-.2-2.3-.6l.3-1c.4.3,1.1.5,2,.5,1.3,0,2.2-.7,2.2-2.4v-.7h0c-.4.6-1.1,1.1-2.2,1.1-1.7,0-2.9-1.4-2.9-3.3s1.5-3.6,3.1-3.6,1.8.6,2.1,1.2h0v-1h1.1c0,.5,0,1,0,1.8v3.9ZM246.8,231.6c0-.2,0-.4,0-.5-.2-.7-.8-1.3-1.7-1.3s-2,1-2,2.6.7,2.4,2,2.4,1.5-.5,1.7-1.3c0-.2,0-.4,0-.7v-1.2Z"/>
      <path class="st6" d="M250,231.1c0-.8,0-1.5,0-2.1h1.1v1.3h0c.3-.9,1.1-1.5,1.9-1.5s.2,0,.3,0v1.2c-.1,0-.3,0-.4,0-.9,0-1.5.6-1.7,1.6,0,.2,0,.4,0,.6v3.6h-1.2v-4.7Z"/>
      <path class="st6" d="M255.1,232.6c0,1.7,1.1,2.4,2.3,2.4s1.4-.2,1.9-.4l.2.9c-.4.2-1.2.4-2.3.4-2.1,0-3.3-1.4-3.3-3.4s1.2-3.6,3.2-3.6,2.8,1.9,2.8,3.2,0,.4,0,.6h-4.8ZM258.7,231.7c0-.8-.3-2-1.7-2s-1.8,1.1-1.9,2h3.6Z"/>
      <path class="st6" d="M261.9,229l1.5,4c.2.4.3,1,.4,1.4h0c.1-.4.3-.9.4-1.4l1.3-4h1.3l-1.8,4.8c-.9,2.3-1.5,3.5-2.3,4.2-.6.5-1.2.7-1.5.8l-.3-1c.3,0,.7-.3,1.1-.6.3-.3.7-.7,1-1.4,0-.1,0-.2,0-.3s0-.2,0-.3l-2.5-6.2h1.3Z"/>
      <path class="st6" d="M270,236.3l3.9-10.2h1l-3.9,10.2h-.9Z"/>
      <path class="st6" d="M278.8,225.8h1.2v9.9h-1.2v-9.9Z"/>
      <path class="st6" d="M283.4,227c0,.4-.3.8-.8.8s-.7-.3-.7-.8.3-.8.8-.8.8.3.8.8ZM282.1,235.7v-6.8h1.2v6.8h-1.2Z"/>
      <path class="st6" d="M291.1,234.7c0,1.6-.3,2.5-1,3.1-.7.6-1.6.8-2.5.8s-1.7-.2-2.3-.6l.3-1c.4.3,1.1.5,2,.5,1.3,0,2.2-.7,2.2-2.4v-.7h0c-.4.6-1.1,1.1-2.2,1.1-1.7,0-2.9-1.4-2.9-3.3s1.5-3.6,3.1-3.6,1.8.6,2.1,1.2h0v-1h1.1c0,.5,0,1,0,1.8v3.9ZM289.9,231.6c0-.2,0-.4,0-.5-.2-.7-.8-1.3-1.7-1.3s-2,1-2,2.6.7,2.4,2,2.4,1.5-.5,1.7-1.3c0-.2,0-.4,0-.7v-1.2Z"/>
      <path class="st6" d="M293.2,225.8h1.2v4.2h0c.2-.4.5-.7.9-.9.4-.2.8-.3,1.3-.3.9,0,2.4.6,2.4,2.9v4h-1.2v-3.9c0-1.1-.4-2-1.6-2s-1.4.6-1.7,1.2c0,.2,0,.4,0,.6v4.1h-1.2v-9.9Z"/>
      <path class="st6" d="M302.4,227.3v1.6h1.8v.9h-1.8v3.7c0,.8.2,1.3.9,1.3s.5,0,.7,0v.9c-.2,0-.6.2-1,.2s-1-.2-1.3-.5c-.3-.4-.5-1-.5-1.8v-3.7h-1.1v-.9h1.1v-1.3l1.2-.4Z"/>
    </g>
    <rect class="st2" x="233.7" y="262.7" width="73" height="30.6"/>
    <rect class="st12" x="309.3" y="262.7" width="72.8" height="30.6"/>
    <rect class="st5" x="384.7" y="262.7" width="73" height="30.6"/>
    <rect class="st8" x="460.1" y="262.5" width="73" height="30.8"/>
    <rect class="st7" x="158.4" y="262.7" width="73" height="30.6"/>
    <g>
      <path d="M180.6,277.7c0-.7,0-1.3,0-1.8h1.1v1.1h0c.3-.6,1.1-1.3,2.2-1.3s2.4.6,2.4,2.9v4h-1.2v-3.9c0-1.1-.4-2-1.6-2s-1.4.6-1.7,1.3c0,.2,0,.4,0,.6v4.1h-1.2v-4.9Z"/>
      <path d="M194.5,279.2c0,2.5-1.8,3.6-3.4,3.6s-3.2-1.3-3.2-3.5,1.5-3.6,3.4-3.6,3.3,1.4,3.3,3.5ZM189.2,279.3c0,1.5.8,2.6,2,2.6s2.1-1.1,2.1-2.6-.6-2.6-2-2.6-2.1,1.3-2.1,2.6Z"/>
      <path d="M196.1,277.7c0-.7,0-1.3,0-1.8h1.1v1.1h0c.3-.6,1.1-1.3,2.2-1.3s2.4.6,2.4,2.9v4h-1.2v-3.9c0-1.1-.4-2-1.6-2s-1.4.6-1.7,1.3c0,.2,0,.4,0,.6v4.1h-1.2v-4.9Z"/>
      <path d="M204.5,279.5c0,1.7,1.1,2.4,2.3,2.4s1.4-.2,1.9-.4l.2.9c-.4.2-1.2.4-2.3.4-2.1,0-3.3-1.4-3.3-3.4s1.2-3.6,3.2-3.6,2.8,1.9,2.8,3.2,0,.4,0,.6h-4.8ZM208.1,278.6c0-.8-.3-2-1.7-2s-1.8,1.1-1.9,2h3.6Z"/>
    </g>
    <g>
      <path class="st6" d="M472.1,272.7h1.2v9.9h-1.2v-9.9Z"/>
      <path class="st6" d="M476.7,274c0,.4-.3.8-.8.8s-.7-.3-.7-.8.3-.8.8-.8.8.3.8.8ZM475.4,282.7v-6.8h1.2v6.8h-1.2Z"/>
      <path class="st6" d="M478.8,282.7v-5.8h-.9v-.9h.9v-.3c0-1,.2-1.8.8-2.4.5-.4,1.1-.6,1.7-.6s.8,0,1.1.2l-.2,1c-.2,0-.4-.2-.8-.2-1,0-1.3.9-1.3,2v.4h1.6v.9h-1.6v5.8h-1.2Z"/>
      <path class="st6" d="M483.3,279.5c0,1.7,1.1,2.4,2.3,2.4s1.4-.2,1.9-.4l.2.9c-.4.2-1.2.4-2.3.4-2.1,0-3.3-1.4-3.3-3.4s1.2-3.6,3.2-3.6,2.8,1.9,2.8,3.2,0,.4,0,.6h-4.8ZM486.9,278.6c0-.8-.3-2-1.7-2s-1.8,1.1-1.9,2h3.6Z"/>
      <path class="st6" d="M494.4,282.4c-.3.2-1,.4-1.9.4-2,0-3.4-1.4-3.4-3.5s1.4-3.6,3.6-3.6,1.4.2,1.7.4l-.3.9c-.3-.2-.8-.3-1.4-.3-1.6,0-2.4,1.2-2.4,2.6s1,2.5,2.4,2.5,1.2-.2,1.5-.3l.2.9Z"/>
      <path class="st6" d="M496.6,275.9l1.5,4c.2.4.3,1,.4,1.4h0c.1-.4.3-.9.4-1.4l1.3-4h1.3l-1.8,4.8c-.9,2.3-1.5,3.5-2.3,4.2-.6.5-1.2.7-1.5.8l-.3-1c.3,0,.7-.3,1.1-.6.3-.3.7-.7,1-1.4,0-.1,0-.2,0-.3s0-.2,0-.3l-2.5-6.2h1.3Z"/>
      <path class="st6" d="M507.4,282.4c-.3.2-1,.4-1.9.4-2,0-3.4-1.4-3.4-3.5s1.4-3.6,3.6-3.6,1.4.2,1.7.4l-.3.9c-.3-.2-.8-.3-1.4-.3-1.6,0-2.4,1.2-2.4,2.6s1,2.5,2.4,2.5,1.2-.2,1.5-.3l.2.9Z"/>
      <path class="st6" d="M508.8,272.7h1.2v9.9h-1.2v-9.9Z"/>
      <path class="st6" d="M512.8,279.5c0,1.7,1.1,2.4,2.3,2.4s1.4-.2,1.9-.4l.2.9c-.4.2-1.2.4-2.3.4-2.1,0-3.3-1.4-3.3-3.4s1.2-3.6,3.2-3.6,2.8,1.9,2.8,3.2,0,.4,0,.6h-4.8ZM516.4,278.6c0-.8-.3-2-1.7-2s-1.8,1.1-1.9,2h3.6Z"/>
    </g>
    <g>
      <path class="st6" d="M396.3,275.9l.9,3.4c.2.8.4,1.5.5,2.2h0c.2-.7.4-1.4.6-2.1l1.1-3.5h1l1.1,3.4c.3.8.4,1.5.6,2.2h0c.1-.7.3-1.4.5-2.2l1-3.4h1.2l-2.2,6.8h-1.1l-1-3.2c-.2-.8-.4-1.4-.6-2.2h0c-.2.8-.4,1.5-.6,2.2l-1.1,3.2h-1.1l-2-6.8h1.3Z"/>
      <path class="st6" d="M412.1,279.2c0,2.5-1.8,3.6-3.4,3.6s-3.2-1.3-3.2-3.5,1.5-3.6,3.4-3.6,3.3,1.4,3.3,3.5ZM406.8,279.3c0,1.5.8,2.6,2,2.6s2.1-1.1,2.1-2.6-.6-2.6-2-2.6-2.1,1.3-2.1,2.6Z"/>
      <path class="st6" d="M413.7,278c0-.8,0-1.5,0-2.1h1.1v1.3h0c.3-.9,1.1-1.5,1.9-1.5s.2,0,.3,0v1.2c-.1,0-.3,0-.4,0-.9,0-1.5.6-1.7,1.6,0,.2,0,.4,0,.6v3.6h-1.2v-4.7Z"/>
      <path class="st6" d="M419.5,279h0c.2-.2.4-.5.6-.8l2-2.3h1.5l-2.6,2.8,3,4h-1.5l-2.3-3.2-.6.7v2.5h-1.2v-9.9h1.2v6.3Z"/>
    </g>
    <path class="st6" d="M425,282.7v-5.8h-.9v-.9h.9v-.3c0-1,.3-1.8,1-2.3.5-.4,1.2-.7,2.2-.7s1.5.2,2,.4v9.7h-1.2v-9c-.2-.1-.5-.2-1-.2-1.3,0-1.7.9-1.7,2v.4h1.6v.9h-1.6v5.8h-1.2Z"/>
    <g>
      <path class="st6" d="M438.3,279.2c0,2.5-1.8,3.6-3.4,3.6s-3.2-1.3-3.2-3.5,1.5-3.6,3.4-3.6,3.3,1.4,3.3,3.5ZM433,279.3c0,1.5.8,2.6,2,2.6s2.1-1.1,2.1-2.6-.6-2.6-2-2.6-2.1,1.3-2.1,2.6Z"/>
      <path class="st6" d="M440.3,275.9l.9,3.4c.2.8.4,1.5.5,2.2h0c.2-.7.4-1.4.6-2.1l1.1-3.5h1l1.1,3.4c.3.8.4,1.5.6,2.2h0c.1-.7.3-1.4.5-2.2l1-3.4h1.2l-2.2,6.8h-1.1l-1-3.2c-.2-.8-.4-1.4-.6-2.2h0c-.2.8-.4,1.5-.6,2.2l-1.1,3.2h-1.1l-2-6.8h1.3Z"/>
    </g>
    <g>
      <path class="st6" d="M259.3,281.4c.4.2,1,.5,1.6.5.9,0,1.3-.4,1.3-1s-.3-.9-1.2-1.2c-1.2-.4-1.8-1.1-1.8-1.9s.9-2,2.3-2,1.3.2,1.7.4l-.3.9c-.3-.2-.8-.4-1.4-.4s-1.1.4-1.1.9.4.8,1.3,1.2c1.2.4,1.8,1,1.8,2s-.9,2-2.5,2-1.4-.2-1.9-.5l.3-.9Z"/>
      <path class="st6" d="M266.5,274.3v1.6h1.8v.9h-1.8v3.7c0,.8.2,1.3.9,1.3s.5,0,.7,0v.9c-.2,0-.6.2-1,.2s-1-.2-1.3-.5c-.3-.4-.5-1-.5-1.8v-3.7h-1.1v-.9h1.1v-1.3l1.2-.4Z"/>
      <path class="st6" d="M270.3,279.5c0,1.7,1.1,2.4,2.3,2.4s1.4-.2,1.9-.4l.2.9c-.4.2-1.2.4-2.3.4-2.1,0-3.3-1.4-3.3-3.4s1.2-3.6,3.2-3.6,2.8,1.9,2.8,3.2,0,.4,0,.6h-4.8ZM273.9,278.6c0-.8-.3-2-1.7-2s-1.8,1.1-1.9,2h3.6Z"/>
      <path class="st6" d="M276.6,278.1c0-.9,0-1.6,0-2.2h1.1v1.2h0c.5-.8,1.3-1.3,2.4-1.3,1.7,0,2.9,1.4,2.9,3.4s-1.5,3.6-3.1,3.6-1.7-.4-2.1-1.1h0v3.7h-1.2v-7.3ZM277.8,279.9c0,.2,0,.4,0,.5.2.9,1,1.4,1.8,1.4,1.3,0,2.1-1.1,2.1-2.6s-.7-2.5-2-2.5-1.6.6-1.9,1.5c0,.2,0,.3,0,.5v1.2Z"/>
    </g>
    <g>
      <path class="st6" d="M337.5,274.3v1.6h1.8v.9h-1.8v3.7c0,.8.2,1.3.9,1.3s.5,0,.7,0v.9c-.2,0-.6.2-1,.2s-1-.2-1.3-.5c-.3-.4-.5-1-.5-1.8v-3.7h-1.1v-.9h1.1v-1.3l1.2-.4Z"/>
      <path class="st6" d="M345.4,281.1c0,.6,0,1.2,0,1.6h-1.1v-.9h-.1c-.4.5-1.1,1-2.1,1-1.4,0-2.1-1-2.1-1.9,0-1.6,1.5-2.5,4.1-2.5h0c0-.7-.2-1.7-1.5-1.7-.6,0-1.3.2-1.8.5l-.3-.8c.6-.4,1.4-.6,2.2-.6,2.1,0,2.6,1.4,2.6,2.8v2.5ZM344.2,279.2c-1.3,0-2.9.2-2.9,1.5s.5,1.2,1.1,1.2c.9,0,1.5-.6,1.7-1.1,0-.1,0-.3,0-.4v-1.2Z"/>
      <path class="st6" d="M347.2,281.4c.4.2,1,.5,1.6.5.9,0,1.3-.4,1.3-1s-.3-.9-1.2-1.2c-1.2-.4-1.8-1.1-1.8-1.9s.9-2,2.3-2,1.3.2,1.7.4l-.3.9c-.3-.2-.8-.4-1.4-.4s-1.1.4-1.1.9.4.8,1.3,1.2c1.2.4,1.8,1,1.8,2s-.9,2-2.5,2-1.4-.2-1.9-.5l.3-.9Z"/>
      <path class="st6" d="M354.2,279h0c.2-.2.4-.5.6-.8l2-2.3h1.5l-2.6,2.8,3,4h-1.5l-2.3-3.2-.6.7v2.5h-1.2v-9.9h1.2v6.3Z"/>
    </g>
    <g>
      <path class="st12" d="M22.4,277.2c0,3.2-2,5-4.4,5s-4.2-1.9-4.2-4.8,1.8-5,4.4-5,4.3,2,4.3,4.8ZM15.1,277.3c0,2,1.1,3.8,3,3.8s3-1.8,3-3.9-1-3.9-3-3.9-3,1.9-3,3.9Z"/>
      <path class="st12" d="M23.9,272h1.2v4.3h0c.4-.8,1.2-1.2,2.3-1.2,1.7,0,2.9,1.4,2.9,3.4s-1.5,3.6-3.1,3.6-1.8-.4-2.3-1.3h0v1.1h-1.1c0-.5,0-1.1,0-1.8v-8.2ZM25.2,279.3c0,.2,0,.3,0,.4.2.9,1,1.4,1.8,1.4,1.3,0,2.1-1.1,2.1-2.6s-.7-2.5-2-2.5-1.6.6-1.9,1.5c0,.2,0,.3,0,.5v1.2Z"/>
      <path class="st12" d="M30.2,284c.6,0,1.1-.2,1.3-.5.3-.4.5-.9.5-2.5v-5.7h1.2v6.2c0,1.3-.2,2.2-.8,2.8-.5.5-1.4.8-2.1.8v-1ZM33.4,273.3c0,.4-.3.8-.8.8s-.7-.3-.7-.8.3-.8.8-.8.8.4.8.8Z"/>
      <path class="st12" d="M36,278.8c0,1.7,1.1,2.4,2.3,2.4s1.4-.2,1.9-.4l.2.9c-.4.2-1.2.4-2.3.4-2.1,0-3.3-1.4-3.3-3.4s1.2-3.6,3.2-3.6,2.8,1.9,2.8,3.2,0,.4,0,.6h-4.8ZM39.6,277.9c0-.8-.3-2-1.7-2s-1.8,1.1-1.9,2h3.6Z"/>
      <path class="st12" d="M47.2,281.7c-.3.2-1,.4-1.9.4-2,0-3.4-1.4-3.4-3.5s1.4-3.6,3.6-3.6,1.4.2,1.7.4l-.3.9c-.3-.2-.8-.3-1.4-.3-1.6,0-2.4,1.2-2.4,2.6s1,2.5,2.4,2.5,1.2-.2,1.5-.3l.2.9Z"/>
      <path class="st12" d="M50.3,273.6v1.6h1.8v.9h-1.8v3.7c0,.8.2,1.3.9,1.3s.5,0,.7,0v.9c-.2,0-.6.2-1,.2s-1-.2-1.3-.5c-.3-.4-.5-1-.5-1.8v-3.7h-1.1v-.9h1.1v-1.3l1.2-.4Z"/>
      <path class="st12" d="M54.8,273.3c0,.4-.3.8-.8.8s-.7-.3-.7-.8.3-.8.8-.8.8.3.8.8ZM53.4,282v-6.8h1.2v6.8h-1.2Z"/>
      <path class="st12" d="M57.2,275.2l1.3,3.8c.2.6.4,1.2.5,1.8h0c.2-.6.4-1.1.6-1.8l1.3-3.8h1.3l-2.7,6.8h-1.2l-2.6-6.8h1.3Z"/>
      <path class="st12" d="M64,278.8c0,1.7,1.1,2.4,2.3,2.4s1.4-.2,1.9-.4l.2.9c-.4.2-1.2.4-2.3.4-2.1,0-3.3-1.4-3.3-3.4s1.2-3.6,3.2-3.6,2.8,1.9,2.8,3.2,0,.4,0,.6h-4.8ZM67.6,277.9c0-.8-.3-2-1.7-2s-1.8,1.1-1.9,2h3.6Z"/>
    </g>
    <polygon class="st10" points="159.9 550.1 159.9 503.4 534.6 550.1 159.9 550.1"/>
    <polygon class="st9" points="534.6 503.4 534.6 550.1 159.9 503.4 534.6 503.4"/>
    <g>
      <path d="M171.5,530.2v8.2c0,.6,0,1.3,0,1.8h-1.1v-1.2h0c-.4.8-1.2,1.3-2.3,1.3-1.6,0-2.9-1.4-2.9-3.4,0-2.3,1.4-3.6,3-3.6s1.7.5,2,1h0v-4h1.2ZM170.3,536.1c0-.2,0-.4,0-.5-.2-.8-.9-1.4-1.8-1.4s-2,1.1-2,2.6.7,2.5,2,2.5,1.6-.6,1.8-1.5c0-.2,0-.3,0-.5v-1.2Z"/>
      <path d="M179.7,536.7c0,2.5-1.8,3.6-3.4,3.6s-3.2-1.3-3.2-3.5,1.5-3.6,3.4-3.6,3.3,1.4,3.3,3.5ZM174.3,536.8c0,1.5.8,2.6,2,2.6s2.1-1.1,2.1-2.6-.6-2.6-2-2.6-2.1,1.3-2.1,2.6Z"/>
      <path d="M184.3,535.9v.9h-3.5v-.9h3.5Z"/>
      <path d="M187.1,531.5c0,.4-.3.8-.8.8s-.7-.3-.7-.8.3-.8.8-.8.8.3.8.8ZM185.7,540.2v-6.8h1.2v6.8h-1.2Z"/>
      <path d="M190.5,531.8v1.6h1.8v.9h-1.8v3.7c0,.8.2,1.3.9,1.3s.5,0,.7,0v.9c-.2,0-.6.2-1,.2s-1-.2-1.3-.5c-.3-.4-.5-1-.5-1.8v-3.7h-1.1v-.9h1.1v-1.3l1.2-.4Z"/>
      <path d="M196.4,535.9v.9h-3.5v-.9h3.5Z"/>
      <path d="M198.3,533.4l1.5,4c.2.4.3,1,.4,1.4h0c.1-.4.3-.9.4-1.4l1.3-4h1.3l-1.8,4.8c-.9,2.3-1.5,3.5-2.3,4.2-.6.5-1.2.7-1.5.8l-.3-1c.3,0,.7-.3,1.1-.6.3-.3.7-.7,1-1.4,0-.1,0-.2,0-.3s0-.2,0-.3l-2.5-6.2h1.3Z"/>
      <path d="M210.4,536.7c0,2.5-1.8,3.6-3.4,3.6s-3.2-1.3-3.2-3.5,1.5-3.6,3.4-3.6,3.3,1.4,3.3,3.5ZM205,536.8c0,1.5.8,2.6,2,2.6s2.1-1.1,2.1-2.6-.6-2.6-2-2.6-2.1,1.3-2.1,2.6Z"/>
      <path d="M217.6,538.3c0,.7,0,1.3,0,1.9h-1.1v-1.1h0c-.3.5-1,1.3-2.2,1.3s-2.3-.6-2.3-3v-4h1.2v3.7c0,1.3.4,2.2,1.5,2.2s1.4-.6,1.6-1.1c0-.2.1-.4.1-.6v-4.1h1.2v4.9Z"/>
      <path d="M219.7,535.5c0-.8,0-1.5,0-2.1h1.1v1.3h0c.3-.9,1.1-1.5,1.9-1.5s.2,0,.3,0v1.2c-.1,0-.3,0-.4,0-.9,0-1.5.6-1.7,1.6,0,.2,0,.4,0,.6v3.6h-1.2v-4.7Z"/>
      <path d="M224.1,538.9c.4.2,1,.5,1.6.5.9,0,1.3-.4,1.3-1s-.3-.9-1.2-1.2c-1.2-.4-1.8-1.1-1.8-1.9s.9-2,2.3-2,1.3.2,1.7.4l-.3.9c-.3-.2-.8-.4-1.4-.4s-1.1.4-1.1.9.4.8,1.3,1.2c1.2.4,1.8,1,1.8,2s-.9,2-2.5,2-1.4-.2-1.9-.5l.3-.9Z"/>
      <path d="M230.5,537c0,1.7,1.1,2.4,2.3,2.4s1.4-.2,1.9-.4l.2.9c-.4.2-1.2.4-2.3.4-2.1,0-3.3-1.4-3.3-3.4s1.2-3.6,3.2-3.6,2.8,1.9,2.8,3.2,0,.4,0,.6h-4.8ZM234.1,536.1c0-.8-.3-2-1.7-2s-1.8,1.1-1.9,2h3.6Z"/>
      <path d="M236.8,530.2h1.2v9.9h-1.2v-9.9Z"/>
      <path d="M240.2,540.2v-5.8h-.9v-.9h.9v-.3c0-1,.2-1.8.8-2.4.5-.4,1.1-.6,1.7-.6s.8,0,1.1.2l-.2,1c-.2,0-.4-.2-.8-.2-1,0-1.3.9-1.3,2v.4h1.6v.9h-1.6v5.8h-1.2Z"/>
    </g>
    <g>
      <path class="st6" d="M473.1,514.2c0-.8,0-1.5,0-2.1h1.1v1.3h0c.3-.9,1.1-1.5,1.9-1.5s.2,0,.3,0v1.2c-.1,0-.3,0-.4,0-.9,0-1.5.6-1.7,1.6,0,.2,0,.4,0,.6v3.6h-1.2v-4.7Z"/>
      <path class="st6" d="M478.3,515.7c0,1.7,1.1,2.4,2.3,2.4s1.4-.2,1.9-.3l.2.9c-.4.2-1.2.4-2.3.4-2.1,0-3.3-1.4-3.3-3.4s1.2-3.6,3.2-3.6,2.8,1.9,2.8,3.2,0,.4,0,.6h-4.8ZM481.9,514.8c0-.8-.3-2-1.7-2s-1.8,1.1-1.9,2h3.6Z"/>
      <path class="st6" d="M485.1,512.1l1.3,3.8c.2.6.4,1.2.5,1.8h0c.2-.6.3-1.1.6-1.8l1.3-3.8h1.3l-2.7,6.8h-1.2l-2.6-6.8h1.3Z"/>
      <path class="st6" d="M492.7,510.2c0,.4-.3.8-.8.8s-.7-.3-.7-.8.3-.8.8-.8.8.3.8.8ZM491.3,518.9v-6.8h1.2v6.8h-1.2Z"/>
      <path class="st6" d="M495.3,515.7c0,1.7,1.1,2.4,2.3,2.4s1.4-.2,1.9-.3l.2.9c-.4.2-1.2.4-2.3.4-2.1,0-3.3-1.4-3.3-3.4s1.2-3.6,3.2-3.6,2.8,1.9,2.8,3.2,0,.4,0,.6h-4.8ZM498.9,514.8c0-.8-.3-2-1.7-2s-1.8,1.1-1.9,2h3.6Z"/>
      <path class="st6" d="M502.1,512.1l.9,3.4c.2.8.4,1.5.5,2.2h0c.2-.7.4-1.4.6-2.1l1.1-3.5h1l1.1,3.4c.3.8.4,1.5.6,2.2h0c.1-.7.3-1.4.5-2.2l1-3.4h1.2l-2.2,6.8h-1.1l-1-3.2c-.2-.8-.4-1.4-.6-2.2h0c-.2.8-.4,1.5-.6,2.2l-1.1,3.2h-1.1l-2-6.8h1.3Z"/>
      <path class="st6" d="M513.3,510.2c0,.4-.3.8-.8.8s-.7-.3-.7-.8.3-.8.8-.8.8.3.8.8ZM511.9,518.9v-6.8h1.2v6.8h-1.2Z"/>
      <path class="st6" d="M515.2,514c0-.7,0-1.3,0-1.8h1.1v1.1h0c.3-.6,1.1-1.3,2.2-1.3s2.4.6,2.4,2.9v4h-1.2v-3.9c0-1.1-.4-2-1.6-2s-1.4.6-1.7,1.3c0,.2,0,.4,0,.6v4.1h-1.2v-4.9Z"/>
      <path class="st6" d="M528.8,517.9c0,1.6-.3,2.5-1,3.1-.7.6-1.6.8-2.5.8s-1.7-.2-2.3-.6l.3-1c.4.3,1.1.5,2,.5,1.3,0,2.2-.7,2.2-2.4v-.7h0c-.4.6-1.1,1.1-2.2,1.1-1.7,0-2.9-1.4-2.9-3.3s1.5-3.6,3.1-3.6,1.8.6,2.1,1.2h0v-1h1.1c0,.5,0,1,0,1.8v3.9ZM527.5,514.8c0-.2,0-.4,0-.5-.2-.7-.8-1.3-1.7-1.3s-2,1-2,2.6.7,2.4,2,2.4,1.5-.5,1.7-1.3c0-.2,0-.4,0-.7v-1.2Z"/>
    </g>
    <g>
      <path d="M15.5,518.6h1.2v4.6h0c.3-.4.5-.7.7-1l2.9-3.5h1.5l-3.4,4,3.7,5.4h-1.4l-3.1-4.6-.9,1v3.6h-1.2v-9.4Z"/>
      <path d="M23.1,523.1c0-.7,0-1.3,0-1.8h1.1v1.1h0c.3-.6,1.1-1.3,2.2-1.3s2.4.6,2.4,2.9v4h-1.2v-3.9c0-1.1-.4-2-1.6-2s-1.4.6-1.7,1.3c0,.2,0,.4,0,.6v4.1h-1.2v-4.9Z"/>
      <path d="M37,524.6c0,2.5-1.8,3.6-3.4,3.6s-3.2-1.3-3.2-3.5,1.5-3.6,3.4-3.6,3.3,1.4,3.3,3.5ZM31.7,524.7c0,1.5.8,2.6,2,2.6s2.1-1.1,2.1-2.6-.6-2.6-2-2.6-2.1,1.3-2.1,2.6Z"/>
      <path d="M39,521.2l.9,3.4c.2.8.4,1.5.5,2.2h0c.2-.7.4-1.4.6-2.1l1.1-3.5h1l1.1,3.4c.3.8.4,1.5.6,2.2h0c.1-.7.3-1.4.5-2.2l1-3.4h1.2l-2.2,6.8h-1.1l-1-3.2c-.2-.8-.4-1.4-.6-2.2h0c-.2.8-.4,1.5-.6,2.2l-1.1,3.2h-1.1l-2-6.8h1.3Z"/>
      <path d="M48.8,518.1h1.2v9.9h-1.2v-9.9Z"/>
      <path d="M52.8,524.9c0,1.7,1.1,2.4,2.3,2.4s1.4-.2,1.9-.4l.2.9c-.4.2-1.2.4-2.3.4-2.1,0-3.3-1.4-3.3-3.4s1.2-3.6,3.2-3.6,2.8,1.9,2.8,3.2,0,.4,0,.6h-4.8ZM56.4,524c0-.8-.3-2-1.7-2s-1.8,1.1-1.9,2h3.6Z"/>
      <path d="M65,518.1v8.2c0,.6,0,1.3,0,1.8h-1.1v-1.2h0c-.4.8-1.2,1.3-2.3,1.3-1.6,0-2.9-1.4-2.9-3.4,0-2.3,1.4-3.6,3-3.6s1.7.5,2,1h0v-4h1.2ZM63.7,524c0-.2,0-.4,0-.5-.2-.8-.9-1.4-1.8-1.4s-2,1.1-2,2.6.7,2.5,2,2.5,1.6-.6,1.8-1.5c0-.2,0-.3,0-.5v-1.2Z"/>
      <path d="M72.8,527c0,1.6-.3,2.5-1,3.1-.7.6-1.6.8-2.5.8s-1.7-.2-2.3-.6l.3-1c.4.3,1.1.5,2,.5,1.3,0,2.2-.7,2.2-2.4v-.7h0c-.4.6-1.1,1.1-2.2,1.1-1.7,0-2.9-1.4-2.9-3.3s1.5-3.6,3.1-3.6,1.8.6,2.1,1.2h0v-1h1.1c0,.5,0,1,0,1.8v3.9ZM71.6,523.9c0-.2,0-.4,0-.5-.2-.7-.8-1.3-1.7-1.3s-2,1-2,2.6.7,2.4,2,2.4,1.5-.5,1.7-1.3c0-.2,0-.4,0-.7v-1.2Z"/>
      <path d="M75.5,524.9c0,1.7,1.1,2.4,2.3,2.4s1.4-.2,1.9-.4l.2.9c-.4.2-1.2.4-2.3.4-2.1,0-3.3-1.4-3.3-3.4s1.2-3.6,3.2-3.6,2.8,1.9,2.8,3.2,0,.4,0,.6h-4.8ZM79.1,524c0-.8-.3-2-1.7-2s-1.8,1.1-1.9,2h3.6Z"/>
    </g>
    <polygon class="st10" points="159.9 601.1 159.9 554.4 534.6 601.1 159.9 601.1"/>
    <polygon class="st9" points="534.6 554.4 534.6 601.1 159.9 554.4 534.6 554.4"/>
    <g>
      <path d="M171.5,581.2v8.2c0,.6,0,1.3,0,1.8h-1.1v-1.2h0c-.4.8-1.2,1.3-2.3,1.3-1.6,0-2.9-1.4-2.9-3.4,0-2.3,1.4-3.6,3-3.6s1.7.5,2,1h0v-4h1.2ZM170.3,587.2c0-.2,0-.4,0-.5-.2-.8-.9-1.4-1.8-1.4s-2,1.1-2,2.6.7,2.5,2,2.5,1.6-.6,1.8-1.5c0-.2,0-.3,0-.5v-1.2Z"/>
      <path d="M179.7,587.7c0,2.5-1.8,3.6-3.4,3.6s-3.2-1.3-3.2-3.5,1.5-3.6,3.4-3.6,3.3,1.4,3.3,3.5ZM174.3,587.8c0,1.5.8,2.6,2,2.6s2.1-1.1,2.1-2.6-.6-2.6-2-2.6-2.1,1.3-2.1,2.6Z"/>
      <path d="M184.3,587v.9h-3.5v-.9h3.5Z"/>
      <path d="M187.1,582.5c0,.4-.3.8-.8.8s-.7-.3-.7-.8.3-.8.8-.8.8.3.8.8ZM185.7,591.2v-6.8h1.2v6.8h-1.2Z"/>
      <path d="M190.5,582.8v1.6h1.8v.9h-1.8v3.7c0,.8.2,1.3.9,1.3s.5,0,.7,0v.9c-.2,0-.6.2-1,.2s-1-.2-1.3-.5c-.3-.4-.5-1-.5-1.8v-3.7h-1.1v-.9h1.1v-1.3l1.2-.4Z"/>
      <path d="M196.4,587v.9h-3.5v-.9h3.5Z"/>
      <path d="M198.3,584.4l1.5,4c.2.4.3,1,.4,1.4h0c.1-.4.3-.9.4-1.4l1.3-4h1.3l-1.8,4.8c-.9,2.3-1.5,3.5-2.3,4.2-.6.5-1.2.7-1.5.8l-.3-1c.3,0,.7-.3,1.1-.6.3-.3.7-.7,1-1.4,0-.1,0-.2,0-.3s0-.2,0-.3l-2.5-6.2h1.3Z"/>
      <path d="M210.4,587.7c0,2.5-1.8,3.6-3.4,3.6s-3.2-1.3-3.2-3.5,1.5-3.6,3.4-3.6,3.3,1.4,3.3,3.5ZM205,587.8c0,1.5.8,2.6,2,2.6s2.1-1.1,2.1-2.6-.6-2.6-2-2.6-2.1,1.3-2.1,2.6Z"/>
      <path d="M217.6,589.3c0,.7,0,1.3,0,1.9h-1.1v-1.1h0c-.3.5-1,1.3-2.2,1.3s-2.3-.6-2.3-3v-4h1.2v3.7c0,1.3.4,2.2,1.5,2.2s1.4-.6,1.6-1.1c0-.2.1-.4.1-.6v-4.1h1.2v4.9Z"/>
      <path d="M219.7,586.5c0-.8,0-1.5,0-2.1h1.1v1.3h0c.3-.9,1.1-1.5,1.9-1.5s.2,0,.3,0v1.2c-.1,0-.3,0-.4,0-.9,0-1.5.6-1.7,1.6,0,.2,0,.4,0,.6v3.6h-1.2v-4.7Z"/>
      <path d="M224.1,589.9c.4.2,1,.5,1.6.5.9,0,1.3-.4,1.3-1s-.3-.9-1.2-1.2c-1.2-.4-1.8-1.1-1.8-1.9s.9-2,2.3-2,1.3.2,1.7.4l-.3.9c-.3-.2-.8-.4-1.4-.4s-1.1.4-1.1.9.4.8,1.3,1.2c1.2.4,1.8,1,1.8,2s-.9,2-2.5,2-1.4-.2-1.9-.5l.3-.9Z"/>
      <path d="M230.5,588c0,1.7,1.1,2.4,2.3,2.4s1.4-.2,1.9-.4l.2.9c-.4.2-1.2.4-2.3.4-2.1,0-3.3-1.4-3.3-3.4s1.2-3.6,3.2-3.6,2.8,1.9,2.8,3.2,0,.4,0,.6h-4.8ZM234.1,587.1c0-.8-.3-2-1.7-2s-1.8,1.1-1.9,2h3.6Z"/>
      <path d="M236.8,581.2h1.2v9.9h-1.2v-9.9Z"/>
      <path d="M240.2,591.2v-5.8h-.9v-.9h.9v-.3c0-1,.2-1.8.8-2.4.5-.4,1.1-.6,1.7-.6s.8,0,1.1.2l-.2,1c-.2,0-.4-.2-.8-.2-1,0-1.3.9-1.3,2v.4h1.6v.9h-1.6v5.8h-1.2Z"/>
    </g>
    <g>
      <path class="st6" d="M436.2,563.1l1.3,3.8c.2.6.4,1.2.5,1.8h0c.2-.6.3-1.1.6-1.8l1.3-3.8h1.3l-2.7,6.8h-1.2l-2.6-6.8h1.3Z"/>
      <path class="st6" d="M443.8,561.2c0,.4-.3.8-.8.8s-.7-.3-.7-.8.3-.8.8-.8.8.3.8.8ZM442.4,569.9v-6.8h1.2v6.8h-1.2Z"/>
      <path class="st6" d="M445.7,565.3c0-.8,0-1.5,0-2.1h1.1v1.3h0c.3-.9,1.1-1.5,1.9-1.5s.2,0,.3,0v1.2c-.1,0-.3,0-.4,0-.9,0-1.5.6-1.7,1.6,0,.2,0,.4,0,.6v3.6h-1.2v-4.7Z"/>
      <path class="st6" d="M452.1,561.5v1.6h1.8v.9h-1.8v3.7c0,.8.2,1.3.9,1.3s.5,0,.7,0v.9c-.2,0-.6.2-1,.2s-1-.2-1.3-.5c-.3-.4-.5-1-.5-1.8v-3.7h-1.1v-.9h1.1v-1.3l1.2-.4Z"/>
      <path class="st6" d="M460.9,568.1c0,.7,0,1.3,0,1.9h-1.1v-1.1h0c-.3.5-1,1.3-2.2,1.3s-2.3-.6-2.3-3v-4h1.2v3.7c0,1.3.4,2.2,1.5,2.2s1.4-.6,1.6-1.1c0-.2.1-.4.1-.6v-4.1h1.2v4.9Z"/>
      <path class="st6" d="M467.7,568.3c0,.6,0,1.2,0,1.6h-1.1v-.9h-.1c-.4.5-1.1,1-2.1,1-1.4,0-2.1-1-2.1-1.9,0-1.6,1.5-2.5,4.1-2.5h0c0-.7-.2-1.7-1.5-1.7-.6,0-1.3.2-1.8.5l-.3-.8c.6-.4,1.4-.6,2.2-.6,2.1,0,2.6,1.4,2.6,2.8v2.5ZM466.5,566.5c-1.3,0-2.9.2-2.9,1.5s.5,1.2,1.1,1.2c.9,0,1.5-.6,1.7-1.1,0-.1,0-.3,0-.4v-1.2Z"/>
      <path class="st6" d="M469.7,560h1.2v9.9h-1.2v-9.9Z"/>
      <path class="st6" d="M476,565.3c0-.8,0-1.5,0-2.1h1.1v1.3h0c.3-.9,1.1-1.5,1.9-1.5s.2,0,.3,0v1.2c-.1,0-.3,0-.4,0-.9,0-1.5.6-1.7,1.6,0,.2,0,.4,0,.6v3.6h-1.2v-4.7Z"/>
      <path class="st6" d="M481.1,566.8c0,1.7,1.1,2.4,2.3,2.4s1.4-.2,1.9-.3l.2.9c-.4.2-1.2.4-2.3.4-2.1,0-3.3-1.4-3.3-3.4s1.2-3.6,3.2-3.6,2.8,1.9,2.8,3.2,0,.4,0,.6h-4.8ZM484.7,565.9c0-.8-.3-2-1.7-2s-1.8,1.1-1.9,2h3.6Z"/>
      <path class="st6" d="M487.4,565.4c0-.9,0-1.6,0-2.2h1.1v1.2h0c.5-.8,1.3-1.3,2.4-1.3,1.7,0,2.9,1.4,2.9,3.4s-1.5,3.6-3.1,3.6-1.7-.4-2.1-1.1h0v3.7h-1.2v-7.3ZM488.6,567.2c0,.2,0,.3,0,.5.2.9,1,1.4,1.8,1.4,1.3,0,2.1-1.1,2.1-2.6s-.7-2.5-2-2.5-1.6.6-1.9,1.5c0,.2,0,.3,0,.5v1.2Z"/>
      <path class="st6" d="M495.4,560h1.2v9.9h-1.2v-9.9Z"/>
      <path class="st6" d="M503.4,568.3c0,.6,0,1.2,0,1.6h-1.1v-.9h-.1c-.4.5-1.1,1-2.1,1-1.4,0-2.1-1-2.1-1.9,0-1.6,1.5-2.5,4.1-2.5h0c0-.7-.2-1.7-1.5-1.7-.6,0-1.3.2-1.8.5l-.3-.8c.6-.4,1.4-.6,2.2-.6,2.1,0,2.6,1.4,2.6,2.8v2.5ZM502.3,566.5c-1.3,0-2.9.2-2.9,1.5s.5,1.2,1.1,1.2c.9,0,1.5-.6,1.7-1.1,0-.1,0-.3,0-.4v-1.2Z"/>
      <path class="st6" d="M505.8,563.1l1.5,4c.2.4.3,1,.4,1.4h0c.1-.4.3-.9.4-1.4l1.3-4h1.3l-1.8,4.8c-.9,2.3-1.5,3.5-2.3,4.2-.6.5-1.2.7-1.5.8l-.3-1c.3,0,.7-.3,1.1-.6.3-.3.7-.7,1-1.4,0-.1,0-.2,0-.3s0-.2,0-.3l-2.5-6.2h1.3Z"/>
      <path class="st6" d="M513.3,561.2c0,.4-.3.8-.8.8s-.7-.3-.7-.8.3-.8.8-.8.8.3.8.8ZM511.9,569.9v-6.8h1.2v6.8h-1.2Z"/>
      <path class="st6" d="M515.2,565c0-.7,0-1.3,0-1.8h1.1v1.1h0c.3-.6,1.1-1.3,2.2-1.3s2.4.6,2.4,2.9v4h-1.2v-3.9c0-1.1-.4-2-1.6-2s-1.4.6-1.7,1.3c0,.2,0,.4,0,.6v4.1h-1.2v-4.9Z"/>
      <path class="st6" d="M528.8,568.9c0,1.6-.3,2.5-1,3.1-.7.6-1.6.8-2.5.8s-1.7-.2-2.3-.6l.3-1c.4.3,1.1.5,2,.5,1.3,0,2.2-.7,2.2-2.4v-.7h0c-.4.6-1.1,1.1-2.2,1.1-1.7,0-2.9-1.4-2.9-3.3s1.5-3.6,3.1-3.6,1.8.6,2.1,1.2h0v-1h1.1c0,.5,0,1,0,1.8v3.9ZM527.5,565.8c0-.2,0-.4,0-.5-.2-.7-.8-1.3-1.7-1.3s-2,1-2,2.6.7,2.4,2,2.4,1.5-.5,1.7-1.3c0-.2,0-.4,0-.7v-1.2Z"/>
    </g>
    <g>
      <path d="M15.3,577.6c.5.4,1.3.6,2.2.6,1.2,0,2-.7,2-1.6s-.5-1.4-1.8-1.9c-1.5-.6-2.5-1.4-2.5-2.7s1.2-2.6,3.1-2.6,1.7.2,2.1.5l-.3,1c-.3-.2-.9-.4-1.8-.4-1.3,0-1.8.8-1.8,1.4s.6,1.3,1.9,1.8c1.6.6,2.4,1.4,2.4,2.8s-1.1,2.7-3.3,2.7-1.9-.3-2.4-.6l.3-1Z"/>
      <path d="M23.5,575.4h0c.2-.2.4-.5.6-.8l2-2.3h1.5l-2.6,2.8,3,4h-1.5l-2.3-3.2-.6.7v2.5h-1.2v-9.9h1.2v6.3Z"/>
      <path d="M30.5,570.4c0,.4-.3.8-.8.8s-.7-.3-.7-.8.3-.8.8-.8.8.3.8.8ZM29.1,579v-6.8h1.2v6.8h-1.2Z"/>
      <path d="M32.4,569.1h1.2v9.9h-1.2v-9.9Z"/>
      <path d="M35.7,569.1h1.2v9.9h-1.2v-9.9Z"/>
    </g>
    <path class="st1" d="M230.7,7.3c0-3.1,2.4-5.6,5.4-5.6h220c3,0,5.4,2.5,5.4,5.6v603.9c0,3.1-2.4,5.6-5.4,5.6h-220c-3,0-5.4-2.5-5.4-5.6V7.3Z"/>
    <g>
      <path class="st6" d="M320.9,14.8c.4.2,1,.5,1.6.5.9,0,1.3-.4,1.3-1s-.3-.9-1.2-1.2c-1.2-.4-1.8-1.1-1.8-1.9s.9-2,2.3-2,1.3.2,1.7.4l-.3.9c-.3-.2-.8-.4-1.4-.4s-1.1.4-1.1.9.4.8,1.3,1.2c1.2.4,1.8,1,1.8,2s-.9,2-2.5,2-1.4-.2-1.9-.5l.3-.9Z"/>
      <path class="st6" d="M327.1,9.3l.9,3.4c.2.8.4,1.5.5,2.2h0c.2-.7.4-1.4.6-2.1l1.1-3.5h1l1.1,3.4c.3.8.4,1.5.6,2.2h0c.1-.7.3-1.4.5-2.2l1-3.4h1.2l-2.2,6.8h-1.1l-1-3.2c-.2-.8-.4-1.4-.6-2.2h0c-.2.8-.4,1.5-.6,2.2l-1.1,3.2h-1.1l-2-6.8h1.3Z"/>
      <path class="st6" d="M337.4,12.9c0,1.7,1.1,2.4,2.3,2.4s1.4-.2,1.9-.4l.2.9c-.4.2-1.2.4-2.3.4-2.1,0-3.3-1.4-3.3-3.4s1.2-3.6,3.2-3.6,2.8,1.9,2.8,3.2,0,.4,0,.6h-4.8ZM341.1,12c0-.8-.3-2-1.7-2s-1.8,1.1-1.9,2h3.6Z"/>
      <path class="st6" d="M344.5,12.9c0,1.7,1.1,2.4,2.3,2.4s1.4-.2,1.9-.4l.2.9c-.4.2-1.2.4-2.3.4-2.1,0-3.3-1.4-3.3-3.4s1.2-3.6,3.2-3.6,2.8,1.9,2.8,3.2,0,.4,0,.6h-4.8ZM348.1,12c0-.8-.3-2-1.7-2s-1.8,1.1-1.9,2h3.6Z"/>
      <path class="st6" d="M352.3,7.6v1.6h1.8v.9h-1.8v3.7c0,.8.2,1.3.9,1.3s.5,0,.7,0v.9c-.2,0-.6.2-1,.2s-1-.2-1.3-.5c-.3-.4-.5-1-.5-1.8v-3.7h-1.1v-.9h1.1v-1.3l1.2-.4Z"/>
      <path class="st6" d="M358.2,11.8v.9h-3.5v-.9h3.5Z"/>
      <path class="st6" d="M359.5,14.8c.4.2,1,.5,1.6.5.9,0,1.3-.4,1.3-1s-.3-.9-1.2-1.2c-1.2-.4-1.8-1.1-1.8-1.9s.9-2,2.3-2,1.3.2,1.7.4l-.3.9c-.3-.2-.8-.4-1.4-.4s-1.1.4-1.1.9.4.8,1.3,1.2c1.2.4,1.8,1,1.8,2s-.9,2-2.5,2-1.4-.2-1.9-.5l.3-.9Z"/>
      <path class="st6" d="M365.2,11.5c0-.9,0-1.6,0-2.2h1.1v1.2h0c.5-.8,1.3-1.3,2.4-1.3,1.7,0,2.9,1.4,2.9,3.4s-1.5,3.6-3.1,3.6-1.7-.4-2.1-1.1h0v3.7h-1.2v-7.3ZM366.4,13.3c0,.2,0,.4,0,.5.2.9,1,1.4,1.8,1.4,1.3,0,2.1-1.1,2.1-2.6s-.7-2.5-2-2.5-1.6.6-1.9,1.5c0,.2,0,.3,0,.5v1.2Z"/>
      <path class="st6" d="M379.3,12.6c0,2.5-1.8,3.6-3.4,3.6s-3.2-1.3-3.2-3.5,1.5-3.6,3.4-3.6,3.3,1.4,3.3,3.5ZM373.9,12.7c0,1.5.8,2.6,2,2.6s2.1-1.1,2.1-2.6-.6-2.6-2-2.6-2.1,1.3-2.1,2.6Z"/>
      <path class="st6" d="M382.3,7.6v1.6h1.8v.9h-1.8v3.7c0,.8.2,1.3.9,1.3s.5,0,.7,0v.9c-.2,0-.6.2-1,.2s-1-.2-1.3-.5c-.3-.4-.5-1-.5-1.8v-3.7h-1.1v-.9h1.1v-1.3l1.2-.4Z"/>
    </g>
    <g>
      <path class="st12" d="M17,55.4l-1,3h-1.3l3.2-9.4h1.5l3.2,9.4h-1.3l-1-3h-3.3ZM20.1,54.4l-.9-2.7c-.2-.6-.4-1.2-.5-1.7h0c-.1.5-.3,1.1-.5,1.7l-.9,2.7h2.9Z"/>
      <path class="st12" d="M28.7,58.1c-.3.2-1,.4-1.9.4-2,0-3.4-1.4-3.4-3.5s1.4-3.6,3.6-3.6,1.4.2,1.7.4l-.3.9c-.3-.2-.8-.3-1.4-.3-1.6,0-2.4,1.2-2.4,2.6s1,2.5,2.4,2.5,1.2-.2,1.5-.3l.2.9Z"/>
      <path class="st12" d="M31.7,49.9v1.6h1.8v.9h-1.8v3.7c0,.8.2,1.3.9,1.3s.5,0,.7,0v.9c-.2,0-.6.2-1,.2s-1-.2-1.3-.5c-.3-.4-.5-1-.5-1.8v-3.7h-1.1v-.9h1.1v-1.3l1.2-.4Z"/>
      <path class="st12" d="M41,54.9c0,2.5-1.8,3.6-3.4,3.6s-3.2-1.3-3.2-3.5,1.5-3.6,3.4-3.6,3.3,1.4,3.3,3.5ZM35.6,55c0,1.5.8,2.6,2,2.6s2.1-1.1,2.1-2.6-.6-2.6-2-2.6-2.1,1.3-2.1,2.6Z"/>
      <path class="st12" d="M42.5,53.7c0-.8,0-1.5,0-2.1h1.1v1.3h0c.3-.9,1.1-1.5,1.9-1.5s.2,0,.3,0v1.2c-.1,0-.3,0-.4,0-.9,0-1.5.6-1.7,1.6,0,.2,0,.4,0,.6v3.6h-1.2v-4.7Z"/>
    </g>
  </g>
</svg>