<?xml version="1.0" encoding="UTF-8"?>
<svg id="Layer_1" data-name="Layer 1" xmlns="http://www.w3.org/2000/svg" viewBox="0 0 603.7796 363.7435">
  <defs>
    <style>
      .cls-1 {
        fill: #369;
      }
    </style>
  </defs>
  <path d="M454.3743,285.8569v-80h124v-62h-124v-70h131.5V11.3569h-115.252v-.0552h-112v60h27.4702v3.185c-2.4529-.7571-5.0222-1.488-7.7183-2.1721v82.5298c41.204,21.0392,60.5,53.2391,60.5,93.0125,0,38.0516-19.507,77.2455-60.5,95.5201v4.9799h214.5v-62.5h-138.5Z"/>
  <path d="M297.8677,208.1231l17.3463-70.5212c-26.3575-11.3248-37.8387-20.8152-37.8387-37.7444,0-17,16-32.5,49-32.5,32.5,0,57,9.5,70,16l17-61c-20-9.5-47.5-17-86-17-79,0-127.5,43.5-127.5,101,0,49,37,80,93,100,1.7131.5922,3.3662,1.1798,4.9924,1.7657Z"/>
  <path class="cls-1" d="M339.8753,147.3574c-4.6635-1.7488-9.0231-3.4155-13.1219-5.0297l-17.2764,70.2367c28.3309,11.5986,39.8983,22.9456,39.8983,40.793,0,22-18.5,36.5-53.5,36.5-14.3855,0-28.6706-2.0595-41.8628-5.2632v64.6928c11.9549,1.9174,24.6292,3.0709,37.3628,3.0709,92.5,0,135.5-48.0005,135.5-104.5005,0-47.5-27.5-78.5-87-100.5Z"/>
  <path class="cls-1" d="M274.2962,209.3524c-50.9768-20.0632-84.0938-54.3008-84.0938-100.6503,0-27.8409,9.3707-54.3995,30.0681-72.3275l-5.8787-23.2868h-100L11.8919,350.0883h78.5l24-86.5005h96.5l26,86.5005h24.5421v-59.7936c8.0934,1.2095,16.4135,1.9073,24.7685,1.9073,5.3359,0,10.2832-.3413,14.8451-.9905l-26.7513-81.8591ZM143.7377,149.6353c-.3217-.9047-.563-1.8095-.7238-2.7142-.6031-3.0963-.764-5.9714-.0402-8.7258.8646-3.6793,2.855-6.6348,5.0867-8.9269,1.4074-1.5079,3.0159-2.8349,4.7047-3.9005,1.3873-.9651,2.9153-1.7894,4.584-2.3524,1.3069-.4222,2.6942-.7238,4.1619-.7841,4.5237-.382,7.9618.7439,10.4348,2.2116,3.6793,2.0306,5.0867,4.7248,5.0867,4.7248,0,0,8.4444.5831,5.5894,17.7331-.1608.8846-.4021,1.8095-.7238,2.7143,1.6888-.1609,3.6793.8243,1.8094,7.439-1.3671,4.8455-2.6338,6.1926-3.5989,6.2729-.9047,5.7301-5.4888,13.0284-12.6665,15.622-2.9957,1.0858-6.2729,1.0656-9.2687.0201-7.2983-2.5735-11.7416-9.892-12.6263-15.6422-.9651-.0804-2.2318-1.4275-3.619-6.2528-1.8698-6.6147.1207-7.5999,1.8095-7.4391ZM203.7327,200.985s-.4423,5.9311-.8846,8.5449c0,0-14.9585,9.7311-40.0101,9.7311-25.0516-.0201-40.0101-9.7311-40.0101-9.7311-.4423-2.6138-.8846-8.5449-.8846-8.5449-.3016-4.3629.0603-13.2094,7.7205-15.1596,10.2739-2.6138,18.6177-8.4846,18.6177-8.4846l6.5344,20.6082,1.2264,3.8804.0201-.0603,1.0656,3.2973,3.438-9.7512c-8.4443-11.7819,1.709-11.6613,2.2719-11.6411.563-.0201,10.7162-.1407,2.2719,11.6411l3.438,9.7512,1.0656-3.2973.0201.0603,1.2264-3.8804,6.5142-20.6082s8.3438,5.8708,18.6178,8.4846c7.6602,1.9502,8.0221,10.7967,7.7406,15.1596Z"/>
</svg>