<?xml version="1.0" encoding="UTF-8"?><svg id="Layer_1" xmlns="http://www.w3.org/2000/svg" viewBox="0 0 226.2969 70.7828"><defs><style>.cls-1{fill:#fff;stroke-width:0px;}</style></defs><path class="cls-1" d="m0,42.7124c0-6.5083,5.2754-11.7832,11.7832-11.7832s11.7832,5.2749,11.7832,11.7832-5.2764,11.7832-11.7832,11.7832S0,49.2193,0,42.7124"/><path class="cls-1" d="m31.1592.001v54.149h9.8808V8.2402h22.6338v45.9097h9.9121V8.2402h15.0537c5.0831,0,8.6729,3.0498,8.6729,9.667v36.2427h9.8896V15.168C107.2021,7.794,103.3984.001,93.6182.001H31.1592"/><path class="cls-1" d="m126.9961.001c-10.6729,0-13.9082,7.0894-13.9082,15.0274,0,8.48,3.5244,15.6225,13.2236,15.6225h23.5205c7.2071,0,7.2071,5.5401,7.2071,8.0596,0,2.3496,0,7.1836-7.0264,7.1836h-36.001v8.2559h40.1377c10.0108,0,12.877-5.8809,12.877-15.3653,0-11.3017-3.6905-16.3667-12.2442-16.3667h-25.3974c-6.4073,0-6.4073-4.3296-6.4073-7.2168,0-2.251.6348-6.9609,7.5049-6.9609h34.6963V.001h-38.1826"/><path class="cls-1" d="m226.2969,0v58.9722c0,7.7207-2.9737,11.8106-12.1602,11.8106h-34.0674v-8.67h30.9102c4.6826,0,5.4668-1.7832,5.4717-5.8691.0068-.4385-.0049-2.0937-.0049-2.0937h-23.7129c-9.3516,0-12.3965-1.4942-14.2354-2.8077-2.7314-2.2949-5.4023-4.9863-5.4023-14.6049v-19.5494c.0518-9.08,2.4678-11.75,5.1045-13.853,2.417-1.9277,5.6963-3.335,14.5098-3.335h33.5869m-9.8506,8.2392s-19.7022.0142-20.2969,0c-10.1465-.2432-12.6006,2.124-12.9424,8.7739-.0381.7442.0284,2.4649,0,9.6651-.0332,8.4887-.0068,11.4121,0,11.7412.1612,7.9365,6.376,7.5107,12.5039,7.4746h20.7354V8.2392Z"/></svg>