<?xml version="1.0" encoding="UTF-8"?>
<svg id="Layer_1" xmlns="http://www.w3.org/2000/svg" xmlns:xlink="http://www.w3.org/1999/xlink" version="1.1" viewBox="0 0 282 261">
  <!-- Generator: Adobe Illustrator 30.5.1, SVG Export Plug-In . SVG Version: 2.1.4 Build 3)  -->
  <defs>
    <style>
      .st0 {
        fill: none;
      }

      .st1 {
        fill: #368ddf;
      }

      .st2 {
        fill: #595959;
      }

      .st3 {
        fill: #0c4171;
      }

      .st4 {
        clip-path: url(#clippath-17);
      }

      .st5 {
        clip-path: url(#clippath-19);
      }

      .st6 {
        clip-path: url(#clippath-11);
      }

      .st7 {
        clip-path: url(#clippath-16);
      }

      .st8 {
        clip-path: url(#clippath-18);
      }

      .st9 {
        clip-path: url(#clippath-10);
      }

      .st10 {
        clip-path: url(#clippath-15);
      }

      .st11 {
        clip-path: url(#clippath-13);
      }

      .st12 {
        clip-path: url(#clippath-14);
      }

      .st13 {
        clip-path: url(#clippath-12);
      }

      .st14 {
        clip-path: url(#clippath-61);
      }

      .st15 {
        clip-path: url(#clippath-60);
      }

      .st16 {
        clip-path: url(#clippath-50);
      }

      .st17 {
        clip-path: url(#clippath-55);
      }

      .st18 {
        clip-path: url(#clippath-52);
      }

      .st19 {
        clip-path: url(#clippath-57);
      }

      .st20 {
        clip-path: url(#clippath-54);
      }

      .st21 {
        clip-path: url(#clippath-56);
      }

      .st22 {
        clip-path: url(#clippath-53);
      }

      .st23 {
        clip-path: url(#clippath-51);
      }

      .st24 {
        clip-path: url(#clippath-58);
      }

      .st25 {
        clip-path: url(#clippath-59);
      }

      .st26 {
        clip-path: url(#clippath-31);
      }

      .st27 {
        clip-path: url(#clippath-32);
      }

      .st28 {
        clip-path: url(#clippath-33);
      }

      .st29 {
        clip-path: url(#clippath-34);
      }

      .st30 {
        clip-path: url(#clippath-35);
      }

      .st31 {
        clip-path: url(#clippath-39);
      }

      .st32 {
        clip-path: url(#clippath-30);
      }

      .st33 {
        clip-path: url(#clippath-36);
      }

      .st34 {
        clip-path: url(#clippath-37);
      }

      .st35 {
        clip-path: url(#clippath-38);
      }

      .st36 {
        clip-path: url(#clippath-27);
      }

      .st37 {
        clip-path: url(#clippath-29);
      }

      .st38 {
        clip-path: url(#clippath-26);
      }

      .st39 {
        clip-path: url(#clippath-28);
      }

      .st40 {
        clip-path: url(#clippath-20);
      }

      .st41 {
        clip-path: url(#clippath-21);
      }

      .st42 {
        clip-path: url(#clippath-22);
      }

      .st43 {
        clip-path: url(#clippath-23);
      }

      .st44 {
        clip-path: url(#clippath-24);
      }

      .st45 {
        clip-path: url(#clippath-25);
      }

      .st46 {
        clip-path: url(#clippath-41);
      }

      .st47 {
        clip-path: url(#clippath-42);
      }

      .st48 {
        clip-path: url(#clippath-43);
      }

      .st49 {
        clip-path: url(#clippath-44);
      }

      .st50 {
        clip-path: url(#clippath-45);
      }

      .st51 {
        clip-path: url(#clippath-49);
      }

      .st52 {
        clip-path: url(#clippath-40);
      }

      .st53 {
        clip-path: url(#clippath-46);
      }

      .st54 {
        clip-path: url(#clippath-47);
      }

      .st55 {
        clip-path: url(#clippath-48);
      }

      .st56 {
        fill: #929292;
      }

      .st57 {
        clip-path: url(#clippath-1);
      }

      .st58 {
        clip-path: url(#clippath-3);
      }

      .st59 {
        clip-path: url(#clippath-4);
      }

      .st60 {
        clip-path: url(#clippath-2);
      }

      .st61 {
        clip-path: url(#clippath-7);
      }

      .st62 {
        clip-path: url(#clippath-6);
      }

      .st63 {
        clip-path: url(#clippath-9);
      }

      .st64 {
        clip-path: url(#clippath-8);
      }

      .st65 {
        clip-path: url(#clippath-5);
      }

      .st66 {
        fill: #1067b2;
      }

      .st67 {
        fill: #fff;
      }

      .st68 {
        fill: #7db4ea;
      }

      .st69 {
        fill: #f2f2f2;
      }

      .st70 {
        fill: #c0dbf5;
      }

      .st71 {
        clip-path: url(#clippath);
      }
    </style>
    <clipPath id="clippath">
      <rect class="st0" x="2" y="2" width="277" height="256"/>
    </clipPath>
    <clipPath id="clippath-1">
      <rect class="st0" x="2" y="2" width="277" height="256"/>
    </clipPath>
    <clipPath id="clippath-2">
      <rect class="st0" x="2" y="2" width="277" height="256"/>
    </clipPath>
    <clipPath id="clippath-3">
      <rect class="st0" x="2" y="2" width="277" height="256"/>
    </clipPath>
    <clipPath id="clippath-4">
      <rect class="st0" x="2" y="2" width="277" height="256"/>
    </clipPath>
    <clipPath id="clippath-5">
      <rect class="st0" x="2" y="2" width="277" height="256"/>
    </clipPath>
    <clipPath id="clippath-6">
      <rect class="st0" x="2" y="2" width="277" height="256"/>
    </clipPath>
    <clipPath id="clippath-7">
      <rect class="st0" x="2" y="2" width="277" height="256"/>
    </clipPath>
    <clipPath id="clippath-8">
      <rect class="st0" x="2" y="2" width="277" height="256"/>
    </clipPath>
    <clipPath id="clippath-9">
      <rect class="st0" x="2" y="2" width="277" height="256"/>
    </clipPath>
    <clipPath id="clippath-10">
      <rect class="st0" x="2" y="2" width="277" height="256"/>
    </clipPath>
    <clipPath id="clippath-11">
      <rect class="st0" x="2" y="2" width="277" height="256"/>
    </clipPath>
    <clipPath id="clippath-12">
      <rect class="st0" x="2" y="2" width="277" height="256"/>
    </clipPath>
    <clipPath id="clippath-13">
      <rect class="st0" x="2" y="2" width="277" height="256"/>
    </clipPath>
    <clipPath id="clippath-14">
      <rect class="st0" x="2" y="2" width="277" height="256"/>
    </clipPath>
    <clipPath id="clippath-15">
      <rect class="st0" x="2" y="2" width="277" height="256"/>
    </clipPath>
    <clipPath id="clippath-16">
      <rect class="st0" x="2" y="2" width="277" height="256"/>
    </clipPath>
    <clipPath id="clippath-17">
      <rect class="st0" x="2" y="2" width="277" height="256"/>
    </clipPath>
    <clipPath id="clippath-18">
      <rect class="st0" x="2" y="2" width="277" height="256"/>
    </clipPath>
    <clipPath id="clippath-19">
      <rect class="st0" x="2" y="2" width="277" height="256"/>
    </clipPath>
    <clipPath id="clippath-20">
      <rect class="st0" x="2" y="2" width="277" height="256"/>
    </clipPath>
    <clipPath id="clippath-21">
      <rect class="st0" x="2" y="2" width="277" height="256"/>
    </clipPath>
    <clipPath id="clippath-22">
      <rect class="st0" x="2" y="2" width="277" height="256"/>
    </clipPath>
    <clipPath id="clippath-23">
      <rect class="st0" x="2" y="2" width="277" height="256"/>
    </clipPath>
    <clipPath id="clippath-24">
      <rect class="st0" x="2" y="2" width="277" height="256"/>
    </clipPath>
    <clipPath id="clippath-25">
      <rect class="st0" x="2" y="2" width="277" height="256"/>
    </clipPath>
    <clipPath id="clippath-26">
      <rect class="st0" x="2" y="2" width="277" height="256"/>
    </clipPath>
    <clipPath id="clippath-27">
      <rect class="st0" x="2" y="2" width="277" height="256"/>
    </clipPath>
    <clipPath id="clippath-28">
      <rect class="st0" x="2" y="2" width="277" height="256"/>
    </clipPath>
    <clipPath id="clippath-29">
      <rect class="st0" x="2" y="2" width="277" height="256"/>
    </clipPath>
    <clipPath id="clippath-30">
      <rect class="st0" x="2" y="2" width="277" height="256"/>
    </clipPath>
    <clipPath id="clippath-31">
      <rect class="st0" x="2" y="2" width="277" height="256"/>
    </clipPath>
    <clipPath id="clippath-32">
      <rect class="st0" x="2" y="2" width="277" height="256"/>
    </clipPath>
    <clipPath id="clippath-33">
      <rect class="st0" x="2" y="2" width="277" height="256"/>
    </clipPath>
    <clipPath id="clippath-34">
      <rect class="st0" width="282" height="261"/>
    </clipPath>
    <clipPath id="clippath-35">
      <rect class="st0" width="282" height="261"/>
    </clipPath>
    <clipPath id="clippath-36">
      <rect class="st0" width="282" height="261"/>
    </clipPath>
    <clipPath id="clippath-37">
      <rect class="st0" width="282" height="261"/>
    </clipPath>
    <clipPath id="clippath-38">
      <rect class="st0" width="282" height="261"/>
    </clipPath>
    <clipPath id="clippath-39">
      <rect class="st0" width="282" height="261"/>
    </clipPath>
    <clipPath id="clippath-40">
      <rect class="st0" width="282" height="261"/>
    </clipPath>
    <clipPath id="clippath-41">
      <rect class="st0" width="282" height="261"/>
    </clipPath>
    <clipPath id="clippath-42">
      <rect class="st0" width="282" height="261"/>
    </clipPath>
    <clipPath id="clippath-43">
      <rect class="st0" width="282" height="261"/>
    </clipPath>
    <clipPath id="clippath-44">
      <rect class="st0" width="282" height="261"/>
    </clipPath>
    <clipPath id="clippath-45">
      <rect class="st0" width="282" height="261"/>
    </clipPath>
    <clipPath id="clippath-46">
      <rect class="st0" width="282" height="261"/>
    </clipPath>
    <clipPath id="clippath-47">
      <rect class="st0" width="282" height="261"/>
    </clipPath>
    <clipPath id="clippath-48">
      <rect class="st0" width="282" height="261"/>
    </clipPath>
    <clipPath id="clippath-49">
      <rect class="st0" width="282" height="261"/>
    </clipPath>
    <clipPath id="clippath-50">
      <rect class="st0" width="282" height="261"/>
    </clipPath>
    <clipPath id="clippath-51">
      <rect class="st0" width="282" height="261"/>
    </clipPath>
    <clipPath id="clippath-52">
      <rect class="st0" width="282" height="261"/>
    </clipPath>
    <clipPath id="clippath-53">
      <rect class="st0" width="282" height="261"/>
    </clipPath>
    <clipPath id="clippath-54">
      <rect class="st0" width="282" height="261"/>
    </clipPath>
    <clipPath id="clippath-55">
      <rect class="st0" width="282" height="261"/>
    </clipPath>
    <clipPath id="clippath-56">
      <rect class="st0" width="282" height="261"/>
    </clipPath>
    <clipPath id="clippath-57">
      <rect class="st0" width="282" height="261"/>
    </clipPath>
    <clipPath id="clippath-58">
      <rect class="st0" width="282" height="261"/>
    </clipPath>
    <clipPath id="clippath-59">
      <rect class="st0" width="282" height="261"/>
    </clipPath>
    <clipPath id="clippath-60">
      <rect class="st0" width="282" height="261"/>
    </clipPath>
    <clipPath id="clippath-61">
      <rect class="st0" width="282" height="261"/>
    </clipPath>
  </defs>
  <g class="st71">
    <rect class="st70" x="165" y="16" width="23" height="137"/>
  </g>
  <g class="st57">
    <rect class="st68" x="187" y="16" width="21" height="137"/>
  </g>
  <g class="st60">
    <rect class="st1" x="207" y="16" width="25" height="137"/>
  </g>
  <g class="st58">
    <rect class="st3" x="231" y="16" width="24" height="137"/>
  </g>
  <g class="st59">
    <rect x="254" y="16" width="25" height="137"/>
  </g>
  <g class="st65">
    <rect class="st70" x="22" y="152" width="144" height="16"/>
  </g>
  <g class="st62">
    <rect class="st56" x="165" y="152" width="90" height="16"/>
  </g>
  <g class="st61">
    <rect class="st69" x="254" y="152" width="25" height="16"/>
  </g>
  <g class="st64">
    <rect class="st68" x="22" y="167" width="144" height="31"/>
  </g>
  <g class="st63">
    <rect class="st69" x="165" y="167" width="23" height="31"/>
  </g>
  <g class="st9">
    <rect class="st56" x="187" y="167" width="92" height="31"/>
  </g>
  <g class="st6">
    <rect class="st1" x="22" y="197" width="144" height="16"/>
  </g>
  <g class="st13">
    <rect class="st69" x="165" y="197" width="43" height="16"/>
  </g>
  <g class="st11">
    <rect class="st56" x="207" y="197" width="48" height="16"/>
  </g>
  <g class="st12">
    <rect class="st69" x="254" y="197" width="25" height="16"/>
  </g>
  <g class="st10">
    <rect class="st1" x="22" y="212" width="144" height="16"/>
  </g>
  <g class="st7">
    <rect class="st69" x="165" y="212" width="43" height="16"/>
  </g>
  <g class="st4">
    <rect class="st56" x="207" y="212" width="72" height="16"/>
  </g>
  <g class="st8">
    <rect class="st66" x="22" y="227" width="144" height="31"/>
  </g>
  <g class="st5">
    <rect class="st69" x="165" y="227" width="67" height="31"/>
  </g>
  <g class="st40">
    <rect class="st56" x="231" y="227" width="24" height="31"/>
  </g>
  <g class="st41">
    <rect class="st69" x="254" y="227" width="25" height="31"/>
  </g>
  <g class="st42">
    <g>
      <path d="M181,150l-9.2-2.9v-1.9l9.2-2.9v1.9l-2.1.6v2.8l2.1.6v1.9ZM177.3,147.1v-2l-3.8,1,3.8,1Z"/>
      <path d="M181.1,139.1c0,.4-.1.8-.4,1.1s-.7.6-1.2.8-1.2.3-2.1.3-1.5-.1-2-.3-.9-.5-1.2-.9-.4-.8-.4-1.2,0-.8.3-1.1.4-.6.8-.7h-3.1v-1.7h9.2v1.6h-1c.3.3.6.6.8.9s.3.7.3,1.1ZM179.8,138.6c0-.3,0-.6-.3-.8s-.4-.4-.7-.6h-2.7c-.3.1-.5.3-.7.5s-.3.5-.3.8.2.7.6.8.9.3,1.7.3,1.4,0,1.8-.3.6-.5.6-.8Z"/>
      <path d="M178.2,134.5h-1.4v-3.3h1.4v3.3Z"/>
      <path d="M181,130h-9.2v-1.8h3.6v-3.5h-3.6v-1.8h9.2v1.8h-4v3.5h4v1.8Z"/>
      <path d="M181.1,118.4c0,.6-.1,1.2-.4,1.6s-.7.8-1.2,1-1.2.4-2,.4-1.4-.1-2-.4-.9-.6-1.2-1-.4-1-.4-1.6.1-1.2.4-1.6.7-.8,1.2-1,1.2-.4,2-.4,1.4.1,2,.4.9.6,1.2,1,.4,1,.4,1.6ZM179.8,118.4c0-.3-.1-.6-.3-.8s-.5-.3-.8-.4-.7-.1-1.2-.1-.8,0-1.2.1-.6.2-.8.4-.3.5-.3.8.1.6.3.8.5.3.8.4.7.1,1.2.1.8,0,1.2-.1.6-.2.8-.4.3-.4.3-.8Z"/>
      <path d="M181.1,111.4c0,.6-.1,1.1-.4,1.5s-.6.8-1.2,1.1-1.2.4-2,.4-1.5-.1-2-.4-.9-.6-1.2-1-.4-1-.4-1.6,0-.9.2-1.3.4-.7.7-1,.7-.4,1.2-.4v1.7c-.3,0-.5.1-.7.3s-.2.4-.2.7.2.8.6,1,1,.3,1.7.3.9,0,1.2-.1.6-.2.8-.4.3-.4.3-.7,0-.6-.3-.8-.4-.3-.8-.3v-1.7c.8,0,1.4.3,1.8.8s.6,1.2.6,1.9Z"/>
      <path d="M181,104h-9.2v-2.1l5-2.5v.8l-5-2.5v-2h9.2v1.8h-8.3v-.8l5.3,2.6v1.1l-5.3,2.7v-.8h8.3v1.7Z"/>
      <path d="M181.1,91.4c0,.6-.1,1.2-.4,1.6s-.7.8-1.2,1-1.2.4-2,.4-1.4-.1-2-.4-.9-.6-1.2-1-.4-1-.4-1.6.1-1.2.4-1.6.7-.8,1.2-1,1.2-.4,2-.4,1.4.1,2,.4.9.6,1.2,1,.4,1,.4,1.6ZM179.8,91.4c0-.3-.1-.6-.3-.8s-.5-.3-.8-.4-.7-.1-1.2-.1-.8,0-1.2.1-.6.2-.8.4-.3.5-.3.8.1.6.3.8.5.3.8.4.7.1,1.2.1.8,0,1.2-.1.6-.2.8-.4.3-.4.3-.8Z"/>
      <path d="M181.1,85.1c0,.4-.1.8-.4,1.1s-.7.6-1.2.8-1.2.3-2.1.3-1.5-.1-2-.3-.9-.5-1.2-.9-.4-.8-.4-1.2,0-.8.3-1.1.4-.6.8-.7h-3.1v-1.7h9.2v1.6h-1c.3.3.6.6.8.9s.3.7.3,1.1ZM179.8,84.5c0-.3,0-.6-.3-.8s-.4-.4-.7-.6h-2.7c-.3.1-.5.3-.7.5s-.3.5-.3.8.2.7.6.8.9.3,1.7.3,1.4,0,1.8-.3.6-.5.6-.8Z"/>
      <path d="M181.1,77.3c0,.7-.1,1.3-.4,1.7s-.7.8-1.2,1-1.2.3-1.9.3-1.4-.1-1.9-.3-1-.6-1.2-1-.4-1-.4-1.7.3-1.6.9-2.1,1.5-.8,2.6-.8c0,0,.1,0,.2,0s.2,0,.3,0v4.1c.4,0,.7,0,1-.2s.6-.2.7-.4.3-.5.3-.8,0-.5-.2-.6-.3-.3-.6-.4v-1.8c.5,0,.8.2,1.1.5s.5.5.7.9.2.8.2,1.3ZM176.7,78.6v-2.5c-.6,0-1,.1-1.3.3s-.4.5-.4.8.1.7.4.9.7.4,1.3.4Z"/>
    </g>
  </g>
  <g class="st43">
    <g>
      <path d="M202,149h-9.2v-3.2c0-.6.1-1.1.3-1.5s.5-.8,1-1.1,1-.4,1.7-.4,1.2.1,1.6.4.8.6,1,1.1.3,1,.3,1.5v1.4h3.3v1.8ZM197.2,147.2v-1.2c0-.4-.1-.7-.4-1s-.6-.4-1.1-.4-.9.1-1.1.4-.4.6-.4.9v1.2h3Z"/>
      <path d="M202,138.8c0,.6,0,1.1-.2,1.4s-.4.6-.7.7-.7.2-1.2.2h-7v-1.7h6.9c.3,0,.6,0,.7-.1s.2-.3.2-.6v-.4h1.3v.4Z"/>
      <path d="M202.1,135.5c0,.3,0,.7-.2.9s-.4.5-.7.7-.7.3-1.1.3-1.1-.2-1.4-.5-.6-.8-.7-1.4-.2-1.3-.2-2h-.6c-.5,0-.8,0-.9.2s-.3.4-.3.7,0,.5.2.7.4.3.7.3v1.6c-.7,0-1.2-.3-1.5-.8s-.4-1-.4-1.8,0-.8.1-1.1.2-.6.4-.8.4-.4.7-.5.7-.2,1.1-.2h4.8v1.6h-.9c.3.3.6.6.7.9s.2.7.2,1.1ZM201,134.9c0-.3,0-.5-.2-.8s-.3-.4-.5-.6h-1.6c0,.8.1,1.3.3,1.7s.5.5,1,.5.6,0,.8-.2.2-.3.2-.6Z"/>
      <path d="M202,130.1h-7v-1.7h1c-.3-.2-.5-.5-.8-.8s-.3-.7-.3-1.2.2-1.1.6-1.4,1-.5,1.7-.5h4.8v1.7h-4.6c-.2,0-.4,0-.6,0s-.3.1-.4.3-.2.3-.2.5,0,.5.2.8.4.4.6.6h4.9v1.7Z"/>
      <path d="M202,120h-9.2v-2.1l5-2.5v.8l-5-2.5v-2h9.2v1.8h-8.3v-.8l5.3,2.6v1.1l-5.3,2.7v-.8h8.3v1.7Z"/>
      <path d="M202.1,107.4c0,.6-.1,1.2-.4,1.6s-.7.8-1.2,1-1.2.4-2,.4-1.4-.1-2-.4-.9-.6-1.2-1-.4-1-.4-1.6.1-1.2.4-1.6.7-.8,1.2-1,1.2-.4,2-.4,1.4.1,2,.4.9.6,1.2,1,.4,1,.4,1.6ZM200.8,107.4c0-.3-.1-.6-.3-.8s-.5-.3-.8-.4-.7-.1-1.2-.1-.8,0-1.2.1-.6.2-.8.4-.3.5-.3.8.1.6.3.8.5.3.8.4.7.1,1.2.1.8,0,1.2-.1.6-.2.8-.4.3-.4.3-.8Z"/>
      <path d="M202.1,101.1c0,.4-.1.8-.4,1.1s-.7.6-1.2.8-1.2.3-2.1.3-1.5-.1-2-.3-.9-.5-1.2-.9-.4-.8-.4-1.2,0-.8.3-1.1.4-.6.8-.7h-3.1v-1.7h9.2v1.6h-1c.3.3.6.6.8.9s.3.7.3,1.1ZM200.8,100.6c0-.3,0-.6-.3-.8s-.4-.4-.7-.6h-2.7c-.3.1-.5.3-.7.5s-.3.5-.3.8.2.7.6.8.9.3,1.7.3,1.4,0,1.8-.3.6-.5.6-.8Z"/>
      <path d="M202.1,93.3c0,.7-.1,1.3-.4,1.7s-.7.8-1.2,1-1.2.3-1.9.3-1.4-.1-1.9-.3-1-.6-1.2-1-.4-1-.4-1.7.3-1.6.9-2.1,1.5-.8,2.6-.8c0,0,.1,0,.2,0s.2,0,.3,0v4.1c.4,0,.7,0,1-.2s.6-.2.7-.4.3-.5.3-.8,0-.5-.2-.6-.3-.3-.6-.4v-1.8c.5,0,.8.2,1.1.5s.5.5.7.9.2.8.2,1.3ZM197.7,94.7v-2.5c-.6,0-1,.1-1.3.3s-.4.5-.4.8.1.7.4.9.7.4,1.3.4Z"/>
    </g>
  </g>
  <g class="st44">
    <g>
      <path class="st67" d="M223,147.7h-7.7v2.1h-1.5v-6.1h1.5v2.1h7.7v1.8Z"/>
      <path class="st67" d="M223.1,141.5c0,.3,0,.7-.2.9s-.4.5-.7.7-.7.3-1.1.3-1.1-.2-1.4-.5-.6-.8-.7-1.4-.2-1.3-.2-2h-.6c-.5,0-.8,0-.9.2s-.3.4-.3.7,0,.5.2.7.4.3.7.3v1.6c-.7,0-1.2-.3-1.5-.8s-.4-1-.4-1.8,0-.8.1-1.1.2-.6.4-.8.4-.4.7-.5.7-.2,1.1-.2h4.8v1.6h-.9c.3.3.6.6.7.9s.2.7.2,1.1ZM222,140.9c0-.3,0-.5-.2-.8s-.3-.4-.5-.6h-1.6c0,.8.1,1.3.3,1.7s.5.5,1,.5.6,0,.8-.2.2-.3.2-.6Z"/>
      <path class="st67" d="M223.1,133.7c0,.3,0,.6,0,1s-.2.6-.3.9-.3.5-.6.6-.6.2-.9.2v-1.6c.3,0,.5-.1.6-.3s.2-.5.2-.8,0-.5-.2-.7-.3-.2-.6-.2-.5,0-.7.3-.3.5-.4,1c-.1.4-.3.8-.4,1.1s-.4.6-.6.8-.6.3-1.1.3-.7,0-.9-.2-.5-.3-.6-.6-.3-.5-.4-.8-.1-.6-.1-.9,0-.6,0-.9.2-.6.3-.8.3-.4.6-.6.5-.2.9-.2v1.6c-.3,0-.5,0-.5.3s-.1.4-.1.6,0,.5.2.6.3.2.6.2.3,0,.4-.2.2-.3.3-.5.2-.5.3-.8c0-.3.2-.7.4-1s.4-.6.7-.7.7-.3,1.1-.3,1,.1,1.3.4.6.6.7,1,.2.8.2,1.2Z"/>
      <path class="st67" d="M223,130.1h-9.2v-1.7h5.4l-3.2-2.2v-1.9l3.2,2.3,3.8-2.4v1.9l-3.7,2.3h3.7v1.7Z"/>
      <path class="st67" d="M223,120h-9.2v-2.1l5-2.5v.8l-5-2.5v-2h9.2v1.8h-8.3v-.8l5.3,2.6v1.1l-5.3,2.7v-.8h8.3v1.7Z"/>
      <path class="st67" d="M223.1,107.4c0,.6-.1,1.2-.4,1.6s-.7.8-1.2,1-1.2.4-2,.4-1.4-.1-2-.4-.9-.6-1.2-1-.4-1-.4-1.6.1-1.2.4-1.6.7-.8,1.2-1,1.2-.4,2-.4,1.4.1,2,.4.9.6,1.2,1,.4,1,.4,1.6ZM221.8,107.4c0-.3-.1-.6-.3-.8s-.5-.3-.8-.4-.7-.1-1.2-.1-.8,0-1.2.1-.6.2-.8.4-.3.5-.3.8.1.6.3.8.5.3.8.4.7.1,1.2.1.8,0,1.2-.1.6-.2.8-.4.3-.4.3-.8Z"/>
      <path class="st67" d="M223.1,101.1c0,.4-.1.8-.4,1.1s-.7.6-1.2.8-1.2.3-2.1.3-1.5-.1-2-.3-.9-.5-1.2-.9-.4-.8-.4-1.2,0-.8.3-1.1.4-.6.8-.7h-3.1v-1.7h9.2v1.6h-1c.3.3.6.6.8.9s.3.7.3,1.1ZM221.8,100.6c0-.3,0-.6-.3-.8s-.4-.4-.7-.6h-2.7c-.3.1-.5.3-.7.5s-.3.5-.3.8.2.7.6.8.9.3,1.7.3,1.4,0,1.8-.3.6-.5.6-.8Z"/>
      <path class="st67" d="M223.1,93.3c0,.7-.1,1.3-.4,1.7s-.7.8-1.2,1-1.2.3-1.9.3-1.4-.1-1.9-.3-1-.6-1.2-1-.4-1-.4-1.7.3-1.6.9-2.1,1.5-.8,2.6-.8c0,0,.1,0,.2,0s.2,0,.3,0v4.1c.4,0,.7,0,1-.2s.6-.2.7-.4.3-.5.3-.8,0-.5-.2-.6-.3-.3-.6-.4v-1.8c.5,0,.8.2,1.1.5s.5.5.7.9.2.8.2,1.3ZM218.7,94.7v-2.5c-.6,0-1,.1-1.3.3s-.4.5-.4.8.1.7.4.9.7.4,1.3.4Z"/>
    </g>
  </g>
  <g class="st45">
    <g>
      <path class="st67" d="M247,149h-9.2v-5.3h1.5v3.5h2.3v-3.2h1.4v3.2h4v1.8Z"/>
      <path class="st67" d="M247.1,140.3c0,.6-.2,1-.6,1.3s-1,.5-1.7.5h-4.8v-1.7h4.6c.2,0,.4,0,.6,0s.3-.1.4-.3.2-.3.2-.5c0-.3,0-.5-.2-.8s-.3-.4-.5-.6h-5v-1.7h7v1.7h-1c.3.2.5.5.8.8s.3.8.3,1.3Z"/>
      <path class="st67" d="M247,135.1h-7v-1.7h1c-.3-.2-.5-.5-.8-.8s-.3-.7-.3-1.2.2-1.1.6-1.4,1-.5,1.7-.5h4.8v1.7h-4.6c-.2,0-.4,0-.6,0s-.3.1-.4.3-.2.3-.2.5,0,.5.2.8.4.4.6.6h4.9v1.7Z"/>
      <path class="st67" d="M247,128.1h-7v-1.7h1c-.3-.2-.5-.5-.8-.8s-.3-.7-.3-1.2.2-1.1.6-1.4,1-.5,1.7-.5h4.8v1.7h-4.6c-.2,0-.4,0-.6,0s-.3.1-.4.3-.2.3-.2.5,0,.5.2.8.4.4.6.6h4.9v1.7Z"/>
      <path class="st67" d="M247.1,118.3c0,.7-.1,1.3-.4,1.7s-.7.8-1.2,1-1.2.3-1.9.3-1.4-.1-1.9-.3-1-.6-1.2-1-.4-1-.4-1.7.3-1.6.9-2.1,1.5-.8,2.6-.8c0,0,.1,0,.2,0s.2,0,.3,0v4.1c.4,0,.7,0,1-.2s.6-.2.7-.4.3-.5.3-.8,0-.5-.2-.6-.3-.3-.6-.4v-1.8c.5,0,.8.2,1.1.5s.5.5.7.9.2.8.2,1.3ZM242.7,119.7v-2.5c-.6,0-1,.1-1.3.3s-.4.5-.4.8.1.7.4.9.7.4,1.3.4Z"/>
      <path class="st67" d="M247,111.8c0,.6,0,1.1-.2,1.4s-.4.6-.7.7-.7.2-1.2.2h-7v-1.7h6.9c.3,0,.6,0,.7-.1s.2-.3.2-.6v-.4h1.3v.4Z"/>
      <path class="st67" d="M247,107h-9.2v-2.1l5-2.5v.8l-5-2.5v-2h9.2v1.8h-8.3v-.8l5.3,2.6v1.1l-5.3,2.7v-.8h8.3v1.7Z"/>
      <path class="st67" d="M247.1,94.4c0,.6-.1,1.2-.4,1.6s-.7.8-1.2,1-1.2.4-2,.4-1.4-.1-2-.4-.9-.6-1.2-1-.4-1-.4-1.6.1-1.2.4-1.6.7-.8,1.2-1,1.2-.4,2-.4,1.4.1,2,.4.9.6,1.2,1,.4,1,.4,1.6ZM245.8,94.4c0-.3-.1-.6-.3-.8s-.5-.3-.8-.4-.7-.1-1.2-.1-.8,0-1.2.1-.6.2-.8.4-.3.5-.3.8.1.6.3.8.5.3.8.4.7.1,1.2.1.8,0,1.2-.1.6-.2.8-.4.3-.4.3-.8Z"/>
      <path class="st67" d="M247.1,88.1c0,.4-.1.8-.4,1.1s-.7.6-1.2.8-1.2.3-2.1.3-1.5-.1-2-.3-.9-.5-1.2-.9-.4-.8-.4-1.2,0-.8.3-1.1.4-.6.8-.7h-3.1v-1.7h9.2v1.6h-1c.3.3.6.6.8.9s.3.7.3,1.1ZM245.8,87.6c0-.3,0-.6-.3-.8s-.4-.4-.7-.6h-2.7c-.3.1-.5.3-.7.5s-.3.5-.3.8.2.7.6.8.9.3,1.7.3,1.4,0,1.8-.3.6-.5.6-.8Z"/>
      <path class="st67" d="M247.1,80.3c0,.7-.1,1.3-.4,1.7s-.7.8-1.2,1-1.2.3-1.9.3-1.4-.1-1.9-.3-1-.6-1.2-1-.4-1-.4-1.7.3-1.6.9-2.1,1.5-.8,2.6-.8c0,0,.1,0,.2,0s.2,0,.3,0v4.1c.4,0,.7,0,1-.2s.6-.2.7-.4.3-.5.3-.8,0-.5-.2-.6-.3-.3-.6-.4v-1.8c.5,0,.8.2,1.1.5s.5.5.7.9.2.8.2,1.3ZM242.7,81.6v-2.5c-.6,0-1,.1-1.3.3s-.4.5-.4.8.1.7.4.9.7.4,1.3.4Z"/>
    </g>
  </g>
  <g class="st38">
    <g>
      <path class="st67" d="M270.1,146.2c0,.6,0,1.2-.3,1.7-.2.5-.5.9-.9,1.2-.4.3-1,.4-1.6.4v-1.9c.3,0,.6,0,.8-.2.2-.1.3-.3.4-.5,0-.2.1-.5.1-.7s0-.5-.1-.7c0-.2-.2-.4-.4-.5-.2-.1-.4-.2-.6-.2s-.5,0-.7.2-.3.3-.5.5c-.1.3-.3.6-.4,1.1-.2.5-.4,1-.6,1.4-.2.4-.5.7-.9,1-.3.2-.8.3-1.3.3s-1-.1-1.4-.4c-.4-.3-.6-.6-.8-1.1s-.3-1-.3-1.6,0-1.1.3-1.6c.2-.5.5-.8.8-1.1s.8-.4,1.4-.4v1.9c-.4,0-.7.1-.9.4-.2.2-.3.5-.3.9s0,.6.2.8.4.3.7.3.4,0,.6-.2c.2-.1.3-.3.4-.6.1-.3.3-.6.5-1.1.2-.6.4-1.1.6-1.5.2-.4.5-.7.9-.9.4-.2.8-.3,1.4-.3s1.1.1,1.5.4c.4.3.7.6.9,1.1.2.5.3,1,.3,1.7Z"/>
      <path class="st67" d="M272.4,141.3h-1.4v-.5c0-.2,0-.4-.2-.6s-.3-.2-.5-.3h-.4c0-.1-7,2.1-7,2.1v-1.8l5.4-1.4-5.4-1.3v-1.7l7,2.1.5.2c.5.2.9.4,1.2.6.3.2.5.5.6.8.1.3.2.7.2,1.1v.7Z"/>
      <path class="st67" d="M270,135.1h-7v-1.7h1c-.3-.2-.5-.5-.8-.8s-.3-.7-.3-1.2.2-1.1.6-1.4,1-.5,1.7-.5h4.8v1.7h-4.6c-.2,0-.4,0-.6,0-.2,0-.3.1-.4.3s-.2.3-.2.5,0,.5.2.8.4.4.6.6h4.9v1.7Z"/>
      <path class="st67" d="M270.1,125.4c0,.6-.1,1.1-.4,1.5-.3.4-.6.8-1.2,1.1s-1.2.4-2,.4-1.5-.1-2-.4-.9-.6-1.2-1c-.3-.4-.4-1-.4-1.6s0-.9.2-1.3c.2-.4.4-.7.7-1s.7-.4,1.2-.4v1.7c-.3,0-.5.1-.7.3s-.2.4-.2.7.2.8.6,1,1,.3,1.7.3.9,0,1.2-.1c.3,0,.6-.2.8-.4s.3-.4.3-.7,0-.6-.3-.8-.4-.3-.8-.3v-1.7c.8,0,1.4.3,1.8.8.4.5.6,1.2.6,1.9Z"/>
      <path class="st67" d="M270,118h-9.2v-2.1l5-2.5v.8l-5-2.5v-2h9.2v1.8h-8.3v-.8l5.3,2.6v1.1l-5.3,2.7v-.8h8.3v1.7Z"/>
      <path class="st67" d="M270.1,105.4c0,.6-.1,1.2-.4,1.6-.3.4-.7.8-1.2,1-.5.2-1.2.4-2,.4s-1.4-.1-2-.4-.9-.6-1.2-1c-.3-.4-.4-1-.4-1.6s.1-1.2.4-1.6c.3-.4.7-.8,1.2-1s1.2-.4,2-.4,1.4.1,2,.4c.5.2.9.6,1.2,1,.3.4.4,1,.4,1.6ZM268.8,105.4c0-.3-.1-.6-.3-.8-.2-.2-.5-.3-.8-.4-.3,0-.7-.1-1.2-.1s-.8,0-1.2.1c-.3,0-.6.2-.8.4-.2.2-.3.5-.3.8s.1.6.3.8c.2.2.5.3.8.4s.7.1,1.2.1.8,0,1.2-.1c.3,0,.6-.2.8-.4s.3-.4.3-.8Z"/>
      <path class="st67" d="M270.1,99.1c0,.4-.1.8-.4,1.1s-.7.6-1.2.8-1.2.3-2.1.3-1.5-.1-2-.3-.9-.5-1.2-.9c-.2-.4-.4-.8-.4-1.2s0-.8.3-1.1.4-.6.8-.7h-3.1v-1.7h9.2v1.6h-1c.3.3.6.6.8.9.2.3.3.7.3,1.1ZM268.8,98.5c0-.3,0-.6-.3-.8-.2-.2-.4-.4-.7-.6h-2.7c-.3.1-.5.3-.7.5s-.3.5-.3.8.2.7.6.8.9.3,1.7.3,1.4,0,1.8-.3.6-.5.6-.8Z"/>
      <path class="st67" d="M270.1,91.3c0,.7-.1,1.3-.4,1.7-.3.5-.7.8-1.2,1-.5.2-1.2.3-1.9.3s-1.4-.1-1.9-.3-1-.6-1.2-1c-.3-.4-.4-1-.4-1.7s.3-1.6.9-2.1c.6-.5,1.5-.8,2.6-.8,0,0,.1,0,.2,0,.1,0,.2,0,.3,0v4.1c.4,0,.7,0,1-.2.3,0,.6-.2.7-.4s.3-.5.3-.8,0-.5-.2-.6-.3-.3-.6-.4v-1.8c.5,0,.8.2,1.1.5s.5.5.7.9.2.8.2,1.3ZM265.7,92.6v-2.5c-.6,0-1,.1-1.3.3-.3.2-.4.5-.4.8s.1.7.4.9.7.4,1.3.4Z"/>
    </g>
  </g>
  <g class="st36">
    <g>
      <path d="M25.9,164v-7.9h2.6c.8,0,1.4.2,2,.5s.9.8,1.2,1.4.4,1.3.4,2.1-.1,1.5-.4,2.1-.7,1-1.2,1.4-1.2.5-1.9.5h-2.6ZM27.4,162.7h.9c.4,0,.8,0,1.1-.3s.5-.5.7-.9.2-.9.2-1.5,0-1.1-.3-1.5-.4-.7-.7-.9-.7-.3-1.1-.3h-.9v5.3Z"/>
      <path d="M34.5,157.4c-.3,0-.5,0-.6-.2s-.2-.3-.2-.5,0-.4.2-.5.3-.2.6-.2.5,0,.6.2.2.3.2.5,0,.4-.2.5-.3.2-.6.2ZM33.8,164v-6h1.5v6h-1.5Z"/>
      <path d="M36.8,164v-6h1.4v1c.2-.3.3-.6.6-.8s.6-.3.9-.3h.1v1.2h-.1c-.2,0-.4,0-.6,0s-.4.1-.5.2-.3.2-.4.4v4.2h-1.5Z"/>
      <path d="M43.2,164.1c-.6,0-1.1-.1-1.5-.4s-.7-.6-.9-1.1-.3-1-.3-1.7,0-1.2.3-1.7.5-.8.9-1.1.9-.4,1.4-.4,1.4.3,1.8.8.7,1.2.7,2.2c0,0,0,.1,0,.2s0,.2,0,.2h-3.6c0,.3,0,.6.1.9s.2.5.4.6.4.2.7.2.4,0,.5-.2.2-.3.3-.5h1.5c0,.4-.2.7-.4,1s-.5.4-.8.6-.7.2-1.2.2ZM42,160.3h2.1c0-.5-.1-.9-.3-1.1s-.4-.4-.7-.4-.6.1-.8.4-.3.6-.3,1.1Z"/>
      <path d="M49.1,164.1c-.5,0-.9-.1-1.3-.3s-.7-.6-.9-1-.3-1-.3-1.8.1-1.3.3-1.7.5-.8.9-1,.8-.3,1.4-.3.8,0,1.1.2.6.3.8.6.3.6.4,1.1h-1.4c0-.2-.1-.4-.3-.6s-.4-.2-.6-.2-.7.2-.8.5-.2.8-.2,1.4,0,.7.1,1,.2.5.3.7.4.2.6.2.5,0,.7-.2.2-.4.3-.7h1.4c0,.7-.3,1.2-.7,1.5s-1,.5-1.6.5Z"/>
      <path d="M55,164c-.5,0-.9,0-1.2-.2s-.5-.3-.6-.6-.2-.7-.2-1.1v-2.9h-.8v-1.1h.8v-1.3h1.5v1.3h1.1v1.1h-1.1v2.9c0,.3,0,.5.1.7s.2.2.5.2h.5v1.1h-.5Z"/>
      <path d="M58.9,164v-7.9h1.6v7.9h-1.6Z"/>
      <path d="M61.8,164v-6h1.4v.9c.2-.2.4-.5.7-.7s.6-.3,1.1-.3.9.2,1.2.5.4.8.4,1.5v4.1h-1.5v-3.9c0-.2,0-.3,0-.5s-.1-.3-.2-.4-.2-.1-.4-.1-.5,0-.7.2-.4.3-.5.5v4.2h-1.5Z"/>
      <path d="M69.8,164.1c-.3,0-.5,0-.8,0s-.5-.1-.7-.3-.4-.3-.5-.5-.2-.5-.2-.8h1.4c0,.3.1.4.3.5s.4.1.7.1.4,0,.6-.2.2-.3.2-.5,0-.5-.3-.6-.5-.3-.9-.4c-.3,0-.7-.2-.9-.4s-.5-.3-.7-.6-.2-.5-.2-.9,0-.6.2-.8.3-.4.5-.5.4-.2.7-.3.5,0,.8,0,.5,0,.7,0,.5.1.7.3.4.3.5.5.2.5.2.8h-1.4c0-.2,0-.4-.2-.5s-.3-.1-.5-.1-.4,0-.5.1-.2.3-.2.5,0,.2.1.3.2.2.4.2.4.1.7.2c.3,0,.6.2.8.3s.5.3.6.6.2.6.2,1-.1.8-.3,1.1-.5.5-.8.6-.7.2-1.1.2Z"/>
      <path d="M76,164c-.5,0-.9,0-1.2-.2s-.5-.3-.6-.6-.2-.7-.2-1.1v-2.9h-.8v-1.1h.8v-1.3h1.5v1.3h1.1v1.1h-1.1v2.9c0,.3,0,.5.1.7s.2.2.5.2h.5v1.1h-.5Z"/>
      <path d="M77.8,164v-6h1.4v1c.2-.3.3-.6.6-.8s.6-.3.9-.3h.1v1.2h-.1c-.2,0-.4,0-.6,0s-.4.1-.5.2-.3.2-.4.4v4.2h-1.5Z"/>
      <path d="M83.3,164.1c-.5,0-.9-.2-1.1-.5s-.4-.8-.4-1.4v-4.1h1.5v3.9c0,.2,0,.3,0,.5s.1.3.2.4.2.1.4.1c.2,0,.5,0,.7-.2s.4-.3.5-.5v-4.3h1.5v6h-1.4v-.9c-.2.2-.4.5-.7.7s-.7.3-1.1.3Z"/>
      <path d="M90.1,164.1c-.5,0-.9-.1-1.3-.3s-.7-.6-.9-1-.3-1-.3-1.8.1-1.3.3-1.7.5-.8.9-1,.8-.3,1.4-.3.8,0,1.1.2.6.3.8.6.3.6.4,1.1h-1.4c0-.2-.1-.4-.3-.6s-.4-.2-.6-.2-.7.2-.8.5-.2.8-.2,1.4,0,.7.1,1,.2.5.3.7.4.2.6.2.5,0,.7-.2.2-.4.3-.7h1.4c0,.7-.3,1.2-.7,1.5s-1,.5-1.6.5Z"/>
      <path d="M96,164c-.5,0-.9,0-1.2-.2s-.5-.3-.6-.6-.2-.7-.2-1.1v-2.9h-.8v-1.1h.8v-1.3h1.5v1.3h1.1v1.1h-1.1v2.9c0,.3,0,.5.1.7s.2.2.5.2h.5v1.1h-.5Z"/>
      <path d="M98.5,157.4c-.3,0-.5,0-.6-.2s-.2-.3-.2-.5,0-.4.2-.5.3-.2.6-.2.5,0,.6.2.2.3.2.5,0,.4-.2.5-.3.2-.6.2ZM97.8,164v-6h1.5v6h-1.5Z"/>
      <path d="M103.1,164.1c-.6,0-1-.1-1.4-.4s-.7-.6-.9-1-.3-1-.3-1.7.1-1.2.3-1.7.5-.8.9-1.1.9-.4,1.4-.4,1,.1,1.4.4.7.6.9,1.1.3,1,.3,1.7-.1,1.2-.3,1.7-.5.8-.9,1-.9.4-1.4.4ZM103.1,163c.3,0,.5,0,.7-.3s.3-.4.3-.7,0-.6,0-1,0-.7,0-1-.2-.5-.3-.7-.4-.3-.7-.3-.5,0-.7.3-.3.4-.3.7,0,.6,0,1,0,.7,0,1,.2.5.3.7.4.3.7.3Z"/>
      <path d="M106.8,164v-6h1.4v.9c.2-.2.4-.5.7-.7s.6-.3,1.1-.3.9.2,1.2.5.4.8.4,1.5v4.1h-1.5v-3.9c0-.2,0-.3,0-.5s-.1-.3-.2-.4-.2-.1-.4-.1-.5,0-.7.2-.4.3-.5.5v4.2h-1.5Z"/>
    </g>
  </g>
  <g class="st39">
    <g>
      <path d="M25.9,179v-7.9h2.6c.8,0,1.4.2,2,.5s.9.8,1.2,1.4.4,1.3.4,2.1-.1,1.5-.4,2.1-.7,1-1.2,1.4-1.2.5-1.9.5h-2.6ZM27.4,177.7h.9c.4,0,.8,0,1.1-.3s.5-.5.7-.9.2-.9.2-1.5,0-1.1-.3-1.5-.4-.7-.7-.9-.7-.3-1.1-.3h-.9v5.3Z"/>
      <path d="M36.1,179.1c-.6,0-1.1-.1-1.5-.4s-.7-.6-.9-1.1-.3-1-.3-1.7,0-1.2.3-1.7.5-.8.9-1.1.9-.4,1.4-.4,1.4.3,1.8.8.7,1.2.7,2.2c0,0,0,.1,0,.2s0,.2,0,.2h-3.6c0,.3,0,.6.1.9s.2.5.4.6.4.2.7.2.4,0,.5-.2.2-.3.3-.5h1.5c0,.4-.2.7-.4,1s-.5.4-.8.6-.7.2-1.2.2ZM35,175.3h2.1c0-.5-.1-.9-.3-1.1s-.4-.4-.7-.4-.6.1-.8.4-.3.6-.3,1.1Z"/>
      <path d="M40,179v-4.9h-.8v-1.1h.8c0-.4,0-.7,0-.9s.2-.4.3-.6.3-.3.6-.4.6-.1,1-.1h.5v1h-.5c-.2,0-.4,0-.5.2s-.1.3-.1.6h0c0,.1,1.1.1,1.1.1v1.1h-1.1v4.9h-1.5Z"/>
      <path d="M46.1,179.1c-.6,0-1.1-.1-1.5-.4s-.7-.6-.9-1.1-.3-1-.3-1.7,0-1.2.3-1.7.5-.8.9-1.1.9-.4,1.4-.4,1.4.3,1.8.8.7,1.2.7,2.2c0,0,0,.1,0,.2s0,.2,0,.2h-3.6c0,.3,0,.6.1.9s.2.5.4.6.4.2.7.2.4,0,.5-.2.2-.3.3-.5h1.5c0,.4-.2.7-.4,1s-.5.4-.8.6-.7.2-1.2.2ZM45,175.3h2.1c0-.5-.1-.9-.3-1.1s-.4-.4-.7-.4-.6.1-.8.4-.3.6-.3,1.1Z"/>
      <path d="M49.8,179v-6h1.4v1c.2-.3.3-.6.6-.8s.6-.3.9-.3h.1v1.2h-.1c-.2,0-.4,0-.6,0s-.4.1-.5.2-.3.2-.4.4v4.2h-1.5Z"/>
      <path d="M53.8,179v-6h1.4v1c.2-.3.3-.6.6-.8s.6-.3.9-.3h.1v1.2h-.1c-.2,0-.4,0-.6,0s-.4.1-.5.2-.3.2-.4.4v4.2h-1.5Z"/>
      <path d="M60.1,179.1c-.6,0-1.1-.1-1.5-.4s-.7-.6-.9-1.1-.3-1-.3-1.7,0-1.2.3-1.7.5-.8.9-1.1.9-.4,1.4-.4,1.4.3,1.8.8.7,1.2.7,2.2c0,0,0,.1,0,.2s0,.2,0,.2h-3.6c0,.3,0,.6.1.9s.2.5.4.6.4.2.7.2.4,0,.5-.2.2-.3.3-.5h1.5c0,.4-.2.7-.4,1s-.5.4-.8.6-.7.2-1.2.2ZM59,175.3h2.1c0-.5-.1-.9-.3-1.1s-.4-.4-.7-.4-.6.1-.8.4-.3.6-.3,1.1Z"/>
      <path d="M65.4,179.1c-.4,0-.7-.1-1-.3s-.5-.6-.7-1-.3-1.1-.3-1.8,0-1.3.3-1.8.4-.8.7-1,.6-.3,1-.3.7,0,.9.2.5.4.6.7v-2.7h1.5v7.9h-1.4v-.8c-.3.3-.5.5-.8.7s-.6.2-1,.2ZM65.9,178c.3,0,.5,0,.7-.2s.4-.3.5-.6v-2.3c-.1-.3-.2-.5-.4-.6s-.4-.3-.7-.3-.6.2-.7.5-.3.8-.3,1.5,0,1.2.2,1.5.4.5.7.5Z"/>
      <path d="M71.9,179v-7.9h4.7v1.3h-3.1v2h2.8v1.2h-2.8v2.2h3.1v1.3h-4.7Z"/>
      <path d="M77,179l2-3.4.6-.4,1-2.2h1.6l-1.8,3.2-.6.4-1.2,2.4h-1.6ZM80.8,179l-1.2-2.4-.5-.4-1.8-3.2h1.6l1,2.2.6.4,2,3.4h-1.6Z"/>
      <path d="M85.2,179.1c-.6,0-1.1-.1-1.5-.4s-.7-.6-.9-1.1-.3-1-.3-1.7,0-1.2.3-1.7.5-.8.9-1.1.9-.4,1.4-.4,1.4.3,1.8.8.7,1.2.7,2.2c0,0,0,.1,0,.2s0,.2,0,.2h-3.6c0,.3,0,.6.1.9s.2.5.4.6.4.2.7.2.4,0,.5-.2.2-.3.3-.5h1.5c0,.4-.2.7-.4,1s-.5.4-.8.6-.7.2-1.2.2ZM84,175.3h2.1c0-.5-.1-.9-.3-1.1s-.4-.4-.7-.4-.6.1-.8.4-.3.6-.3,1.1Z"/>
      <path d="M91.1,179.1c-.5,0-.9-.1-1.3-.3s-.7-.6-.9-1-.3-1-.3-1.8.1-1.3.3-1.7.5-.8.9-1,.8-.3,1.4-.3.8,0,1.1.2.6.3.8.6.3.6.4,1.1h-1.4c0-.2-.1-.4-.3-.6s-.4-.2-.6-.2-.7.2-.8.5-.2.8-.2,1.4,0,.7.1,1,.2.5.3.7.4.2.6.2.5,0,.7-.2.2-.4.3-.7h1.4c0,.7-.3,1.2-.7,1.5s-1,.5-1.6.5Z"/>
      <path d="M96.3,179.1c-.5,0-.9-.2-1.1-.5s-.4-.8-.4-1.4v-4.1h1.5v3.9c0,.2,0,.3,0,.5s.1.3.2.4.2.1.4.1c.2,0,.5,0,.7-.2s.4-.3.5-.5v-4.3h1.5v6h-1.4v-.9c-.2.2-.4.5-.7.7s-.7.3-1.1.3Z"/>
      <path d="M103,179c-.5,0-.9,0-1.2-.2s-.5-.3-.6-.6-.2-.7-.2-1.1v-2.9h-.8v-1.1h.8v-1.3h1.5v1.3h1.1v1.1h-1.1v2.9c0,.3,0,.5.1.7s.2.2.5.2h.5v1.1h-.5Z"/>
      <path d="M105.5,172.4c-.3,0-.5,0-.6-.2s-.2-.3-.2-.5,0-.4.2-.5.3-.2.6-.2.5,0,.6.2.2.3.2.5,0,.4-.2.5-.3.2-.6.2ZM104.8,179v-6h1.5v6h-1.5Z"/>
      <path d="M110.1,179.1c-.6,0-1-.1-1.4-.4s-.7-.6-.9-1-.3-1-.3-1.7.1-1.2.3-1.7.5-.8.9-1.1.9-.4,1.4-.4,1,.1,1.4.4.7.6.9,1.1.3,1,.3,1.7-.1,1.2-.3,1.7-.5.8-.9,1-.9.4-1.4.4ZM110.1,178c.3,0,.5,0,.7-.3s.3-.4.3-.7,0-.6,0-1,0-.7,0-1-.2-.5-.3-.7-.4-.3-.7-.3-.5,0-.7.3-.3.4-.3.7,0,.6,0,1,0,.7,0,1,.2.5.3.7.4.3.7.3Z"/>
      <path d="M113.8,179v-6h1.4v.9c.2-.2.4-.5.7-.7s.6-.3,1.1-.3.9.2,1.2.5.4.8.4,1.5v4.1h-1.5v-3.9c0-.2,0-.3,0-.5s-.1-.3-.2-.4-.2-.1-.4-.1-.5,0-.7.2-.4.3-.5.5v4.2h-1.5Z"/>
    </g>
  </g>
  <g class="st37">
    <g>
      <path d="M25.9,194v-7.9h2.7c.5,0,.9,0,1.3.3s.7.5.9.8.3.8.3,1.4-.1,1-.3,1.4-.5.6-.9.8-.8.3-1.3.3h-1.2v2.9h-1.6ZM27.4,189.9h1c.3,0,.6-.1.8-.3s.3-.5.3-.9-.1-.8-.3-1-.5-.3-.8-.3h-1v2.5Z"/>
      <path d="M34.7,194c-.5,0-.9,0-1.2-.2s-.5-.3-.6-.6-.2-.6-.2-1.1v-6h1.5v5.9c0,.3,0,.5.1.6s.2.2.5.2h.3v1.1h-.4Z"/>
      <path d="M37.1,194.1c-.3,0-.6,0-.8-.2s-.4-.3-.6-.6-.2-.6-.2-1,.1-.9.4-1.2.7-.5,1.2-.6,1.1-.2,1.7-.2v-.5c0-.4,0-.7-.2-.8s-.3-.2-.6-.2-.4,0-.6.2-.2.3-.2.6h-1.4c0-.6.3-1,.7-1.3s.9-.4,1.5-.4.6,0,.9,0,.5.2.7.3.3.4.4.6.2.6.2,1v4.1h-1.4v-.7c-.3.3-.5.5-.8.6s-.6.2-1,.2ZM37.7,193.1c.2,0,.4,0,.6-.2s.4-.3.5-.5v-1.3c-.7,0-1.1,0-1.4.3s-.4.5-.4.9,0,.5.2.6.3.2.5.2Z"/>
      <path d="M41.8,194v-6h1.4v.9c.2-.2.4-.5.7-.7s.6-.3,1.1-.3.9.2,1.2.5.4.8.4,1.5v4.1h-1.5v-3.9c0-.2,0-.3,0-.5s-.1-.3-.2-.4-.2-.1-.4-.1-.5,0-.7.2-.4.3-.5.5v4.2h-1.5Z"/>
      <path d="M49.9,194v-7.9h2.9c.5,0,.9,0,1.2.2s.6.4.8.7.3.7.3,1.3-.1.9-.3,1.3-.6.6-1.1.7c.3,0,.6.2.7.3s.3.4.4.6.2.6.3.9l.5,1.9h-1.6l-.3-1.6c0-.3-.1-.6-.2-.8s-.2-.4-.4-.5-.4-.2-.7-.2h-1v3.1h-1.6ZM51.4,189.6h1.1c.2,0,.4,0,.6-.1s.3-.2.4-.4.1-.4.1-.6c0-.4,0-.6-.3-.8s-.4-.3-.8-.3h-1.1v2.3Z"/>
      <path d="M59.1,194.1c-.6,0-1.1-.1-1.5-.4s-.7-.6-.9-1.1-.3-1-.3-1.7,0-1.2.3-1.7.5-.8.9-1.1.9-.4,1.4-.4,1.4.3,1.8.8.7,1.2.7,2.2c0,0,0,.1,0,.2s0,.2,0,.2h-3.6c0,.3,0,.6.1.9s.2.5.4.6.4.2.7.2.4,0,.5-.2.2-.3.3-.5h1.5c0,.4-.2.7-.4,1s-.5.4-.8.6-.7.2-1.2.2ZM58,190.3h2.1c0-.5-.1-.9-.3-1.1s-.4-.4-.7-.4-.6.1-.8.4-.3.6-.3,1.1Z"/>
      <path d="M63,194v-4.9h-.8v-1.1h.8c0-.4,0-.7,0-.9s.2-.4.3-.6.3-.3.6-.4.6-.1,1-.1h.5v1h-.5c-.2,0-.4,0-.5.2s-.1.3-.1.6h0c0,.1,1.1.1,1.1.1v1.1h-1.1v4.9h-1.5ZM67.2,187.4c-.3,0-.5,0-.6-.2s-.2-.3-.2-.5,0-.4.2-.5.3-.2.6-.2.5,0,.6.2.2.3.2.5,0,.4-.2.5-.3.2-.6.2ZM66.4,194v-6h1.5v6h-1.5Z"/>
      <path d="M69.4,194v-6h1.4v.9c.2-.2.4-.5.7-.7s.6-.3,1.1-.3.9.2,1.2.5.4.8.4,1.5v4.1h-1.5v-3.9c0-.2,0-.3,0-.5s-.1-.3-.2-.4-.2-.1-.4-.1-.5,0-.7.2-.4.3-.5.5v4.2h-1.5Z"/>
      <path d="M77.8,194.1c-.6,0-1.1-.1-1.5-.4s-.7-.6-.9-1.1-.3-1-.3-1.7,0-1.2.3-1.7.5-.8.9-1.1.9-.4,1.4-.4,1.4.3,1.8.8.7,1.2.7,2.2c0,0,0,.1,0,.2s0,.2,0,.2h-3.6c0,.3,0,.6.1.9s.2.5.4.6.4.2.7.2.4,0,.5-.2.2-.3.3-.5h1.5c0,.4-.2.7-.4,1s-.5.4-.8.6-.7.2-1.2.2ZM76.6,190.3h2.1c0-.5-.1-.9-.3-1.1s-.4-.4-.7-.4-.6.1-.8.4-.3.6-.3,1.1Z"/>
      <path d="M81.4,194v-6h1.4v.9c.2-.2.4-.5.7-.7s.7-.3,1.1-.3.9.2,1.1.5.4.8.4,1.4v4.2h-1.5v-3.9c0-.2,0-.4,0-.5s-.1-.3-.2-.4-.2-.1-.4-.1-.5,0-.7.2-.4.3-.5.5v4.3h-1.5ZM88.1,194v-3.9c0-.2,0-.4,0-.5s-.1-.3-.2-.4-.2-.1-.4-.1-.4,0-.6.2-.4.3-.5.4l-.2-.8c.2-.3.5-.5.8-.7s.7-.3,1.1-.3.9.2,1.1.5.4.8.4,1.5v4.1h-1.5Z"/>
      <path d="M93.8,194.1c-.6,0-1.1-.1-1.5-.4s-.7-.6-.9-1.1-.3-1-.3-1.7,0-1.2.3-1.7.5-.8.9-1.1.9-.4,1.4-.4,1.4.3,1.8.8.7,1.2.7,2.2c0,0,0,.1,0,.2s0,.2,0,.2h-3.6c0,.3,0,.6.1.9s.2.5.4.6.4.2.7.2.4,0,.5-.2.2-.3.3-.5h1.5c0,.4-.2.7-.4,1s-.5.4-.8.6-.7.2-1.2.2ZM92.6,190.3h2.1c0-.5-.1-.9-.3-1.1s-.4-.4-.7-.4-.6.1-.8.4-.3.6-.3,1.1Z"/>
      <path d="M97.4,194v-6h1.4v.9c.2-.2.4-.5.7-.7s.6-.3,1.1-.3.9.2,1.2.5.4.8.4,1.5v4.1h-1.5v-3.9c0-.2,0-.3,0-.5s-.1-.3-.2-.4-.2-.1-.4-.1-.5,0-.7.2-.4.3-.5.5v4.2h-1.5Z"/>
      <path d="M105.6,194c-.5,0-.9,0-1.2-.2s-.5-.3-.6-.6-.2-.7-.2-1.1v-2.9h-.8v-1.1h.8v-1.3h1.5v1.3h1.1v1.1h-1.1v2.9c0,.3,0,.5.1.7s.2.2.5.2h.5v1.1h-.5Z"/>
    </g>
  </g>
  <g class="st32">
    <g>
      <path class="st67" d="M25.9,209v-7.9h2.7c.5,0,.9,0,1.3.3s.7.5.9.8.3.8.3,1.4-.1,1-.3,1.4-.5.6-.9.8-.8.3-1.3.3h-1.2v2.9h-1.6ZM27.4,204.9h1c.3,0,.6-.1.8-.3s.3-.5.3-.9-.1-.8-.3-1-.5-.3-.8-.3h-1v2.5Z"/>
      <path class="st67" d="M34.1,209.1c-.3,0-.6,0-.8-.2s-.4-.3-.6-.6-.2-.6-.2-1,.1-.9.4-1.2.7-.5,1.2-.6,1.1-.2,1.7-.2v-.5c0-.4,0-.7-.2-.8s-.3-.2-.6-.2-.4,0-.6.2-.2.3-.2.6h-1.4c0-.6.3-1,.7-1.3s.9-.4,1.5-.4.6,0,.9,0,.5.2.7.3.3.4.4.6.2.6.2,1v4.1h-1.4v-.7c-.3.3-.5.5-.8.6s-.6.2-1,.2ZM34.7,208.1c.2,0,.4,0,.6-.2s.4-.3.5-.5v-1.3c-.7,0-1.1,0-1.4.3s-.4.5-.4.9,0,.5.2.6.3.2.5.2Z"/>
      <path class="st67" d="M38.8,209v-6h1.4v1c.2-.3.3-.6.6-.8s.6-.3.9-.3h.1v1.2h-.1c-.2,0-.4,0-.6,0s-.4.1-.5.2-.3.2-.4.4v4.2h-1.5Z"/>
      <path class="st67" d="M44.1,209.1c-.3,0-.6,0-.8-.2s-.4-.3-.6-.6-.2-.6-.2-1,.1-.9.4-1.2.7-.5,1.2-.6,1.1-.2,1.7-.2v-.5c0-.4,0-.7-.2-.8s-.3-.2-.6-.2-.4,0-.6.2-.2.3-.2.6h-1.4c0-.6.3-1,.7-1.3s.9-.4,1.5-.4.6,0,.9,0,.5.2.7.3.3.4.4.6.2.6.2,1v4.1h-1.4v-.7c-.3.3-.5.5-.8.6s-.6.2-1,.2ZM44.7,208.1c.2,0,.4,0,.6-.2s.4-.3.5-.5v-1.3c-.7,0-1.1,0-1.4.3s-.4.5-.4.9,0,.5.2.6.3.2.5.2Z"/>
      <path class="st67" d="M50.7,209c-.5,0-.9,0-1.2-.2s-.5-.3-.6-.6-.2-.6-.2-1.1v-6h1.5v5.9c0,.3,0,.5.1.6s.2.2.5.2h.3v1.1h-.4Z"/>
      <path class="st67" d="M53.7,209c-.5,0-.9,0-1.2-.2s-.5-.3-.6-.6-.2-.6-.2-1.1v-6h1.5v5.9c0,.3,0,.5.1.6s.2.2.5.2h.3v1.1h-.4Z"/>
      <path class="st67" d="M57.2,209.1c-.6,0-1.1-.1-1.5-.4s-.7-.6-.9-1.1-.3-1-.3-1.7,0-1.2.3-1.7.5-.8.9-1.1.9-.4,1.4-.4,1.4.3,1.8.8.7,1.2.7,2.2c0,0,0,.1,0,.2s0,.2,0,.2h-3.6c0,.3,0,.6.1.9s.2.5.4.6.4.2.7.2.4,0,.5-.2.2-.3.3-.5h1.5c0,.4-.2.7-.4,1s-.5.4-.8.6-.7.2-1.2.2ZM56,205.3h2.1c0-.5-.1-.9-.3-1.1s-.4-.4-.7-.4-.6.1-.8.4-.3.6-.3,1.1Z"/>
      <path class="st67" d="M62.7,209c-.5,0-.9,0-1.2-.2s-.5-.3-.6-.6-.2-.6-.2-1.1v-6h1.5v5.9c0,.3,0,.5.1.6s.2.2.5.2h.3v1.1h-.4Z"/>
      <path class="st67" d="M65.9,209v-7.9h2.7c.5,0,.9,0,1.3.3s.7.5.9.8.3.8.3,1.4-.1,1-.3,1.4-.5.6-.9.8-.8.3-1.3.3h-1.2v2.9h-1.6ZM67.4,204.9h1c.3,0,.6-.1.8-.3s.3-.5.3-.9-.1-.8-.3-1-.5-.3-.8-.3h-1v2.5Z"/>
      <path class="st67" d="M74.7,209c-.5,0-.9,0-1.2-.2s-.5-.3-.6-.6-.2-.6-.2-1.1v-6h1.5v5.9c0,.3,0,.5.1.6s.2.2.5.2h.3v1.1h-.4Z"/>
      <path class="st67" d="M77.2,209.1c-.3,0-.6,0-.8-.2s-.4-.3-.6-.6-.2-.6-.2-1,.1-.9.4-1.2.7-.5,1.2-.6,1.1-.2,1.7-.2v-.5c0-.4,0-.7-.2-.8s-.3-.2-.6-.2-.4,0-.6.2-.2.3-.2.6h-1.4c0-.6.3-1,.7-1.3s.9-.4,1.5-.4.6,0,.9,0,.5.2.7.3.3.4.4.6.2.6.2,1v4.1h-1.4v-.7c-.3.3-.5.5-.8.6s-.6.2-1,.2ZM77.7,208.1c.2,0,.4,0,.6-.2s.4-.3.5-.5v-1.3c-.7,0-1.1,0-1.4.3s-.4.5-.4.9,0,.5.2.6.3.2.5.2Z"/>
      <path class="st67" d="M81.8,209v-6h1.4v.9c.2-.2.4-.5.7-.7s.6-.3,1.1-.3.9.2,1.2.5.4.8.4,1.5v4.1h-1.5v-3.9c0-.2,0-.3,0-.5s-.1-.3-.2-.4-.2-.1-.4-.1-.5,0-.7.2-.4.3-.5.5v4.2h-1.5Z"/>
      <path class="st67" d="M89.8,209.1c-.3,0-.5,0-.8,0s-.5-.1-.7-.3-.4-.3-.5-.5-.2-.5-.2-.8h1.4c0,.3.1.4.3.5s.4.1.7.1.4,0,.6-.2.2-.3.2-.5,0-.5-.3-.6-.5-.3-.9-.4c-.3,0-.7-.2-.9-.4s-.5-.3-.7-.6-.2-.5-.2-.9,0-.6.2-.8.3-.4.5-.5.4-.2.7-.3.5,0,.8,0,.5,0,.7,0,.5.1.7.3.4.3.5.5.2.5.2.8h-1.4c0-.2,0-.4-.2-.5s-.3-.1-.5-.1-.4,0-.5.1-.2.3-.2.5,0,.2.1.3.2.2.4.2.4.1.7.2c.3,0,.6.2.8.3s.5.3.6.6.2.6.2,1-.1.8-.3,1.1-.5.5-.8.6-.7.2-1.1.2Z"/>
    </g>
  </g>
  <g class="st26">
    <g>
      <path class="st67" d="M28.9,224.1c-.7,0-1.4-.2-1.9-.5s-.9-.8-1.1-1.4-.4-1.3-.4-2.1.1-1.5.4-2.1.6-1.1,1.1-1.4,1.1-.5,1.9-.5,1.1.1,1.6.3.8.5,1.1.9.4.9.5,1.5h-1.6c0-.3-.1-.6-.3-.8s-.3-.4-.5-.5-.5-.2-.7-.2c-.4,0-.8.1-1.1.4s-.4.6-.6,1-.2.9-.2,1.4,0,1,.2,1.4.3.8.6,1,.6.4,1.1.4.8-.1,1.1-.4.4-.7.4-1.2h1.6c0,.6-.2,1.1-.4,1.6s-.6.8-1,1-1,.3-1.6.3Z"/>
      <path class="st67" d="M33.8,224v-6h1.4v1c.2-.3.3-.6.6-.8s.6-.3.9-.3h.1v1.2h-.1c-.2,0-.4,0-.6,0s-.4.1-.5.2-.3.2-.4.4v4.2h-1.5Z"/>
      <path class="st67" d="M40.1,224.1c-.6,0-1-.1-1.4-.4s-.7-.6-.9-1-.3-1-.3-1.7.1-1.2.3-1.7.5-.8.9-1.1.9-.4,1.4-.4,1,.1,1.4.4.7.6.9,1.1.3,1,.3,1.7-.1,1.2-.3,1.7-.5.8-.9,1-.9.4-1.4.4ZM40.1,223c.3,0,.5,0,.7-.3s.3-.4.3-.7,0-.6,0-1,0-.7,0-1-.2-.5-.3-.7-.4-.3-.7-.3-.5,0-.7.3-.3.4-.3.7,0,.6,0,1,0,.7,0,1,.2.5.3.7.4.3.7.3Z"/>
      <path class="st67" d="M45.8,224.1c-.3,0-.5,0-.8,0s-.5-.1-.7-.3-.4-.3-.5-.5-.2-.5-.2-.8h1.4c0,.3.1.4.3.5s.4.1.7.1.4,0,.6-.2.2-.3.2-.5,0-.5-.3-.6-.5-.3-.9-.4c-.3,0-.7-.2-.9-.4s-.5-.3-.7-.6-.2-.5-.2-.9,0-.6.2-.8.3-.4.5-.5.4-.2.7-.3.5,0,.8,0,.5,0,.7,0,.5.1.7.3.4.3.5.5.2.5.2.8h-1.4c0-.2,0-.4-.2-.5s-.3-.1-.5-.1-.4,0-.5.1-.2.3-.2.5,0,.2.1.3.2.2.4.2.4.1.7.2c.3,0,.6.2.8.3s.5.3.6.6.2.6.2,1-.1.8-.3,1.1-.5.5-.8.6-.7.2-1.1.2Z"/>
      <path class="st67" d="M51.8,224.1c-.3,0-.5,0-.8,0s-.5-.1-.7-.3-.4-.3-.5-.5-.2-.5-.2-.8h1.4c0,.3.1.4.3.5s.4.1.7.1.4,0,.6-.2.2-.3.2-.5,0-.5-.3-.6-.5-.3-.9-.4c-.3,0-.7-.2-.9-.4s-.5-.3-.7-.6-.2-.5-.2-.9,0-.6.2-.8.3-.4.5-.5.4-.2.7-.3.5,0,.8,0,.5,0,.7,0,.5.1.7.3.4.3.5.5.2.5.2.8h-1.4c0-.2,0-.4-.2-.5s-.3-.1-.5-.1-.4,0-.5.1-.2.3-.2.5,0,.2.1.3.2.2.4.2.4.1.7.2c.3,0,.6.2.8.3s.5.3.6.6.2.6.2,1-.1.8-.3,1.1-.5.5-.8.6-.7.2-1.1.2Z"/>
      <path class="st67" d="M55.4,221.6v-1.2h2.8v1.2h-2.8Z"/>
      <path class="st67" d="M62.3,224.1c-.6,0-1,0-1.5-.2s-.8-.4-1-.8-.4-.8-.4-1.4h1.6c0,.3,0,.5.2.7s.3.3.5.4.4.1.6.1.4,0,.6-.1.3-.2.4-.3.1-.3.1-.5,0-.4-.1-.6-.2-.3-.5-.4-.5-.2-.9-.4c-.5-.2-.9-.3-1.2-.5s-.6-.4-.8-.7-.3-.7-.3-1.2.1-.9.3-1.2.5-.5.9-.7.8-.2,1.3-.2.9,0,1.3.2.7.4.9.7.4.7.4,1.2h-1.6c0-.3-.1-.6-.3-.7s-.4-.2-.7-.2-.5,0-.7.2-.3.3-.3.6,0,.3.1.5.2.3.5.4.6.2,1,.4c.5.2.9.4,1.3.6s.6.5.8.8.3.7.3,1.2-.1.9-.3,1.3-.6.6-1,.8-.9.3-1.4.3Z"/>
      <path class="st67" d="M68.1,224.1c-.6,0-1.1-.1-1.5-.4s-.7-.6-.9-1.1-.3-1-.3-1.7,0-1.2.3-1.7.5-.8.9-1.1.9-.4,1.4-.4,1.4.3,1.8.8.7,1.2.7,2.2c0,0,0,.1,0,.2s0,.2,0,.2h-3.6c0,.3,0,.6.1.9s.2.5.4.6.4.2.7.2.4,0,.5-.2.2-.3.3-.5h1.5c0,.4-.2.7-.4,1s-.5.4-.8.6-.7.2-1.2.2ZM67,220.3h2.1c0-.5-.1-.9-.3-1.1s-.4-.4-.7-.4-.6.1-.8.4-.3.6-.3,1.1Z"/>
      <path class="st67" d="M73.8,224.1c-.3,0-.5,0-.8,0s-.5-.1-.7-.3-.4-.3-.5-.5-.2-.5-.2-.8h1.4c0,.3.1.4.3.5s.4.1.7.1.4,0,.6-.2.2-.3.2-.5,0-.5-.3-.6-.5-.3-.9-.4c-.3,0-.7-.2-.9-.4s-.5-.3-.7-.6-.2-.5-.2-.9,0-.6.2-.8.3-.4.5-.5.4-.2.7-.3.5,0,.8,0,.5,0,.7,0,.5.1.7.3.4.3.5.5.2.5.2.8h-1.4c0-.2,0-.4-.2-.5s-.3-.1-.5-.1-.4,0-.5.1-.2.3-.2.5,0,.2.1.3.2.2.4.2.4.1.7.2c.3,0,.6.2.8.3s.5.3.6.6.2.6.2,1-.1.8-.3,1.1-.5.5-.8.6-.7.2-1.1.2Z"/>
      <path class="st67" d="M79.8,224.1c-.3,0-.5,0-.8,0s-.5-.1-.7-.3-.4-.3-.5-.5-.2-.5-.2-.8h1.4c0,.3.1.4.3.5s.4.1.7.1.4,0,.6-.2.2-.3.2-.5,0-.5-.3-.6-.5-.3-.9-.4c-.3,0-.7-.2-.9-.4s-.5-.3-.7-.6-.2-.5-.2-.9,0-.6.2-.8.3-.4.5-.5.4-.2.7-.3.5,0,.8,0,.5,0,.7,0,.5.1.7.3.4.3.5.5.2.5.2.8h-1.4c0-.2,0-.4-.2-.5s-.3-.1-.5-.1-.4,0-.5.1-.2.3-.2.5,0,.2.1.3.2.2.4.2.4.1.7.2c.3,0,.6.2.8.3s.5.3.6.6.2.6.2,1-.1.8-.3,1.1-.5.5-.8.6-.7.2-1.1.2Z"/>
      <path class="st67" d="M84.5,217.4c-.3,0-.5,0-.6-.2s-.2-.3-.2-.5,0-.4.2-.5.3-.2.6-.2.5,0,.6.2.2.3.2.5,0,.4-.2.5-.3.2-.6.2ZM83.7,224v-6h1.5v6h-1.5Z"/>
      <path class="st67" d="M89.1,224.1c-.6,0-1-.1-1.4-.4s-.7-.6-.9-1-.3-1-.3-1.7.1-1.2.3-1.7.5-.8.9-1.1.9-.4,1.4-.4,1,.1,1.4.4.7.6.9,1.1.3,1,.3,1.7-.1,1.2-.3,1.7-.5.8-.9,1-.9.4-1.4.4ZM89.1,223c.3,0,.5,0,.7-.3s.3-.4.3-.7,0-.6,0-1,0-.7,0-1-.2-.5-.3-.7-.4-.3-.7-.3-.5,0-.7.3-.3.4-.3.7,0,.6,0,1,0,.7,0,1,.2.5.3.7.4.3.7.3Z"/>
      <path class="st67" d="M92.7,224v-6h1.4v.9c.2-.2.4-.5.7-.7s.6-.3,1.1-.3.9.2,1.2.5.4.8.4,1.5v4.1h-1.5v-3.9c0-.2,0-.3,0-.5s-.1-.3-.2-.4-.2-.1-.4-.1-.5,0-.7.2-.4.3-.5.5v4.2h-1.5Z"/>
      <path class="st67" d="M100.9,224v-7.9h2.7c.5,0,.9,0,1.3.3s.7.5.9.8.3.8.3,1.4-.1,1-.3,1.4-.5.6-.9.8-.8.3-1.3.3h-1.2v2.9h-1.6ZM102.4,219.9h1c.3,0,.6-.1.8-.3s.3-.5.3-.9-.1-.8-.3-1-.5-.3-.8-.3h-1v2.5Z"/>
      <path class="st67" d="M109.7,224c-.5,0-.9,0-1.2-.2s-.5-.3-.6-.6-.2-.6-.2-1.1v-6h1.5v5.9c0,.3,0,.5.1.6s.2.2.5.2h.3v1.1h-.4Z"/>
      <path class="st67" d="M112.2,224.1c-.3,0-.6,0-.8-.2s-.4-.3-.6-.6-.2-.6-.2-1,.1-.9.4-1.2.7-.5,1.2-.6,1.1-.2,1.7-.2v-.5c0-.4,0-.7-.2-.8s-.3-.2-.6-.2-.4,0-.6.2-.2.3-.2.6h-1.4c0-.6.3-1,.7-1.3s.9-.4,1.5-.4.6,0,.9,0,.5.2.7.3.3.4.4.6.2.6.2,1v4.1h-1.4v-.7c-.3.3-.5.5-.8.6s-.6.2-1,.2ZM112.7,223.1c.2,0,.4,0,.6-.2s.4-.3.5-.5v-1.3c-.7,0-1.1,0-1.4.3s-.4.5-.4.9,0,.5.2.6.3.2.5.2Z"/>
      <path class="st67" d="M116.8,224v-6h1.4v.9c.2-.2.4-.5.7-.7s.6-.3,1.1-.3.9.2,1.2.5.4.8.4,1.5v4.1h-1.5v-3.9c0-.2,0-.3,0-.5s-.1-.3-.2-.4-.2-.1-.4-.1-.5,0-.7.2-.4.3-.5.5v4.2h-1.5Z"/>
      <path class="st67" d="M124.8,224.1c-.3,0-.5,0-.8,0s-.5-.1-.7-.3-.4-.3-.5-.5-.2-.5-.2-.8h1.4c0,.3.1.4.3.5s.4.1.7.1.4,0,.6-.2.2-.3.2-.5,0-.5-.3-.6-.5-.3-.9-.4c-.3,0-.7-.2-.9-.4s-.5-.3-.7-.6-.2-.5-.2-.9,0-.6.2-.8.3-.4.5-.5.4-.2.7-.3.5,0,.8,0,.5,0,.7,0,.5.1.7.3.4.3.5.5.2.5.2.8h-1.4c0-.2,0-.4-.2-.5s-.3-.1-.5-.1-.4,0-.5.1-.2.3-.2.5,0,.2.1.3.2.2.4.2.4.1.7.2c.3,0,.6.2.8.3s.5.3.6.6.2.6.2,1-.1.8-.3,1.1-.5.5-.8.6-.7.2-1.1.2Z"/>
    </g>
  </g>
  <g class="st27">
    <g>
      <path class="st67" d="M28.7,239.1c-.7,0-1.2-.1-1.7-.3s-.8-.6-1-1-.3-1-.3-1.6v-5h1.6v5.1c0,.5,0,.9.3,1.2s.6.4,1.1.4.9-.1,1-.4.3-.7.3-1.2v-5.1h1.6v5c0,.6-.1,1.2-.3,1.6s-.5.8-.9,1-1,.3-1.7.3Z"/>
      <path class="st67" d="M34.8,239.1c-.3,0-.5,0-.8,0s-.5-.1-.7-.3-.4-.3-.5-.5-.2-.5-.2-.8h1.4c0,.3.1.4.3.5s.4.1.7.1.4,0,.6-.2.2-.3.2-.5,0-.5-.3-.6-.5-.3-.9-.4c-.3,0-.7-.2-.9-.4s-.5-.3-.7-.6-.2-.5-.2-.9,0-.6.2-.8.3-.4.5-.5.4-.2.7-.3.5,0,.8,0,.5,0,.7,0,.5.1.7.3.4.3.5.5.2.5.2.8h-1.4c0-.2,0-.4-.2-.5s-.3-.1-.5-.1-.4,0-.5.1-.2.3-.2.5,0,.2.1.3.2.2.4.2.4.1.7.2c.3,0,.6.2.8.3s.5.3.6.6.2.6.2,1-.1.8-.3,1.1-.5.5-.8.6-.7.2-1.1.2Z"/>
      <path class="st67" d="M41.1,239.1c-.6,0-1.1-.1-1.5-.4s-.7-.6-.9-1.1-.3-1-.3-1.7,0-1.2.3-1.7.5-.8.9-1.1.9-.4,1.4-.4,1.4.3,1.8.8.7,1.2.7,2.2c0,0,0,.1,0,.2s0,.2,0,.2h-3.6c0,.3,0,.6.1.9s.2.5.4.6.4.2.7.2.4,0,.5-.2.2-.3.3-.5h1.5c0,.4-.2.7-.4,1s-.5.4-.8.6-.7.2-1.2.2ZM40,235.3h2.1c0-.5-.1-.9-.3-1.1s-.4-.4-.7-.4-.6.1-.8.4-.3.6-.3,1.1Z"/>
      <path class="st67" d="M44.4,236.6v-1.2h2.8v1.2h-2.8Z"/>
      <path class="st67" d="M52,239.1c-.7,0-1.4-.2-1.9-.5s-.9-.8-1.1-1.4-.4-1.3-.4-2.1.1-1.5.4-2.1.6-1.1,1.1-1.4,1.1-.5,1.9-.5,1.1.1,1.6.3.8.5,1.1.9.4.9.5,1.5h-1.6c0-.3-.1-.6-.3-.8s-.3-.4-.5-.5-.5-.2-.7-.2c-.4,0-.8.1-1.1.4s-.4.6-.6,1-.2.9-.2,1.4,0,1,.2,1.4.3.8.6,1,.6.4,1.1.4.8-.1,1.1-.4.4-.7.4-1.2h1.6c0,.6-.2,1.1-.4,1.6s-.6.8-1,1-1,.3-1.6.3Z"/>
      <path class="st67" d="M58.1,239.1c-.3,0-.6,0-.8-.2s-.4-.3-.6-.6-.2-.6-.2-1,.1-.9.4-1.2.7-.5,1.2-.6,1.1-.2,1.7-.2v-.5c0-.4,0-.7-.2-.8s-.3-.2-.6-.2-.4,0-.6.2-.2.3-.2.6h-1.4c0-.6.3-1,.7-1.3s.9-.4,1.5-.4.6,0,.9,0,.5.2.7.3.3.4.4.6.2.6.2,1v4.1h-1.4v-.7c-.3.3-.5.5-.8.6s-.6.2-1,.2ZM58.7,238.1c.2,0,.4,0,.6-.2s.4-.3.5-.5v-1.3c-.7,0-1.1,0-1.4.3s-.4.5-.4.9,0,.5.2.6.3.2.5.2Z"/>
      <path class="st67" d="M64.8,239.1c-.3,0-.5,0-.8,0s-.5-.1-.7-.3-.4-.3-.5-.5-.2-.5-.2-.8h1.4c0,.3.1.4.3.5s.4.1.7.1.4,0,.6-.2.2-.3.2-.5,0-.5-.3-.6-.5-.3-.9-.4c-.3,0-.7-.2-.9-.4s-.5-.3-.7-.6-.2-.5-.2-.9,0-.6.2-.8.3-.4.5-.5.4-.2.7-.3.5,0,.8,0,.5,0,.7,0,.5.1.7.3.4.3.5.5.2.5.2.8h-1.4c0-.2,0-.4-.2-.5s-.3-.1-.5-.1-.4,0-.5.1-.2.3-.2.5,0,.2.1.3.2.2.4.2.4.1.7.2c.3,0,.6.2.8.3s.5.3.6.6.2.6.2,1-.1.8-.3,1.1-.5.5-.8.6-.7.2-1.1.2Z"/>
      <path class="st67" d="M71.1,239.1c-.6,0-1.1-.1-1.5-.4s-.7-.6-.9-1.1-.3-1-.3-1.7,0-1.2.3-1.7.5-.8.9-1.1.9-.4,1.4-.4,1.4.3,1.8.8.7,1.2.7,2.2c0,0,0,.1,0,.2s0,.2,0,.2h-3.6c0,.3,0,.6.1.9s.2.5.4.6.4.2.7.2.4,0,.5-.2.2-.3.3-.5h1.5c0,.4-.2.7-.4,1s-.5.4-.8.6-.7.2-1.2.2ZM70,235.3h2.1c0-.5-.1-.9-.3-1.1s-.4-.4-.7-.4-.6.1-.8.4-.3.6-.3,1.1Z"/>
      <path class="st67" d="M79.3,239.1c-.6,0-1,0-1.5-.2s-.8-.4-1-.8-.4-.8-.4-1.4h1.6c0,.3,0,.5.2.7s.3.3.5.4.4.1.6.1.4,0,.6-.1.3-.2.4-.3.1-.3.1-.5,0-.4-.1-.6-.2-.3-.5-.4-.5-.2-.9-.4c-.5-.2-.9-.3-1.2-.5s-.6-.4-.8-.7-.3-.7-.3-1.2.1-.9.3-1.2.5-.5.9-.7.8-.2,1.3-.2.9,0,1.3.2.7.4.9.7.4.7.4,1.2h-1.6c0-.3-.1-.6-.3-.7s-.4-.2-.7-.2-.5,0-.7.2-.3.3-.3.6,0,.3.1.5.2.3.5.4.6.2,1,.4c.5.2.9.4,1.3.6s.6.5.8.8.3.7.3,1.2-.1.9-.3,1.3-.6.6-1,.8-.9.3-1.4.3Z"/>
      <path class="st67" d="M85,239c-.5,0-.9,0-1.2-.2s-.5-.3-.6-.6-.2-.7-.2-1.1v-2.9h-.8v-1.1h.8v-1.3h1.5v1.3h1.1v1.1h-1.1v2.9c0,.3,0,.5.1.7s.2.2.5.2h.5v1.1h-.5Z"/>
      <path class="st67" d="M89.2,239.1c-.6,0-1.1-.1-1.5-.4s-.7-.6-.9-1.1-.3-1-.3-1.7,0-1.2.3-1.7.5-.8.9-1.1.9-.4,1.4-.4,1.4.3,1.8.8.7,1.2.7,2.2c0,0,0,.1,0,.2s0,.2,0,.2h-3.6c0,.3,0,.6.1.9s.2.5.4.6.4.2.7.2.4,0,.5-.2.2-.3.3-.5h1.5c0,.4-.2.7-.4,1s-.5.4-.8.6-.7.2-1.2.2ZM88,235.3h2.1c0-.5-.1-.9-.3-1.1s-.4-.4-.7-.4-.6.1-.8.4-.3.6-.3,1.1Z"/>
      <path class="st67" d="M95.2,239.1c-.6,0-1.1-.1-1.5-.4s-.7-.6-.9-1.1-.3-1-.3-1.7,0-1.2.3-1.7.5-.8.9-1.1.9-.4,1.4-.4,1.4.3,1.8.8.7,1.2.7,2.2c0,0,0,.1,0,.2s0,.2,0,.2h-3.6c0,.3,0,.6.1.9s.2.5.4.6.4.2.7.2.4,0,.5-.2.2-.3.3-.5h1.5c0,.4-.2.7-.4,1s-.5.4-.8.6-.7.2-1.2.2ZM94,235.3h2.1c0-.5-.1-.9-.3-1.1s-.4-.4-.7-.4-.6.1-.8.4-.3.6-.3,1.1Z"/>
      <path class="st67" d="M98.8,239v-6h1.4v1c.2-.3.3-.6.6-.8s.6-.3.9-.3h.1v1.2h-.1c-.2,0-.4,0-.6,0s-.4.1-.5.2-.3.2-.4.4v4.2h-1.5Z"/>
      <path class="st67" d="M103.5,232.4c-.3,0-.5,0-.6-.2s-.2-.3-.2-.5,0-.4.2-.5.3-.2.6-.2.5,0,.6.2.2.3.2.5,0,.4-.2.5-.3.2-.6.2ZM102.8,239v-6h1.5v6h-1.5Z"/>
      <path class="st67" d="M105.8,239v-6h1.4v.9c.2-.2.4-.5.7-.7s.6-.3,1.1-.3.9.2,1.2.5.4.8.4,1.5v4.1h-1.5v-3.9c0-.2,0-.3,0-.5s-.1-.3-.2-.4-.2-.1-.4-.1-.5,0-.7.2-.4.3-.5.5v4.2h-1.5Z"/>
      <path class="st67" d="M113.8,241.2c-.6,0-1.1,0-1.5-.2s-.6-.3-.8-.6-.2-.5-.2-.7.1-.7.4-.9.7-.4,1.3-.5l.2-.6h.8c.8,0,1.4.1,1.8.4s.6.7.6,1.3-.2,1-.7,1.3-1.1.5-2,.5ZM113.1,238.7c-.4,0-.7-.1-.9-.2s-.4-.2-.5-.4-.2-.3-.2-.5c0-.2,0-.4.3-.6s.4-.3.8-.5l.6.2c-.2,0-.3.1-.4.2s-.1.2-.1.3,0,.1.1.2.2,0,.4.1.4,0,.8,0l-.8,1ZM113.7,236.9c-.5,0-.9,0-1.2-.3s-.6-.4-.8-.7-.3-.6-.3-1,0-.7.3-1,.4-.5.8-.7.7-.3,1.2-.3.9,0,1.3.3.6.4.7.7.2.6.2,1,0,.7-.2,1-.4.5-.7.7-.7.3-1.3.3ZM113.8,240.3c.5,0,.8,0,1-.2s.3-.3.3-.6,0-.3-.1-.4-.2-.2-.4-.2-.4,0-.6,0h-.8c-.1,0-.2.2-.3.3s-.1.3-.1.4,0,.4.3.5.5.2.8.2ZM113.7,236.1c.3,0,.5,0,.6-.3s.2-.5.2-.8,0-.7-.2-.9-.4-.3-.6-.3-.5,0-.6.3-.2.5-.2.9,0,.7.3.8.4.3.6.3ZM115.2,233.7l-.3-.5c.1-.4.3-.6.6-.8s.6-.3,1-.3v1.1c-.3,0-.5,0-.8,0s-.4.2-.5.4Z"/>
    </g>
  </g>
  <g class="st28">
    <g>
      <path class="st67" d="M28.3,254.1c-.6,0-1,0-1.5-.2s-.8-.4-1-.8-.4-.8-.4-1.4h1.6c0,.3,0,.5.2.7s.3.3.5.4.4.1.6.1.4,0,.6-.1.3-.2.4-.3.1-.3.1-.5,0-.4-.1-.6-.2-.3-.5-.4-.5-.2-.9-.4c-.5-.2-.9-.3-1.2-.5s-.6-.4-.8-.7-.3-.7-.3-1.2.1-.9.3-1.2.5-.5.9-.7.8-.2,1.3-.2.9,0,1.3.2.7.4.9.7.4.7.4,1.2h-1.6c0-.3-.1-.6-.3-.7s-.4-.2-.7-.2-.5,0-.7.2-.3.3-.3.6,0,.3.1.5.2.3.5.4.6.2,1,.4c.5.2.9.4,1.3.6s.6.5.8.8.3.7.3,1.2-.1.9-.3,1.3-.6.6-1,.8-.9.3-1.4.3Z"/>
      <path class="st67" d="M34.1,254.1c-.6,0-1-.1-1.4-.4s-.7-.6-.9-1-.3-1-.3-1.7.1-1.2.3-1.7.5-.8.9-1.1.9-.4,1.4-.4,1,.1,1.4.4.7.6.9,1.1.3,1,.3,1.7-.1,1.2-.3,1.7-.5.8-.9,1-.9.4-1.4.4ZM34.1,253c.3,0,.5,0,.7-.3s.3-.4.3-.7,0-.6,0-1,0-.7,0-1-.2-.5-.3-.7-.4-.3-.7-.3-.5,0-.7.3-.3.4-.3.7,0,.6,0,1,0,.7,0,1,.2.5.3.7.4.3.7.3Z"/>
      <path class="st67" d="M39.7,254c-.5,0-.9,0-1.2-.2s-.5-.3-.6-.6-.2-.6-.2-1.1v-6h1.5v5.9c0,.3,0,.5.1.6s.2.2.5.2h.3v1.1h-.4Z"/>
      <path class="st67" d="M42.3,254.1c-.5,0-.9-.2-1.1-.5s-.4-.8-.4-1.4v-4.1h1.5v3.9c0,.2,0,.3,0,.5s.1.3.2.4.2.1.4.1c.2,0,.5,0,.7-.2s.4-.3.5-.5v-4.3h1.5v6h-1.4v-.9c-.2.2-.4.5-.7.7s-.7.3-1.1.3Z"/>
      <path class="st67" d="M49,254c-.5,0-.9,0-1.2-.2s-.5-.3-.6-.6-.2-.7-.2-1.1v-2.9h-.8v-1.1h.8v-1.3h1.5v1.3h1.1v1.1h-1.1v2.9c0,.3,0,.5.1.7s.2.2.5.2h.5v1.1h-.5Z"/>
      <path class="st67" d="M51.5,247.4c-.3,0-.5,0-.6-.2s-.2-.3-.2-.5,0-.4.2-.5.3-.2.6-.2.5,0,.6.2.2.3.2.5,0,.4-.2.5-.3.2-.6.2ZM50.8,254v-6h1.5v6h-1.5Z"/>
      <path class="st67" d="M56.1,254.1c-.6,0-1-.1-1.4-.4s-.7-.6-.9-1-.3-1-.3-1.7.1-1.2.3-1.7.5-.8.9-1.1.9-.4,1.4-.4,1,.1,1.4.4.7.6.9,1.1.3,1,.3,1.7-.1,1.2-.3,1.7-.5.8-.9,1-.9.4-1.4.4ZM56.1,253c.3,0,.5,0,.7-.3s.3-.4.3-.7,0-.6,0-1,0-.7,0-1-.2-.5-.3-.7-.4-.3-.7-.3-.5,0-.7.3-.3.4-.3.7,0,.6,0,1,0,.7,0,1,.2.5.3.7.4.3.7.3Z"/>
      <path class="st67" d="M59.8,254v-6h1.4v.9c.2-.2.4-.5.7-.7s.6-.3,1.1-.3.9.2,1.2.5.4.8.4,1.5v4.1h-1.5v-3.9c0-.2,0-.3,0-.5s-.1-.3-.2-.4-.2-.1-.4-.1-.5,0-.7.2-.4.3-.5.5v4.2h-1.5Z"/>
      <path class="st67" d="M67,254l2.5-7.9h1.6l2.5,7.9h-1.6l-.5-1.8h-2.4l-.5,1.8h-1.6ZM69.5,250.9h1.7l-.9-3.2-.8,3.2Z"/>
      <path class="st67" d="M74.8,256.1v-8.1h1.4v.9c.3-.3.5-.6.8-.7s.6-.2.9-.2.7.1,1,.3.5.6.7,1,.3,1.1.3,1.8,0,1.3-.3,1.7-.4.8-.7,1-.7.3-1,.3c-.3,0-.6,0-.9-.2s-.5-.4-.7-.7v2.9h-1.5ZM77.4,253c.3,0,.6-.2.7-.5s.2-.8.2-1.4,0-1.2-.2-1.5-.4-.5-.7-.5-.5,0-.7.3-.3.4-.4.6v2.3c.1.2.3.4.4.6s.4.2.7.2Z"/>
      <path class="st67" d="M80.8,256.1v-8.1h1.4v.9c.3-.3.5-.6.8-.7s.6-.2.9-.2.7.1,1,.3.5.6.7,1,.3,1.1.3,1.8,0,1.3-.3,1.7-.4.8-.7,1-.7.3-1,.3c-.3,0-.6,0-.9-.2s-.5-.4-.7-.7v2.9h-1.5ZM83.4,253c.3,0,.6-.2.7-.5s.2-.8.2-1.4,0-1.2-.2-1.5-.4-.5-.7-.5-.5,0-.7.3-.3.4-.4.6v2.3c.1.2.3.4.4.6s.4.2.7.2Z"/>
      <path class="st67" d="M86.8,254v-6h1.4v1c.2-.3.3-.6.6-.8s.6-.3.9-.3h.1v1.2h-.1c-.2,0-.4,0-.6,0s-.4.1-.5.2-.3.2-.4.4v4.2h-1.5Z"/>
      <path class="st67" d="M93.1,254.1c-.6,0-1-.1-1.4-.4s-.7-.6-.9-1-.3-1-.3-1.7.1-1.2.3-1.7.5-.8.9-1.1.9-.4,1.4-.4,1,.1,1.4.4.7.6.9,1.1.3,1,.3,1.7-.1,1.2-.3,1.7-.5.8-.9,1-.9.4-1.4.4ZM93.1,253c.3,0,.5,0,.7-.3s.3-.4.3-.7,0-.6,0-1,0-.7,0-1-.2-.5-.3-.7-.4-.3-.7-.3-.5,0-.7.3-.3.4-.3.7,0,.6,0,1,0,.7,0,1,.2.5.3.7.4.3.7.3Z"/>
      <path class="st67" d="M98.2,254.1c-.3,0-.6,0-.8-.2s-.4-.3-.6-.6-.2-.6-.2-1,.1-.9.4-1.2.7-.5,1.2-.6,1.1-.2,1.7-.2v-.5c0-.4,0-.7-.2-.8s-.3-.2-.6-.2-.4,0-.6.2-.2.3-.2.6h-1.4c0-.6.3-1,.7-1.3s.9-.4,1.5-.4.6,0,.9,0,.5.2.7.3.3.4.4.6.2.6.2,1v4.1h-1.4v-.7c-.3.3-.5.5-.8.6s-.6.2-1,.2ZM98.7,253.1c.2,0,.4,0,.6-.2s.4-.3.5-.5v-1.3c-.7,0-1.1,0-1.4.3s-.4.5-.4.9,0,.5.2.6.3.2.5.2Z"/>
      <path class="st67" d="M105.1,254.1c-.5,0-.9-.1-1.3-.3s-.7-.6-.9-1-.3-1-.3-1.8.1-1.3.3-1.7.5-.8.9-1,.8-.3,1.4-.3.8,0,1.1.2.6.3.8.6.3.6.4,1.1h-1.4c0-.2-.1-.4-.3-.6s-.4-.2-.6-.2-.7.2-.8.5-.2.8-.2,1.4,0,.7.1,1,.2.5.3.7.4.2.6.2.5,0,.7-.2.2-.4.3-.7h1.4c0,.7-.3,1.2-.7,1.5s-1,.5-1.6.5Z"/>
      <path class="st67" d="M108.8,254v-7.9h1.5v2.7c.2-.2.4-.5.7-.6s.6-.3,1.1-.3.9.2,1.2.5.4.8.4,1.5v4.2h-1.5v-4c0-.2,0-.3,0-.5s-.1-.3-.2-.4-.2-.1-.4-.1-.5,0-.7.2-.4.3-.5.5v4.3h-1.5Z"/>
      <path class="st67" d="M120,254.1c-.7,0-1.4-.2-1.9-.5s-.9-.8-1.1-1.4-.4-1.3-.4-2.1.1-1.5.4-2.1.6-1.1,1.1-1.4,1.1-.5,1.9-.5,1.1.1,1.6.3.8.5,1.1.9.4.9.5,1.5h-1.6c0-.3-.1-.6-.3-.8s-.3-.4-.5-.5-.5-.2-.7-.2c-.4,0-.8.1-1.1.4s-.4.6-.6,1-.2.9-.2,1.4,0,1,.2,1.4.3.8.6,1,.6.4,1.1.4.8-.1,1.1-.4.4-.7.4-1.2h1.6c0,.6-.2,1.1-.4,1.6s-.6.8-1,1-1,.3-1.6.3Z"/>
      <path class="st67" d="M124.8,254v-7.9h1.5v2.7c.2-.2.4-.5.7-.6s.6-.3,1.1-.3.9.2,1.2.5.4.8.4,1.5v4.2h-1.5v-4c0-.2,0-.3,0-.5s-.1-.3-.2-.4-.2-.1-.4-.1-.5,0-.7.2-.4.3-.5.5v4.3h-1.5Z"/>
      <path class="st67" d="M133.1,254.1c-.6,0-1-.1-1.4-.4s-.7-.6-.9-1-.3-1-.3-1.7.1-1.2.3-1.7.5-.8.9-1.1.9-.4,1.4-.4,1,.1,1.4.4.7.6.9,1.1.3,1,.3,1.7-.1,1.2-.3,1.7-.5.8-.9,1-.9.4-1.4.4ZM133.1,253c.3,0,.5,0,.7-.3s.3-.4.3-.7,0-.6,0-1,0-.7,0-1-.2-.5-.3-.7-.4-.3-.7-.3-.5,0-.7.3-.3.4-.3.7,0,.6,0,1,0,.7,0,1,.2.5.3.7.4.3.7.3Z"/>
      <path class="st67" d="M137.6,247.4c-.3,0-.5,0-.6-.2s-.2-.3-.2-.5,0-.4.2-.5.3-.2.6-.2.5,0,.6.2.2.3.2.5,0,.4-.2.5-.3.2-.6.2ZM136.8,254v-6h1.5v6h-1.5Z"/>
      <path class="st67" d="M142.1,254.1c-.5,0-.9-.1-1.3-.3s-.7-.6-.9-1-.3-1-.3-1.8.1-1.3.3-1.7.5-.8.9-1,.8-.3,1.4-.3.8,0,1.1.2.6.3.8.6.3.6.4,1.1h-1.4c0-.2-.1-.4-.3-.6s-.4-.2-.6-.2-.7.2-.8.5-.2.8-.2,1.4,0,.7.1,1,.2.5.3.7.4.2.6.2.5,0,.7-.2.2-.4.3-.7h1.4c0,.7-.3,1.2-.7,1.5s-1,.5-1.6.5Z"/>
      <path class="st67" d="M148.2,254.1c-.6,0-1.1-.1-1.5-.4s-.7-.6-.9-1.1-.3-1-.3-1.7,0-1.2.3-1.7.5-.8.9-1.1.9-.4,1.4-.4,1.4.3,1.8.8.7,1.2.7,2.2c0,0,0,.1,0,.2s0,.2,0,.2h-3.6c0,.3,0,.6.1.9s.2.5.4.6.4.2.7.2.4,0,.5-.2.2-.3.3-.5h1.5c0,.4-.2.7-.4,1s-.5.4-.8.6-.7.2-1.2.2ZM147,250.3h2.1c0-.5-.1-.9-.3-1.1s-.4-.4-.7-.4-.6.1-.8.4-.3.6-.3,1.1Z"/>
      <path class="st67" d="M153.9,254.1c-.3,0-.5,0-.8,0s-.5-.1-.7-.3-.4-.3-.5-.5-.2-.5-.2-.8h1.4c0,.3.1.4.3.5s.4.1.7.1.4,0,.6-.2.2-.3.2-.5,0-.5-.3-.6-.5-.3-.9-.4c-.3,0-.7-.2-.9-.4s-.5-.3-.7-.6-.2-.5-.2-.9,0-.6.2-.8.3-.4.5-.5.4-.2.7-.3.5,0,.8,0,.5,0,.7,0,.5.1.7.3.4.3.5.5.2.5.2.8h-1.4c0-.2,0-.4-.2-.5s-.3-.1-.5-.1-.4,0-.5.1-.2.3-.2.5,0,.2.1.3.2.2.4.2.4.1.7.2c.3,0,.6.2.8.3s.5.3.6.6.2.6.2,1-.1.8-.3,1.1-.5.5-.8.6-.7.2-1.1.2Z"/>
    </g>
  </g>
  <g class="st29">
    <rect class="st3" x="187" y="17" width="1" height="136"/>
  </g>
  <g class="st30">
    <rect class="st3" x="207" y="17" width="1" height="136"/>
  </g>
  <g class="st33">
    <rect class="st3" x="231" y="17" width="1" height="136"/>
  </g>
  <g class="st34">
    <rect class="st3" x="254" y="17" width="1" height="136"/>
  </g>
  <g class="st35">
    <rect class="st3" x="278" y="17" width="1" height="136"/>
  </g>
  <g class="st31">
    <rect class="st3" x="23" y="167" width="143" height="1"/>
  </g>
  <g class="st52">
    <rect class="st3" x="23" y="182" width="143" height="1"/>
  </g>
  <g class="st46">
    <rect class="st3" x="23" y="197" width="143" height="1"/>
  </g>
  <g class="st47">
    <rect class="st3" x="23" y="212" width="143" height="1"/>
  </g>
  <g class="st48">
    <rect class="st3" x="23" y="227" width="143" height="1"/>
  </g>
  <g class="st49">
    <rect class="st3" x="23" y="242" width="143" height="1"/>
  </g>
  <g class="st50">
    <rect class="st3" x="23" y="257" width="143" height="1"/>
  </g>
  <g class="st53">
    <rect class="st3" x="165" y="16" width="1" height="242"/>
  </g>
  <g class="st54">
    <rect class="st2" x="187" y="153" width="1" height="105"/>
  </g>
  <g class="st55">
    <rect class="st2" x="207" y="153" width="1" height="105"/>
  </g>
  <g class="st51">
    <rect class="st2" x="231" y="153" width="1" height="105"/>
  </g>
  <g class="st16">
    <rect class="st2" x="254" y="153" width="1" height="105"/>
  </g>
  <g class="st23">
    <rect class="st2" x="278" y="153" width="1" height="105"/>
  </g>
  <g class="st18">
    <rect class="st3" x="22" y="152" width="1" height="106"/>
  </g>
  <g class="st22">
    <rect class="st3" x="166" y="16" width="113" height="1"/>
  </g>
  <g class="st20">
    <rect class="st3" x="23" y="152" width="256" height="1"/>
  </g>
  <g class="st17">
    <rect class="st2" x="166" y="167" width="113" height="1"/>
  </g>
  <g class="st21">
    <rect class="st2" x="166" y="182" width="113" height="1"/>
  </g>
  <g class="st19">
    <rect class="st2" x="166" y="197" width="113" height="1"/>
  </g>
  <g class="st24">
    <rect class="st2" x="166" y="212" width="113" height="1"/>
  </g>
  <g class="st25">
    <rect class="st2" x="166" y="227" width="113" height="1"/>
  </g>
  <g class="st15">
    <rect class="st2" x="166" y="242" width="113" height="1"/>
  </g>
  <g class="st14">
    <rect class="st2" x="166" y="257" width="113" height="1"/>
  </g>
</svg>