<?xml version="1.0" encoding="UTF-8"?>
<svg id="Layer_1" xmlns="http://www.w3.org/2000/svg" xmlns:xlink="http://www.w3.org/1999/xlink" version="1.1" viewBox="0 0 476 272">
  <!-- Generator: Adobe Illustrator 29.5.1, SVG Export Plug-In . SVG Version: 2.1.0 Build 141)  -->
  <defs>
    <style>
      .st0 {
        fill: #ccc;
      }

      .st1 {
        stroke: #369;
      }

      .st1, .st2 {
        fill: none;
        stroke-linecap: round;
        stroke-linejoin: round;
        stroke-width: 20px;
      }

      .st3 {
        fill: #e6e6e6;
      }

      .st3, .st4 {
        display: none;
      }

      .st2 {
        stroke: url(#linear-gradient);
      }
    </style>
    <linearGradient id="linear-gradient" x1="77.5" y1="138.4" x2="400.2" y2="138.4" gradientUnits="userSpaceOnUse">
      <stop offset="0" stop-color="#369"/>
      <stop offset=".1" stop-color="#36699c"/>
      <stop offset=".2" stop-color="#4275a8"/>
      <stop offset=".3" stop-color="#58b"/>
      <stop offset=".4" stop-color="#71a4d7"/>
      <stop offset=".5" stop-color="#93c6f9"/>
      <stop offset=".5" stop-color="#9cf"/>
      <stop offset=".5" stop-color="#96c9fc"/>
      <stop offset=".6" stop-color="#73a6d9"/>
      <stop offset=".7" stop-color="#578abd"/>
      <stop offset=".8" stop-color="#4275a8"/>
      <stop offset=".9" stop-color="#36699c"/>
      <stop offset="1" stop-color="#369"/>
    </linearGradient>
  </defs>
  <rect class="st3" x="1" y="1" width="475" height="271"/>
  <path class="st1" d="M60.5,239.5c-20-14-32-44-30-75s14.3-65.6,36.2-92.4c47.8-58.6,113.8-59.6,132.8-10.6s9.1,73.7-16,112"/>
  <path class="st2" d="M87.5,96.5c10,100,60,143,91,149s56.9-.6,65.5-28.5c16-52-14-83,1-130s55-58,74-58c31,0,61.8,9.5,69,50s3,48-24,98"/>
  <path class="st1" d="M273,99c-3,32,15.9,71.9,33,96,22,31,47.8,53.8,92,47,27.5-4.3,42-23,48-52,5.3-25.4-5-47-8-58"/>
  <g class="st4">
    <path class="st0" d="M142.7,28v4c13.3,0,27.8,4.6,41.8,13.2,14.7,9,28.5,22.3,40,38.5,17.5,24.5,28.2,53.2,30.2,80.8,1.9,27.1-4.8,49.9-19,64-9.4,9.3-21.6,14.3-35.4,14.3s-27.8-4.6-41.8-13.2c-14.7-9-28.5-22.3-40-38.5-17.5-24.5-28.2-53.2-30.2-80.8-1.9-27.1,4.8-49.9,19-64,9.4-9.3,21.6-14.3,35.4-14.3v-4M142.7,28c-14.4,0-27.7,5-38.2,15.5-31.1,30.9-26.3,98,10.7,149.9,24.5,34.3,56.9,53.3,85.1,53.3s27.7-5,38.2-15.5c31.1-30.9,26.3-98-10.7-149.9-24.5-34.3-56.9-53.3-85.1-53.3h0Z"/>
    <path class="st0" d="M330.8,28v4c13.8,0,26,4.9,35.4,14.3,14.2,14.1,20.9,36.9,19,64-2,27.6-12.7,56.3-30.2,80.8-11.5,16.1-25.3,29.4-40,38.5-14,8.6-28.5,13.2-41.8,13.2s-26-4.9-35.4-14.3c-14.2-14.1-20.9-36.9-19-64,2-27.6,12.7-56.3,30.2-80.8,11.5-16.1,25.3-29.4,40-38.5,14-8.6,28.5-13.2,41.8-13.2v-4M330.8,28c-28.2,0-60.6,19-85.1,53.3-37,51.9-41.8,119-10.7,149.9,10.5,10.5,23.8,15.5,38.2,15.5,28.2,0,60.6-19,85.1-53.3,37-51.9,41.8-119,10.7-149.9-10.5-10.5-23.8-15.5-38.2-15.5h0Z"/>
    <path class="st0" d="M145.8,28v4c13.8,0,26,4.9,35.4,14.3,14.2,14.1,20.9,36.9,19,64-2,27.6-12.7,56.3-30.2,80.8-11.5,16.1-25.3,29.4-40,38.5-14,8.6-28.5,13.2-41.8,13.2s-26-4.9-35.4-14.3c-14.2-14.1-20.9-36.9-19-64,2-27.6,12.7-56.3,30.2-80.8,11.5-16.1,25.3-29.4,40-38.5,14-8.6,28.5-13.2,41.8-13.2v-4M145.8,28c-28.2,0-60.6,19-85.1,53.3-37,51.9-41.8,119-10.7,149.9,10.5,10.5,23.8,15.5,38.2,15.5,28.2,0,60.6-19,85.1-53.3,37-51.9,41.8-119,10.7-149.9-10.5-10.5-23.8-15.5-38.2-15.5h0Z"/>
    <path class="st0" d="M330.2,28v4c13.3,0,27.8,4.6,41.8,13.2,14.7,9,28.5,22.3,40,38.5,17.5,24.5,28.2,53.2,30.2,80.8,1.9,27.1-4.8,49.9-19,64-9.4,9.3-21.6,14.3-35.4,14.3s-27.8-4.6-41.8-13.2c-14.7-9-28.5-22.3-40-38.5-17.5-24.5-28.2-53.2-30.2-80.8-1.9-27.1,4.8-49.9,19-64,9.4-9.3,21.6-14.3,35.4-14.3v-4M330.2,28c-14.4,0-27.7,5-38.2,15.5-31.1,30.9-26.3,98,10.7,149.9,24.5,34.3,56.9,53.3,85.1,53.3s27.7-5,38.2-15.5c31.1-30.9,26.3-98-10.7-149.9-24.5-34.3-56.9-53.3-85.1-53.3h0Z"/>
  </g>
</svg>