<?xml version="1.0" encoding="UTF-8"?>
<svg id="Layer_1" xmlns="http://www.w3.org/2000/svg" xmlns:xlink="http://www.w3.org/1999/xlink" version="1.1" viewBox="0 0 551 497">
  <!-- Generator: Adobe Illustrator 30.4.0, SVG Export Plug-In . SVG Version: 2.1.4 Build 226)  -->
  <defs>
    <style>
      .st0 {
        fill: none;
      }

      .st1 {
        opacity: .4;
      }

      .st1, .st2 {
        fill: #7f7f7f;
      }

      .st3 {
        fill: #595959;
      }

      .st4 {
        fill: #d9d9d9;
      }

      .st5 {
        fill: #fff;
      }

      .st6 {
        fill: #262626;
      }

      .st7 {
        fill: #bfbfbf;
      }

      .st8 {
        clip-path: url(#clippath);
      }

      .st9 {
        fill: #4e95d9;
        opacity: .2;
      }
    </style>
    <clipPath id="clippath">
      <rect class="st0" width="551" height="497"/>
    </clipPath>
  </defs>
  <g class="st8">
    <rect class="st3" x="234.4" y="275.3" width="73" height="30.6"/>
    <rect class="st3" x="309.9" y="275.3" width="72.8" height="30.6"/>
    <rect class="st3" x="385.3" y="275.3" width="73" height="30.6"/>
    <rect class="st3" x="460.7" y="275" width="73" height="30.8"/>
    <rect class="st3" x="159" y="275.3" width="73" height="30.6"/>
    <path class="st1" d="M8.9,95.7h524.9c4.5,0,8.2,3.7,8.2,8.2v149.1c0,4.5-3.7,8.2-8.2,8.2H8.9c-4.5,0-8.2-3.7-8.2-8.2V103.9c0-4.5,3.7-8.2,8.2-8.2Z"/>
    <rect class="st2" x="234.8" y="161.5" width="73" height="90.2"/>
    <rect class="st2" x="310.2" y="161.5" width="73" height="90.2"/>
    <rect class="st2" x="385.5" y="161.5" width="73" height="90.2"/>
    <rect class="st2" x="461.1" y="161.2" width="72.8" height="90.4"/>
    <rect class="st2" x="159.4" y="161.5" width="72.8" height="90.2"/>
    <rect class="st4" x="159.4" y="103.9" width="73" height="54.6"/>
    <path d="M194.7,118.9c0,3.1-1.2,4.8-3.2,4.8s-3-1.7-3-4.7c0-3.1,1.3-4.7,3.2-4.7s3,1.7,3,4.6ZM189.7,119.1c0,2.4.7,3.7,1.8,3.7s1.8-1.5,1.8-3.8-.6-3.7-1.8-3.7-1.8,1.3-1.8,3.8Z"/>
    <rect class="st4" x="234.8" y="103.9" width="73" height="54.6"/>
    <path d="M266.7,115.6h0l-1.6.9-.2-.9,2-1.1h1v9.1h-1.2v-8Z"/>
    <rect class="st4" x="310.2" y="103.9" width="73" height="54.6"/>
    <path d="M339.4,123.6v-.8l1-.9c2.3-2.2,3.4-3.4,3.4-4.8s-.4-1.8-1.8-1.8-1.5.4-1.9.8l-.4-.9c.6-.5,1.5-.9,2.6-.9,2,0,2.8,1.3,2.8,2.6s-1.2,3-3.1,4.9l-.7.7h0s4.1,0,4.1,0v1h-5.8Z"/>
    <rect class="st4" x="385.5" y="103.9" width="73" height="54.6"/>
    <path d="M415.1,122.2c.3.2,1.1.6,2,.6,1.6,0,2.1-1,2.1-1.8,0-1.3-1.2-1.8-2.4-1.8h-.7v-.9h.7c.9,0,2-.5,2-1.5s-.5-1.4-1.6-1.4-1.4.3-1.8.6l-.3-.9c.5-.4,1.4-.7,2.4-.7,1.8,0,2.6,1.1,2.6,2.2s-.6,1.8-1.7,2.2h0c1.1.2,2,1.1,2,2.4,0,1.5-1.1,2.7-3.3,2.7s-1.9-.3-2.4-.6l.3-.9Z"/>
    <rect class="st4" x="460.9" y="103.9" width="73.3" height="54.6"/>
    <path d="M494,123.6v-2.5h-4.2v-.8l4.1-5.8h1.3v5.7h1.3v1h-1.3v2.5h-1.2ZM494,120.2v-3c0-.5,0-1,0-1.4h0c-.3.5-.5.9-.8,1.3l-2.2,3.1h0s3,0,3,0Z"/>
    <polygon class="st4" points="159.8 420.1 159.8 373.3 534.6 420.1 159.8 420.1"/>
    <polygon class="st3" points="534.6 373.3 534.6 420.1 159.8 373.3 534.6 373.3"/>
    <g>
      <path d="M172.6,409.7c-.3.2-1,.4-1.9.4-2,0-3.4-1.4-3.4-3.5s1.4-3.6,3.6-3.6,1.4.2,1.7.4l-.3.9c-.3-.2-.8-.3-1.4-.3-1.6,0-2.4,1.2-2.4,2.6s1,2.5,2.4,2.5,1.2-.2,1.5-.3l.2.9Z"/>
      <path d="M180.1,406.5c0,2.5-1.8,3.6-3.4,3.6s-3.2-1.3-3.2-3.5,1.5-3.6,3.4-3.6,3.3,1.4,3.3,3.5ZM174.7,406.6c0,1.5.8,2.6,2,2.6s2.1-1.1,2.1-2.6-.6-2.6-2-2.6-2.1,1.3-2.1,2.6Z"/>
      <path d="M181.5,408.7c.4.2,1,.5,1.6.5.9,0,1.3-.4,1.3-1s-.4-.9-1.2-1.2c-1.2-.4-1.8-1.1-1.8-1.9s.9-2,2.3-2,1.3.2,1.7.4l-.3.9c-.3-.2-.8-.4-1.4-.4s-1.1.4-1.1.9.4.8,1.3,1.2c1.2.4,1.8,1,1.8,2s-.9,2-2.5,2-1.4-.2-1.9-.5l.3-.9Z"/>
      <path d="M188.7,401.5v1.6h1.8v.9h-1.8v3.7c0,.8.2,1.3.9,1.3s.5,0,.7,0v.9c-.2,0-.6.2-1,.2s-1-.2-1.3-.5c-.3-.4-.5-1-.5-1.8v-3.7h-1.1v-.9h1.1v-1.3l1.2-.4Z"/>
      <path d="M191.7,408.7c.4.2,1,.5,1.6.5.9,0,1.3-.4,1.3-1s-.4-.9-1.2-1.2c-1.2-.4-1.8-1.1-1.8-1.9s.9-2,2.3-2,1.3.2,1.7.4l-.3.9c-.3-.2-.8-.4-1.4-.4s-1.1.4-1.1.9.4.8,1.3,1.2c1.2.4,1.8,1,1.8,2s-.9,2-2.5,2-1.4-.2-1.9-.5l.3-.9Z"/>
    </g>
    <path class="st5" d="M475.9,385.5c0,1.7,1.1,2.4,2.3,2.4s1.4-.2,1.9-.4l.2.9c-.4.2-1.2.4-2.3.4-2.1,0-3.3-1.4-3.3-3.4s1.2-3.6,3.2-3.6,2.8,1.9,2.8,3.2,0,.4,0,.6h-4.8ZM479.6,384.6c0-.8-.3-2-1.7-2s-1.8,1.1-1.9,2h3.6Z"/>
    <path class="st5" d="M490.8,379.9c-.3-.2-.8-.4-1.4-.4-1.3,0-1.7.9-1.7,2v.3h4v6.8h-1.2v-5.8h-2.7v5.8h-1.2v-5.8h-2.9v5.8h-1.2v-5.8h-.9v-.9h.9v-.2c0-.8.2-1.7.8-2.2.4-.4,1-.7,1.7-.7s.9.2,1.2.3l-.4.9c-.2-.1-.5-.2-.8-.2s-.7.1-.9.4c-.3.4-.4,1-.4,1.6v.3h2.9v-.4c0-1.8,1.1-2.9,3-2.9s1.3.2,1.7.4l-.4.9Z"/>
    <g>
      <path class="st5" d="M498.5,388.4c-.3.2-1,.4-1.9.4-2,0-3.4-1.4-3.4-3.5s1.4-3.6,3.6-3.6,1.4.2,1.7.4l-.3.9c-.3-.2-.8-.3-1.4-.3-1.6,0-2.4,1.2-2.4,2.6s1,2.5,2.4,2.5,1.2-.2,1.5-.3l.2.9Z"/>
      <path class="st5" d="M501.3,379.9c0,.4-.3.8-.8.8s-.7-.3-.7-.8.3-.8.8-.8.8.3.8.8ZM500,388.6v-6.8h1.2v6.8h-1.2Z"/>
      <path class="st5" d="M503.9,385.5c0,1.7,1.1,2.4,2.3,2.4s1.4-.2,1.9-.4l.2.9c-.4.2-1.2.4-2.3.4-2.1,0-3.3-1.4-3.3-3.4s1.2-3.6,3.2-3.6,2.8,1.9,2.8,3.2,0,.4,0,.6h-4.8ZM507.5,384.6c0-.8-.3-2-1.7-2s-1.8,1.1-1.9,2h3.6Z"/>
      <path class="st5" d="M510.2,383.7c0-.7,0-1.3,0-1.8h1.1v1.1h0c.3-.6,1.1-1.3,2.2-1.3s2.4.6,2.4,2.9v4h-1.2v-3.9c0-1.1-.4-2-1.6-2s-1.4.6-1.7,1.3c0,.2,0,.4,0,.6v4.1h-1.2v-4.9Z"/>
      <path class="st5" d="M522.9,388.4c-.3.2-1,.4-1.9.4-2,0-3.4-1.4-3.4-3.5s1.4-3.6,3.6-3.6,1.4.2,1.7.4l-.3.9c-.3-.2-.8-.3-1.4-.3-1.6,0-2.4,1.2-2.4,2.6s1,2.5,2.4,2.5,1.2-.2,1.5-.3l.2.9Z"/>
      <path class="st5" d="M525,381.9l1.5,4c.2.4.3,1,.4,1.4h0c.1-.4.3-.9.4-1.4l1.3-4h1.3l-1.8,4.8c-.9,2.3-1.5,3.5-2.3,4.2-.6.5-1.2.7-1.5.8l-.3-1c.3,0,.7-.3,1.1-.6.3-.3.7-.7,1-1.4,0-.1,0-.2,0-.3s0-.2,0-.3l-2.5-6.2h1.3Z"/>
    </g>
    <circle class="st4" cx="195.8" cy="198.3" r="28.6" transform="translate(-62.3 303.3) rotate(-67.5)"/>
    <circle class="st4" cx="271" cy="198.3" r="28.6" transform="translate(49.2 450.4) rotate(-84.8)"/>
    <path class="st6" d="M271,169.7c15.7,0,28.4,12.6,28.6,28.3l-28.6.2v-28.6Z"/>
    <circle class="st4" cx="346.8" cy="198.5" r="28.6" transform="translate(-49.6 147.8) rotate(-22.5)"/>
    <path class="st6" d="M346.8,169.9c15.8,0,28.6,12.8,28.6,28.6s-12.8,28.6-28.6,28.6v-57.1Z"/>
    <circle class="st7" cx="422.4" cy="199.4" r="28.6" transform="translate(-13.1 30.4) rotate(-4.1)"/>
    <path class="st6" d="M422.4,170.8c15.8,0,28.6,12.8,28.6,28.6s-12.8,28.6-28.6,28.6-28.4-12.6-28.6-28.2l28.6-.3v-28.6Z"/>
    <ellipse class="st6" cx="497.5" cy="198" rx="28.6" ry="28.5"/>
    <polygon class="st4" points="159.8 475.7 159.8 429 534.6 475.7 159.8 475.7"/>
    <polygon class="st3" points="534.6 429 534.6 475.7 159.8 429 534.6 429"/>
    <g>
      <path d="M170.2,464.7h0c-.4.7-1.1,1.2-2.2,1.2-1.6,0-2.9-1.4-2.9-3.4s1.6-3.7,3.1-3.7,1.8.5,2.1,1.2h0v-1h1.2c0,.6,0,1.2,0,1.9v7.7h-1.2v-3.8ZM170.2,461.7c0-.2,0-.4,0-.5-.2-.8-.8-1.4-1.8-1.4s-2,1.1-2,2.6.6,2.5,2,2.5,1.5-.5,1.8-1.3c0-.2,0-.4,0-.6v-1.3Z"/>
      <path d="M179.2,463.9c0,.7,0,1.3,0,1.9h-1.1v-1.1h0c-.3.5-1,1.3-2.2,1.3s-2.3-.6-2.3-3v-4h1.2v3.7c0,1.3.4,2.2,1.5,2.2s1.4-.6,1.6-1.1c0-.2.1-.4.1-.6v-4.1h1.2v4.9Z"/>
      <path d="M186,464.1c0,.6,0,1.2,0,1.6h-1.1v-.9h-.1c-.4.5-1.1,1-2.1,1-1.4,0-2.1-1-2.1-1.9,0-1.6,1.5-2.5,4.1-2.5h0c0-.7-.2-1.7-1.5-1.7-.6,0-1.3.2-1.8.5l-.3-.8c.6-.3,1.4-.6,2.2-.6,2.1,0,2.6,1.4,2.6,2.8v2.5ZM184.8,462.3c-1.3,0-2.9.2-2.9,1.5s.5,1.2,1.1,1.2c.9,0,1.5-.6,1.7-1.1,0-.1,0-.3,0-.4v-1.2Z"/>
      <path d="M188,455.8h1.2v9.9h-1.2v-9.9Z"/>
      <path d="M192.6,457.1c0,.4-.3.8-.8.8s-.7-.3-.7-.8.3-.8.8-.8.8.3.8.8ZM191.3,465.7v-6.8h1.2v6.8h-1.2Z"/>
      <path d="M196,457.3v1.6h1.8v.9h-1.8v3.7c0,.8.2,1.3.9,1.3s.5,0,.7,0v.9c-.2,0-.6.2-1,.2s-1-.2-1.3-.5c-.3-.4-.5-1-.5-1.8v-3.7h-1.1v-.9h1.1v-1.3l1.2-.4Z"/>
      <path d="M199.7,459l1.5,4c.2.4.3,1,.4,1.4h0c.1-.4.3-.9.4-1.4l1.3-4h1.3l-1.8,4.8c-.9,2.3-1.5,3.5-2.3,4.2-.6.5-1.2.7-1.5.8l-.3-1c.3,0,.7-.3,1.1-.6.3-.3.7-.7,1-1.4,0-.1,0-.2,0-.3s0-.2,0-.3l-2.5-6.2h1.3Z"/>
      <path d="M213.7,465.5c-.3.2-1,.4-1.9.4-2,0-3.4-1.4-3.4-3.5s1.4-3.6,3.6-3.6,1.4.2,1.7.4l-.3.9c-.3-.2-.8-.3-1.4-.3-1.6,0-2.4,1.2-2.4,2.6s1,2.5,2.4,2.5,1.2-.2,1.5-.3l.2.9Z"/>
      <path d="M221.2,462.3c0,2.5-1.8,3.6-3.4,3.6s-3.2-1.3-3.2-3.5,1.5-3.6,3.4-3.6,3.3,1.4,3.3,3.5ZM215.8,462.4c0,1.5.8,2.6,2,2.6s2.1-1.1,2.1-2.6-.6-2.6-2-2.6-2.1,1.3-2.1,2.6Z"/>
      <path d="M222.7,460.8c0-.7,0-1.3,0-1.8h1.1v1.1h0c.3-.6,1.1-1.3,2.2-1.3s2.4.6,2.4,2.9v4h-1.2v-3.9c0-1.1-.4-2-1.6-2s-1.4.6-1.7,1.3c0,.2,0,.4,0,.6v4.1h-1.2v-4.9Z"/>
    </g>
    <path d="M230.6,465.7v-5.8h-.9v-.9h.9v-.4c0-1.8,1.1-2.9,3-2.9s1.4.2,1.7.4l-.4.9c-.3-.2-.8-.4-1.4-.4-1.3,0-1.7.9-1.7,2v.3h3.9v6.8h-1.2v-5.8h-2.7v5.8h-1.2Z"/>
    <g>
      <path d="M243.7,455.8v8.2c0,.6,0,1.3,0,1.8h-1.1v-1.2h0c-.4.8-1.2,1.3-2.3,1.3-1.6,0-2.9-1.4-2.9-3.4,0-2.3,1.4-3.6,3-3.6s1.7.5,2,1h0v-4h1.2ZM242.5,461.7c0-.2,0-.4,0-.5-.2-.8-.9-1.4-1.8-1.4s-2,1.1-2,2.6.7,2.5,2,2.5,1.6-.6,1.8-1.5c0-.2,0-.3,0-.5v-1.2Z"/>
      <path d="M246.4,462.6c0,1.7,1.1,2.4,2.3,2.4s1.4-.2,1.9-.4l.2.9c-.4.2-1.2.4-2.3.4-2.1,0-3.3-1.4-3.3-3.4s1.2-3.6,3.2-3.6,2.8,1.9,2.8,3.2,0,.4,0,.6h-4.8ZM250,461.7c0-.8-.3-2-1.7-2s-1.8,1.1-1.9,2h3.6Z"/>
      <path d="M252.7,460.8c0-.7,0-1.3,0-1.8h1.1v1.1h0c.3-.6,1.1-1.3,2.2-1.3s2.4.6,2.4,2.9v4h-1.2v-3.9c0-1.1-.4-2-1.6-2s-1.4.6-1.7,1.3c0,.2,0,.4,0,.6v4.1h-1.2v-4.9Z"/>
      <path d="M265.3,465.5c-.3.2-1,.4-1.9.4-2,0-3.4-1.4-3.4-3.5s1.4-3.6,3.6-3.6,1.4.2,1.7.4l-.3.9c-.3-.2-.8-.3-1.4-.3-1.6,0-2.4,1.2-2.4,2.6s1,2.5,2.4,2.5,1.2-.2,1.5-.3l.2.9Z"/>
      <path d="M267.4,462.6c0,1.7,1.1,2.4,2.3,2.4s1.4-.2,1.9-.4l.2.9c-.4.2-1.2.4-2.3.4-2.1,0-3.3-1.4-3.3-3.4s1.2-3.6,3.2-3.6,2.8,1.9,2.8,3.2,0,.4,0,.6h-4.8ZM271,461.7c0-.8-.3-2-1.7-2s-1.8,1.1-1.9,2h3.6Z"/>
    </g>
    <g>
      <path class="st5" d="M472.1,443.4h0c-.4.7-1.1,1.2-2.2,1.2-1.6,0-2.9-1.4-2.9-3.4s1.6-3.7,3.1-3.7,1.8.5,2.1,1.2h0v-1h1.2c0,.6,0,1.2,0,1.9v7.7h-1.2v-3.8ZM472.1,440.4c0-.2,0-.4,0-.5-.2-.8-.8-1.4-1.8-1.4s-2,1.1-2,2.6.6,2.5,2,2.5,1.5-.5,1.8-1.3c0-.2,0-.4,0-.6v-1.3Z"/>
      <path class="st5" d="M481,442.6c0,.7,0,1.3,0,1.9h-1.1v-1.1h0c-.3.5-1,1.3-2.2,1.3s-2.3-.6-2.3-3v-4h1.2v3.7c0,1.3.4,2.2,1.5,2.2s1.4-.6,1.6-1.1c0-.2.1-.4.1-.6v-4.1h1.2v4.9Z"/>
      <path class="st5" d="M487.9,442.8c0,.6,0,1.2,0,1.6h-1.1v-.9h-.1c-.4.5-1.1,1-2.1,1-1.4,0-2.1-1-2.1-1.9,0-1.6,1.5-2.5,4.1-2.5h0c0-.7-.2-1.7-1.5-1.7-.6,0-1.3.2-1.8.5l-.3-.8c.6-.3,1.4-.6,2.2-.6,2.1,0,2.6,1.4,2.6,2.8v2.5ZM486.7,441c-1.3,0-2.9.2-2.9,1.5s.5,1.2,1.1,1.2c.9,0,1.5-.6,1.7-1.1,0-.1,0-.3,0-.4v-1.2Z"/>
      <path class="st5" d="M489.8,434.5h1.2v9.9h-1.2v-9.9Z"/>
      <path class="st5" d="M494.5,435.8c0,.4-.3.8-.8.8s-.7-.3-.7-.8.3-.8.8-.8.8.3.8.8ZM493.1,444.5v-6.8h1.2v6.8h-1.2Z"/>
      <path class="st5" d="M497.9,436.1v1.6h1.8v.9h-1.8v3.7c0,.8.2,1.3.9,1.3s.5,0,.7,0v.9c-.2,0-.6.2-1,.2s-1-.2-1.3-.5c-.3-.4-.5-1-.5-1.8v-3.7h-1.1v-.9h1.1v-1.3l1.2-.4Z"/>
      <path class="st5" d="M501.6,437.7l1.5,4c.2.4.3,1,.4,1.4h0c.1-.4.3-.9.4-1.4l1.3-4h1.3l-1.8,4.8c-.9,2.3-1.5,3.5-2.3,4.2-.6.5-1.2.7-1.5.8l-.3-1c.3,0,.7-.3,1.1-.6.3-.3.7-.7,1-1.4,0-.1,0-.2,0-.3s0-.2,0-.3l-2.5-6.2h1.3Z"/>
      <path class="st5" d="M510.7,439.8c0-.8,0-1.5,0-2.1h1.1v1.3h0c.3-.9,1.1-1.5,1.9-1.5s.2,0,.3,0v1.2c-.1,0-.3,0-.4,0-.9,0-1.5.6-1.7,1.6,0,.2,0,.4,0,.6v3.6h-1.2v-4.7Z"/>
      <path class="st5" d="M516.7,435.8c0,.4-.3.8-.8.8s-.7-.3-.7-.8.3-.8.8-.8.8.3.8.8ZM515.3,444.5v-6.8h1.2v6.8h-1.2Z"/>
      <path class="st5" d="M518.5,443.2c.4.2,1,.5,1.6.5.9,0,1.3-.4,1.3-1s-.3-.9-1.2-1.2c-1.2-.4-1.8-1.1-1.8-1.9s.9-2,2.3-2,1.3.2,1.7.4l-.3.9c-.3-.2-.8-.4-1.4-.4s-1.1.4-1.1.9.4.8,1.3,1.2c1.2.4,1.8,1,1.8,2s-.9,2-2.5,2-1.4-.2-1.9-.5l.3-.9Z"/>
      <path class="st5" d="M525.4,440.8h0c.2-.2.4-.5.6-.8l2-2.3h1.5l-2.6,2.8,3,4h-1.5l-2.3-3.2-.6.7v2.5h-1.2v-9.9h1.2v6.3Z"/>
    </g>
    <polygon class="st4" points="159.2 80.1 159.2 33.4 533.9 80.1 159.2 80.1"/>
    <polygon class="st3" points="533.9 33.4 533.9 80.1 159.2 33.4 533.9 33.4"/>
    <g>
      <path d="M170.4,60.8v4h4.6v-4h1.2v9.4h-1.2v-4.4h-4.6v4.4h-1.2v-9.4h1.2Z"/>
      <path d="M179.5,60.8v5.6c0,2.1.9,3,2.2,3s2.3-.9,2.3-3v-5.6h1.2v5.5c0,2.9-1.5,4.1-3.6,4.1s-3.4-1.1-3.4-4v-5.6h1.2Z"/>
      <path d="M195.3,66.1c0-1.3-.2-2.9-.2-4.1h0c-.3,1.1-.7,2.3-1.2,3.6l-1.7,4.6h-.9l-1.5-4.5c-.4-1.3-.8-2.5-1.1-3.7h0c0,1.2,0,2.7-.2,4.2l-.3,4h-1.2l.7-9.4h1.6l1.6,4.6c.4,1.2.7,2.2,1,3.2h0c.3-1,.6-2,1-3.2l1.7-4.6h1.6l.6,9.4h-1.2l-.2-4.1Z"/>
      <path d="M200,67.3l-1,3h-1.3l3.2-9.4h1.5l3.2,9.4h-1.3l-1-3h-3.3ZM203.1,66.4l-.9-2.7c-.2-.6-.4-1.2-.5-1.7h0c-.1.5-.3,1.1-.5,1.7l-.9,2.7h2.9Z"/>
      <path d="M207.1,70.3v-9.4h1.3l3,4.8c.7,1.1,1.2,2.1,1.7,3.1h0c-.1-1.3-.1-2.4-.1-3.9v-4h1.1v9.4h-1.2l-3-4.8c-.7-1-1.3-2.1-1.8-3.2h0c0,1.2,0,2.3,0,3.9v4h-1.1Z"/>
    </g>
    <g>
      <path class="st5" d="M472.1,47.5l-1,3h-1.3l3.2-9.4h1.5l3.2,9.4h-1.3l-1-3h-3.3ZM475.2,46.5l-.9-2.7c-.2-.6-.4-1.2-.5-1.7h0c-.1.5-.3,1.1-.5,1.7l-.9,2.7h2.9Z"/>
      <path class="st5" d="M480.4,41v9.4h-1.2v-9.4h1.2Z"/>
      <path class="st5" d="M487,47.5l-1,3h-1.3l3.2-9.4h1.5l3.2,9.4h-1.3l-1-3h-3.3ZM490.1,46.5l-.9-2.7c-.2-.6-.4-1.2-.5-1.7h0c-.1.5-.3,1.1-.5,1.7l-.9,2.7h2.9Z"/>
      <path class="st5" d="M501,50c-.5.2-1.6.5-2.9.5s-2.6-.4-3.5-1.2c-.8-.8-1.3-2-1.3-3.5,0-2.8,1.9-4.9,5.1-4.9s2,.2,2.4.4l-.3,1c-.5-.2-1.1-.4-2.1-.4-2.3,0-3.8,1.4-3.8,3.8s1.4,3.8,3.6,3.8,1.3-.1,1.6-.3v-2.8h-1.9v-1h3.1v4.5Z"/>
      <path class="st5" d="M507.7,46h-3.7v3.4h4.1v1h-5.3v-9.4h5.1v1h-3.9v3h3.7v1Z"/>
      <path class="st5" d="M509.7,50.4v-9.4h1.3l3,4.8c.7,1.1,1.2,2.1,1.7,3.1h0c-.1-1.3-.1-2.4-.1-3.9v-4h1.1v9.4h-1.2l-3-4.8c-.7-1-1.3-2.1-1.8-3.2h0c0,1.2,0,2.3,0,3.9v4h-1.1Z"/>
      <path class="st5" d="M520.8,42h-2.9v-1h7v1h-2.9v8.4h-1.2v-8.4Z"/>
    </g>
    <polygon class="st4" points="159.8 364.9 159.8 318.1 534.6 364.9 159.8 364.9"/>
    <polygon class="st3" points="534.6 318.1 534.6 364.9 159.8 318.1 534.6 318.1"/>
    <g>
      <path d="M172.6,354.7c-.3.2-1,.4-1.9.4-2,0-3.4-1.4-3.4-3.5s1.4-3.6,3.6-3.6,1.4.2,1.7.4l-.3.9c-.3-.2-.8-.3-1.4-.3-1.6,0-2.4,1.2-2.4,2.6s1,2.5,2.4,2.5,1.2-.2,1.5-.3l.2.9Z"/>
      <path d="M180.1,351.5c0,2.5-1.8,3.6-3.4,3.6s-3.2-1.3-3.2-3.5,1.5-3.6,3.4-3.6,3.3,1.4,3.3,3.5ZM174.7,351.6c0,1.5.8,2.6,2,2.6s2.1-1.1,2.1-2.6-.6-2.6-2-2.6-2.1,1.3-2.1,2.6Z"/>
      <path d="M181.6,350c0-.7,0-1.3,0-1.8h1.1v1.1h0c.3-.6,1.1-1.3,2.2-1.3s2.4.6,2.4,2.9v4h-1.2v-3.9c0-1.1-.4-2-1.6-2s-1.4.6-1.7,1.3c0,.2,0,.4,0,.6v4.1h-1.2v-4.9Z"/>
      <path d="M190.9,346.5v1.6h1.8v.9h-1.8v3.7c0,.8.2,1.3.9,1.3s.5,0,.7,0v.9c-.2,0-.6.2-1,.2s-1-.2-1.3-.5c-.3-.4-.5-1-.5-1.8v-3.7h-1.1v-.9h1.1v-1.3l1.2-.4Z"/>
      <path d="M194,350.3c0-.8,0-1.5,0-2.1h1.1v1.3h0c.3-.9,1.1-1.5,1.9-1.5s.2,0,.3,0v1.2c-.1,0-.3,0-.4,0-.9,0-1.5.6-1.7,1.6,0,.2,0,.4,0,.6v3.6h-1.2v-4.7Z"/>
      <path d="M204.6,351.5c0,2.5-1.8,3.6-3.4,3.6s-3.2-1.3-3.2-3.5,1.5-3.6,3.4-3.6,3.3,1.4,3.3,3.5ZM199.2,351.6c0,1.5.8,2.6,2,2.6s2.1-1.1,2.1-2.6-.6-2.6-2-2.6-2.1,1.3-2.1,2.6Z"/>
      <path d="M206.1,345h1.2v9.9h-1.2v-9.9Z"/>
      <path d="M217.2,353.3c0,.6,0,1.2,0,1.6h-1.1v-.9h-.1c-.4.5-1.1,1-2.1,1-1.4,0-2.1-1-2.1-1.9,0-1.6,1.5-2.5,4.1-2.5h0c0-.7-.2-1.7-1.5-1.7-.6,0-1.3.2-1.8.5l-.3-.8c.6-.4,1.4-.6,2.2-.6,2.1,0,2.6,1.4,2.6,2.8v2.5ZM216,351.5c-1.3,0-2.9.2-2.9,1.5s.5,1.2,1.1,1.2c.9,0,1.5-.6,1.7-1.1,0-.1,0-.3,0-.4v-1.2Z"/>
      <path d="M224.8,353.1c0,.7,0,1.3,0,1.9h-1.1v-1.1h0c-.3.5-1,1.3-2.2,1.3s-2.3-.6-2.3-3v-4h1.2v3.7c0,1.3.4,2.2,1.5,2.2s1.4-.6,1.6-1.1c0-.2.1-.4.1-.6v-4.1h1.2v4.9Z"/>
      <path d="M228.4,346.5v1.6h1.8v.9h-1.8v3.7c0,.8.2,1.3.9,1.3s.5,0,.7,0v.9c-.2,0-.6.2-1,.2s-1-.2-1.3-.5c-.3-.4-.5-1-.5-1.8v-3.7h-1.1v-.9h1.1v-1.3l1.2-.4Z"/>
      <path d="M231.5,345h1.2v4.2h0c.2-.3.5-.7.9-.9.4-.2.8-.3,1.3-.3.9,0,2.4.6,2.4,2.9v4h-1.2v-3.9c0-1.1-.4-2-1.6-2s-1.4.6-1.7,1.2c0,.2,0,.4,0,.6v4.1h-1.2v-9.9Z"/>
      <path d="M245.4,351.5c0,2.5-1.8,3.6-3.4,3.6s-3.2-1.3-3.2-3.5,1.5-3.6,3.4-3.6,3.3,1.4,3.3,3.5ZM240,351.6c0,1.5.8,2.6,2,2.6s2.1-1.1,2.1-2.6-.6-2.6-2-2.6-2.1,1.3-2.1,2.6Z"/>
      <path d="M247,350.3c0-.8,0-1.5,0-2.1h1.1v1.3h0c.3-.9,1.1-1.5,1.9-1.5s.2,0,.3,0v1.2c-.1,0-.3,0-.4,0-.9,0-1.5.6-1.7,1.6,0,.2,0,.4,0,.6v3.6h-1.2v-4.7Z"/>
      <path d="M252.9,346.3c0,.4-.3.8-.8.8s-.7-.3-.7-.8.3-.8.8-.8.8.3.8.8ZM251.6,354.9v-6.8h1.2v6.8h-1.2Z"/>
      <path d="M256.3,346.5v1.6h1.8v.9h-1.8v3.7c0,.8.2,1.3.9,1.3s.5,0,.7,0v.9c-.2,0-.6.2-1,.2s-1-.2-1.3-.5c-.3-.4-.5-1-.5-1.8v-3.7h-1.1v-.9h1.1v-1.3l1.2-.4Z"/>
      <path d="M260.1,348.2l1.5,4c.2.4.3,1,.4,1.4h0c.1-.4.3-.9.4-1.4l1.3-4h1.3l-1.8,4.8c-.9,2.3-1.5,3.5-2.3,4.2-.6.5-1.2.7-1.5.8l-.3-1c.3,0,.7-.3,1.1-.6.3-.3.7-.7,1-1.4,0-.1,0-.2,0-.3s0-.2,0-.3l-2.5-6.2h1.3Z"/>
    </g>
    <g>
      <path class="st5" d="M474.4,323.7v8.2c0,.6,0,1.3,0,1.8h-1.1v-1.2h0c-.4.8-1.2,1.3-2.3,1.3-1.6,0-2.9-1.4-2.9-3.4,0-2.3,1.4-3.6,3-3.6s1.7.5,2,1h0v-4h1.2ZM473.1,329.6c0-.2,0-.4,0-.5-.2-.8-.9-1.4-1.8-1.4s-2,1.1-2,2.6.7,2.5,2,2.5,1.6-.6,1.8-1.5c0-.2,0-.3,0-.5v-1.2Z"/>
      <path class="st5" d="M477.1,330.5c0,1.7,1.1,2.4,2.3,2.4s1.4-.2,1.9-.4l.2.9c-.4.2-1.2.4-2.3.4-2.1,0-3.3-1.4-3.3-3.4s1.2-3.6,3.2-3.6,2.8,1.9,2.8,3.2,0,.4,0,.6h-4.8ZM480.7,329.6c0-.8-.3-2-1.7-2s-1.8,1.1-1.9,2h3.6Z"/>
      <path class="st5" d="M483.4,323.7h1.2v9.9h-1.2v-9.9Z"/>
      <path class="st5" d="M487.4,330.5c0,1.7,1.1,2.4,2.3,2.4s1.4-.2,1.9-.4l.2.9c-.4.2-1.2.4-2.3.4-2.1,0-3.3-1.4-3.3-3.4s1.2-3.6,3.2-3.6,2.8,1.9,2.8,3.2,0,.4,0,.6h-4.8ZM491,329.6c0-.8-.3-2-1.7-2s-1.8,1.1-1.9,2h3.6Z"/>
      <path class="st5" d="M499.5,332.6c0,1.6-.3,2.5-1,3.1-.7.6-1.6.8-2.5.8s-1.7-.2-2.3-.6l.3-1c.4.3,1.1.5,2,.5,1.3,0,2.2-.7,2.2-2.4v-.7h0c-.4.6-1.1,1.1-2.2,1.1-1.7,0-2.9-1.4-2.9-3.3s1.5-3.6,3.1-3.6,1.8.6,2.1,1.2h0v-1h1.1c0,.5,0,1,0,1.8v3.9ZM498.3,329.5c0-.2,0-.4,0-.5-.2-.7-.8-1.3-1.7-1.3s-2,1-2,2.6.7,2.4,2,2.4,1.5-.5,1.7-1.3c0-.2,0-.4,0-.7v-1.2Z"/>
      <path class="st5" d="M506.3,332c0,.6,0,1.2,0,1.6h-1.1v-.9h-.1c-.4.5-1.1,1-2.1,1-1.4,0-2.1-1-2.1-1.9,0-1.6,1.5-2.5,4.1-2.5h0c0-.7-.2-1.7-1.5-1.7-.6,0-1.3.2-1.8.5l-.3-.8c.6-.3,1.4-.6,2.2-.6,2.1,0,2.6,1.4,2.6,2.8v2.5ZM505.1,330.2c-1.3,0-2.9.2-2.9,1.5s.5,1.2,1.1,1.2c.9,0,1.5-.6,1.7-1.1,0-.1,0-.3,0-.4v-1.2Z"/>
      <path class="st5" d="M509.8,325.2v1.6h1.8v.9h-1.8v3.7c0,.8.2,1.3.9,1.3s.5,0,.7,0v.9c-.2,0-.6.2-1,.2s-1-.2-1.3-.5c-.3-.4-.5-1-.5-1.8v-3.7h-1.1v-.9h1.1v-1.3l1.2-.4Z"/>
      <path class="st5" d="M514.3,325c0,.4-.3.8-.8.8s-.7-.3-.7-.8.3-.8.8-.8.8.3.8.8ZM512.9,333.6v-6.8h1.2v6.8h-1.2Z"/>
      <path class="st5" d="M522.3,330.2c0,2.5-1.8,3.6-3.4,3.6s-3.2-1.3-3.2-3.5,1.5-3.6,3.4-3.6,3.3,1.4,3.3,3.5ZM517,330.3c0,1.5.8,2.6,2,2.6s2.1-1.1,2.1-2.6-.6-2.6-2-2.6-2.1,1.3-2.1,2.6Z"/>
      <path class="st5" d="M523.9,328.7c0-.7,0-1.3,0-1.8h1.1v1.1h0c.3-.6,1.1-1.3,2.2-1.3s2.4.6,2.4,2.9v4h-1.2v-3.9c0-1.1-.4-2-1.6-2s-1.4.6-1.7,1.3c0,.2,0,.4,0,.6v4.1h-1.2v-4.9Z"/>
    </g>
    <g>
      <path d="M169.8,142c0-.9,0-1.6,0-2.2h1.8v.9h.1c.3-.4.9-1.1,2.1-1.1s1.6.5,1.9,1.2h0c.3-.4.6-.6.9-.8.4-.2.8-.3,1.3-.3,1.3,0,2.3.9,2.3,3v4h-2.1v-3.7c0-1-.3-1.6-1-1.6s-.8.3-1,.7c0,.2,0,.4,0,.5v4h-2.1v-3.9c0-.9-.3-1.4-1-1.4s-.9.4-1,.8c0,.2,0,.4,0,.5v4h-2.1v-4.7Z"/>
      <path d="M187.5,145c0,.6,0,1.3.1,1.7h-1.9v-.7h-.2c-.4.5-1.1.8-2,.8-1.4,0-2.2-1-2.2-2.1,0-1.8,1.6-2.6,4-2.6h0c0-.5-.2-1-1.2-1s-1.4.2-1.9.5l-.4-1.4c.5-.3,1.4-.6,2.7-.6,2.3,0,3,1.3,3,3v2.4ZM185.5,143.4c-1.1,0-2,.3-2,1.1s.4.8.8.8,1-.4,1.1-.8c0-.1,0-.2,0-.4v-.7Z"/>
      <path d="M189.2,142c0-.9,0-1.6,0-2.2h1.8v1h.1c.3-.4,1-1.1,2.1-1.1s2.5.9,2.5,3v4h-2.1v-3.8c0-.9-.3-1.5-1.1-1.5s-.9.4-1.1.8c0,.1,0,.3,0,.5v4h-2.1v-4.7Z"/>
      <path d="M203.9,144.4c0,.9,0,1.6,0,2.2h-1.8v-1h-.1c-.3.4-.9,1.1-2.1,1.1s-2.4-.9-2.4-3v-4h2.1v3.7c0,1,.3,1.6,1.1,1.6s.9-.4,1.1-.7c0-.1,0-.3,0-.5v-4.1h2.1v4.7Z"/>
      <path d="M211.3,145c0,.6,0,1.3.1,1.7h-1.9v-.7h-.2c-.4.5-1.1.8-2,.8-1.4,0-2.2-1-2.2-2.1,0-1.8,1.6-2.6,4-2.6h0c0-.5-.2-1-1.2-1s-1.4.2-1.9.5l-.4-1.4c.5-.3,1.4-.6,2.7-.6,2.3,0,3,1.3,3,3v2.4ZM209.2,143.4c-1.1,0-2,.3-2,1.1s.4.8.8.8,1-.4,1.1-.8c0-.1,0-.2,0-.4v-.7Z"/>
      <path d="M213,136.7h2.1v9.9h-2.1v-9.9Z"/>
      <path d="M216.8,136.7h2.1v9.9h-2.1v-9.9Z"/>
      <path d="M222.3,139.8l1,3.4c.1.4.3.9.3,1.3h0c0-.4.2-.9.3-1.3l.9-3.4h2.3l-1.6,4.5c-1,2.7-1.6,3.8-2.4,4.5-.7.6-1.5.9-2,.9l-.5-1.8c.3,0,.6-.2.9-.4.3-.2.7-.5.9-.9,0-.1.1-.2.1-.3s0-.2,0-.3l-2.5-6.3h2.4Z"/>
    </g>
    <g>
      <path d="M468.3,145c0,.6,0,1.3.1,1.7h-1.9v-.7h-.2c-.4.5-1.1.8-2,.8-1.4,0-2.2-1-2.2-2.1,0-1.8,1.6-2.6,4-2.6h0c0-.5-.2-1-1.2-1s-1.4.2-1.9.5l-.4-1.4c.5-.3,1.4-.6,2.7-.6,2.3,0,3,1.3,3,3v2.4ZM466.3,143.4c-1.1,0-2,.3-2,1.1s.4.8.8.8,1-.4,1.1-.8c0-.1,0-.2,0-.4v-.7Z"/>
      <path d="M475.7,144.4c0,.9,0,1.6,0,2.2h-1.8v-1h-.1c-.3.4-.9,1.1-2.1,1.1s-2.4-.9-2.4-3v-4h2.1v3.7c0,1,.3,1.6,1.1,1.6s.9-.4,1.1-.7c0-.1,0-.3,0-.5v-4.1h2.1v4.7Z"/>
      <path d="M479.1,137.9v1.8h1.5v1.6h-1.5v2.5c0,.8.2,1.2.8,1.2s.4,0,.6,0v1.6c-.3,0-.8.2-1.4.2s-1.3-.2-1.6-.6c-.4-.4-.6-1.1-.6-2v-2.8h-.9v-1.6h.9v-1.3l2.1-.6Z"/>
      <path d="M487.8,143.1c0,2.5-1.8,3.7-3.6,3.7s-3.5-1.3-3.5-3.5,1.5-3.6,3.7-3.6,3.5,1.4,3.5,3.5ZM482.8,143.2c0,1.2.5,2.1,1.4,2.1s1.4-.8,1.4-2.1-.4-2-1.4-2-1.4,1.1-1.4,2.1Z"/>
      <path d="M488.3,142c0-.9,0-1.6,0-2.2h1.8v1h.1c.3-.4,1-1.1,2.1-1.1s2.5.9,2.5,3v4h-2.1v-3.8c0-.9-.3-1.5-1.1-1.5s-.9.4-1.1.8c0,.1,0,.3,0,.5v4h-2.1v-4.7Z"/>
      <path d="M502.6,143.1c0,2.5-1.8,3.7-3.6,3.7s-3.5-1.3-3.5-3.5,1.5-3.6,3.7-3.6,3.5,1.4,3.5,3.5ZM497.6,143.2c0,1.2.5,2.1,1.4,2.1s1.4-.8,1.4-2.1-.4-2-1.4-2-1.4,1.1-1.4,2.1Z"/>
      <path d="M503.1,142c0-.9,0-1.6,0-2.2h1.8v.9h.1c.3-.4.9-1.1,2.1-1.1s1.6.5,1.9,1.2h0c.3-.4.6-.6.9-.8.4-.2.8-.3,1.3-.3,1.3,0,2.3.9,2.3,3v4h-2.1v-3.7c0-1-.3-1.6-1-1.6s-.8.3-1,.7c0,.2,0,.4,0,.5v4h-2.1v-3.9c0-.9-.3-1.4-1-1.4s-.9.4-1,.8c0,.2,0,.4,0,.5v4h-2.1v-4.7Z"/>
      <path d="M521.2,143.1c0,2.5-1.8,3.7-3.6,3.7s-3.5-1.3-3.5-3.5,1.5-3.6,3.7-3.6,3.5,1.4,3.5,3.5ZM516.2,143.2c0,1.2.5,2.1,1.4,2.1s1.4-.8,1.4-2.1-.4-2-1.4-2-1.4,1.1-1.4,2.1Z"/>
      <path d="M528.2,144.4c0,.9,0,1.6,0,2.2h-1.8v-1h-.1c-.3.4-.9,1.1-2.1,1.1s-2.4-.9-2.4-3v-4h2.1v3.7c0,1,.3,1.6,1.1,1.6s.9-.4,1.1-.7c0-.1,0-.3,0-.5v-4.1h2.1v4.7Z"/>
      <path d="M529.2,144.8c.4.2,1.2.5,1.8.5s.9-.2.9-.6-.2-.5-1-.8c-1.4-.5-2-1.2-2-2.1,0-1.3,1.1-2.3,2.8-2.3s1.5.2,1.9.4l-.4,1.5c-.3-.2-.9-.4-1.5-.4s-.8.2-.8.5.3.5,1.1.8c1.3.4,1.8,1.1,1.8,2.1,0,1.3-1,2.2-3,2.2s-1.7-.2-2.2-.5l.4-1.5Z"/>
    </g>
    <g>
      <path d="M399.1,136.7v7.9c0,.8,0,1.6,0,2h-1.9v-1h-.1c-.4.8-1.3,1.1-2.1,1.1-1.6,0-2.9-1.4-2.9-3.5,0-2.3,1.4-3.7,3.1-3.7s1.5.3,1.8.8h0v-3.7h2.1ZM396.9,142.7c0-.1,0-.3,0-.4-.1-.6-.6-1-1.2-1-1,0-1.5.9-1.5,1.9s.6,1.9,1.5,1.9,1.1-.4,1.2-1c0-.2,0-.3,0-.5v-.9Z"/>
      <path d="M402.4,143.9c0,.9.9,1.3,1.9,1.3s1.3,0,1.9-.3l.3,1.4c-.7.3-1.6.4-2.5.4-2.3,0-3.7-1.3-3.7-3.5s1.1-3.7,3.5-3.7,3.1,1.7,3.1,3.4,0,.7,0,.8h-4.4ZM404.9,142.4c0-.5-.2-1.4-1.2-1.4s-1.3.8-1.3,1.4h2.5Z"/>
      <path d="M408.2,136.7h2.1v9.9h-2.1v-9.9Z"/>
      <path d="M413.6,143.9c0,.9.9,1.3,1.9,1.3s1.3,0,1.9-.3l.3,1.4c-.7.3-1.6.4-2.5.4-2.3,0-3.7-1.3-3.7-3.5s1.1-3.7,3.5-3.7,3.1,1.7,3.1,3.4,0,.7,0,.8h-4.4ZM416.2,142.4c0-.5-.2-1.4-1.2-1.4s-1.3.8-1.3,1.4h2.5Z"/>
      <path d="M425.9,145.6c0,1.3-.3,2.4-1.1,3.1-.7.6-1.8.8-2.8.8s-1.8-.2-2.5-.5l.4-1.6c.4.3,1.2.5,2,.5s1.8-.5,1.8-1.8v-.4h0c-.4.6-1.1.9-1.8.9-1.7,0-2.9-1.4-2.9-3.3s1.4-3.6,3.1-3.6,1.5.4,1.9,1h0v-.8h1.9c0,.4,0,1,0,2v3.8ZM423.8,142.6c0-.1,0-.3,0-.4-.2-.6-.6-.9-1.1-.9s-1.4.7-1.4,1.9.5,1.8,1.4,1.8,1-.4,1.1-.9c0-.2,0-.4,0-.6v-1Z"/>
      <path d="M433.3,145c0,.6,0,1.3.1,1.7h-1.9v-.7h-.2c-.4.5-1.1.8-2,.8-1.4,0-2.2-1-2.2-2.1,0-1.8,1.6-2.6,4-2.6h0c0-.5-.2-1-1.2-1s-1.4.2-1.9.5l-.4-1.4c.5-.3,1.4-.6,2.7-.6,2.3,0,3,1.3,3,3v2.4ZM431.2,143.4c-1.1,0-2,.3-2,1.1s.4.8.8.8,1-.4,1.1-.8c0-.1,0-.2,0-.4v-.7Z"/>
      <path d="M437.3,137.9v1.8h1.5v1.6h-1.5v2.5c0,.8.2,1.2.8,1.2s.4,0,.6,0v1.6c-.3,0-.8.2-1.4.2s-1.3-.2-1.6-.6c-.4-.4-.6-1.1-.6-2v-2.8h-.9v-1.6h.9v-1.3l2.1-.6Z"/>
      <path d="M441.6,143.9c0,.9.9,1.3,1.9,1.3s1.3,0,1.9-.3l.3,1.4c-.7.3-1.6.4-2.5.4-2.3,0-3.7-1.3-3.7-3.5s1.1-3.7,3.5-3.7,3.1,1.7,3.1,3.4,0,.7,0,.8h-4.4ZM444.1,142.4c0-.5-.2-1.4-1.2-1.4s-1.3.8-1.3,1.4h2.5Z"/>
      <path d="M454,136.7v7.9c0,.8,0,1.6,0,2h-1.9v-1h-.1c-.4.8-1.3,1.1-2.1,1.1-1.6,0-2.9-1.4-2.9-3.5,0-2.3,1.4-3.7,3.1-3.7s1.5.3,1.8.8h0v-3.7h2.1ZM451.9,142.7c0-.1,0-.3,0-.4-.1-.6-.6-1-1.2-1-1,0-1.5.9-1.5,1.9s.6,1.9,1.5,1.9,1.1-.4,1.2-1c0-.2,0-.3,0-.5v-.9Z"/>
    </g>
    <g>
      <path d="M333.1,145c0,.6,0,1.3.1,1.7h-1.9v-.7h-.2c-.4.5-1.1.8-2,.8-1.4,0-2.2-1-2.2-2.1,0-1.8,1.6-2.6,4-2.6h0c0-.5-.2-1-1.2-1s-1.4.2-1.9.5l-.4-1.4c.5-.3,1.4-.6,2.7-.6,2.3,0,3,1.3,3,3v2.4ZM331,143.4c-1.1,0-2,.3-2,1.1s.4.8.8.8,1-.4,1.1-.8c0-.1,0-.2,0-.4v-.7Z"/>
      <path d="M341.3,145.6c0,1.3-.3,2.4-1.1,3.1-.7.6-1.8.8-2.8.8s-1.8-.2-2.5-.5l.4-1.6c.4.3,1.2.5,2,.5s1.8-.5,1.8-1.8v-.4h0c-.4.6-1.1.9-1.8.9-1.7,0-2.9-1.4-2.9-3.3s1.4-3.6,3.1-3.6,1.5.4,1.9,1h0v-.8h1.9c0,.4,0,1,0,2v3.8ZM339.1,142.6c0-.1,0-.3,0-.4-.2-.6-.6-.9-1.1-.9s-1.4.7-1.4,1.9.5,1.8,1.4,1.8,1-.4,1.1-.9c0-.2,0-.4,0-.6v-1Z"/>
      <path d="M344.6,143.9c0,.9.9,1.3,1.9,1.3s1.3,0,1.9-.3l.3,1.4c-.7.3-1.6.4-2.5.4-2.3,0-3.7-1.3-3.7-3.5s1.1-3.7,3.5-3.7,3.1,1.7,3.1,3.4,0,.7,0,.8h-4.4ZM347.1,142.4c0-.5-.2-1.4-1.2-1.4s-1.3.8-1.3,1.4h2.5Z"/>
      <path d="M350.4,142c0-.9,0-1.6,0-2.2h1.8v1h.1c.3-.4,1-1.1,2.1-1.1s2.5.9,2.5,3v4h-2.1v-3.8c0-.9-.3-1.5-1.1-1.5s-.9.4-1.1.8c0,.1,0,.3,0,.5v4h-2.1v-4.7Z"/>
      <path d="M360.9,137.9v1.8h1.5v1.6h-1.5v2.5c0,.8.2,1.2.8,1.2s.4,0,.6,0v1.6c-.3,0-.8.2-1.4.2s-1.3-.2-1.6-.6c-.4-.4-.6-1.1-.6-2v-2.8h-.9v-1.6h.9v-1.3l2.1-.6Z"/>
      <path d="M365.8,137.9c0,.6-.4,1.1-1.1,1.1s-1.1-.5-1.1-1.1.4-1.1,1.1-1.1,1.1.5,1.1,1.1ZM363.6,146.6v-6.8h2.1v6.8h-2.1Z"/>
      <path d="M372.6,146.4c-.4.2-1.1.3-1.9.3-2.2,0-3.6-1.4-3.6-3.5s1.4-3.6,3.9-3.6,1.2,0,1.6.3l-.3,1.6c-.3-.1-.6-.2-1.2-.2-1.1,0-1.8.8-1.8,1.9,0,1.2.8,1.9,1.9,1.9s.9,0,1.2-.2l.3,1.6Z"/>
    </g>
    <g>
      <path d="M255.1,145c0,.6,0,1.3.1,1.7h-1.9v-.7h-.2c-.4.5-1.1.8-2,.8-1.4,0-2.2-1-2.2-2.1,0-1.8,1.6-2.6,4-2.6h0c0-.5-.2-1-1.2-1s-1.4.2-1.9.5l-.4-1.4c.5-.3,1.4-.6,2.7-.6,2.3,0,3,1.3,3,3v2.4ZM253,143.4c-1.1,0-2,.3-2,1.1s.4.8.8.8,1-.4,1.1-.8c0-.1,0-.2,0-.4v-.7Z"/>
      <path d="M256.8,144.8c.4.2,1.2.5,1.8.5s.9-.2.9-.6-.2-.5-1-.8c-1.4-.5-2-1.2-2-2.1,0-1.3,1.1-2.3,2.8-2.3s1.5.2,1.9.4l-.4,1.5c-.3-.2-.9-.4-1.5-.4s-.8.2-.8.5.3.5,1.1.8c1.3.4,1.8,1.1,1.8,2.1,0,1.3-1,2.2-3,2.2s-1.7-.2-2.2-.5l.4-1.5Z"/>
      <path d="M262.8,144.8c.4.2,1.2.5,1.8.5s.9-.2.9-.6-.2-.5-1-.8c-1.4-.5-2-1.2-2-2.1,0-1.3,1.1-2.3,2.8-2.3s1.5.2,1.9.4l-.4,1.5c-.3-.2-.9-.4-1.5-.4s-.8.2-.8.5.3.5,1.1.8c1.3.4,1.8,1.1,1.8,2.1,0,1.3-1,2.2-3,2.2s-1.7-.2-2.2-.5l.4-1.5Z"/>
      <path d="M271.1,137.9c0,.6-.4,1.1-1.1,1.1s-1.1-.5-1.1-1.1.4-1.1,1.1-1.1,1.1.5,1.1,1.1ZM268.9,146.6v-6.8h2.1v6.8h-2.1Z"/>
      <path d="M272.8,144.8c.4.2,1.2.5,1.8.5s.9-.2.9-.6-.2-.5-1-.8c-1.4-.5-2-1.2-2-2.1,0-1.3,1.1-2.3,2.8-2.3s1.5.2,1.9.4l-.4,1.5c-.3-.2-.9-.4-1.5-.4s-.8.2-.8.5.3.5,1.1.8c1.3.4,1.8,1.1,1.8,2.1,0,1.3-1,2.2-3,2.2s-1.7-.2-2.2-.5l.4-1.5Z"/>
      <path d="M281.2,137.9v1.8h1.5v1.6h-1.5v2.5c0,.8.2,1.2.8,1.2s.4,0,.6,0v1.6c-.3,0-.8.2-1.4.2s-1.3-.2-1.6-.6c-.4-.4-.6-1.1-.6-2v-2.8h-.9v-1.6h.9v-1.3l2.1-.6Z"/>
      <path d="M285.6,143.9c0,.9.9,1.3,1.9,1.3s1.3,0,1.9-.3l.3,1.4c-.7.3-1.6.4-2.5.4-2.3,0-3.7-1.3-3.7-3.5s1.1-3.7,3.5-3.7,3.1,1.7,3.1,3.4,0,.7,0,.8h-4.4ZM288.1,142.4c0-.5-.2-1.4-1.2-1.4s-1.3.8-1.3,1.4h2.5Z"/>
      <path d="M298,136.7v7.9c0,.8,0,1.6,0,2h-1.9v-1h-.1c-.4.8-1.3,1.1-2.1,1.1-1.6,0-2.9-1.4-2.9-3.5,0-2.3,1.4-3.7,3.1-3.7s1.5.3,1.8.8h0v-3.7h2.1ZM295.8,142.7c0-.1,0-.3,0-.4-.1-.6-.6-1-1.2-1-1,0-1.5.9-1.5,1.9s.6,1.9,1.5,1.9,1.1-.4,1.2-1c0-.2,0-.3,0-.5v-.9Z"/>
    </g>
    <g>
      <path class="st5" d="M181.7,294.4c0-.5.4-.9.8-.9s.8.4.8.9-.3.9-.9.9-.8-.4-.8-.9ZM186.4,294.4c0-.5.4-.9.8-.9s.8.4.8.9-.3.9-.9.9-.8-.4-.8-.9ZM191,294.4c0-.5.4-.9.8-.9s.8.4.8.9-.3.9-.9.9-.8-.4-.8-.9Z"/>
      <path class="st5" d="M194.8,295.1v-.8l1-.9c2.3-2.2,3.4-3.4,3.4-4.8s-.4-1.8-1.8-1.8-1.5.4-1.9.8l-.4-.9c.6-.5,1.5-.9,2.6-.9,2,0,2.8,1.3,2.8,2.6s-1.2,3-3.1,4.9l-.7.7h0s4.1,0,4.1,0v1h-5.8Z"/>
      <path class="st5" d="M208.1,290.5c0,3.1-1.2,4.8-3.2,4.8s-3-1.7-3-4.7c0-3.1,1.3-4.7,3.2-4.7s3,1.7,3,4.6ZM203.1,290.6c0,2.4.7,3.7,1.8,3.7s1.8-1.5,1.8-3.8-.6-3.7-1.8-3.7-1.8,1.3-1.8,3.8Z"/>
      <path class="st5" d="M209.2,295.1v-.8l1-.9c2.3-2.2,3.4-3.4,3.4-4.8s-.4-1.8-1.8-1.8-1.5.4-1.9.8l-.4-.9c.6-.5,1.5-.9,2.6-.9,2,0,2.8,1.3,2.8,2.6s-1.2,3-3.1,4.9l-.7.7h0s4.1,0,4.1,0v1h-5.8Z"/>
      <path class="st5" d="M221.8,287h-3.5l-.4,2.3c.2,0,.4,0,.7,0,.7,0,1.4.1,2,.5.7.4,1.3,1.2,1.3,2.3,0,1.8-1.4,3.1-3.4,3.1s-1.8-.3-2.3-.6l.3-.9c.4.2,1.1.5,2,.5s2.2-.8,2.1-2c0-1.2-.8-2-2.6-2s-.9,0-1.3,0l.6-4.4h4.4v1Z"/>
    </g>
    <g>
      <path class="st5" d="M472.6,293.9c.3.2,1.1.6,2,.6,1.6,0,2.1-1,2.1-1.8,0-1.3-1.2-1.8-2.4-1.8h-.7v-.9h.7c.9,0,2-.5,2-1.5s-.5-1.4-1.6-1.4-1.4.3-1.8.6l-.3-.9c.5-.4,1.4-.7,2.4-.7,1.8,0,2.6,1.1,2.6,2.2s-.6,1.8-1.7,2.2h0c1.1.2,2,1.1,2,2.4,0,1.5-1.1,2.7-3.3,2.7s-1.9-.3-2.4-.6l.3-.9Z"/>
      <path class="st5" d="M479.9,290.6c0-.8,0-1.5,0-2.1h1.1v1.3h0c.3-.9,1.1-1.5,1.9-1.5s.2,0,.3,0v1.2c-.1,0-.3,0-.4,0-.9,0-1.5.6-1.7,1.6,0,.2,0,.4,0,.6v3.6h-1.2v-4.7Z"/>
      <path class="st5" d="M490.1,285.3v8.2c0,.6,0,1.3,0,1.8h-1.1v-1.2h0c-.4.8-1.2,1.3-2.3,1.3-1.6,0-2.9-1.4-2.9-3.4,0-2.3,1.4-3.6,3-3.6s1.7.5,2,1h0v-4h1.2ZM488.9,291.2c0-.2,0-.4,0-.5-.2-.8-.9-1.4-1.8-1.4s-2,1.1-2,2.6.7,2.5,2,2.5,1.6-.6,1.8-1.5c0-.2,0-.3,0-.5v-1.2Z"/>
      <path class="st5" d="M495.2,290.7c0-.9,0-1.6,0-2.2h1.1v1.2h0c.5-.8,1.3-1.3,2.4-1.3,1.7,0,2.9,1.4,2.9,3.4s-1.5,3.6-3.1,3.6-1.7-.4-2.1-1.1h0v3.7h-1.2v-7.3ZM496.4,292.5c0,.2,0,.4,0,.5.2.9,1,1.4,1.8,1.4,1.3,0,2.1-1.1,2.1-2.6s-.7-2.5-2-2.5-1.6.6-1.9,1.5c0,.2,0,.3,0,.5v1.2Z"/>
      <path class="st5" d="M507.9,293.6c0,.6,0,1.2,0,1.6h-1.1v-.9h-.1c-.4.5-1.1,1-2.1,1-1.4,0-2.1-1-2.1-1.9,0-1.6,1.5-2.5,4.1-2.5h0c0-.7-.2-1.7-1.5-1.7-.6,0-1.3.2-1.8.5l-.3-.8c.6-.3,1.4-.6,2.2-.6,2.1,0,2.6,1.4,2.6,2.8v2.5ZM506.7,291.8c-1.3,0-2.9.2-2.9,1.5s.5,1.2,1.1,1.2c.9,0,1.5-.6,1.7-1.1,0-.1,0-.3,0-.4v-1.2Z"/>
      <path class="st5" d="M509.9,290.6c0-.8,0-1.5,0-2.1h1.1v1.3h0c.3-.9,1.1-1.5,1.9-1.5s.2,0,.3,0v1.2c-.1,0-.3,0-.4,0-.9,0-1.5.6-1.7,1.6,0,.2,0,.4,0,.6v3.6h-1.2v-4.7Z"/>
      <path class="st5" d="M516.3,286.9v1.6h1.8v.9h-1.8v3.7c0,.8.2,1.3.9,1.3s.5,0,.7,0v.9c-.2,0-.6.2-1,.2s-1-.2-1.3-.5c-.3-.4-.5-1-.5-1.8v-3.7h-1.1v-.9h1.1v-1.3l1.2-.4Z"/>
      <path class="st5" d="M520,288.5l1.5,4c.2.4.3,1,.4,1.4h0c.1-.4.3-.9.4-1.4l1.3-4h1.3l-1.8,4.8c-.9,2.3-1.5,3.5-2.3,4.2-.6.5-1.2.7-1.5.8l-.3-1c.3,0,.7-.3,1.1-.6.3-.3.7-.7,1-1.4,0-.1,0-.2,0-.3s0-.2,0-.3l-2.5-6.2h1.3Z"/>
    </g>
    <path class="st5" d="M400,291.7c0,2.5-1.8,3.6-3.4,3.6s-3.2-1.3-3.2-3.5,1.5-3.6,3.4-3.6,3.3,1.4,3.3,3.5ZM394.6,291.7c0,1.5.8,2.6,2,2.6s2.1-1.1,2.1-2.6-.6-2.6-2-2.6-2.1,1.3-2.1,2.6Z"/>
    <path class="st5" d="M405.7,295.1v-5.8h-2.9v5.8h-1.2v-5.8h-.9v-.9h.9v-.2c0-1,.2-1.8.8-2.3.4-.4,1-.6,1.7-.6s.8.1,1,.2l-.3.9c-.2,0-.4-.2-.7-.2-1,0-1.2.8-1.2,1.9v.3h2.9v-.3c0-1,.2-1.8.8-2.4.5-.4,1.1-.6,1.6-.6s.8,0,1.1.2l-.2,1c-.2,0-.4-.2-.8-.2-1,0-1.3.9-1.3,2v.4h1.6v.9h-1.6v5.8h-1.2Z"/>
    <g>
      <path class="st5" d="M409.4,293.9c.4.2,1,.5,1.6.5.9,0,1.3-.4,1.3-1s-.3-.9-1.2-1.2c-1.2-.4-1.8-1.1-1.8-1.9s.9-2,2.3-2,1.3.2,1.7.4l-.3.9c-.3-.2-.8-.4-1.4-.4s-1.1.4-1.1.9.4.8,1.3,1.2c1.2.4,1.8,1,1.8,2s-.9,2-2.5,2-1.4-.2-1.9-.5l.3-.9Z"/>
      <path class="st5" d="M415.1,285.2h1.2v4.2h0c.2-.4.5-.7.9-.9.4-.2.8-.3,1.3-.3.9,0,2.4.6,2.4,2.9v4h-1.2v-3.9c0-1.1-.4-2-1.6-2s-1.4.6-1.7,1.2c0,.2,0,.4,0,.6v4.1h-1.2v-9.9Z"/>
      <path class="st5" d="M429,291.7c0,2.5-1.8,3.6-3.4,3.6s-3.2-1.3-3.2-3.5,1.5-3.6,3.4-3.6,3.3,1.4,3.3,3.5ZM423.7,291.7c0,1.5.8,2.6,2,2.6s2.1-1.1,2.1-2.6-.6-2.6-2-2.6-2.1,1.3-2.1,2.6Z"/>
      <path class="st5" d="M430.6,290.4c0-.8,0-1.5,0-2.1h1.1v1.3h0c.3-.9,1.1-1.5,1.9-1.5s.2,0,.3,0v1.2c-.1,0-.3,0-.4,0-.9,0-1.5.6-1.7,1.6,0,.2,0,.4,0,.6v3.6h-1.2v-4.7Z"/>
      <path class="st5" d="M436.6,286.4c0,.4-.3.8-.8.8s-.7-.3-.7-.8.3-.8.8-.8.8.3.8.8ZM435.2,295.1v-6.8h1.2v6.8h-1.2Z"/>
      <path class="st5" d="M438.5,290.2c0-.7,0-1.3,0-1.8h1.1v1.1h0c.3-.6,1.1-1.3,2.2-1.3s2.4.6,2.4,2.9v4h-1.2v-3.9c0-1.1-.4-2-1.6-2s-1.4.6-1.7,1.3c0,.2,0,.4,0,.6v4.1h-1.2v-4.9Z"/>
      <path class="st5" d="M452,294.1c0,1.6-.3,2.5-1,3.1-.7.6-1.6.8-2.5.8s-1.7-.2-2.3-.6l.3-1c.4.3,1.1.5,2,.5,1.3,0,2.2-.7,2.2-2.4v-.7h0c-.4.6-1.1,1.1-2.2,1.1-1.7,0-2.9-1.4-2.9-3.3s1.5-3.6,3.1-3.6,1.8.6,2.1,1.2h0v-1h1.1c0,.5,0,1,0,1.8v3.9ZM450.8,291c0-.2,0-.4,0-.5-.2-.7-.8-1.3-1.7-1.3s-2,1-2,2.6.7,2.4,2,2.4,1.5-.5,1.7-1.3c0-.2,0-.4,0-.7v-1.2Z"/>
    </g>
    <g>
      <path class="st5" d="M250.6,293.5c0,.6,0,1.2,0,1.6h-1.1v-.9h-.1c-.4.5-1.1,1-2.1,1-1.4,0-2.1-1-2.1-1.9,0-1.6,1.5-2.5,4.1-2.5h0c0-.7-.2-1.7-1.5-1.7-.6,0-1.3.2-1.8.5l-.3-.8c.6-.3,1.4-.6,2.2-.6,2.1,0,2.6,1.4,2.6,2.8v2.5ZM249.4,291.6c-1.3,0-2.9.2-2.9,1.5s.5,1.2,1.1,1.2c.9,0,1.5-.6,1.7-1.1,0-.1,0-.3,0-.4v-1.2Z"/>
      <path class="st5" d="M252.4,293.9c.4.2,1,.5,1.6.5.9,0,1.3-.4,1.3-1s-.3-.9-1.2-1.2c-1.2-.4-1.8-1.1-1.8-1.9s.9-2,2.3-2,1.3.2,1.7.4l-.3.9c-.3-.2-.8-.4-1.4-.4s-1.1.4-1.1.9.4.8,1.3,1.2c1.2.4,1.8,1,1.8,2s-.9,2-2.5,2-1.4-.2-1.9-.5l.3-.9Z"/>
      <path class="st5" d="M258,293.9c.4.2,1,.5,1.6.5.9,0,1.3-.4,1.3-1s-.3-.9-1.2-1.2c-1.2-.4-1.8-1.1-1.8-1.9s.9-2,2.3-2,1.3.2,1.7.4l-.3.9c-.3-.2-.8-.4-1.4-.4s-1.1.4-1.1.9.4.8,1.3,1.2c1.2.4,1.8,1,1.8,2s-.9,2-2.5,2-1.4-.2-1.9-.5l.3-.9Z"/>
      <path class="st5" d="M265,286.4c0,.4-.3.8-.8.8s-.7-.3-.7-.8.3-.8.8-.8.8.3.8.8ZM263.7,295.1v-6.8h1.2v6.8h-1.2Z"/>
      <path class="st5" d="M266.8,293.9c.4.2,1,.5,1.6.5.9,0,1.3-.4,1.3-1s-.3-.9-1.2-1.2c-1.2-.4-1.8-1.1-1.8-1.9s.9-2,2.3-2,1.3.2,1.7.4l-.3.9c-.3-.2-.8-.4-1.4-.4s-1.1.4-1.1.9.4.8,1.3,1.2c1.2.4,1.8,1,1.8,2s-.9,2-2.5,2-1.4-.2-1.9-.5l.3-.9Z"/>
      <path class="st5" d="M274,286.7v1.6h1.8v.9h-1.8v3.7c0,.8.2,1.3.9,1.3s.5,0,.7,0v.9c-.2,0-.6.2-1,.2s-1-.2-1.3-.5c-.3-.4-.5-1-.5-1.8v-3.7h-1.1v-.9h1.1v-1.3l1.2-.4Z"/>
      <path class="st5" d="M281.9,293.5c0,.6,0,1.2,0,1.6h-1.1v-.9h-.1c-.4.5-1.1,1-2.1,1-1.4,0-2.1-1-2.1-1.9,0-1.6,1.5-2.5,4.1-2.5h0c0-.7-.2-1.7-1.5-1.7-.6,0-1.3.2-1.8.5l-.3-.8c.6-.3,1.4-.6,2.2-.6,2.1,0,2.6,1.4,2.6,2.8v2.5ZM280.7,291.6c-1.3,0-2.9.2-2.9,1.5s.5,1.2,1.1,1.2c.9,0,1.5-.6,1.7-1.1,0-.1,0-.3,0-.4v-1.2Z"/>
      <path class="st5" d="M283.9,290.2c0-.7,0-1.3,0-1.8h1.1v1.1h0c.3-.6,1.1-1.3,2.2-1.3s2.4.6,2.4,2.9v4h-1.2v-3.9c0-1.1-.4-2-1.6-2s-1.4.6-1.7,1.3c0,.2,0,.4,0,.6v4.1h-1.2v-4.9Z"/>
      <path class="st5" d="M293.1,286.7v1.6h1.8v.9h-1.8v3.7c0,.8.2,1.3.9,1.3s.5,0,.7,0v.9c-.2,0-.6.2-1,.2s-1-.2-1.3-.5c-.3-.4-.5-1-.5-1.8v-3.7h-1.1v-.9h1.1v-1.3l1.2-.4Z"/>
    </g>
    <g>
      <path class="st5" d="M324,294.9c-.3.2-1,.4-1.9.4-2,0-3.4-1.4-3.4-3.5s1.4-3.6,3.6-3.6,1.4.2,1.7.4l-.3.9c-.3-.2-.8-.3-1.4-.3-1.6,0-2.4,1.2-2.4,2.6s1,2.5,2.4,2.5,1.2-.2,1.5-.3l.2.9Z"/>
      <path class="st5" d="M331.5,291.7c0,2.5-1.8,3.6-3.4,3.6s-3.2-1.3-3.2-3.5,1.5-3.6,3.4-3.6,3.3,1.4,3.3,3.5ZM326.1,291.7c0,1.5.8,2.6,2,2.6s2.1-1.1,2.1-2.6-.6-2.6-2-2.6-2.1,1.3-2.1,2.6Z"/>
      <path class="st5" d="M336.1,290.9v.9h-3.5v-.9h3.5Z"/>
      <path class="st5" d="M338,288.3l.9,3.4c.2.8.4,1.5.5,2.2h0c.2-.7.4-1.4.6-2.1l1.1-3.5h1l1.1,3.4c.3.8.4,1.5.6,2.2h0c.1-.7.3-1.4.5-2.2l1-3.4h1.2l-2.2,6.8h-1.1l-1-3.2c-.2-.8-.4-1.4-.6-2.2h0c-.2.8-.4,1.5-.6,2.2l-1.1,3.2h-1.1l-2-6.8h1.3Z"/>
      <path class="st5" d="M353.8,291.7c0,2.5-1.8,3.6-3.4,3.6s-3.2-1.3-3.2-3.5,1.5-3.6,3.4-3.6,3.3,1.4,3.3,3.5ZM348.4,291.7c0,1.5.8,2.6,2,2.6s2.1-1.1,2.1-2.6-.6-2.6-2-2.6-2.1,1.3-2.1,2.6Z"/>
      <path class="st5" d="M355.3,290.4c0-.8,0-1.5,0-2.1h1.1v1.3h0c.3-.9,1.1-1.5,1.9-1.5s.2,0,.3,0v1.2c-.1,0-.3,0-.4,0-.9,0-1.5.6-1.7,1.6,0,.2,0,.4,0,.6v3.6h-1.2v-4.7Z"/>
      <path class="st5" d="M361.2,291.4h0c.2-.2.4-.5.6-.8l2-2.3h1.5l-2.6,2.8,3,4h-1.5l-2.3-3.2-.6.7v2.5h-1.2v-9.9h1.2v6.3Z"/>
      <path class="st5" d="M367.2,291.9c0,1.7,1.1,2.4,2.3,2.4s1.4-.2,1.9-.4l.2.9c-.4.2-1.2.4-2.3.4-2.1,0-3.3-1.4-3.3-3.4s1.2-3.6,3.2-3.6,2.8,1.9,2.8,3.2,0,.4,0,.6h-4.8ZM370.8,291.1c0-.8-.3-2-1.7-2s-1.8,1.1-1.9,2h3.6Z"/>
      <path class="st5" d="M373.5,290.4c0-.8,0-1.5,0-2.1h1.1v1.3h0c.3-.9,1.1-1.5,1.9-1.5s.2,0,.3,0v1.2c-.1,0-.3,0-.4,0-.9,0-1.5.6-1.7,1.6,0,.2,0,.4,0,.6v3.6h-1.2v-4.7Z"/>
    </g>
    <g>
      <path class="st5" d="M17,204.3l-3.1-9.4h1.3l1.5,4.7c.4,1.3.7,2.4,1,3.5h0c.3-1.1.6-2.3,1.1-3.5l1.6-4.7h1.3l-3.4,9.4h-1.3Z"/>
      <path class="st5" d="M23.9,195.7c0,.4-.3.8-.8.8s-.7-.3-.7-.8.3-.8.8-.8.8.3.8.8ZM22.5,204.3v-6.8h1.2v6.8h-1.2Z"/>
      <path class="st5" d="M26.5,201.2c0,1.7,1.1,2.4,2.3,2.4s1.4-.2,1.9-.4l.2.9c-.4.2-1.2.4-2.3.4-2.1,0-3.3-1.4-3.3-3.4s1.2-3.6,3.2-3.6,2.8,1.9,2.8,3.2,0,.4,0,.6h-4.8ZM30.1,200.3c0-.8-.3-2-1.7-2s-1.8,1.1-1.9,2h3.6Z"/>
      <path class="st5" d="M33.3,197.6l.9,3.4c.2.8.4,1.5.5,2.2h0c.2-.7.4-1.4.6-2.1l1.1-3.5h1l1.1,3.4c.3.8.4,1.5.6,2.2h0c.1-.7.3-1.4.5-2.2l1-3.4h1.2l-2.2,6.8h-1.1l-1-3.2c-.2-.8-.4-1.4-.6-2.2h0c-.2.8-.4,1.5-.6,2.2l-1.1,3.2h-1.1l-2-6.8h1.3Z"/>
    </g>
    <g>
      <path d="M14.8,341.3c.5.3,1.3.6,2.2.6,1.2,0,2-.7,2-1.6s-.5-1.4-1.8-1.9c-1.5-.6-2.5-1.4-2.5-2.7s1.2-2.6,3.1-2.6,1.7.2,2.1.5l-.3,1c-.3-.2-.9-.4-1.8-.4-1.3,0-1.8.8-1.8,1.4s.6,1.3,1.9,1.8c1.6.6,2.4,1.4,2.4,2.8s-1.1,2.7-3.3,2.7-1.9-.3-2.4-.6l.3-1Z"/>
      <path d="M28,339.3c0,2.5-1.8,3.6-3.4,3.6s-3.2-1.3-3.2-3.5,1.5-3.6,3.4-3.6,3.3,1.4,3.3,3.5ZM22.7,339.4c0,1.5.8,2.6,2,2.6s2.1-1.1,2.1-2.6-.6-2.6-2-2.6-2.1,1.3-2.1,2.6Z"/>
      <path d="M30,336l1.3,3.8c.2.6.4,1.2.5,1.8h0c.2-.6.4-1.1.6-1.8l1.3-3.8h1.3l-2.7,6.8h-1.2l-2.6-6.8h1.3Z"/>
      <path d="M36.8,339.6c0,1.7,1.1,2.4,2.3,2.4s1.4-.2,1.9-.3l.2.9c-.4.2-1.2.4-2.3.4-2.1,0-3.3-1.4-3.3-3.4s1.2-3.6,3.2-3.6,2.8,1.9,2.8,3.2,0,.4,0,.6h-4.8ZM40.4,338.7c0-.8-.3-2-1.7-2s-1.8,1.1-1.9,2h3.6Z"/>
      <path d="M43.1,338.1c0-.8,0-1.5,0-2.1h1.1v1.3h0c.3-.9,1.1-1.5,1.9-1.5s.2,0,.3,0v1.2c-.1,0-.3,0-.4,0-.9,0-1.5.6-1.7,1.6,0,.2,0,.4,0,.6v3.6h-1.2v-4.7Z"/>
      <path d="M48.2,339.6c0,1.7,1.1,2.4,2.3,2.4s1.4-.2,1.9-.3l.2.9c-.4.2-1.2.4-2.3.4-2.1,0-3.3-1.4-3.3-3.4s1.2-3.6,3.2-3.6,2.8,1.9,2.8,3.2,0,.4,0,.6h-4.8ZM51.9,338.7c0-.8-.3-2-1.7-2s-1.8,1.1-1.9,2h3.6Z"/>
      <path d="M55.9,334.1c0,.4-.3.8-.8.8s-.7-.3-.7-.8.3-.8.8-.8.8.3.8.8ZM54.6,342.8v-6.8h1.2v6.8h-1.2Z"/>
      <path d="M63.6,341.8c0,1.6-.3,2.5-1,3.1-.7.6-1.6.8-2.5.8s-1.7-.2-2.3-.6l.3-1c.4.3,1.1.5,2,.5,1.3,0,2.2-.7,2.2-2.4v-.7h0c-.4.6-1.1,1.1-2.2,1.1-1.7,0-2.9-1.4-2.9-3.3s1.5-3.6,3.1-3.6,1.8.6,2.1,1.2h0v-1h1.1c0,.5,0,1,0,1.8v3.9ZM62.4,338.7c0-.2,0-.4,0-.5-.2-.7-.8-1.3-1.7-1.3s-2,1-2,2.6.7,2.4,2,2.4,1.5-.5,1.7-1.3c0-.2,0-.4,0-.7v-1.2Z"/>
      <path d="M65.6,337.8c0-.7,0-1.3,0-1.8h1.1v1.1h0c.3-.6,1.1-1.3,2.2-1.3s2.4.6,2.4,2.9v4h-1.2v-3.9c0-1.1-.4-2-1.6-2s-1.4.6-1.7,1.3c0,.2,0,.4,0,.6v4.1h-1.2v-4.9Z"/>
      <path d="M74.8,334.4v1.6h1.8v.9h-1.8v3.7c0,.8.2,1.3.9,1.3s.5,0,.7,0v.9c-.2,0-.6.2-1,.2s-1-.2-1.3-.5c-.3-.4-.5-1-.5-1.8v-3.7h-1.1v-.9h1.1v-1.3l1.2-.4Z"/>
      <path d="M78.5,336l1.5,4c.2.4.3,1,.4,1.4h0c.1-.4.3-.9.4-1.4l1.3-4h1.3l-1.8,4.8c-.9,2.3-1.5,3.5-2.3,4.2-.6.5-1.2.7-1.5.8l-.3-1c.3,0,.7-.3,1.1-.6.3-.3.7-.7,1-1.4,0-.1,0-.2,0-.3s0-.2,0-.3l-2.5-6.2h1.3Z"/>
    </g>
    <g>
      <path d="M15,388.4c.6,0,1.4-.2,2.3-.2s2.1.3,2.6.8c.5.4.8,1.1.8,2s-.3,1.5-.7,2c-.7.7-1.7,1-2.9,1s-.7,0-1,0v3.8h-1.2v-9.3ZM16.2,393c.3,0,.6,0,1,0,1.5,0,2.4-.7,2.4-2s-.9-1.9-2.2-1.9-.9,0-1.1,0v3.7Z"/>
      <path d="M22.1,393.1c0-.8,0-1.5,0-2.1h1.1v1.3h0c.3-.9,1.1-1.5,1.9-1.5s.2,0,.3,0v1.2c-.1,0-.3,0-.4,0-.9,0-1.5.6-1.7,1.6,0,.2,0,.4,0,.6v3.6h-1.2v-4.7Z"/>
      <path d="M32.7,394.3c0,2.5-1.8,3.6-3.4,3.6s-3.2-1.3-3.2-3.5,1.5-3.6,3.4-3.6,3.3,1.4,3.3,3.5ZM27.4,394.4c0,1.5.8,2.6,2,2.6s2.1-1.1,2.1-2.6-.6-2.6-2-2.6-2.1,1.3-2.1,2.6Z"/>
      <path d="M40.1,387.8v8.2c0,.6,0,1.3,0,1.8h-1.1v-1.2h0c-.4.8-1.2,1.3-2.3,1.3-1.6,0-2.9-1.4-2.9-3.4,0-2.3,1.4-3.6,3-3.6s1.7.5,2,1h0v-4h1.2ZM38.9,393.7c0-.2,0-.4,0-.5-.2-.8-.9-1.4-1.8-1.4s-2,1.1-2,2.6.7,2.5,2,2.5,1.6-.6,1.8-1.5c0-.2,0-.3,0-.5v-1.2Z"/>
      <path d="M47.9,395.9c0,.7,0,1.3,0,1.9h-1.1v-1.1h0c-.3.5-1,1.3-2.2,1.3s-2.3-.6-2.3-3v-4h1.2v3.7c0,1.3.4,2.2,1.5,2.2s1.4-.6,1.6-1.1c0-.2.1-.4.1-.6v-4.1h1.2v4.9Z"/>
      <path d="M54.7,397.5c-.3.2-1,.4-1.9.4-2,0-3.4-1.4-3.4-3.5s1.4-3.6,3.6-3.6,1.4.2,1.7.4l-.3.9c-.3-.2-.8-.3-1.4-.3-1.6,0-2.4,1.2-2.4,2.6s1,2.5,2.4,2.5,1.2-.2,1.5-.3l.2.9Z"/>
      <path d="M57.8,389.4v1.6h1.8v.9h-1.8v3.7c0,.8.2,1.3.9,1.3s.5,0,.7,0v.9c-.2,0-.6.2-1,.2s-1-.2-1.3-.5c-.3-.4-.5-1-.5-1.8v-3.7h-1.1v-.9h1.1v-1.3l1.2-.4Z"/>
      <path d="M62.3,389.1c0,.4-.3.8-.8.8s-.7-.3-.7-.8.3-.8.8-.8.8.3.8.8ZM61,397.8v-6.8h1.2v6.8h-1.2Z"/>
      <path d="M64.7,391l1.3,3.8c.2.6.4,1.2.5,1.8h0c.2-.6.4-1.1.6-1.8l1.3-3.8h1.3l-2.7,6.8h-1.2l-2.6-6.8h1.3Z"/>
      <path d="M72.4,389.1c0,.4-.3.8-.8.8s-.7-.3-.7-.8.3-.8.8-.8.8.3.8.8ZM71,397.8v-6.8h1.2v6.8h-1.2Z"/>
      <path d="M75.7,389.4v1.6h1.8v.9h-1.8v3.7c0,.8.2,1.3.9,1.3s.5,0,.7,0v.9c-.2,0-.6.2-1,.2s-1-.2-1.3-.5c-.3-.4-.5-1-.5-1.8v-3.7h-1.1v-.9h1.1v-1.3l1.2-.4Z"/>
      <path d="M79.5,391l1.5,4c.2.4.3,1,.4,1.4h0c.1-.4.3-.9.4-1.4l1.3-4h1.3l-1.8,4.8c-.9,2.3-1.5,3.5-2.3,4.2-.6.5-1.2.7-1.5.8l-.3-1c.3,0,.7-.3,1.1-.6.3-.3.7-.7,1-1.4,0-.1,0-.2,0-.3s0-.2,0-.3l-2.5-6.2h1.3Z"/>
    </g>
    <g>
      <path d="M15.4,444.3c.6-.1,1.5-.2,2.3-.2,1.3,0,2.2.3,2.7.8.5.4.7,1.1.7,1.8,0,1.2-.8,2.1-1.8,2.4h0c.7.3,1.1,1,1.4,1.9.3,1.3.5,2.2.7,2.6h-1.3c-.2-.3-.4-1.1-.6-2.3-.3-1.3-.8-1.8-1.9-1.8h-1.1v4.1h-1.2v-9.3ZM16.6,448.6h1.2c1.3,0,2.1-.7,2.1-1.8s-.9-1.8-2.2-1.8-1,0-1.2,0v3.4Z"/>
      <path d="M24.4,444.9c0,.4-.3.8-.8.8s-.7-.3-.7-.8.3-.8.8-.8.8.3.8.8ZM23,453.6v-6.8h1.2v6.8h-1.2Z"/>
      <path d="M26.1,452.4c.4.2,1,.5,1.6.5.9,0,1.3-.4,1.3-1s-.4-.9-1.2-1.2c-1.2-.4-1.8-1.1-1.8-1.9s.9-2,2.3-2,1.3.2,1.7.4l-.3.9c-.3-.2-.8-.4-1.4-.4s-1.1.4-1.1.9.4.8,1.3,1.2c1.2.4,1.8,1,1.8,2s-.9,2-2.5,2-1.4-.2-1.9-.5l.3-.9Z"/>
      <path d="M33.1,449.9h0c.2-.2.4-.5.6-.8l2-2.3h1.5l-2.6,2.8,3,4h-1.5l-2.3-3.2-.6.7v2.5h-1.2v-9.9h1.2v6.3Z"/>
    </g>
    <g>
      <path class="st5" d="M14.9,125.5h1.2v8.4h4v1h-5.3v-9.4Z"/>
      <path class="st5" d="M22,131.7c0,1.7,1.1,2.4,2.3,2.4s1.4-.2,1.9-.4l.2.9c-.4.2-1.2.4-2.3.4-2.1,0-3.3-1.4-3.3-3.4s1.2-3.6,3.2-3.6,2.8,1.9,2.8,3.2,0,.4,0,.6h-4.8ZM25.6,130.9c0-.8-.3-2-1.7-2s-1.8,1.1-1.9,2h3.6Z"/>
      <path class="st5" d="M28.8,128.1l1.3,3.8c.2.6.4,1.2.5,1.8h0c.2-.6.4-1.1.6-1.8l1.3-3.8h1.3l-2.7,6.8h-1.2l-2.6-6.8h1.3Z"/>
      <path class="st5" d="M35.6,131.7c0,1.7,1.1,2.4,2.3,2.4s1.4-.2,1.9-.4l.2.9c-.4.2-1.2.4-2.3.4-2.1,0-3.3-1.4-3.3-3.4s1.2-3.6,3.2-3.6,2.8,1.9,2.8,3.2,0,.4,0,.6h-4.8ZM39.3,130.9c0-.8-.3-2-1.7-2s-1.8,1.1-1.9,2h3.6Z"/>
      <path class="st5" d="M42,125h1.2v9.9h-1.2v-9.9Z"/>
    </g>
    <g>
      <path d="M16.7,286.2h-2.9v-1h7v1h-2.9v8.4h-1.2v-8.4Z"/>
      <path d="M21.8,284.6h1.2v4.2h0c.2-.4.5-.7.9-.9.4-.2.8-.3,1.3-.3.9,0,2.4.6,2.4,2.9v4h-1.2v-3.9c0-1.1-.4-2-1.6-2s-1.4.6-1.7,1.2c0,.2,0,.4,0,.6v4.1h-1.2v-9.9Z"/>
      <path d="M30.9,285.9c0,.4-.3.8-.8.8s-.7-.3-.7-.8.3-.8.8-.8.8.3.8.8ZM29.6,294.6v-6.8h1.2v6.8h-1.2Z"/>
      <path d="M32.8,289.6c0-.7,0-1.3,0-1.8h1.1v1.1h0c.3-.6,1.1-1.3,2.2-1.3s2.4.6,2.4,2.9v4h-1.2v-3.9c0-1.1-.4-2-1.6-2s-1.4.6-1.7,1.3c0,.2,0,.4,0,.6v4.1h-1.2v-4.9Z"/>
      <path d="M41.8,290.9h0c.2-.2.4-.5.6-.8l2-2.3h1.5l-2.6,2.8,3,4h-1.5l-2.3-3.2-.6.7v2.5h-1.2v-9.9h1.2v6.3Z"/>
    </g>
    <g>
      <path class="st5" d="M180.6,236.7l.9,3.4c.2.8.4,1.5.5,2.2h0c.2-.7.4-1.4.6-2.1l1.1-3.5h1l1.1,3.4c.3.8.4,1.5.6,2.2h0c.1-.7.3-1.4.5-2.2l1-3.4h1.2l-2.2,6.8h-1.1l-1-3.2c-.2-.8-.4-1.4-.6-2.2h0c-.2.8-.4,1.5-.6,2.2l-1.1,3.2h-1.1l-2-6.8h1.3Z"/>
      <path class="st5" d="M190.4,233.5h1.2v4.2h0c.2-.4.5-.7.9-.9.4-.2.8-.3,1.3-.3.9,0,2.4.6,2.4,2.9v4h-1.2v-3.9c0-1.1-.4-2-1.6-2s-1.4.6-1.7,1.2c0,.2,0,.4,0,.6v4.1h-1.2v-9.9Z"/>
      <path class="st5" d="M199.6,234.7c0,.4-.3.8-.8.8s-.7-.3-.7-.8.3-.8.8-.8.8.3.8.8ZM198.2,243.4v-6.8h1.2v6.8h-1.2Z"/>
      <path class="st5" d="M202.9,235v1.6h1.8v.9h-1.8v3.7c0,.8.2,1.3.9,1.3s.5,0,.7,0v.9c-.2,0-.6.2-1,.2s-1-.2-1.3-.5c-.3-.4-.5-1-.5-1.8v-3.7h-1.1v-.9h1.1v-1.3l1.2-.4Z"/>
      <path class="st5" d="M206.7,240.3c0,1.7,1.1,2.4,2.3,2.4s1.4-.2,1.9-.4l.2.9c-.4.2-1.2.4-2.3.4-2.1,0-3.3-1.4-3.3-3.4s1.2-3.6,3.2-3.6,2.8,1.9,2.8,3.2,0,.4,0,.6h-4.8ZM210.3,239.4c0-.8-.3-2-1.7-2s-1.8,1.1-1.9,2h3.6Z"/>
    </g>
    <g>
      <path class="st5" d="M483.8,233.5h1.2v4.3h0c.4-.8,1.2-1.2,2.3-1.2,1.7,0,2.9,1.4,2.9,3.4s-1.5,3.6-3.1,3.6-1.8-.4-2.3-1.3h0v1.1h-1.1c0-.5,0-1.1,0-1.8v-8.2ZM485.1,240.7c0,.2,0,.3,0,.4.2.9,1,1.4,1.8,1.4,1.3,0,2.1-1.1,2.1-2.6s-.7-2.5-2-2.5-1.6.6-1.9,1.5c0,.2,0,.3,0,.5v1.2Z"/>
      <path class="st5" d="M491.8,233.5h1.2v9.9h-1.2v-9.9Z"/>
      <path class="st5" d="M499.9,241.8c0,.6,0,1.2,0,1.6h-1.1v-.9h-.1c-.4.5-1.1,1-2.1,1-1.4,0-2.1-1-2.1-1.9,0-1.6,1.5-2.5,4.1-2.5h0c0-.7-.2-1.7-1.5-1.7-.6,0-1.3.2-1.8.5l-.3-.8c.6-.4,1.4-.6,2.2-.6,2.1,0,2.6,1.4,2.6,2.8v2.5ZM498.7,240c-1.3,0-2.9.2-2.9,1.5s.5,1.2,1.1,1.2c.9,0,1.5-.6,1.7-1.1,0-.1,0-.3,0-.4v-1.2Z"/>
      <path class="st5" d="M506.7,243.2c-.3.2-1,.4-1.9.4-2,0-3.4-1.4-3.4-3.5s1.4-3.6,3.6-3.6,1.4.2,1.7.4l-.3.9c-.3-.2-.8-.3-1.4-.3-1.6,0-2.4,1.2-2.4,2.6s1,2.5,2.4,2.5,1.2-.2,1.5-.3l.2.9Z"/>
      <path class="st5" d="M509.3,239.8h0c.2-.2.4-.5.6-.8l2-2.3h1.5l-2.6,2.8,3,4h-1.5l-2.3-3.2-.6.7v2.5h-1.2v-9.9h1.2v6.3Z"/>
    </g>
    <g>
      <path class="st5" d="M399.6,242.4c0,1.6-.3,2.5-1,3.1-.7.6-1.6.8-2.5.8s-1.7-.2-2.3-.6l.3-1c.4.3,1.1.5,2,.5,1.3,0,2.2-.7,2.2-2.4v-.7h0c-.4.6-1.1,1.1-2.2,1.1-1.7,0-2.9-1.4-2.9-3.3s1.5-3.6,3.1-3.6,1.8.6,2.1,1.2h0v-1h1.1c0,.5,0,1,0,1.8v3.9ZM398.4,239.3c0-.2,0-.4,0-.5-.2-.7-.8-1.3-1.7-1.3s-2,1-2,2.6.7,2.4,2,2.4,1.5-.5,1.7-1.3c0-.2,0-.4,0-.7v-1.2Z"/>
      <path class="st5" d="M401.6,238.8c0-.8,0-1.5,0-2.1h1.1v1.3h0c.3-.9,1.1-1.5,1.9-1.5s.2,0,.3,0v1.2c-.1,0-.3,0-.4,0-.9,0-1.5.6-1.7,1.6,0,.2,0,.4,0,.6v3.6h-1.2v-4.7Z"/>
      <path class="st5" d="M406.7,240.3c0,1.7,1.1,2.4,2.3,2.4s1.4-.2,1.9-.4l.2.9c-.4.2-1.2.4-2.3.4-2.1,0-3.3-1.4-3.3-3.4s1.2-3.6,3.2-3.6,2.8,1.9,2.8,3.2,0,.4,0,.6h-4.8ZM410.3,239.4c0-.8-.3-2-1.7-2s-1.8,1.1-1.9,2h3.6Z"/>
      <path class="st5" d="M413.5,236.7l1.5,4c.2.4.3,1,.4,1.4h0c.1-.4.3-.9.4-1.4l1.3-4h1.3l-1.8,4.8c-.9,2.3-1.5,3.5-2.3,4.2-.6.5-1.2.7-1.5.8l-.3-1c.3,0,.7-.3,1.1-.6.3-.3.7-.7,1-1.4,0-.1,0-.2,0-.3s0-.2,0-.3l-2.5-6.2h1.3Z"/>
      <path class="st5" d="M421.5,244l3.9-10.2h1l-3.9,10.2h-.9Z"/>
      <path class="st5" d="M436.2,233.5v8.2c0,.6,0,1.3,0,1.8h-1.1v-1.2h0c-.4.8-1.2,1.3-2.3,1.3-1.6,0-2.9-1.4-2.9-3.4,0-2.3,1.4-3.6,3-3.6s1.7.5,2,1h0v-4h1.2ZM435,239.4c0-.2,0-.4,0-.5-.2-.8-.9-1.4-1.8-1.4s-2,1.1-2,2.6.7,2.5,2,2.5,1.6-.6,1.8-1.5c0-.2,0-.3,0-.5v-1.2Z"/>
      <path class="st5" d="M443,241.8c0,.6,0,1.2,0,1.6h-1.1v-.9h-.1c-.4.5-1.1,1-2.1,1-1.4,0-2.1-1-2.1-1.9,0-1.6,1.5-2.5,4.1-2.5h0c0-.7-.2-1.7-1.5-1.7-.6,0-1.3.2-1.8.5l-.3-.8c.6-.4,1.4-.6,2.2-.6,2.1,0,2.6,1.4,2.6,2.8v2.5ZM441.8,240c-1.3,0-2.9.2-2.9,1.5s.5,1.2,1.1,1.2c.9,0,1.5-.6,1.7-1.1,0-.1,0-.3,0-.4v-1.2Z"/>
      <path class="st5" d="M445,238.8c0-.8,0-1.5,0-2.1h1.1v1.3h0c.3-.9,1.1-1.5,1.9-1.5s.2,0,.3,0v1.2c-.1,0-.3,0-.4,0-.9,0-1.5.6-1.7,1.6,0,.2,0,.4,0,.6v3.6h-1.2v-4.7Z"/>
      <path class="st5" d="M450.8,239.8h0c.2-.2.4-.5.6-.8l2-2.3h1.5l-2.6,2.8,3,4h-1.5l-2.3-3.2-.6.7v2.5h-1.2v-9.9h1.2v6.3Z"/>
    </g>
    <g>
      <path class="st5" d="M337.6,242.4c0,1.6-.3,2.5-1,3.1-.7.6-1.6.8-2.5.8s-1.7-.2-2.3-.6l.3-1c.4.3,1.1.5,2,.5,1.3,0,2.2-.7,2.2-2.4v-.7h0c-.4.6-1.1,1.1-2.2,1.1-1.7,0-2.9-1.4-2.9-3.3s1.5-3.6,3.1-3.6,1.8.6,2.1,1.2h0v-1h1.1c0,.5,0,1,0,1.8v3.9ZM336.4,239.3c0-.2,0-.4,0-.5-.2-.7-.8-1.3-1.7-1.3s-2,1-2,2.6.7,2.4,2,2.4,1.5-.5,1.7-1.3c0-.2,0-.4,0-.7v-1.2Z"/>
      <path class="st5" d="M339.6,238.8c0-.8,0-1.5,0-2.1h1.1v1.3h0c.3-.9,1.1-1.5,1.9-1.5s.2,0,.3,0v1.2c-.1,0-.3,0-.4,0-.9,0-1.5.6-1.7,1.6,0,.2,0,.4,0,.6v3.6h-1.2v-4.7Z"/>
      <path class="st5" d="M344.7,240.3c0,1.7,1.1,2.4,2.3,2.4s1.4-.2,1.9-.4l.2.9c-.4.2-1.2.4-2.3.4-2.1,0-3.3-1.4-3.3-3.4s1.2-3.6,3.2-3.6,2.8,1.9,2.8,3.2,0,.4,0,.6h-4.8ZM348.3,239.4c0-.8-.3-2-1.7-2s-1.8,1.1-1.9,2h3.6Z"/>
      <path class="st5" d="M351.5,236.7l1.5,4c.2.4.3,1,.4,1.4h0c.1-.4.3-.9.4-1.4l1.3-4h1.3l-1.8,4.8c-.9,2.3-1.5,3.5-2.3,4.2-.6.5-1.2.7-1.5.8l-.3-1c.3,0,.7-.3,1.1-.6.3-.3.7-.7,1-1.4,0-.1,0-.2,0-.3s0-.2,0-.3l-2.5-6.2h1.3Z"/>
    </g>
    <g>
      <path class="st5" d="M248.5,242.4c0,1.6-.3,2.5-1,3.1-.7.6-1.6.8-2.5.8s-1.7-.2-2.3-.6l.3-1c.4.3,1.1.5,2,.5,1.3,0,2.2-.7,2.2-2.4v-.7h0c-.4.6-1.1,1.1-2.2,1.1-1.7,0-2.9-1.4-2.9-3.3s1.5-3.6,3.1-3.6,1.8.6,2.1,1.2h0v-1h1.1c0,.5,0,1,0,1.8v3.9ZM247.3,239.3c0-.2,0-.4,0-.5-.2-.7-.8-1.3-1.7-1.3s-2,1-2,2.6.7,2.4,2,2.4,1.5-.5,1.7-1.3c0-.2,0-.4,0-.7v-1.2Z"/>
      <path class="st5" d="M250.5,238.8c0-.8,0-1.5,0-2.1h1.1v1.3h0c.3-.9,1.1-1.5,1.9-1.5s.2,0,.3,0v1.2c-.1,0-.3,0-.4,0-.9,0-1.5.6-1.7,1.6,0,.2,0,.4,0,.6v3.6h-1.2v-4.7Z"/>
      <path class="st5" d="M255.6,240.3c0,1.7,1.1,2.4,2.3,2.4s1.4-.2,1.9-.4l.2.9c-.4.2-1.2.4-2.3.4-2.1,0-3.3-1.4-3.3-3.4s1.2-3.6,3.2-3.6,2.8,1.9,2.8,3.2,0,.4,0,.6h-4.8ZM259.2,239.4c0-.8-.3-2-1.7-2s-1.8,1.1-1.9,2h3.6Z"/>
      <path class="st5" d="M262.4,236.7l1.5,4c.2.4.3,1,.4,1.4h0c.1-.4.3-.9.4-1.4l1.3-4h1.3l-1.8,4.8c-.9,2.3-1.5,3.5-2.3,4.2-.6.5-1.2.7-1.5.8l-.3-1c.3,0,.7-.3,1.1-.6.3-.3.7-.7,1-1.4,0-.1,0-.2,0-.3s0-.2,0-.3l-2.5-6.2h1.3Z"/>
      <path class="st5" d="M270.4,244l3.9-10.2h1l-3.9,10.2h-.9Z"/>
      <path class="st5" d="M279.2,233.5h1.2v9.9h-1.2v-9.9Z"/>
      <path class="st5" d="M283.9,234.7c0,.4-.3.8-.8.8s-.7-.3-.7-.8.3-.8.8-.8.8.3.8.8ZM282.5,243.4v-6.8h1.2v6.8h-1.2Z"/>
      <path class="st5" d="M291.6,242.4c0,1.6-.3,2.5-1,3.1-.7.6-1.6.8-2.5.8s-1.7-.2-2.3-.6l.3-1c.4.3,1.1.5,2,.5,1.3,0,2.2-.7,2.2-2.4v-.7h0c-.4.6-1.1,1.1-2.2,1.1-1.7,0-2.9-1.4-2.9-3.3s1.5-3.6,3.1-3.6,1.8.6,2.1,1.2h0v-1h1.1c0,.5,0,1,0,1.8v3.9ZM290.4,239.3c0-.2,0-.4,0-.5-.2-.7-.8-1.3-1.7-1.3s-2,1-2,2.6.7,2.4,2,2.4,1.5-.5,1.7-1.3c0-.2,0-.4,0-.7v-1.2Z"/>
      <path class="st5" d="M293.6,233.5h1.2v4.2h0c.2-.4.5-.7.9-.9.4-.2.8-.3,1.3-.3.9,0,2.4.6,2.4,2.9v4h-1.2v-3.9c0-1.1-.4-2-1.6-2s-1.4.6-1.7,1.2c0,.2,0,.4,0,.6v4.1h-1.2v-9.9Z"/>
      <path class="st5" d="M302.9,235v1.6h1.8v.9h-1.8v3.7c0,.8.2,1.3.9,1.3s.5,0,.7,0v.9c-.2,0-.6.2-1,.2s-1-.2-1.3-.5c-.3-.4-.5-1-.5-1.8v-3.7h-1.1v-.9h1.1v-1.3l1.2-.4Z"/>
    </g>
    <path class="st9" d="M233.9,5.4c0-2.5,2.4-4.5,5.3-4.5h214.3c2.9,0,5.3,2,5.3,4.5v487c0,2.5-2.4,4.5-5.3,4.5h-214.3c-2.9,0-5.3-2-5.3-4.5V5.4Z"/>
    <g>
      <path d="M324.9,18.2c.5.3,1.3.6,2.2.6,1.2,0,2-.7,2-1.6s-.5-1.4-1.8-1.9c-1.5-.6-2.5-1.4-2.5-2.7s1.2-2.6,3.1-2.6,1.7.2,2.1.5l-.3,1c-.3-.2-.9-.4-1.8-.4-1.3,0-1.8.8-1.8,1.4s.6,1.3,1.9,1.8c1.6.6,2.4,1.4,2.4,2.8s-1.1,2.7-3.3,2.7-1.9-.3-2.4-.6l.3-1Z"/>
      <path d="M332.3,12.9l.9,3.4c.2.8.4,1.5.5,2.2h0c.2-.7.4-1.4.6-2.1l1.1-3.5h1l1.1,3.4c.3.8.4,1.5.6,2.2h0c.1-.7.3-1.4.5-2.2l1-3.4h1.2l-2.2,6.8h-1.1l-1-3.2c-.2-.8-.4-1.4-.6-2.2h0c-.2.8-.4,1.5-.6,2.2l-1.1,3.2h-1.1l-2-6.8h1.3Z"/>
      <path d="M342.7,16.5c0,1.7,1.1,2.4,2.3,2.4s1.4-.2,1.9-.4l.2.9c-.4.2-1.2.4-2.3.4-2.1,0-3.3-1.4-3.3-3.4s1.2-3.6,3.2-3.6,2.8,1.9,2.8,3.2,0,.4,0,.6h-4.8ZM346.3,15.6c0-.8-.3-2-1.7-2s-1.8,1.1-1.9,2h3.6Z"/>
      <path d="M349.7,16.5c0,1.7,1.1,2.4,2.3,2.4s1.4-.2,1.9-.4l.2.9c-.4.2-1.2.4-2.3.4-2.1,0-3.3-1.4-3.3-3.4s1.2-3.6,3.2-3.6,2.8,1.9,2.8,3.2,0,.4,0,.6h-4.8ZM353.3,15.6c0-.8-.3-2-1.7-2s-1.8,1.1-1.9,2h3.6Z"/>
      <path d="M357.5,11.2v1.6h1.8v.9h-1.8v3.7c0,.8.2,1.3.9,1.3s.5,0,.7,0v.9c-.2,0-.6.2-1,.2s-1-.2-1.3-.5c-.3-.4-.5-1-.5-1.8v-3.7h-1.1v-.9h1.1v-1.3l1.2-.4Z"/>
      <path d="M360.5,18.4c.4.2,1,.5,1.6.5.9,0,1.3-.4,1.3-1s-.3-.9-1.2-1.2c-1.2-.4-1.8-1.1-1.8-1.9s.9-2,2.3-2,1.3.2,1.7.4l-.3.9c-.3-.2-.8-.4-1.4-.4s-1.1.4-1.1.9.4.8,1.3,1.2c1.2.4,1.8,1,1.8,2s-.9,2-2.5,2-1.4-.2-1.9-.5l.3-.9Z"/>
      <path d="M366.2,15.1c0-.9,0-1.6,0-2.2h1.1v1.2h0c.5-.8,1.3-1.3,2.4-1.3,1.7,0,2.9,1.4,2.9,3.4s-1.5,3.6-3.1,3.6-1.7-.4-2.1-1.1h0v3.7h-1.2v-7.3ZM367.4,16.9c0,.2,0,.4,0,.5.2.9,1,1.4,1.8,1.4,1.3,0,2.1-1.1,2.1-2.6s-.7-2.5-2-2.5-1.6.6-1.9,1.5c0,.2,0,.3,0,.5v1.2Z"/>
      <path d="M380.3,16.2c0,2.5-1.8,3.6-3.4,3.6s-3.2-1.3-3.2-3.5,1.5-3.6,3.4-3.6,3.3,1.4,3.3,3.5ZM374.9,16.3c0,1.5.8,2.6,2,2.6s2.1-1.1,2.1-2.6-.6-2.6-2-2.6-2.1,1.3-2.1,2.6Z"/>
      <path d="M383.3,11.2v1.6h1.8v.9h-1.8v3.7c0,.8.2,1.3.9,1.3s.5,0,.7,0v.9c-.2,0-.6.2-1,.2s-1-.2-1.3-.5c-.3-.4-.5-1-.5-1.8v-3.7h-1.1v-.9h1.1v-1.3l1.2-.4Z"/>
    </g>
  </g>
</svg>