<?xml version="1.0" encoding="UTF-8"?>
<svg id="Layer_1" xmlns="http://www.w3.org/2000/svg" xmlns:xlink="http://www.w3.org/1999/xlink" version="1.1" viewBox="0 0 551 590">
  <!-- Generator: Adobe Illustrator 30.5.1, SVG Export Plug-In . SVG Version: 2.1.4 Build 3)  -->
  <defs>
    <style>
      .st0, .st1 {
        fill: none;
      }

      .st2 {
        fill: #368ddf;
      }

      .st3 {
        fill: #452809;
      }

      .st4 {
        fill: #eab57d;
      }

      .st5 {
        fill: #c0daf5;
      }

      .st6 {
        fill: #0c4171;
      }

      .st7 {
        fill: #f5dbc0;
      }

      .st8 {
        fill: #fff;
      }

      .st9 {
        fill: #7db4ea;
      }

      .st10 {
        fill: #71420e;
      }

      .st11 {
        fill: #092845;
      }

      .st12 {
        fill: #b26914;
      }

      .st1 {
        opacity: .7;
        stroke: #b3201a;
        stroke-linejoin: round;
        stroke-width: 2px;
      }

      .st13 {
        clip-path: url(#clippath);
      }

      .st14 {
        fill: #b3201a;
      }

      .st15 {
        fill: #1167b2;
      }
    </style>
    <clipPath id="clippath">
      <rect class="st0" width="551" height="590"/>
    </clipPath>
  </defs>
  <g class="st13">
    <path class="st5" d="M.6,247.2c0-2.1,3.7-3.8,8.2-3.8h524.9c4.5,0,8.2,1.7,8.2,3.8v69c0,2.1-3.7,3.8-8.2,3.8H8.8c-4.5,0-8.2-1.7-8.2-3.8v-69Z"/>
    <rect class="st2" x="233.9" y="284.7" width="73" height="30.6"/>
    <rect class="st15" x="309.5" y="284.7" width="72.8" height="30.6"/>
    <rect class="st6" x="384.8" y="284.7" width="73" height="30.6"/>
    <rect class="st11" x="460.2" y="284.5" width="73" height="30.8"/>
    <rect class="st9" x="158.5" y="284.7" width="73" height="30.6"/>
    <path class="st7" d="M8.4,74h524.9c4.5,0,8.2,3.7,8.2,8.2v149.1c0,4.5-3.7,8.2-8.2,8.2H8.4c-4.5,0-8.2-3.7-8.2-8.2V82.2c0-4.5,3.7-8.2,8.2-8.2Z"/>
    <rect class="st12" x="234.3" y="139.7" width="73" height="90.2"/>
    <rect class="st12" x="309.7" y="139.7" width="73" height="90.2"/>
    <rect class="st12" x="385" y="139.7" width="73" height="90.2"/>
    <rect class="st12" x="460.6" y="139.5" width="72.8" height="90.4"/>
    <rect class="st12" x="158.9" y="139.7" width="72.8" height="90.2"/>
    <rect class="st4" x="158.9" y="82.2" width="73" height="54.6"/>
    <path d="M194.2,97.2c0,3.1-1.2,4.8-3.2,4.8s-3-1.7-3-4.7c0-3.1,1.3-4.7,3.2-4.7s3,1.7,3,4.6ZM189.2,97.4c0,2.4.7,3.7,1.8,3.7s1.8-1.5,1.8-3.8-.6-3.7-1.8-3.7-1.8,1.3-1.8,3.8Z"/>
    <rect class="st4" x="234.3" y="82.2" width="73" height="54.6"/>
    <path d="M266.2,93.9h0l-1.6.9-.2-.9,2-1.1h1v9.1h-1.2v-8Z"/>
    <rect class="st4" x="309.7" y="82.2" width="73" height="54.6"/>
    <path d="M338.9,101.9v-.8l1-.9c2.3-2.2,3.4-3.4,3.4-4.8s-.4-1.8-1.8-1.8-1.5.4-1.9.8l-.4-.9c.6-.5,1.5-.9,2.6-.9,2,0,2.8,1.3,2.8,2.6s-1.2,3-3.1,4.9l-.7.7h0s4.1,0,4.1,0v1h-5.8Z"/>
    <rect class="st4" x="385" y="82.2" width="73" height="54.6"/>
    <path d="M414.6,100.5c.3.2,1.1.6,2,.6,1.6,0,2.1-1,2.1-1.8,0-1.3-1.2-1.8-2.4-1.8h-.7v-.9h.7c.9,0,2-.5,2-1.5s-.5-1.4-1.6-1.4-1.4.3-1.8.6l-.3-.9c.5-.4,1.4-.7,2.4-.7,1.8,0,2.6,1.1,2.6,2.2s-.6,1.8-1.7,2.2h0c1.1.2,2,1.1,2,2.4,0,1.5-1.1,2.7-3.3,2.7s-1.9-.3-2.4-.6l.3-.9Z"/>
    <rect class="st4" x="460.4" y="82.2" width="73.3" height="54.6"/>
    <path d="M493.6,101.9v-2.5h-4.2v-.8l4.1-5.8h1.3v5.7h1.3v1h-1.3v2.5h-1.2ZM493.6,98.4v-3c0-.5,0-1,0-1.4h0c-.3.5-.5.9-.8,1.3l-2.2,3.1h0s3,0,3,0Z"/>
    <polygon class="st5" points="159.3 423.9 159.3 377.2 534.1 423.9 159.3 423.9"/>
    <polygon class="st15" points="534.1 377.2 534.1 423.9 159.3 377.2 534.1 377.2"/>
    <g>
      <path d="M172.1,413.5c-.3.2-1,.4-1.9.4-2,0-3.4-1.4-3.4-3.5s1.4-3.6,3.6-3.6,1.4.2,1.7.4l-.3.9c-.3-.2-.8-.3-1.4-.3-1.6,0-2.4,1.2-2.4,2.6s1,2.5,2.4,2.5,1.2-.2,1.5-.3l.2.9Z"/>
      <path d="M179.6,410.3c0,2.5-1.8,3.6-3.4,3.6s-3.2-1.3-3.2-3.5,1.5-3.6,3.4-3.6,3.3,1.4,3.3,3.5ZM174.2,410.4c0,1.5.8,2.6,2,2.6s2.1-1.1,2.1-2.6-.6-2.6-2-2.6-2.1,1.3-2.1,2.6Z"/>
      <path d="M181,412.5c.4.2,1,.5,1.6.5.9,0,1.3-.4,1.3-1s-.3-.9-1.2-1.2c-1.2-.4-1.8-1.1-1.8-1.9s.9-2,2.3-2,1.3.2,1.7.4l-.3.9c-.3-.2-.8-.4-1.4-.4s-1.1.4-1.1.9.4.8,1.3,1.2c1.2.4,1.8,1,1.8,2s-.9,2-2.5,2-1.4-.2-1.9-.5l.3-.9Z"/>
      <path d="M188.2,405.3v1.6h1.8v.9h-1.8v3.7c0,.8.2,1.3.9,1.3s.5,0,.7,0v.9c-.2,0-.6.2-1,.2s-1-.2-1.3-.5c-.3-.4-.5-1-.5-1.8v-3.7h-1.1v-.9h1.1v-1.3l1.2-.4Z"/>
      <path d="M191.2,412.5c.4.2,1,.5,1.6.5.9,0,1.3-.4,1.3-1s-.3-.9-1.2-1.2c-1.2-.4-1.8-1.1-1.8-1.9s.9-2,2.3-2,1.3.2,1.7.4l-.3.9c-.3-.2-.8-.4-1.4-.4s-1.1.4-1.1.9.4.8,1.3,1.2c1.2.4,1.8,1,1.8,2s-.9,2-2.5,2-1.4-.2-1.9-.5l.3-.9Z"/>
    </g>
    <path class="st8" d="M475.5,389.3c0,1.7,1.1,2.4,2.3,2.4s1.4-.2,1.9-.3l.2.9c-.4.2-1.2.4-2.3.4-2.1,0-3.3-1.4-3.3-3.4s1.2-3.6,3.2-3.6,2.8,1.9,2.8,3.2,0,.4,0,.6h-4.8ZM479.1,388.4c0-.8-.3-2-1.7-2s-1.8,1.1-1.9,2h3.6Z"/>
    <path class="st8" d="M490.3,383.7c-.3-.2-.8-.4-1.4-.4-1.3,0-1.7.9-1.7,2v.3h4v6.8h-1.2v-5.8h-2.7v5.8h-1.2v-5.8h-2.9v5.8h-1.2v-5.8h-.9v-.9h.9v-.2c0-.8.2-1.7.8-2.2.4-.4,1-.7,1.7-.7s.9.2,1.2.3l-.4.9c-.2-.1-.5-.2-.8-.2s-.7.1-.9.4c-.3.4-.4,1-.4,1.6v.3h2.9v-.4c0-1.8,1.1-2.9,3-2.9s1.3.2,1.7.4l-.4.9Z"/>
    <g>
      <path class="st8" d="M498,392.2c-.3.2-1,.4-1.9.4-2,0-3.4-1.4-3.4-3.5s1.4-3.6,3.6-3.6,1.4.2,1.7.4l-.3.9c-.3-.2-.8-.3-1.4-.3-1.6,0-2.4,1.2-2.4,2.6s1,2.5,2.4,2.5,1.2-.2,1.5-.3l.2.9Z"/>
      <path class="st8" d="M500.8,383.7c0,.4-.3.8-.8.8s-.7-.3-.7-.8.3-.8.8-.8.8.3.8.8ZM499.5,392.4v-6.8h1.2v6.8h-1.2Z"/>
      <path class="st8" d="M503.4,389.3c0,1.7,1.1,2.4,2.3,2.4s1.4-.2,1.9-.3l.2.9c-.4.2-1.2.4-2.3.4-2.1,0-3.3-1.4-3.3-3.4s1.2-3.6,3.2-3.6,2.8,1.9,2.8,3.2,0,.4,0,.6h-4.8ZM507,388.4c0-.8-.3-2-1.7-2s-1.8,1.1-1.9,2h3.6Z"/>
      <path class="st8" d="M509.8,387.5c0-.7,0-1.3,0-1.8h1.1v1.1h0c.3-.6,1.1-1.3,2.2-1.3s2.4.6,2.4,2.9v4h-1.2v-3.9c0-1.1-.4-2-1.6-2s-1.4.6-1.7,1.3c0,.2,0,.4,0,.6v4.1h-1.2v-4.9Z"/>
      <path class="st8" d="M522.4,392.2c-.3.2-1,.4-1.9.4-2,0-3.4-1.4-3.4-3.5s1.4-3.6,3.6-3.6,1.4.2,1.7.4l-.3.9c-.3-.2-.8-.3-1.4-.3-1.6,0-2.4,1.2-2.4,2.6s1,2.5,2.4,2.5,1.2-.2,1.5-.3l.2.9Z"/>
      <path class="st8" d="M524.5,385.7l1.5,4c.2.4.3,1,.4,1.4h0c.1-.4.3-.9.4-1.4l1.3-4h1.3l-1.8,4.8c-.9,2.3-1.5,3.5-2.3,4.2-.6.5-1.2.7-1.5.8l-.3-1c.3,0,.7-.3,1.1-.6.3-.3.7-.7,1-1.4,0-.1,0-.2,0-.3s0-.2,0-.3l-2.5-6.2h1.3Z"/>
    </g>
    <circle class="st7" cx="195.3" cy="176.6" r="28.6" transform="translate(-42.6 289.5) rotate(-67.5)"/>
    <circle class="st7" cx="270.5" cy="176.6" r="28.6" transform="translate(-47 117) rotate(-22.5)"/>
    <path class="st3" d="M270.5,148c15.7,0,28.4,12.6,28.6,28.3l-28.6.2v-28.6Z"/>
    <circle class="st7" cx="346.3" cy="176.8" r="28.6" transform="translate(141.5 507.3) rotate(-85.3)"/>
    <path class="st3" d="M346.3,148.2c15.8,0,28.6,12.8,28.6,28.6s-12.8,28.6-28.6,28.6v-57.1Z"/>
    <circle class="st7" cx="421.9" cy="177.6" r="28.6" transform="translate(-2 350.3) rotate(-45)"/>
    <path class="st3" d="M421.9,149.1c15.8,0,28.6,12.8,28.6,28.6s-12.8,28.6-28.6,28.6-28.4-12.6-28.6-28.2l28.6-.3v-28.6Z"/>
    <ellipse class="st3" cx="497" cy="176.3" rx="28.6" ry="28.5"/>
    <polygon class="st5" points="159.3 476.7 159.3 429.9 534.1 476.7 159.3 476.7"/>
    <polygon class="st15" points="534.1 429.9 534.1 476.7 159.3 429.9 534.1 429.9"/>
    <g>
      <path d="M169.8,465.7h0c-.4.7-1.1,1.2-2.2,1.2-1.6,0-2.9-1.4-2.9-3.4s1.6-3.7,3.1-3.7,1.8.5,2.1,1.2h0v-1h1.2c0,.6,0,1.2,0,1.9v7.7h-1.2v-3.8ZM169.8,462.7c0-.2,0-.3,0-.5-.2-.8-.8-1.4-1.8-1.4s-2,1.1-2,2.6.6,2.5,2,2.5,1.5-.5,1.8-1.3c0-.2,0-.4,0-.6v-1.3Z"/>
      <path d="M178.7,464.8c0,.7,0,1.3,0,1.9h-1.1v-1.1h0c-.3.5-1,1.3-2.2,1.3s-2.3-.6-2.3-3v-4h1.2v3.7c0,1.3.4,2.2,1.5,2.2s1.4-.6,1.6-1.1c0-.2.1-.4.1-.6v-4.1h1.2v4.9Z"/>
      <path d="M185.5,465.1c0,.6,0,1.2,0,1.6h-1.1v-.9h-.1c-.4.5-1.1,1-2.1,1-1.4,0-2.1-1-2.1-1.9,0-1.6,1.5-2.5,4.1-2.5h0c0-.7-.2-1.7-1.5-1.7-.6,0-1.3.2-1.8.5l-.3-.8c.6-.4,1.4-.6,2.2-.6,2.1,0,2.6,1.4,2.6,2.8v2.5ZM184.3,463.2c-1.3,0-2.9.2-2.9,1.5s.5,1.2,1.1,1.2c.9,0,1.5-.6,1.7-1.1,0-.1,0-.3,0-.4v-1.2Z"/>
      <path d="M187.5,456.8h1.2v9.9h-1.2v-9.9Z"/>
      <path d="M192.2,458c0,.4-.3.8-.8.8s-.7-.3-.7-.8.3-.8.8-.8.8.3.8.8ZM190.8,466.7v-6.8h1.2v6.8h-1.2Z"/>
      <path d="M195.5,458.3v1.6h1.8v.9h-1.8v3.7c0,.8.2,1.3.9,1.3s.5,0,.7,0v.9c-.2,0-.6.2-1,.2s-1-.2-1.3-.5c-.3-.4-.5-1-.5-1.8v-3.7h-1.1v-.9h1.1v-1.3l1.2-.4Z"/>
      <path d="M199.3,459.9l1.5,4c.2.4.3,1,.4,1.4h0c.1-.4.3-.9.4-1.4l1.3-4h1.3l-1.8,4.8c-.9,2.3-1.5,3.5-2.3,4.2-.6.5-1.2.7-1.5.8l-.3-1c.3,0,.7-.3,1.1-.6.3-.3.7-.7,1-1.4,0-.1,0-.2,0-.3s0-.2,0-.3l-2.5-6.2h1.3Z"/>
      <path d="M213.2,466.5c-.3.2-1,.4-1.9.4-2,0-3.4-1.4-3.4-3.5s1.4-3.6,3.6-3.6,1.4.2,1.7.4l-.3.9c-.3-.2-.8-.3-1.4-.3-1.6,0-2.4,1.2-2.4,2.6s1,2.5,2.4,2.5,1.2-.2,1.5-.3l.2.9Z"/>
      <path d="M220.7,463.3c0,2.5-1.8,3.6-3.4,3.6s-3.2-1.3-3.2-3.5,1.5-3.6,3.4-3.6,3.3,1.4,3.3,3.5ZM215.3,463.3c0,1.5.8,2.6,2,2.6s2.1-1.1,2.1-2.6-.6-2.6-2-2.6-2.1,1.3-2.1,2.6Z"/>
      <path d="M222.3,461.8c0-.7,0-1.3,0-1.8h1.1v1.1h0c.3-.6,1.1-1.3,2.2-1.3s2.4.6,2.4,2.9v4h-1.2v-3.9c0-1.1-.4-2-1.6-2s-1.4.6-1.7,1.3c0,.2,0,.4,0,.6v4.1h-1.2v-4.9Z"/>
    </g>
    <path d="M230.1,466.7v-5.8h-.9v-.9h.9v-.4c0-1.8,1.1-2.9,3-2.9s1.4.2,1.7.4l-.4.9c-.3-.2-.8-.4-1.4-.4-1.3,0-1.7.9-1.7,2v.3h3.9v6.8h-1.2v-5.8h-2.7v5.8h-1.2Z"/>
    <g>
      <path d="M243.2,456.8v8.2c0,.6,0,1.3,0,1.8h-1.1v-1.2h0c-.4.8-1.2,1.3-2.3,1.3-1.6,0-2.9-1.4-2.9-3.4,0-2.3,1.4-3.6,3-3.6s1.7.5,2,1h0v-4h1.2ZM242,462.7c0-.2,0-.4,0-.5-.2-.8-.9-1.4-1.8-1.4s-2,1.1-2,2.6.7,2.5,2,2.5,1.6-.6,1.8-1.5c0-.2,0-.3,0-.5v-1.2Z"/>
      <path d="M245.9,463.5c0,1.7,1.1,2.4,2.3,2.4s1.4-.2,1.9-.3l.2.9c-.4.2-1.2.4-2.3.4-2.1,0-3.3-1.4-3.3-3.4s1.2-3.6,3.2-3.6,2.8,1.9,2.8,3.2,0,.4,0,.6h-4.8ZM249.5,462.7c0-.8-.3-2-1.7-2s-1.8,1.1-1.9,2h3.6Z"/>
      <path d="M252.3,461.8c0-.7,0-1.3,0-1.8h1.1v1.1h0c.3-.6,1.1-1.3,2.2-1.3s2.4.6,2.4,2.9v4h-1.2v-3.9c0-1.1-.4-2-1.6-2s-1.4.6-1.7,1.3c0,.2,0,.4,0,.6v4.1h-1.2v-4.9Z"/>
      <path d="M264.9,466.5c-.3.2-1,.4-1.9.4-2,0-3.4-1.4-3.4-3.5s1.4-3.6,3.6-3.6,1.4.2,1.7.4l-.3.9c-.3-.2-.8-.3-1.4-.3-1.6,0-2.4,1.2-2.4,2.6s1,2.5,2.4,2.5,1.2-.2,1.5-.3l.2.9Z"/>
      <path d="M266.9,463.5c0,1.7,1.1,2.4,2.3,2.4s1.4-.2,1.9-.3l.2.9c-.4.2-1.2.4-2.3.4-2.1,0-3.3-1.4-3.3-3.4s1.2-3.6,3.2-3.6,2.8,1.9,2.8,3.2,0,.4,0,.6h-4.8ZM270.5,462.7c0-.8-.3-2-1.7-2s-1.8,1.1-1.9,2h3.6Z"/>
    </g>
    <g>
      <path class="st8" d="M471.6,444.4h0c-.4.7-1.1,1.2-2.2,1.2-1.6,0-2.9-1.4-2.9-3.4s1.6-3.7,3.1-3.7,1.8.5,2.1,1.2h0v-1h1.2c0,.6,0,1.2,0,1.9v7.7h-1.2v-3.8ZM471.6,441.4c0-.2,0-.3,0-.5-.2-.8-.8-1.4-1.8-1.4s-2,1.1-2,2.6.6,2.5,2,2.5,1.5-.5,1.8-1.3c0-.2,0-.4,0-.6v-1.3Z"/>
      <path class="st8" d="M480.6,443.6c0,.7,0,1.3,0,1.9h-1.1v-1.1h0c-.3.5-1,1.3-2.2,1.3s-2.3-.6-2.3-3v-4h1.2v3.7c0,1.3.4,2.2,1.5,2.2s1.4-.6,1.6-1.1c0-.2.1-.4.1-.6v-4.1h1.2v4.9Z"/>
      <path class="st8" d="M487.4,443.8c0,.6,0,1.2,0,1.6h-1.1v-.9h-.1c-.4.5-1.1,1-2.1,1-1.4,0-2.1-1-2.1-1.9,0-1.6,1.5-2.5,4.1-2.5h0c0-.7-.2-1.7-1.5-1.7-.6,0-1.3.2-1.8.5l-.3-.8c.6-.3,1.4-.6,2.2-.6,2.1,0,2.6,1.4,2.6,2.8v2.5ZM486.2,442c-1.3,0-2.9.2-2.9,1.5s.5,1.2,1.1,1.2c.9,0,1.5-.6,1.7-1.1,0-.1,0-.3,0-.4v-1.2Z"/>
      <path class="st8" d="M489.4,435.5h1.2v9.9h-1.2v-9.9Z"/>
      <path class="st8" d="M494,436.8c0,.4-.3.8-.8.8s-.7-.3-.7-.8.3-.8.8-.8.8.3.8.8ZM492.7,445.4v-6.8h1.2v6.8h-1.2Z"/>
      <path class="st8" d="M497.4,437v1.6h1.8v.9h-1.8v3.7c0,.8.2,1.3.9,1.3s.5,0,.7,0v.9c-.2,0-.6.2-1,.2s-1-.2-1.3-.5c-.3-.4-.5-1-.5-1.8v-3.7h-1.1v-.9h1.1v-1.3l1.2-.4Z"/>
      <path class="st8" d="M501.1,438.7l1.5,4c.2.4.3,1,.4,1.4h0c.1-.4.3-.9.4-1.4l1.3-4h1.3l-1.8,4.8c-.9,2.3-1.5,3.5-2.3,4.2-.6.5-1.2.7-1.5.8l-.3-1c.3,0,.7-.3,1.1-.6.3-.3.7-.7,1-1.4,0-.1,0-.2,0-.3s0-.2,0-.3l-2.5-6.2h1.3Z"/>
      <path class="st8" d="M510.2,440.8c0-.8,0-1.5,0-2.1h1.1v1.3h0c.3-.9,1.1-1.5,1.9-1.5s.2,0,.3,0v1.2c-.1,0-.3,0-.4,0-.9,0-1.5.6-1.7,1.6,0,.2,0,.4,0,.6v3.6h-1.2v-4.7Z"/>
      <path class="st8" d="M516.2,436.8c0,.4-.3.8-.8.8s-.7-.3-.7-.8.3-.8.8-.8.8.3.8.8ZM514.9,445.4v-6.8h1.2v6.8h-1.2Z"/>
      <path class="st8" d="M518,444.2c.4.2,1,.5,1.6.5.9,0,1.3-.4,1.3-1s-.3-.9-1.2-1.2c-1.2-.4-1.8-1.1-1.8-1.9s.9-2,2.3-2,1.3.2,1.7.4l-.3.9c-.3-.2-.8-.4-1.4-.4s-1.1.4-1.1.9.4.8,1.3,1.2c1.2.4,1.8,1,1.8,2s-.9,2-2.5,2-1.4-.2-1.9-.5l.3-.9Z"/>
      <path class="st8" d="M524.9,441.8h0c.2-.2.4-.5.6-.8l2-2.3h1.5l-2.6,2.8,3,4h-1.5l-2.3-3.2-.6.7v2.5h-1.2v-9.9h1.2v6.3Z"/>
    </g>
    <polygon class="st5" points="158.7 68.6 158.7 21.8 533.5 68.6 158.7 68.6"/>
    <polygon class="st15" points="533.5 21.8 533.5 68.6 158.7 21.8 533.5 21.8"/>
    <g>
      <path d="M169.9,49.3v4h4.6v-4h1.2v9.4h-1.2v-4.4h-4.6v4.4h-1.2v-9.4h1.2Z"/>
      <path d="M179,49.3v5.6c0,2.1.9,3,2.2,3s2.3-.9,2.3-3v-5.6h1.2v5.5c0,2.9-1.5,4.1-3.6,4.1s-3.4-1.1-3.4-4v-5.6h1.2Z"/>
      <path d="M194.8,54.5c0-1.3-.2-2.9-.2-4.1h0c-.3,1.1-.7,2.3-1.2,3.6l-1.7,4.6h-.9l-1.5-4.5c-.4-1.3-.8-2.5-1.1-3.7h0c0,1.2,0,2.7-.2,4.2l-.3,4h-1.2l.7-9.4h1.6l1.6,4.6c.4,1.2.7,2.2,1,3.2h0c.3-1,.6-2,1-3.2l1.7-4.6h1.6l.6,9.4h-1.2l-.2-4.1Z"/>
      <path d="M199.5,55.7l-1,3h-1.3l3.2-9.4h1.5l3.2,9.4h-1.3l-1-3h-3.3ZM202.6,54.8l-.9-2.7c-.2-.6-.4-1.2-.5-1.7h0c-.1.5-.3,1.1-.5,1.7l-.9,2.7h2.9Z"/>
      <path d="M206.6,58.7v-9.4h1.3l3,4.8c.7,1.1,1.2,2.1,1.7,3.1h0c-.1-1.3-.1-2.4-.1-3.9v-4h1.1v9.4h-1.2l-3-4.8c-.7-1-1.3-2.1-1.8-3.2h0c0,1.2,0,2.3,0,3.9v4h-1.1Z"/>
    </g>
    <g>
      <path class="st8" d="M471.6,35.9l-1,3h-1.3l3.2-9.4h1.5l3.2,9.4h-1.3l-1-3h-3.3ZM474.7,34.9l-.9-2.7c-.2-.6-.4-1.2-.5-1.7h0c-.1.5-.3,1.1-.5,1.7l-.9,2.7h2.9Z"/>
      <path class="st8" d="M479.9,29.4v9.4h-1.2v-9.4h1.2Z"/>
      <path class="st8" d="M486.5,35.9l-1,3h-1.3l3.2-9.4h1.5l3.2,9.4h-1.3l-1-3h-3.3ZM489.6,34.9l-.9-2.7c-.2-.6-.4-1.2-.5-1.7h0c-.1.5-.3,1.1-.5,1.7l-.9,2.7h2.9Z"/>
      <path class="st8" d="M500.5,38.4c-.5.2-1.6.5-2.9.5s-2.6-.4-3.5-1.2c-.8-.8-1.3-2-1.3-3.5,0-2.8,1.9-4.9,5.1-4.9s2,.2,2.4.4l-.3,1c-.5-.2-1.1-.4-2.1-.4-2.3,0-3.8,1.4-3.8,3.8s1.4,3.8,3.6,3.8,1.3-.1,1.6-.3v-2.8h-1.9v-1h3.1v4.5Z"/>
      <path class="st8" d="M507.2,34.4h-3.7v3.4h4.1v1h-5.3v-9.4h5.1v1h-3.9v3h3.7v1Z"/>
      <path class="st8" d="M509.2,38.9v-9.4h1.3l3,4.8c.7,1.1,1.2,2.1,1.7,3.1h0c-.1-1.3-.1-2.4-.1-3.9v-4h1.1v9.4h-1.2l-3-4.8c-.7-1-1.3-2.1-1.8-3.2h0c0,1.2,0,2.3,0,3.9v4h-1.1Z"/>
      <path class="st8" d="M520.3,30.4h-2.9v-1h7v1h-2.9v8.4h-1.2v-8.4Z"/>
    </g>
    <polygon class="st5" points="159.3 371.5 159.3 324.8 534.1 371.5 159.3 371.5"/>
    <polygon class="st15" points="534.1 324.8 534.1 371.5 159.3 324.8 534.1 324.8"/>
    <g>
      <path d="M172.1,361.3c-.3.2-1,.4-1.9.4-2,0-3.4-1.4-3.4-3.5s1.4-3.6,3.6-3.6,1.4.2,1.7.4l-.3.9c-.3-.2-.8-.3-1.4-.3-1.6,0-2.4,1.2-2.4,2.6s1,2.5,2.4,2.5,1.2-.2,1.5-.3l.2.9Z"/>
      <path d="M179.6,358.1c0,2.5-1.8,3.6-3.4,3.6s-3.2-1.3-3.2-3.5,1.5-3.6,3.4-3.6,3.3,1.4,3.3,3.5ZM174.2,358.2c0,1.5.8,2.6,2,2.6s2.1-1.1,2.1-2.6-.6-2.6-2-2.6-2.1,1.3-2.1,2.6Z"/>
      <path d="M181.1,356.6c0-.7,0-1.3,0-1.8h1.1v1.1h0c.3-.6,1.1-1.3,2.2-1.3s2.4.6,2.4,2.9v4h-1.2v-3.9c0-1.1-.4-2-1.6-2s-1.4.6-1.7,1.3c0,.2,0,.4,0,.6v4.1h-1.2v-4.9Z"/>
      <path d="M190.4,353.2v1.6h1.8v.9h-1.8v3.7c0,.8.2,1.3.9,1.3s.5,0,.7,0v.9c-.2,0-.6.2-1,.2s-1-.2-1.3-.5c-.3-.4-.5-1-.5-1.8v-3.7h-1.1v-.9h1.1v-1.3l1.2-.4Z"/>
      <path d="M193.5,356.9c0-.8,0-1.5,0-2.1h1.1v1.3h0c.3-.9,1.1-1.5,1.9-1.5s.2,0,.3,0v1.2c-.1,0-.3,0-.4,0-.9,0-1.5.6-1.7,1.6,0,.2,0,.4,0,.6v3.6h-1.2v-4.7Z"/>
      <path d="M204.1,358.1c0,2.5-1.8,3.6-3.4,3.6s-3.2-1.3-3.2-3.5,1.5-3.6,3.4-3.6,3.3,1.4,3.3,3.5ZM198.7,358.2c0,1.5.8,2.6,2,2.6s2.1-1.1,2.1-2.6-.6-2.6-2-2.6-2.1,1.3-2.1,2.6Z"/>
      <path d="M205.6,351.6h1.2v9.9h-1.2v-9.9Z"/>
      <path d="M216.7,360c0,.6,0,1.2,0,1.6h-1.1v-.9h-.1c-.4.5-1.1,1-2.1,1-1.4,0-2.1-1-2.1-1.9,0-1.6,1.5-2.5,4.1-2.5h0c0-.7-.2-1.7-1.5-1.7-.6,0-1.3.2-1.8.5l-.3-.8c.6-.4,1.4-.6,2.2-.6,2.1,0,2.6,1.4,2.6,2.8v2.5ZM215.5,358.1c-1.3,0-2.9.2-2.9,1.5s.5,1.2,1.1,1.2c.9,0,1.5-.6,1.7-1.1,0-.1,0-.3,0-.4v-1.2Z"/>
      <path d="M224.3,359.7c0,.7,0,1.3,0,1.9h-1.1v-1.1h0c-.3.5-1,1.3-2.2,1.3s-2.3-.6-2.3-3v-4h1.2v3.7c0,1.3.4,2.2,1.5,2.2s1.4-.6,1.6-1.1c0-.2.1-.4.1-.6v-4.1h1.2v4.9Z"/>
      <path d="M227.9,353.2v1.6h1.8v.9h-1.8v3.7c0,.8.2,1.3.9,1.3s.5,0,.7,0v.9c-.2,0-.6.2-1,.2s-1-.2-1.3-.5c-.3-.4-.5-1-.5-1.8v-3.7h-1.1v-.9h1.1v-1.3l1.2-.4Z"/>
      <path d="M231,351.6h1.2v4.2h0c.2-.3.5-.7.9-.9.4-.2.8-.3,1.3-.3.9,0,2.4.6,2.4,2.9v4h-1.2v-3.9c0-1.1-.4-2-1.6-2s-1.4.6-1.7,1.2c0,.2,0,.4,0,.6v4.1h-1.2v-9.9Z"/>
      <path d="M244.9,358.1c0,2.5-1.8,3.6-3.4,3.6s-3.2-1.3-3.2-3.5,1.5-3.6,3.4-3.6,3.3,1.4,3.3,3.5ZM239.6,358.2c0,1.5.8,2.6,2,2.6s2.1-1.1,2.1-2.6-.6-2.6-2-2.6-2.1,1.3-2.1,2.6Z"/>
      <path d="M246.5,356.9c0-.8,0-1.5,0-2.1h1.1v1.3h0c.3-.9,1.1-1.5,1.9-1.5s.2,0,.3,0v1.2c-.1,0-.3,0-.4,0-.9,0-1.5.6-1.7,1.6,0,.2,0,.4,0,.6v3.6h-1.2v-4.7Z"/>
      <path d="M252.5,352.9c0,.4-.3.8-.8.8s-.7-.3-.7-.8.3-.8.8-.8.8.3.8.8ZM251.1,361.6v-6.8h1.2v6.8h-1.2Z"/>
      <path d="M255.9,353.2v1.6h1.8v.9h-1.8v3.7c0,.8.2,1.3.9,1.3s.5,0,.7,0v.9c-.2,0-.6.2-1,.2s-1-.2-1.3-.5c-.3-.4-.5-1-.5-1.8v-3.7h-1.1v-.9h1.1v-1.3l1.2-.4Z"/>
      <path d="M259.6,354.8l1.5,4c.2.4.3,1,.4,1.4h0c.1-.4.3-.9.4-1.4l1.3-4h1.3l-1.8,4.8c-.9,2.3-1.5,3.5-2.3,4.2-.6.5-1.2.7-1.5.8l-.3-1c.3,0,.7-.3,1.1-.6.3-.3.7-.7,1-1.4,0-.1,0-.2,0-.3s0-.2,0-.3l-2.5-6.2h1.3Z"/>
    </g>
    <g>
      <path class="st8" d="M473.9,330.3v8.2c0,.6,0,1.3,0,1.8h-1.1v-1.2h0c-.4.8-1.2,1.3-2.3,1.3-1.6,0-2.9-1.4-2.9-3.4,0-2.3,1.4-3.6,3-3.6s1.7.5,2,1h0v-4h1.2ZM472.7,336.3c0-.2,0-.4,0-.5-.2-.8-.9-1.4-1.8-1.4s-2,1.1-2,2.6.7,2.5,2,2.5,1.6-.6,1.8-1.5c0-.2,0-.3,0-.5v-1.2Z"/>
      <path class="st8" d="M476.6,337.1c0,1.7,1.1,2.4,2.3,2.4s1.4-.2,1.9-.4l.2.9c-.4.2-1.2.4-2.3.4-2.1,0-3.3-1.4-3.3-3.4s1.2-3.6,3.2-3.6,2.8,1.9,2.8,3.2,0,.4,0,.6h-4.8ZM480.2,336.2c0-.8-.3-2-1.7-2s-1.8,1.1-1.9,2h3.6Z"/>
      <path class="st8" d="M482.9,330.3h1.2v9.9h-1.2v-9.9Z"/>
      <path class="st8" d="M486.9,337.1c0,1.7,1.1,2.4,2.3,2.4s1.4-.2,1.9-.4l.2.9c-.4.2-1.2.4-2.3.4-2.1,0-3.3-1.4-3.3-3.4s1.2-3.6,3.2-3.6,2.8,1.9,2.8,3.2,0,.4,0,.6h-4.8ZM490.6,336.2c0-.8-.3-2-1.7-2s-1.8,1.1-1.9,2h3.6Z"/>
      <path class="st8" d="M499.1,339.3c0,1.6-.3,2.5-1,3.1-.7.6-1.6.8-2.5.8s-1.7-.2-2.3-.6l.3-1c.4.3,1.1.5,2,.5,1.3,0,2.2-.7,2.2-2.4v-.7h0c-.4.6-1.1,1.1-2.2,1.1-1.7,0-2.9-1.4-2.9-3.3s1.5-3.6,3.1-3.6,1.8.6,2.1,1.2h0v-1h1.1c0,.5,0,1,0,1.8v3.9ZM497.8,336.2c0-.2,0-.4,0-.5-.2-.7-.8-1.3-1.7-1.3s-2,1-2,2.6.7,2.4,2,2.4,1.5-.5,1.7-1.3c0-.2,0-.4,0-.7v-1.2Z"/>
      <path class="st8" d="M505.9,338.7c0,.6,0,1.2,0,1.6h-1.1v-.9h-.1c-.4.5-1.1,1-2.1,1-1.4,0-2.1-1-2.1-1.9,0-1.6,1.5-2.5,4.1-2.5h0c0-.7-.2-1.7-1.5-1.7-.6,0-1.3.2-1.8.5l-.3-.8c.6-.3,1.4-.6,2.2-.6,2.1,0,2.6,1.4,2.6,2.8v2.5ZM504.7,336.8c-1.3,0-2.9.2-2.9,1.5s.5,1.2,1.1,1.2c.9,0,1.5-.6,1.7-1.1,0-.1,0-.3,0-.4v-1.2Z"/>
      <path class="st8" d="M509.3,331.9v1.6h1.8v.9h-1.8v3.7c0,.8.2,1.3.9,1.3s.5,0,.7,0v.9c-.2,0-.6.2-1,.2s-1-.2-1.3-.5c-.3-.4-.5-1-.5-1.8v-3.7h-1.1v-.9h1.1v-1.3l1.2-.4Z"/>
      <path class="st8" d="M513.8,331.6c0,.4-.3.8-.8.8s-.7-.3-.7-.8.3-.8.8-.8.8.3.8.8ZM512.4,340.3v-6.8h1.2v6.8h-1.2Z"/>
      <path class="st8" d="M521.8,336.8c0,2.5-1.8,3.6-3.4,3.6s-3.2-1.3-3.2-3.5,1.5-3.6,3.4-3.6,3.3,1.4,3.3,3.5ZM516.5,336.9c0,1.5.8,2.6,2,2.6s2.1-1.1,2.1-2.6-.6-2.6-2-2.6-2.1,1.3-2.1,2.6Z"/>
      <path class="st8" d="M523.4,335.3c0-.7,0-1.3,0-1.8h1.1v1.1h0c.3-.6,1.1-1.3,2.2-1.3s2.4.6,2.4,2.9v4h-1.2v-3.9c0-1.1-.4-2-1.6-2s-1.4.6-1.7,1.3c0,.2,0,.4,0,.6v4.1h-1.2v-4.9Z"/>
    </g>
    <g>
      <path class="st3" d="M169.3,120.2c0-.9,0-1.6,0-2.2h1.8v.9h.1c.3-.4.9-1.1,2.1-1.1s1.6.5,1.9,1.2h0c.3-.4.6-.6.9-.8.4-.2.8-.3,1.3-.3,1.3,0,2.3.9,2.3,3v4h-2.1v-3.7c0-1-.3-1.6-1-1.6s-.8.3-1,.7c0,.2,0,.4,0,.5v4h-2.1v-3.9c0-.9-.3-1.4-1-1.4s-.9.4-1,.8c0,.2,0,.4,0,.5v4h-2.1v-4.7Z"/>
      <path class="st3" d="M187,123.3c0,.6,0,1.3.1,1.7h-1.9v-.7h-.2c-.4.5-1.1.8-2,.8-1.4,0-2.2-1-2.2-2.1,0-1.8,1.6-2.6,4-2.6h0c0-.5-.2-1-1.2-1s-1.4.2-1.9.5l-.4-1.4c.5-.3,1.4-.6,2.7-.6,2.3,0,3,1.3,3,3v2.4ZM185,121.7c-1.1,0-2,.3-2,1.1s.4.8.8.8,1-.4,1.1-.8c0-.1,0-.2,0-.4v-.7Z"/>
      <path class="st3" d="M188.7,120.2c0-.9,0-1.6,0-2.2h1.8v1h.1c.3-.4,1-1.1,2.1-1.1s2.5.9,2.5,3v4h-2.1v-3.8c0-.9-.3-1.5-1.1-1.5s-.9.4-1.1.8c0,.1,0,.3,0,.5v4h-2.1v-4.7Z"/>
      <path class="st3" d="M203.4,122.7c0,.9,0,1.6,0,2.2h-1.8v-1h-.1c-.3.4-.9,1.1-2.1,1.1s-2.4-.9-2.4-3v-4h2.1v3.7c0,1,.3,1.6,1.1,1.6s.9-.4,1.1-.7c0-.1,0-.3,0-.5v-4.1h2.1v4.7Z"/>
      <path class="st3" d="M210.8,123.3c0,.6,0,1.3.1,1.7h-1.9v-.7h-.2c-.4.5-1.1.8-2,.8-1.4,0-2.2-1-2.2-2.1,0-1.8,1.6-2.6,4-2.6h0c0-.5-.2-1-1.2-1s-1.4.2-1.9.5l-.4-1.4c.5-.3,1.4-.6,2.7-.6,2.3,0,3,1.3,3,3v2.4ZM208.7,121.7c-1.1,0-2,.3-2,1.1s.4.8.8.8,1-.4,1.1-.8c0-.1,0-.2,0-.4v-.7Z"/>
      <path class="st3" d="M212.5,115h2.1v9.9h-2.1v-9.9Z"/>
      <path class="st3" d="M216.3,115h2.1v9.9h-2.1v-9.9Z"/>
      <path class="st3" d="M221.8,118.1l1,3.4c.1.4.3.9.3,1.3h0c0-.4.2-.9.3-1.3l.9-3.4h2.3l-1.6,4.5c-1,2.7-1.6,3.8-2.4,4.5-.7.6-1.5.9-2,.9l-.5-1.8c.3,0,.6-.2.9-.4.3-.2.7-.5.9-.9,0-.1.1-.2.1-.3s0-.2,0-.3l-2.5-6.3h2.4Z"/>
    </g>
    <g>
      <path class="st3" d="M467.8,123.3c0,.6,0,1.3.1,1.7h-1.9v-.7h-.2c-.4.5-1.1.8-2,.8-1.4,0-2.2-1-2.2-2.1,0-1.8,1.6-2.6,4-2.6h0c0-.5-.2-1-1.2-1s-1.4.2-1.9.5l-.4-1.4c.5-.3,1.4-.6,2.7-.6,2.3,0,3,1.3,3,3v2.4ZM465.8,121.7c-1.1,0-2,.3-2,1.1s.4.8.8.8,1-.4,1.1-.8c0-.1,0-.2,0-.4v-.7Z"/>
      <path class="st3" d="M475.2,122.7c0,.9,0,1.6,0,2.2h-1.8v-1h-.1c-.3.4-.9,1.1-2.1,1.1s-2.4-.9-2.4-3v-4h2.1v3.7c0,1,.3,1.6,1.1,1.6s.9-.4,1.1-.7c0-.1,0-.3,0-.5v-4.1h2.1v4.7Z"/>
      <path class="st3" d="M478.6,116.2v1.8h1.5v1.6h-1.5v2.5c0,.8.2,1.2.8,1.2s.4,0,.6,0v1.6c-.3,0-.8.2-1.4.2s-1.3-.2-1.6-.6c-.4-.4-.6-1.1-.6-2v-2.8h-.9v-1.6h.9v-1.3l2.1-.6Z"/>
      <path class="st3" d="M487.3,121.4c0,2.5-1.8,3.7-3.6,3.7s-3.5-1.3-3.5-3.5,1.5-3.6,3.7-3.6,3.5,1.4,3.5,3.5ZM482.3,121.5c0,1.2.5,2.1,1.4,2.1s1.4-.8,1.4-2.1-.4-2-1.4-2-1.4,1.1-1.4,2.1Z"/>
      <path class="st3" d="M487.9,120.2c0-.9,0-1.6,0-2.2h1.8v1h.1c.3-.4,1-1.1,2.1-1.1s2.5.9,2.5,3v4h-2.1v-3.8c0-.9-.3-1.5-1.1-1.5s-.9.4-1.1.8c0,.1,0,.3,0,.5v4h-2.1v-4.7Z"/>
      <path class="st3" d="M502.1,121.4c0,2.5-1.8,3.7-3.6,3.7s-3.5-1.3-3.5-3.5,1.5-3.6,3.7-3.6,3.5,1.4,3.5,3.5ZM497.1,121.5c0,1.2.5,2.1,1.4,2.1s1.4-.8,1.4-2.1-.4-2-1.4-2-1.4,1.1-1.4,2.1Z"/>
      <path class="st3" d="M502.7,120.2c0-.9,0-1.6,0-2.2h1.8v.9h.1c.3-.4.9-1.1,2.1-1.1s1.6.5,1.9,1.2h0c.3-.4.6-.6.9-.8.4-.2.8-.3,1.3-.3,1.3,0,2.3.9,2.3,3v4h-2.1v-3.7c0-1-.3-1.6-1-1.6s-.8.3-1,.7c0,.2,0,.4,0,.5v4h-2.1v-3.9c0-.9-.3-1.4-1-1.4s-.9.4-1,.8c0,.2,0,.4,0,.5v4h-2.1v-4.7Z"/>
      <path class="st3" d="M520.7,121.4c0,2.5-1.8,3.7-3.6,3.7s-3.5-1.3-3.5-3.5,1.5-3.6,3.7-3.6,3.5,1.4,3.5,3.5ZM515.8,121.5c0,1.2.5,2.1,1.4,2.1s1.4-.8,1.4-2.1-.4-2-1.4-2-1.4,1.1-1.4,2.1Z"/>
      <path class="st3" d="M527.8,122.7c0,.9,0,1.6,0,2.2h-1.8v-1h-.1c-.3.4-.9,1.1-2.1,1.1s-2.4-.9-2.4-3v-4h2.1v3.7c0,1,.3,1.6,1.1,1.6s.9-.4,1.1-.7c0-.1,0-.3,0-.5v-4.1h2.1v4.7Z"/>
      <path class="st3" d="M528.7,123.1c.4.2,1.2.5,1.8.5s.9-.2.9-.6-.2-.5-1-.8c-1.4-.5-2-1.2-2-2.1,0-1.3,1.1-2.3,2.8-2.3s1.5.2,1.9.4l-.4,1.5c-.3-.2-.9-.4-1.5-.4s-.8.2-.8.5.3.5,1.1.8c1.3.4,1.8,1.1,1.8,2.1,0,1.3-1,2.2-3,2.2s-1.7-.2-2.2-.5l.4-1.5Z"/>
    </g>
    <g>
      <path class="st3" d="M398.6,115v7.9c0,.8,0,1.6,0,2h-1.9v-1h-.1c-.4.8-1.3,1.1-2.1,1.1-1.6,0-2.9-1.4-2.9-3.5,0-2.3,1.4-3.7,3.1-3.7s1.5.3,1.8.8h0v-3.7h2.1ZM396.4,121c0-.1,0-.3,0-.4-.1-.6-.6-1-1.2-1-1,0-1.5.9-1.5,1.9s.6,1.9,1.5,1.9,1.1-.4,1.2-1c0-.2,0-.3,0-.5v-.9Z"/>
      <path class="st3" d="M401.9,122.2c0,.9.9,1.3,1.9,1.3s1.3,0,1.9-.3l.3,1.4c-.7.3-1.6.4-2.5.4-2.3,0-3.7-1.3-3.7-3.5s1.1-3.7,3.5-3.7,3.1,1.7,3.1,3.4,0,.7,0,.8h-4.4ZM404.4,120.7c0-.5-.2-1.4-1.2-1.4s-1.3.8-1.3,1.4h2.5Z"/>
      <path class="st3" d="M407.7,115h2.1v9.9h-2.1v-9.9Z"/>
      <path class="st3" d="M413.2,122.2c0,.9.9,1.3,1.9,1.3s1.3,0,1.9-.3l.3,1.4c-.7.3-1.6.4-2.5.4-2.3,0-3.7-1.3-3.7-3.5s1.1-3.7,3.5-3.7,3.1,1.7,3.1,3.4,0,.7,0,.8h-4.4ZM415.7,120.7c0-.5-.2-1.4-1.2-1.4s-1.3.8-1.3,1.4h2.5Z"/>
      <path class="st3" d="M425.4,123.9c0,1.3-.3,2.4-1.1,3.1-.7.6-1.8.8-2.8.8s-1.8-.2-2.5-.5l.4-1.6c.4.3,1.2.5,2,.5s1.8-.5,1.8-1.8v-.4h0c-.4.6-1.1.9-1.8.9-1.7,0-2.9-1.4-2.9-3.3s1.4-3.6,3.1-3.6,1.5.4,1.9,1h0v-.8h1.9c0,.4,0,1,0,2v3.8ZM423.3,120.8c0-.1,0-.3,0-.4-.2-.6-.6-.9-1.1-.9s-1.4.7-1.4,1.9.5,1.8,1.4,1.8,1-.4,1.1-.9c0-.2,0-.4,0-.6v-1Z"/>
      <path class="st3" d="M432.8,123.3c0,.6,0,1.3.1,1.7h-1.9v-.7h-.2c-.4.5-1.1.8-2,.8-1.4,0-2.2-1-2.2-2.1,0-1.8,1.6-2.6,4-2.6h0c0-.5-.2-1-1.2-1s-1.4.2-1.9.5l-.4-1.4c.5-.3,1.4-.6,2.7-.6,2.3,0,3,1.3,3,3v2.4ZM430.7,121.7c-1.1,0-2,.3-2,1.1s.4.8.8.8,1-.4,1.1-.8c0-.1,0-.2,0-.4v-.7Z"/>
      <path class="st3" d="M436.8,116.2v1.8h1.5v1.6h-1.5v2.5c0,.8.2,1.2.8,1.2s.4,0,.6,0v1.6c-.3,0-.8.2-1.4.2s-1.3-.2-1.6-.6c-.4-.4-.6-1.1-.6-2v-2.8h-.9v-1.6h.9v-1.3l2.1-.6Z"/>
      <path class="st3" d="M441.1,122.2c0,.9.9,1.3,1.9,1.3s1.3,0,1.9-.3l.3,1.4c-.7.3-1.6.4-2.5.4-2.3,0-3.7-1.3-3.7-3.5s1.1-3.7,3.5-3.7,3.1,1.7,3.1,3.4,0,.7,0,.8h-4.4ZM443.6,120.7c0-.5-.2-1.4-1.2-1.4s-1.3.8-1.3,1.4h2.5Z"/>
      <path class="st3" d="M453.5,115v7.9c0,.8,0,1.6,0,2h-1.9v-1h-.1c-.4.8-1.3,1.1-2.1,1.1-1.6,0-2.9-1.4-2.9-3.5,0-2.3,1.4-3.7,3.1-3.7s1.5.3,1.8.8h0v-3.7h2.1ZM451.4,121c0-.1,0-.3,0-.4-.1-.6-.6-1-1.2-1-1,0-1.5.9-1.5,1.9s.6,1.9,1.5,1.9,1.1-.4,1.2-1c0-.2,0-.3,0-.5v-.9Z"/>
    </g>
    <g>
      <path class="st3" d="M313,123.1c.4.2,1.2.5,1.8.5s.9-.2.9-.6-.2-.5-1-.8c-1.4-.5-2-1.2-2-2.1,0-1.3,1.1-2.3,2.8-2.3s1.5.2,1.9.4l-.4,1.5c-.3-.2-.9-.4-1.5-.4s-.8.2-.8.5.3.5,1.1.8c1.3.4,1.8,1.1,1.8,2.1,0,1.3-1,2.2-3,2.2s-1.7-.2-2.2-.5l.4-1.5Z"/>
      <path class="st3" d="M325.6,122.7c0,.9,0,1.6,0,2.2h-1.8v-1h-.1c-.3.4-.9,1.1-2.1,1.1s-2.4-.9-2.4-3v-4h2.1v3.7c0,1,.3,1.6,1.1,1.6s.9-.4,1.1-.7c0-.1,0-.3,0-.5v-4.1h2.1v4.7Z"/>
      <path class="st3" d="M327.3,120.4c0-.9,0-1.7,0-2.3h1.8v1h.1c.5-.7,1.3-1.1,2.3-1.1,1.5,0,2.8,1.3,2.8,3.5s-1.6,3.7-3.1,3.7-1.5-.3-1.8-.8h0v3.4h-2.1v-7.3ZM329.4,122c0,.2,0,.3,0,.4.1.6.6,1,1.2,1,.9,0,1.5-.8,1.5-1.9s-.5-1.9-1.4-1.9-1.1.4-1.3,1.1c0,.1,0,.3,0,.4v.9Z"/>
      <path class="st3" d="M337.3,122.2c0,.9.9,1.3,1.9,1.3s1.3,0,1.9-.3l.3,1.4c-.7.3-1.6.4-2.5.4-2.3,0-3.7-1.3-3.7-3.5s1.1-3.7,3.5-3.7,3.1,1.7,3.1,3.4,0,.7,0,.8h-4.4ZM339.8,120.7c0-.5-.2-1.4-1.2-1.4s-1.3.8-1.3,1.4h2.5Z"/>
      <path class="st3" d="M343.1,120.3c0-1,0-1.7,0-2.3h1.8v1.3h.1c.3-1,1.2-1.4,1.8-1.4s.3,0,.4,0v2c-.2,0-.3,0-.6,0-.8,0-1.3.4-1.5,1.1,0,.1,0,.3,0,.5v3.5h-2.1v-4.6Z"/>
      <path class="st3" d="M350.2,118.1l.9,3.2c.2.6.3,1.1.4,1.7h0c.1-.6.2-1.1.4-1.7l.9-3.2h2.2l-2.5,6.8h-2.1l-2.5-6.8h2.3Z"/>
      <path class="st3" d="M358.3,116.2c0,.6-.4,1.1-1.1,1.1s-1.1-.5-1.1-1.1.4-1.1,1.1-1.1,1.1.5,1.1,1.1ZM356.1,124.9v-6.8h2.1v6.8h-2.1Z"/>
      <path class="st3" d="M359.9,123.1c.4.2,1.2.5,1.8.5s.9-.2.9-.6-.2-.5-1-.8c-1.4-.5-2-1.2-2-2.1,0-1.3,1.1-2.3,2.8-2.3s1.5.2,1.9.4l-.4,1.5c-.3-.2-.9-.4-1.5-.4s-.8.2-.8.5.3.5,1.1.8c1.3.4,1.8,1.1,1.8,2.1,0,1.3-1,2.2-3,2.2s-1.7-.2-2.2-.5l.4-1.5Z"/>
      <path class="st3" d="M367.6,122.2c0,.9.9,1.3,1.9,1.3s1.3,0,1.9-.3l.3,1.4c-.7.3-1.6.4-2.5.4-2.3,0-3.7-1.3-3.7-3.5s1.1-3.7,3.5-3.7,3.1,1.7,3.1,3.4,0,.7,0,.8h-4.4ZM370.1,120.7c0-.5-.2-1.4-1.2-1.4s-1.3.8-1.3,1.4h2.5Z"/>
      <path class="st3" d="M380,115v7.9c0,.8,0,1.6,0,2h-1.9v-1h-.1c-.4.8-1.3,1.1-2.1,1.1-1.6,0-2.9-1.4-2.9-3.5,0-2.3,1.4-3.7,3.1-3.7s1.5.3,1.8.8h0v-3.7h2.1ZM377.9,121c0-.1,0-.3,0-.4-.1-.6-.6-1-1.2-1-1,0-1.5.9-1.5,1.9s.6,1.9,1.5,1.9,1.1-.4,1.2-1c0-.2,0-.3,0-.5v-.9Z"/>
    </g>
    <g>
      <path class="st3" d="M254.6,123.3c0,.6,0,1.3.1,1.7h-1.9v-.7h-.2c-.4.5-1.1.8-2,.8-1.4,0-2.2-1-2.2-2.1,0-1.8,1.6-2.6,4-2.6h0c0-.5-.2-1-1.2-1s-1.4.2-1.9.5l-.4-1.4c.5-.3,1.4-.6,2.7-.6,2.3,0,3,1.3,3,3v2.4ZM252.5,121.7c-1.1,0-2,.3-2,1.1s.4.8.8.8,1-.4,1.1-.8c0-.1,0-.2,0-.4v-.7Z"/>
      <path class="st3" d="M256.3,123.1c.4.2,1.2.5,1.8.5s.9-.2.9-.6-.2-.5-1-.8c-1.4-.5-2-1.2-2-2.1,0-1.3,1.1-2.3,2.8-2.3s1.5.2,1.9.4l-.4,1.5c-.3-.2-.9-.4-1.5-.4s-.8.2-.8.5.3.5,1.1.8c1.3.4,1.8,1.1,1.8,2.1,0,1.3-1,2.2-3,2.2s-1.7-.2-2.2-.5l.4-1.5Z"/>
      <path class="st3" d="M262.4,123.1c.4.2,1.2.5,1.8.5s.9-.2.9-.6-.2-.5-1-.8c-1.4-.5-2-1.2-2-2.1,0-1.3,1.1-2.3,2.8-2.3s1.5.2,1.9.4l-.4,1.5c-.3-.2-.9-.4-1.5-.4s-.8.2-.8.5.3.5,1.1.8c1.3.4,1.8,1.1,1.8,2.1,0,1.3-1,2.2-3,2.2s-1.7-.2-2.2-.5l.4-1.5Z"/>
      <path class="st3" d="M270.6,116.2c0,.6-.4,1.1-1.1,1.1s-1.1-.5-1.1-1.1.4-1.1,1.1-1.1,1.1.5,1.1,1.1ZM268.4,124.9v-6.8h2.1v6.8h-2.1Z"/>
      <path class="st3" d="M272.3,123.1c.4.2,1.2.5,1.8.5s.9-.2.9-.6-.2-.5-1-.8c-1.4-.5-2-1.2-2-2.1,0-1.3,1.1-2.3,2.8-2.3s1.5.2,1.9.4l-.4,1.5c-.3-.2-.9-.4-1.5-.4s-.8.2-.8.5.3.5,1.1.8c1.3.4,1.8,1.1,1.8,2.1,0,1.3-1,2.2-3,2.2s-1.7-.2-2.2-.5l.4-1.5Z"/>
      <path class="st3" d="M280.7,116.2v1.8h1.5v1.6h-1.5v2.5c0,.8.2,1.2.8,1.2s.4,0,.6,0v1.6c-.3,0-.8.2-1.4.2s-1.3-.2-1.6-.6c-.4-.4-.6-1.1-.6-2v-2.8h-.9v-1.6h.9v-1.3l2.1-.6Z"/>
      <path class="st3" d="M285.1,122.2c0,.9.9,1.3,1.9,1.3s1.3,0,1.9-.3l.3,1.4c-.7.3-1.6.4-2.5.4-2.3,0-3.7-1.3-3.7-3.5s1.1-3.7,3.5-3.7,3.1,1.7,3.1,3.4,0,.7,0,.8h-4.4ZM287.6,120.7c0-.5-.2-1.4-1.2-1.4s-1.3.8-1.3,1.4h2.5Z"/>
      <path class="st3" d="M297.5,115v7.9c0,.8,0,1.6,0,2h-1.9v-1h-.1c-.4.8-1.3,1.1-2.1,1.1-1.6,0-2.9-1.4-2.9-3.5,0-2.3,1.4-3.7,3.1-3.7s1.5.3,1.8.8h0v-3.7h2.1ZM295.3,121c0-.1,0-.3,0-.4-.1-.6-.6-1-1.2-1-1,0-1.5.9-1.5,1.9s.6,1.9,1.5,1.9,1.1-.4,1.2-1c0-.2,0-.3,0-.5v-.9Z"/>
    </g>
    <g>
      <path class="st8" d="M185.7,301.8c.4.2,1,.5,1.6.5.9,0,1.3-.4,1.3-1s-.3-.9-1.2-1.2c-1.2-.4-1.8-1.1-1.8-1.9s.9-2,2.3-2,1.3.2,1.7.4l-.3.9c-.3-.2-.8-.4-1.4-.4s-1.1.4-1.1.9.4.8,1.3,1.2c1.2.4,1.8,1,1.8,2s-.9,2-2.5,2-1.4-.2-1.9-.5l.3-.9Z"/>
      <path class="st8" d="M192.1,299.8c0,1.7,1.1,2.4,2.3,2.4s1.4-.2,1.9-.3l.2.9c-.4.2-1.2.4-2.3.4-2.1,0-3.3-1.4-3.3-3.4s1.2-3.6,3.2-3.6,2.8,1.9,2.8,3.2,0,.4,0,.6h-4.8ZM195.7,299c0-.8-.3-2-1.7-2s-1.8,1.1-1.9,2h3.6Z"/>
      <path class="st8" d="M198.4,293.1h1.2v9.9h-1.2v-9.9Z"/>
      <path class="st8" d="M201.9,303v-5.8h-.9v-.9h.9v-.3c0-1,.2-1.8.8-2.4.5-.4,1.1-.6,1.7-.6s.8,0,1.1.2l-.2,1c-.2,0-.4-.2-.8-.2-1,0-1.3.9-1.3,2v.4h1.6v.9h-1.6v5.8h-1.2Z"/>
    </g>
    <g>
      <path class="st8" d="M471.5,301.6c.3.2,1.1.6,2,.6,1.6,0,2.1-1,2.1-1.8,0-1.3-1.2-1.8-2.4-1.8h-.7v-.9h.7c.9,0,2-.5,2-1.5s-.5-1.4-1.6-1.4-1.4.3-1.8.6l-.3-.9c.5-.4,1.4-.7,2.4-.7,1.8,0,2.6,1.1,2.6,2.2s-.6,1.8-1.7,2.2h0c1.1.2,2,1.1,2,2.4,0,1.5-1.1,2.7-3.3,2.7s-1.9-.3-2.4-.6l.3-.9Z"/>
      <path class="st8" d="M478.8,298.3c0-.8,0-1.5,0-2.1h1.1v1.3h0c.3-.9,1.1-1.5,1.9-1.5s.2,0,.3,0v1.2c-.1,0-.3,0-.4,0-.9,0-1.5.6-1.7,1.6,0,.2,0,.4,0,.6v3.6h-1.2v-4.7Z"/>
      <path class="st8" d="M489.1,293.1v8.2c0,.6,0,1.3,0,1.8h-1.1v-1.2h0c-.4.8-1.2,1.3-2.3,1.3-1.6,0-2.9-1.4-2.9-3.4,0-2.3,1.4-3.6,3-3.6s1.7.5,2,1h0v-4h1.2ZM487.8,299c0-.2,0-.4,0-.5-.2-.8-.9-1.4-1.8-1.4s-2,1.1-2,2.6.7,2.5,2,2.5,1.6-.6,1.8-1.5c0-.2,0-.3,0-.5v-1.2Z"/>
      <path class="st8" d="M494,298.8v.9h-3.5v-.9h3.5Z"/>
      <path class="st8" d="M495.4,298.4c0-.9,0-1.6,0-2.2h1.1v1.2h0c.5-.8,1.3-1.3,2.4-1.3,1.7,0,2.9,1.4,2.9,3.4s-1.5,3.6-3.1,3.6-1.7-.4-2.1-1.1h0v3.7h-1.2v-7.3ZM496.6,300.3c0,.2,0,.3,0,.5.2.9,1,1.4,1.8,1.4,1.3,0,2.1-1.1,2.1-2.6s-.7-2.5-2-2.5-1.6.6-1.9,1.5c0,.2,0,.3,0,.5v1.2Z"/>
      <path class="st8" d="M508.1,301.4c0,.6,0,1.2,0,1.6h-1.1v-.9h-.1c-.4.5-1.1,1-2.1,1-1.4,0-2.1-1-2.1-1.9,0-1.6,1.5-2.5,4.1-2.5h0c0-.7-.2-1.7-1.5-1.7-.6,0-1.3.2-1.8.5l-.3-.8c.6-.4,1.4-.6,2.2-.6,2.1,0,2.6,1.4,2.6,2.8v2.5ZM507,299.6c-1.3,0-2.9.2-2.9,1.5s.5,1.2,1.1,1.2c.9,0,1.5-.6,1.7-1.1,0-.1,0-.3,0-.4v-1.2Z"/>
      <path class="st8" d="M510.1,298.3c0-.8,0-1.5,0-2.1h1.1v1.3h0c.3-.9,1.1-1.5,1.9-1.5s.2,0,.3,0v1.2c-.1,0-.3,0-.4,0-.9,0-1.5.6-1.7,1.6,0,.2,0,.4,0,.6v3.6h-1.2v-4.7Z"/>
      <path class="st8" d="M516.5,294.6v1.6h1.8v.9h-1.8v3.7c0,.8.2,1.3.9,1.3s.5,0,.7,0v.9c-.2,0-.6.2-1,.2s-1-.2-1.3-.5c-.3-.4-.5-1-.5-1.8v-3.7h-1.1v-.9h1.1v-1.3l1.2-.4Z"/>
      <path class="st8" d="M520.2,296.2l1.5,4c.2.4.3,1,.4,1.4h0c.1-.4.3-.9.4-1.4l1.3-4h1.3l-1.8,4.8c-.9,2.3-1.5,3.5-2.3,4.2-.6.5-1.2.7-1.5.8l-.3-1c.3,0,.7-.3,1.1-.6.3-.3.7-.7,1-1.4,0-.1,0-.2,0-.3s0-.2,0-.3l-2.5-6.2h1.3Z"/>
    </g>
    <path class="st8" d="M399.1,299.6c0,2.5-1.8,3.6-3.4,3.6s-3.2-1.3-3.2-3.5,1.5-3.6,3.4-3.6,3.3,1.4,3.3,3.5ZM393.8,299.6c0,1.5.8,2.6,2,2.6s2.1-1.1,2.1-2.6-.6-2.6-2-2.6-2.1,1.3-2.1,2.6Z"/>
    <path class="st8" d="M404.9,303v-5.8h-2.9v5.8h-1.2v-5.8h-.9v-.9h.9v-.2c0-1,.2-1.8.8-2.3.4-.4,1-.6,1.7-.6s.8.1,1,.2l-.3.9c-.2,0-.4-.2-.7-.2-1,0-1.2.8-1.2,1.9v.3h2.9v-.3c0-1,.2-1.8.8-2.4.5-.4,1.1-.6,1.6-.6s.8,0,1.1.2l-.2,1c-.2,0-.4-.2-.8-.2-1,0-1.3.9-1.3,2v.4h1.6v.9h-1.6v5.8h-1.2Z"/>
    <g>
      <path class="st8" d="M408.5,301.8c.4.2,1,.5,1.6.5.9,0,1.3-.4,1.3-1s-.3-.9-1.2-1.2c-1.2-.4-1.8-1.1-1.8-1.9s.9-2,2.3-2,1.3.2,1.7.4l-.3.9c-.3-.2-.8-.4-1.4-.4s-1.1.4-1.1.9.4.8,1.3,1.2c1.2.4,1.8,1,1.8,2s-.9,2-2.5,2-1.4-.2-1.9-.5l.3-.9Z"/>
      <path class="st8" d="M414.2,293.1h1.2v4.2h0c.2-.3.5-.7.9-.9.4-.2.8-.3,1.3-.3.9,0,2.4.6,2.4,2.9v4h-1.2v-3.9c0-1.1-.4-2-1.6-2s-1.4.6-1.7,1.2c0,.2,0,.4,0,.6v4.1h-1.2v-9.9Z"/>
      <path class="st8" d="M428.2,299.6c0,2.5-1.8,3.6-3.4,3.6s-3.2-1.3-3.2-3.5,1.5-3.6,3.4-3.6,3.3,1.4,3.3,3.5ZM422.8,299.6c0,1.5.8,2.6,2,2.6s2.1-1.1,2.1-2.6-.6-2.6-2-2.6-2.1,1.3-2.1,2.6Z"/>
      <path class="st8" d="M429.7,298.3c0-.8,0-1.5,0-2.1h1.1v1.3h0c.3-.9,1.1-1.5,1.9-1.5s.2,0,.3,0v1.2c-.1,0-.3,0-.4,0-.9,0-1.5.6-1.7,1.6,0,.2,0,.4,0,.6v3.6h-1.2v-4.7Z"/>
      <path class="st8" d="M435.7,294.3c0,.4-.3.8-.8.8s-.7-.3-.7-.8.3-.8.8-.8.8.3.8.8ZM434.3,303v-6.8h1.2v6.8h-1.2Z"/>
      <path class="st8" d="M437.6,298.1c0-.7,0-1.3,0-1.8h1.1v1.1h0c.3-.6,1.1-1.3,2.2-1.3s2.4.6,2.4,2.9v4h-1.2v-3.9c0-1.1-.4-2-1.6-2s-1.4.6-1.7,1.3c0,.2,0,.4,0,.6v4.1h-1.2v-4.9Z"/>
      <path class="st8" d="M451.2,302c0,1.6-.3,2.5-1,3.1-.7.6-1.6.8-2.5.8s-1.7-.2-2.3-.6l.3-1c.4.3,1.1.5,2,.5,1.3,0,2.2-.7,2.2-2.4v-.7h0c-.4.6-1.1,1.1-2.2,1.1-1.7,0-2.9-1.4-2.9-3.3s1.5-3.6,3.1-3.6,1.8.6,2.1,1.2h0v-1h1.1c0,.5,0,1,0,1.8v3.9ZM449.9,298.9c0-.2,0-.4,0-.5-.2-.7-.8-1.3-1.7-1.3s-2,1-2,2.6.7,2.4,2,2.4,1.5-.5,1.7-1.3c0-.2,0-.4,0-.7v-1.2Z"/>
    </g>
    <g>
      <path class="st8" d="M251.7,301.4c0,.6,0,1.2,0,1.6h-1.1v-.9h-.1c-.4.5-1.1,1-2.1,1-1.4,0-2.1-1-2.1-1.9,0-1.6,1.5-2.5,4.1-2.5h0c0-.7-.2-1.7-1.5-1.7-.6,0-1.3.2-1.8.5l-.3-.8c.6-.4,1.4-.6,2.2-.6,2.1,0,2.6,1.4,2.6,2.8v2.5ZM250.5,299.6c-1.3,0-2.9.2-2.9,1.5s.5,1.2,1.1,1.2c.9,0,1.5-.6,1.7-1.1,0-.1,0-.3,0-.4v-1.2Z"/>
      <path class="st8" d="M253.5,301.8c.4.2,1,.5,1.6.5.9,0,1.3-.4,1.3-1s-.3-.9-1.2-1.2c-1.2-.4-1.8-1.1-1.8-1.9s.9-2,2.3-2,1.3.2,1.7.4l-.3.9c-.3-.2-.8-.4-1.4-.4s-1.1.4-1.1.9.4.8,1.3,1.2c1.2.4,1.8,1,1.8,2s-.9,2-2.5,2-1.4-.2-1.9-.5l.3-.9Z"/>
      <path class="st8" d="M259.1,301.8c.4.2,1,.5,1.6.5.9,0,1.3-.4,1.3-1s-.3-.9-1.2-1.2c-1.2-.4-1.8-1.1-1.8-1.9s.9-2,2.3-2,1.3.2,1.7.4l-.3.9c-.3-.2-.8-.4-1.4-.4s-1.1.4-1.1.9.4.8,1.3,1.2c1.2.4,1.8,1,1.8,2s-.9,2-2.5,2-1.4-.2-1.9-.5l.3-.9Z"/>
      <path class="st8" d="M266.2,294.3c0,.4-.3.8-.8.8s-.7-.3-.7-.8.3-.8.8-.8.8.3.8.8ZM264.8,303v-6.8h1.2v6.8h-1.2Z"/>
      <path class="st8" d="M267.9,301.8c.4.2,1,.5,1.6.5.9,0,1.3-.4,1.3-1s-.3-.9-1.2-1.2c-1.2-.4-1.8-1.1-1.8-1.9s.9-2,2.3-2,1.3.2,1.7.4l-.3.9c-.3-.2-.8-.4-1.4-.4s-1.1.4-1.1.9.4.8,1.3,1.2c1.2.4,1.8,1,1.8,2s-.9,2-2.5,2-1.4-.2-1.9-.5l.3-.9Z"/>
      <path class="st8" d="M275.1,294.6v1.6h1.8v.9h-1.8v3.7c0,.8.2,1.3.9,1.3s.5,0,.7,0v.9c-.2,0-.6.2-1,.2s-1-.2-1.3-.5c-.3-.4-.5-1-.5-1.8v-3.7h-1.1v-.9h1.1v-1.3l1.2-.4Z"/>
      <path class="st8" d="M283,301.4c0,.6,0,1.2,0,1.6h-1.1v-.9h-.1c-.4.5-1.1,1-2.1,1-1.4,0-2.1-1-2.1-1.9,0-1.6,1.5-2.5,4.1-2.5h0c0-.7-.2-1.7-1.5-1.7-.6,0-1.3.2-1.8.5l-.3-.8c.6-.4,1.4-.6,2.2-.6,2.1,0,2.6,1.4,2.6,2.8v2.5ZM281.8,299.6c-1.3,0-2.9.2-2.9,1.5s.5,1.2,1.1,1.2c.9,0,1.5-.6,1.7-1.1,0-.1,0-.3,0-.4v-1.2Z"/>
      <path class="st8" d="M285,298.1c0-.7,0-1.3,0-1.8h1.1v1.1h0c.3-.6,1.1-1.3,2.2-1.3s2.4.6,2.4,2.9v4h-1.2v-3.9c0-1.1-.4-2-1.6-2s-1.4.6-1.7,1.3c0,.2,0,.4,0,.6v4.1h-1.2v-4.9Z"/>
      <path class="st8" d="M294.2,294.6v1.6h1.8v.9h-1.8v3.7c0,.8.2,1.3.9,1.3s.5,0,.7,0v.9c-.2,0-.6.2-1,.2s-1-.2-1.3-.5c-.3-.4-.5-1-.5-1.8v-3.7h-1.1v-.9h1.1v-1.3l1.2-.4Z"/>
    </g>
    <g>
      <path class="st8" d="M322.9,302.8c-.3.2-1,.4-1.9.4-2,0-3.4-1.4-3.4-3.5s1.4-3.6,3.6-3.6,1.4.2,1.7.4l-.3.9c-.3-.2-.8-.3-1.4-.3-1.6,0-2.4,1.2-2.4,2.6s1,2.5,2.4,2.5,1.2-.2,1.5-.3l.2.9Z"/>
      <path class="st8" d="M330.4,299.6c0,2.5-1.8,3.6-3.4,3.6s-3.2-1.3-3.2-3.5,1.5-3.6,3.4-3.6,3.3,1.4,3.3,3.5ZM325,299.6c0,1.5.8,2.6,2,2.6s2.1-1.1,2.1-2.6-.6-2.6-2-2.6-2.1,1.3-2.1,2.6Z"/>
      <path class="st8" d="M335,298.8v.9h-3.5v-.9h3.5Z"/>
      <path class="st8" d="M336.9,296.2l.9,3.4c.2.8.4,1.5.5,2.2h0c.2-.7.4-1.4.6-2.1l1.1-3.5h1l1.1,3.4c.3.8.4,1.5.6,2.2h0c.1-.7.3-1.4.5-2.2l1-3.4h1.2l-2.2,6.8h-1.1l-1-3.2c-.2-.8-.4-1.4-.6-2.2h0c-.2.8-.4,1.5-.6,2.2l-1.1,3.2h-1.1l-2-6.8h1.3Z"/>
      <path class="st8" d="M352.7,299.6c0,2.5-1.8,3.6-3.4,3.6s-3.2-1.3-3.2-3.5,1.5-3.6,3.4-3.6,3.3,1.4,3.3,3.5ZM347.3,299.6c0,1.5.8,2.6,2,2.6s2.1-1.1,2.1-2.6-.6-2.6-2-2.6-2.1,1.3-2.1,2.6Z"/>
      <path class="st8" d="M354.3,298.3c0-.8,0-1.5,0-2.1h1.1v1.3h0c.3-.9,1.1-1.5,1.9-1.5s.2,0,.3,0v1.2c-.1,0-.3,0-.4,0-.9,0-1.5.6-1.7,1.6,0,.2,0,.4,0,.6v3.6h-1.2v-4.7Z"/>
      <path class="st8" d="M360.1,299.3h0c.2-.2.4-.5.6-.8l2-2.3h1.5l-2.6,2.8,3,4h-1.5l-2.3-3.2-.6.7v2.5h-1.2v-9.9h1.2v6.3Z"/>
      <path class="st8" d="M366.1,299.8c0,1.7,1.1,2.4,2.3,2.4s1.4-.2,1.9-.3l.2.9c-.4.2-1.2.4-2.3.4-2.1,0-3.3-1.4-3.3-3.4s1.2-3.6,3.2-3.6,2.8,1.9,2.8,3.2,0,.4,0,.6h-4.8ZM369.8,299c0-.8-.3-2-1.7-2s-1.8,1.1-1.9,2h3.6Z"/>
      <path class="st8" d="M372.5,298.3c0-.8,0-1.5,0-2.1h1.1v1.3h0c.3-.9,1.1-1.5,1.9-1.5s.2,0,.3,0v1.2c-.1,0-.3,0-.4,0-.9,0-1.5.6-1.7,1.6,0,.2,0,.4,0,.6v3.6h-1.2v-4.7Z"/>
    </g>
    <g>
      <path class="st10" d="M16.5,182.6l-3.1-9.4h1.3l1.5,4.7c.4,1.3.7,2.4,1,3.5h0c.3-1.1.6-2.3,1.1-3.5l1.6-4.7h1.3l-3.4,9.4h-1.3Z"/>
      <path class="st10" d="M23.4,173.9c0,.4-.3.8-.8.8s-.7-.3-.7-.8.3-.8.8-.8.8.3.8.8ZM22,182.6v-6.8h1.2v6.8h-1.2Z"/>
      <path class="st10" d="M26,179.5c0,1.7,1.1,2.4,2.3,2.4s1.4-.2,1.9-.4l.2.9c-.4.2-1.2.4-2.3.4-2.1,0-3.3-1.4-3.3-3.4s1.2-3.6,3.2-3.6,2.8,1.9,2.8,3.2,0,.4,0,.6h-4.8ZM29.6,178.6c0-.8-.3-2-1.7-2s-1.8,1.1-1.9,2h3.6Z"/>
      <path class="st10" d="M32.8,175.9l.9,3.4c.2.8.4,1.5.5,2.2h0c.2-.7.4-1.4.6-2.1l1.1-3.5h1l1.1,3.4c.3.8.4,1.5.6,2.2h0c.1-.7.3-1.4.5-2.2l1-3.4h1.2l-2.2,6.8h-1.1l-1-3.2c-.2-.8-.4-1.4-.6-2.2h0c-.2.8-.4,1.5-.6,2.2l-1.1,3.2h-1.1l-2-6.8h1.3Z"/>
    </g>
    <g>
      <path class="st15" d="M14.3,347.9c.5.4,1.3.6,2.2.6,1.2,0,2-.7,2-1.6s-.5-1.4-1.8-1.9c-1.5-.6-2.5-1.4-2.5-2.7s1.2-2.6,3.1-2.6,1.7.2,2.1.5l-.3,1c-.3-.2-.9-.4-1.8-.4-1.3,0-1.8.8-1.8,1.4s.6,1.3,1.9,1.8c1.6.6,2.4,1.4,2.4,2.8s-1.1,2.7-3.3,2.7-1.9-.3-2.4-.6l.3-1Z"/>
      <path class="st15" d="M27.5,346c0,2.5-1.8,3.6-3.4,3.6s-3.2-1.3-3.2-3.5,1.5-3.6,3.4-3.6,3.3,1.4,3.3,3.5ZM22.2,346c0,1.5.8,2.6,2,2.6s2.1-1.1,2.1-2.6-.6-2.6-2-2.6-2.1,1.3-2.1,2.6Z"/>
      <path class="st15" d="M29.5,342.6l1.3,3.8c.2.6.4,1.2.5,1.8h0c.2-.6.4-1.1.6-1.8l1.3-3.8h1.3l-2.7,6.8h-1.2l-2.6-6.8h1.3Z"/>
      <path class="st15" d="M36.3,346.2c0,1.7,1.1,2.4,2.3,2.4s1.4-.2,1.9-.4l.2.9c-.4.2-1.2.4-2.3.4-2.1,0-3.3-1.4-3.3-3.4s1.2-3.6,3.2-3.6,2.8,1.9,2.8,3.2,0,.4,0,.6h-4.8ZM39.9,345.4c0-.8-.3-2-1.7-2s-1.8,1.1-1.9,2h3.6Z"/>
      <path class="st15" d="M42.6,344.7c0-.8,0-1.5,0-2.1h1.1v1.3h0c.3-.9,1.1-1.5,1.9-1.5s.2,0,.3,0v1.2c-.1,0-.3,0-.4,0-.9,0-1.5.6-1.7,1.6,0,.2,0,.4,0,.6v3.6h-1.2v-4.7Z"/>
      <path class="st15" d="M47.8,346.2c0,1.7,1.1,2.4,2.3,2.4s1.4-.2,1.9-.4l.2.9c-.4.2-1.2.4-2.3.4-2.1,0-3.3-1.4-3.3-3.4s1.2-3.6,3.2-3.6,2.8,1.9,2.8,3.2,0,.4,0,.6h-4.8ZM51.4,345.4c0-.8-.3-2-1.7-2s-1.8,1.1-1.9,2h3.6Z"/>
      <path class="st15" d="M55.5,340.7c0,.4-.3.8-.8.8s-.7-.3-.7-.8.3-.8.8-.8.8.3.8.8ZM54.1,349.4v-6.8h1.2v6.8h-1.2Z"/>
      <path class="st15" d="M63.2,348.4c0,1.6-.3,2.5-1,3.1-.7.6-1.6.8-2.5.8s-1.7-.2-2.3-.6l.3-1c.4.3,1.1.5,2,.5,1.3,0,2.2-.7,2.2-2.4v-.7h0c-.4.6-1.1,1.1-2.2,1.1-1.7,0-2.9-1.4-2.9-3.3s1.5-3.6,3.1-3.6,1.8.6,2.1,1.2h0v-1h1.1c0,.5,0,1,0,1.8v3.9ZM61.9,345.3c0-.2,0-.4,0-.5-.2-.7-.8-1.3-1.7-1.3s-2,1-2,2.6.7,2.4,2,2.4,1.5-.5,1.7-1.3c0-.2,0-.4,0-.7v-1.2Z"/>
      <path class="st15" d="M65.1,344.5c0-.7,0-1.3,0-1.8h1.1v1.1h0c.3-.6,1.1-1.3,2.2-1.3s2.4.6,2.4,2.9v4h-1.2v-3.9c0-1.1-.4-2-1.6-2s-1.4.6-1.7,1.3c0,.2,0,.4,0,.6v4.1h-1.2v-4.9Z"/>
      <path class="st15" d="M74.3,341v1.6h1.8v.9h-1.8v3.7c0,.8.2,1.3.9,1.3s.5,0,.7,0v.9c-.2,0-.6.2-1,.2s-1-.2-1.3-.5c-.3-.4-.5-1-.5-1.8v-3.7h-1.1v-.9h1.1v-1.3l1.2-.4Z"/>
      <path class="st15" d="M78,342.6l1.5,4c.2.4.3,1,.4,1.4h0c.1-.4.3-.9.4-1.4l1.3-4h1.3l-1.8,4.8c-.9,2.3-1.5,3.5-2.3,4.2-.6.5-1.2.7-1.5.8l-.3-1c.3,0,.7-.3,1.1-.6.3-.3.7-.7,1-1.4,0-.1,0-.2,0-.3s0-.2,0-.3l-2.5-6.2h1.3Z"/>
    </g>
    <g>
      <path class="st15" d="M14.5,392.2c.6,0,1.4-.2,2.3-.2s2.1.3,2.6.8c.5.4.8,1.1.8,2s-.3,1.5-.7,2c-.7.7-1.7,1-2.9,1s-.7,0-1,0v3.8h-1.2v-9.3ZM15.7,396.8c.3,0,.6,0,1,0,1.5,0,2.4-.7,2.4-2s-.9-1.9-2.2-1.9-.9,0-1.1,0v3.7Z"/>
      <path class="st15" d="M21.7,396.9c0-.8,0-1.5,0-2.1h1.1v1.3h0c.3-.9,1.1-1.5,1.9-1.5s.2,0,.3,0v1.2c-.1,0-.3,0-.4,0-.9,0-1.5.6-1.7,1.6,0,.2,0,.4,0,.6v3.6h-1.2v-4.7Z"/>
      <path class="st15" d="M32.3,398.1c0,2.5-1.8,3.6-3.4,3.6s-3.2-1.3-3.2-3.5,1.5-3.6,3.4-3.6,3.3,1.4,3.3,3.5ZM26.9,398.2c0,1.5.8,2.6,2,2.6s2.1-1.1,2.1-2.6-.6-2.6-2-2.6-2.1,1.3-2.1,2.6Z"/>
      <path class="st15" d="M39.6,391.6v8.2c0,.6,0,1.3,0,1.8h-1.1v-1.2h0c-.4.8-1.2,1.3-2.3,1.3-1.6,0-2.9-1.4-2.9-3.4,0-2.3,1.4-3.6,3-3.6s1.7.5,2,1h0v-4h1.2ZM38.4,397.5c0-.2,0-.4,0-.5-.2-.8-.9-1.4-1.8-1.4s-2,1.1-2,2.6.7,2.5,2,2.5,1.6-.6,1.8-1.5c0-.2,0-.3,0-.5v-1.2Z"/>
      <path class="st15" d="M47.4,399.7c0,.7,0,1.3,0,1.9h-1.1v-1.1h0c-.3.5-1,1.3-2.2,1.3s-2.3-.6-2.3-3v-4h1.2v3.7c0,1.3.4,2.2,1.5,2.2s1.4-.6,1.6-1.1c0-.2.1-.4.1-.6v-4.1h1.2v4.9Z"/>
      <path class="st15" d="M54.2,401.3c-.3.2-1,.4-1.9.4-2,0-3.4-1.4-3.4-3.5s1.4-3.6,3.6-3.6,1.4.2,1.7.4l-.3.9c-.3-.2-.8-.3-1.4-.3-1.6,0-2.4,1.2-2.4,2.6s1,2.5,2.4,2.5,1.2-.2,1.5-.3l.2.9Z"/>
      <path class="st15" d="M57.3,393.2v1.6h1.8v.9h-1.8v3.7c0,.8.2,1.3.9,1.3s.5,0,.7,0v.9c-.2,0-.6.2-1,.2s-1-.2-1.3-.5c-.3-.4-.5-1-.5-1.8v-3.7h-1.1v-.9h1.1v-1.3l1.2-.4Z"/>
      <path class="st15" d="M61.9,392.9c0,.4-.3.8-.8.8s-.7-.3-.7-.8.3-.8.8-.8.8.3.8.8ZM60.5,401.6v-6.8h1.2v6.8h-1.2Z"/>
      <path class="st15" d="M64.2,394.8l1.3,3.8c.2.6.4,1.2.5,1.8h0c.2-.6.4-1.1.6-1.8l1.3-3.8h1.3l-2.7,6.8h-1.2l-2.6-6.8h1.3Z"/>
      <path class="st15" d="M71.9,392.9c0,.4-.3.8-.8.8s-.7-.3-.7-.8.3-.8.8-.8.8.3.8.8ZM70.5,401.6v-6.8h1.2v6.8h-1.2Z"/>
      <path class="st15" d="M75.3,393.2v1.6h1.8v.9h-1.8v3.7c0,.8.2,1.3.9,1.3s.5,0,.7,0v.9c-.2,0-.6.2-1,.2s-1-.2-1.3-.5c-.3-.4-.5-1-.5-1.8v-3.7h-1.1v-.9h1.1v-1.3l1.2-.4Z"/>
      <path class="st15" d="M79,394.8l1.5,4c.2.4.3,1,.4,1.4h0c.1-.4.3-.9.4-1.4l1.3-4h1.3l-1.8,4.8c-.9,2.3-1.5,3.5-2.3,4.2-.6.5-1.2.7-1.5.8l-.3-1c.3,0,.7-.3,1.1-.6.3-.3.7-.7,1-1.4,0-.1,0-.2,0-.3s0-.2,0-.3l-2.5-6.2h1.3Z"/>
    </g>
    <g>
      <path class="st15" d="M14.9,445.3c.6-.1,1.5-.2,2.3-.2,1.3,0,2.2.3,2.7.8.5.4.7,1.1.7,1.8,0,1.2-.8,2.1-1.8,2.4h0c.7.3,1.1,1,1.4,1.9.3,1.3.5,2.2.7,2.6h-1.3c-.2-.3-.4-1.1-.6-2.3-.3-1.3-.8-1.8-1.9-1.8h-1.1v4.1h-1.2v-9.3ZM16.2,449.6h1.2c1.3,0,2.1-.7,2.1-1.8s-.9-1.8-2.2-1.8-1,0-1.2,0v3.4Z"/>
      <path class="st15" d="M23.9,445.9c0,.4-.3.8-.8.8s-.7-.3-.7-.8.3-.8.8-.8.8.3.8.8ZM22.5,454.6v-6.8h1.2v6.8h-1.2Z"/>
      <path class="st15" d="M25.7,453.3c.4.2,1,.5,1.6.5.9,0,1.3-.4,1.3-1s-.4-.9-1.2-1.2c-1.2-.4-1.8-1.1-1.8-1.9s.9-2,2.3-2,1.3.2,1.7.4l-.3.9c-.3-.2-.8-.4-1.4-.4s-1.1.4-1.1.9.4.8,1.3,1.2c1.2.4,1.8,1,1.8,2s-.9,2-2.5,2-1.4-.2-1.9-.5l.3-.9Z"/>
      <path class="st15" d="M32.6,450.9h0c.2-.2.4-.5.6-.8l2-2.3h1.5l-2.6,2.8,3,4h-1.5l-2.3-3.2-.6.7v2.5h-1.2v-9.9h1.2v6.3Z"/>
    </g>
    <g>
      <path class="st10" d="M14.5,103.8h1.2v8.4h4v1h-5.3v-9.4Z"/>
      <path class="st10" d="M21.5,110c0,1.7,1.1,2.4,2.3,2.4s1.4-.2,1.9-.4l.2.9c-.4.2-1.2.4-2.3.4-2.1,0-3.3-1.4-3.3-3.4s1.2-3.6,3.2-3.6,2.8,1.9,2.8,3.2,0,.4,0,.6h-4.8ZM25.2,109.2c0-.8-.3-2-1.7-2s-1.8,1.1-1.9,2h3.6Z"/>
      <path class="st10" d="M28.3,106.4l1.3,3.8c.2.6.4,1.2.5,1.8h0c.2-.6.4-1.1.6-1.8l1.3-3.8h1.3l-2.7,6.8h-1.2l-2.6-6.8h1.3Z"/>
      <path class="st10" d="M35.2,110c0,1.7,1.1,2.4,2.3,2.4s1.4-.2,1.9-.4l.2.9c-.4.2-1.2.4-2.3.4-2.1,0-3.3-1.4-3.3-3.4s1.2-3.6,3.2-3.6,2.8,1.9,2.8,3.2,0,.4,0,.6h-4.8ZM38.8,109.2c0-.8-.3-2-1.7-2s-1.8,1.1-1.9,2h3.6Z"/>
      <path class="st10" d="M41.5,103.3h1.2v9.9h-1.2v-9.9Z"/>
    </g>
    <g>
      <path class="st15" d="M16.3,295.6h-2.9v-1h7v1h-2.9v8.4h-1.2v-8.4Z"/>
      <path class="st15" d="M21.3,294.1h1.2v4.2h0c.2-.4.5-.7.9-.9.4-.2.8-.3,1.3-.3.9,0,2.4.6,2.4,2.9v4h-1.2v-3.9c0-1.1-.4-2-1.6-2s-1.4.6-1.7,1.2c0,.2,0,.4,0,.6v4.1h-1.2v-9.9Z"/>
      <path class="st15" d="M30.4,295.4c0,.4-.3.8-.8.8s-.7-.3-.7-.8.3-.8.8-.8.8.3.8.8ZM29.1,304v-6.8h1.2v6.8h-1.2Z"/>
      <path class="st15" d="M32.3,299.1c0-.7,0-1.3,0-1.8h1.1v1.1h0c.3-.6,1.1-1.3,2.2-1.3s2.4.6,2.4,2.9v4h-1.2v-3.9c0-1.1-.4-2-1.6-2s-1.4.6-1.7,1.3c0,.2,0,.4,0,.6v4.1h-1.2v-4.9Z"/>
      <path class="st15" d="M41.3,300.4h0c.2-.2.4-.5.6-.8l2-2.3h1.5l-2.6,2.8,3,4h-1.5l-2.3-3.2-.6.7v2.5h-1.2v-9.9h1.2v6.3Z"/>
    </g>
    <g>
      <path class="st8" d="M180.1,214.9l.9,3.4c.2.8.4,1.5.5,2.2h0c.2-.7.4-1.4.6-2.1l1.1-3.5h1l1.1,3.4c.3.8.4,1.5.6,2.2h0c.1-.7.3-1.4.5-2.2l1-3.4h1.2l-2.2,6.8h-1.1l-1-3.2c-.2-.8-.4-1.4-.6-2.2h0c-.2.8-.4,1.5-.6,2.2l-1.1,3.2h-1.1l-2-6.8h1.3Z"/>
      <path class="st8" d="M189.9,211.8h1.2v4.2h0c.2-.4.5-.7.9-.9.4-.2.8-.3,1.3-.3.9,0,2.4.6,2.4,2.9v4h-1.2v-3.9c0-1.1-.4-2-1.6-2s-1.4.6-1.7,1.2c0,.2,0,.4,0,.6v4.1h-1.2v-9.9Z"/>
      <path class="st8" d="M199.1,213c0,.4-.3.8-.8.8s-.7-.3-.7-.8.3-.8.8-.8.8.3.8.8ZM197.7,221.7v-6.8h1.2v6.8h-1.2Z"/>
      <path class="st8" d="M202.5,213.3v1.6h1.8v.9h-1.8v3.7c0,.8.2,1.3.9,1.3s.5,0,.7,0v.9c-.2,0-.6.2-1,.2s-1-.2-1.3-.5c-.3-.4-.5-1-.5-1.8v-3.7h-1.1v-.9h1.1v-1.3l1.2-.4Z"/>
      <path class="st8" d="M206.2,218.6c0,1.7,1.1,2.4,2.3,2.4s1.4-.2,1.9-.4l.2.9c-.4.2-1.2.4-2.3.4-2.1,0-3.3-1.4-3.3-3.4s1.2-3.6,3.2-3.6,2.8,1.9,2.8,3.2,0,.4,0,.6h-4.8ZM209.8,217.7c0-.8-.3-2-1.7-2s-1.8,1.1-1.9,2h3.6Z"/>
    </g>
    <g>
      <path class="st8" d="M483.4,211.8h1.2v4.3h0c.4-.8,1.2-1.2,2.3-1.2,1.7,0,2.9,1.4,2.9,3.4s-1.5,3.6-3.1,3.6-1.8-.4-2.3-1.3h0v1.1h-1.1c0-.5,0-1.1,0-1.8v-8.2ZM484.6,219c0,.2,0,.3,0,.4.2.9,1,1.4,1.8,1.4,1.3,0,2.1-1.1,2.1-2.6s-.7-2.5-2-2.5-1.6.6-1.9,1.5c0,.2,0,.3,0,.5v1.2Z"/>
      <path class="st8" d="M491.3,211.8h1.2v9.9h-1.2v-9.9Z"/>
      <path class="st8" d="M499.4,220.1c0,.6,0,1.2,0,1.6h-1.1v-.9h-.1c-.4.5-1.1,1-2.1,1-1.4,0-2.1-1-2.1-1.9,0-1.6,1.5-2.5,4.1-2.5h0c0-.7-.2-1.7-1.5-1.7-.6,0-1.3.2-1.8.5l-.3-.8c.6-.4,1.4-.6,2.2-.6,2.1,0,2.6,1.4,2.6,2.8v2.5ZM498.2,218.3c-1.3,0-2.9.2-2.9,1.5s.5,1.2,1.1,1.2c.9,0,1.5-.6,1.7-1.1,0-.1,0-.3,0-.4v-1.2Z"/>
      <path class="st8" d="M506.2,221.5c-.3.2-1,.4-1.9.4-2,0-3.4-1.4-3.4-3.5s1.4-3.6,3.6-3.6,1.4.2,1.7.4l-.3.9c-.3-.2-.8-.3-1.4-.3-1.6,0-2.4,1.2-2.4,2.6s1,2.5,2.4,2.5,1.2-.2,1.5-.3l.2.9Z"/>
      <path class="st8" d="M508.9,218.1h0c.2-.2.4-.5.6-.8l2-2.3h1.5l-2.6,2.8,3,4h-1.5l-2.3-3.2-.6.7v2.5h-1.2v-9.9h1.2v6.3Z"/>
    </g>
    <g>
      <path class="st8" d="M399.1,220.7c0,1.6-.3,2.5-1,3.1-.7.6-1.6.8-2.5.8s-1.7-.2-2.3-.6l.3-1c.4.3,1.1.5,2,.5,1.3,0,2.2-.7,2.2-2.4v-.7h0c-.4.6-1.1,1.1-2.2,1.1-1.7,0-2.9-1.4-2.9-3.3s1.5-3.6,3.1-3.6,1.8.6,2.1,1.2h0v-1h1.1c0,.5,0,1,0,1.8v3.9ZM397.9,217.6c0-.2,0-.4,0-.5-.2-.7-.8-1.3-1.7-1.3s-2,1-2,2.6.7,2.4,2,2.4,1.5-.5,1.7-1.3c0-.2,0-.4,0-.7v-1.2Z"/>
      <path class="st8" d="M401.1,217.1c0-.8,0-1.5,0-2.1h1.1v1.3h0c.3-.9,1.1-1.5,1.9-1.5s.2,0,.3,0v1.2c-.1,0-.3,0-.4,0-.9,0-1.5.6-1.7,1.6,0,.2,0,.4,0,.6v3.6h-1.2v-4.7Z"/>
      <path class="st8" d="M406.2,218.6c0,1.7,1.1,2.4,2.3,2.4s1.4-.2,1.9-.4l.2.9c-.4.2-1.2.4-2.3.4-2.1,0-3.3-1.4-3.3-3.4s1.2-3.6,3.2-3.6,2.8,1.9,2.8,3.2,0,.4,0,.6h-4.8ZM409.8,217.7c0-.8-.3-2-1.7-2s-1.8,1.1-1.9,2h3.6Z"/>
      <path class="st8" d="M413,214.9l1.5,4c.2.4.3,1,.4,1.4h0c.1-.4.3-.9.4-1.4l1.3-4h1.3l-1.8,4.8c-.9,2.3-1.5,3.5-2.3,4.2-.6.5-1.2.7-1.5.8l-.3-1c.3,0,.7-.3,1.1-.6.3-.3.7-.7,1-1.4,0-.1,0-.2,0-.3s0-.2,0-.3l-2.5-6.2h1.3Z"/>
      <path class="st8" d="M421.1,222.3l3.9-10.2h1l-3.9,10.2h-.9Z"/>
      <path class="st8" d="M435.7,211.8v8.2c0,.6,0,1.3,0,1.8h-1.1v-1.2h0c-.4.8-1.2,1.3-2.3,1.3-1.6,0-2.9-1.4-2.9-3.4,0-2.3,1.4-3.6,3-3.6s1.7.5,2,1h0v-4h1.2ZM434.5,217.7c0-.2,0-.4,0-.5-.2-.8-.9-1.4-1.8-1.4s-2,1.1-2,2.6.7,2.5,2,2.5,1.6-.6,1.8-1.5c0-.2,0-.3,0-.5v-1.2Z"/>
      <path class="st8" d="M442.5,220.1c0,.6,0,1.2,0,1.6h-1.1v-.9h-.1c-.4.5-1.1,1-2.1,1-1.4,0-2.1-1-2.1-1.9,0-1.6,1.5-2.5,4.1-2.5h0c0-.7-.2-1.7-1.5-1.7-.6,0-1.3.2-1.8.5l-.3-.8c.6-.4,1.4-.6,2.2-.6,2.1,0,2.6,1.4,2.6,2.8v2.5ZM441.4,218.3c-1.3,0-2.9.2-2.9,1.5s.5,1.2,1.1,1.2c.9,0,1.5-.6,1.7-1.1,0-.1,0-.3,0-.4v-1.2Z"/>
      <path class="st8" d="M444.5,217.1c0-.8,0-1.5,0-2.1h1.1v1.3h0c.3-.9,1.1-1.5,1.9-1.5s.2,0,.3,0v1.2c-.1,0-.3,0-.4,0-.9,0-1.5.6-1.7,1.6,0,.2,0,.4,0,.6v3.6h-1.2v-4.7Z"/>
      <path class="st8" d="M450.4,218.1h0c.2-.2.4-.5.6-.8l2-2.3h1.5l-2.6,2.8,3,4h-1.5l-2.3-3.2-.6.7v2.5h-1.2v-9.9h1.2v6.3Z"/>
    </g>
    <g>
      <path class="st8" d="M337.2,220.7c0,1.6-.3,2.5-1,3.1-.7.6-1.6.8-2.5.8s-1.7-.2-2.3-.6l.3-1c.4.3,1.1.5,2,.5,1.3,0,2.2-.7,2.2-2.4v-.7h0c-.4.6-1.1,1.1-2.2,1.1-1.7,0-2.9-1.4-2.9-3.3s1.5-3.6,3.1-3.6,1.8.6,2.1,1.2h0v-1h1.1c0,.5,0,1,0,1.8v3.9ZM335.9,217.6c0-.2,0-.4,0-.5-.2-.7-.8-1.3-1.7-1.3s-2,1-2,2.6.7,2.4,2,2.4,1.5-.5,1.7-1.3c0-.2,0-.4,0-.7v-1.2Z"/>
      <path class="st8" d="M339.1,217.1c0-.8,0-1.5,0-2.1h1.1v1.3h0c.3-.9,1.1-1.5,1.9-1.5s.2,0,.3,0v1.2c-.1,0-.3,0-.4,0-.9,0-1.5.6-1.7,1.6,0,.2,0,.4,0,.6v3.6h-1.2v-4.7Z"/>
      <path class="st8" d="M344.2,218.6c0,1.7,1.1,2.4,2.3,2.4s1.4-.2,1.9-.4l.2.9c-.4.2-1.2.4-2.3.4-2.1,0-3.3-1.4-3.3-3.4s1.2-3.6,3.2-3.6,2.8,1.9,2.8,3.2,0,.4,0,.6h-4.8ZM347.9,217.7c0-.8-.3-2-1.7-2s-1.8,1.1-1.9,2h3.6Z"/>
      <path class="st8" d="M351,214.9l1.5,4c.2.4.3,1,.4,1.4h0c.1-.4.3-.9.4-1.4l1.3-4h1.3l-1.8,4.8c-.9,2.3-1.5,3.5-2.3,4.2-.6.5-1.2.7-1.5.8l-.3-1c.3,0,.7-.3,1.1-.6.3-.3.7-.7,1-1.4,0-.1,0-.2,0-.3s0-.2,0-.3l-2.5-6.2h1.3Z"/>
    </g>
    <g>
      <path class="st8" d="M248,220.7c0,1.6-.3,2.5-1,3.1-.7.6-1.6.8-2.5.8s-1.7-.2-2.3-.6l.3-1c.4.3,1.1.5,2,.5,1.3,0,2.2-.7,2.2-2.4v-.7h0c-.4.6-1.1,1.1-2.2,1.1-1.7,0-2.9-1.4-2.9-3.3s1.5-3.6,3.1-3.6,1.8.6,2.1,1.2h0v-1h1.1c0,.5,0,1,0,1.8v3.9ZM246.8,217.6c0-.2,0-.4,0-.5-.2-.7-.8-1.3-1.7-1.3s-2,1-2,2.6.7,2.4,2,2.4,1.5-.5,1.7-1.3c0-.2,0-.4,0-.7v-1.2Z"/>
      <path class="st8" d="M250,217.1c0-.8,0-1.5,0-2.1h1.1v1.3h0c.3-.9,1.1-1.5,1.9-1.5s.2,0,.3,0v1.2c-.1,0-.3,0-.4,0-.9,0-1.5.6-1.7,1.6,0,.2,0,.4,0,.6v3.6h-1.2v-4.7Z"/>
      <path class="st8" d="M255.1,218.6c0,1.7,1.1,2.4,2.3,2.4s1.4-.2,1.9-.4l.2.9c-.4.2-1.2.4-2.3.4-2.1,0-3.3-1.4-3.3-3.4s1.2-3.6,3.2-3.6,2.8,1.9,2.8,3.2,0,.4,0,.6h-4.8ZM258.7,217.7c0-.8-.3-2-1.7-2s-1.8,1.1-1.9,2h3.6Z"/>
      <path class="st8" d="M261.9,214.9l1.5,4c.2.4.3,1,.4,1.4h0c.1-.4.3-.9.4-1.4l1.3-4h1.3l-1.8,4.8c-.9,2.3-1.5,3.5-2.3,4.2-.6.5-1.2.7-1.5.8l-.3-1c.3,0,.7-.3,1.1-.6.3-.3.7-.7,1-1.4,0-.1,0-.2,0-.3s0-.2,0-.3l-2.5-6.2h1.3Z"/>
      <path class="st8" d="M270,222.3l3.9-10.2h1l-3.9,10.2h-.9Z"/>
      <path class="st8" d="M278.8,211.8h1.2v9.9h-1.2v-9.9Z"/>
      <path class="st8" d="M283.4,213c0,.4-.3.8-.8.8s-.7-.3-.7-.8.3-.8.8-.8.8.3.8.8ZM282.1,221.7v-6.8h1.2v6.8h-1.2Z"/>
      <path class="st8" d="M291.1,220.7c0,1.6-.3,2.5-1,3.1-.7.6-1.6.8-2.5.8s-1.7-.2-2.3-.6l.3-1c.4.3,1.1.5,2,.5,1.3,0,2.2-.7,2.2-2.4v-.7h0c-.4.6-1.1,1.1-2.2,1.1-1.7,0-2.9-1.4-2.9-3.3s1.5-3.6,3.1-3.6,1.8.6,2.1,1.2h0v-1h1.1c0,.5,0,1,0,1.8v3.9ZM289.9,217.6c0-.2,0-.4,0-.5-.2-.7-.8-1.3-1.7-1.3s-2,1-2,2.6.7,2.4,2,2.4,1.5-.5,1.7-1.3c0-.2,0-.4,0-.7v-1.2Z"/>
      <path class="st8" d="M293.2,211.8h1.2v4.2h0c.2-.4.5-.7.9-.9.4-.2.8-.3,1.3-.3.9,0,2.4.6,2.4,2.9v4h-1.2v-3.9c0-1.1-.4-2-1.6-2s-1.4.6-1.7,1.2c0,.2,0,.4,0,.6v4.1h-1.2v-9.9Z"/>
      <path class="st8" d="M302.4,213.3v1.6h1.8v.9h-1.8v3.7c0,.8.2,1.3.9,1.3s.5,0,.7,0v.9c-.2,0-.6.2-1,.2s-1-.2-1.3-.5c-.3-.4-.5-1-.5-1.8v-3.7h-1.1v-.9h1.1v-1.3l1.2-.4Z"/>
    </g>
    <g>
      <path class="st14" d="M320.9,14.7c.5.3,1.3.6,2.2.6,1.2,0,2-.7,2-1.6s-.5-1.4-1.8-1.9c-1.5-.6-2.5-1.4-2.5-2.7s1.2-2.6,3.1-2.6,1.7.2,2.1.5l-.3,1c-.3-.2-.9-.4-1.8-.4-1.3,0-1.8.8-1.8,1.4s.6,1.3,1.9,1.8c1.6.6,2.4,1.4,2.4,2.8s-1.1,2.7-3.3,2.7-1.9-.3-2.4-.6l.3-1Z"/>
      <path class="st14" d="M328.3,9.4l.9,3.4c.2.8.4,1.5.5,2.2h0c.2-.7.4-1.4.6-2.1l1.1-3.5h1l1.1,3.4c.3.8.4,1.5.6,2.2h0c.1-.7.3-1.4.5-2.2l1-3.4h1.2l-2.2,6.8h-1.1l-1-3.2c-.2-.8-.4-1.4-.6-2.2h0c-.2.8-.4,1.5-.6,2.2l-1.1,3.2h-1.1l-2-6.8h1.3Z"/>
      <path class="st14" d="M338.7,13.1c0,1.7,1.1,2.4,2.3,2.4s1.4-.2,1.9-.4l.2.9c-.4.2-1.2.4-2.3.4-2.1,0-3.3-1.4-3.3-3.4s1.2-3.6,3.2-3.6,2.8,1.9,2.8,3.2,0,.4,0,.6h-4.8ZM342.3,12.2c0-.8-.3-2-1.7-2s-1.8,1.1-1.9,2h3.6Z"/>
      <path class="st14" d="M345.7,13.1c0,1.7,1.1,2.4,2.3,2.4s1.4-.2,1.9-.4l.2.9c-.4.2-1.2.4-2.3.4-2.1,0-3.3-1.4-3.3-3.4s1.2-3.6,3.2-3.6,2.8,1.9,2.8,3.2,0,.4,0,.6h-4.8ZM349.3,12.2c0-.8-.3-2-1.7-2s-1.8,1.1-1.9,2h3.6Z"/>
      <path class="st14" d="M353.5,7.8v1.6h1.8v.9h-1.8v3.7c0,.8.2,1.3.9,1.3s.5,0,.7,0v.9c-.2,0-.6.2-1,.2s-1-.2-1.3-.5c-.3-.4-.5-1-.5-1.8v-3.7h-1.1v-.9h1.1v-1.3l1.2-.4Z"/>
      <path class="st14" d="M356.5,15c.4.2,1,.5,1.6.5.9,0,1.3-.4,1.3-1s-.3-.9-1.2-1.2c-1.2-.4-1.8-1.1-1.8-1.9s.9-2,2.3-2,1.3.2,1.7.4l-.3.9c-.3-.2-.8-.4-1.4-.4s-1.1.4-1.1.9.4.8,1.3,1.2c1.2.4,1.8,1,1.8,2s-.9,2-2.5,2-1.4-.2-1.9-.5l.3-.9Z"/>
      <path class="st14" d="M362.2,11.7c0-.9,0-1.6,0-2.2h1.1v1.2h0c.5-.8,1.3-1.3,2.4-1.3,1.7,0,2.9,1.4,2.9,3.4s-1.5,3.6-3.1,3.6-1.7-.4-2.1-1.1h0v3.7h-1.2v-7.3ZM363.4,13.5c0,.2,0,.4,0,.5.2.9,1,1.4,1.8,1.4,1.3,0,2.1-1.1,2.1-2.6s-.7-2.5-2-2.5-1.6.6-1.9,1.5c0,.2,0,.3,0,.5v1.2Z"/>
      <path class="st14" d="M376.3,12.8c0,2.5-1.8,3.6-3.4,3.6s-3.2-1.3-3.2-3.5,1.5-3.6,3.4-3.6,3.3,1.4,3.3,3.5ZM371,12.8c0,1.5.8,2.6,2,2.6s2.1-1.1,2.1-2.6-.6-2.6-2-2.6-2.1,1.3-2.1,2.6Z"/>
      <path class="st14" d="M379.4,7.8v1.6h1.8v.9h-1.8v3.7c0,.8.2,1.3.9,1.3s.5,0,.7,0v.9c-.2,0-.6.2-1,.2s-1-.2-1.3-.5c-.3-.4-.5-1-.5-1.8v-3.7h-1.1v-.9h1.1v-1.3l1.2-.4Z"/>
    </g>
    <rect class="st2" x="233.7" y="248.7" width="73" height="30.6"/>
    <rect class="st15" x="309.3" y="248.7" width="72.8" height="30.6"/>
    <rect class="st6" x="384.7" y="248.7" width="73" height="30.6"/>
    <rect class="st11" x="460.1" y="248.4" width="73" height="30.8"/>
    <rect class="st9" x="158.4" y="248.7" width="73" height="30.6"/>
    <g>
      <path class="st8" d="M180.6,263.7c0-.7,0-1.3,0-1.8h1.1v1.1h0c.3-.6,1.1-1.3,2.2-1.3s2.4.6,2.4,2.9v4h-1.2v-3.9c0-1.1-.4-2-1.6-2s-1.4.6-1.7,1.3c0,.2,0,.4,0,.6v4.1h-1.2v-4.9Z"/>
      <path class="st8" d="M194.5,265.2c0,2.5-1.8,3.6-3.4,3.6s-3.2-1.3-3.2-3.5,1.5-3.6,3.4-3.6,3.3,1.4,3.3,3.5ZM189.2,265.3c0,1.5.8,2.6,2,2.6s2.1-1.1,2.1-2.6-.6-2.6-2-2.6-2.1,1.3-2.1,2.6Z"/>
      <path class="st8" d="M196.1,263.7c0-.7,0-1.3,0-1.8h1.1v1.1h0c.3-.6,1.1-1.3,2.2-1.3s2.4.6,2.4,2.9v4h-1.2v-3.9c0-1.1-.4-2-1.6-2s-1.4.6-1.7,1.3c0,.2,0,.4,0,.6v4.1h-1.2v-4.9Z"/>
      <path class="st8" d="M204.5,265.5c0,1.7,1.1,2.4,2.3,2.4s1.4-.2,1.9-.4l.2.9c-.4.2-1.2.4-2.3.4-2.1,0-3.3-1.4-3.3-3.4s1.2-3.6,3.2-3.6,2.8,1.9,2.8,3.2,0,.4,0,.6h-4.8ZM208.1,264.6c0-.8-.3-2-1.7-2s-1.8,1.1-1.9,2h3.6Z"/>
    </g>
    <g>
      <path class="st8" d="M472.1,258.7h1.2v9.9h-1.2v-9.9Z"/>
      <path class="st8" d="M476.7,260c0,.4-.3.8-.8.8s-.7-.3-.7-.8.3-.8.8-.8.8.3.8.8ZM475.4,268.7v-6.8h1.2v6.8h-1.2Z"/>
      <path class="st8" d="M478.8,268.7v-5.8h-.9v-.9h.9v-.3c0-1,.2-1.8.8-2.4.5-.4,1.1-.6,1.7-.6s.8,0,1.1.2l-.2,1c-.2,0-.4-.2-.8-.2-1,0-1.3.9-1.3,2v.4h1.6v.9h-1.6v5.8h-1.2Z"/>
      <path class="st8" d="M483.3,265.5c0,1.7,1.1,2.4,2.3,2.4s1.4-.2,1.9-.4l.2.9c-.4.2-1.2.4-2.3.4-2.1,0-3.3-1.4-3.3-3.4s1.2-3.6,3.2-3.6,2.8,1.9,2.8,3.2,0,.4,0,.6h-4.8ZM486.9,264.6c0-.8-.3-2-1.7-2s-1.8,1.1-1.9,2h3.6Z"/>
      <path class="st8" d="M494.4,268.4c-.3.2-1,.4-1.9.4-2,0-3.4-1.4-3.4-3.5s1.4-3.6,3.6-3.6,1.4.2,1.7.4l-.3.9c-.3-.2-.8-.3-1.4-.3-1.6,0-2.4,1.2-2.4,2.6s1,2.5,2.4,2.5,1.2-.2,1.5-.3l.2.9Z"/>
      <path class="st8" d="M496.6,261.9l1.5,4c.2.4.3,1,.4,1.4h0c.1-.4.3-.9.4-1.4l1.3-4h1.3l-1.8,4.8c-.9,2.3-1.5,3.5-2.3,4.2-.6.5-1.2.7-1.5.8l-.3-1c.3,0,.7-.3,1.1-.6.3-.3.7-.7,1-1.4,0-.1,0-.2,0-.3s0-.2,0-.3l-2.5-6.2h1.3Z"/>
      <path class="st8" d="M507.4,268.4c-.3.2-1,.4-1.9.4-2,0-3.4-1.4-3.4-3.5s1.4-3.6,3.6-3.6,1.4.2,1.7.4l-.3.9c-.3-.2-.8-.3-1.4-.3-1.6,0-2.4,1.2-2.4,2.6s1,2.5,2.4,2.5,1.2-.2,1.5-.3l.2.9Z"/>
      <path class="st8" d="M508.8,258.7h1.2v9.9h-1.2v-9.9Z"/>
      <path class="st8" d="M512.8,265.5c0,1.7,1.1,2.4,2.3,2.4s1.4-.2,1.9-.4l.2.9c-.4.2-1.2.4-2.3.4-2.1,0-3.3-1.4-3.3-3.4s1.2-3.6,3.2-3.6,2.8,1.9,2.8,3.2,0,.4,0,.6h-4.8ZM516.4,264.6c0-.8-.3-2-1.7-2s-1.8,1.1-1.9,2h3.6Z"/>
    </g>
    <g>
      <path class="st8" d="M396.3,261.9l.9,3.4c.2.8.4,1.5.5,2.2h0c.2-.7.4-1.4.6-2.1l1.1-3.5h1l1.1,3.4c.3.8.4,1.5.6,2.2h0c.1-.7.3-1.4.5-2.2l1-3.4h1.2l-2.2,6.8h-1.1l-1-3.2c-.2-.8-.4-1.4-.6-2.2h0c-.2.8-.4,1.5-.6,2.2l-1.1,3.2h-1.1l-2-6.8h1.3Z"/>
      <path class="st8" d="M412.1,265.2c0,2.5-1.8,3.6-3.4,3.6s-3.2-1.3-3.2-3.5,1.5-3.6,3.4-3.6,3.3,1.4,3.3,3.5ZM406.8,265.3c0,1.5.8,2.6,2,2.6s2.1-1.1,2.1-2.6-.6-2.6-2-2.6-2.1,1.3-2.1,2.6Z"/>
      <path class="st8" d="M413.7,264c0-.8,0-1.5,0-2.1h1.1v1.3h0c.3-.9,1.1-1.5,1.9-1.5s.2,0,.3,0v1.2c-.1,0-.3,0-.4,0-.9,0-1.5.6-1.7,1.6,0,.2,0,.4,0,.6v3.6h-1.2v-4.7Z"/>
      <path class="st8" d="M419.5,265h0c.2-.2.4-.5.6-.8l2-2.3h1.5l-2.6,2.8,3,4h-1.5l-2.3-3.2-.6.7v2.5h-1.2v-9.9h1.2v6.3Z"/>
    </g>
    <path class="st8" d="M425,268.7v-5.8h-.9v-.9h.9v-.3c0-1,.3-1.8,1-2.3.5-.4,1.2-.7,2.2-.7s1.5.2,2,.4v9.7h-1.2v-9c-.2-.1-.5-.2-1-.2-1.3,0-1.7.9-1.7,2v.4h1.6v.9h-1.6v5.8h-1.2Z"/>
    <g>
      <path class="st8" d="M438.3,265.2c0,2.5-1.8,3.6-3.4,3.6s-3.2-1.3-3.2-3.5,1.5-3.6,3.4-3.6,3.3,1.4,3.3,3.5ZM433,265.3c0,1.5.8,2.6,2,2.6s2.1-1.1,2.1-2.6-.6-2.6-2-2.6-2.1,1.3-2.1,2.6Z"/>
      <path class="st8" d="M440.3,261.9l.9,3.4c.2.8.4,1.5.5,2.2h0c.2-.7.4-1.4.6-2.1l1.1-3.5h1l1.1,3.4c.3.8.4,1.5.6,2.2h0c.1-.7.3-1.4.5-2.2l1-3.4h1.2l-2.2,6.8h-1.1l-1-3.2c-.2-.8-.4-1.4-.6-2.2h0c-.2.8-.4,1.5-.6,2.2l-1.1,3.2h-1.1l-2-6.8h1.3Z"/>
    </g>
    <g>
      <path class="st8" d="M259.3,267.4c.4.2,1,.5,1.6.5.9,0,1.3-.4,1.3-1s-.3-.9-1.2-1.2c-1.2-.4-1.8-1.1-1.8-1.9s.9-2,2.3-2,1.3.2,1.7.4l-.3.9c-.3-.2-.8-.4-1.4-.4s-1.1.4-1.1.9.4.8,1.3,1.2c1.2.4,1.8,1,1.8,2s-.9,2-2.5,2-1.4-.2-1.9-.5l.3-.9Z"/>
      <path class="st8" d="M266.5,260.3v1.6h1.8v.9h-1.8v3.7c0,.8.2,1.3.9,1.3s.5,0,.7,0v.9c-.2,0-.6.2-1,.2s-1-.2-1.3-.5c-.3-.4-.5-1-.5-1.8v-3.7h-1.1v-.9h1.1v-1.3l1.2-.4Z"/>
      <path class="st8" d="M270.3,265.5c0,1.7,1.1,2.4,2.3,2.4s1.4-.2,1.9-.4l.2.9c-.4.2-1.2.4-2.3.4-2.1,0-3.3-1.4-3.3-3.4s1.2-3.6,3.2-3.6,2.8,1.9,2.8,3.2,0,.4,0,.6h-4.8ZM273.9,264.6c0-.8-.3-2-1.7-2s-1.8,1.1-1.9,2h3.6Z"/>
      <path class="st8" d="M276.6,264.1c0-.9,0-1.6,0-2.2h1.1v1.2h0c.5-.8,1.3-1.3,2.4-1.3,1.7,0,2.9,1.4,2.9,3.4s-1.5,3.6-3.1,3.6-1.7-.4-2.1-1.1h0v3.7h-1.2v-7.3ZM277.8,265.9c0,.2,0,.4,0,.5.2.9,1,1.4,1.8,1.4,1.3,0,2.1-1.1,2.1-2.6s-.7-2.5-2-2.5-1.6.6-1.9,1.5c0,.2,0,.3,0,.5v1.2Z"/>
    </g>
    <g>
      <path class="st8" d="M337.5,260.3v1.6h1.8v.9h-1.8v3.7c0,.8.2,1.3.9,1.3s.5,0,.7,0v.9c-.2,0-.6.2-1,.2s-1-.2-1.3-.5c-.3-.4-.5-1-.5-1.8v-3.7h-1.1v-.9h1.1v-1.3l1.2-.4Z"/>
      <path class="st8" d="M345.4,267c0,.6,0,1.2,0,1.6h-1.1v-.9h-.1c-.4.5-1.1,1-2.1,1-1.4,0-2.1-1-2.1-1.9,0-1.6,1.5-2.5,4.1-2.5h0c0-.7-.2-1.7-1.5-1.7-.6,0-1.3.2-1.8.5l-.3-.8c.6-.4,1.4-.6,2.2-.6,2.1,0,2.6,1.4,2.6,2.8v2.5ZM344.2,265.2c-1.3,0-2.9.2-2.9,1.5s.5,1.2,1.1,1.2c.9,0,1.5-.6,1.7-1.1,0-.1,0-.3,0-.4v-1.2Z"/>
      <path class="st8" d="M347.2,267.4c.4.2,1,.5,1.6.5.9,0,1.3-.4,1.3-1s-.3-.9-1.2-1.2c-1.2-.4-1.8-1.1-1.8-1.9s.9-2,2.3-2,1.3.2,1.7.4l-.3.9c-.3-.2-.8-.4-1.4-.4s-1.1.4-1.1.9.4.8,1.3,1.2c1.2.4,1.8,1,1.8,2s-.9,2-2.5,2-1.4-.2-1.9-.5l.3-.9Z"/>
      <path class="st8" d="M354.2,265h0c.2-.2.4-.5.6-.8l2-2.3h1.5l-2.6,2.8,3,4h-1.5l-2.3-3.2-.6.7v2.5h-1.2v-9.9h1.2v6.3Z"/>
    </g>
    <g>
      <path class="st15" d="M22.4,263.2c0,3.2-2,5-4.4,5s-4.2-1.9-4.2-4.8,1.8-5,4.4-5,4.3,2,4.3,4.8ZM15.1,263.3c0,2,1.1,3.8,3,3.8s3-1.8,3-3.9-1-3.9-3-3.9-3,1.9-3,3.9Z"/>
      <path class="st15" d="M23.9,258h1.2v4.3h0c.4-.8,1.2-1.2,2.3-1.2,1.7,0,2.9,1.4,2.9,3.4s-1.5,3.6-3.1,3.6-1.8-.4-2.3-1.3h0v1.1h-1.1c0-.5,0-1.1,0-1.8v-8.2ZM25.2,265.3c0,.2,0,.3,0,.4.2.9,1,1.4,1.8,1.4,1.3,0,2.1-1.1,2.1-2.6s-.7-2.5-2-2.5-1.6.6-1.9,1.5c0,.2,0,.3,0,.5v1.2Z"/>
      <path class="st15" d="M30.2,270c.6,0,1.1-.2,1.3-.5.3-.4.5-.9.5-2.5v-5.7h1.2v6.2c0,1.3-.2,2.2-.8,2.8-.5.5-1.4.8-2.1.8v-1ZM33.4,259.3c0,.4-.3.8-.8.8s-.7-.3-.7-.8.3-.8.8-.8.8.4.8.8Z"/>
      <path class="st15" d="M36,264.8c0,1.7,1.1,2.4,2.3,2.4s1.4-.2,1.9-.4l.2.9c-.4.2-1.2.4-2.3.4-2.1,0-3.3-1.4-3.3-3.4s1.2-3.6,3.2-3.6,2.8,1.9,2.8,3.2,0,.4,0,.6h-4.8ZM39.6,263.9c0-.8-.3-2-1.7-2s-1.8,1.1-1.9,2h3.6Z"/>
      <path class="st15" d="M47.2,267.7c-.3.2-1,.4-1.9.4-2,0-3.4-1.4-3.4-3.5s1.4-3.6,3.6-3.6,1.4.2,1.7.4l-.3.9c-.3-.2-.8-.3-1.4-.3-1.6,0-2.4,1.2-2.4,2.6s1,2.5,2.4,2.5,1.2-.2,1.5-.3l.2.9Z"/>
      <path class="st15" d="M50.3,259.6v1.6h1.8v.9h-1.8v3.7c0,.8.2,1.3.9,1.3s.5,0,.7,0v.9c-.2,0-.6.2-1,.2s-1-.2-1.3-.5c-.3-.4-.5-1-.5-1.8v-3.7h-1.1v-.9h1.1v-1.3l1.2-.4Z"/>
      <path class="st15" d="M54.8,259.3c0,.4-.3.8-.8.8s-.7-.3-.7-.8.3-.8.8-.8.8.3.8.8ZM53.4,268v-6.8h1.2v6.8h-1.2Z"/>
      <path class="st15" d="M57.2,261.2l1.3,3.8c.2.6.4,1.2.5,1.8h0c.2-.6.4-1.1.6-1.8l1.3-3.8h1.3l-2.7,6.8h-1.2l-2.6-6.8h1.3Z"/>
      <path class="st15" d="M64,264.8c0,1.7,1.1,2.4,2.3,2.4s1.4-.2,1.9-.4l.2.9c-.4.2-1.2.4-2.3.4-2.1,0-3.3-1.4-3.3-3.4s1.2-3.6,3.2-3.6,2.8,1.9,2.8,3.2,0,.4,0,.6h-4.8ZM67.6,263.9c0-.8-.3-2-1.7-2s-1.8,1.1-1.9,2h3.6Z"/>
    </g>
    <polygon class="st5" points="159.9 527.6 159.9 480.9 534.6 527.6 159.9 527.6"/>
    <polygon class="st15" points="534.6 480.9 534.6 527.6 159.9 480.9 534.6 480.9"/>
    <g>
      <path d="M171.5,507.7v8.2c0,.6,0,1.3,0,1.8h-1.1v-1.2h0c-.4.8-1.2,1.3-2.3,1.3-1.6,0-2.9-1.4-2.9-3.4,0-2.3,1.4-3.6,3-3.6s1.7.5,2,1h0v-4h1.2ZM170.3,513.6c0-.2,0-.4,0-.5-.2-.8-.9-1.4-1.8-1.4s-2,1.1-2,2.6.7,2.5,2,2.5,1.6-.6,1.8-1.5c0-.2,0-.3,0-.5v-1.2Z"/>
      <path d="M179.7,514.2c0,2.5-1.8,3.6-3.4,3.6s-3.2-1.3-3.2-3.5,1.5-3.6,3.4-3.6,3.3,1.4,3.3,3.5ZM174.3,514.3c0,1.5.8,2.6,2,2.6s2.1-1.1,2.1-2.6-.6-2.6-2-2.6-2.1,1.3-2.1,2.6Z"/>
      <path d="M184.3,513.4v.9h-3.5v-.9h3.5Z"/>
      <path d="M187.1,509c0,.4-.3.8-.8.8s-.7-.3-.7-.8.3-.8.8-.8.8.3.8.8ZM185.7,517.7v-6.8h1.2v6.8h-1.2Z"/>
      <path d="M190.5,509.2v1.6h1.8v.9h-1.8v3.7c0,.8.2,1.3.9,1.3s.5,0,.7,0v.9c-.2,0-.6.2-1,.2s-1-.2-1.3-.5c-.3-.4-.5-1-.5-1.8v-3.7h-1.1v-.9h1.1v-1.3l1.2-.4Z"/>
      <path d="M196.4,513.4v.9h-3.5v-.9h3.5Z"/>
      <path d="M198.3,510.9l1.5,4c.2.4.3,1,.4,1.4h0c.1-.4.3-.9.4-1.4l1.3-4h1.3l-1.8,4.8c-.9,2.3-1.5,3.5-2.3,4.2-.6.5-1.2.7-1.5.8l-.3-1c.3,0,.7-.3,1.1-.6.3-.3.7-.7,1-1.4,0-.1,0-.2,0-.3s0-.2,0-.3l-2.5-6.2h1.3Z"/>
      <path d="M210.4,514.2c0,2.5-1.8,3.6-3.4,3.6s-3.2-1.3-3.2-3.5,1.5-3.6,3.4-3.6,3.3,1.4,3.3,3.5ZM205,514.3c0,1.5.8,2.6,2,2.6s2.1-1.1,2.1-2.6-.6-2.6-2-2.6-2.1,1.3-2.1,2.6Z"/>
      <path d="M217.6,515.8c0,.7,0,1.3,0,1.9h-1.1v-1.1h0c-.3.5-1,1.3-2.2,1.3s-2.3-.6-2.3-3v-4h1.2v3.7c0,1.3.4,2.2,1.5,2.2s1.4-.6,1.6-1.1c0-.2.1-.4.1-.6v-4.1h1.2v4.9Z"/>
      <path d="M219.7,513c0-.8,0-1.5,0-2.1h1.1v1.3h0c.3-.9,1.1-1.5,1.9-1.5s.2,0,.3,0v1.2c-.1,0-.3,0-.4,0-.9,0-1.5.6-1.7,1.6,0,.2,0,.4,0,.6v3.6h-1.2v-4.7Z"/>
      <path d="M224.1,516.4c.4.2,1,.5,1.6.5.9,0,1.3-.4,1.3-1s-.3-.9-1.2-1.2c-1.2-.4-1.8-1.1-1.8-1.9s.9-2,2.3-2,1.3.2,1.7.4l-.3.9c-.3-.2-.8-.4-1.4-.4s-1.1.4-1.1.9.4.8,1.3,1.2c1.2.4,1.8,1,1.8,2s-.9,2-2.5,2-1.4-.2-1.9-.5l.3-.9Z"/>
      <path d="M230.5,514.5c0,1.7,1.1,2.4,2.3,2.4s1.4-.2,1.9-.4l.2.9c-.4.2-1.2.4-2.3.4-2.1,0-3.3-1.4-3.3-3.4s1.2-3.6,3.2-3.6,2.8,1.9,2.8,3.2,0,.4,0,.6h-4.8ZM234.1,513.6c0-.8-.3-2-1.7-2s-1.8,1.1-1.9,2h3.6Z"/>
      <path d="M236.8,507.7h1.2v9.9h-1.2v-9.9Z"/>
      <path d="M240.2,517.7v-5.8h-.9v-.9h.9v-.3c0-1,.2-1.8.8-2.4.5-.4,1.1-.6,1.7-.6s.8,0,1.1.2l-.2,1c-.2,0-.4-.2-.8-.2-1,0-1.3.9-1.3,2v.4h1.6v.9h-1.6v5.8h-1.2Z"/>
    </g>
    <g>
      <path class="st8" d="M473.1,491.7c0-.8,0-1.5,0-2.1h1.1v1.3h0c.3-.9,1.1-1.5,1.9-1.5s.2,0,.3,0v1.2c-.1,0-.3,0-.4,0-.9,0-1.5.6-1.7,1.6,0,.2,0,.4,0,.6v3.6h-1.2v-4.7Z"/>
      <path class="st8" d="M478.3,493.2c0,1.7,1.1,2.4,2.3,2.4s1.4-.2,1.9-.4l.2.9c-.4.2-1.2.4-2.3.4-2.1,0-3.3-1.4-3.3-3.4s1.2-3.6,3.2-3.6,2.8,1.9,2.8,3.2,0,.4,0,.6h-4.8ZM481.9,492.3c0-.8-.3-2-1.7-2s-1.8,1.1-1.9,2h3.6Z"/>
      <path class="st8" d="M485.1,489.6l1.3,3.8c.2.6.4,1.2.5,1.8h0c.2-.6.3-1.1.6-1.8l1.3-3.8h1.3l-2.7,6.8h-1.2l-2.6-6.8h1.3Z"/>
      <path class="st8" d="M492.7,487.7c0,.4-.3.8-.8.8s-.7-.3-.7-.8.3-.8.8-.8.8.3.8.8ZM491.3,496.4v-6.8h1.2v6.8h-1.2Z"/>
      <path class="st8" d="M495.3,493.2c0,1.7,1.1,2.4,2.3,2.4s1.4-.2,1.9-.4l.2.9c-.4.2-1.2.4-2.3.4-2.1,0-3.3-1.4-3.3-3.4s1.2-3.6,3.2-3.6,2.8,1.9,2.8,3.2,0,.4,0,.6h-4.8ZM498.9,492.3c0-.8-.3-2-1.7-2s-1.8,1.1-1.9,2h3.6Z"/>
      <path class="st8" d="M502.1,489.6l.9,3.4c.2.8.4,1.5.5,2.2h0c.2-.7.4-1.4.6-2.1l1.1-3.5h1l1.1,3.4c.3.8.4,1.5.6,2.2h0c.1-.7.3-1.4.5-2.2l1-3.4h1.2l-2.2,6.8h-1.1l-1-3.2c-.2-.8-.4-1.4-.6-2.2h0c-.2.8-.4,1.5-.6,2.2l-1.1,3.2h-1.1l-2-6.8h1.3Z"/>
      <path class="st8" d="M513.3,487.7c0,.4-.3.8-.8.8s-.7-.3-.7-.8.3-.8.8-.8.8.3.8.8ZM511.9,496.4v-6.8h1.2v6.8h-1.2Z"/>
      <path class="st8" d="M515.2,491.4c0-.7,0-1.3,0-1.8h1.1v1.1h0c.3-.6,1.1-1.3,2.2-1.3s2.4.6,2.4,2.9v4h-1.2v-3.9c0-1.1-.4-2-1.6-2s-1.4.6-1.7,1.3c0,.2,0,.4,0,.6v4.1h-1.2v-4.9Z"/>
      <path class="st8" d="M528.8,495.4c0,1.6-.3,2.5-1,3.1-.7.6-1.6.8-2.5.8s-1.7-.2-2.3-.6l.3-1c.4.3,1.1.5,2,.5,1.3,0,2.2-.7,2.2-2.4v-.7h0c-.4.6-1.1,1.1-2.2,1.1-1.7,0-2.9-1.4-2.9-3.3s1.5-3.6,3.1-3.6,1.8.6,2.1,1.2h0v-1h1.1c0,.5,0,1,0,1.8v3.9ZM527.5,492.3c0-.2,0-.4,0-.5-.2-.7-.8-1.3-1.7-1.3s-2,1-2,2.6.7,2.4,2,2.4,1.5-.5,1.7-1.3c0-.2,0-.4,0-.7v-1.2Z"/>
    </g>
    <g>
      <path class="st15" d="M15.5,496.1h1.2v4.6h0c.3-.4.5-.7.7-1l2.9-3.5h1.5l-3.4,4,3.7,5.4h-1.4l-3.1-4.6-.9,1v3.6h-1.2v-9.4Z"/>
      <path class="st15" d="M23.1,500.6c0-.7,0-1.3,0-1.8h1.1v1.1h0c.3-.6,1.1-1.3,2.2-1.3s2.4.6,2.4,2.9v4h-1.2v-3.9c0-1.1-.4-2-1.6-2s-1.4.6-1.7,1.3c0,.2,0,.4,0,.6v4.1h-1.2v-4.9Z"/>
      <path class="st15" d="M37,502.1c0,2.5-1.8,3.6-3.4,3.6s-3.2-1.3-3.2-3.5,1.5-3.6,3.4-3.6,3.3,1.4,3.3,3.5ZM31.7,502.1c0,1.5.8,2.6,2,2.6s2.1-1.1,2.1-2.6-.6-2.6-2-2.6-2.1,1.3-2.1,2.6Z"/>
      <path class="st15" d="M39,498.7l.9,3.4c.2.8.4,1.5.5,2.2h0c.2-.7.4-1.4.6-2.1l1.1-3.5h1l1.1,3.4c.3.8.4,1.5.6,2.2h0c.1-.7.3-1.4.5-2.2l1-3.4h1.2l-2.2,6.8h-1.1l-1-3.2c-.2-.8-.4-1.4-.6-2.2h0c-.2.8-.4,1.5-.6,2.2l-1.1,3.2h-1.1l-2-6.8h1.3Z"/>
      <path class="st15" d="M48.8,495.6h1.2v9.9h-1.2v-9.9Z"/>
      <path class="st15" d="M52.8,502.3c0,1.7,1.1,2.4,2.3,2.4s1.4-.2,1.9-.3l.2.9c-.4.2-1.2.4-2.3.4-2.1,0-3.3-1.4-3.3-3.4s1.2-3.6,3.2-3.6,2.8,1.9,2.8,3.2,0,.4,0,.6h-4.8ZM56.4,501.5c0-.8-.3-2-1.7-2s-1.8,1.1-1.9,2h3.6Z"/>
      <path class="st15" d="M65,495.6v8.2c0,.6,0,1.3,0,1.8h-1.1v-1.2h0c-.4.8-1.2,1.3-2.3,1.3-1.6,0-2.9-1.4-2.9-3.4,0-2.3,1.4-3.6,3-3.6s1.7.5,2,1h0v-4h1.2ZM63.7,501.5c0-.2,0-.4,0-.5-.2-.8-.9-1.4-1.8-1.4s-2,1.1-2,2.6.7,2.5,2,2.5,1.6-.6,1.8-1.5c0-.2,0-.3,0-.5v-1.2Z"/>
      <path class="st15" d="M72.8,504.5c0,1.6-.3,2.5-1,3.1-.7.6-1.6.8-2.5.8s-1.7-.2-2.3-.6l.3-1c.4.3,1.1.5,2,.5,1.3,0,2.2-.7,2.2-2.4v-.7h0c-.4.6-1.1,1.1-2.2,1.1-1.7,0-2.9-1.4-2.9-3.3s1.5-3.6,3.1-3.6,1.8.6,2.1,1.2h0v-1h1.1c0,.5,0,1,0,1.8v3.9ZM71.6,501.4c0-.2,0-.4,0-.5-.2-.7-.8-1.3-1.7-1.3s-2,1-2,2.6.7,2.4,2,2.4,1.5-.5,1.7-1.3c0-.2,0-.4,0-.7v-1.2Z"/>
      <path class="st15" d="M75.5,502.3c0,1.7,1.1,2.4,2.3,2.4s1.4-.2,1.9-.3l.2.9c-.4.2-1.2.4-2.3.4-2.1,0-3.3-1.4-3.3-3.4s1.2-3.6,3.2-3.6,2.8,1.9,2.8,3.2,0,.4,0,.6h-4.8ZM79.1,501.5c0-.8-.3-2-1.7-2s-1.8,1.1-1.9,2h3.6Z"/>
    </g>
    <polygon class="st5" points="159.9 578.6 159.9 531.9 534.6 578.6 159.9 578.6"/>
    <polygon class="st15" points="534.6 531.9 534.6 578.6 159.9 531.9 534.6 531.9"/>
    <g>
      <path d="M171.5,558.7v8.2c0,.6,0,1.3,0,1.8h-1.1v-1.2h0c-.4.8-1.2,1.3-2.3,1.3-1.6,0-2.9-1.4-2.9-3.4,0-2.3,1.4-3.6,3-3.6s1.7.5,2,1h0v-4h1.2ZM170.3,564.7c0-.2,0-.4,0-.5-.2-.8-.9-1.4-1.8-1.4s-2,1.1-2,2.6.7,2.5,2,2.5,1.6-.6,1.8-1.5c0-.2,0-.3,0-.5v-1.2Z"/>
      <path d="M179.7,565.2c0,2.5-1.8,3.6-3.4,3.6s-3.2-1.3-3.2-3.5,1.5-3.6,3.4-3.6,3.3,1.4,3.3,3.5ZM174.3,565.3c0,1.5.8,2.6,2,2.6s2.1-1.1,2.1-2.6-.6-2.6-2-2.6-2.1,1.3-2.1,2.6Z"/>
      <path d="M184.3,564.4v.9h-3.5v-.9h3.5Z"/>
      <path d="M187.1,560c0,.4-.3.8-.8.8s-.7-.3-.7-.8.3-.8.8-.8.8.3.8.8ZM185.7,568.7v-6.8h1.2v6.8h-1.2Z"/>
      <path d="M190.5,560.3v1.6h1.8v.9h-1.8v3.7c0,.8.2,1.3.9,1.3s.5,0,.7,0v.9c-.2,0-.6.2-1,.2s-1-.2-1.3-.5c-.3-.4-.5-1-.5-1.8v-3.7h-1.1v-.9h1.1v-1.3l1.2-.4Z"/>
      <path d="M196.4,564.4v.9h-3.5v-.9h3.5Z"/>
      <path d="M198.3,561.9l1.5,4c.2.4.3,1,.4,1.4h0c.1-.4.3-.9.4-1.4l1.3-4h1.3l-1.8,4.8c-.9,2.3-1.5,3.5-2.3,4.2-.6.5-1.2.7-1.5.8l-.3-1c.3,0,.7-.3,1.1-.6.3-.3.7-.7,1-1.4,0-.1,0-.2,0-.3s0-.2,0-.3l-2.5-6.2h1.3Z"/>
      <path d="M210.4,565.2c0,2.5-1.8,3.6-3.4,3.6s-3.2-1.3-3.2-3.5,1.5-3.6,3.4-3.6,3.3,1.4,3.3,3.5ZM205,565.3c0,1.5.8,2.6,2,2.6s2.1-1.1,2.1-2.6-.6-2.6-2-2.6-2.1,1.3-2.1,2.6Z"/>
      <path d="M217.6,566.8c0,.7,0,1.3,0,1.9h-1.1v-1.1h0c-.3.5-1,1.3-2.2,1.3s-2.3-.6-2.3-3v-4h1.2v3.7c0,1.3.4,2.2,1.5,2.2s1.4-.6,1.6-1.1c0-.2.1-.4.1-.6v-4.1h1.2v4.9Z"/>
      <path d="M219.7,564c0-.8,0-1.5,0-2.1h1.1v1.3h0c.3-.9,1.1-1.5,1.9-1.5s.2,0,.3,0v1.2c-.1,0-.3,0-.4,0-.9,0-1.5.6-1.7,1.6,0,.2,0,.4,0,.6v3.6h-1.2v-4.7Z"/>
      <path d="M224.1,567.4c.4.2,1,.5,1.6.5.9,0,1.3-.4,1.3-1s-.3-.9-1.2-1.2c-1.2-.4-1.8-1.1-1.8-1.9s.9-2,2.3-2,1.3.2,1.7.4l-.3.9c-.3-.2-.8-.4-1.4-.4s-1.1.4-1.1.9.4.8,1.3,1.2c1.2.4,1.8,1,1.8,2s-.9,2-2.5,2-1.4-.2-1.9-.5l.3-.9Z"/>
      <path d="M230.5,565.5c0,1.7,1.1,2.4,2.3,2.4s1.4-.2,1.9-.4l.2.9c-.4.2-1.2.4-2.3.4-2.1,0-3.3-1.4-3.3-3.4s1.2-3.6,3.2-3.6,2.8,1.9,2.8,3.2,0,.4,0,.6h-4.8ZM234.1,564.6c0-.8-.3-2-1.7-2s-1.8,1.1-1.9,2h3.6Z"/>
      <path d="M236.8,558.7h1.2v9.9h-1.2v-9.9Z"/>
      <path d="M240.2,568.7v-5.8h-.9v-.9h.9v-.3c0-1,.2-1.8.8-2.4.5-.4,1.1-.6,1.7-.6s.8,0,1.1.2l-.2,1c-.2,0-.4-.2-.8-.2-1,0-1.3.9-1.3,2v.4h1.6v.9h-1.6v5.8h-1.2Z"/>
    </g>
    <g>
      <path class="st8" d="M436.2,540.6l1.3,3.8c.2.6.4,1.2.5,1.8h0c.2-.6.3-1.1.6-1.8l1.3-3.8h1.3l-2.7,6.8h-1.2l-2.6-6.8h1.3Z"/>
      <path class="st8" d="M443.8,538.7c0,.4-.3.8-.8.8s-.7-.3-.7-.8.3-.8.8-.8.8.3.8.8ZM442.4,547.4v-6.8h1.2v6.8h-1.2Z"/>
      <path class="st8" d="M445.7,542.7c0-.8,0-1.5,0-2.1h1.1v1.3h0c.3-.9,1.1-1.5,1.9-1.5s.2,0,.3,0v1.2c-.1,0-.3,0-.4,0-.9,0-1.5.6-1.7,1.6,0,.2,0,.4,0,.6v3.6h-1.2v-4.7Z"/>
      <path class="st8" d="M452.1,539v1.6h1.8v.9h-1.8v3.7c0,.8.2,1.3.9,1.3s.5,0,.7,0v.9c-.2,0-.6.2-1,.2s-1-.2-1.3-.5c-.3-.4-.5-1-.5-1.8v-3.7h-1.1v-.9h1.1v-1.3l1.2-.4Z"/>
      <path class="st8" d="M460.9,545.5c0,.7,0,1.3,0,1.9h-1.1v-1.1h0c-.3.5-1,1.3-2.2,1.3s-2.3-.6-2.3-3v-4h1.2v3.7c0,1.3.4,2.2,1.5,2.2s1.4-.6,1.6-1.1c0-.2.1-.4.1-.6v-4.1h1.2v4.9Z"/>
      <path class="st8" d="M467.7,545.8c0,.6,0,1.2,0,1.6h-1.1v-.9h-.1c-.4.5-1.1,1-2.1,1-1.4,0-2.1-1-2.1-1.9,0-1.6,1.5-2.5,4.1-2.5h0c0-.7-.2-1.7-1.5-1.7-.6,0-1.3.2-1.8.5l-.3-.8c.6-.4,1.4-.6,2.2-.6,2.1,0,2.6,1.4,2.6,2.8v2.5ZM466.5,543.9c-1.3,0-2.9.2-2.9,1.5s.5,1.2,1.1,1.2c.9,0,1.5-.6,1.7-1.1,0-.1,0-.3,0-.4v-1.2Z"/>
      <path class="st8" d="M469.7,537.5h1.2v9.9h-1.2v-9.9Z"/>
      <path class="st8" d="M476,542.7c0-.8,0-1.5,0-2.1h1.1v1.3h0c.3-.9,1.1-1.5,1.9-1.5s.2,0,.3,0v1.2c-.1,0-.3,0-.4,0-.9,0-1.5.6-1.7,1.6,0,.2,0,.4,0,.6v3.6h-1.2v-4.7Z"/>
      <path class="st8" d="M481.1,544.2c0,1.7,1.1,2.4,2.3,2.4s1.4-.2,1.9-.3l.2.9c-.4.2-1.2.4-2.3.4-2.1,0-3.3-1.4-3.3-3.4s1.2-3.6,3.2-3.6,2.8,1.9,2.8,3.2,0,.4,0,.6h-4.8ZM484.7,543.4c0-.8-.3-2-1.7-2s-1.8,1.1-1.9,2h3.6Z"/>
      <path class="st8" d="M487.4,542.8c0-.9,0-1.6,0-2.2h1.1v1.2h0c.5-.8,1.3-1.3,2.4-1.3,1.7,0,2.9,1.4,2.9,3.4s-1.5,3.6-3.1,3.6-1.7-.4-2.1-1.1h0v3.7h-1.2v-7.3ZM488.6,544.6c0,.2,0,.3,0,.5.2.9,1,1.4,1.8,1.4,1.3,0,2.1-1.1,2.1-2.6s-.7-2.5-2-2.5-1.6.6-1.9,1.5c0,.2,0,.3,0,.5v1.2Z"/>
      <path class="st8" d="M495.4,537.5h1.2v9.9h-1.2v-9.9Z"/>
      <path class="st8" d="M503.4,545.8c0,.6,0,1.2,0,1.6h-1.1v-.9h-.1c-.4.5-1.1,1-2.1,1-1.4,0-2.1-1-2.1-1.9,0-1.6,1.5-2.5,4.1-2.5h0c0-.7-.2-1.7-1.5-1.7-.6,0-1.3.2-1.8.5l-.3-.8c.6-.4,1.4-.6,2.2-.6,2.1,0,2.6,1.4,2.6,2.8v2.5ZM502.3,543.9c-1.3,0-2.9.2-2.9,1.5s.5,1.2,1.1,1.2c.9,0,1.5-.6,1.7-1.1,0-.1,0-.3,0-.4v-1.2Z"/>
      <path class="st8" d="M505.8,540.6l1.5,4c.2.4.3,1,.4,1.4h0c.1-.4.3-.9.4-1.4l1.3-4h1.3l-1.8,4.8c-.9,2.3-1.5,3.5-2.3,4.2-.6.5-1.2.7-1.5.8l-.3-1c.3,0,.7-.3,1.1-.6.3-.3.7-.7,1-1.4,0-.1,0-.2,0-.3s0-.2,0-.3l-2.5-6.2h1.3Z"/>
      <path class="st8" d="M513.3,538.7c0,.4-.3.8-.8.8s-.7-.3-.7-.8.3-.8.8-.8.8.3.8.8ZM511.9,547.4v-6.8h1.2v6.8h-1.2Z"/>
      <path class="st8" d="M515.2,542.5c0-.7,0-1.3,0-1.8h1.1v1.1h0c.3-.6,1.1-1.3,2.2-1.3s2.4.6,2.4,2.9v4h-1.2v-3.9c0-1.1-.4-2-1.6-2s-1.4.6-1.7,1.3c0,.2,0,.4,0,.6v4.1h-1.2v-4.9Z"/>
      <path class="st8" d="M528.8,546.4c0,1.6-.3,2.5-1,3.1-.7.6-1.6.8-2.5.8s-1.7-.2-2.3-.6l.3-1c.4.3,1.1.5,2,.5,1.3,0,2.2-.7,2.2-2.4v-.7h0c-.4.6-1.1,1.1-2.2,1.1-1.7,0-2.9-1.4-2.9-3.3s1.5-3.6,3.1-3.6,1.8.6,2.1,1.2h0v-1h1.1c0,.5,0,1,0,1.8v3.9ZM527.5,543.3c0-.2,0-.4,0-.5-.2-.7-.8-1.3-1.7-1.3s-2,1-2,2.6.7,2.4,2,2.4,1.5-.5,1.7-1.3c0-.2,0-.4,0-.7v-1.2Z"/>
    </g>
    <g>
      <path class="st15" d="M15.3,555.1c.5.4,1.3.6,2.2.6,1.2,0,2-.7,2-1.6s-.5-1.4-1.8-1.9c-1.5-.6-2.5-1.4-2.5-2.7s1.2-2.6,3.1-2.6,1.7.2,2.1.5l-.3,1c-.3-.2-.9-.4-1.8-.4-1.3,0-1.8.8-1.8,1.4s.6,1.3,1.9,1.8c1.6.6,2.4,1.4,2.4,2.8s-1.1,2.7-3.3,2.7-1.9-.3-2.4-.6l.3-1Z"/>
      <path class="st15" d="M23.5,552.9h0c.2-.2.4-.5.6-.8l2-2.3h1.5l-2.6,2.8,3,4h-1.5l-2.3-3.2-.6.7v2.5h-1.2v-9.9h1.2v6.3Z"/>
      <path class="st15" d="M30.5,547.9c0,.4-.3.8-.8.8s-.7-.3-.7-.8.3-.8.8-.8.8.3.8.8ZM29.1,556.5v-6.8h1.2v6.8h-1.2Z"/>
      <path class="st15" d="M32.4,546.6h1.2v9.9h-1.2v-9.9Z"/>
      <path class="st15" d="M35.7,546.6h1.2v9.9h-1.2v-9.9Z"/>
    </g>
    <path class="st1" d="M230.6,7.2c0-3,2.4-5.3,5.4-5.3h220c3,0,5.4,2.4,5.4,5.3v576.1c0,3-2.4,5.3-5.4,5.3h-220c-3,0-5.4-2.4-5.4-5.3V7.2Z"/>
  </g>
</svg>