<?xml version="1.0" encoding="UTF-8"?>
<svg id="Layer_1" xmlns="http://www.w3.org/2000/svg" xmlns:xlink="http://www.w3.org/1999/xlink" version="1.1" viewBox="0 0 551 496">
  <!-- Generator: Adobe Illustrator 30.5.1, SVG Export Plug-In . SVG Version: 2.1.4 Build 3)  -->
  <defs>
    <style>
      .st0, .st1 {
        fill: none;
      }

      .st2 {
        fill: #368ddf;
      }

      .st3 {
        fill: #452809;
      }

      .st4 {
        fill: #eab57d;
      }

      .st5 {
        fill: #c0daf5;
      }

      .st1 {
        stroke: #b3201a;
        stroke-linejoin: round;
        stroke-width: 2px;
      }

      .st6 {
        fill: #0c4171;
      }

      .st7 {
        fill: #f5dbc0;
      }

      .st8 {
        fill: #fff;
      }

      .st9 {
        fill: #7db4ea;
      }

      .st10 {
        fill: #71420e;
      }

      .st11 {
        fill: #092845;
      }

      .st12 {
        fill: #b26914;
      }

      .st13 {
        clip-path: url(#clippath);
      }

      .st14 {
        fill: #b3201a;
      }

      .st15 {
        fill: #1167b2;
      }
    </style>
    <clipPath id="clippath">
      <rect class="st0" width="551" height="496"/>
    </clipPath>
  </defs>
  <g class="st13">
    <path class="st5" d="M.6,255.2c0-2.1,3.7-3.8,8.2-3.8h524.9c4.5,0,8.2,1.7,8.2,3.8v69c0,2.1-3.7,3.8-8.2,3.8H8.8c-4.5,0-8.2-1.7-8.2-3.8v-69Z"/>
    <rect class="st2" x="233.9" y="292.7" width="73" height="30.6"/>
    <rect class="st15" x="309.5" y="292.7" width="72.8" height="30.6"/>
    <rect class="st6" x="384.8" y="292.7" width="73" height="30.6"/>
    <rect class="st11" x="460.2" y="292.5" width="73" height="30.8"/>
    <rect class="st9" x="158.5" y="292.7" width="73" height="30.6"/>
    <path class="st7" d="M8.4,82h524.9c4.5,0,8.2,3.7,8.2,8.2v149.1c0,4.5-3.7,8.2-8.2,8.2H8.4c-4.5,0-8.2-3.7-8.2-8.2V90.2c0-4.5,3.7-8.2,8.2-8.2Z"/>
    <rect class="st12" x="234.3" y="147.8" width="73" height="90.2"/>
    <rect class="st12" x="309.7" y="147.8" width="73" height="90.2"/>
    <rect class="st12" x="385" y="147.8" width="73" height="90.2"/>
    <rect class="st12" x="460.6" y="147.5" width="72.8" height="90.4"/>
    <rect class="st12" x="158.9" y="147.8" width="72.8" height="90.2"/>
    <rect class="st4" x="158.9" y="90.2" width="73" height="54.6"/>
    <path d="M194.2,105.3c0,3.1-1.2,4.8-3.2,4.8s-3-1.7-3-4.7c0-3.1,1.3-4.7,3.2-4.7s3,1.7,3,4.6ZM189.2,105.4c0,2.4.7,3.7,1.8,3.7s1.8-1.5,1.8-3.8-.6-3.7-1.8-3.7-1.8,1.3-1.8,3.8Z"/>
    <rect class="st4" x="234.3" y="90.2" width="73" height="54.6"/>
    <path d="M266.2,101.9h0l-1.6.9-.2-.9,2-1.1h1v9.1h-1.2v-8Z"/>
    <rect class="st4" x="309.7" y="90.2" width="73" height="54.6"/>
    <path d="M338.9,109.9v-.8l1-.9c2.3-2.2,3.4-3.4,3.4-4.8s-.4-1.8-1.8-1.8-1.5.4-1.9.8l-.4-.9c.6-.5,1.5-.9,2.6-.9,2,0,2.8,1.3,2.8,2.6s-1.2,3-3.1,4.9l-.7.7h0s4.1,0,4.1,0v1h-5.8Z"/>
    <rect class="st4" x="385" y="90.2" width="73" height="54.6"/>
    <path d="M414.6,108.5c.3.2,1.1.6,2,.6,1.6,0,2.1-1,2.1-1.8,0-1.3-1.2-1.8-2.4-1.8h-.7v-.9h.7c.9,0,2-.5,2-1.5s-.5-1.4-1.6-1.4-1.4.3-1.8.6l-.3-.9c.5-.4,1.4-.7,2.4-.7,1.8,0,2.6,1.1,2.6,2.2s-.6,1.8-1.7,2.2h0c1.1.2,2,1.1,2,2.4,0,1.5-1.1,2.7-3.3,2.7s-1.9-.3-2.4-.6l.3-.9Z"/>
    <rect class="st4" x="460.4" y="90.2" width="73.3" height="54.6"/>
    <path d="M493.6,109.9v-2.5h-4.2v-.8l4.1-5.8h1.3v5.7h1.3v1h-1.3v2.5h-1.2ZM493.6,106.5v-3c0-.5,0-1,0-1.4h0c-.3.5-.5.9-.8,1.3l-2.2,3.1h0s3,0,3,0Z"/>
    <polygon class="st5" points="159.3 431.9 159.3 385.2 534.1 431.9 159.3 431.9"/>
    <polygon class="st15" points="534.1 385.2 534.1 431.9 159.3 385.2 534.1 385.2"/>
    <g>
      <path d="M172.1,421.5c-.3.2-1,.4-1.9.4-2,0-3.4-1.4-3.4-3.5s1.4-3.6,3.6-3.6,1.4.2,1.7.4l-.3.9c-.3-.2-.8-.3-1.4-.3-1.6,0-2.4,1.2-2.4,2.6s1,2.5,2.4,2.5,1.2-.2,1.5-.3l.2.9Z"/>
      <path d="M179.6,418.3c0,2.5-1.8,3.6-3.4,3.6s-3.2-1.3-3.2-3.5,1.5-3.6,3.4-3.6,3.3,1.4,3.3,3.5ZM174.2,418.4c0,1.5.8,2.6,2,2.6s2.1-1.1,2.1-2.6-.6-2.6-2-2.6-2.1,1.3-2.1,2.6Z"/>
      <path d="M181,420.5c.4.2,1,.5,1.6.5.9,0,1.3-.4,1.3-1s-.3-.9-1.2-1.2c-1.2-.4-1.8-1.1-1.8-1.9s.9-2,2.3-2,1.3.2,1.7.4l-.3.9c-.3-.2-.8-.4-1.4-.4s-1.1.4-1.1.9.4.8,1.3,1.2c1.2.4,1.8,1,1.8,2s-.9,2-2.5,2-1.4-.2-1.9-.5l.3-.9Z"/>
      <path d="M188.2,413.4v1.6h1.8v.9h-1.8v3.7c0,.8.2,1.3.9,1.3s.5,0,.7,0v.9c-.2,0-.6.2-1,.2s-1-.2-1.3-.5c-.3-.4-.5-1-.5-1.8v-3.7h-1.1v-.9h1.1v-1.3l1.2-.4Z"/>
      <path d="M191.2,420.5c.4.2,1,.5,1.6.5.9,0,1.3-.4,1.3-1s-.3-.9-1.2-1.2c-1.2-.4-1.8-1.1-1.8-1.9s.9-2,2.3-2,1.3.2,1.7.4l-.3.9c-.3-.2-.8-.4-1.4-.4s-1.1.4-1.1.9.4.8,1.3,1.2c1.2.4,1.8,1,1.8,2s-.9,2-2.5,2-1.4-.2-1.9-.5l.3-.9Z"/>
    </g>
    <path class="st8" d="M475.5,397.3c0,1.7,1.1,2.4,2.3,2.4s1.4-.2,1.9-.3l.2.9c-.4.2-1.2.4-2.3.4-2.1,0-3.3-1.4-3.3-3.4s1.2-3.6,3.2-3.6,2.8,1.9,2.8,3.2,0,.4,0,.6h-4.8ZM479.1,396.4c0-.8-.3-2-1.7-2s-1.8,1.1-1.9,2h3.6Z"/>
    <path class="st8" d="M490.3,391.7c-.3-.2-.8-.4-1.4-.4-1.3,0-1.7.9-1.7,2v.3h4v6.8h-1.2v-5.8h-2.7v5.8h-1.2v-5.8h-2.9v5.8h-1.2v-5.8h-.9v-.9h.9v-.2c0-.8.2-1.7.8-2.2.4-.4,1-.7,1.7-.7s.9.2,1.2.3l-.4.9c-.2-.1-.5-.2-.8-.2s-.7.1-.9.4c-.3.4-.4,1-.4,1.6v.3h2.9v-.4c0-1.8,1.1-2.9,3-2.9s1.3.2,1.7.4l-.4.9Z"/>
    <g>
      <path class="st8" d="M498,400.2c-.3.2-1,.4-1.9.4-2,0-3.4-1.4-3.4-3.5s1.4-3.6,3.6-3.6,1.4.2,1.7.4l-.3.9c-.3-.2-.8-.3-1.4-.3-1.6,0-2.4,1.2-2.4,2.6s1,2.5,2.4,2.5,1.2-.2,1.5-.3l.2.9Z"/>
      <path class="st8" d="M500.8,391.8c0,.4-.3.8-.8.8s-.7-.3-.7-.8.3-.8.8-.8.8.3.8.8ZM499.5,400.4v-6.8h1.2v6.8h-1.2Z"/>
      <path class="st8" d="M503.4,397.3c0,1.7,1.1,2.4,2.3,2.4s1.4-.2,1.9-.3l.2.9c-.4.2-1.2.4-2.3.4-2.1,0-3.3-1.4-3.3-3.4s1.2-3.6,3.2-3.6,2.8,1.9,2.8,3.2,0,.4,0,.6h-4.8ZM507,396.4c0-.8-.3-2-1.7-2s-1.8,1.1-1.9,2h3.6Z"/>
      <path class="st8" d="M509.8,395.5c0-.7,0-1.3,0-1.8h1.1v1.1h0c.3-.6,1.1-1.3,2.2-1.3s2.4.6,2.4,2.9v4h-1.2v-3.9c0-1.1-.4-2-1.6-2s-1.4.6-1.7,1.3c0,.2,0,.4,0,.6v4.1h-1.2v-4.9Z"/>
      <path class="st8" d="M522.4,400.2c-.3.2-1,.4-1.9.4-2,0-3.4-1.4-3.4-3.5s1.4-3.6,3.6-3.6,1.4.2,1.7.4l-.3.9c-.3-.2-.8-.3-1.4-.3-1.6,0-2.4,1.2-2.4,2.6s1,2.5,2.4,2.5,1.2-.2,1.5-.3l.2.9Z"/>
      <path class="st8" d="M524.5,393.7l1.5,4c.2.4.3,1,.4,1.4h0c.1-.4.3-.9.4-1.4l1.3-4h1.3l-1.8,4.8c-.9,2.3-1.5,3.5-2.3,4.2-.6.5-1.2.7-1.5.8l-.3-1c.3,0,.7-.3,1.1-.6.3-.3.7-.7,1-1.4,0-.1,0-.2,0-.3s0-.2,0-.3l-2.5-6.2h1.3Z"/>
    </g>
    <circle class="st7" cx="195.3" cy="184.6" r="28.6" transform="translate(-50 294.4) rotate(-67.5)"/>
    <circle class="st7" cx="270.5" cy="184.6" r="28.6" transform="translate(45 422) rotate(-80.8)"/>
    <path class="st3" d="M270.5,156c15.7,0,28.4,12.6,28.6,28.3l-28.6.2v-28.6Z"/>
    <circle class="st7" cx="346.3" cy="184.8" r="28.6" transform="translate(-20 43.7) rotate(-7)"/>
    <path class="st3" d="M346.3,156.3c15.8,0,28.6,12.8,28.6,28.6s-12.8,28.6-28.6,28.6v-57.1Z"/>
    <circle class="st7" cx="421.9" cy="185.7" r="28.6" transform="translate(-8.7 21.2) rotate(-2.9)"/>
    <path class="st3" d="M421.9,157.1c15.8,0,28.6,12.8,28.6,28.6s-12.8,28.6-28.6,28.6-28.4-12.6-28.6-28.2l28.6-.3v-28.6Z"/>
    <ellipse class="st3" cx="497" cy="184.3" rx="28.6" ry="28.5"/>
    <polygon class="st5" points="159.3 484.7 159.3 438 534.1 484.7 159.3 484.7"/>
    <polygon class="st15" points="534.1 438 534.1 484.7 159.3 438 534.1 438"/>
    <g>
      <path d="M169.8,473.7h0c-.4.7-1.1,1.2-2.2,1.2-1.6,0-2.9-1.4-2.9-3.4s1.6-3.7,3.1-3.7,1.8.5,2.1,1.2h0v-1h1.2c0,.6,0,1.2,0,1.9v7.7h-1.2v-3.8ZM169.8,470.7c0-.2,0-.4,0-.5-.2-.8-.8-1.4-1.8-1.4s-2,1.1-2,2.6.6,2.5,2,2.5,1.5-.5,1.8-1.3c0-.2,0-.4,0-.6v-1.3Z"/>
      <path d="M178.7,472.9c0,.7,0,1.3,0,1.9h-1.1v-1.1h0c-.3.5-1,1.3-2.2,1.3s-2.3-.6-2.3-3v-4h1.2v3.7c0,1.3.4,2.2,1.5,2.2s1.4-.6,1.6-1.1c0-.2.1-.4.1-.6v-4.1h1.2v4.9Z"/>
      <path d="M185.5,473.1c0,.6,0,1.2,0,1.6h-1.1v-.9h-.1c-.4.5-1.1,1-2.1,1-1.4,0-2.1-1-2.1-1.9,0-1.6,1.5-2.5,4.1-2.5h0c0-.7-.2-1.7-1.5-1.7-.6,0-1.3.2-1.8.5l-.3-.8c.6-.3,1.4-.6,2.2-.6,2.1,0,2.6,1.4,2.6,2.8v2.5ZM184.3,471.3c-1.3,0-2.9.2-2.9,1.5s.5,1.2,1.1,1.2c.9,0,1.5-.6,1.7-1.1,0-.1,0-.3,0-.4v-1.2Z"/>
      <path d="M187.5,464.8h1.2v9.9h-1.2v-9.9Z"/>
      <path d="M192.2,466c0,.4-.3.8-.8.8s-.7-.3-.7-.8.3-.8.8-.8.8.3.8.8ZM190.8,474.7v-6.8h1.2v6.8h-1.2Z"/>
      <path d="M195.5,466.3v1.6h1.8v.9h-1.8v3.7c0,.8.2,1.3.9,1.3s.5,0,.7,0v.9c-.2,0-.6.2-1,.2s-1-.2-1.3-.5c-.3-.4-.5-1-.5-1.8v-3.7h-1.1v-.9h1.1v-1.3l1.2-.4Z"/>
      <path d="M199.3,467.9l1.5,4c.2.4.3,1,.4,1.4h0c.1-.4.3-.9.4-1.4l1.3-4h1.3l-1.8,4.8c-.9,2.3-1.5,3.5-2.3,4.2-.6.5-1.2.7-1.5.8l-.3-1c.3,0,.7-.3,1.1-.6.3-.3.7-.7,1-1.4,0-.1,0-.2,0-.3s0-.2,0-.3l-2.5-6.2h1.3Z"/>
      <path d="M213.2,474.5c-.3.2-1,.4-1.9.4-2,0-3.4-1.4-3.4-3.5s1.4-3.6,3.6-3.6,1.4.2,1.7.4l-.3.9c-.3-.2-.8-.3-1.4-.3-1.6,0-2.4,1.2-2.4,2.6s1,2.5,2.4,2.5,1.2-.2,1.5-.3l.2.9Z"/>
      <path d="M220.7,471.3c0,2.5-1.8,3.6-3.4,3.6s-3.2-1.3-3.2-3.5,1.5-3.6,3.4-3.6,3.3,1.4,3.3,3.5ZM215.3,471.3c0,1.5.8,2.6,2,2.6s2.1-1.1,2.1-2.6-.6-2.6-2-2.6-2.1,1.3-2.1,2.6Z"/>
      <path d="M222.3,469.8c0-.7,0-1.3,0-1.8h1.1v1.1h0c.3-.6,1.1-1.3,2.2-1.3s2.4.6,2.4,2.9v4h-1.2v-3.9c0-1.1-.4-2-1.6-2s-1.4.6-1.7,1.3c0,.2,0,.4,0,.6v4.1h-1.2v-4.9Z"/>
    </g>
    <path d="M230.1,474.7v-5.8h-.9v-.9h.9v-.4c0-1.8,1.1-2.9,3-2.9s1.4.2,1.7.4l-.4.9c-.3-.2-.8-.4-1.4-.4-1.3,0-1.7.9-1.7,2v.3h3.9v6.8h-1.2v-5.8h-2.7v5.8h-1.2Z"/>
    <g>
      <path d="M243.2,464.8v8.2c0,.6,0,1.3,0,1.8h-1.1v-1.2h0c-.4.8-1.2,1.3-2.3,1.3-1.6,0-2.9-1.4-2.9-3.4,0-2.3,1.4-3.6,3-3.6s1.7.5,2,1h0v-4h1.2ZM242,470.7c0-.2,0-.4,0-.5-.2-.8-.9-1.4-1.8-1.4s-2,1.1-2,2.6.7,2.5,2,2.5,1.6-.6,1.8-1.5c0-.2,0-.3,0-.5v-1.2Z"/>
      <path d="M245.9,471.6c0,1.7,1.1,2.4,2.3,2.4s1.4-.2,1.9-.4l.2.9c-.4.2-1.2.4-2.3.4-2.1,0-3.3-1.4-3.3-3.4s1.2-3.6,3.2-3.6,2.8,1.9,2.8,3.2,0,.4,0,.6h-4.8ZM249.5,470.7c0-.8-.3-2-1.7-2s-1.8,1.1-1.9,2h3.6Z"/>
      <path d="M252.3,469.8c0-.7,0-1.3,0-1.8h1.1v1.1h0c.3-.6,1.1-1.3,2.2-1.3s2.4.6,2.4,2.9v4h-1.2v-3.9c0-1.1-.4-2-1.6-2s-1.4.6-1.7,1.3c0,.2,0,.4,0,.6v4.1h-1.2v-4.9Z"/>
      <path d="M264.9,474.5c-.3.2-1,.4-1.9.4-2,0-3.4-1.4-3.4-3.5s1.4-3.6,3.6-3.6,1.4.2,1.7.4l-.3.9c-.3-.2-.8-.3-1.4-.3-1.6,0-2.4,1.2-2.4,2.6s1,2.5,2.4,2.5,1.2-.2,1.5-.3l.2.9Z"/>
      <path d="M266.9,471.6c0,1.7,1.1,2.4,2.3,2.4s1.4-.2,1.9-.4l.2.9c-.4.2-1.2.4-2.3.4-2.1,0-3.3-1.4-3.3-3.4s1.2-3.6,3.2-3.6,2.8,1.9,2.8,3.2,0,.4,0,.6h-4.8ZM270.5,470.7c0-.8-.3-2-1.7-2s-1.8,1.1-1.9,2h3.6Z"/>
    </g>
    <g>
      <path class="st8" d="M471.6,452.4h0c-.4.7-1.1,1.2-2.2,1.2-1.6,0-2.9-1.4-2.9-3.4s1.6-3.7,3.1-3.7,1.8.5,2.1,1.2h0v-1h1.2c0,.6,0,1.2,0,1.9v7.7h-1.2v-3.8ZM471.6,449.4c0-.2,0-.4,0-.5-.2-.8-.8-1.4-1.8-1.4s-2,1.1-2,2.6.6,2.5,2,2.5,1.5-.5,1.8-1.3c0-.2,0-.4,0-.6v-1.3Z"/>
      <path class="st8" d="M480.6,451.6c0,.7,0,1.3,0,1.9h-1.1v-1.1h0c-.3.5-1,1.3-2.2,1.3s-2.3-.6-2.3-3v-4h1.2v3.7c0,1.3.4,2.2,1.5,2.2s1.4-.6,1.6-1.1c0-.2.1-.4.1-.6v-4.1h1.2v4.9Z"/>
      <path class="st8" d="M487.4,451.8c0,.6,0,1.2,0,1.6h-1.1v-.9h-.1c-.4.5-1.1,1-2.1,1-1.4,0-2.1-1-2.1-1.9,0-1.6,1.5-2.5,4.1-2.5h0c0-.7-.2-1.7-1.5-1.7-.6,0-1.3.2-1.8.5l-.3-.8c.6-.3,1.4-.6,2.2-.6,2.1,0,2.6,1.4,2.6,2.8v2.5ZM486.2,450c-1.3,0-2.9.2-2.9,1.5s.5,1.2,1.1,1.2c.9,0,1.5-.6,1.7-1.1,0-.1,0-.3,0-.4v-1.2Z"/>
      <path class="st8" d="M489.4,443.5h1.2v9.9h-1.2v-9.9Z"/>
      <path class="st8" d="M494,444.8c0,.4-.3.8-.8.8s-.7-.3-.7-.8.3-.8.8-.8.8.3.8.8ZM492.7,453.5v-6.8h1.2v6.8h-1.2Z"/>
      <path class="st8" d="M497.4,445.1v1.6h1.8v.9h-1.8v3.7c0,.8.2,1.3.9,1.3s.5,0,.7,0v.9c-.2,0-.6.2-1,.2s-1-.2-1.3-.5c-.3-.4-.5-1-.5-1.8v-3.7h-1.1v-.9h1.1v-1.3l1.2-.4Z"/>
      <path class="st8" d="M501.1,446.7l1.5,4c.2.4.3,1,.4,1.4h0c.1-.4.3-.9.4-1.4l1.3-4h1.3l-1.8,4.8c-.9,2.3-1.5,3.5-2.3,4.2-.6.5-1.2.7-1.5.8l-.3-1c.3,0,.7-.3,1.1-.6.3-.3.7-.7,1-1.4,0-.1,0-.2,0-.3s0-.2,0-.3l-2.5-6.2h1.3Z"/>
      <path class="st8" d="M510.2,448.8c0-.8,0-1.5,0-2.1h1.1v1.3h0c.3-.9,1.1-1.5,1.9-1.5s.2,0,.3,0v1.2c-.1,0-.3,0-.4,0-.9,0-1.5.6-1.7,1.6,0,.2,0,.4,0,.6v3.6h-1.2v-4.7Z"/>
      <path class="st8" d="M516.2,444.8c0,.4-.3.8-.8.8s-.7-.3-.7-.8.3-.8.8-.8.8.3.8.8ZM514.9,453.5v-6.8h1.2v6.8h-1.2Z"/>
      <path class="st8" d="M518,452.2c.4.2,1,.5,1.6.5.9,0,1.3-.4,1.3-1s-.3-.9-1.2-1.2c-1.2-.4-1.8-1.1-1.8-1.9s.9-2,2.3-2,1.3.2,1.7.4l-.3.9c-.3-.2-.8-.4-1.4-.4s-1.1.4-1.1.9.4.8,1.3,1.2c1.2.4,1.8,1,1.8,2s-.9,2-2.5,2-1.4-.2-1.9-.5l.3-.9Z"/>
      <path class="st8" d="M524.9,449.8h0c.2-.2.4-.5.6-.8l2-2.3h1.5l-2.6,2.8,3,4h-1.5l-2.3-3.2-.6.7v2.5h-1.2v-9.9h1.2v6.3Z"/>
    </g>
    <polygon class="st5" points="158.7 76.6 158.7 29.9 533.5 76.6 158.7 76.6"/>
    <polygon class="st15" points="533.5 29.9 533.5 76.6 158.7 29.9 533.5 29.9"/>
    <g>
      <path d="M169.9,57.3v4h4.6v-4h1.2v9.4h-1.2v-4.4h-4.6v4.4h-1.2v-9.4h1.2Z"/>
      <path d="M179,57.3v5.6c0,2.1.9,3,2.2,3s2.3-.9,2.3-3v-5.6h1.2v5.5c0,2.9-1.5,4.1-3.6,4.1s-3.4-1.1-3.4-4v-5.6h1.2Z"/>
      <path d="M194.8,62.6c0-1.3-.2-2.9-.2-4.1h0c-.3,1.1-.7,2.3-1.2,3.6l-1.7,4.6h-.9l-1.5-4.5c-.4-1.3-.8-2.5-1.1-3.7h0c0,1.2,0,2.7-.2,4.2l-.3,4h-1.2l.7-9.4h1.6l1.6,4.6c.4,1.2.7,2.2,1,3.2h0c.3-1,.6-2,1-3.2l1.7-4.6h1.6l.6,9.4h-1.2l-.2-4.1Z"/>
      <path d="M199.5,63.7l-1,3h-1.3l3.2-9.4h1.5l3.2,9.4h-1.3l-1-3h-3.3ZM202.6,62.8l-.9-2.7c-.2-.6-.4-1.2-.5-1.7h0c-.1.5-.3,1.1-.5,1.7l-.9,2.7h2.9Z"/>
      <path d="M206.6,66.7v-9.4h1.3l3,4.8c.7,1.1,1.2,2.1,1.7,3.1h0c-.1-1.3-.1-2.4-.1-3.9v-4h1.1v9.4h-1.2l-3-4.8c-.7-1-1.3-2.1-1.8-3.2h0c0,1.2,0,2.3,0,3.9v4h-1.1Z"/>
    </g>
    <g>
      <path class="st8" d="M471.6,43.9l-1,3h-1.3l3.2-9.4h1.5l3.2,9.4h-1.3l-1-3h-3.3ZM474.7,42.9l-.9-2.7c-.2-.6-.4-1.2-.5-1.7h0c-.1.5-.3,1.1-.5,1.7l-.9,2.7h2.9Z"/>
      <path class="st8" d="M479.9,37.4v9.4h-1.2v-9.4h1.2Z"/>
      <path class="st8" d="M486.5,43.9l-1,3h-1.3l3.2-9.4h1.5l3.2,9.4h-1.3l-1-3h-3.3ZM489.6,42.9l-.9-2.7c-.2-.6-.4-1.2-.5-1.7h0c-.1.5-.3,1.1-.5,1.7l-.9,2.7h2.9Z"/>
      <path class="st8" d="M500.5,46.4c-.5.2-1.6.5-2.9.5s-2.6-.4-3.5-1.2c-.8-.8-1.3-2-1.3-3.5,0-2.8,1.9-4.9,5.1-4.9s2,.2,2.4.4l-.3,1c-.5-.2-1.1-.4-2.1-.4-2.3,0-3.8,1.4-3.8,3.8s1.4,3.8,3.6,3.8,1.3-.1,1.6-.3v-2.8h-1.9v-1h3.1v4.5Z"/>
      <path class="st8" d="M507.2,42.4h-3.7v3.4h4.1v1h-5.3v-9.4h5.1v1h-3.9v3h3.7v1Z"/>
      <path class="st8" d="M509.2,46.9v-9.4h1.3l3,4.8c.7,1.1,1.2,2.1,1.7,3.1h0c-.1-1.3-.1-2.4-.1-3.9v-4h1.1v9.4h-1.2l-3-4.8c-.7-1-1.3-2.1-1.8-3.2h0c0,1.2,0,2.3,0,3.9v4h-1.1Z"/>
      <path class="st8" d="M520.3,38.5h-2.9v-1h7v1h-2.9v8.4h-1.2v-8.4Z"/>
    </g>
    <polygon class="st5" points="159.3 379.5 159.3 332.8 534.1 379.5 159.3 379.5"/>
    <polygon class="st15" points="534.1 332.8 534.1 379.5 159.3 332.8 534.1 332.8"/>
    <g>
      <path d="M172.1,369.4c-.3.2-1,.4-1.9.4-2,0-3.4-1.4-3.4-3.5s1.4-3.6,3.6-3.6,1.4.2,1.7.4l-.3.9c-.3-.2-.8-.3-1.4-.3-1.6,0-2.4,1.2-2.4,2.6s1,2.5,2.4,2.5,1.2-.2,1.5-.3l.2.9Z"/>
      <path d="M179.6,366.2c0,2.5-1.8,3.6-3.4,3.6s-3.2-1.3-3.2-3.5,1.5-3.6,3.4-3.6,3.3,1.4,3.3,3.5ZM174.2,366.2c0,1.5.8,2.6,2,2.6s2.1-1.1,2.1-2.6-.6-2.6-2-2.6-2.1,1.3-2.1,2.6Z"/>
      <path d="M181.1,364.7c0-.7,0-1.3,0-1.8h1.1v1.1h0c.3-.6,1.1-1.3,2.2-1.3s2.4.6,2.4,2.9v4h-1.2v-3.9c0-1.1-.4-2-1.6-2s-1.4.6-1.7,1.3c0,.2,0,.4,0,.6v4.1h-1.2v-4.9Z"/>
      <path d="M190.4,361.2v1.6h1.8v.9h-1.8v3.7c0,.8.2,1.3.9,1.3s.5,0,.7,0v.9c-.2,0-.6.2-1,.2s-1-.2-1.3-.5c-.3-.4-.5-1-.5-1.8v-3.7h-1.1v-.9h1.1v-1.3l1.2-.4Z"/>
      <path d="M193.5,364.9c0-.8,0-1.5,0-2.1h1.1v1.3h0c.3-.9,1.1-1.5,1.9-1.5s.2,0,.3,0v1.2c-.1,0-.3,0-.4,0-.9,0-1.5.6-1.7,1.6,0,.2,0,.4,0,.6v3.6h-1.2v-4.7Z"/>
      <path d="M204.1,366.2c0,2.5-1.8,3.6-3.4,3.6s-3.2-1.3-3.2-3.5,1.5-3.6,3.4-3.6,3.3,1.4,3.3,3.5ZM198.7,366.2c0,1.5.8,2.6,2,2.6s2.1-1.1,2.1-2.6-.6-2.6-2-2.6-2.1,1.3-2.1,2.6Z"/>
      <path d="M205.6,359.7h1.2v9.9h-1.2v-9.9Z"/>
      <path d="M216.7,368c0,.6,0,1.2,0,1.6h-1.1v-.9h-.1c-.4.5-1.1,1-2.1,1-1.4,0-2.1-1-2.1-1.9,0-1.6,1.5-2.5,4.1-2.5h0c0-.7-.2-1.7-1.5-1.7-.6,0-1.3.2-1.8.5l-.3-.8c.6-.4,1.4-.6,2.2-.6,2.1,0,2.6,1.4,2.6,2.8v2.5ZM215.5,366.1c-1.3,0-2.9.2-2.9,1.5s.5,1.2,1.1,1.2c.9,0,1.5-.6,1.7-1.1,0-.1,0-.3,0-.4v-1.2Z"/>
      <path d="M224.3,367.7c0,.7,0,1.3,0,1.9h-1.1v-1.1h0c-.3.5-1,1.3-2.2,1.3s-2.3-.6-2.3-3v-4h1.2v3.7c0,1.3.4,2.2,1.5,2.2s1.4-.6,1.6-1.1c0-.2.1-.4.1-.6v-4.1h1.2v4.9Z"/>
      <path d="M227.9,361.2v1.6h1.8v.9h-1.8v3.7c0,.8.2,1.3.9,1.3s.5,0,.7,0v.9c-.2,0-.6.2-1,.2s-1-.2-1.3-.5c-.3-.4-.5-1-.5-1.8v-3.7h-1.1v-.9h1.1v-1.3l1.2-.4Z"/>
      <path d="M231,359.7h1.2v4.2h0c.2-.3.5-.7.9-.9.4-.2.8-.3,1.3-.3.9,0,2.4.6,2.4,2.9v4h-1.2v-3.9c0-1.1-.4-2-1.6-2s-1.4.6-1.7,1.2c0,.2,0,.4,0,.6v4.1h-1.2v-9.9Z"/>
      <path d="M244.9,366.2c0,2.5-1.8,3.6-3.4,3.6s-3.2-1.3-3.2-3.5,1.5-3.6,3.4-3.6,3.3,1.4,3.3,3.5ZM239.6,366.2c0,1.5.8,2.6,2,2.6s2.1-1.1,2.1-2.6-.6-2.6-2-2.6-2.1,1.3-2.1,2.6Z"/>
      <path d="M246.5,364.9c0-.8,0-1.5,0-2.1h1.1v1.3h0c.3-.9,1.1-1.5,1.9-1.5s.2,0,.3,0v1.2c-.1,0-.3,0-.4,0-.9,0-1.5.6-1.7,1.6,0,.2,0,.4,0,.6v3.6h-1.2v-4.7Z"/>
      <path d="M252.5,360.9c0,.4-.3.8-.8.8s-.7-.3-.7-.8.3-.8.8-.8.8.3.8.8ZM251.1,369.6v-6.8h1.2v6.8h-1.2Z"/>
      <path d="M255.9,361.2v1.6h1.8v.9h-1.8v3.7c0,.8.2,1.3.9,1.3s.5,0,.7,0v.9c-.2,0-.6.2-1,.2s-1-.2-1.3-.5c-.3-.4-.5-1-.5-1.8v-3.7h-1.1v-.9h1.1v-1.3l1.2-.4Z"/>
      <path d="M259.6,362.8l1.5,4c.2.4.3,1,.4,1.4h0c.1-.4.3-.9.4-1.4l1.3-4h1.3l-1.8,4.8c-.9,2.3-1.5,3.5-2.3,4.2-.6.5-1.2.7-1.5.8l-.3-1c.3,0,.7-.3,1.1-.6.3-.3.7-.7,1-1.4,0-.1,0-.2,0-.3s0-.2,0-.3l-2.5-6.2h1.3Z"/>
    </g>
    <g>
      <path class="st8" d="M473.9,338.3v8.2c0,.6,0,1.3,0,1.8h-1.1v-1.2h0c-.4.8-1.2,1.3-2.3,1.3-1.6,0-2.9-1.4-2.9-3.4,0-2.3,1.4-3.6,3-3.6s1.7.5,2,1h0v-4h1.2ZM472.7,344.3c0-.2,0-.4,0-.5-.2-.8-.9-1.4-1.8-1.4s-2,1.1-2,2.6.7,2.5,2,2.5,1.6-.6,1.8-1.5c0-.2,0-.3,0-.5v-1.2Z"/>
      <path class="st8" d="M476.6,345.1c0,1.7,1.1,2.4,2.3,2.4s1.4-.2,1.9-.3l.2.9c-.4.2-1.2.4-2.3.4-2.1,0-3.3-1.4-3.3-3.4s1.2-3.6,3.2-3.6,2.8,1.9,2.8,3.2,0,.4,0,.6h-4.8ZM480.2,344.2c0-.8-.3-2-1.7-2s-1.8,1.1-1.9,2h3.6Z"/>
      <path class="st8" d="M482.9,338.3h1.2v9.9h-1.2v-9.9Z"/>
      <path class="st8" d="M486.9,345.1c0,1.7,1.1,2.4,2.3,2.4s1.4-.2,1.9-.3l.2.9c-.4.2-1.2.4-2.3.4-2.1,0-3.3-1.4-3.3-3.4s1.2-3.6,3.2-3.6,2.8,1.9,2.8,3.2,0,.4,0,.6h-4.8ZM490.6,344.2c0-.8-.3-2-1.7-2s-1.8,1.1-1.9,2h3.6Z"/>
      <path class="st8" d="M499.1,347.3c0,1.6-.3,2.5-1,3.1-.7.6-1.6.8-2.5.8s-1.7-.2-2.3-.6l.3-1c.4.3,1.1.5,2,.5,1.3,0,2.2-.7,2.2-2.4v-.7h0c-.4.6-1.1,1.1-2.2,1.1-1.7,0-2.9-1.4-2.9-3.3s1.5-3.6,3.1-3.6,1.8.6,2.1,1.2h0v-1h1.1c0,.5,0,1,0,1.8v3.9ZM497.8,344.2c0-.2,0-.4,0-.5-.2-.7-.8-1.3-1.7-1.3s-2,1-2,2.6.7,2.4,2,2.4,1.5-.5,1.7-1.3c0-.2,0-.4,0-.7v-1.2Z"/>
      <path class="st8" d="M505.9,346.7c0,.6,0,1.2,0,1.6h-1.1v-.9h-.1c-.4.5-1.1,1-2.1,1-1.4,0-2.1-1-2.1-1.9,0-1.6,1.5-2.5,4.1-2.5h0c0-.7-.2-1.7-1.5-1.7-.6,0-1.3.2-1.8.5l-.3-.8c.6-.4,1.4-.6,2.2-.6,2.1,0,2.6,1.4,2.6,2.8v2.5ZM504.7,344.8c-1.3,0-2.9.2-2.9,1.5s.5,1.2,1.1,1.2c.9,0,1.5-.6,1.7-1.1,0-.1,0-.3,0-.4v-1.2Z"/>
      <path class="st8" d="M509.3,339.9v1.6h1.8v.9h-1.8v3.7c0,.8.2,1.3.9,1.3s.5,0,.7,0v.9c-.2,0-.6.2-1,.2s-1-.2-1.3-.5c-.3-.4-.5-1-.5-1.8v-3.7h-1.1v-.9h1.1v-1.3l1.2-.4Z"/>
      <path class="st8" d="M513.8,339.6c0,.4-.3.8-.8.8s-.7-.3-.7-.8.3-.8.8-.8.8.3.8.8ZM512.4,348.3v-6.8h1.2v6.8h-1.2Z"/>
      <path class="st8" d="M521.8,344.8c0,2.5-1.8,3.6-3.4,3.6s-3.2-1.3-3.2-3.5,1.5-3.6,3.4-3.6,3.3,1.4,3.3,3.5ZM516.5,344.9c0,1.5.8,2.6,2,2.6s2.1-1.1,2.1-2.6-.6-2.6-2-2.6-2.1,1.3-2.1,2.6Z"/>
      <path class="st8" d="M523.4,343.3c0-.7,0-1.3,0-1.8h1.1v1.1h0c.3-.6,1.1-1.3,2.2-1.3s2.4.6,2.4,2.9v4h-1.2v-3.9c0-1.1-.4-2-1.6-2s-1.4.6-1.7,1.3c0,.2,0,.4,0,.6v4.1h-1.2v-4.9Z"/>
    </g>
    <g>
      <path class="st3" d="M169.3,128.3c0-.9,0-1.6,0-2.2h1.8v.9h.1c.3-.4.9-1.1,2.1-1.1s1.6.5,1.9,1.2h0c.3-.4.6-.6.9-.8.4-.2.8-.3,1.3-.3,1.3,0,2.3.9,2.3,3v4h-2.1v-3.7c0-1-.3-1.6-1-1.6s-.8.3-1,.7c0,.2,0,.4,0,.5v4h-2.1v-3.9c0-.9-.3-1.4-1-1.4s-.9.4-1,.8c0,.2,0,.4,0,.5v4h-2.1v-4.7Z"/>
      <path class="st3" d="M187,131.3c0,.6,0,1.3.1,1.7h-1.9v-.7h-.2c-.4.5-1.1.8-2,.8-1.4,0-2.2-1-2.2-2.1,0-1.8,1.6-2.6,4-2.6h0c0-.5-.2-1-1.2-1s-1.4.2-1.9.5l-.4-1.4c.5-.3,1.4-.6,2.7-.6,2.3,0,3,1.3,3,3v2.4ZM185,129.7c-1.1,0-2,.3-2,1.1s.4.8.8.8,1-.4,1.1-.8c0-.1,0-.2,0-.4v-.7Z"/>
      <path class="st3" d="M188.7,128.3c0-.9,0-1.6,0-2.2h1.8v1h.1c.3-.4,1-1.1,2.1-1.1s2.5.9,2.5,3v4h-2.1v-3.8c0-.9-.3-1.5-1.1-1.5s-.9.4-1.1.8c0,.1,0,.3,0,.5v4h-2.1v-4.7Z"/>
      <path class="st3" d="M203.4,130.7c0,.9,0,1.6,0,2.2h-1.8v-1h-.1c-.3.4-.9,1.1-2.1,1.1s-2.4-.9-2.4-3v-4h2.1v3.7c0,1,.3,1.6,1.1,1.6s.9-.4,1.1-.7c0-.1,0-.3,0-.5v-4.1h2.1v4.7Z"/>
      <path class="st3" d="M210.8,131.3c0,.6,0,1.3.1,1.7h-1.9v-.7h-.2c-.4.5-1.1.8-2,.8-1.4,0-2.2-1-2.2-2.1,0-1.8,1.6-2.6,4-2.6h0c0-.5-.2-1-1.2-1s-1.4.2-1.9.5l-.4-1.4c.5-.3,1.4-.6,2.7-.6,2.3,0,3,1.3,3,3v2.4ZM208.7,129.7c-1.1,0-2,.3-2,1.1s.4.8.8.8,1-.4,1.1-.8c0-.1,0-.2,0-.4v-.7Z"/>
      <path class="st3" d="M212.5,123h2.1v9.9h-2.1v-9.9Z"/>
      <path class="st3" d="M216.3,123h2.1v9.9h-2.1v-9.9Z"/>
      <path class="st3" d="M221.8,126.1l1,3.4c.1.4.3.9.3,1.3h0c0-.4.2-.9.3-1.3l.9-3.4h2.3l-1.6,4.5c-1,2.7-1.6,3.8-2.4,4.5-.7.6-1.5.9-2,.9l-.5-1.8c.3,0,.6-.2.9-.4.3-.2.7-.5.9-.9,0-.1.1-.2.1-.3s0-.2,0-.3l-2.5-6.3h2.4Z"/>
    </g>
    <g>
      <path class="st3" d="M467.8,131.3c0,.6,0,1.3.1,1.7h-1.9v-.7h-.2c-.4.5-1.1.8-2,.8-1.4,0-2.2-1-2.2-2.1,0-1.8,1.6-2.6,4-2.6h0c0-.5-.2-1-1.2-1s-1.4.2-1.9.5l-.4-1.4c.5-.3,1.4-.6,2.7-.6,2.3,0,3,1.3,3,3v2.4ZM465.8,129.7c-1.1,0-2,.3-2,1.1s.4.8.8.8,1-.4,1.1-.8c0-.1,0-.2,0-.4v-.7Z"/>
      <path class="st3" d="M475.2,130.7c0,.9,0,1.6,0,2.2h-1.8v-1h-.1c-.3.4-.9,1.1-2.1,1.1s-2.4-.9-2.4-3v-4h2.1v3.7c0,1,.3,1.6,1.1,1.6s.9-.4,1.1-.7c0-.1,0-.3,0-.5v-4.1h2.1v4.7Z"/>
      <path class="st3" d="M478.6,124.2v1.8h1.5v1.6h-1.5v2.5c0,.8.2,1.2.8,1.2s.4,0,.6,0v1.6c-.3,0-.8.2-1.4.2s-1.3-.2-1.6-.6c-.4-.4-.6-1.1-.6-2v-2.8h-.9v-1.6h.9v-1.3l2.1-.6Z"/>
      <path class="st3" d="M487.3,129.4c0,2.5-1.8,3.7-3.6,3.7s-3.5-1.3-3.5-3.5,1.5-3.6,3.7-3.6,3.5,1.4,3.5,3.5ZM482.3,129.5c0,1.2.5,2.1,1.4,2.1s1.4-.8,1.4-2.1-.4-2-1.4-2-1.4,1.1-1.4,2.1Z"/>
      <path class="st3" d="M487.9,128.3c0-.9,0-1.6,0-2.2h1.8v1h.1c.3-.4,1-1.1,2.1-1.1s2.5.9,2.5,3v4h-2.1v-3.8c0-.9-.3-1.5-1.1-1.5s-.9.4-1.1.8c0,.1,0,.3,0,.5v4h-2.1v-4.7Z"/>
      <path class="st3" d="M502.1,129.4c0,2.5-1.8,3.7-3.6,3.7s-3.5-1.3-3.5-3.5,1.5-3.6,3.7-3.6,3.5,1.4,3.5,3.5ZM497.1,129.5c0,1.2.5,2.1,1.4,2.1s1.4-.8,1.4-2.1-.4-2-1.4-2-1.4,1.1-1.4,2.1Z"/>
      <path class="st3" d="M502.7,128.3c0-.9,0-1.6,0-2.2h1.8v.9h.1c.3-.4.9-1.1,2.1-1.1s1.6.5,1.9,1.2h0c.3-.4.6-.6.9-.8.4-.2.8-.3,1.3-.3,1.3,0,2.3.9,2.3,3v4h-2.1v-3.7c0-1-.3-1.6-1-1.6s-.8.3-1,.7c0,.2,0,.4,0,.5v4h-2.1v-3.9c0-.9-.3-1.4-1-1.4s-.9.4-1,.8c0,.2,0,.4,0,.5v4h-2.1v-4.7Z"/>
      <path class="st3" d="M520.7,129.4c0,2.5-1.8,3.7-3.6,3.7s-3.5-1.3-3.5-3.5,1.5-3.6,3.7-3.6,3.5,1.4,3.5,3.5ZM515.8,129.5c0,1.2.5,2.1,1.4,2.1s1.4-.8,1.4-2.1-.4-2-1.4-2-1.4,1.1-1.4,2.1Z"/>
      <path class="st3" d="M527.8,130.7c0,.9,0,1.6,0,2.2h-1.8v-1h-.1c-.3.4-.9,1.1-2.1,1.1s-2.4-.9-2.4-3v-4h2.1v3.7c0,1,.3,1.6,1.1,1.6s.9-.4,1.1-.7c0-.1,0-.3,0-.5v-4.1h2.1v4.7Z"/>
      <path class="st3" d="M528.7,131.1c.4.2,1.2.5,1.8.5s.9-.2.9-.6-.2-.5-1-.8c-1.4-.5-2-1.2-2-2.1,0-1.3,1.1-2.3,2.8-2.3s1.5.2,1.9.4l-.4,1.5c-.3-.2-.9-.4-1.5-.4s-.8.2-.8.5.3.5,1.1.8c1.3.4,1.8,1.1,1.8,2.1,0,1.3-1,2.2-3,2.2s-1.7-.2-2.2-.5l.4-1.5Z"/>
    </g>
    <g>
      <path class="st3" d="M398.6,123v7.9c0,.8,0,1.6,0,2h-1.9v-1h-.1c-.4.8-1.3,1.1-2.1,1.1-1.6,0-2.9-1.4-2.9-3.5,0-2.3,1.4-3.7,3.1-3.7s1.5.3,1.8.8h0v-3.7h2.1ZM396.4,129c0-.1,0-.3,0-.4-.1-.6-.6-1-1.2-1-1,0-1.5.9-1.5,1.9s.6,1.9,1.5,1.9,1.1-.4,1.2-1c0-.2,0-.3,0-.5v-.9Z"/>
      <path class="st3" d="M401.9,130.2c0,.9.9,1.3,1.9,1.3s1.3,0,1.9-.3l.3,1.4c-.7.3-1.6.4-2.5.4-2.3,0-3.7-1.3-3.7-3.5s1.1-3.7,3.5-3.7,3.1,1.7,3.1,3.4,0,.7,0,.8h-4.4ZM404.4,128.7c0-.5-.2-1.4-1.2-1.4s-1.3.8-1.3,1.4h2.5Z"/>
      <path class="st3" d="M407.7,123h2.1v9.9h-2.1v-9.9Z"/>
      <path class="st3" d="M413.2,130.2c0,.9.9,1.3,1.9,1.3s1.3,0,1.9-.3l.3,1.4c-.7.3-1.6.4-2.5.4-2.3,0-3.7-1.3-3.7-3.5s1.1-3.7,3.5-3.7,3.1,1.7,3.1,3.4,0,.7,0,.8h-4.4ZM415.7,128.7c0-.5-.2-1.4-1.2-1.4s-1.3.8-1.3,1.4h2.5Z"/>
      <path class="st3" d="M425.4,131.9c0,1.3-.3,2.4-1.1,3.1-.7.6-1.8.8-2.8.8s-1.8-.2-2.5-.5l.4-1.6c.4.3,1.2.5,2,.5s1.8-.5,1.8-1.8v-.4h0c-.4.6-1.1.9-1.8.9-1.7,0-2.9-1.4-2.9-3.3s1.4-3.6,3.1-3.6,1.5.4,1.9,1h0v-.8h1.9c0,.4,0,1,0,2v3.8ZM423.3,128.9c0-.1,0-.3,0-.4-.2-.6-.6-.9-1.1-.9s-1.4.7-1.4,1.9.5,1.8,1.4,1.8,1-.4,1.1-.9c0-.2,0-.4,0-.6v-1Z"/>
      <path class="st3" d="M432.8,131.3c0,.6,0,1.3.1,1.7h-1.9v-.7h-.2c-.4.5-1.1.8-2,.8-1.4,0-2.2-1-2.2-2.1,0-1.8,1.6-2.6,4-2.6h0c0-.5-.2-1-1.2-1s-1.4.2-1.9.5l-.4-1.4c.5-.3,1.4-.6,2.7-.6,2.3,0,3,1.3,3,3v2.4ZM430.7,129.7c-1.1,0-2,.3-2,1.1s.4.8.8.8,1-.4,1.1-.8c0-.1,0-.2,0-.4v-.7Z"/>
      <path class="st3" d="M436.8,124.2v1.8h1.5v1.6h-1.5v2.5c0,.8.2,1.2.8,1.2s.4,0,.6,0v1.6c-.3,0-.8.2-1.4.2s-1.3-.2-1.6-.6c-.4-.4-.6-1.1-.6-2v-2.8h-.9v-1.6h.9v-1.3l2.1-.6Z"/>
      <path class="st3" d="M441.1,130.2c0,.9.9,1.3,1.9,1.3s1.3,0,1.9-.3l.3,1.4c-.7.3-1.6.4-2.5.4-2.3,0-3.7-1.3-3.7-3.5s1.1-3.7,3.5-3.7,3.1,1.7,3.1,3.4,0,.7,0,.8h-4.4ZM443.6,128.7c0-.5-.2-1.4-1.2-1.4s-1.3.8-1.3,1.4h2.5Z"/>
      <path class="st3" d="M453.5,123v7.9c0,.8,0,1.6,0,2h-1.9v-1h-.1c-.4.8-1.3,1.1-2.1,1.1-1.6,0-2.9-1.4-2.9-3.5,0-2.3,1.4-3.7,3.1-3.7s1.5.3,1.8.8h0v-3.7h2.1ZM451.4,129c0-.1,0-.3,0-.4-.1-.6-.6-1-1.2-1-1,0-1.5.9-1.5,1.9s.6,1.9,1.5,1.9,1.1-.4,1.2-1c0-.2,0-.3,0-.5v-.9Z"/>
    </g>
    <g>
      <path class="st3" d="M313,131.1c.4.2,1.2.5,1.8.5s.9-.2.9-.6-.2-.5-1-.8c-1.4-.5-2-1.2-2-2.1,0-1.3,1.1-2.3,2.8-2.3s1.5.2,1.9.4l-.4,1.5c-.3-.2-.9-.4-1.5-.4s-.8.2-.8.5.3.5,1.1.8c1.3.4,1.8,1.1,1.8,2.1,0,1.3-1,2.2-3,2.2s-1.7-.2-2.2-.5l.4-1.5Z"/>
      <path class="st3" d="M325.6,130.7c0,.9,0,1.6,0,2.2h-1.8v-1h-.1c-.3.4-.9,1.1-2.1,1.1s-2.4-.9-2.4-3v-4h2.1v3.7c0,1,.3,1.6,1.1,1.6s.9-.4,1.1-.7c0-.1,0-.3,0-.5v-4.1h2.1v4.7Z"/>
      <path class="st3" d="M327.3,128.4c0-.9,0-1.7,0-2.3h1.8v1h.1c.5-.7,1.3-1.1,2.3-1.1,1.5,0,2.8,1.3,2.8,3.5s-1.6,3.7-3.1,3.7-1.5-.3-1.8-.8h0v3.4h-2.1v-7.3ZM329.4,130c0,.2,0,.3,0,.4.1.6.6,1,1.2,1,.9,0,1.5-.8,1.5-1.9s-.5-1.9-1.4-1.9-1.1.4-1.3,1.1c0,.1,0,.3,0,.4v.9Z"/>
      <path class="st3" d="M337.3,130.2c0,.9.9,1.3,1.9,1.3s1.3,0,1.9-.3l.3,1.4c-.7.3-1.6.4-2.5.4-2.3,0-3.7-1.3-3.7-3.5s1.1-3.7,3.5-3.7,3.1,1.7,3.1,3.4,0,.7,0,.8h-4.4ZM339.8,128.7c0-.5-.2-1.4-1.2-1.4s-1.3.8-1.3,1.4h2.5Z"/>
      <path class="st3" d="M343.1,128.3c0-1,0-1.7,0-2.3h1.8v1.3h.1c.3-1,1.2-1.4,1.8-1.4s.3,0,.4,0v2c-.2,0-.3,0-.6,0-.8,0-1.3.4-1.5,1.1,0,.1,0,.3,0,.5v3.5h-2.1v-4.6Z"/>
      <path class="st3" d="M350.2,126.1l.9,3.2c.2.6.3,1.1.4,1.7h0c.1-.6.2-1.1.4-1.7l.9-3.2h2.2l-2.5,6.8h-2.1l-2.5-6.8h2.3Z"/>
      <path class="st3" d="M358.3,124.2c0,.6-.4,1.1-1.1,1.1s-1.1-.5-1.1-1.1.4-1.1,1.1-1.1,1.1.5,1.1,1.1ZM356.1,132.9v-6.8h2.1v6.8h-2.1Z"/>
      <path class="st3" d="M359.9,131.1c.4.2,1.2.5,1.8.5s.9-.2.9-.6-.2-.5-1-.8c-1.4-.5-2-1.2-2-2.1,0-1.3,1.1-2.3,2.8-2.3s1.5.2,1.9.4l-.4,1.5c-.3-.2-.9-.4-1.5-.4s-.8.2-.8.5.3.5,1.1.8c1.3.4,1.8,1.1,1.8,2.1,0,1.3-1,2.2-3,2.2s-1.7-.2-2.2-.5l.4-1.5Z"/>
      <path class="st3" d="M367.6,130.2c0,.9.9,1.3,1.9,1.3s1.3,0,1.9-.3l.3,1.4c-.7.3-1.6.4-2.5.4-2.3,0-3.7-1.3-3.7-3.5s1.1-3.7,3.5-3.7,3.1,1.7,3.1,3.4,0,.7,0,.8h-4.4ZM370.1,128.7c0-.5-.2-1.4-1.2-1.4s-1.3.8-1.3,1.4h2.5Z"/>
      <path class="st3" d="M380,123v7.9c0,.8,0,1.6,0,2h-1.9v-1h-.1c-.4.8-1.3,1.1-2.1,1.1-1.6,0-2.9-1.4-2.9-3.5,0-2.3,1.4-3.7,3.1-3.7s1.5.3,1.8.8h0v-3.7h2.1ZM377.9,129c0-.1,0-.3,0-.4-.1-.6-.6-1-1.2-1-1,0-1.5.9-1.5,1.9s.6,1.9,1.5,1.9,1.1-.4,1.2-1c0-.2,0-.3,0-.5v-.9Z"/>
    </g>
    <g>
      <path class="st3" d="M254.6,131.3c0,.6,0,1.3.1,1.7h-1.9v-.7h-.2c-.4.5-1.1.8-2,.8-1.4,0-2.2-1-2.2-2.1,0-1.8,1.6-2.6,4-2.6h0c0-.5-.2-1-1.2-1s-1.4.2-1.9.5l-.4-1.4c.5-.3,1.4-.6,2.7-.6,2.3,0,3,1.3,3,3v2.4ZM252.5,129.7c-1.1,0-2,.3-2,1.1s.4.8.8.8,1-.4,1.1-.8c0-.1,0-.2,0-.4v-.7Z"/>
      <path class="st3" d="M256.3,131.1c.4.2,1.2.5,1.8.5s.9-.2.9-.6-.2-.5-1-.8c-1.4-.5-2-1.2-2-2.1,0-1.3,1.1-2.3,2.8-2.3s1.5.2,1.9.4l-.4,1.5c-.3-.2-.9-.4-1.5-.4s-.8.2-.8.5.3.5,1.1.8c1.3.4,1.8,1.1,1.8,2.1,0,1.3-1,2.2-3,2.2s-1.7-.2-2.2-.5l.4-1.5Z"/>
      <path class="st3" d="M262.4,131.1c.4.2,1.2.5,1.8.5s.9-.2.9-.6-.2-.5-1-.8c-1.4-.5-2-1.2-2-2.1,0-1.3,1.1-2.3,2.8-2.3s1.5.2,1.9.4l-.4,1.5c-.3-.2-.9-.4-1.5-.4s-.8.2-.8.5.3.5,1.1.8c1.3.4,1.8,1.1,1.8,2.1,0,1.3-1,2.2-3,2.2s-1.7-.2-2.2-.5l.4-1.5Z"/>
      <path class="st3" d="M270.6,124.2c0,.6-.4,1.1-1.1,1.1s-1.1-.5-1.1-1.1.4-1.1,1.1-1.1,1.1.5,1.1,1.1ZM268.4,132.9v-6.8h2.1v6.8h-2.1Z"/>
      <path class="st3" d="M272.3,131.1c.4.2,1.2.5,1.8.5s.9-.2.9-.6-.2-.5-1-.8c-1.4-.5-2-1.2-2-2.1,0-1.3,1.1-2.3,2.8-2.3s1.5.2,1.9.4l-.4,1.5c-.3-.2-.9-.4-1.5-.4s-.8.2-.8.5.3.5,1.1.8c1.3.4,1.8,1.1,1.8,2.1,0,1.3-1,2.2-3,2.2s-1.7-.2-2.2-.5l.4-1.5Z"/>
      <path class="st3" d="M280.7,124.2v1.8h1.5v1.6h-1.5v2.5c0,.8.2,1.2.8,1.2s.4,0,.6,0v1.6c-.3,0-.8.2-1.4.2s-1.3-.2-1.6-.6c-.4-.4-.6-1.1-.6-2v-2.8h-.9v-1.6h.9v-1.3l2.1-.6Z"/>
      <path class="st3" d="M285.1,130.2c0,.9.9,1.3,1.9,1.3s1.3,0,1.9-.3l.3,1.4c-.7.3-1.6.4-2.5.4-2.3,0-3.7-1.3-3.7-3.5s1.1-3.7,3.5-3.7,3.1,1.7,3.1,3.4,0,.7,0,.8h-4.4ZM287.6,128.7c0-.5-.2-1.4-1.2-1.4s-1.3.8-1.3,1.4h2.5Z"/>
      <path class="st3" d="M297.5,123v7.9c0,.8,0,1.6,0,2h-1.9v-1h-.1c-.4.8-1.3,1.1-2.1,1.1-1.6,0-2.9-1.4-2.9-3.5,0-2.3,1.4-3.7,3.1-3.7s1.5.3,1.8.8h0v-3.7h2.1ZM295.3,129c0-.1,0-.3,0-.4-.1-.6-.6-1-1.2-1-1,0-1.5.9-1.5,1.9s.6,1.9,1.5,1.9,1.1-.4,1.2-1c0-.2,0-.3,0-.5v-.9Z"/>
    </g>
    <g>
      <path class="st8" d="M185.7,309.8c.4.2,1,.5,1.6.5.9,0,1.3-.4,1.3-1s-.3-.9-1.2-1.2c-1.2-.4-1.8-1.1-1.8-1.9s.9-2,2.3-2,1.3.2,1.7.4l-.3.9c-.3-.2-.8-.4-1.4-.4s-1.1.4-1.1.9.4.8,1.3,1.2c1.2.4,1.8,1,1.8,2s-.9,2-2.5,2-1.4-.2-1.9-.5l.3-.9Z"/>
      <path class="st8" d="M192.1,307.9c0,1.7,1.1,2.4,2.3,2.4s1.4-.2,1.9-.3l.2.9c-.4.2-1.2.4-2.3.4-2.1,0-3.3-1.4-3.3-3.4s1.2-3.6,3.2-3.6,2.8,1.9,2.8,3.2,0,.4,0,.6h-4.8ZM195.7,307c0-.8-.3-2-1.7-2s-1.8,1.1-1.9,2h3.6Z"/>
      <path class="st8" d="M198.4,301.1h1.2v9.9h-1.2v-9.9Z"/>
      <path class="st8" d="M201.9,311v-5.8h-.9v-.9h.9v-.3c0-1,.2-1.8.8-2.4.5-.4,1.1-.6,1.7-.6s.8,0,1.1.2l-.2,1c-.2,0-.4-.2-.8-.2-1,0-1.3.9-1.3,2v.4h1.6v.9h-1.6v5.8h-1.2Z"/>
    </g>
    <g>
      <path class="st8" d="M471.5,309.6c.3.2,1.1.6,2,.6,1.6,0,2.1-1,2.1-1.8,0-1.3-1.2-1.8-2.4-1.8h-.7v-.9h.7c.9,0,2-.5,2-1.5s-.5-1.4-1.6-1.4-1.4.3-1.8.6l-.3-.9c.5-.3,1.4-.7,2.4-.7,1.8,0,2.6,1.1,2.6,2.2s-.6,1.8-1.7,2.2h0c1.1.2,2,1.1,2,2.4,0,1.5-1.1,2.7-3.3,2.7s-1.9-.3-2.4-.6l.3-.9Z"/>
      <path class="st8" d="M478.8,306.4c0-.8,0-1.5,0-2.1h1.1v1.3h0c.3-.9,1.1-1.5,1.9-1.5s.2,0,.3,0v1.2c-.1,0-.3,0-.4,0-.9,0-1.5.6-1.7,1.6,0,.2,0,.4,0,.6v3.6h-1.2v-4.7Z"/>
      <path class="st8" d="M489.1,301.1v8.2c0,.6,0,1.3,0,1.8h-1.1v-1.2h0c-.4.8-1.2,1.3-2.3,1.3-1.6,0-2.9-1.4-2.9-3.4,0-2.3,1.4-3.6,3-3.6s1.7.5,2,1h0v-4h1.2ZM487.8,307c0-.2,0-.4,0-.5-.2-.8-.9-1.4-1.8-1.4s-2,1.1-2,2.6.7,2.5,2,2.5,1.6-.6,1.8-1.5c0-.2,0-.3,0-.5v-1.2Z"/>
      <path class="st8" d="M494,306.8v.9h-3.5v-.9h3.5Z"/>
      <path class="st8" d="M495.4,306.5c0-.9,0-1.6,0-2.2h1.1v1.2h0c.5-.8,1.3-1.3,2.4-1.3,1.7,0,2.9,1.4,2.9,3.4s-1.5,3.6-3.1,3.6-1.7-.4-2.1-1.1h0v3.7h-1.2v-7.3ZM496.6,308.3c0,.2,0,.3,0,.5.2.9,1,1.4,1.8,1.4,1.3,0,2.1-1.1,2.1-2.6s-.7-2.5-2-2.5-1.6.6-1.9,1.5c0,.2,0,.3,0,.5v1.2Z"/>
      <path class="st8" d="M508.1,309.4c0,.6,0,1.2,0,1.6h-1.1v-.9h-.1c-.4.5-1.1,1-2.1,1-1.4,0-2.1-1-2.1-1.9,0-1.6,1.5-2.5,4.1-2.5h0c0-.7-.2-1.7-1.5-1.7-.6,0-1.3.2-1.8.5l-.3-.8c.6-.4,1.4-.6,2.2-.6,2.1,0,2.6,1.4,2.6,2.8v2.5ZM507,307.6c-1.3,0-2.9.2-2.9,1.5s.5,1.2,1.1,1.2c.9,0,1.5-.6,1.7-1.1,0-.1,0-.3,0-.4v-1.2Z"/>
      <path class="st8" d="M510.1,306.4c0-.8,0-1.5,0-2.1h1.1v1.3h0c.3-.9,1.1-1.5,1.9-1.5s.2,0,.3,0v1.2c-.1,0-.3,0-.4,0-.9,0-1.5.6-1.7,1.6,0,.2,0,.4,0,.6v3.6h-1.2v-4.7Z"/>
      <path class="st8" d="M516.5,302.6v1.6h1.8v.9h-1.8v3.7c0,.8.2,1.3.9,1.3s.5,0,.7,0v.9c-.2,0-.6.2-1,.2s-1-.2-1.3-.5c-.3-.4-.5-1-.5-1.8v-3.7h-1.1v-.9h1.1v-1.3l1.2-.4Z"/>
      <path class="st8" d="M520.2,304.2l1.5,4c.2.4.3,1,.4,1.4h0c.1-.4.3-.9.4-1.4l1.3-4h1.3l-1.8,4.8c-.9,2.3-1.5,3.5-2.3,4.2-.6.5-1.2.7-1.5.8l-.3-1c.3,0,.7-.3,1.1-.6.3-.3.7-.7,1-1.4,0-.1,0-.2,0-.3s0-.2,0-.3l-2.5-6.2h1.3Z"/>
    </g>
    <path class="st8" d="M399.1,307.6c0,2.5-1.8,3.6-3.4,3.6s-3.2-1.3-3.2-3.5,1.5-3.6,3.4-3.6,3.3,1.4,3.3,3.5ZM393.8,307.7c0,1.5.8,2.6,2,2.6s2.1-1.1,2.1-2.6-.6-2.6-2-2.6-2.1,1.3-2.1,2.6Z"/>
    <path class="st8" d="M404.9,311v-5.8h-2.9v5.8h-1.2v-5.8h-.9v-.9h.9v-.2c0-1,.2-1.8.8-2.3.4-.4,1-.6,1.7-.6s.8.1,1,.2l-.3.9c-.2,0-.4-.2-.7-.2-1,0-1.2.8-1.2,1.9v.3h2.9v-.3c0-1,.2-1.8.8-2.4.5-.4,1.1-.6,1.6-.6s.8,0,1.1.2l-.2,1c-.2,0-.4-.2-.8-.2-1,0-1.3.9-1.3,2v.4h1.6v.9h-1.6v5.8h-1.2Z"/>
    <g>
      <path class="st8" d="M408.5,309.8c.4.2,1,.5,1.6.5.9,0,1.3-.4,1.3-1s-.3-.9-1.2-1.2c-1.2-.4-1.8-1.1-1.8-1.9s.9-2,2.3-2,1.3.2,1.7.4l-.3.9c-.3-.2-.8-.4-1.4-.4s-1.1.4-1.1.9.4.8,1.3,1.2c1.2.4,1.8,1,1.8,2s-.9,2-2.5,2-1.4-.2-1.9-.5l.3-.9Z"/>
      <path class="st8" d="M414.2,301.1h1.2v4.2h0c.2-.3.5-.7.9-.9.4-.2.8-.3,1.3-.3.9,0,2.4.6,2.4,2.9v4h-1.2v-3.9c0-1.1-.4-2-1.6-2s-1.4.6-1.7,1.2c0,.2,0,.4,0,.6v4.1h-1.2v-9.9Z"/>
      <path class="st8" d="M428.2,307.6c0,2.5-1.8,3.6-3.4,3.6s-3.2-1.3-3.2-3.5,1.5-3.6,3.4-3.6,3.3,1.4,3.3,3.5ZM422.8,307.7c0,1.5.8,2.6,2,2.6s2.1-1.1,2.1-2.6-.6-2.6-2-2.6-2.1,1.3-2.1,2.6Z"/>
      <path class="st8" d="M429.7,306.4c0-.8,0-1.5,0-2.1h1.1v1.3h0c.3-.9,1.1-1.5,1.9-1.5s.2,0,.3,0v1.2c-.1,0-.3,0-.4,0-.9,0-1.5.6-1.7,1.6,0,.2,0,.4,0,.6v3.6h-1.2v-4.7Z"/>
      <path class="st8" d="M435.7,302.3c0,.4-.3.8-.8.8s-.7-.3-.7-.8.3-.8.8-.8.8.3.8.8ZM434.3,311v-6.8h1.2v6.8h-1.2Z"/>
      <path class="st8" d="M437.6,306.1c0-.7,0-1.3,0-1.8h1.1v1.1h0c.3-.6,1.1-1.3,2.2-1.3s2.4.6,2.4,2.9v4h-1.2v-3.9c0-1.1-.4-2-1.6-2s-1.4.6-1.7,1.3c0,.2,0,.4,0,.6v4.1h-1.2v-4.9Z"/>
      <path class="st8" d="M451.2,310c0,1.6-.3,2.5-1,3.1-.7.6-1.6.8-2.5.8s-1.7-.2-2.3-.6l.3-1c.4.3,1.1.5,2,.5,1.3,0,2.2-.7,2.2-2.4v-.7h0c-.4.6-1.1,1.1-2.2,1.1-1.7,0-2.9-1.4-2.9-3.3s1.5-3.6,3.1-3.6,1.8.6,2.1,1.2h0v-1h1.1c0,.5,0,1,0,1.8v3.9ZM449.9,306.9c0-.2,0-.4,0-.5-.2-.7-.8-1.3-1.7-1.3s-2,1-2,2.6.7,2.4,2,2.4,1.5-.5,1.7-1.3c0-.2,0-.4,0-.7v-1.2Z"/>
    </g>
    <g>
      <path class="st8" d="M251.7,309.4c0,.6,0,1.2,0,1.6h-1.1v-.9h-.1c-.4.5-1.1,1-2.1,1-1.4,0-2.1-1-2.1-1.9,0-1.6,1.5-2.5,4.1-2.5h0c0-.7-.2-1.7-1.5-1.7-.6,0-1.3.2-1.8.5l-.3-.8c.6-.4,1.4-.6,2.2-.6,2.1,0,2.6,1.4,2.6,2.8v2.5ZM250.5,307.6c-1.3,0-2.9.2-2.9,1.5s.5,1.2,1.1,1.2c.9,0,1.5-.6,1.7-1.1,0-.1,0-.3,0-.4v-1.2Z"/>
      <path class="st8" d="M253.5,309.8c.4.2,1,.5,1.6.5.9,0,1.3-.4,1.3-1s-.3-.9-1.2-1.2c-1.2-.4-1.8-1.1-1.8-1.9s.9-2,2.3-2,1.3.2,1.7.4l-.3.9c-.3-.2-.8-.4-1.4-.4s-1.1.4-1.1.9.4.8,1.3,1.2c1.2.4,1.8,1,1.8,2s-.9,2-2.5,2-1.4-.2-1.9-.5l.3-.9Z"/>
      <path class="st8" d="M259.1,309.8c.4.2,1,.5,1.6.5.9,0,1.3-.4,1.3-1s-.3-.9-1.2-1.2c-1.2-.4-1.8-1.1-1.8-1.9s.9-2,2.3-2,1.3.2,1.7.4l-.3.9c-.3-.2-.8-.4-1.4-.4s-1.1.4-1.1.9.4.8,1.3,1.2c1.2.4,1.8,1,1.8,2s-.9,2-2.5,2-1.4-.2-1.9-.5l.3-.9Z"/>
      <path class="st8" d="M266.2,302.3c0,.4-.3.8-.8.8s-.7-.3-.7-.8.3-.8.8-.8.8.3.8.8ZM264.8,311v-6.8h1.2v6.8h-1.2Z"/>
      <path class="st8" d="M267.9,309.8c.4.2,1,.5,1.6.5.9,0,1.3-.4,1.3-1s-.3-.9-1.2-1.2c-1.2-.4-1.8-1.1-1.8-1.9s.9-2,2.3-2,1.3.2,1.7.4l-.3.9c-.3-.2-.8-.4-1.4-.4s-1.1.4-1.1.9.4.8,1.3,1.2c1.2.4,1.8,1,1.8,2s-.9,2-2.5,2-1.4-.2-1.9-.5l.3-.9Z"/>
      <path class="st8" d="M275.1,302.6v1.6h1.8v.9h-1.8v3.7c0,.8.2,1.3.9,1.3s.5,0,.7,0v.9c-.2,0-.6.2-1,.2s-1-.2-1.3-.5c-.3-.4-.5-1-.5-1.8v-3.7h-1.1v-.9h1.1v-1.3l1.2-.4Z"/>
      <path class="st8" d="M283,309.4c0,.6,0,1.2,0,1.6h-1.1v-.9h-.1c-.4.5-1.1,1-2.1,1-1.4,0-2.1-1-2.1-1.9,0-1.6,1.5-2.5,4.1-2.5h0c0-.7-.2-1.7-1.5-1.7-.6,0-1.3.2-1.8.5l-.3-.8c.6-.4,1.4-.6,2.2-.6,2.1,0,2.6,1.4,2.6,2.8v2.5ZM281.8,307.6c-1.3,0-2.9.2-2.9,1.5s.5,1.2,1.1,1.2c.9,0,1.5-.6,1.7-1.1,0-.1,0-.3,0-.4v-1.2Z"/>
      <path class="st8" d="M285,306.1c0-.7,0-1.3,0-1.8h1.1v1.1h0c.3-.6,1.1-1.3,2.2-1.3s2.4.6,2.4,2.9v4h-1.2v-3.9c0-1.1-.4-2-1.6-2s-1.4.6-1.7,1.3c0,.2,0,.4,0,.6v4.1h-1.2v-4.9Z"/>
      <path class="st8" d="M294.2,302.6v1.6h1.8v.9h-1.8v3.7c0,.8.2,1.3.9,1.3s.5,0,.7,0v.9c-.2,0-.6.2-1,.2s-1-.2-1.3-.5c-.3-.4-.5-1-.5-1.8v-3.7h-1.1v-.9h1.1v-1.3l1.2-.4Z"/>
    </g>
    <g>
      <path class="st8" d="M322.9,310.8c-.3.2-1,.4-1.9.4-2,0-3.4-1.4-3.4-3.5s1.4-3.6,3.6-3.6,1.4.2,1.7.4l-.3.9c-.3-.2-.8-.3-1.4-.3-1.6,0-2.4,1.2-2.4,2.6s1,2.5,2.4,2.5,1.2-.2,1.5-.3l.2.9Z"/>
      <path class="st8" d="M330.4,307.6c0,2.5-1.8,3.6-3.4,3.6s-3.2-1.3-3.2-3.5,1.5-3.6,3.4-3.6,3.3,1.4,3.3,3.5ZM325,307.7c0,1.5.8,2.6,2,2.6s2.1-1.1,2.1-2.6-.6-2.6-2-2.6-2.1,1.3-2.1,2.6Z"/>
      <path class="st8" d="M335,306.8v.9h-3.5v-.9h3.5Z"/>
      <path class="st8" d="M336.9,304.2l.9,3.4c.2.8.4,1.5.5,2.2h0c.2-.7.4-1.4.6-2.1l1.1-3.5h1l1.1,3.4c.3.8.4,1.5.6,2.2h0c.1-.7.3-1.4.5-2.2l1-3.4h1.2l-2.2,6.8h-1.1l-1-3.2c-.2-.8-.4-1.4-.6-2.2h0c-.2.8-.4,1.5-.6,2.2l-1.1,3.2h-1.1l-2-6.8h1.3Z"/>
      <path class="st8" d="M352.7,307.6c0,2.5-1.8,3.6-3.4,3.6s-3.2-1.3-3.2-3.5,1.5-3.6,3.4-3.6,3.3,1.4,3.3,3.5ZM347.3,307.7c0,1.5.8,2.6,2,2.6s2.1-1.1,2.1-2.6-.6-2.6-2-2.6-2.1,1.3-2.1,2.6Z"/>
      <path class="st8" d="M354.3,306.4c0-.8,0-1.5,0-2.1h1.1v1.3h0c.3-.9,1.1-1.5,1.9-1.5s.2,0,.3,0v1.2c-.1,0-.3,0-.4,0-.9,0-1.5.6-1.7,1.6,0,.2,0,.4,0,.6v3.6h-1.2v-4.7Z"/>
      <path class="st8" d="M360.1,307.4h0c.2-.2.4-.5.6-.8l2-2.3h1.5l-2.6,2.8,3,4h-1.5l-2.3-3.2-.6.7v2.5h-1.2v-9.9h1.2v6.3Z"/>
      <path class="st8" d="M366.1,307.9c0,1.7,1.1,2.4,2.3,2.4s1.4-.2,1.9-.3l.2.9c-.4.2-1.2.4-2.3.4-2.1,0-3.3-1.4-3.3-3.4s1.2-3.6,3.2-3.6,2.8,1.9,2.8,3.2,0,.4,0,.6h-4.8ZM369.8,307c0-.8-.3-2-1.7-2s-1.8,1.1-1.9,2h3.6Z"/>
      <path class="st8" d="M372.5,306.4c0-.8,0-1.5,0-2.1h1.1v1.3h0c.3-.9,1.1-1.5,1.9-1.5s.2,0,.3,0v1.2c-.1,0-.3,0-.4,0-.9,0-1.5.6-1.7,1.6,0,.2,0,.4,0,.6v3.6h-1.2v-4.7Z"/>
    </g>
    <g>
      <path class="st10" d="M16.5,190.6l-3.1-9.4h1.3l1.5,4.7c.4,1.3.7,2.4,1,3.5h0c.3-1.1.6-2.3,1.1-3.5l1.6-4.7h1.3l-3.4,9.4h-1.3Z"/>
      <path class="st10" d="M23.4,182c0,.4-.3.8-.8.8s-.7-.3-.7-.8.3-.8.8-.8.8.3.8.8ZM22,190.6v-6.8h1.2v6.8h-1.2Z"/>
      <path class="st10" d="M26,187.5c0,1.7,1.1,2.4,2.3,2.4s1.4-.2,1.9-.4l.2.9c-.4.2-1.2.4-2.3.4-2.1,0-3.3-1.4-3.3-3.4s1.2-3.6,3.2-3.6,2.8,1.9,2.8,3.2,0,.4,0,.6h-4.8ZM29.6,186.6c0-.8-.3-2-1.7-2s-1.8,1.1-1.9,2h3.6Z"/>
      <path class="st10" d="M32.8,183.9l.9,3.4c.2.8.4,1.5.5,2.2h0c.2-.7.4-1.4.6-2.1l1.1-3.5h1l1.1,3.4c.3.8.4,1.5.6,2.2h0c.1-.7.3-1.4.5-2.2l1-3.4h1.2l-2.2,6.8h-1.1l-1-3.2c-.2-.8-.4-1.4-.6-2.2h0c-.2.8-.4,1.5-.6,2.2l-1.1,3.2h-1.1l-2-6.8h1.3Z"/>
    </g>
    <g>
      <path class="st15" d="M14.3,355.9c.5.4,1.3.6,2.2.6,1.2,0,2-.7,2-1.6s-.5-1.4-1.8-1.9c-1.5-.6-2.5-1.4-2.5-2.7s1.2-2.6,3.1-2.6,1.7.2,2.1.5l-.3,1c-.3-.2-.9-.4-1.8-.4-1.3,0-1.8.8-1.8,1.4s.6,1.3,1.9,1.8c1.6.6,2.4,1.4,2.4,2.8s-1.1,2.7-3.3,2.7-1.9-.3-2.4-.6l.3-1Z"/>
      <path class="st15" d="M27.5,354c0,2.5-1.8,3.6-3.4,3.6s-3.2-1.3-3.2-3.5,1.5-3.6,3.4-3.6,3.3,1.4,3.3,3.5ZM22.2,354c0,1.5.8,2.6,2,2.6s2.1-1.1,2.1-2.6-.6-2.6-2-2.6-2.1,1.3-2.1,2.6Z"/>
      <path class="st15" d="M29.5,350.6l1.3,3.8c.2.6.4,1.2.5,1.8h0c.2-.6.4-1.1.6-1.8l1.3-3.8h1.3l-2.7,6.8h-1.2l-2.6-6.8h1.3Z"/>
      <path class="st15" d="M36.3,354.3c0,1.7,1.1,2.4,2.3,2.4s1.4-.2,1.9-.4l.2.9c-.4.2-1.2.4-2.3.4-2.1,0-3.3-1.4-3.3-3.4s1.2-3.6,3.2-3.6,2.8,1.9,2.8,3.2,0,.4,0,.6h-4.8ZM39.9,353.4c0-.8-.3-2-1.7-2s-1.8,1.1-1.9,2h3.6Z"/>
      <path class="st15" d="M42.6,352.8c0-.8,0-1.5,0-2.1h1.1v1.3h0c.3-.9,1.1-1.5,1.9-1.5s.2,0,.3,0v1.2c-.1,0-.3,0-.4,0-.9,0-1.5.6-1.7,1.6,0,.2,0,.4,0,.6v3.6h-1.2v-4.7Z"/>
      <path class="st15" d="M47.8,354.3c0,1.7,1.1,2.4,2.3,2.4s1.4-.2,1.9-.4l.2.9c-.4.2-1.2.4-2.3.4-2.1,0-3.3-1.4-3.3-3.4s1.2-3.6,3.2-3.6,2.8,1.9,2.8,3.2,0,.4,0,.6h-4.8ZM51.4,353.4c0-.8-.3-2-1.7-2s-1.8,1.1-1.9,2h3.6Z"/>
      <path class="st15" d="M55.5,348.7c0,.4-.3.8-.8.8s-.7-.3-.7-.8.3-.8.8-.8.8.3.8.8ZM54.1,357.4v-6.8h1.2v6.8h-1.2Z"/>
      <path class="st15" d="M63.2,356.4c0,1.6-.3,2.5-1,3.1-.7.6-1.6.8-2.5.8s-1.7-.2-2.3-.6l.3-1c.4.3,1.1.5,2,.5,1.3,0,2.2-.7,2.2-2.4v-.7h0c-.4.6-1.1,1.1-2.2,1.1-1.7,0-2.9-1.4-2.9-3.3s1.5-3.6,3.1-3.6,1.8.6,2.1,1.2h0v-1h1.1c0,.5,0,1,0,1.8v3.9ZM61.9,353.3c0-.2,0-.4,0-.5-.2-.7-.8-1.3-1.7-1.3s-2,1-2,2.6.7,2.4,2,2.4,1.5-.5,1.7-1.3c0-.2,0-.4,0-.7v-1.2Z"/>
      <path class="st15" d="M65.1,352.5c0-.7,0-1.3,0-1.8h1.1v1.1h0c.3-.6,1.1-1.3,2.2-1.3s2.4.6,2.4,2.9v4h-1.2v-3.9c0-1.1-.4-2-1.6-2s-1.4.6-1.7,1.3c0,.2,0,.4,0,.6v4.1h-1.2v-4.9Z"/>
      <path class="st15" d="M74.3,349v1.6h1.8v.9h-1.8v3.7c0,.8.2,1.3.9,1.3s.5,0,.7,0v.9c-.2,0-.6.2-1,.2s-1-.2-1.3-.5c-.3-.4-.5-1-.5-1.8v-3.7h-1.1v-.9h1.1v-1.3l1.2-.4Z"/>
      <path class="st15" d="M78,350.6l1.5,4c.2.4.3,1,.4,1.4h0c.1-.4.3-.9.4-1.4l1.3-4h1.3l-1.8,4.8c-.9,2.3-1.5,3.5-2.3,4.2-.6.5-1.2.7-1.5.8l-.3-1c.3,0,.7-.3,1.1-.6.3-.3.7-.7,1-1.4,0-.1,0-.2,0-.3s0-.2,0-.3l-2.5-6.2h1.3Z"/>
    </g>
    <g>
      <path class="st15" d="M14.5,400.2c.6,0,1.4-.2,2.3-.2s2.1.3,2.6.8c.5.4.8,1.1.8,2s-.3,1.5-.7,2c-.7.7-1.7,1-2.9,1s-.7,0-1,0v3.8h-1.2v-9.3ZM15.7,404.8c.3,0,.6,0,1,0,1.5,0,2.4-.7,2.4-2s-.9-1.9-2.2-1.9-.9,0-1.1,0v3.7Z"/>
      <path class="st15" d="M21.7,404.9c0-.8,0-1.5,0-2.1h1.1v1.3h0c.3-.9,1.1-1.5,1.9-1.5s.2,0,.3,0v1.2c-.1,0-.3,0-.4,0-.9,0-1.5.6-1.7,1.6,0,.2,0,.4,0,.6v3.6h-1.2v-4.7Z"/>
      <path class="st15" d="M32.3,406.1c0,2.5-1.8,3.6-3.4,3.6s-3.2-1.3-3.2-3.5,1.5-3.6,3.4-3.6,3.3,1.4,3.3,3.5ZM26.9,406.2c0,1.5.8,2.6,2,2.6s2.1-1.1,2.1-2.6-.6-2.6-2-2.6-2.1,1.3-2.1,2.6Z"/>
      <path class="st15" d="M39.6,399.6v8.2c0,.6,0,1.3,0,1.8h-1.1v-1.2h0c-.4.8-1.2,1.3-2.3,1.3-1.6,0-2.9-1.4-2.9-3.4,0-2.3,1.4-3.6,3-3.6s1.7.5,2,1h0v-4h1.2ZM38.4,405.6c0-.2,0-.4,0-.5-.2-.8-.9-1.4-1.8-1.4s-2,1.1-2,2.6.7,2.5,2,2.5,1.6-.6,1.8-1.5c0-.2,0-.3,0-.5v-1.2Z"/>
      <path class="st15" d="M47.4,407.7c0,.7,0,1.3,0,1.9h-1.1v-1.1h0c-.3.5-1,1.3-2.2,1.3s-2.3-.6-2.3-3v-4h1.2v3.7c0,1.3.4,2.2,1.5,2.2s1.4-.6,1.6-1.1c0-.2.1-.4.1-.6v-4.1h1.2v4.9Z"/>
      <path class="st15" d="M54.2,409.3c-.3.2-1,.4-1.9.4-2,0-3.4-1.4-3.4-3.5s1.4-3.6,3.6-3.6,1.4.2,1.7.4l-.3.9c-.3-.2-.8-.3-1.4-.3-1.6,0-2.4,1.2-2.4,2.6s1,2.5,2.4,2.5,1.2-.2,1.5-.3l.2.9Z"/>
      <path class="st15" d="M57.3,401.2v1.6h1.8v.9h-1.8v3.7c0,.8.2,1.3.9,1.3s.5,0,.7,0v.9c-.2,0-.6.2-1,.2s-1-.2-1.3-.5c-.3-.4-.5-1-.5-1.8v-3.7h-1.1v-.9h1.1v-1.3l1.2-.4Z"/>
      <path class="st15" d="M61.9,400.9c0,.4-.3.8-.8.8s-.7-.3-.7-.8.3-.8.8-.8.8.3.8.8ZM60.5,409.6v-6.8h1.2v6.8h-1.2Z"/>
      <path class="st15" d="M64.2,402.8l1.3,3.8c.2.6.4,1.2.5,1.8h0c.2-.6.4-1.1.6-1.8l1.3-3.8h1.3l-2.7,6.8h-1.2l-2.6-6.8h1.3Z"/>
      <path class="st15" d="M71.9,400.9c0,.4-.3.8-.8.8s-.7-.3-.7-.8.3-.8.8-.8.8.3.8.8ZM70.5,409.6v-6.8h1.2v6.8h-1.2Z"/>
      <path class="st15" d="M75.3,401.2v1.6h1.8v.9h-1.8v3.7c0,.8.2,1.3.9,1.3s.5,0,.7,0v.9c-.2,0-.6.2-1,.2s-1-.2-1.3-.5c-.3-.4-.5-1-.5-1.8v-3.7h-1.1v-.9h1.1v-1.3l1.2-.4Z"/>
      <path class="st15" d="M79,402.8l1.5,4c.2.4.3,1,.4,1.4h0c.1-.4.3-.9.4-1.4l1.3-4h1.3l-1.8,4.8c-.9,2.3-1.5,3.5-2.3,4.2-.6.5-1.2.7-1.5.8l-.3-1c.3,0,.7-.3,1.1-.6.3-.3.7-.7,1-1.4,0-.1,0-.2,0-.3s0-.2,0-.3l-2.5-6.2h1.3Z"/>
    </g>
    <g>
      <path class="st15" d="M14.9,453.3c.6-.1,1.5-.2,2.3-.2,1.3,0,2.2.3,2.7.8.5.4.7,1.1.7,1.8,0,1.2-.8,2.1-1.8,2.4h0c.7.3,1.1,1,1.4,1.9.3,1.3.5,2.2.7,2.6h-1.3c-.2-.3-.4-1.1-.6-2.3-.3-1.3-.8-1.8-1.9-1.8h-1.1v4.1h-1.2v-9.3ZM16.2,457.6h1.2c1.3,0,2.1-.7,2.1-1.8s-.9-1.8-2.2-1.8-1,0-1.2,0v3.4Z"/>
      <path class="st15" d="M23.9,453.9c0,.4-.3.8-.8.8s-.7-.3-.7-.8.3-.8.8-.8.8.3.8.8ZM22.5,462.6v-6.8h1.2v6.8h-1.2Z"/>
      <path class="st15" d="M25.7,461.3c.4.2,1,.5,1.6.5.9,0,1.3-.4,1.3-1s-.4-.9-1.2-1.2c-1.2-.4-1.8-1.1-1.8-1.9s.9-2,2.3-2,1.3.2,1.7.4l-.3.9c-.3-.2-.8-.4-1.4-.4s-1.1.4-1.1.9.4.8,1.3,1.2c1.2.4,1.8,1,1.8,2s-.9,2-2.5,2-1.4-.2-1.9-.5l.3-.9Z"/>
      <path class="st15" d="M32.6,458.9h0c.2-.2.4-.5.6-.8l2-2.3h1.5l-2.6,2.8,3,4h-1.5l-2.3-3.2-.6.7v2.5h-1.2v-9.9h1.2v6.3Z"/>
    </g>
    <g>
      <path class="st10" d="M14.5,111.8h1.2v8.4h4v1h-5.3v-9.4Z"/>
      <path class="st10" d="M21.5,118.1c0,1.7,1.1,2.4,2.3,2.4s1.4-.2,1.9-.4l.2.9c-.4.2-1.2.4-2.3.4-2.1,0-3.3-1.4-3.3-3.4s1.2-3.6,3.2-3.6,2.8,1.9,2.8,3.2,0,.4,0,.6h-4.8ZM25.2,117.2c0-.8-.3-2-1.7-2s-1.8,1.1-1.9,2h3.6Z"/>
      <path class="st10" d="M28.3,114.4l1.3,3.8c.2.6.4,1.2.5,1.8h0c.2-.6.4-1.1.6-1.8l1.3-3.8h1.3l-2.7,6.8h-1.2l-2.6-6.8h1.3Z"/>
      <path class="st10" d="M35.2,118.1c0,1.7,1.1,2.4,2.3,2.4s1.4-.2,1.9-.4l.2.9c-.4.2-1.2.4-2.3.4-2.1,0-3.3-1.4-3.3-3.4s1.2-3.6,3.2-3.6,2.8,1.9,2.8,3.2,0,.4,0,.6h-4.8ZM38.8,117.2c0-.8-.3-2-1.7-2s-1.8,1.1-1.9,2h3.6Z"/>
      <path class="st10" d="M41.5,111.3h1.2v9.9h-1.2v-9.9Z"/>
    </g>
    <g>
      <path class="st15" d="M16.3,303.7h-2.9v-1h7v1h-2.9v8.4h-1.2v-8.4Z"/>
      <path class="st15" d="M21.3,302.1h1.2v4.2h0c.2-.3.5-.7.9-.9.4-.2.8-.3,1.3-.3.9,0,2.4.6,2.4,2.9v4h-1.2v-3.9c0-1.1-.4-2-1.6-2s-1.4.6-1.7,1.2c0,.2,0,.4,0,.6v4.1h-1.2v-9.9Z"/>
      <path class="st15" d="M30.4,303.4c0,.4-.3.8-.8.8s-.7-.3-.7-.8.3-.8.8-.8.8.3.8.8ZM29.1,312.1v-6.8h1.2v6.8h-1.2Z"/>
      <path class="st15" d="M32.3,307.1c0-.7,0-1.3,0-1.8h1.1v1.1h0c.3-.6,1.1-1.3,2.2-1.3s2.4.6,2.4,2.9v4h-1.2v-3.9c0-1.1-.4-2-1.6-2s-1.4.6-1.7,1.3c0,.2,0,.4,0,.6v4.1h-1.2v-4.9Z"/>
      <path class="st15" d="M41.3,308.4h0c.2-.2.4-.5.6-.8l2-2.3h1.5l-2.6,2.8,3,4h-1.5l-2.3-3.2-.6.7v2.5h-1.2v-9.9h1.2v6.3Z"/>
    </g>
    <g>
      <path class="st8" d="M180.1,223l.9,3.4c.2.8.4,1.5.5,2.2h0c.2-.7.4-1.4.6-2.1l1.1-3.5h1l1.1,3.4c.3.8.4,1.5.6,2.2h0c.1-.7.3-1.4.5-2.2l1-3.4h1.2l-2.2,6.8h-1.1l-1-3.2c-.2-.8-.4-1.4-.6-2.2h0c-.2.8-.4,1.5-.6,2.2l-1.1,3.2h-1.1l-2-6.8h1.3Z"/>
      <path class="st8" d="M189.9,219.8h1.2v4.2h0c.2-.4.5-.7.9-.9.4-.2.8-.3,1.3-.3.9,0,2.4.6,2.4,2.9v4h-1.2v-3.9c0-1.1-.4-2-1.6-2s-1.4.6-1.7,1.2c0,.2,0,.4,0,.6v4.1h-1.2v-9.9Z"/>
      <path class="st8" d="M199.1,221.1c0,.4-.3.8-.8.8s-.7-.3-.7-.8.3-.8.8-.8.8.3.8.8ZM197.7,229.7v-6.8h1.2v6.8h-1.2Z"/>
      <path class="st8" d="M202.5,221.3v1.6h1.8v.9h-1.8v3.7c0,.8.2,1.3.9,1.3s.5,0,.7,0v.9c-.2,0-.6.2-1,.2s-1-.2-1.3-.5c-.3-.4-.5-1-.5-1.8v-3.7h-1.1v-.9h1.1v-1.3l1.2-.4Z"/>
      <path class="st8" d="M206.2,226.6c0,1.7,1.1,2.4,2.3,2.4s1.4-.2,1.9-.4l.2.9c-.4.2-1.2.4-2.3.4-2.1,0-3.3-1.4-3.3-3.4s1.2-3.6,3.2-3.6,2.8,1.9,2.8,3.2,0,.4,0,.6h-4.8ZM209.8,225.7c0-.8-.3-2-1.7-2s-1.8,1.1-1.9,2h3.6Z"/>
    </g>
    <g>
      <path class="st8" d="M483.4,219.8h1.2v4.3h0c.4-.8,1.2-1.2,2.3-1.2,1.7,0,2.9,1.4,2.9,3.4s-1.5,3.6-3.1,3.6-1.8-.4-2.3-1.3h0v1.1h-1.1c0-.5,0-1.1,0-1.8v-8.2ZM484.6,227c0,.2,0,.3,0,.4.2.9,1,1.4,1.8,1.4,1.3,0,2.1-1.1,2.1-2.6s-.7-2.5-2-2.5-1.6.6-1.9,1.5c0,.2,0,.3,0,.5v1.2Z"/>
      <path class="st8" d="M491.3,219.8h1.2v9.9h-1.2v-9.9Z"/>
      <path class="st8" d="M499.4,228.1c0,.6,0,1.2,0,1.6h-1.1v-.9h-.1c-.4.5-1.1,1-2.1,1-1.4,0-2.1-1-2.1-1.9,0-1.6,1.5-2.5,4.1-2.5h0c0-.7-.2-1.7-1.5-1.7-.6,0-1.3.2-1.8.5l-.3-.8c.6-.4,1.4-.6,2.2-.6,2.1,0,2.6,1.4,2.6,2.8v2.5ZM498.2,226.3c-1.3,0-2.9.2-2.9,1.5s.5,1.2,1.1,1.2c.9,0,1.5-.6,1.7-1.1,0-.1,0-.3,0-.4v-1.2Z"/>
      <path class="st8" d="M506.2,229.5c-.3.2-1,.4-1.9.4-2,0-3.4-1.4-3.4-3.5s1.4-3.6,3.6-3.6,1.4.2,1.7.4l-.3.9c-.3-.2-.8-.3-1.4-.3-1.6,0-2.4,1.2-2.4,2.6s1,2.5,2.4,2.5,1.2-.2,1.5-.3l.2.9Z"/>
      <path class="st8" d="M508.9,226.1h0c.2-.2.4-.5.6-.8l2-2.3h1.5l-2.6,2.8,3,4h-1.5l-2.3-3.2-.6.7v2.5h-1.2v-9.9h1.2v6.3Z"/>
    </g>
    <g>
      <path class="st8" d="M399.1,228.7c0,1.6-.3,2.5-1,3.1-.7.6-1.6.8-2.5.8s-1.7-.2-2.3-.6l.3-1c.4.3,1.1.5,2,.5,1.3,0,2.2-.7,2.2-2.4v-.7h0c-.4.6-1.1,1.1-2.2,1.1-1.7,0-2.9-1.4-2.9-3.3s1.5-3.6,3.1-3.6,1.8.6,2.1,1.2h0v-1h1.1c0,.5,0,1,0,1.8v3.9ZM397.9,225.6c0-.2,0-.4,0-.5-.2-.7-.8-1.3-1.7-1.3s-2,1-2,2.6.7,2.4,2,2.4,1.5-.5,1.7-1.3c0-.2,0-.4,0-.7v-1.2Z"/>
      <path class="st8" d="M401.1,225.1c0-.8,0-1.5,0-2.1h1.1v1.3h0c.3-.9,1.1-1.5,1.9-1.5s.2,0,.3,0v1.2c-.1,0-.3,0-.4,0-.9,0-1.5.6-1.7,1.6,0,.2,0,.4,0,.6v3.6h-1.2v-4.7Z"/>
      <path class="st8" d="M406.2,226.6c0,1.7,1.1,2.4,2.3,2.4s1.4-.2,1.9-.4l.2.9c-.4.2-1.2.4-2.3.4-2.1,0-3.3-1.4-3.3-3.4s1.2-3.6,3.2-3.6,2.8,1.9,2.8,3.2,0,.4,0,.6h-4.8ZM409.8,225.7c0-.8-.3-2-1.7-2s-1.8,1.1-1.9,2h3.6Z"/>
      <path class="st8" d="M413,223l1.5,4c.2.4.3,1,.4,1.4h0c.1-.4.3-.9.4-1.4l1.3-4h1.3l-1.8,4.8c-.9,2.3-1.5,3.5-2.3,4.2-.6.5-1.2.7-1.5.8l-.3-1c.3,0,.7-.3,1.1-.6.3-.3.7-.7,1-1.4,0-.1,0-.2,0-.3s0-.2,0-.3l-2.5-6.2h1.3Z"/>
      <path class="st8" d="M421.1,230.3l3.9-10.2h1l-3.9,10.2h-.9Z"/>
      <path class="st8" d="M435.7,219.8v8.2c0,.6,0,1.3,0,1.8h-1.1v-1.2h0c-.4.8-1.2,1.3-2.3,1.3-1.6,0-2.9-1.4-2.9-3.4,0-2.3,1.4-3.6,3-3.6s1.7.5,2,1h0v-4h1.2ZM434.5,225.7c0-.2,0-.4,0-.5-.2-.8-.9-1.4-1.8-1.4s-2,1.1-2,2.6.7,2.5,2,2.5,1.6-.6,1.8-1.5c0-.2,0-.3,0-.5v-1.2Z"/>
      <path class="st8" d="M442.5,228.1c0,.6,0,1.2,0,1.6h-1.1v-.9h-.1c-.4.5-1.1,1-2.1,1-1.4,0-2.1-1-2.1-1.9,0-1.6,1.5-2.5,4.1-2.5h0c0-.7-.2-1.7-1.5-1.7-.6,0-1.3.2-1.8.5l-.3-.8c.6-.4,1.4-.6,2.2-.6,2.1,0,2.6,1.4,2.6,2.8v2.5ZM441.4,226.3c-1.3,0-2.9.2-2.9,1.5s.5,1.2,1.1,1.2c.9,0,1.5-.6,1.7-1.1,0-.1,0-.3,0-.4v-1.2Z"/>
      <path class="st8" d="M444.5,225.1c0-.8,0-1.5,0-2.1h1.1v1.3h0c.3-.9,1.1-1.5,1.9-1.5s.2,0,.3,0v1.2c-.1,0-.3,0-.4,0-.9,0-1.5.6-1.7,1.6,0,.2,0,.4,0,.6v3.6h-1.2v-4.7Z"/>
      <path class="st8" d="M450.4,226.1h0c.2-.2.4-.5.6-.8l2-2.3h1.5l-2.6,2.8,3,4h-1.5l-2.3-3.2-.6.7v2.5h-1.2v-9.9h1.2v6.3Z"/>
    </g>
    <g>
      <path class="st8" d="M337.2,228.7c0,1.6-.3,2.5-1,3.1-.7.6-1.6.8-2.5.8s-1.7-.2-2.3-.6l.3-1c.4.3,1.1.5,2,.5,1.3,0,2.2-.7,2.2-2.4v-.7h0c-.4.6-1.1,1.1-2.2,1.1-1.7,0-2.9-1.4-2.9-3.3s1.5-3.6,3.1-3.6,1.8.6,2.1,1.2h0v-1h1.1c0,.5,0,1,0,1.8v3.9ZM335.9,225.6c0-.2,0-.4,0-.5-.2-.7-.8-1.3-1.7-1.3s-2,1-2,2.6.7,2.4,2,2.4,1.5-.5,1.7-1.3c0-.2,0-.4,0-.7v-1.2Z"/>
      <path class="st8" d="M339.1,225.1c0-.8,0-1.5,0-2.1h1.1v1.3h0c.3-.9,1.1-1.5,1.9-1.5s.2,0,.3,0v1.2c-.1,0-.3,0-.4,0-.9,0-1.5.6-1.7,1.6,0,.2,0,.4,0,.6v3.6h-1.2v-4.7Z"/>
      <path class="st8" d="M344.2,226.6c0,1.7,1.1,2.4,2.3,2.4s1.4-.2,1.9-.4l.2.9c-.4.2-1.2.4-2.3.4-2.1,0-3.3-1.4-3.3-3.4s1.2-3.6,3.2-3.6,2.8,1.9,2.8,3.2,0,.4,0,.6h-4.8ZM347.9,225.7c0-.8-.3-2-1.7-2s-1.8,1.1-1.9,2h3.6Z"/>
      <path class="st8" d="M351,223l1.5,4c.2.4.3,1,.4,1.4h0c.1-.4.3-.9.4-1.4l1.3-4h1.3l-1.8,4.8c-.9,2.3-1.5,3.5-2.3,4.2-.6.5-1.2.7-1.5.8l-.3-1c.3,0,.7-.3,1.1-.6.3-.3.7-.7,1-1.4,0-.1,0-.2,0-.3s0-.2,0-.3l-2.5-6.2h1.3Z"/>
    </g>
    <g>
      <path class="st8" d="M248,228.7c0,1.6-.3,2.5-1,3.1-.7.6-1.6.8-2.5.8s-1.7-.2-2.3-.6l.3-1c.4.3,1.1.5,2,.5,1.3,0,2.2-.7,2.2-2.4v-.7h0c-.4.6-1.1,1.1-2.2,1.1-1.7,0-2.9-1.4-2.9-3.3s1.5-3.6,3.1-3.6,1.8.6,2.1,1.2h0v-1h1.1c0,.5,0,1,0,1.8v3.9ZM246.8,225.6c0-.2,0-.4,0-.5-.2-.7-.8-1.3-1.7-1.3s-2,1-2,2.6.7,2.4,2,2.4,1.5-.5,1.7-1.3c0-.2,0-.4,0-.7v-1.2Z"/>
      <path class="st8" d="M250,225.1c0-.8,0-1.5,0-2.1h1.1v1.3h0c.3-.9,1.1-1.5,1.9-1.5s.2,0,.3,0v1.2c-.1,0-.3,0-.4,0-.9,0-1.5.6-1.7,1.6,0,.2,0,.4,0,.6v3.6h-1.2v-4.7Z"/>
      <path class="st8" d="M255.1,226.6c0,1.7,1.1,2.4,2.3,2.4s1.4-.2,1.9-.4l.2.9c-.4.2-1.2.4-2.3.4-2.1,0-3.3-1.4-3.3-3.4s1.2-3.6,3.2-3.6,2.8,1.9,2.8,3.2,0,.4,0,.6h-4.8ZM258.7,225.7c0-.8-.3-2-1.7-2s-1.8,1.1-1.9,2h3.6Z"/>
      <path class="st8" d="M261.9,223l1.5,4c.2.4.3,1,.4,1.4h0c.1-.4.3-.9.4-1.4l1.3-4h1.3l-1.8,4.8c-.9,2.3-1.5,3.5-2.3,4.2-.6.5-1.2.7-1.5.8l-.3-1c.3,0,.7-.3,1.1-.6.3-.3.7-.7,1-1.4,0-.1,0-.2,0-.3s0-.2,0-.3l-2.5-6.2h1.3Z"/>
      <path class="st8" d="M270,230.3l3.9-10.2h1l-3.9,10.2h-.9Z"/>
      <path class="st8" d="M278.8,219.8h1.2v9.9h-1.2v-9.9Z"/>
      <path class="st8" d="M283.4,221.1c0,.4-.3.8-.8.8s-.7-.3-.7-.8.3-.8.8-.8.8.3.8.8ZM282.1,229.7v-6.8h1.2v6.8h-1.2Z"/>
      <path class="st8" d="M291.1,228.7c0,1.6-.3,2.5-1,3.1-.7.6-1.6.8-2.5.8s-1.7-.2-2.3-.6l.3-1c.4.3,1.1.5,2,.5,1.3,0,2.2-.7,2.2-2.4v-.7h0c-.4.6-1.1,1.1-2.2,1.1-1.7,0-2.9-1.4-2.9-3.3s1.5-3.6,3.1-3.6,1.8.6,2.1,1.2h0v-1h1.1c0,.5,0,1,0,1.8v3.9ZM289.9,225.6c0-.2,0-.4,0-.5-.2-.7-.8-1.3-1.7-1.3s-2,1-2,2.6.7,2.4,2,2.4,1.5-.5,1.7-1.3c0-.2,0-.4,0-.7v-1.2Z"/>
      <path class="st8" d="M293.2,219.8h1.2v4.2h0c.2-.4.5-.7.9-.9.4-.2.8-.3,1.3-.3.9,0,2.4.6,2.4,2.9v4h-1.2v-3.9c0-1.1-.4-2-1.6-2s-1.4.6-1.7,1.2c0,.2,0,.4,0,.6v4.1h-1.2v-9.9Z"/>
      <path class="st8" d="M302.4,221.3v1.6h1.8v.9h-1.8v3.7c0,.8.2,1.3.9,1.3s.5,0,.7,0v.9c-.2,0-.6.2-1,.2s-1-.2-1.3-.5c-.3-.4-.5-1-.5-1.8v-3.7h-1.1v-.9h1.1v-1.3l1.2-.4Z"/>
    </g>
    <g>
      <path class="st14" d="M321.6,18.7c.5.3,1.3.6,2.2.6,1.2,0,2-.7,2-1.6s-.5-1.4-1.8-1.9c-1.5-.6-2.5-1.4-2.5-2.7s1.2-2.6,3.1-2.6,1.7.2,2.1.5l-.3,1c-.3-.2-.9-.4-1.8-.4-1.3,0-1.8.8-1.8,1.4s.6,1.3,1.9,1.8c1.6.6,2.4,1.4,2.4,2.8s-1.1,2.7-3.3,2.7-1.9-.3-2.4-.6l.3-1Z"/>
      <path class="st14" d="M329,13.4l.9,3.4c.2.8.4,1.5.5,2.2h0c.2-.7.4-1.4.6-2.1l1.1-3.5h1l1.1,3.4c.3.8.4,1.5.6,2.2h0c.1-.7.3-1.4.5-2.2l1-3.4h1.2l-2.2,6.8h-1.1l-1-3.2c-.2-.8-.4-1.4-.6-2.2h0c-.2.8-.4,1.5-.6,2.2l-1.1,3.2h-1.1l-2-6.8h1.3Z"/>
      <path class="st14" d="M339.4,17c0,1.7,1.1,2.4,2.3,2.4s1.4-.2,1.9-.4l.2.9c-.4.2-1.2.4-2.3.4-2.1,0-3.3-1.4-3.3-3.4s1.2-3.6,3.2-3.6,2.8,1.9,2.8,3.2,0,.4,0,.6h-4.8ZM343,16.1c0-.8-.3-2-1.7-2s-1.8,1.1-1.9,2h3.6Z"/>
      <path class="st14" d="M346.4,17c0,1.7,1.1,2.4,2.3,2.4s1.4-.2,1.9-.4l.2.9c-.4.2-1.2.4-2.3.4-2.1,0-3.3-1.4-3.3-3.4s1.2-3.6,3.2-3.6,2.8,1.9,2.8,3.2,0,.4,0,.6h-4.8ZM350,16.1c0-.8-.3-2-1.7-2s-1.8,1.1-1.9,2h3.6Z"/>
      <path class="st14" d="M354.2,11.8v1.6h1.8v.9h-1.8v3.7c0,.8.2,1.3.9,1.3s.5,0,.7,0v.9c-.2,0-.6.2-1,.2s-1-.2-1.3-.5c-.3-.4-.5-1-.5-1.8v-3.7h-1.1v-.9h1.1v-1.3l1.2-.4Z"/>
      <path class="st14" d="M357.2,18.9c.4.2,1,.5,1.6.5.9,0,1.3-.4,1.3-1s-.3-.9-1.2-1.2c-1.2-.4-1.8-1.1-1.8-1.9s.9-2,2.3-2,1.3.2,1.7.4l-.3.9c-.3-.2-.8-.4-1.4-.4s-1.1.4-1.1.9.4.8,1.3,1.2c1.2.4,1.8,1,1.8,2s-.9,2-2.5,2-1.4-.2-1.9-.5l.3-.9Z"/>
      <path class="st14" d="M362.9,15.6c0-.9,0-1.6,0-2.2h1.1v1.2h0c.5-.8,1.3-1.3,2.4-1.3,1.7,0,2.9,1.4,2.9,3.4s-1.5,3.6-3.1,3.6-1.7-.4-2.1-1.1h0v3.7h-1.2v-7.3ZM364.1,17.4c0,.2,0,.4,0,.5.2.9,1,1.4,1.8,1.4,1.3,0,2.1-1.1,2.1-2.6s-.7-2.5-2-2.5-1.6.6-1.9,1.5c0,.2,0,.3,0,.5v1.2Z"/>
      <path class="st14" d="M377,16.7c0,2.5-1.8,3.6-3.4,3.6s-3.2-1.3-3.2-3.5,1.5-3.6,3.4-3.6,3.3,1.4,3.3,3.5ZM371.6,16.8c0,1.5.8,2.6,2,2.6s2.1-1.1,2.1-2.6-.6-2.6-2-2.6-2.1,1.3-2.1,2.6Z"/>
      <path class="st14" d="M380,11.8v1.6h1.8v.9h-1.8v3.7c0,.8.2,1.3.9,1.3s.5,0,.7,0v.9c-.2,0-.6.2-1,.2s-1-.2-1.3-.5c-.3-.4-.5-1-.5-1.8v-3.7h-1.1v-.9h1.1v-1.3l1.2-.4Z"/>
    </g>
    <rect class="st2" x="233.7" y="256.7" width="73" height="30.6"/>
    <rect class="st15" x="309.3" y="256.7" width="72.8" height="30.6"/>
    <rect class="st6" x="384.7" y="256.7" width="73" height="30.6"/>
    <rect class="st11" x="460.1" y="256.5" width="73" height="30.8"/>
    <rect class="st9" x="158.4" y="256.7" width="73" height="30.6"/>
    <g>
      <path class="st8" d="M180.6,271.7c0-.7,0-1.3,0-1.8h1.1v1.1h0c.3-.6,1.1-1.3,2.2-1.3s2.4.6,2.4,2.9v4h-1.2v-3.9c0-1.1-.4-2-1.6-2s-1.4.6-1.7,1.3c0,.2,0,.4,0,.6v4.1h-1.2v-4.9Z"/>
      <path class="st8" d="M194.5,273.2c0,2.5-1.8,3.6-3.4,3.6s-3.2-1.3-3.2-3.5,1.5-3.6,3.4-3.6,3.3,1.4,3.3,3.5ZM189.2,273.3c0,1.5.8,2.6,2,2.6s2.1-1.1,2.1-2.6-.6-2.6-2-2.6-2.1,1.3-2.1,2.6Z"/>
      <path class="st8" d="M196.1,271.7c0-.7,0-1.3,0-1.8h1.1v1.1h0c.3-.6,1.1-1.3,2.2-1.3s2.4.6,2.4,2.9v4h-1.2v-3.9c0-1.1-.4-2-1.6-2s-1.4.6-1.7,1.3c0,.2,0,.4,0,.6v4.1h-1.2v-4.9Z"/>
      <path class="st8" d="M204.5,273.5c0,1.7,1.1,2.4,2.3,2.4s1.4-.2,1.9-.4l.2.9c-.4.2-1.2.4-2.3.4-2.1,0-3.3-1.4-3.3-3.4s1.2-3.6,3.2-3.6,2.8,1.9,2.8,3.2,0,.4,0,.6h-4.8ZM208.1,272.6c0-.8-.3-2-1.7-2s-1.8,1.1-1.9,2h3.6Z"/>
    </g>
    <g>
      <path class="st8" d="M472.1,266.7h1.2v9.9h-1.2v-9.9Z"/>
      <path class="st8" d="M476.7,268c0,.4-.3.8-.8.8s-.7-.3-.7-.8.3-.8.8-.8.8.3.8.8ZM475.4,276.7v-6.8h1.2v6.8h-1.2Z"/>
      <path class="st8" d="M478.8,276.7v-5.8h-.9v-.9h.9v-.3c0-1,.2-1.8.8-2.4.5-.4,1.1-.6,1.7-.6s.8,0,1.1.2l-.2,1c-.2,0-.4-.2-.8-.2-1,0-1.3.9-1.3,2v.4h1.6v.9h-1.6v5.8h-1.2Z"/>
      <path class="st8" d="M483.3,273.5c0,1.7,1.1,2.4,2.3,2.4s1.4-.2,1.9-.4l.2.9c-.4.2-1.2.4-2.3.4-2.1,0-3.3-1.4-3.3-3.4s1.2-3.6,3.2-3.6,2.8,1.9,2.8,3.2,0,.4,0,.6h-4.8ZM486.9,272.6c0-.8-.3-2-1.7-2s-1.8,1.1-1.9,2h3.6Z"/>
      <path class="st8" d="M494.4,276.4c-.3.2-1,.4-1.9.4-2,0-3.4-1.4-3.4-3.5s1.4-3.6,3.6-3.6,1.4.2,1.7.4l-.3.9c-.3-.2-.8-.3-1.4-.3-1.6,0-2.4,1.2-2.4,2.6s1,2.5,2.4,2.5,1.2-.2,1.5-.3l.2.9Z"/>
      <path class="st8" d="M496.6,269.9l1.5,4c.2.4.3,1,.4,1.4h0c.1-.4.3-.9.4-1.4l1.3-4h1.3l-1.8,4.8c-.9,2.3-1.5,3.5-2.3,4.2-.6.5-1.2.7-1.5.8l-.3-1c.3,0,.7-.3,1.1-.6.3-.3.7-.7,1-1.4,0-.1,0-.2,0-.3s0-.2,0-.3l-2.5-6.2h1.3Z"/>
      <path class="st8" d="M507.4,276.4c-.3.2-1,.4-1.9.4-2,0-3.4-1.4-3.4-3.5s1.4-3.6,3.6-3.6,1.4.2,1.7.4l-.3.9c-.3-.2-.8-.3-1.4-.3-1.6,0-2.4,1.2-2.4,2.6s1,2.5,2.4,2.5,1.2-.2,1.5-.3l.2.9Z"/>
      <path class="st8" d="M508.8,266.7h1.2v9.9h-1.2v-9.9Z"/>
      <path class="st8" d="M512.8,273.5c0,1.7,1.1,2.4,2.3,2.4s1.4-.2,1.9-.4l.2.9c-.4.2-1.2.4-2.3.4-2.1,0-3.3-1.4-3.3-3.4s1.2-3.6,3.2-3.6,2.8,1.9,2.8,3.2,0,.4,0,.6h-4.8ZM516.4,272.6c0-.8-.3-2-1.7-2s-1.8,1.1-1.9,2h3.6Z"/>
    </g>
    <g>
      <path class="st8" d="M396.3,269.9l.9,3.4c.2.8.4,1.5.5,2.2h0c.2-.7.4-1.4.6-2.1l1.1-3.5h1l1.1,3.4c.3.8.4,1.5.6,2.2h0c.1-.7.3-1.4.5-2.2l1-3.4h1.2l-2.2,6.8h-1.1l-1-3.2c-.2-.8-.4-1.4-.6-2.2h0c-.2.8-.4,1.5-.6,2.2l-1.1,3.2h-1.1l-2-6.8h1.3Z"/>
      <path class="st8" d="M412.1,273.2c0,2.5-1.8,3.6-3.4,3.6s-3.2-1.3-3.2-3.5,1.5-3.6,3.4-3.6,3.3,1.4,3.3,3.5ZM406.8,273.3c0,1.5.8,2.6,2,2.6s2.1-1.1,2.1-2.6-.6-2.6-2-2.6-2.1,1.3-2.1,2.6Z"/>
      <path class="st8" d="M413.7,272c0-.8,0-1.5,0-2.1h1.1v1.3h0c.3-.9,1.1-1.5,1.9-1.5s.2,0,.3,0v1.2c-.1,0-.3,0-.4,0-.9,0-1.5.6-1.7,1.6,0,.2,0,.4,0,.6v3.6h-1.2v-4.7Z"/>
      <path class="st8" d="M419.5,273h0c.2-.2.4-.5.6-.8l2-2.3h1.5l-2.6,2.8,3,4h-1.5l-2.3-3.2-.6.7v2.5h-1.2v-9.9h1.2v6.3Z"/>
    </g>
    <path class="st8" d="M425,276.7v-5.8h-.9v-.9h.9v-.3c0-1,.3-1.8,1-2.3.5-.4,1.2-.7,2.2-.7s1.5.2,2,.4v9.7h-1.2v-9c-.2-.1-.5-.2-1-.2-1.3,0-1.7.9-1.7,2v.4h1.6v.9h-1.6v5.8h-1.2Z"/>
    <g>
      <path class="st8" d="M438.3,273.2c0,2.5-1.8,3.6-3.4,3.6s-3.2-1.3-3.2-3.5,1.5-3.6,3.4-3.6,3.3,1.4,3.3,3.5ZM433,273.3c0,1.5.8,2.6,2,2.6s2.1-1.1,2.1-2.6-.6-2.6-2-2.6-2.1,1.3-2.1,2.6Z"/>
      <path class="st8" d="M440.3,269.9l.9,3.4c.2.8.4,1.5.5,2.2h0c.2-.7.4-1.4.6-2.1l1.1-3.5h1l1.1,3.4c.3.8.4,1.5.6,2.2h0c.1-.7.3-1.4.5-2.2l1-3.4h1.2l-2.2,6.8h-1.1l-1-3.2c-.2-.8-.4-1.4-.6-2.2h0c-.2.8-.4,1.5-.6,2.2l-1.1,3.2h-1.1l-2-6.8h1.3Z"/>
    </g>
    <g>
      <path class="st8" d="M259.3,275.4c.4.2,1,.5,1.6.5.9,0,1.3-.4,1.3-1s-.3-.9-1.2-1.2c-1.2-.4-1.8-1.1-1.8-1.9s.9-2,2.3-2,1.3.2,1.7.4l-.3.9c-.3-.2-.8-.4-1.4-.4s-1.1.4-1.1.9.4.8,1.3,1.2c1.2.4,1.8,1,1.8,2s-.9,2-2.5,2-1.4-.2-1.9-.5l.3-.9Z"/>
      <path class="st8" d="M266.5,268.3v1.6h1.8v.9h-1.8v3.7c0,.8.2,1.3.9,1.3s.5,0,.7,0v.9c-.2,0-.6.2-1,.2s-1-.2-1.3-.5c-.3-.4-.5-1-.5-1.8v-3.7h-1.1v-.9h1.1v-1.3l1.2-.4Z"/>
      <path class="st8" d="M270.3,273.5c0,1.7,1.1,2.4,2.3,2.4s1.4-.2,1.9-.4l.2.9c-.4.2-1.2.4-2.3.4-2.1,0-3.3-1.4-3.3-3.4s1.2-3.6,3.2-3.6,2.8,1.9,2.8,3.2,0,.4,0,.6h-4.8ZM273.9,272.6c0-.8-.3-2-1.7-2s-1.8,1.1-1.9,2h3.6Z"/>
      <path class="st8" d="M276.6,272.1c0-.9,0-1.6,0-2.2h1.1v1.2h0c.5-.8,1.3-1.3,2.4-1.3,1.7,0,2.9,1.4,2.9,3.4s-1.5,3.6-3.1,3.6-1.7-.4-2.1-1.1h0v3.7h-1.2v-7.3ZM277.8,273.9c0,.2,0,.4,0,.5.2.9,1,1.4,1.8,1.4,1.3,0,2.1-1.1,2.1-2.6s-.7-2.5-2-2.5-1.6.6-1.9,1.5c0,.2,0,.3,0,.5v1.2Z"/>
    </g>
    <g>
      <path class="st8" d="M337.5,268.3v1.6h1.8v.9h-1.8v3.7c0,.8.2,1.3.9,1.3s.5,0,.7,0v.9c-.2,0-.6.2-1,.2s-1-.2-1.3-.5c-.3-.4-.5-1-.5-1.8v-3.7h-1.1v-.9h1.1v-1.3l1.2-.4Z"/>
      <path class="st8" d="M345.4,275.1c0,.6,0,1.2,0,1.6h-1.1v-.9h-.1c-.4.5-1.1,1-2.1,1-1.4,0-2.1-1-2.1-1.9,0-1.6,1.5-2.5,4.1-2.5h0c0-.7-.2-1.7-1.5-1.7-.6,0-1.3.2-1.8.5l-.3-.8c.6-.3,1.4-.6,2.2-.6,2.1,0,2.6,1.4,2.6,2.8v2.5ZM344.2,273.2c-1.3,0-2.9.2-2.9,1.5s.5,1.2,1.1,1.2c.9,0,1.5-.6,1.7-1.1,0-.1,0-.3,0-.4v-1.2Z"/>
      <path class="st8" d="M347.2,275.4c.4.2,1,.5,1.6.5.9,0,1.3-.4,1.3-1s-.3-.9-1.2-1.2c-1.2-.4-1.8-1.1-1.8-1.9s.9-2,2.3-2,1.3.2,1.7.4l-.3.9c-.3-.2-.8-.4-1.4-.4s-1.1.4-1.1.9.4.8,1.3,1.2c1.2.4,1.8,1,1.8,2s-.9,2-2.5,2-1.4-.2-1.9-.5l.3-.9Z"/>
      <path class="st8" d="M354.2,273h0c.2-.2.4-.5.6-.8l2-2.3h1.5l-2.6,2.8,3,4h-1.5l-2.3-3.2-.6.7v2.5h-1.2v-9.9h1.2v6.3Z"/>
    </g>
    <g>
      <path class="st15" d="M22.4,271.2c0,3.2-2,5-4.4,5s-4.2-1.9-4.2-4.8,1.8-5,4.4-5,4.3,2,4.3,4.8ZM15.1,271.3c0,2,1.1,3.8,3,3.8s3-1.8,3-3.9-1-3.9-3-3.9-3,1.9-3,3.9Z"/>
      <path class="st15" d="M23.9,266h1.2v4.3h0c.4-.8,1.2-1.2,2.3-1.2,1.7,0,2.9,1.4,2.9,3.4s-1.5,3.6-3.1,3.6-1.8-.4-2.3-1.3h0v1.1h-1.1c0-.5,0-1.1,0-1.8v-8.2ZM25.2,273.3c0,.2,0,.3,0,.4.2.9,1,1.4,1.8,1.4,1.3,0,2.1-1.1,2.1-2.6s-.7-2.5-2-2.5-1.6.6-1.9,1.5c0,.2,0,.3,0,.5v1.2Z"/>
      <path class="st15" d="M30.2,278c.6,0,1.1-.2,1.3-.5.3-.4.5-.9.5-2.5v-5.7h1.2v6.2c0,1.3-.2,2.2-.8,2.8-.5.5-1.4.8-2.1.8v-1ZM33.4,267.3c0,.4-.3.8-.8.8s-.7-.4-.7-.8.3-.8.8-.8.8.4.8.8Z"/>
      <path class="st15" d="M36,272.8c0,1.7,1.1,2.4,2.3,2.4s1.4-.2,1.9-.3l.2.9c-.4.2-1.2.4-2.3.4-2.1,0-3.3-1.4-3.3-3.4s1.2-3.6,3.2-3.6,2.8,1.9,2.8,3.2,0,.4,0,.6h-4.8ZM39.6,271.9c0-.8-.3-2-1.7-2s-1.8,1.1-1.9,2h3.6Z"/>
      <path class="st15" d="M47.2,275.8c-.3.2-1,.4-1.9.4-2,0-3.4-1.4-3.4-3.5s1.4-3.6,3.6-3.6,1.4.2,1.7.4l-.3.9c-.3-.2-.8-.3-1.4-.3-1.6,0-2.4,1.2-2.4,2.6s1,2.5,2.4,2.5,1.2-.2,1.5-.3l.2.9Z"/>
      <path class="st15" d="M50.3,267.6v1.6h1.8v.9h-1.8v3.7c0,.8.2,1.3.9,1.3s.5,0,.7,0v.9c-.2,0-.6.2-1,.2s-1-.2-1.3-.5c-.3-.4-.5-1-.5-1.8v-3.7h-1.1v-.9h1.1v-1.3l1.2-.4Z"/>
      <path class="st15" d="M54.8,267.3c0,.4-.3.8-.8.8s-.7-.3-.7-.8.3-.8.8-.8.8.3.8.8ZM53.4,276v-6.8h1.2v6.8h-1.2Z"/>
      <path class="st15" d="M57.2,269.2l1.3,3.8c.2.6.4,1.2.5,1.8h0c.2-.6.4-1.1.6-1.8l1.3-3.8h1.3l-2.7,6.8h-1.2l-2.6-6.8h1.3Z"/>
      <path class="st15" d="M64,272.8c0,1.7,1.1,2.4,2.3,2.4s1.4-.2,1.9-.3l.2.9c-.4.2-1.2.4-2.3.4-2.1,0-3.3-1.4-3.3-3.4s1.2-3.6,3.2-3.6,2.8,1.9,2.8,3.2,0,.4,0,.6h-4.8ZM67.6,271.9c0-.8-.3-2-1.7-2s-1.8,1.1-1.9,2h3.6Z"/>
    </g>
    <path class="st1" d="M230.6,5.8c0-2.5,2.4-4.5,5.4-4.5h220c3,0,5.4,2,5.4,4.5v484.2c0,2.5-2.4,4.5-5.4,4.5h-220c-3,0-5.4-2-5.4-4.5V5.8Z"/>
  </g>
</svg>