<?xml version="1.0" encoding="UTF-8"?>
<svg id="Layer_1" xmlns="http://www.w3.org/2000/svg" xmlns:xlink="http://www.w3.org/1999/xlink" version="1.1" viewBox="0 0 386 373">
  <!-- Generator: Adobe Illustrator 30.4.0, SVG Export Plug-In . SVG Version: 2.1.4 Build 226)  -->
  <defs>
    <style>
      .st0, .st1, .st2 {
        fill: none;
      }

      .st1 {
        stroke-linecap: round;
        stroke-linejoin: round;
      }

      .st1, .st2 {
        stroke: #000;
      }

      .st3 {
        fill: #fff;
      }

      .st4 {
        fill: #7db4ea;
      }

      .st2 {
        stroke-miterlimit: 10;
      }

      .st5 {
        fill: #494949;
      }

      .st6 {
        fill: #b26914;
      }

      .st7 {
        clip-path: url(#clippath);
      }

      .st8 {
        fill: #1167b2;
      }
    </style>
    <clipPath id="clippath">
      <rect class="st0" width="386" height="373"/>
    </clipPath>
  </defs>
  <g class="st7">
    <rect class="st3" width="386" height="373"/>
    <rect class="st3" width="386" height="373"/>
    <rect class="st8" x="0" y="204.5" width="118.4" height="45.4" rx="4" ry="4"/>
    <rect class="st6" x="0" y="105.3" width="385.5" height="45.4" rx="4" ry="4"/>
    <g>
      <path class="st3" d="M49.7,222.7l-.7,2.3h-1.5l2.6-8.1h1.9l2.6,8.1h-1.6l-.7-2.3h-2.6ZM52,221.6l-.6-2c-.2-.5-.3-1-.4-1.5h0c-.1.5-.3,1-.4,1.5l-.6,2h2.1Z"/>
      <path class="st3" d="M55.7,223.4c.5.3,1.2.5,2,.5s1.5-.4,1.5-1.1-.4-1-1.4-1.3c-1.3-.5-2.2-1.2-2.2-2.4s1.1-2.3,2.9-2.3,1.5.2,1.9.4l-.3,1.2c-.3-.2-.9-.4-1.6-.4s-1.3.5-1.3,1,.5.9,1.5,1.3c1.4.5,2.1,1.2,2.1,2.4s-1,2.4-3.1,2.4-1.8-.2-2.2-.5l.3-1.2Z"/>
      <path class="st3" d="M66.5,221.4h-3v2.4h3.4v1.2h-4.9v-8.1h4.7v1.2h-3.2v2.1h3v1.2Z"/>
    </g>
    <g>
      <path class="st3" d="M31.5,239.2c-.3.2-1.1.4-2.1.4-2.6,0-4.1-1.6-4.1-4.1s1.9-4.3,4.3-4.3,1.7.2,2,.4l-.3,1.2c-.4-.2-.9-.3-1.6-.3-1.6,0-2.8,1-2.8,3s1,2.9,2.8,2.9,1.2-.1,1.6-.3l.2,1.2Z"/>
      <path class="st3" d="M38.1,236.5c0,2.1-1.5,3.1-3,3.1s-2.9-1.1-2.9-3,1.3-3.1,3-3.1,2.9,1.2,2.9,3ZM33.7,236.5c0,1.1.6,2,1.5,2s1.4-.8,1.4-2-.4-2-1.4-2-1.5,1-1.5,2Z"/>
      <path class="st3" d="M39.3,235.3c0-.7,0-1.2,0-1.7h1.3v.9h.1c.3-.5.9-1,1.9-1s2.1.7,2.1,2.5v3.5h-1.5v-3.3c0-.8-.3-1.5-1.1-1.5s-1,.4-1.2.9c0,.1,0,.3,0,.5v3.4h-1.5v-4.1Z"/>
      <path class="st3" d="M46.1,238.1c.3.2,1,.4,1.5.4s.9-.3.9-.7-.2-.6-1-.9c-1.1-.4-1.6-1-1.6-1.7,0-1,.9-1.8,2.2-1.8s1.2.2,1.6.3l-.3,1c-.2-.1-.7-.3-1.2-.3s-.8.3-.8.6.3.5,1,.8c1.1.4,1.5.9,1.6,1.8,0,1.1-.8,1.8-2.4,1.8s-1.3-.2-1.8-.4l.3-1.1Z"/>
      <path class="st3" d="M52.9,232.1v1.5h1.4v1.1h-1.4v2.6c0,.7.2,1.1.8,1.1s.4,0,.6,0v1.1c-.2,0-.6.2-1,.2s-1-.2-1.3-.5c-.3-.3-.5-.9-.5-1.6v-2.7h-.8v-1.1h.8v-1.1l1.5-.4Z"/>
      <path class="st3" d="M57,232c0,.4-.3.8-.8.8s-.8-.4-.8-.8.3-.8.8-.8.8.3.8.8ZM55.4,239.4v-5.8h1.5v5.8h-1.5Z"/>
      <path class="st3" d="M60.2,232.1v1.5h1.4v1.1h-1.4v2.6c0,.7.2,1.1.8,1.1s.4,0,.6,0v1.1c-.2,0-.6.2-1,.2s-1-.2-1.3-.5c-.3-.3-.5-.9-.5-1.6v-2.7h-.8v-1.1h.8v-1.1l1.5-.4Z"/>
      <path class="st3" d="M67.9,237.7c0,.7,0,1.3,0,1.8h-1.3v-.9h-.1c-.3.4-.8,1-1.9,1s-2-.6-2-2.5v-3.4h1.5v3.2c0,1,.3,1.6,1.1,1.6s1-.4,1.1-.8c0-.1,0-.3,0-.5v-3.5h1.5v4.1Z"/>
      <path class="st3" d="M71.2,232.1v1.5h1.4v1.1h-1.4v2.6c0,.7.2,1.1.8,1.1s.4,0,.6,0v1.1c-.2,0-.6.2-1,.2s-1-.2-1.3-.5c-.3-.3-.5-.9-.5-1.6v-2.7h-.8v-1.1h.8v-1.1l1.5-.4Z"/>
      <path class="st3" d="M75.3,232c0,.4-.3.8-.8.8s-.8-.4-.8-.8.3-.8.8-.8.8.3.8.8ZM73.7,239.4v-5.8h1.5v5.8h-1.5Z"/>
      <path class="st3" d="M82.3,236.5c0,2.1-1.5,3.1-3,3.1s-2.9-1.1-2.9-3,1.3-3.1,3-3.1,2.9,1.2,2.9,3ZM77.9,236.5c0,1.1.6,2,1.5,2s1.4-.8,1.4-2-.4-2-1.4-2-1.5,1-1.5,2Z"/>
      <path class="st3" d="M83.6,235.3c0-.7,0-1.2,0-1.7h1.3v.9h.1c.3-.5.9-1,1.9-1s2.1.7,2.1,2.5v3.5h-1.5v-3.3c0-.8-.3-1.5-1.1-1.5s-1,.4-1.2.9c0,.1,0,.3,0,.5v3.4h-1.5v-4.1Z"/>
    </g>
    <g>
      <path class="st3" d="M155.7,133.3c-.5.2-1.5.5-2.8.5-3.4,0-5.5-2.1-5.5-5.4s2.5-5.7,5.8-5.7,2.2.3,2.6.5l-.4,1.6c-.5-.2-1.2-.4-2.1-.4-2.2,0-3.8,1.4-3.8,4s1.4,3.9,3.8,3.9,1.6-.2,2.1-.4l.3,1.6Z"/>
      <path class="st3" d="M157.2,122.2h2v11.4h-2v-11.4Z"/>
      <path class="st3" d="M167.4,131.7c0,.7,0,1.4.1,1.9h-1.8v-.9h-.2c-.5.6-1.3,1-2.3,1-1.6,0-2.4-1.1-2.4-2.3,0-2,1.7-3,4.6-2.9h0c0-.6-.2-1.5-1.6-1.5s-1.6.2-2.1.6l-.4-1.3c.6-.4,1.6-.7,2.8-.7,2.5,0,3.2,1.6,3.2,3.3v2.8ZM165.4,129.8c-1.4,0-2.7.3-2.7,1.5s.5,1.1,1.1,1.1,1.4-.5,1.6-1.1c0-.1,0-.3,0-.4v-1.1Z"/>
      <path class="st3" d="M176.4,131.3c0,.9,0,1.7,0,2.3h-1.7v-1.2h-.1c-.3.5-1.1,1.3-2.5,1.3s-2.7-.8-2.7-3.4v-4.6h2v4.2c0,1.3.4,2.1,1.5,2.1s1.3-.5,1.5-1.1c0-.2.1-.4.1-.6v-4.7h2v5.5Z"/>
      <path class="st3" d="M185.7,122.2v9.2c0,.8,0,1.7,0,2.2h-1.7v-1.2h-.1c-.5.9-1.4,1.4-2.5,1.4-1.9,0-3.3-1.6-3.3-4,0-2.6,1.6-4.2,3.5-4.2s1.8.4,2.2,1h0v-4.4h2ZM183.8,129.1c0-.2,0-.4,0-.5-.2-.8-.8-1.4-1.7-1.4s-2,1.1-2,2.6.7,2.5,2,2.5,1.5-.5,1.7-1.4c0-.2,0-.4,0-.6v-1.2Z"/>
      <path class="st3" d="M189.2,130.3c0,1.4,1.1,2,2.4,2s1.6-.1,2.2-.4l.3,1.3c-.7.3-1.6.5-2.7.5-2.5,0-4-1.6-4-3.9s1.3-4.2,3.8-4.2,3.4,2.1,3.4,3.8,0,.7,0,.8h-5.2ZM192.7,128.9c0-.7-.3-1.9-1.6-1.9s-1.7,1.1-1.8,1.9h3.4Z"/>
      <path class="st3" d="M207.2,133.3c-.5.2-1.5.5-2.8.5-3.4,0-5.5-2.1-5.5-5.4s2.5-5.7,5.8-5.7,2.2.3,2.6.5l-.4,1.6c-.5-.2-1.2-.4-2.1-.4-2.2,0-3.8,1.4-3.8,4s1.4,3.9,3.8,3.9,1.6-.2,2.1-.4l.3,1.6Z"/>
      <path class="st3" d="M216,129.6c0,2.9-2,4.1-4,4.1s-3.9-1.5-3.9-4,1.7-4.1,4-4.1,3.9,1.6,3.9,4ZM210.1,129.7c0,1.5.8,2.6,1.9,2.6s1.9-1.1,1.9-2.7-.5-2.6-1.9-2.6-2,1.4-2,2.7Z"/>
      <path class="st3" d="M224.8,122.2v9.2c0,.8,0,1.7,0,2.2h-1.7v-1.2h-.1c-.5.9-1.4,1.4-2.5,1.4-1.9,0-3.3-1.6-3.3-4,0-2.6,1.6-4.2,3.5-4.2s1.8.4,2.2,1h0v-4.4h2ZM222.8,129.1c0-.2,0-.4,0-.5-.2-.8-.8-1.4-1.7-1.4s-2,1.1-2,2.6.7,2.5,2,2.5,1.5-.5,1.7-1.4c0-.2,0-.4,0-.6v-1.2Z"/>
      <path class="st3" d="M228.3,130.3c0,1.4,1.1,2,2.4,2s1.6-.1,2.2-.4l.3,1.3c-.7.3-1.6.5-2.7.5-2.5,0-4-1.6-4-3.9s1.3-4.2,3.8-4.2,3.4,2.1,3.4,3.8,0,.7,0,.8h-5.2ZM231.7,128.9c0-.7-.3-1.9-1.6-1.9s-1.7,1.1-1.8,1.9h3.4Z"/>
    </g>
    <rect class="st8" x="126.3" y="280.4" width="133.2" height="45.4" rx="4" ry="4"/>
    <g>
      <path class="st3" d="M172.9,298.4l-.7,2.3h-1.5l2.6-8.1h1.9l2.6,8.1h-1.6l-.7-2.3h-2.6ZM175.3,297.3l-.6-2c-.2-.5-.3-1-.4-1.5h0c-.1.5-.3,1-.4,1.5l-.6,2h2.1Z"/>
      <path class="st3" d="M178.9,299.1c.5.3,1.2.5,2,.5s1.5-.4,1.5-1.1-.4-1-1.4-1.3c-1.3-.5-2.2-1.2-2.2-2.4s1.1-2.3,2.9-2.3,1.5.2,1.9.4l-.3,1.2c-.3-.2-.9-.4-1.6-.4s-1.3.5-1.3,1,.5.9,1.5,1.3c1.4.5,2.1,1.2,2.1,2.4s-1,2.4-3.1,2.4-1.8-.2-2.2-.5l.3-1.2Z"/>
      <path class="st3" d="M189.7,297.1h-3v2.4h3.4v1.2h-4.9v-8.1h4.7v1.2h-3.2v2.1h3v1.2Z"/>
      <path class="st3" d="M193.8,299.1c.5.3,1.2.5,2,.5s1.5-.4,1.5-1.1-.4-1-1.4-1.3c-1.3-.5-2.2-1.2-2.2-2.4s1.1-2.3,2.9-2.3,1.5.2,1.9.4l-.3,1.2c-.3-.2-.9-.4-1.6-.4s-1.3.5-1.3,1,.5.9,1.5,1.3c1.4.5,2.1,1.2,2.1,2.4s-1,2.4-3.1,2.4-1.8-.2-2.2-.5l.3-1.2Z"/>
      <path class="st3" d="M201.5,297.4h0c.1-.2.3-.5.5-.7l1.4-1.9h1.8l-2.2,2.4,2.5,3.5h-1.8l-1.7-2.6-.5.6v2h-1.5v-8.5h1.5v5.2Z"/>
      <path class="st3" d="M207.8,293.2c0,.4-.3.8-.8.8s-.8-.4-.8-.8.3-.8.8-.8.8.3.8.8ZM206.2,300.7v-5.8h1.5v5.8h-1.5Z"/>
      <path class="st3" d="M209.3,292.2h1.5v8.5h-1.5v-8.5Z"/>
      <path class="st3" d="M212.4,292.2h1.5v8.5h-1.5v-8.5Z"/>
      <path class="st3" d="M215.4,299.3c.3.2,1,.4,1.5.4s.9-.3.9-.7-.2-.6-1-.9c-1.1-.4-1.6-1-1.6-1.7,0-1,.9-1.8,2.2-1.8s1.2.2,1.6.3l-.3,1c-.2-.1-.7-.3-1.2-.3s-.8.3-.8.6.3.5,1,.8c1.1.4,1.5.9,1.6,1.8,0,1.1-.8,1.8-2.4,1.8s-1.3-.2-1.8-.4l.3-1.1Z"/>
    </g>
    <g>
      <path class="st3" d="M157.3,311.8c0-1-.1-2.3,0-3.4h0c-.3,1-.6,2.1-1,3.1l-1.2,3.5h-1.1l-1.1-3.5c-.3-1-.6-2.1-.8-3.1h0c0,1.1,0,2.3-.1,3.4l-.2,3.2h-1.4l.5-8.1h1.9l1.1,3.2c.3.9.5,1.9.7,2.8h0c.2-.9.5-1.9.8-2.8l1.1-3.2h1.9l.5,8.1h-1.4l-.2-3.3Z"/>
      <path class="st3" d="M161.4,312.6c0,1.1.9,1.5,1.8,1.5s1.2-.1,1.6-.3l.2,1c-.5.2-1.2.4-2,.4-1.9,0-3-1.2-3-3s1-3.1,2.9-3.1,2.5,1.6,2.5,2.8,0,.5,0,.6h-3.9ZM164,311.5c0-.5-.2-1.4-1.2-1.4s-1.3.8-1.4,1.4h2.6Z"/>
      <path class="st3" d="M168.3,307.7v1.5h1.4v1.1h-1.4v2.6c0,.7.2,1.1.8,1.1s.4,0,.6,0v1.1c-.2,0-.6.2-1,.2s-1-.2-1.3-.5c-.3-.3-.5-.9-.5-1.6v-2.7h-.8v-1.1h.8v-1.1l1.5-.4Z"/>
      <path class="st3" d="M175.3,313.7c0,.5,0,1,0,1.4h-1.3v-.6h-.1c-.3.5-1,.8-1.7.8-1.2,0-1.8-.9-1.8-1.7,0-1.5,1.3-2.2,3.5-2.2h0c0-.5-.2-1.1-1.2-1.1s-1.2.2-1.6.4l-.3-1c.4-.3,1.2-.5,2.1-.5,1.9,0,2.4,1.2,2.4,2.5v2.1ZM173.9,312.2c-1,0-2,.2-2,1.1s.4.8.8.8,1-.4,1.2-.8c0-.1,0-.2,0-.3v-.8Z"/>
      <path class="st3" d="M180.9,307v8.1h-1.5v-8.1h1.5Z"/>
      <path class="st3" d="M182.6,311c0-.7,0-1.2,0-1.7h1.3v.9h.1c.3-.5.9-1,1.9-1s2.1.7,2.1,2.5v3.5h-1.5v-3.3c0-.8-.3-1.5-1.1-1.5s-1,.4-1.2.9c0,.1,0,.3,0,.5v3.4h-1.5v-4.1Z"/>
      <path class="st3" d="M189.6,315.1v-4.7h-.8v-1.1h.8v-.3c0-.8.2-1.5.7-2,.4-.4,1-.6,1.5-.6s.7,0,.9.1v1.1c-.3,0-.5-.1-.7-.1-.7,0-1,.6-1,1.3v.3h1.3v1.1h-1.3v4.7h-1.5Z"/>
      <path class="st3" d="M198.7,312.1c0,2.1-1.5,3.1-3,3.1s-2.9-1.1-2.9-3,1.3-3.1,3-3.1,2.9,1.2,2.9,3ZM194.3,312.2c0,1.1.6,2,1.5,2s1.4-.8,1.4-2-.4-2-1.4-2-1.5,1-1.5,2Z"/>
      <path class="st3" d="M199.9,311.1c0-.8,0-1.4,0-1.9h1.3v1.1h0c.3-.8,1-1.2,1.6-1.2s.2,0,.3,0v1.4c-.1,0-.3,0-.4,0-.7,0-1.2.4-1.3,1.1,0,.1,0,.3,0,.4v3h-1.5v-4Z"/>
      <path class="st3" d="M204.2,311c0-.7,0-1.2,0-1.7h1.3v.9h.1c.3-.5.8-1,1.8-1s1.4.4,1.6,1.1h0c.2-.3.4-.6.7-.7.3-.2.7-.3,1.2-.3,1,0,1.9.7,1.9,2.5v3.4h-1.4v-3.2c0-1-.3-1.5-1-1.5s-.9.4-1,.8c0,.1,0,.3,0,.5v3.5h-1.4v-3.4c0-.8-.3-1.4-1-1.4s-.9.4-1.1.8c0,.2,0,.3,0,.5v3.5h-1.4v-4.1Z"/>
      <path class="st3" d="M218.9,313.7c0,.5,0,1,0,1.4h-1.3v-.6h-.1c-.3.5-1,.8-1.7.8-1.2,0-1.8-.9-1.8-1.7,0-1.5,1.3-2.2,3.5-2.2h0c0-.5-.2-1.1-1.2-1.1s-1.2.2-1.6.4l-.3-1c.4-.3,1.2-.5,2.1-.5,1.9,0,2.4,1.2,2.4,2.5v2.1ZM217.5,312.2c-1,0-2,.2-2,1.1s.4.8.8.8,1-.4,1.2-.8c0-.1,0-.2,0-.3v-.8Z"/>
      <path class="st3" d="M222.1,307.7v1.5h1.4v1.1h-1.4v2.6c0,.7.2,1.1.8,1.1s.4,0,.6,0v1.1c-.2,0-.6.2-1,.2s-1-.2-1.3-.5c-.3-.3-.5-.9-.5-1.6v-2.7h-.8v-1.1h.8v-1.1l1.5-.4Z"/>
      <path class="st3" d="M226.2,307.6c0,.4-.3.8-.8.8s-.8-.4-.8-.8.3-.8.8-.8.8.3.8.8ZM224.6,315.1v-5.8h1.5v5.8h-1.5Z"/>
      <path class="st3" d="M233.3,312.1c0,2.1-1.5,3.1-3,3.1s-2.9-1.1-2.9-3,1.3-3.1,3-3.1,2.9,1.2,2.9,3ZM228.9,312.2c0,1.1.6,2,1.5,2s1.4-.8,1.4-2-.4-2-1.4-2-1.5,1-1.5,2Z"/>
      <path class="st3" d="M234.5,311c0-.7,0-1.2,0-1.7h1.3v.9h.1c.3-.5.9-1,1.9-1s2.1.7,2.1,2.5v3.5h-1.5v-3.3c0-.8-.3-1.5-1.1-1.5s-1,.4-1.2.9c0,.1,0,.3,0,.5v3.4h-1.5v-4.1Z"/>
    </g>
    <rect class="st8" x="267.1" y="156.3" width="118.4" height="45.4" rx="4" ry="4"/>
    <g>
      <path class="st3" d="M304.8,174.5l-.7,2.3h-1.5l2.6-8.1h1.9l2.6,8.1h-1.6l-.7-2.3h-2.6ZM307.1,173.4l-.6-2c-.2-.5-.3-1-.4-1.5h0c-.1.5-.3,1-.4,1.5l-.6,2h2.1Z"/>
      <path class="st3" d="M310.8,175.2c.5.3,1.2.5,2,.5s1.5-.4,1.5-1.1-.4-1-1.4-1.3c-1.3-.5-2.2-1.2-2.2-2.4s1.1-2.3,2.9-2.3,1.5.2,1.9.4l-.3,1.2c-.3-.2-.9-.4-1.6-.4s-1.3.5-1.3,1,.5.9,1.5,1.3c1.4.5,2.1,1.2,2.1,2.4s-1,2.4-3.1,2.4-1.8-.2-2.2-.5l.3-1.2Z"/>
      <path class="st3" d="M321.6,173.3h-3v2.4h3.4v1.2h-4.9v-8.1h4.7v1.2h-3.2v2.1h3v1.2Z"/>
      <path class="st3" d="M326.8,170h-2.3v-1.2h6.1v1.2h-2.3v6.8h-1.5v-6.8Z"/>
      <path class="st3" d="M336.1,173.9c0,2.1-1.5,3.1-3,3.1s-2.9-1.1-2.9-3,1.3-3.1,3-3.1,2.9,1.2,2.9,3ZM331.7,173.9c0,1.1.6,2,1.5,2s1.4-.8,1.4-2-.4-2-1.4-2-1.5,1-1.5,2Z"/>
      <path class="st3" d="M342.9,173.9c0,2.1-1.5,3.1-3,3.1s-2.9-1.1-2.9-3,1.3-3.1,3-3.1,2.9,1.2,2.9,3ZM338.5,173.9c0,1.1.6,2,1.5,2s1.4-.8,1.4-2-.4-2-1.4-2-1.5,1-1.5,2Z"/>
      <path class="st3" d="M344.1,168.3h1.5v8.5h-1.5v-8.5Z"/>
    </g>
    <g>
      <path class="st3" d="M320.2,187.9c0-1-.1-2.3,0-3.4h0c-.3,1-.6,2.1-1,3.1l-1.2,3.5h-1.1l-1.1-3.5c-.3-1-.6-2.1-.8-3.1h0c0,1.1,0,2.3-.1,3.4l-.2,3.2h-1.4l.5-8.1h1.9l1.1,3.2c.3.9.5,1.9.7,2.8h0c.2-.9.5-1.9.8-2.8l1.1-3.2h1.9l.5,8.1h-1.4l-.2-3.3Z"/>
      <path class="st3" d="M329.1,191c-.3.2-1.1.4-2.1.4-2.6,0-4.1-1.6-4.1-4.1s1.9-4.3,4.3-4.3,1.7.2,2,.4l-.3,1.2c-.4-.2-.9-.3-1.6-.3-1.6,0-2.8,1-2.8,3s1,2.9,2.8,2.9,1.2-.1,1.6-.3l.2,1.2Z"/>
      <path class="st3" d="M330.3,183.3c.5,0,1.3-.2,2.3-.2s1.9.2,2.4.7c.5.4.8,1,.8,1.8s-.2,1.4-.7,1.8c-.6.6-1.5.9-2.6.9s-.5,0-.7,0v3.1h-1.5v-8ZM331.8,187c.2,0,.4,0,.7,0,1.1,0,1.8-.6,1.8-1.5s-.6-1.4-1.6-1.4-.7,0-.9,0v2.7Z"/>
    </g>
    <rect class="st8" x="267.1" y="204.5" width="118.4" height="45.4" rx="4" ry="4"/>
    <g>
      <path class="st3" d="M308.3,222.7l-.7,2.3h-1.5l2.6-8.1h1.9l2.6,8.1h-1.6l-.7-2.3h-2.6ZM310.6,221.6l-.6-2c-.2-.5-.3-1-.4-1.5h0c-.1.5-.3,1-.4,1.5l-.6,2h2.1Z"/>
      <path class="st3" d="M314.3,223.4c.5.3,1.2.5,2,.5s1.5-.4,1.5-1.1-.4-1-1.4-1.3c-1.3-.5-2.2-1.2-2.2-2.4s1.1-2.3,2.9-2.3,1.5.2,1.9.4l-.3,1.2c-.3-.2-.9-.4-1.6-.4s-1.3.5-1.3,1,.5.9,1.5,1.3c1.4.5,2.1,1.2,2.1,2.4s-1,2.4-3.1,2.4-1.8-.2-2.2-.5l.3-1.2Z"/>
      <path class="st3" d="M325,221.4h-3v2.4h3.4v1.2h-4.9v-8.1h4.7v1.2h-3.2v2.1h3v1.2Z"/>
      <path class="st3" d="M330.3,218.2h-2.3v-1.2h6.1v1.2h-2.3v6.8h-1.5v-6.8Z"/>
      <path class="st3" d="M339.6,222.1c0,2.1-1.5,3.1-3,3.1s-2.9-1.1-2.9-3,1.3-3.1,3-3.1,2.9,1.2,2.9,3ZM335.2,222.1c0,1.1.6,2,1.5,2s1.4-.8,1.4-2-.4-2-1.4-2-1.5,1-1.5,2Z"/>
      <path class="st3" d="M346.4,222.1c0,2.1-1.5,3.1-3,3.1s-2.9-1.1-2.9-3,1.3-3.1,3-3.1,2.9,1.2,2.9,3ZM342,222.1c0,1.1.6,2,1.5,2s1.4-.8,1.4-2-.4-2-1.4-2-1.5,1-1.5,2Z"/>
      <path class="st3" d="M347.6,216.5h1.5v8.5h-1.5v-8.5Z"/>
    </g>
    <g>
      <path class="st3" d="M326.4,239.2c-.3.2-1.1.4-2.1.4-2.6,0-4.1-1.6-4.1-4.1s1.9-4.3,4.3-4.3,1.7.2,2,.4l-.3,1.2c-.4-.2-.9-.3-1.6-.3-1.6,0-2.8,1-2.8,3s1,2.9,2.8,2.9,1.2-.1,1.6-.3l.2,1.2Z"/>
      <path class="st3" d="M327.7,231.3h1.5v6.8h3.3v1.2h-4.8v-8.1Z"/>
      <path class="st3" d="M335,231.3v8.1h-1.5v-8.1h1.5Z"/>
    </g>
    <rect class="st8" x="126.3" y="156.3" width="31.2" height="118.4" rx="4" ry="4"/>
    <g>
      <path class="st3" d="M144.8,237.6l2.3.7v1.5l-8.1-2.6v-1.9l8.1-2.6v1.6l-2.3.7v2.6ZM143.7,235.3l-2,.6c-.5.2-1,.3-1.5.4h0c.5.1,1,.3,1.5.4l2,.6v-2.1Z"/>
      <path class="st3" d="M145.5,231.6c.3-.5.5-1.2.5-2s-.4-1.5-1.1-1.5-1,.4-1.3,1.4c-.5,1.3-1.2,2.2-2.4,2.2s-2.3-1.1-2.3-2.9.2-1.5.4-1.9l1.2.3c-.2.3-.4.9-.4,1.6s.5,1.3,1,1.3.9-.5,1.3-1.5c.5-1.4,1.2-2.1,2.4-2.1s2.4,1,2.4,3.1-.2,1.8-.5,2.2l-1.2-.3Z"/>
      <path class="st3" d="M143.5,220.9v3h2.4v-3.4h1.2v4.9h-8.1v-4.7h1.2v3.2h2.1v-3h1.2Z"/>
      <path class="st3" d="M145.5,216.8c.3-.5.5-1.2.5-2s-.4-1.5-1.1-1.5-1,.4-1.3,1.4c-.5,1.3-1.2,2.2-2.4,2.2s-2.3-1.1-2.3-2.9.2-1.5.4-1.9l1.2.3c-.2.3-.4.9-.4,1.6s.5,1.3,1,1.3.9-.5,1.3-1.5c.5-1.4,1.2-2.1,2.4-2.1s2.4,1,2.4,3.1-.2,1.8-.5,2.2l-1.2-.3Z"/>
      <path class="st3" d="M143.8,209.1h0c-.2-.2-.5-.3-.7-.5l-1.9-1.4v-1.8l2.4,2.2,3.5-2.5v1.8l-2.6,1.7.6.5h2v1.5h-8.5v-1.5h5.2Z"/>
      <path class="st3" d="M139.7,202.8c.4,0,.8.3.8.8s-.4.8-.8.8-.8-.3-.8-.8.3-.8.8-.8ZM147.1,204.3h-5.8v-1.5h5.8v1.5Z"/>
      <path class="st3" d="M138.6,201.3v-1.5h8.5v1.5h-8.5Z"/>
      <path class="st3" d="M138.6,198.2v-1.5h8.5v1.5h-8.5Z"/>
      <path class="st3" d="M145.8,195.2c.2-.3.4-1,.4-1.5s-.3-.9-.7-.9-.6.2-.9,1c-.4,1.1-1,1.6-1.7,1.6-1,0-1.8-.9-1.8-2.2s.2-1.2.3-1.6l1,.3c-.1.2-.3.7-.3,1.2s.3.8.6.8.5-.3.8-1c.4-1.1.9-1.5,1.8-1.6,1.1,0,1.8.8,1.8,2.4s-.2,1.3-.4,1.8l-1.1-.3Z"/>
    </g>
    <rect class="st8" x="160.4" y="156.3" width="31.2" height="118.4" rx="4" ry="4"/>
    <g>
      <path class="st3" d="M178.8,237.6l2.3.7v1.5l-8.1-2.6v-1.9l8.1-2.6v1.6l-2.3.7v2.6ZM177.7,235.3l-2,.6c-.5.2-1,.3-1.5.4h0c.5.1,1,.3,1.5.4l2,.6v-2.1Z"/>
      <path class="st3" d="M179.5,231.7c.3-.5.5-1.2.5-2s-.4-1.5-1.1-1.5-1,.4-1.3,1.4c-.5,1.3-1.2,2.2-2.4,2.2s-2.3-1.1-2.3-2.9.2-1.5.4-1.9l1.2.3c-.2.3-.4.9-.4,1.6s.5,1.3,1,1.3.9-.5,1.3-1.5c.5-1.4,1.2-2.1,2.4-2.1s2.4,1,2.4,3.1-.2,1.8-.5,2.2l-1.2-.3Z"/>
      <path class="st3" d="M177.6,220.9v3h2.4v-3.4h1.2v4.9h-8.1v-4.7h1.2v3.2h2.1v-3h1.2Z"/>
      <path class="st3" d="M179.5,216.8c.3-.5.5-1.2.5-2s-.4-1.5-1.1-1.5-1,.4-1.3,1.4c-.5,1.3-1.2,2.2-2.4,2.2s-2.3-1.1-2.3-2.9.2-1.5.4-1.9l1.2.3c-.2.3-.4.9-.4,1.6s.5,1.3,1,1.3.9-.5,1.3-1.5c.5-1.4,1.2-2.1,2.4-2.1s2.4,1,2.4,3.1-.2,1.8-.5,2.2l-1.2-.3Z"/>
      <path class="st3" d="M177.9,209.1h0c-.2-.2-.5-.3-.7-.5l-1.9-1.4v-1.8l2.4,2.2,3.5-2.5v1.8l-2.6,1.7.6.5h2v1.5h-8.5v-1.5h5.2Z"/>
      <path class="st3" d="M173.7,202.8c.4,0,.8.3.8.8s-.4.8-.8.8-.8-.3-.8-.8.3-.8.8-.8ZM181.1,204.3h-5.8v-1.5h5.8v1.5Z"/>
      <path class="st3" d="M172.6,201.3v-1.5h8.5v1.5h-8.5Z"/>
      <path class="st3" d="M172.6,198.2v-1.5h8.5v1.5h-8.5Z"/>
      <path class="st3" d="M179.8,195.2c.2-.3.4-1,.4-1.5s-.3-.9-.7-.9-.6.2-.9,1c-.4,1.1-1,1.6-1.7,1.6-1,0-1.8-.9-1.8-2.2s.2-1.2.3-1.6l1,.3c-.1.2-.3.7-.3,1.2s.3.8.6.8.5-.3.8-1c.4-1.1.9-1.5,1.8-1.6,1.1,0,1.8.8,1.8,2.4s-.2,1.3-.4,1.8l-1.1-.3Z"/>
    </g>
    <rect class="st8" x="194.4" y="156.3" width="31.2" height="118.4" rx="4" ry="4"/>
    <g>
      <path class="st3" d="M212.9,237.6l2.3.7v1.5l-8.1-2.6v-1.9l8.1-2.6v1.6l-2.3.7v2.6ZM211.7,235.3l-2,.6c-.5.2-1,.3-1.5.4h0c.5.1,1,.3,1.5.4l2,.6v-2.1Z"/>
      <path class="st3" d="M213.5,231.7c.3-.5.5-1.2.5-2s-.4-1.5-1.1-1.5-1,.4-1.3,1.4c-.5,1.3-1.2,2.2-2.4,2.2s-2.3-1.1-2.3-2.9.2-1.5.4-1.9l1.2.3c-.2.3-.4.9-.4,1.6s.5,1.3,1,1.3.9-.5,1.3-1.5c.5-1.4,1.2-2.1,2.4-2.1s2.4,1,2.4,3.1-.2,1.8-.5,2.2l-1.2-.3Z"/>
      <path class="st3" d="M211.6,220.9v3h2.4v-3.4h1.2v4.9h-8.1v-4.7h1.2v3.2h2.1v-3h1.2Z"/>
      <path class="st3" d="M213.5,216.8c.3-.5.5-1.2.5-2s-.4-1.5-1.1-1.5-1,.4-1.3,1.4c-.5,1.3-1.2,2.2-2.4,2.2s-2.3-1.1-2.3-2.9.2-1.5.4-1.9l1.2.3c-.2.3-.4.9-.4,1.6s.5,1.3,1,1.3.9-.5,1.3-1.5c.5-1.4,1.2-2.1,2.4-2.1s2.4,1,2.4,3.1-.2,1.8-.5,2.2l-1.2-.3Z"/>
      <path class="st3" d="M211.9,209.1h0c-.2-.2-.5-.3-.7-.5l-1.9-1.4v-1.8l2.4,2.2,3.5-2.5v1.8l-2.6,1.7.6.5h2v1.5h-8.5v-1.5h5.2Z"/>
      <path class="st3" d="M207.7,202.8c.4,0,.8.3.8.8s-.4.8-.8.8-.8-.3-.8-.8.3-.8.8-.8ZM215.2,204.3h-5.8v-1.5h5.8v1.5Z"/>
      <path class="st3" d="M206.6,201.3v-1.5h8.5v1.5h-8.5Z"/>
      <path class="st3" d="M206.6,198.2v-1.5h8.5v1.5h-8.5Z"/>
      <path class="st3" d="M213.8,195.2c.2-.3.4-1,.4-1.5s-.3-.9-.7-.9-.6.2-.9,1c-.4,1.1-1,1.6-1.7,1.6-1,0-1.8-.9-1.8-2.2s.2-1.2.3-1.6l1,.3c-.1.2-.3.7-.3,1.2s.3.8.6.8.5-.3.8-1c.4-1.1.9-1.5,1.8-1.6,1.1,0,1.8.8,1.8,2.4s-.2,1.3-.4,1.8l-1.1-.3Z"/>
    </g>
    <rect class="st4" x="228.4" y="156.3" width="31.2" height="118.4" rx="4" ry="4"/>
    <g>
      <path class="st3" d="M246.9,237.6l2.3.7v1.5l-8.1-2.6v-1.9l8.1-2.6v1.6l-2.3.7v2.6ZM245.8,235.3l-2,.6c-.5.2-1,.3-1.5.4h0c.5.1,1,.3,1.5.4l2,.6v-2.1Z"/>
      <path class="st3" d="M247.6,231.6c.3-.5.5-1.2.5-2s-.4-1.5-1.1-1.5-1,.4-1.3,1.4c-.5,1.3-1.2,2.2-2.4,2.2s-2.3-1.1-2.3-2.9.2-1.5.4-1.9l1.2.3c-.2.3-.4.9-.4,1.6s.5,1.3,1,1.3.9-.5,1.3-1.5c.5-1.4,1.2-2.1,2.4-2.1s2.4,1,2.4,3.1-.2,1.8-.5,2.2l-1.2-.3Z"/>
      <path class="st3" d="M245.6,220.9v3h2.4v-3.4h1.2v4.9h-8.1v-4.7h1.2v3.2h2.1v-3h1.2Z"/>
      <path class="st3" d="M247.6,216.8c.3-.5.5-1.2.5-2s-.4-1.5-1.1-1.5-1,.4-1.3,1.4c-.5,1.3-1.2,2.2-2.4,2.2s-2.3-1.1-2.3-2.9.2-1.5.4-1.9l1.2.3c-.2.3-.4.9-.4,1.6s.5,1.3,1,1.3.9-.5,1.3-1.5c.5-1.4,1.2-2.1,2.4-2.1s2.4,1,2.4,3.1-.2,1.8-.5,2.2l-1.2-.3Z"/>
      <path class="st3" d="M245.9,209.1h0c-.2-.2-.5-.3-.7-.5l-1.9-1.4v-1.8l2.4,2.2,3.5-2.5v1.8l-2.6,1.7.6.5h2v1.5h-8.5v-1.5h5.2Z"/>
      <path class="st3" d="M241.7,202.8c.4,0,.8.3.8.8s-.4.8-.8.8-.8-.3-.8-.8.3-.8.8-.8ZM249.2,204.3h-5.8v-1.5h5.8v1.5Z"/>
      <path class="st3" d="M240.7,201.3v-1.5h8.5v1.5h-8.5Z"/>
      <path class="st3" d="M240.7,198.2v-1.5h8.5v1.5h-8.5Z"/>
      <path class="st3" d="M247.8,195.2c.2-.3.4-1,.4-1.5s-.3-.9-.7-.9-.6.2-.9,1c-.4,1.1-1,1.6-1.7,1.6-1,0-1.8-.9-1.8-2.2s.2-1.2.3-1.6l1,.3c-.1.2-.3.7-.3,1.2s.3.8.6.8.5-.3.8-1c.4-1.1.9-1.5,1.8-1.6,1.1,0,1.8.8,1.8,2.4s-.2,1.3-.4,1.8l-1.1-.3Z"/>
    </g>
    <rect class="st5" x="0" y=".4" width="385.5" height="45.4" rx="4" ry="4"/>
    <g>
      <path class="st3" d="M130.6,26.6c.6.4,1.6.7,2.6.7s2-.6,2-1.5-.5-1.3-1.9-1.8c-1.8-.6-2.9-1.6-2.9-3.1s1.5-3.1,3.8-3.1,2,.3,2.6.5l-.5,1.6c-.4-.2-1.2-.5-2.2-.5s-1.8.7-1.8,1.3.6,1.2,2.1,1.8c1.9.7,2.8,1.6,2.8,3.2s-1.3,3.2-4.1,3.2-2.3-.3-2.9-.7l.4-1.6Z"/>
      <path class="st3" d="M146.3,24.7c0,2.9-2,4.1-4,4.1s-3.9-1.5-3.9-4,1.7-4.1,4-4.1,3.9,1.6,3.9,4ZM140.5,24.8c0,1.5.8,2.6,1.9,2.6s1.9-1.1,1.9-2.7-.5-2.6-1.9-2.6-2,1.4-2,2.7Z"/>
      <path class="st3" d="M148.2,28.7v-6.3h-1.1v-1.5h1.1v-.3c0-1,.3-2,.9-2.7.6-.5,1.3-.8,2-.8s.9,0,1.2.2v1.5c-.4,0-.6-.1-1-.1-1,0-1.3.8-1.3,1.8v.4h1.7v1.5h-1.7v6.3h-2Z"/>
      <path class="st3" d="M155.5,18.9v2h1.9v1.5h-1.9v3.4c0,1,.3,1.4,1,1.4s.5,0,.8,0v1.5c-.3.1-.8.2-1.4.2s-1.3-.2-1.7-.6c-.4-.4-.6-1.2-.6-2.2v-3.7h-1.1v-1.5h1.1v-1.5l1.9-.5Z"/>
      <path class="st3" d="M160.2,20.9l.8,3.5c.2.8.4,1.7.5,2.5h0c.2-.8.4-1.7.6-2.5l1-3.6h1.6l1,3.5c.2.9.4,1.8.6,2.6h0c.1-.8.3-1.7.5-2.6l.9-3.5h1.9l-2.4,7.8h-1.8l-.9-3.2c-.2-.8-.4-1.6-.6-2.5h0c-.2,1-.4,1.7-.6,2.5l-1,3.2h-1.8l-2.3-7.8h2Z"/>
      <path class="st3" d="M176.9,26.8c0,.7,0,1.4.1,1.9h-1.8v-.9h-.2c-.5.6-1.3,1-2.3,1-1.6,0-2.4-1.1-2.4-2.3,0-2,1.7-3,4.6-2.9h0c0-.6-.2-1.5-1.6-1.5s-1.6.2-2.1.6l-.4-1.3c.6-.4,1.6-.7,2.8-.7,2.5,0,3.2,1.6,3.2,3.3v2.8ZM175,24.9c-1.4,0-2.7.3-2.7,1.5s.5,1.1,1.1,1.1,1.4-.5,1.6-1.1c0-.1,0-.3,0-.4v-1.1Z"/>
      <path class="st3" d="M179,23.4c0-1.1,0-1.8,0-2.5h1.7v1.5h.1c.4-1.1,1.3-1.6,2.1-1.6s.3,0,.5,0v1.8c-.2,0-.4,0-.6,0-.9,0-1.6.6-1.8,1.5,0,.2,0,.4,0,.6v4h-2v-5.3Z"/>
      <path class="st3" d="M186,25.4c0,1.4,1.1,2,2.4,2s1.6-.1,2.2-.4l.3,1.3c-.7.3-1.6.5-2.7.5-2.5,0-4-1.6-4-3.9s1.3-4.2,3.8-4.2,3.4,2.1,3.4,3.8,0,.7,0,.8h-5.2ZM189.4,24c0-.7-.3-1.9-1.6-1.9s-1.7,1.1-1.8,1.9h3.4Z"/>
      <path class="st3" d="M202.2,23.9h-4.1v3.2h4.5v1.6h-6.5v-10.8h6.3v1.6h-4.3v2.8h4.1v1.6Z"/>
      <path class="st3" d="M204.4,23.2c0-.9,0-1.6,0-2.3h1.7v1.2h.1c.4-.6,1.2-1.3,2.5-1.3s2.8.9,2.8,3.3v4.6h-2v-4.4c0-1.1-.4-2-1.5-2s-1.3.6-1.5,1.2c0,.2,0,.4,0,.6v4.6h-2v-5.5Z"/>
      <path class="st3" d="M220.6,27.6c0,1.6-.3,2.8-1.2,3.5-.8.7-1.9.9-3,.9s-2-.2-2.7-.6l.4-1.5c.5.3,1.3.6,2.3.6s2.2-.7,2.2-2.4v-.7h0c-.4.7-1.2,1.2-2.3,1.2-1.9,0-3.3-1.6-3.3-3.8s1.7-4.1,3.5-4.1,1.9.6,2.3,1.2h0v-1h1.8c0,.5,0,1.2,0,2.2v4.4ZM218.6,24c0-.2,0-.4,0-.5-.2-.7-.8-1.3-1.6-1.3s-1.9,1-1.9,2.5.7,2.4,1.9,2.4,1.4-.5,1.6-1.2c0-.2,0-.5,0-.7v-1.3Z"/>
      <path class="st3" d="M224.7,18.7c0,.6-.4,1.1-1.1,1.1s-1.1-.5-1.1-1.1.4-1.1,1.1-1.1,1.1.5,1.1,1.1ZM222.6,28.7v-7.8h2v7.8h-2Z"/>
      <path class="st3" d="M226.7,23.2c0-.9,0-1.6,0-2.3h1.7v1.2h.1c.4-.6,1.2-1.3,2.5-1.3s2.8.9,2.8,3.3v4.6h-2v-4.4c0-1.1-.4-2-1.5-2s-1.3.6-1.5,1.2c0,.2,0,.4,0,.6v4.6h-2v-5.5Z"/>
      <path class="st3" d="M237.3,25.4c0,1.4,1.1,2,2.4,2s1.6-.1,2.2-.4l.3,1.3c-.7.3-1.6.5-2.7.5-2.5,0-4-1.6-4-3.9s1.3-4.2,3.8-4.2,3.4,2.1,3.4,3.8,0,.7,0,.8h-5.2ZM240.7,24c0-.7-.3-1.9-1.6-1.9s-1.7,1.1-1.8,1.9h3.4Z"/>
      <path class="st3" d="M245.5,25.4c0,1.4,1.1,2,2.4,2s1.6-.1,2.2-.4l.3,1.3c-.7.3-1.6.5-2.7.5-2.5,0-4-1.6-4-3.9s1.3-4.2,3.8-4.2,3.4,2.1,3.4,3.8,0,.7,0,.8h-5.2ZM249,24c0-.7-.3-1.9-1.6-1.9s-1.7,1.1-1.8,1.9h3.4Z"/>
      <path class="st3" d="M252.4,23.4c0-1.1,0-1.8,0-2.5h1.7v1.5h.1c.4-1.1,1.3-1.6,2.1-1.6s.3,0,.5,0v1.8c-.2,0-.4,0-.6,0-.9,0-1.6.6-1.8,1.5,0,.2,0,.4,0,.6v4h-2v-5.3Z"/>
    </g>
    <rect class="st4" x="0" y="51.4" width="385.5" height="45.4" rx="4" ry="4"/>
    <g>
      <path class="st3" d="M154.9,74.4l-.7,2.3h-1.5l2.6-8.1h1.9l2.6,8.1h-1.6l-.7-2.3h-2.6ZM157.2,73.3l-.6-2c-.2-.5-.3-1-.4-1.5h0c-.1.5-.3,1-.4,1.5l-.6,2h2.1Z"/>
      <path class="st3" d="M160.9,75.1c.5.3,1.2.5,2,.5s1.5-.4,1.5-1.1-.4-1-1.4-1.3c-1.3-.5-2.2-1.2-2.2-2.4s1.1-2.3,2.9-2.3,1.5.2,1.9.4l-.3,1.2c-.3-.2-.9-.4-1.6-.4s-1.3.5-1.3,1,.5.9,1.5,1.3c1.4.5,2.1,1.2,2.1,2.4s-1,2.4-3.1,2.4-1.8-.2-2.2-.5l.3-1.2Z"/>
      <path class="st3" d="M171.7,73.2h-3v2.4h3.4v1.2h-4.9v-8.1h4.7v1.2h-3.2v2.1h3v1.2Z"/>
      <path class="st3" d="M177.3,68.7v4.7c0,1.6.7,2.3,1.7,2.3s1.7-.7,1.7-2.3v-4.7h1.5v4.6c0,2.5-1.3,3.6-3.2,3.6s-3.1-1-3.1-3.6v-4.6h1.5Z"/>
      <path class="st3" d="M183.6,75.4c.3.2,1,.4,1.5.4s.9-.3.9-.7-.2-.6-1-.9c-1.1-.4-1.6-1-1.6-1.7,0-1,.9-1.8,2.2-1.8s1.2.2,1.6.3l-.3,1c-.2-.1-.7-.3-1.2-.3s-.8.3-.8.6.3.5,1,.8c1.1.4,1.5.9,1.6,1.8,0,1.1-.8,1.8-2.4,1.8s-1.3-.2-1.8-.4l.3-1.1Z"/>
      <path class="st3" d="M189.7,74.2c0,1.1.9,1.5,1.8,1.5s1.2-.1,1.6-.3l.2,1c-.5.2-1.2.4-2,.4-1.9,0-3-1.2-3-3s1-3.1,2.9-3.1,2.5,1.6,2.5,2.8,0,.5,0,.6h-3.9ZM192.3,73.2c0-.5-.2-1.4-1.2-1.4s-1.3.8-1.4,1.4h2.6Z"/>
      <path class="st3" d="M203.2,76.5c-.3.2-1.1.4-2.1.4-2.6,0-4.1-1.6-4.1-4.1s1.9-4.3,4.3-4.3,1.7.2,2,.4l-.3,1.2c-.4-.2-.9-.3-1.6-.3-1.6,0-2.8,1-2.8,3s1,2.9,2.8,2.9,1.2-.1,1.6-.3l.2,1.2Z"/>
      <path class="st3" d="M208.8,75.3c0,.5,0,1,0,1.4h-1.3v-.6h-.1c-.3.5-1,.8-1.7.8-1.2,0-1.8-.9-1.8-1.7,0-1.5,1.3-2.2,3.5-2.2h0c0-.5-.2-1.1-1.2-1.1s-1.2.2-1.6.4l-.3-1c.4-.3,1.2-.5,2.1-.5,1.9,0,2.4,1.2,2.4,2.5v2.1ZM207.4,73.9c-1,0-2,.2-2,1.1s.4.8.8.8,1-.4,1.2-.8c0-.1,0-.2,0-.3v-.8Z"/>
      <path class="st3" d="M210.3,75.4c.3.2,1,.4,1.5.4s.9-.3.9-.7-.2-.6-1-.9c-1.1-.4-1.6-1-1.6-1.7,0-1,.9-1.8,2.2-1.8s1.2.2,1.6.3l-.3,1c-.2-.1-.7-.3-1.2-.3s-.8.3-.8.6.3.5,1,.8c1.1.4,1.5.9,1.6,1.8,0,1.1-.8,1.8-2.4,1.8s-1.3-.2-1.8-.4l.3-1.1Z"/>
      <path class="st3" d="M216.4,74.2c0,1.1.9,1.5,1.8,1.5s1.2-.1,1.6-.3l.2,1c-.5.2-1.2.4-2,.4-1.9,0-3-1.2-3-3s1-3.1,2.9-3.1,2.5,1.6,2.5,2.8,0,.5,0,.6h-3.9ZM219,73.2c0-.5-.2-1.4-1.2-1.4s-1.3.8-1.4,1.4h2.6Z"/>
      <path class="st3" d="M221.5,75.4c.3.2,1,.4,1.5.4s.9-.3.9-.7-.2-.6-1-.9c-1.1-.4-1.6-1-1.6-1.7,0-1,.9-1.8,2.2-1.8s1.2.2,1.6.3l-.3,1c-.2-.1-.7-.3-1.2-.3s-.8.3-.8.6.3.5,1,.8c1.1.4,1.5.9,1.6,1.8,0,1.1-.8,1.8-2.4,1.8s-1.3-.2-1.8-.4l.3-1.1Z"/>
    </g>
    <rect class="st8" x="0" y="156.3" width="118.4" height="45.4" rx="4" ry="4"/>
    <g>
      <path class="st3" d="M49.7,174.5l-.7,2.3h-1.5l2.6-8.1h1.9l2.6,8.1h-1.6l-.7-2.3h-2.6ZM52,173.4l-.6-2c-.2-.5-.3-1-.4-1.5h0c-.1.5-.3,1-.4,1.5l-.6,2h2.1Z"/>
      <path class="st3" d="M55.7,175.2c.5.3,1.2.5,2,.5s1.5-.4,1.5-1.1-.4-1-1.4-1.3c-1.3-.5-2.2-1.2-2.2-2.4s1.1-2.3,2.9-2.3,1.5.2,1.9.4l-.3,1.2c-.3-.2-.9-.4-1.6-.4s-1.3.5-1.3,1,.5.9,1.5,1.3c1.4.5,2.1,1.2,2.1,2.4s-1,2.4-3.1,2.4-1.8-.2-2.2-.5l.3-1.2Z"/>
      <path class="st3" d="M66.5,173.3h-3v2.4h3.4v1.2h-4.9v-8.1h4.7v1.2h-3.2v2.1h3v1.2Z"/>
    </g>
    <g>
      <path class="st3" d="M43.2,183.2v3.2h3.4v-3.2h1.5v8.1h-1.5v-3.6h-3.4v3.6h-1.5v-8.1h1.5Z"/>
      <path class="st3" d="M55.3,188.3c0,2.1-1.5,3.1-3,3.1s-2.9-1.1-2.9-3,1.3-3.1,3-3.1,2.9,1.2,2.9,3ZM50.9,188.3c0,1.1.6,2,1.5,2s1.4-.8,1.4-2-.4-2-1.4-2-1.5,1-1.5,2Z"/>
      <path class="st3" d="M62.1,188.3c0,2.1-1.5,3.1-3,3.1s-2.9-1.1-2.9-3,1.3-3.1,3-3.1,2.9,1.2,2.9,3ZM57.7,188.3c0,1.1.6,2,1.5,2s1.4-.8,1.4-2-.4-2-1.4-2-1.5,1-1.5,2Z"/>
      <path class="st3" d="M64.8,188h0c.1-.2.3-.5.5-.7l1.4-1.9h1.8l-2.2,2.4,2.5,3.5h-1.8l-1.7-2.6-.5.6v2h-1.5v-8.5h1.5v5.2Z"/>
      <path class="st3" d="M69.4,189.9c.3.2,1,.4,1.5.4s.9-.3.9-.7-.2-.6-1-.9c-1.1-.4-1.6-1-1.6-1.7,0-1,.9-1.8,2.2-1.8s1.2.2,1.6.3l-.3,1c-.2-.1-.7-.3-1.2-.3s-.8.3-.8.6.3.5,1,.8c1.1.4,1.5.9,1.6,1.8,0,1.1-.8,1.8-2.4,1.8s-1.3-.2-1.8-.4l.3-1.1Z"/>
    </g>
    <line class="st1" x1="22.7" y1="31.6" x2="22.7" y2="60.5"/>
    <polygon points="22.7 68.5 25.7 60.5 19.7 60.5 22.7 68.5"/>
    <polygon class="st2" points="22.7 68.5 25.7 60.5 19.7 60.5 22.7 68.5"/>
    <line class="st1" x1="22.7" y1="88.3" x2="22.7" y2="117.2"/>
    <polygon points="22.7 125.2 25.7 117.2 19.7 117.2 22.7 125.2"/>
    <polygon class="st2" points="22.7 125.2 25.7 117.2 19.7 117.2 22.7 125.2"/>
    <line class="st1" x1="22.7" y1="139.3" x2="22.7" y2="168.2"/>
    <polygon points="22.7 176.2 25.7 168.2 19.7 168.2 22.7 176.2"/>
    <polygon class="st2" points="22.7 176.2 25.7 168.2 19.7 168.2 22.7 176.2"/>
    <line class="st1" x1="22.7" y1="187.5" x2="22.7" y2="216.4"/>
    <polygon points="22.7 224.4 25.7 216.4 19.7 216.4 22.7 224.4"/>
    <polygon class="st2" points="22.7 224.4 25.7 216.4 19.7 216.4 22.7 224.4"/>
    <line class="st1" x1="140.8" y1="142.1" x2="140.8" y2="171"/>
    <polygon points="140.8 179 143.8 171 137.8 171 140.8 179"/>
    <polygon class="st2" points="140.8 179 143.8 171 137.8 171 140.8 179"/>
    <line class="st1" x1="140.8" y1="258.3" x2="140.8" y2="287.2"/>
    <polygon points="140.8 295.2 143.8 287.2 137.8 287.2 140.8 295.2"/>
    <polygon class="st2" points="140.8 295.2 143.8 287.2 137.8 287.2 140.8 295.2"/>
    <line class="st1" x1="283.5" y1="139.3" x2="283.5" y2="168.2"/>
    <polygon points="283.5 176.2 286.5 168.2 280.5 168.2 283.5 176.2"/>
    <polygon class="st2" points="283.5 176.2 286.5 168.2 280.5 168.2 283.5 176.2"/>
    <line class="st1" x1="283.5" y1="184.6" x2="283.5" y2="213.5"/>
    <polygon points="283.5 221.5 286.5 213.5 280.5 213.5 283.5 221.5"/>
    <polygon class="st2" points="283.5 221.5 286.5 213.5 280.5 213.5 283.5 221.5"/>
    <rect class="st8" x="267.6" y="253.5" width="31.2" height="118.4" rx="4" ry="4"/>
    <g>
      <path class="st3" d="M286,338.2l2.3.7v1.5l-8.1-2.6v-1.9l8.1-2.6v1.6l-2.3.7v2.6ZM284.9,335.8l-2,.6c-.5.2-1,.3-1.5.4h0c.5.1,1,.3,1.5.4l2,.6v-2.1Z"/>
      <path class="st3" d="M286.7,332.2c.3-.5.5-1.2.5-2s-.4-1.5-1.1-1.5-1,.4-1.3,1.4c-.5,1.3-1.2,2.2-2.4,2.2s-2.3-1.1-2.3-2.9.2-1.5.4-1.9l1.2.3c-.2.3-.4.9-.4,1.6s.5,1.3,1,1.3.9-.5,1.3-1.5c.5-1.4,1.2-2.1,2.4-2.1s2.4,1,2.4,3.1-.2,1.8-.5,2.2l-1.2-.3Z"/>
      <path class="st3" d="M284.7,321.4v3h2.4v-3.4h1.2v4.9h-8.1v-4.7h1.2v3.2h2.1v-3h1.2Z"/>
      <path class="st3" d="M280.4,317.2c0-.5-.2-1.3-.2-2.3s.2-1.9.7-2.4c.4-.5,1-.8,1.8-.8s1.4.2,1.8.7c.6.6.9,1.5.9,2.6s0,.5,0,.7h3.1v1.5h-8ZM284.1,315.8c0-.2,0-.4,0-.7,0-1.1-.6-1.8-1.5-1.8s-1.4.6-1.4,1.6,0,.7,0,.9h2.7Z"/>
      <path class="st3" d="M279.8,310.6v-1.5h8.5v1.5h-8.5Z"/>
      <path class="st3" d="M286.6,302.3c.7,0,1.3,0,1.8,0v1.3h-.9c.4.4,1,.9,1,2s-.6,2-2.5,2h-3.4v-1.5h3.2c1,0,1.6-.3,1.6-1.1s-.4-1-.8-1.1c-.1,0-.3,0-.5,0h-3.5v-1.5h4.1Z"/>
      <path class="st3" d="M287.5,295.4c1.2,0,2.1.3,2.7.9.5.6.7,1.5.7,2.3s-.2,1.5-.5,2l-1.1-.3c.2-.4.4-1,.4-1.7s-.5-1.7-1.8-1.7h-.5c.5.4.9.9.9,1.7,0,1.5-1.2,2.5-2.9,2.5s-3.1-1.2-3.1-2.7.4-1.4.9-1.7h0s-.8,0-.8,0v-1.3c.4,0,.9,0,1.7,0h3.3ZM284.8,296.9c-.1,0-.3,0-.4,0-.5.2-.9.6-.9,1.2s.7,1.4,1.9,1.4,1.8-.5,1.8-1.4-.4-1-.9-1.2c-.1,0-.3,0-.5,0h-.9Z"/>
      <path class="st3" d="M280.9,292.3c.4,0,.8.3.8.8s-.4.8-.8.8-.8-.3-.8-.8.3-.8.8-.8ZM288.3,293.9h-5.8v-1.5h5.8v1.5Z"/>
      <path class="st3" d="M284.2,290.8c-.7,0-1.2,0-1.7,0v-1.3h.9c-.5-.4-1-1-1-2s.7-2.1,2.5-2.1h3.5v1.5h-3.3c-.8,0-1.5.3-1.5,1.1s.4,1,.9,1.2c.1,0,.3,0,.5,0h3.4v1.5h-4.1Z"/>
    </g>
    <rect class="st8" x="302.8" y="253.7" width="31.2" height="118.4" rx="4" ry="4"/>
    <g>
      <path class="st3" d="M321.3,338.4l2.3.7v1.5l-8.1-2.6v-1.9l8.1-2.6v1.6l-2.3.7v2.6ZM320.2,336.1l-2,.6c-.5.2-1,.3-1.5.4h0c.5.1,1,.3,1.5.4l2,.6v-2.1Z"/>
      <path class="st3" d="M322,332.4c.3-.5.5-1.2.5-2s-.4-1.5-1.1-1.5-1,.4-1.3,1.4c-.5,1.3-1.2,2.2-2.4,2.2s-2.3-1.1-2.3-2.9.2-1.5.4-1.9l1.2.3c-.2.3-.4.9-.4,1.6s.5,1.3,1,1.3.9-.5,1.3-1.5c.5-1.4,1.2-2.1,2.4-2.1s2.4,1,2.4,3.1-.2,1.8-.5,2.2l-1.2-.3Z"/>
      <path class="st3" d="M320,321.6v3h2.4v-3.4h1.2v4.9h-8.1v-4.7h1.2v3.2h2.1v-3h1.2Z"/>
      <path class="st3" d="M315.6,317.5c0-.5-.2-1.3-.2-2.3s.2-1.9.7-2.4c.4-.5,1-.8,1.8-.8s1.4.2,1.8.7c.6.6.9,1.5.9,2.6s0,.5,0,.7h3.1v1.5h-8ZM319.4,316c0-.2,0-.4,0-.7,0-1.1-.6-1.8-1.5-1.8s-1.4.6-1.4,1.6,0,.7,0,.9h2.7Z"/>
      <path class="st3" d="M315.1,310.9v-1.5h8.5v1.5h-8.5Z"/>
      <path class="st3" d="M321.9,302.5c.7,0,1.3,0,1.8,0v1.3h-.9c.4.4,1,.9,1,2s-.6,2-2.5,2h-3.4v-1.5h3.2c1,0,1.6-.3,1.6-1.1s-.4-1-.8-1.1c-.1,0-.3,0-.5,0h-3.5v-1.5h4.1Z"/>
      <path class="st3" d="M322.8,295.7c1.2,0,2.1.3,2.7.9.5.6.7,1.5.7,2.3s-.2,1.5-.5,2l-1.1-.3c.2-.4.4-1,.4-1.7s-.5-1.7-1.8-1.7h-.5c.5.4.9.9.9,1.7,0,1.5-1.2,2.5-2.9,2.5s-3.1-1.2-3.1-2.7.4-1.4.9-1.7h0s-.8,0-.8,0v-1.3c.4,0,.9,0,1.7,0h3.3ZM320.1,297.1c-.1,0-.3,0-.4,0-.5.2-.9.6-.9,1.2s.7,1.4,1.9,1.4,1.8-.5,1.8-1.4-.4-1-.9-1.2c-.1,0-.3,0-.5,0h-.9Z"/>
      <path class="st3" d="M316.2,292.5c.4,0,.8.3.8.8s-.4.8-.8.8-.8-.3-.8-.8.3-.8.8-.8ZM323.6,294.1h-5.8v-1.5h5.8v1.5Z"/>
      <path class="st3" d="M319.5,291c-.7,0-1.2,0-1.7,0v-1.3h.9c-.5-.4-1-1-1-2s.7-2.1,2.5-2.1h3.5v1.5h-3.3c-.8,0-1.5.3-1.5,1.1s.4,1,.9,1.2c.1,0,.3,0,.5,0h3.4v1.5h-4.1Z"/>
    </g>
    <rect class="st4" x="337.4" y="254.5" width="31.2" height="118.4" rx="4" ry="4"/>
    <g>
      <path class="st3" d="M355.9,339.1l2.3.7v1.5l-8.1-2.6v-1.9l8.1-2.6v1.6l-2.3.7v2.6ZM354.8,336.8l-2,.6c-.5.2-1,.3-1.5.4h0c.5.1,1,.3,1.5.4l2,.6v-2.1Z"/>
      <path class="st3" d="M356.6,333.1c.3-.5.5-1.2.5-2s-.4-1.5-1.1-1.5-1,.4-1.3,1.4c-.5,1.3-1.2,2.2-2.4,2.2s-2.3-1.1-2.3-2.9.2-1.5.4-1.9l1.2.3c-.2.3-.4.9-.4,1.6s.5,1.3,1,1.3.9-.5,1.3-1.5c.5-1.4,1.2-2.1,2.4-2.1s2.4,1,2.4,3.1-.2,1.8-.5,2.2l-1.2-.3Z"/>
      <path class="st3" d="M354.6,322.4v3h2.4v-3.4h1.2v4.9h-8.1v-4.7h1.2v3.2h2.1v-3h1.2Z"/>
      <path class="st3" d="M350.2,318.2c0-.5-.2-1.3-.2-2.3s.2-1.9.7-2.4c.4-.5,1-.8,1.8-.8s1.4.2,1.8.7c.6.6.9,1.5.9,2.6s0,.5,0,.7h3.1v1.5h-8ZM353.9,316.8c0-.2,0-.4,0-.7,0-1.1-.6-1.8-1.5-1.8s-1.4.6-1.4,1.6,0,.7,0,.9h2.7Z"/>
      <path class="st3" d="M349.6,311.6v-1.5h8.5v1.5h-8.5Z"/>
      <path class="st3" d="M356.4,303.3c.7,0,1.3,0,1.8,0v1.3h-.9c.4.4,1,.9,1,2s-.6,2-2.5,2h-3.4v-1.5h3.2c1,0,1.6-.3,1.6-1.1s-.4-1-.8-1.1c-.1,0-.3,0-.5,0h-3.5v-1.5h4.1Z"/>
      <path class="st3" d="M357.3,296.4c1.2,0,2.1.3,2.7.9.5.6.7,1.5.7,2.3s-.2,1.5-.5,2l-1.1-.3c.2-.4.4-1,.4-1.7s-.5-1.7-1.8-1.7h-.5c.5.4.9.9.9,1.7,0,1.5-1.2,2.5-2.9,2.5s-3.1-1.2-3.1-2.7.4-1.4.9-1.7h0s-.8,0-.8,0v-1.3c.4,0,.9,0,1.7,0h3.3ZM354.7,297.9c-.1,0-.3,0-.4,0-.5.2-.9.6-.9,1.2s.7,1.4,1.9,1.4,1.8-.5,1.8-1.4-.4-1-.9-1.2c-.1,0-.3,0-.5,0h-.9Z"/>
      <path class="st3" d="M350.7,293.3c.4,0,.8.3.8.8s-.4.8-.8.8-.8-.3-.8-.8.3-.8.8-.8ZM358.2,294.9h-5.8v-1.5h5.8v1.5Z"/>
      <path class="st3" d="M354.1,291.8c-.7,0-1.2,0-1.7,0v-1.3h.9c-.5-.4-1-1-1-2s.7-2.1,2.5-2.1h3.5v1.5h-3.3c-.8,0-1.5.3-1.5,1.1s.4,1,.9,1.2c.1,0,.3,0,.5,0h3.4v1.5h-4.1Z"/>
    </g>
    <line class="st1" x1="283.5" y1="238.5" x2="283.5" y2="267.4"/>
    <polygon points="283.5 275.4 286.5 267.4 280.5 267.4 283.5 275.4"/>
    <polygon class="st2" points="283.5 275.4 286.5 267.4 280.5 267.4 283.5 275.4"/>
  </g>
</svg>