<?xml version="1.0" encoding="UTF-8"?>
<svg id="Layer_1" xmlns="http://www.w3.org/2000/svg" xmlns:xlink="http://www.w3.org/1999/xlink" version="1.1" viewBox="0 0 403 373">
  <!-- Generator: Adobe Illustrator 30.5.1, SVG Export Plug-In . SVG Version: 2.1.4 Build 3)  -->
  <defs>
    <style>
      .st0, .st1, .st2 {
        fill: none;
      }

      .st3 {
        fill: #dbdbdb;
      }

      .st1 {
        stroke-linecap: round;
        stroke-linejoin: round;
      }

      .st1, .st2 {
        stroke: #000;
      }

      .st4 {
        fill: #fff;
      }

      .st5 {
        fill: #7db4ea;
      }

      .st2 {
        stroke-miterlimit: 10;
      }

      .st6 {
        fill: #494949;
      }

      .st7 {
        clip-path: url(#clippath);
      }

      .st8 {
        fill: #1167b2;
      }
    </style>
    <clipPath id="clippath">
      <rect class="st0" width="403" height="373"/>
    </clipPath>
  </defs>
  <g class="st7">
    <rect class="st8" x="266.5" y="156.3" width="65.2" height="45.4" rx="4" ry="4"/>
    <rect class="st8" x="0" y="204.5" width="118.4" height="45.4" rx="4" ry="4"/>
    <rect class="st6" x="0" y="105.3" width="402.5" height="45.4" rx="4" ry="4"/>
    <g>
      <path class="st4" d="M49.7,222.7l-.7,2.3h-1.5l2.6-8.1h1.9l2.6,8.1h-1.6l-.7-2.3h-2.6ZM52,221.6l-.6-2c-.2-.5-.3-1-.4-1.5h0c-.1.5-.3,1-.4,1.5l-.6,2h2.1Z"/>
      <path class="st4" d="M55.7,223.4c.5.3,1.2.5,2,.5s1.5-.4,1.5-1.1-.4-1-1.4-1.3c-1.3-.5-2.2-1.2-2.2-2.4s1.1-2.3,2.9-2.3,1.5.2,1.9.4l-.3,1.2c-.3-.2-.9-.4-1.6-.4s-1.3.5-1.3,1,.5.9,1.5,1.3c1.4.5,2.1,1.2,2.1,2.4s-1,2.4-3.1,2.4-1.8-.2-2.2-.5l.3-1.2Z"/>
      <path class="st4" d="M66.5,221.4h-3v2.4h3.4v1.2h-4.9v-8.1h4.7v1.2h-3.2v2.1h3v1.2Z"/>
    </g>
    <g>
      <path class="st4" d="M31.5,239.2c-.3.2-1.1.4-2.1.4-2.6,0-4.1-1.6-4.1-4.1s1.9-4.3,4.3-4.3,1.7.2,2,.4l-.3,1.2c-.4-.2-.9-.3-1.6-.3-1.6,0-2.8,1-2.8,3s1,2.9,2.8,2.9,1.2-.1,1.6-.3l.2,1.2Z"/>
      <path class="st4" d="M38.1,236.5c0,2.1-1.5,3.1-3,3.1s-2.9-1.1-2.9-3,1.3-3.1,3-3.1,2.9,1.2,2.9,3ZM33.7,236.5c0,1.1.6,2,1.5,2s1.4-.8,1.4-2-.4-2-1.4-2-1.5,1-1.5,2Z"/>
      <path class="st4" d="M39.3,235.3c0-.7,0-1.2,0-1.7h1.3v.9h.1c.3-.5.9-1,1.9-1s2.1.7,2.1,2.5v3.5h-1.5v-3.3c0-.8-.3-1.5-1.1-1.5s-1,.4-1.2.9c0,.1,0,.3,0,.5v3.4h-1.5v-4.1Z"/>
      <path class="st4" d="M46.1,238.1c.3.2,1,.4,1.5.4s.9-.3.9-.7-.2-.6-1-.9c-1.1-.4-1.6-1-1.6-1.7,0-1,.9-1.8,2.2-1.8s1.2.2,1.6.3l-.3,1c-.2-.1-.7-.3-1.2-.3s-.8.3-.8.6.3.5,1,.8c1.1.4,1.5.9,1.6,1.8,0,1.1-.8,1.8-2.4,1.8s-1.3-.2-1.8-.4l.3-1.1Z"/>
      <path class="st4" d="M52.9,232.1v1.5h1.4v1.1h-1.4v2.6c0,.7.2,1.1.8,1.1s.4,0,.6,0v1.1c-.2,0-.6.2-1,.2s-1-.2-1.3-.5c-.3-.3-.5-.9-.5-1.6v-2.7h-.8v-1.1h.8v-1.1l1.5-.4Z"/>
      <path class="st4" d="M57,232c0,.4-.3.8-.8.8s-.8-.4-.8-.8.3-.8.8-.8.8.3.8.8ZM55.4,239.4v-5.8h1.5v5.8h-1.5Z"/>
      <path class="st4" d="M60.2,232.1v1.5h1.4v1.1h-1.4v2.6c0,.7.2,1.1.8,1.1s.4,0,.6,0v1.1c-.2,0-.6.2-1,.2s-1-.2-1.3-.5c-.3-.3-.5-.9-.5-1.6v-2.7h-.8v-1.1h.8v-1.1l1.5-.4Z"/>
      <path class="st4" d="M67.9,237.7c0,.7,0,1.3,0,1.8h-1.3v-.9h-.1c-.3.4-.8,1-1.9,1s-2-.6-2-2.5v-3.4h1.5v3.2c0,1,.3,1.6,1.1,1.6s1-.4,1.1-.8c0-.1,0-.3,0-.5v-3.5h1.5v4.1Z"/>
      <path class="st4" d="M71.2,232.1v1.5h1.4v1.1h-1.4v2.6c0,.7.2,1.1.8,1.1s.4,0,.6,0v1.1c-.2,0-.6.2-1,.2s-1-.2-1.3-.5c-.3-.3-.5-.9-.5-1.6v-2.7h-.8v-1.1h.8v-1.1l1.5-.4Z"/>
      <path class="st4" d="M75.3,232c0,.4-.3.8-.8.8s-.8-.4-.8-.8.3-.8.8-.8.8.3.8.8ZM73.7,239.4v-5.8h1.5v5.8h-1.5Z"/>
      <path class="st4" d="M82.3,236.5c0,2.1-1.5,3.1-3,3.1s-2.9-1.1-2.9-3,1.3-3.1,3-3.1,2.9,1.2,2.9,3ZM77.9,236.5c0,1.1.6,2,1.5,2s1.4-.8,1.4-2-.4-2-1.4-2-1.5,1-1.5,2Z"/>
      <path class="st4" d="M83.6,235.3c0-.7,0-1.2,0-1.7h1.3v.9h.1c.3-.5.9-1,1.9-1s2.1.7,2.1,2.5v3.5h-1.5v-3.3c0-.8-.3-1.5-1.1-1.5s-1,.4-1.2.9c0,.1,0,.3,0,.5v3.4h-1.5v-4.1Z"/>
    </g>
    <g>
      <path class="st4" d="M158.5,127.6c-.5.2-1.5.5-2.8.5-3.4,0-5.5-2.1-5.5-5.4s2.5-5.7,5.8-5.7,2.2.3,2.6.5l-.4,1.6c-.5-.2-1.2-.4-2.1-.4-2.2,0-3.8,1.4-3.8,4s1.4,3.9,3.8,3.9,1.6-.2,2.1-.4l.3,1.6Z"/>
      <path class="st4" d="M160,116.6h2v11.4h-2v-11.4Z"/>
      <path class="st4" d="M170.2,126.1c0,.7,0,1.4.1,1.9h-1.8v-.9h-.2c-.5.6-1.3,1-2.3,1-1.6,0-2.4-1.1-2.4-2.3,0-2,1.7-3,4.6-2.9h0c0-.6-.2-1.5-1.6-1.5s-1.6.2-2.1.6l-.4-1.3c.6-.4,1.6-.7,2.8-.7,2.5,0,3.2,1.6,3.2,3.3v2.8ZM168.3,124.1c-1.4,0-2.7.3-2.7,1.5s.5,1.1,1.1,1.1,1.4-.5,1.6-1.1c0-.1,0-.3,0-.4v-1.1Z"/>
      <path class="st4" d="M179.3,125.6c0,.9,0,1.7,0,2.3h-1.7v-1.2h-.1c-.3.5-1.1,1.3-2.5,1.3s-2.7-.8-2.7-3.4v-4.6h2v4.2c0,1.3.4,2.1,1.5,2.1s1.3-.5,1.5-1.1c0-.2.1-.4.1-.6v-4.7h2v5.5Z"/>
      <path class="st4" d="M188.6,116.6v9.2c0,.8,0,1.7,0,2.2h-1.7v-1.2h-.1c-.5.9-1.4,1.4-2.5,1.4-1.9,0-3.3-1.6-3.3-4,0-2.6,1.6-4.2,3.5-4.2s1.8.4,2.2,1h0v-4.4h2ZM186.6,123.4c0-.2,0-.4,0-.5-.2-.8-.8-1.4-1.7-1.4s-2,1.1-2,2.6.7,2.5,2,2.5,1.5-.5,1.7-1.4c0-.2,0-.4,0-.6v-1.2Z"/>
      <path class="st4" d="M192.1,124.6c0,1.4,1.1,2,2.4,2s1.6-.1,2.2-.4l.3,1.3c-.7.3-1.6.5-2.7.5-2.5,0-4-1.6-4-3.9s1.3-4.2,3.8-4.2,3.4,2.1,3.4,3.8,0,.7,0,.8h-5.2ZM195.5,123.2c0-.7-.3-1.9-1.6-1.9s-1.7,1.1-1.8,1.9h3.4Z"/>
      <path class="st4" d="M210.1,127.6c-.5.2-1.5.5-2.8.5-3.4,0-5.5-2.1-5.5-5.4s2.5-5.7,5.8-5.7,2.2.3,2.6.5l-.4,1.6c-.5-.2-1.2-.4-2.1-.4-2.2,0-3.8,1.4-3.8,4s1.4,3.9,3.8,3.9,1.6-.2,2.1-.4l.3,1.6Z"/>
      <path class="st4" d="M218.8,124c0,2.9-2,4.1-4,4.1s-3.9-1.5-3.9-4,1.7-4.1,4-4.1,3.9,1.6,3.9,4ZM213,124c0,1.5.8,2.6,1.9,2.6s1.9-1.1,1.9-2.7-.5-2.6-1.9-2.6-2,1.4-2,2.7Z"/>
      <path class="st4" d="M227.6,116.6v9.2c0,.8,0,1.7,0,2.2h-1.7v-1.2h-.1c-.5.9-1.4,1.4-2.5,1.4-1.9,0-3.3-1.6-3.3-4,0-2.6,1.6-4.2,3.5-4.2s1.8.4,2.2,1h0v-4.4h2ZM225.7,123.4c0-.2,0-.4,0-.5-.2-.8-.8-1.4-1.7-1.4s-2,1.1-2,2.6.7,2.5,2,2.5,1.5-.5,1.7-1.4c0-.2,0-.4,0-.6v-1.2Z"/>
      <path class="st4" d="M231.1,124.6c0,1.4,1.1,2,2.4,2s1.6-.1,2.2-.4l.3,1.3c-.7.3-1.6.5-2.7.5-2.5,0-4-1.6-4-3.9s1.3-4.2,3.8-4.2,3.4,2.1,3.4,3.8,0,.7,0,.8h-5.2ZM234.6,123.2c0-.7-.3-1.9-1.6-1.9s-1.7,1.1-1.8,1.9h3.4Z"/>
    </g>
    <g>
      <path class="st4" d="M126.3,135.6c-.5.8-.9,1.8-.9,3.3s.4,2.5.9,3.2h-.7c-.5-.6-1-1.7-1-3.2,0-1.6.5-2.6,1-3.3h.7Z"/>
      <path class="st4" d="M130.8,139.1c0,1.4-1,2.1-2,2.1s-2-.8-2-2,.8-2.1,2-2.1,1.9.8,1.9,2ZM127.9,139.2c0,.8.4,1.3,1,1.3s1-.5,1-1.3-.3-1.3-.9-1.3-1,.7-1,1.3Z"/>
      <path class="st4" d="M131.6,138.5c0-.5,0-.9,0-1.3h.8v.7h0c.2-.5.6-.8,1.1-.8s.2,0,.2,0v.9c0,0-.2,0-.3,0-.5,0-.8.3-.9.7,0,0,0,.2,0,.3v2h-1v-2.6Z"/>
      <path class="st4" d="M140.5,140.9c-.3.1-1,.3-1.7.3s-1.6-.2-2.1-.7c-.5-.5-.8-1.2-.8-2,0-1.7,1.2-2.8,3-2.8s1.2.1,1.4.3l-.2.8c-.3-.1-.7-.2-1.2-.2-1.2,0-2,.7-2,1.9s.8,2,1.9,2,.6,0,.7-.1v-1.4h-1v-.8h1.9v2.7Z"/>
      <path class="st4" d="M142.5,136.1c0,.3-.2.5-.6.5s-.5-.2-.5-.5.2-.5.6-.5.5.2.6.5ZM141.5,141.1v-3.9h1v3.9h-1Z"/>
      <path class="st4" d="M144.6,136.2v1h.9v.7h-.9v1.7c0,.5.1.7.5.7s.3,0,.4,0v.7c-.1,0-.4.1-.7.1s-.7-.1-.8-.3c-.2-.2-.3-.6-.3-1.1v-1.8h-.6v-.7h.6v-.7l1-.3Z"/>
      <path class="st4" d="M147.3,135.7v2.2h2.3v-2.2h1v5.4h-1v-2.4h-2.3v2.4h-1v-5.4h1Z"/>
      <path class="st4" d="M155.2,140c0,.5,0,.8,0,1.2h-.9v-.6h0c-.2.3-.6.7-1.3.7s-1.4-.4-1.4-1.7v-2.3h1v2.1c0,.6.2,1.1.7,1.1s.7-.3.8-.5c0,0,0-.2,0-.3v-2.4h1v2.7Z"/>
      <path class="st4" d="M156.2,135.5h1v2.3h0c.2-.4.7-.6,1.2-.6,1,0,1.6.8,1.6,2,0,1.4-.9,2.1-1.8,2.1s-1-.2-1.2-.7h0v.6h-.9c0-.3,0-.7,0-1.1v-4.6ZM157.2,139.5c0,0,0,.2,0,.2.1.4.4.7.9.7.6,0,1-.5,1-1.3s-.3-1.2-1-1.2-.8.3-.9.7c0,0,0,.2,0,.3v.6Z"/>
      <path class="st4" d="M166.5,141c-.2.1-.7.2-1.4.2-1.7,0-2.8-1.1-2.8-2.7s1.2-2.8,2.9-2.8,1.1.1,1.3.2l-.2.8c-.3-.1-.6-.2-1.1-.2-1.1,0-1.9.7-1.9,2s.7,1.9,1.9,1.9.8,0,1.1-.2l.2.8Z"/>
      <path class="st4" d="M170.9,139.1c0,1.4-1,2.1-2,2.1s-2-.8-2-2,.8-2.1,2-2.1,1.9.8,1.9,2ZM167.9,139.2c0,.8.4,1.3,1,1.3s1-.5,1-1.3-.3-1.3-.9-1.3-1,.7-1,1.3Z"/>
      <path class="st4" d="M171.7,138.5c0-.5,0-.9,0-1.3h.9v.6h0c.3-.4.7-.7,1.3-.7.9,0,1.6.8,1.6,2s-.9,2.1-1.8,2.1-.9-.2-1.1-.5h0v2h-1v-4.2ZM172.7,139.5c0,0,0,.2,0,.3.1.4.4.7.9.7.6,0,1-.5,1-1.3s-.3-1.2-1-1.2-.8.3-.9.7c0,0,0,.2,0,.2v.6Z"/>
      <path class="st4" d="M177.4,136.1c0,.3-.2.5-.6.5s-.5-.2-.5-.5.2-.5.6-.5.5.2.6.5ZM176.4,141.1v-3.9h1v3.9h-1Z"/>
      <path class="st4" d="M178.4,135.5h1v5.7h-1v-5.7Z"/>
      <path class="st4" d="M184.2,139.1c0,1.4-1,2.1-2,2.1s-2-.8-2-2,.8-2.1,2-2.1,1.9.8,1.9,2ZM181.2,139.2c0,.8.4,1.3,1,1.3s1-.5,1-1.3-.3-1.3-.9-1.3-1,.7-1,1.3Z"/>
      <path class="st4" d="M186.1,136.2v1h.9v.7h-.9v1.7c0,.5.1.7.5.7s.3,0,.4,0v.7c-.1,0-.4.1-.7.1s-.7-.1-.8-.3c-.2-.2-.3-.6-.3-1.1v-1.8h-.6v-.7h.6v-.7l1-.3Z"/>
      <path class="st4" d="M193.3,141c-.2.1-.7.2-1.4.2-1.7,0-2.8-1.1-2.8-2.7s1.2-2.8,2.9-2.8,1.1.1,1.3.2l-.2.8c-.3-.1-.6-.2-1.1-.2-1.1,0-1.9.7-1.9,2s.7,1.9,1.9,1.9.8,0,1.1-.2l.2.8Z"/>
      <path class="st4" d="M194.2,135.7h1v4.6h2.2v.8h-3.2v-5.4Z"/>
      <path class="st4" d="M199.1,135.7v5.4h-1v-5.4h1Z"/>
      <path class="st4" d="M205.6,139.1c0,1.4-1,2.1-2,2.1s-2-.8-2-2,.8-2.1,2-2.1,1.9.8,1.9,2ZM202.6,139.2c0,.8.4,1.3,1,1.3s1-.5,1-1.3-.3-1.3-.9-1.3-1,.7-1,1.3Z"/>
      <path class="st4" d="M206.4,138.5c0-.5,0-.9,0-1.3h.8v.7h0c.2-.5.6-.8,1.1-.8s.2,0,.2,0v.9c0,0-.2,0-.3,0-.5,0-.8.3-.9.7,0,0,0,.2,0,.3v2h-1v-2.6Z"/>
      <path class="st4" d="M215.7,138.4c0,1.8-1.1,2.8-2.6,2.8s-2.5-1.2-2.5-2.7,1-2.8,2.6-2.8,2.5,1.2,2.5,2.7ZM211.7,138.5c0,1.1.6,2,1.5,2s1.5-.9,1.5-2-.5-2-1.5-2-1.5.9-1.5,2Z"/>
      <path class="st4" d="M216.5,138.5c0-.5,0-.9,0-1.3h.9v.6h0c.3-.4.7-.7,1.3-.7.9,0,1.6.8,1.6,2s-.9,2.1-1.8,2.1-.9-.2-1.1-.5h0v2h-1v-4.2ZM217.5,139.5c0,0,0,.2,0,.3.1.4.4.7.9.7.6,0,1-.5,1-1.3s-.3-1.2-1-1.2-.8.3-.9.7c0,0,0,.2,0,.2v.6Z"/>
      <path class="st4" d="M221.9,139.5c0,.7.6,1,1.2,1s.8,0,1.1-.2v.7c-.2.1-.7.2-1.2.2-1.3,0-2-.8-2-2s.7-2.1,1.9-2.1,1.7,1,1.7,1.9,0,.3,0,.4h-2.6ZM223.6,138.8c0-.4-.2-1-.8-1s-.9.6-.9,1h1.7Z"/>
      <path class="st4" d="M225.3,138.4c0-.4,0-.8,0-1.2h.9v.6h0c.2-.3.6-.7,1.2-.7s1.4.4,1.4,1.7v2.3h-1v-2.2c0-.6-.2-1-.7-1s-.7.3-.8.6c0,0,0,.2,0,.3v2.3h-1v-2.7Z"/>
      <path class="st4" d="M231,139.6l-.5,1.5h-1l1.7-5.4h1.3l1.8,5.4h-1.1l-.5-1.5h-1.7ZM232.6,138.9l-.4-1.3c-.1-.3-.2-.7-.3-1h0c0,.3-.2.7-.3,1l-.4,1.3h1.4Z"/>
      <path class="st4" d="M236,135.7v5.4h-1v-5.4h1Z"/>
      <path class="st4" d="M242.7,141c-.2.1-.7.2-1.4.2-1.7,0-2.8-1.1-2.8-2.7s1.2-2.8,2.9-2.8,1.1.1,1.3.2l-.2.8c-.3-.1-.6-.2-1.1-.2-1.1,0-1.9.7-1.9,2s.7,1.9,1.9,1.9.8,0,1.1-.2l.2.8Z"/>
      <path class="st4" d="M247,139.1c0,1.4-1,2.1-2,2.1s-2-.8-2-2,.8-2.1,2-2.1,1.9.8,1.9,2ZM244.1,139.2c0,.8.4,1.3,1,1.3s1-.5,1-1.3-.3-1.3-.9-1.3-1,.7-1,1.3Z"/>
      <path class="st4" d="M251.4,135.5v4.6c0,.4,0,.8,0,1.1h-.9v-.6h0c-.2.4-.7.7-1.3.7-.9,0-1.7-.8-1.7-2,0-1.3.8-2.1,1.7-2.1s.9.2,1.1.5h0v-2.2h1ZM250.5,138.9c0,0,0-.2,0-.3,0-.4-.4-.7-.8-.7s-1,.6-1,1.3.4,1.2,1,1.2.8-.3.8-.7c0,0,0-.2,0-.3v-.6Z"/>
      <path class="st4" d="M253.2,139.5c0,.7.6,1,1.2,1s.8,0,1.1-.2v.7c-.2.1-.7.2-1.2.2-1.3,0-2-.8-2-2s.7-2.1,1.9-2.1,1.7,1,1.7,1.9,0,.3,0,.4h-2.6ZM254.9,138.8c0-.4-.2-1-.8-1s-.9.6-.9,1h1.7Z"/>
      <path class="st4" d="M257.2,137.2l.5.7c.1.2.2.4.4.6h0c.1-.2.2-.4.3-.6l.4-.7h1.1l-1.3,1.9,1.3,2h-1.1l-.5-.8c-.1-.2-.2-.4-.4-.6h0c-.1.2-.2.4-.4.6l-.4.8h-1.1l1.4-2-1.3-1.9h1.1Z"/>
      <path class="st4" d="M260.2,142.1c.5-.8.9-1.8.9-3.2s-.4-2.5-.9-3.2h.7c.5.6,1,1.7,1,3.2,0,1.6-.5,2.6-1,3.2h-.7Z"/>
    </g>
    <rect class="st8" x="126.3" y="280.4" width="133.2" height="45.4" rx="4" ry="4"/>
    <g>
      <path class="st4" d="M172.9,298.4l-.7,2.3h-1.5l2.6-8.1h1.9l2.6,8.1h-1.6l-.7-2.3h-2.6ZM175.3,297.3l-.6-2c-.2-.5-.3-1-.4-1.5h0c-.1.5-.3,1-.4,1.5l-.6,2h2.1Z"/>
      <path class="st4" d="M178.9,299.1c.5.3,1.2.5,2,.5s1.5-.4,1.5-1.1-.4-1-1.4-1.3c-1.3-.5-2.2-1.2-2.2-2.4s1.1-2.3,2.9-2.3,1.5.2,1.9.4l-.3,1.2c-.3-.2-.9-.4-1.6-.4s-1.3.5-1.3,1,.5.9,1.5,1.3c1.4.5,2.1,1.2,2.1,2.4s-1,2.4-3.1,2.4-1.8-.2-2.2-.5l.3-1.2Z"/>
      <path class="st4" d="M189.7,297.1h-3v2.4h3.4v1.2h-4.9v-8.1h4.7v1.2h-3.2v2.1h3v1.2Z"/>
      <path class="st4" d="M193.8,299.1c.5.3,1.2.5,2,.5s1.5-.4,1.5-1.1-.4-1-1.4-1.3c-1.3-.5-2.2-1.2-2.2-2.4s1.1-2.3,2.9-2.3,1.5.2,1.9.4l-.3,1.2c-.3-.2-.9-.4-1.6-.4s-1.3.5-1.3,1,.5.9,1.5,1.3c1.4.5,2.1,1.2,2.1,2.4s-1,2.4-3.1,2.4-1.8-.2-2.2-.5l.3-1.2Z"/>
      <path class="st4" d="M201.5,297.4h0c.1-.2.3-.5.5-.7l1.4-1.9h1.8l-2.2,2.4,2.5,3.5h-1.8l-1.7-2.6-.5.6v2h-1.5v-8.5h1.5v5.2Z"/>
      <path class="st4" d="M207.8,293.2c0,.4-.3.8-.8.8s-.8-.4-.8-.8.3-.8.8-.8.8.3.8.8ZM206.2,300.7v-5.8h1.5v5.8h-1.5Z"/>
      <path class="st4" d="M209.3,292.2h1.5v8.5h-1.5v-8.5Z"/>
      <path class="st4" d="M212.4,292.2h1.5v8.5h-1.5v-8.5Z"/>
      <path class="st4" d="M215.4,299.3c.3.2,1,.4,1.5.4s.9-.3.9-.7-.2-.6-1-.9c-1.1-.4-1.6-1-1.6-1.7,0-1,.9-1.8,2.2-1.8s1.2.2,1.6.3l-.3,1c-.2-.1-.7-.3-1.2-.3s-.8.3-.8.6.3.5,1,.8c1.1.4,1.5.9,1.6,1.8,0,1.1-.8,1.8-2.4,1.8s-1.3-.2-1.8-.4l.3-1.1Z"/>
    </g>
    <g>
      <path class="st4" d="M157.3,311.8c0-1-.1-2.3,0-3.4h0c-.3,1-.6,2.1-1,3.1l-1.2,3.5h-1.1l-1.1-3.5c-.3-1-.6-2.1-.8-3.1h0c0,1.1,0,2.3-.1,3.4l-.2,3.2h-1.4l.5-8.1h1.9l1.1,3.2c.3.9.5,1.9.7,2.8h0c.2-.9.5-1.9.8-2.8l1.1-3.2h1.9l.5,8.1h-1.4l-.2-3.3Z"/>
      <path class="st4" d="M161.4,312.6c0,1.1.9,1.5,1.8,1.5s1.2-.1,1.6-.3l.2,1c-.5.2-1.2.4-2,.4-1.9,0-3-1.2-3-3s1-3.1,2.9-3.1,2.5,1.6,2.5,2.8,0,.5,0,.6h-3.9ZM164,311.5c0-.5-.2-1.4-1.2-1.4s-1.3.8-1.4,1.4h2.6Z"/>
      <path class="st4" d="M168.3,307.7v1.5h1.4v1.1h-1.4v2.6c0,.7.2,1.1.8,1.1s.4,0,.6,0v1.1c-.2,0-.6.2-1,.2s-1-.2-1.3-.5c-.3-.3-.5-.9-.5-1.6v-2.7h-.8v-1.1h.8v-1.1l1.5-.4Z"/>
      <path class="st4" d="M175.3,313.7c0,.5,0,1,0,1.4h-1.3v-.6h-.1c-.3.5-1,.8-1.7.8-1.2,0-1.8-.9-1.8-1.7,0-1.5,1.3-2.2,3.5-2.2h0c0-.5-.2-1.1-1.2-1.1s-1.2.2-1.6.4l-.3-1c.4-.3,1.2-.5,2.1-.5,1.9,0,2.4,1.2,2.4,2.5v2.1ZM173.9,312.2c-1,0-2,.2-2,1.1s.4.8.8.8,1-.4,1.2-.8c0-.1,0-.2,0-.3v-.8Z"/>
      <path class="st4" d="M180.9,307v8.1h-1.5v-8.1h1.5Z"/>
      <path class="st4" d="M182.6,311c0-.7,0-1.2,0-1.7h1.3v.9h.1c.3-.5.9-1,1.9-1s2.1.7,2.1,2.5v3.5h-1.5v-3.3c0-.8-.3-1.5-1.1-1.5s-1,.4-1.2.9c0,.1,0,.3,0,.5v3.4h-1.5v-4.1Z"/>
      <path class="st4" d="M189.6,315.1v-4.7h-.8v-1.1h.8v-.3c0-.8.2-1.5.7-2,.4-.4,1-.6,1.5-.6s.7,0,.9.1v1.1c-.3,0-.5-.1-.7-.1-.7,0-1,.6-1,1.3v.3h1.3v1.1h-1.3v4.7h-1.5Z"/>
      <path class="st4" d="M198.7,312.1c0,2.1-1.5,3.1-3,3.1s-2.9-1.1-2.9-3,1.3-3.1,3-3.1,2.9,1.2,2.9,3ZM194.3,312.2c0,1.1.6,2,1.5,2s1.4-.8,1.4-2-.4-2-1.4-2-1.5,1-1.5,2Z"/>
      <path class="st4" d="M199.9,311.1c0-.8,0-1.4,0-1.9h1.3v1.1h0c.3-.8,1-1.2,1.6-1.2s.2,0,.3,0v1.4c-.1,0-.3,0-.4,0-.7,0-1.2.4-1.3,1.1,0,.1,0,.3,0,.4v3h-1.5v-4Z"/>
      <path class="st4" d="M204.2,311c0-.7,0-1.2,0-1.7h1.3v.9h.1c.3-.5.8-1,1.8-1s1.4.4,1.6,1.1h0c.2-.3.4-.6.7-.7.3-.2.7-.3,1.2-.3,1,0,1.9.7,1.9,2.5v3.4h-1.4v-3.2c0-1-.3-1.5-1-1.5s-.9.4-1,.8c0,.1,0,.3,0,.5v3.5h-1.4v-3.4c0-.8-.3-1.4-1-1.4s-.9.4-1.1.8c0,.2,0,.3,0,.5v3.5h-1.4v-4.1Z"/>
      <path class="st4" d="M218.9,313.7c0,.5,0,1,0,1.4h-1.3v-.6h-.1c-.3.5-1,.8-1.7.8-1.2,0-1.8-.9-1.8-1.7,0-1.5,1.3-2.2,3.5-2.2h0c0-.5-.2-1.1-1.2-1.1s-1.2.2-1.6.4l-.3-1c.4-.3,1.2-.5,2.1-.5,1.9,0,2.4,1.2,2.4,2.5v2.1ZM217.5,312.2c-1,0-2,.2-2,1.1s.4.8.8.8,1-.4,1.2-.8c0-.1,0-.2,0-.3v-.8Z"/>
      <path class="st4" d="M222.1,307.7v1.5h1.4v1.1h-1.4v2.6c0,.7.2,1.1.8,1.1s.4,0,.6,0v1.1c-.2,0-.6.2-1,.2s-1-.2-1.3-.5c-.3-.3-.5-.9-.5-1.6v-2.7h-.8v-1.1h.8v-1.1l1.5-.4Z"/>
      <path class="st4" d="M226.2,307.6c0,.4-.3.8-.8.8s-.8-.4-.8-.8.3-.8.8-.8.8.3.8.8ZM224.6,315.1v-5.8h1.5v5.8h-1.5Z"/>
      <path class="st4" d="M233.3,312.1c0,2.1-1.5,3.1-3,3.1s-2.9-1.1-2.9-3,1.3-3.1,3-3.1,2.9,1.2,2.9,3ZM228.9,312.2c0,1.1.6,2,1.5,2s1.4-.8,1.4-2-.4-2-1.4-2-1.5,1-1.5,2Z"/>
      <path class="st4" d="M234.5,311c0-.7,0-1.2,0-1.7h1.3v.9h.1c.3-.5.9-1,1.9-1s2.1.7,2.1,2.5v3.5h-1.5v-3.3c0-.8-.3-1.5-1.1-1.5s-1,.4-1.2.9c0,.1,0,.3,0,.5v3.4h-1.5v-4.1Z"/>
    </g>
    <rect class="st8" x="337.4" y="156.3" width="65.2" height="93.5" rx="4" ry="4"/>
    <g>
      <path class="st4" d="M298.5,174.5l-.7,2.3h-1.5l2.6-8.1h1.9l2.6,8.1h-1.6l-.7-2.3h-2.6ZM300.8,173.4l-.6-2c-.2-.5-.3-1-.4-1.5h0c-.1.5-.3,1-.4,1.5l-.6,2h2.1Z"/>
      <path class="st4" d="M304.5,175.2c.5.3,1.2.5,2,.5s1.5-.4,1.5-1.1-.4-1-1.4-1.3c-1.3-.5-2.2-1.2-2.2-2.4s1.1-2.3,2.9-2.3,1.5.2,1.9.4l-.3,1.2c-.3-.2-.9-.4-1.6-.4s-1.3.5-1.3,1,.5.9,1.5,1.3c1.4.5,2.1,1.2,2.1,2.4s-1,2.4-3.1,2.4-1.8-.2-2.2-.5l.3-1.2Z"/>
      <path class="st4" d="M315.2,173.3h-3v2.4h3.4v1.2h-4.9v-8.1h4.7v1.2h-3.2v2.1h3v1.2Z"/>
    </g>
    <g>
      <path class="st4" d="M301.9,187.9c0-1-.1-2.3,0-3.4h0c-.3,1-.6,2.1-1,3.1l-1.2,3.5h-1.1l-1.1-3.5c-.3-1-.6-2.1-.8-3.1h0c0,1.1,0,2.3-.1,3.4l-.2,3.2h-1.4l.5-8.1h1.9l1.1,3.2c.3.9.5,1.9.7,2.8h0c.2-.9.5-1.9.8-2.8l1.1-3.2h1.9l.5,8.1h-1.4l-.2-3.3Z"/>
      <path class="st4" d="M310.8,191c-.3.2-1.1.4-2.1.4-2.6,0-4.1-1.6-4.1-4.1s1.9-4.3,4.3-4.3,1.7.2,2,.4l-.3,1.2c-.4-.2-.9-.3-1.6-.3-1.6,0-2.8,1-2.8,3s1,2.9,2.8,2.9,1.2-.1,1.6-.3l.2,1.2Z"/>
      <path class="st4" d="M312,183.3c.5,0,1.3-.2,2.3-.2s1.9.2,2.4.7c.5.4.8,1,.8,1.8s-.2,1.4-.7,1.8c-.6.6-1.5.9-2.6.9s-.5,0-.7,0v3.1h-1.5v-8ZM313.5,187c.2,0,.4,0,.7,0,1.1,0,1.8-.6,1.8-1.5s-.6-1.4-1.6-1.4-.7,0-.9,0v2.7Z"/>
    </g>
    <rect class="st8" x="267.1" y="204.5" width="84.4" height="45.4" rx="4" ry="4"/>
    <g>
      <path class="st4" d="M363,174.5l-.7,2.3h-1.5l2.6-8.1h1.9l2.6,8.1h-1.6l-.7-2.3h-2.6ZM365.3,173.4l-.6-2c-.2-.5-.3-1-.4-1.5h0c-.1.5-.3,1-.4,1.5l-.6,2h2.1Z"/>
      <path class="st4" d="M369,175.2c.5.3,1.2.5,2,.5s1.5-.4,1.5-1.1-.4-1-1.4-1.3c-1.3-.5-2.2-1.2-2.2-2.4s1.1-2.3,2.9-2.3,1.5.2,1.9.4l-.3,1.2c-.3-.2-.9-.4-1.6-.4s-1.3.5-1.3,1,.5.9,1.5,1.3c1.4.5,2.1,1.2,2.1,2.4s-1,2.4-3.1,2.4-1.8-.2-2.2-.5l.3-1.2Z"/>
      <path class="st4" d="M379.8,173.3h-3v2.4h3.4v1.2h-4.9v-8.1h4.7v1.2h-3.2v2.1h3v1.2Z"/>
    </g>
    <g>
      <path class="st4" d="M369.1,191c-.3.2-1.1.4-2.1.4-2.6,0-4.1-1.6-4.1-4.1s1.9-4.3,4.3-4.3,1.7.2,2,.4l-.3,1.2c-.4-.2-.9-.3-1.6-.3-1.6,0-2.8,1-2.8,3s1,2.9,2.8,2.9,1.2-.1,1.6-.3l.2,1.2Z"/>
      <path class="st4" d="M370.4,183.2h1.5v6.8h3.3v1.2h-4.8v-8.1Z"/>
      <path class="st4" d="M377.8,183.2v8.1h-1.5v-8.1h1.5Z"/>
    </g>
    <rect class="st8" x="126.3" y="156.3" width="31.2" height="118.4" rx="4" ry="4"/>
    <g>
      <path class="st4" d="M144.8,237.6l2.3.7v1.5l-8.1-2.6v-1.9l8.1-2.6v1.6l-2.3.7v2.6ZM143.7,235.3l-2,.6c-.5.2-1,.3-1.5.4h0c.5.1,1,.3,1.5.4l2,.6v-2.1Z"/>
      <path class="st4" d="M145.5,231.6c.3-.5.5-1.2.5-2s-.4-1.5-1.1-1.5-1,.4-1.3,1.4c-.5,1.3-1.2,2.2-2.4,2.2s-2.3-1.1-2.3-2.9.2-1.5.4-1.9l1.2.3c-.2.3-.4.9-.4,1.6s.5,1.3,1,1.3.9-.5,1.3-1.5c.5-1.4,1.2-2.1,2.4-2.1s2.4,1,2.4,3.1-.2,1.8-.5,2.2l-1.2-.3Z"/>
      <path class="st4" d="M143.5,220.9v3h2.4v-3.4h1.2v4.9h-8.1v-4.7h1.2v3.2h2.1v-3h1.2Z"/>
      <path class="st4" d="M145.5,216.8c.3-.5.5-1.2.5-2s-.4-1.5-1.1-1.5-1,.4-1.3,1.4c-.5,1.3-1.2,2.2-2.4,2.2s-2.3-1.1-2.3-2.9.2-1.5.4-1.9l1.2.3c-.2.3-.4.9-.4,1.6s.5,1.3,1,1.3.9-.5,1.3-1.5c.5-1.4,1.2-2.1,2.4-2.1s2.4,1,2.4,3.1-.2,1.8-.5,2.2l-1.2-.3Z"/>
      <path class="st4" d="M143.8,209.1h0c-.2-.2-.5-.3-.7-.5l-1.9-1.4v-1.8l2.4,2.2,3.5-2.5v1.8l-2.6,1.7.6.5h2v1.5h-8.5v-1.5h5.2Z"/>
      <path class="st4" d="M139.7,202.8c.4,0,.8.3.8.8s-.4.8-.8.8-.8-.3-.8-.8.3-.8.8-.8ZM147.1,204.3h-5.8v-1.5h5.8v1.5Z"/>
      <path class="st4" d="M138.6,201.3v-1.5h8.5v1.5h-8.5Z"/>
      <path class="st4" d="M138.6,198.2v-1.5h8.5v1.5h-8.5Z"/>
      <path class="st4" d="M145.8,195.2c.2-.3.4-1,.4-1.5s-.3-.9-.7-.9-.6.2-.9,1c-.4,1.1-1,1.6-1.7,1.6-1,0-1.8-.9-1.8-2.2s.2-1.2.3-1.6l1,.3c-.1.2-.3.7-.3,1.2s.3.8.6.8.5-.3.8-1c.4-1.1.9-1.5,1.8-1.6,1.1,0,1.8.8,1.8,2.4s-.2,1.3-.4,1.8l-1.1-.3Z"/>
    </g>
    <rect class="st8" x="160.4" y="156.3" width="31.2" height="118.4" rx="4" ry="4"/>
    <g>
      <path class="st4" d="M178.8,237.6l2.3.7v1.5l-8.1-2.6v-1.9l8.1-2.6v1.6l-2.3.7v2.6ZM177.7,235.3l-2,.6c-.5.2-1,.3-1.5.4h0c.5.1,1,.3,1.5.4l2,.6v-2.1Z"/>
      <path class="st4" d="M179.5,231.7c.3-.5.5-1.2.5-2s-.4-1.5-1.1-1.5-1,.4-1.3,1.4c-.5,1.3-1.2,2.2-2.4,2.2s-2.3-1.1-2.3-2.9.2-1.5.4-1.9l1.2.3c-.2.3-.4.9-.4,1.6s.5,1.3,1,1.3.9-.5,1.3-1.5c.5-1.4,1.2-2.1,2.4-2.1s2.4,1,2.4,3.1-.2,1.8-.5,2.2l-1.2-.3Z"/>
      <path class="st4" d="M177.6,220.9v3h2.4v-3.4h1.2v4.9h-8.1v-4.7h1.2v3.2h2.1v-3h1.2Z"/>
      <path class="st4" d="M179.5,216.8c.3-.5.5-1.2.5-2s-.4-1.5-1.1-1.5-1,.4-1.3,1.4c-.5,1.3-1.2,2.2-2.4,2.2s-2.3-1.1-2.3-2.9.2-1.5.4-1.9l1.2.3c-.2.3-.4.9-.4,1.6s.5,1.3,1,1.3.9-.5,1.3-1.5c.5-1.4,1.2-2.1,2.4-2.1s2.4,1,2.4,3.1-.2,1.8-.5,2.2l-1.2-.3Z"/>
      <path class="st4" d="M177.9,209.1h0c-.2-.2-.5-.3-.7-.5l-1.9-1.4v-1.8l2.4,2.2,3.5-2.5v1.8l-2.6,1.7.6.5h2v1.5h-8.5v-1.5h5.2Z"/>
      <path class="st4" d="M173.7,202.8c.4,0,.8.3.8.8s-.4.8-.8.8-.8-.3-.8-.8.3-.8.8-.8ZM181.1,204.3h-5.8v-1.5h5.8v1.5Z"/>
      <path class="st4" d="M172.6,201.3v-1.5h8.5v1.5h-8.5Z"/>
      <path class="st4" d="M172.6,198.2v-1.5h8.5v1.5h-8.5Z"/>
      <path class="st4" d="M179.8,195.2c.2-.3.4-1,.4-1.5s-.3-.9-.7-.9-.6.2-.9,1c-.4,1.1-1,1.6-1.7,1.6-1,0-1.8-.9-1.8-2.2s.2-1.2.3-1.6l1,.3c-.1.2-.3.7-.3,1.2s.3.8.6.8.5-.3.8-1c.4-1.1.9-1.5,1.8-1.6,1.1,0,1.8.8,1.8,2.4s-.2,1.3-.4,1.8l-1.1-.3Z"/>
    </g>
    <rect class="st8" x="194.4" y="156.3" width="31.2" height="118.4" rx="4" ry="4"/>
    <g>
      <path class="st4" d="M212.9,237.6l2.3.7v1.5l-8.1-2.6v-1.9l8.1-2.6v1.6l-2.3.7v2.6ZM211.7,235.3l-2,.6c-.5.2-1,.3-1.5.4h0c.5.1,1,.3,1.5.4l2,.6v-2.1Z"/>
      <path class="st4" d="M213.5,231.7c.3-.5.5-1.2.5-2s-.4-1.5-1.1-1.5-1,.4-1.3,1.4c-.5,1.3-1.2,2.2-2.4,2.2s-2.3-1.1-2.3-2.9.2-1.5.4-1.9l1.2.3c-.2.3-.4.9-.4,1.6s.5,1.3,1,1.3.9-.5,1.3-1.5c.5-1.4,1.2-2.1,2.4-2.1s2.4,1,2.4,3.1-.2,1.8-.5,2.2l-1.2-.3Z"/>
      <path class="st4" d="M211.6,220.9v3h2.4v-3.4h1.2v4.9h-8.1v-4.7h1.2v3.2h2.1v-3h1.2Z"/>
      <path class="st4" d="M213.5,216.8c.3-.5.5-1.2.5-2s-.4-1.5-1.1-1.5-1,.4-1.3,1.4c-.5,1.3-1.2,2.2-2.4,2.2s-2.3-1.1-2.3-2.9.2-1.5.4-1.9l1.2.3c-.2.3-.4.9-.4,1.6s.5,1.3,1,1.3.9-.5,1.3-1.5c.5-1.4,1.2-2.1,2.4-2.1s2.4,1,2.4,3.1-.2,1.8-.5,2.2l-1.2-.3Z"/>
      <path class="st4" d="M211.9,209.1h0c-.2-.2-.5-.3-.7-.5l-1.9-1.4v-1.8l2.4,2.2,3.5-2.5v1.8l-2.6,1.7.6.5h2v1.5h-8.5v-1.5h5.2Z"/>
      <path class="st4" d="M207.7,202.8c.4,0,.8.3.8.8s-.4.8-.8.8-.8-.3-.8-.8.3-.8.8-.8ZM215.2,204.3h-5.8v-1.5h5.8v1.5Z"/>
      <path class="st4" d="M206.6,201.3v-1.5h8.5v1.5h-8.5Z"/>
      <path class="st4" d="M206.6,198.2v-1.5h8.5v1.5h-8.5Z"/>
      <path class="st4" d="M213.8,195.2c.2-.3.4-1,.4-1.5s-.3-.9-.7-.9-.6.2-.9,1c-.4,1.1-1,1.6-1.7,1.6-1,0-1.8-.9-1.8-2.2s.2-1.2.3-1.6l1,.3c-.1.2-.3.7-.3,1.2s.3.8.6.8.5-.3.8-1c.4-1.1.9-1.5,1.8-1.6,1.1,0,1.8.8,1.8,2.4s-.2,1.3-.4,1.8l-1.1-.3Z"/>
    </g>
    <rect class="st5" x="228.4" y="156.3" width="31.2" height="118.4" rx="4" ry="4"/>
    <g>
      <path class="st4" d="M246.9,237.6l2.3.7v1.5l-8.1-2.6v-1.9l8.1-2.6v1.6l-2.3.7v2.6ZM245.8,235.3l-2,.6c-.5.2-1,.3-1.5.4h0c.5.1,1,.3,1.5.4l2,.6v-2.1Z"/>
      <path class="st4" d="M247.6,231.6c.3-.5.5-1.2.5-2s-.4-1.5-1.1-1.5-1,.4-1.3,1.4c-.5,1.3-1.2,2.2-2.4,2.2s-2.3-1.1-2.3-2.9.2-1.5.4-1.9l1.2.3c-.2.3-.4.9-.4,1.6s.5,1.3,1,1.3.9-.5,1.3-1.5c.5-1.4,1.2-2.1,2.4-2.1s2.4,1,2.4,3.1-.2,1.8-.5,2.2l-1.2-.3Z"/>
      <path class="st4" d="M245.6,220.9v3h2.4v-3.4h1.2v4.9h-8.1v-4.7h1.2v3.2h2.1v-3h1.2Z"/>
      <path class="st4" d="M247.6,216.8c.3-.5.5-1.2.5-2s-.4-1.5-1.1-1.5-1,.4-1.3,1.4c-.5,1.3-1.2,2.2-2.4,2.2s-2.3-1.1-2.3-2.9.2-1.5.4-1.9l1.2.3c-.2.3-.4.9-.4,1.6s.5,1.3,1,1.3.9-.5,1.3-1.5c.5-1.4,1.2-2.1,2.4-2.1s2.4,1,2.4,3.1-.2,1.8-.5,2.2l-1.2-.3Z"/>
      <path class="st4" d="M245.9,209.1h0c-.2-.2-.5-.3-.7-.5l-1.9-1.4v-1.8l2.4,2.2,3.5-2.5v1.8l-2.6,1.7.6.5h2v1.5h-8.5v-1.5h5.2Z"/>
      <path class="st4" d="M241.7,202.8c.4,0,.8.3.8.8s-.4.8-.8.8-.8-.3-.8-.8.3-.8.8-.8ZM249.2,204.3h-5.8v-1.5h5.8v1.5Z"/>
      <path class="st4" d="M240.7,201.3v-1.5h8.5v1.5h-8.5Z"/>
      <path class="st4" d="M240.7,198.2v-1.5h8.5v1.5h-8.5Z"/>
      <path class="st4" d="M247.8,195.2c.2-.3.4-1,.4-1.5s-.3-.9-.7-.9-.6.2-.9,1c-.4,1.1-1,1.6-1.7,1.6-1,0-1.8-.9-1.8-2.2s.2-1.2.3-1.6l1,.3c-.1.2-.3.7-.3,1.2s.3.8.6.8.5-.3.8-1c.4-1.1.9-1.5,1.8-1.6,1.1,0,1.8.8,1.8,2.4s-.2,1.3-.4,1.8l-1.1-.3Z"/>
    </g>
    <rect class="st3" x="0" y=".4" width="402.5" height="45.4" rx="4" ry="4"/>
    <g>
      <path d="M133.4,26.6c.6.4,1.6.7,2.6.7s2-.6,2-1.5-.5-1.3-1.9-1.8c-1.8-.6-2.9-1.6-2.9-3.1s1.5-3.1,3.8-3.1,2,.3,2.6.5l-.5,1.6c-.4-.2-1.2-.5-2.2-.5s-1.8.7-1.8,1.3.6,1.2,2.1,1.8c1.9.7,2.8,1.6,2.8,3.2s-1.3,3.2-4.1,3.2-2.3-.3-2.9-.7l.4-1.6Z"/>
      <path d="M149.2,24.7c0,2.9-2,4.1-4,4.1s-3.9-1.5-3.9-4,1.7-4.1,4-4.1,3.9,1.6,3.9,4ZM143.3,24.8c0,1.5.8,2.6,1.9,2.6s1.9-1.1,1.9-2.7-.5-2.6-1.9-2.6-2,1.4-2,2.7Z"/>
      <path d="M151,28.7v-6.3h-1.1v-1.5h1.1v-.3c0-1,.3-2,.9-2.7.6-.5,1.3-.8,2-.8s.9,0,1.2.2v1.5c-.4,0-.6-.1-1-.1-1,0-1.3.8-1.3,1.8v.4h1.7v1.5h-1.7v6.3h-2Z"/>
      <path d="M158.4,18.9v2h1.9v1.5h-1.9v3.4c0,1,.3,1.4,1,1.4s.5,0,.8,0v1.5c-.3.1-.8.2-1.4.2s-1.3-.2-1.7-.6c-.4-.4-.6-1.2-.6-2.2v-3.7h-1.1v-1.5h1.1v-1.5l1.9-.5Z"/>
      <path d="M163,20.9l.8,3.5c.2.8.4,1.7.5,2.5h0c.2-.8.4-1.7.6-2.5l1-3.6h1.6l1,3.5c.2.9.4,1.8.6,2.6h0c.1-.8.3-1.7.5-2.6l.9-3.5h1.9l-2.4,7.8h-1.8l-.9-3.2c-.2-.8-.4-1.6-.6-2.5h0c-.2,1-.4,1.7-.6,2.5l-1,3.2h-1.8l-2.3-7.8h2Z"/>
      <path d="M179.8,26.8c0,.7,0,1.4.1,1.9h-1.8v-.9h-.2c-.5.6-1.3,1-2.3,1-1.6,0-2.4-1.1-2.4-2.3,0-2,1.7-3,4.6-2.9h0c0-.6-.2-1.5-1.6-1.5s-1.6.2-2.1.6l-.4-1.3c.6-.4,1.6-.7,2.8-.7,2.5,0,3.2,1.6,3.2,3.3v2.8ZM177.9,24.9c-1.4,0-2.7.3-2.7,1.5s.5,1.1,1.1,1.1,1.4-.5,1.6-1.1c0-.1,0-.3,0-.4v-1.1Z"/>
      <path d="M181.9,23.4c0-1.1,0-1.8,0-2.5h1.7v1.5h.1c.4-1.1,1.3-1.6,2.1-1.6s.3,0,.5,0v1.8c-.2,0-.4,0-.6,0-.9,0-1.6.6-1.8,1.5,0,.2,0,.4,0,.6v4h-2v-5.3Z"/>
      <path d="M188.8,25.4c0,1.4,1.1,2,2.4,2s1.6-.1,2.2-.4l.3,1.3c-.7.3-1.6.5-2.7.5-2.5,0-4-1.6-4-3.9s1.3-4.2,3.8-4.2,3.4,2.1,3.4,3.8,0,.7,0,.8h-5.2ZM192.2,24c0-.7-.3-1.9-1.6-1.9s-1.7,1.1-1.8,1.9h3.4Z"/>
      <path d="M205.1,23.9h-4.1v3.2h4.5v1.6h-6.5v-10.8h6.3v1.6h-4.3v2.8h4.1v1.6Z"/>
      <path d="M207.2,23.2c0-.9,0-1.6,0-2.3h1.7v1.2h.1c.4-.6,1.2-1.3,2.5-1.3s2.8.9,2.8,3.3v4.6h-2v-4.4c0-1.1-.4-2-1.5-2s-1.3.6-1.5,1.2c0,.2,0,.4,0,.6v4.6h-2v-5.5Z"/>
      <path d="M223.5,27.6c0,1.6-.3,2.8-1.2,3.5-.8.7-1.9.9-3,.9s-2-.2-2.7-.6l.4-1.5c.5.3,1.3.6,2.3.6s2.2-.7,2.2-2.4v-.7h0c-.4.7-1.2,1.2-2.3,1.2-1.9,0-3.3-1.6-3.3-3.8s1.7-4.1,3.5-4.1,1.9.6,2.3,1.2h0v-1h1.8c0,.5,0,1.2,0,2.2v4.4ZM221.5,24c0-.2,0-.4,0-.5-.2-.7-.8-1.3-1.6-1.3s-1.9,1-1.9,2.5.7,2.4,1.9,2.4,1.4-.5,1.6-1.2c0-.2,0-.5,0-.7v-1.3Z"/>
      <path d="M227.6,18.7c0,.6-.4,1.1-1.1,1.1s-1.1-.5-1.1-1.1.4-1.1,1.1-1.1,1.1.5,1.1,1.1ZM225.5,28.7v-7.8h2v7.8h-2Z"/>
      <path d="M229.6,23.2c0-.9,0-1.6,0-2.3h1.7v1.2h.1c.4-.6,1.2-1.3,2.5-1.3s2.8.9,2.8,3.3v4.6h-2v-4.4c0-1.1-.4-2-1.5-2s-1.3.6-1.5,1.2c0,.2,0,.4,0,.6v4.6h-2v-5.5Z"/>
      <path d="M240.2,25.4c0,1.4,1.1,2,2.4,2s1.6-.1,2.2-.4l.3,1.3c-.7.3-1.6.5-2.7.5-2.5,0-4-1.6-4-3.9s1.3-4.2,3.8-4.2,3.4,2.1,3.4,3.8,0,.7,0,.8h-5.2ZM243.6,24c0-.7-.3-1.9-1.6-1.9s-1.7,1.1-1.8,1.9h3.4Z"/>
      <path d="M248.4,25.4c0,1.4,1.1,2,2.4,2s1.6-.1,2.2-.4l.3,1.3c-.7.3-1.6.5-2.7.5-2.5,0-4-1.6-4-3.9s1.3-4.2,3.8-4.2,3.4,2.1,3.4,3.8,0,.7,0,.8h-5.2ZM251.8,24c0-.7-.3-1.9-1.6-1.9s-1.7,1.1-1.8,1.9h3.4Z"/>
      <path d="M255.3,23.4c0-1.1,0-1.8,0-2.5h1.7v1.5h.1c.4-1.1,1.3-1.6,2.1-1.6s.3,0,.5,0v1.8c-.2,0-.4,0-.6,0-.9,0-1.6.6-1.8,1.5,0,.2,0,.4,0,.6v4h-2v-5.3Z"/>
    </g>
    <rect class="st8" x="0" y="53.5" width="402.5" height="45.4" rx="4" ry="4"/>
    <g>
      <path class="st4" d="M157.8,78.6l-.7,2.3h-1.5l2.6-8.1h1.9l2.6,8.1h-1.6l-.7-2.3h-2.6ZM160.1,77.5l-.6-2c-.2-.5-.3-1-.4-1.5h0c-.1.5-.3,1-.4,1.5l-.6,2h2.1Z"/>
      <path class="st4" d="M163.8,79.3c.5.3,1.2.5,2,.5s1.5-.4,1.5-1.1-.4-1-1.4-1.3c-1.3-.5-2.2-1.2-2.2-2.4s1.1-2.3,2.9-2.3,1.5.2,1.9.4l-.3,1.2c-.3-.2-.9-.4-1.6-.4s-1.3.5-1.3,1,.5.9,1.5,1.3c1.4.5,2.1,1.2,2.1,2.4s-1,2.4-3.1,2.4-1.8-.2-2.2-.5l.3-1.2Z"/>
      <path class="st4" d="M174.5,77.3h-3v2.4h3.4v1.2h-4.9v-8.1h4.7v1.2h-3.2v2.1h3v1.2Z"/>
      <path class="st4" d="M180.1,72.8v4.7c0,1.6.7,2.3,1.7,2.3s1.7-.7,1.7-2.3v-4.7h1.5v4.6c0,2.5-1.3,3.6-3.2,3.6s-3.1-1-3.1-3.6v-4.6h1.5Z"/>
      <path class="st4" d="M186.4,79.5c.3.2,1,.4,1.5.4s.9-.3.9-.7-.2-.6-1-.9c-1.1-.4-1.6-1-1.6-1.7,0-1,.9-1.8,2.2-1.8s1.2.2,1.6.3l-.3,1c-.2-.1-.7-.3-1.2-.3s-.8.3-.8.6.3.5,1,.8c1.1.4,1.5.9,1.6,1.8,0,1.1-.8,1.8-2.4,1.8s-1.3-.2-1.8-.4l.3-1.1Z"/>
      <path class="st4" d="M192.5,78.4c0,1.1.9,1.5,1.8,1.5s1.2-.1,1.6-.3l.2,1c-.5.2-1.2.4-2,.4-1.9,0-3-1.2-3-3s1-3.1,2.9-3.1,2.5,1.6,2.5,2.8,0,.5,0,.6h-3.9ZM195.1,77.4c0-.5-.2-1.4-1.2-1.4s-1.3.8-1.4,1.4h2.6Z"/>
      <path class="st4" d="M206,80.7c-.3.2-1.1.4-2.1.4-2.6,0-4.1-1.6-4.1-4.1s1.9-4.3,4.3-4.3,1.7.2,2,.4l-.3,1.2c-.4-.2-.9-.3-1.6-.3-1.6,0-2.8,1-2.8,3s1,2.9,2.8,2.9,1.2-.1,1.6-.3l.2,1.2Z"/>
      <path class="st4" d="M211.7,79.5c0,.5,0,1,0,1.4h-1.3v-.6h-.1c-.3.5-1,.8-1.7.8-1.2,0-1.8-.9-1.8-1.7,0-1.5,1.3-2.2,3.5-2.2h0c0-.5-.2-1.1-1.2-1.1s-1.2.2-1.6.4l-.3-1c.4-.3,1.2-.5,2.1-.5,1.9,0,2.4,1.2,2.4,2.5v2.1ZM210.2,78.1c-1,0-2,.2-2,1.1s.4.8.8.8,1-.4,1.2-.8c0-.1,0-.2,0-.3v-.8Z"/>
      <path class="st4" d="M213.2,79.5c.3.2,1,.4,1.5.4s.9-.3.9-.7-.2-.6-1-.9c-1.1-.4-1.6-1-1.6-1.7,0-1,.9-1.8,2.2-1.8s1.2.2,1.6.3l-.3,1c-.2-.1-.7-.3-1.2-.3s-.8.3-.8.6.3.5,1,.8c1.1.4,1.5.9,1.6,1.8,0,1.1-.8,1.8-2.4,1.8s-1.3-.2-1.8-.4l.3-1.1Z"/>
      <path class="st4" d="M219.3,78.4c0,1.1.9,1.5,1.8,1.5s1.2-.1,1.6-.3l.2,1c-.5.2-1.2.4-2,.4-1.9,0-3-1.2-3-3s1-3.1,2.9-3.1,2.5,1.6,2.5,2.8,0,.5,0,.6h-3.9ZM221.8,77.4c0-.5-.2-1.4-1.2-1.4s-1.3.8-1.4,1.4h2.6Z"/>
      <path class="st4" d="M224.3,79.5c.3.2,1,.4,1.5.4s.9-.3.9-.7-.2-.6-1-.9c-1.1-.4-1.6-1-1.6-1.7,0-1,.9-1.8,2.2-1.8s1.2.2,1.6.3l-.3,1c-.2-.1-.7-.3-1.2-.3s-.8.3-.8.6.3.5,1,.8c1.1.4,1.5.9,1.6,1.8,0,1.1-.8,1.8-2.4,1.8s-1.3-.2-1.8-.4l.3-1.1Z"/>
    </g>
    <rect class="st8" x="0" y="156.3" width="118.4" height="45.4" rx="4" ry="4"/>
    <g>
      <path class="st4" d="M49.7,174.5l-.7,2.3h-1.5l2.6-8.1h1.9l2.6,8.1h-1.6l-.7-2.3h-2.6ZM52,173.4l-.6-2c-.2-.5-.3-1-.4-1.5h0c-.1.5-.3,1-.4,1.5l-.6,2h2.1Z"/>
      <path class="st4" d="M55.7,175.2c.5.3,1.2.5,2,.5s1.5-.4,1.5-1.1-.4-1-1.4-1.3c-1.3-.5-2.2-1.2-2.2-2.4s1.1-2.3,2.9-2.3,1.5.2,1.9.4l-.3,1.2c-.3-.2-.9-.4-1.6-.4s-1.3.5-1.3,1,.5.9,1.5,1.3c1.4.5,2.1,1.2,2.1,2.4s-1,2.4-3.1,2.4-1.8-.2-2.2-.5l.3-1.2Z"/>
      <path class="st4" d="M66.5,173.3h-3v2.4h3.4v1.2h-4.9v-8.1h4.7v1.2h-3.2v2.1h3v1.2Z"/>
    </g>
    <g>
      <path class="st4" d="M43.2,183.2v3.2h3.4v-3.2h1.5v8.1h-1.5v-3.6h-3.4v3.6h-1.5v-8.1h1.5Z"/>
      <path class="st4" d="M55.3,188.3c0,2.1-1.5,3.1-3,3.1s-2.9-1.1-2.9-3,1.3-3.1,3-3.1,2.9,1.2,2.9,3ZM50.9,188.3c0,1.1.6,2,1.5,2s1.4-.8,1.4-2-.4-2-1.4-2-1.5,1-1.5,2Z"/>
      <path class="st4" d="M62.1,188.3c0,2.1-1.5,3.1-3,3.1s-2.9-1.1-2.9-3,1.3-3.1,3-3.1,2.9,1.2,2.9,3ZM57.7,188.3c0,1.1.6,2,1.5,2s1.4-.8,1.4-2-.4-2-1.4-2-1.5,1-1.5,2Z"/>
      <path class="st4" d="M64.8,188h0c.1-.2.3-.5.5-.7l1.4-1.9h1.8l-2.2,2.4,2.5,3.5h-1.8l-1.7-2.6-.5.6v2h-1.5v-8.5h1.5v5.2Z"/>
      <path class="st4" d="M69.4,189.9c.3.2,1,.4,1.5.4s.9-.3.9-.7-.2-.6-1-.9c-1.1-.4-1.6-1-1.6-1.7,0-1,.9-1.8,2.2-1.8s1.2.2,1.6.3l-.3,1c-.2-.1-.7-.3-1.2-.3s-.8.3-.8.6.3.5,1,.8c1.1.4,1.5.9,1.6,1.8,0,1.1-.8,1.8-2.4,1.8s-1.3-.2-1.8-.4l.3-1.1Z"/>
    </g>
    <line class="st1" x1="22.7" y1="31.6" x2="22.7" y2="60.5"/>
    <polygon points="22.7 68.5 25.7 60.5 19.7 60.5 22.7 68.5"/>
    <polygon class="st2" points="22.7 68.5 25.7 60.5 19.7 60.5 22.7 68.5"/>
    <line class="st1" x1="22.7" y1="88.3" x2="22.7" y2="117.2"/>
    <polygon points="22.7 125.2 25.7 117.2 19.7 117.2 22.7 125.2"/>
    <polygon class="st2" points="22.7 125.2 25.7 117.2 19.7 117.2 22.7 125.2"/>
    <line class="st1" x1="22.7" y1="139.3" x2="22.7" y2="168.2"/>
    <polygon points="22.7 176.2 25.7 168.2 19.7 168.2 22.7 176.2"/>
    <polygon class="st2" points="22.7 176.2 25.7 168.2 19.7 168.2 22.7 176.2"/>
    <line class="st1" x1="22.7" y1="187.5" x2="22.7" y2="216.4"/>
    <polygon points="22.7 224.4 25.7 216.4 19.7 216.4 22.7 224.4"/>
    <polygon class="st2" points="22.7 224.4 25.7 216.4 19.7 216.4 22.7 224.4"/>
    <line class="st1" x1="140.8" y1="142.1" x2="140.8" y2="171"/>
    <polygon points="140.8 179 143.8 171 137.8 171 140.8 179"/>
    <polygon class="st2" points="140.8 179 143.8 171 137.8 171 140.8 179"/>
    <line class="st1" x1="140.8" y1="258.3" x2="140.8" y2="287.2"/>
    <polygon points="140.8 295.2 143.8 287.2 137.8 287.2 140.8 295.2"/>
    <polygon class="st2" points="140.8 295.2 143.8 287.2 137.8 287.2 140.8 295.2"/>
    <line class="st1" x1="283.5" y1="139.3" x2="283.5" y2="168.2"/>
    <polygon points="283.5 176.2 286.5 168.2 280.5 168.2 283.5 176.2"/>
    <polygon class="st2" points="283.5 176.2 286.5 168.2 280.5 168.2 283.5 176.2"/>
    <line class="st1" x1="283.5" y1="184.6" x2="283.5" y2="213.5"/>
    <polygon points="283.5 221.5 286.5 213.5 280.5 213.5 283.5 221.5"/>
    <polygon class="st2" points="283.5 221.5 286.5 213.5 280.5 213.5 283.5 221.5"/>
    <rect class="st8" x="267.6" y="253.5" width="31.2" height="118.4" rx="4" ry="4"/>
    <g>
      <path class="st4" d="M286,338.2l2.3.7v1.5l-8.1-2.6v-1.9l8.1-2.6v1.6l-2.3.7v2.6ZM284.9,335.8l-2,.6c-.5.2-1,.3-1.5.4h0c.5.1,1,.3,1.5.4l2,.6v-2.1Z"/>
      <path class="st4" d="M286.7,332.2c.3-.5.5-1.2.5-2s-.4-1.5-1.1-1.5-1,.4-1.3,1.4c-.5,1.3-1.2,2.2-2.4,2.2s-2.3-1.1-2.3-2.9.2-1.5.4-1.9l1.2.3c-.2.3-.4.9-.4,1.6s.5,1.3,1,1.3.9-.5,1.3-1.5c.5-1.4,1.2-2.1,2.4-2.1s2.4,1,2.4,3.1-.2,1.8-.5,2.2l-1.2-.3Z"/>
      <path class="st4" d="M284.7,321.4v3h2.4v-3.4h1.2v4.9h-8.1v-4.7h1.2v3.2h2.1v-3h1.2Z"/>
      <path class="st4" d="M280.4,317.2c0-.5-.2-1.3-.2-2.3s.2-1.9.7-2.4c.4-.5,1-.8,1.8-.8s1.4.2,1.8.7c.6.6.9,1.5.9,2.6s0,.5,0,.7h3.1v1.5h-8ZM284.1,315.8c0-.2,0-.4,0-.7,0-1.1-.6-1.8-1.5-1.8s-1.4.6-1.4,1.6,0,.7,0,.9h2.7Z"/>
      <path class="st4" d="M279.8,310.6v-1.5h8.5v1.5h-8.5Z"/>
      <path class="st4" d="M286.6,302.3c.7,0,1.3,0,1.8,0v1.3h-.9c.4.4,1,.9,1,2s-.6,2-2.5,2h-3.4v-1.5h3.2c1,0,1.6-.3,1.6-1.1s-.4-1-.8-1.1c-.1,0-.3,0-.5,0h-3.5v-1.5h4.1Z"/>
      <path class="st4" d="M287.5,295.4c1.2,0,2.1.3,2.7.9.5.6.7,1.5.7,2.3s-.2,1.5-.5,2l-1.1-.3c.2-.4.4-1,.4-1.7s-.5-1.7-1.8-1.7h-.5c.5.4.9.9.9,1.7,0,1.5-1.2,2.5-2.9,2.5s-3.1-1.2-3.1-2.7.4-1.4.9-1.7h0s-.8,0-.8,0v-1.3c.4,0,.9,0,1.7,0h3.3ZM284.8,296.9c-.1,0-.3,0-.4,0-.5.2-.9.6-.9,1.2s.7,1.4,1.9,1.4,1.8-.5,1.8-1.4-.4-1-.9-1.2c-.1,0-.3,0-.5,0h-.9Z"/>
      <path class="st4" d="M280.9,292.3c.4,0,.8.3.8.8s-.4.8-.8.8-.8-.3-.8-.8.3-.8.8-.8ZM288.3,293.9h-5.8v-1.5h5.8v1.5Z"/>
      <path class="st4" d="M284.2,290.8c-.7,0-1.2,0-1.7,0v-1.3h.9c-.5-.4-1-1-1-2s.7-2.1,2.5-2.1h3.5v1.5h-3.3c-.8,0-1.5.3-1.5,1.1s.4,1,.9,1.2c.1,0,.3,0,.5,0h3.4v1.5h-4.1Z"/>
    </g>
    <rect class="st8" x="302.8" y="253.7" width="31.2" height="118.4" rx="4" ry="4"/>
    <g>
      <path class="st4" d="M321.9,338.2l2.3.7v1.5l-8.1-2.6v-1.9l8.1-2.6v1.6l-2.3.7v2.6ZM320.7,335.8l-2,.6c-.5.2-1,.3-1.5.4h0c.5.1,1,.3,1.5.4l2,.6v-2.1Z"/>
      <path class="st4" d="M322.5,332.2c.3-.5.5-1.2.5-2s-.4-1.5-1.1-1.5-1,.4-1.3,1.4c-.5,1.3-1.2,2.2-2.4,2.2s-2.3-1.1-2.3-2.9.2-1.5.4-1.9l1.2.3c-.2.3-.4.9-.4,1.6s.5,1.3,1,1.3.9-.5,1.3-1.5c.5-1.4,1.2-2.1,2.4-2.1s2.4,1,2.4,3.1-.2,1.8-.5,2.2l-1.2-.3Z"/>
      <path class="st4" d="M320.6,321.4v3h2.4v-3.4h1.2v4.9h-8.1v-4.7h1.2v3.2h2.1v-3h1.2Z"/>
      <path class="st4" d="M316.2,317.2c0-.5-.2-1.3-.2-2.3s.2-1.9.7-2.4c.4-.5,1-.8,1.8-.8s1.4.2,1.8.7c.6.6.9,1.5.9,2.6s0,.5,0,.7h3.1v1.5h-8ZM319.9,315.8c0-.2,0-.4,0-.7,0-1.1-.6-1.8-1.5-1.8s-1.4.6-1.4,1.6,0,.7,0,.9h2.7Z"/>
      <path class="st4" d="M315.6,310.6v-1.5h8.5v1.5h-8.5Z"/>
      <path class="st4" d="M322.4,302.3c.7,0,1.3,0,1.8,0v1.3h-.9c.4.4,1,.9,1,2s-.6,2-2.5,2h-3.4v-1.5h3.2c1,0,1.6-.3,1.6-1.1s-.4-1-.8-1.1c-.1,0-.3,0-.5,0h-3.5v-1.5h4.1Z"/>
      <path class="st4" d="M323.3,295.4c1.2,0,2.1.3,2.7.9.5.6.7,1.5.7,2.3s-.2,1.5-.5,2l-1.1-.3c.2-.4.4-1,.4-1.7s-.5-1.7-1.8-1.7h-.5c.5.4.9.9.9,1.7,0,1.5-1.2,2.5-2.9,2.5s-3.1-1.2-3.1-2.7.4-1.4.9-1.7h0s-.8,0-.8,0v-1.3c.4,0,.9,0,1.7,0h3.3ZM320.6,296.9c-.1,0-.3,0-.4,0-.5.2-.9.6-.9,1.2s.7,1.4,1.9,1.4,1.8-.5,1.8-1.4-.4-1-.9-1.2c-.1,0-.3,0-.5,0h-.9Z"/>
      <path class="st4" d="M316.7,292.3c.4,0,.8.3.8.8s-.4.8-.8.8-.8-.3-.8-.8.3-.8.8-.8ZM324.1,293.9h-5.8v-1.5h5.8v1.5Z"/>
      <path class="st4" d="M320,290.8c-.7,0-1.2,0-1.7,0v-1.3h.9c-.5-.4-1-1-1-2s.7-2.1,2.5-2.1h3.5v1.5h-3.3c-.8,0-1.5.3-1.5,1.1s.4,1,.9,1.2c.1,0,.3,0,.5,0h3.4v1.5h-4.1Z"/>
    </g>
    <rect class="st5" x="371.4" y="253.5" width="31.2" height="118.4" rx="4" ry="4"/>
    <g>
      <path class="st4" d="M355.9,339.1l2.3.7v1.5l-8.1-2.6v-1.9l8.1-2.6v1.6l-2.3.7v2.6ZM354.8,336.8l-2,.6c-.5.2-1,.3-1.5.4h0c.5.1,1,.3,1.5.4l2,.6v-2.1Z"/>
      <path class="st4" d="M356.6,333.1c.3-.5.5-1.2.5-2s-.4-1.5-1.1-1.5-1,.4-1.3,1.4c-.5,1.3-1.2,2.2-2.4,2.2s-2.3-1.1-2.3-2.9.2-1.5.4-1.9l1.2.3c-.2.3-.4.9-.4,1.6s.5,1.3,1,1.3.9-.5,1.3-1.5c.5-1.4,1.2-2.1,2.4-2.1s2.4,1,2.4,3.1-.2,1.8-.5,2.2l-1.2-.3Z"/>
      <path class="st4" d="M354.6,322.4v3h2.4v-3.4h1.2v4.9h-8.1v-4.7h1.2v3.2h2.1v-3h1.2Z"/>
      <path class="st4" d="M350.2,318.2c0-.5-.2-1.3-.2-2.3s.2-1.9.7-2.4c.4-.5,1-.8,1.8-.8s1.4.2,1.8.7c.6.6.9,1.5.9,2.6s0,.5,0,.7h3.1v1.5h-8ZM353.9,316.8c0-.2,0-.4,0-.7,0-1.1-.6-1.8-1.5-1.8s-1.4.6-1.4,1.6,0,.7,0,.9h2.7Z"/>
      <path class="st4" d="M349.6,311.6v-1.5h8.5v1.5h-8.5Z"/>
      <path class="st4" d="M356.4,303.3c.7,0,1.3,0,1.8,0v1.3h-.9c.4.4,1,.9,1,2s-.6,2-2.5,2h-3.4v-1.5h3.2c1,0,1.6-.3,1.6-1.1s-.4-1-.8-1.1c-.1,0-.3,0-.5,0h-3.5v-1.5h4.1Z"/>
      <path class="st4" d="M357.3,296.4c1.2,0,2.1.3,2.7.9.5.6.7,1.5.7,2.3s-.2,1.5-.5,2l-1.1-.3c.2-.4.4-1,.4-1.7s-.5-1.7-1.8-1.7h-.5c.5.4.9.9.9,1.7,0,1.5-1.2,2.5-2.9,2.5s-3.1-1.2-3.1-2.7.4-1.4.9-1.7h0s-.8,0-.8,0v-1.3c.4,0,.9,0,1.7,0h3.3ZM354.7,297.9c-.1,0-.3,0-.4,0-.5.2-.9.6-.9,1.2s.7,1.4,1.9,1.4,1.8-.5,1.8-1.4-.4-1-.9-1.2c-.1,0-.3,0-.5,0h-.9Z"/>
      <path class="st4" d="M350.7,293.3c.4,0,.8.3.8.8s-.4.8-.8.8-.8-.3-.8-.8.3-.8.8-.8ZM358.2,294.9h-5.8v-1.5h5.8v1.5Z"/>
      <path class="st4" d="M354.1,291.8c-.7,0-1.2,0-1.7,0v-1.3h.9c-.5-.4-1-1-1-2s.7-2.1,2.5-2.1h3.5v1.5h-3.3c-.8,0-1.5.3-1.5,1.1s.4,1,.9,1.2c.1,0,.3,0,.5,0h3.4v1.5h-4.1Z"/>
    </g>
    <line class="st1" x1="283.5" y1="238.5" x2="283.5" y2="267.4"/>
    <polygon points="283.5 275.4 286.5 267.4 280.5 267.4 283.5 275.4"/>
    <polygon class="st2" points="283.5 275.4 286.5 267.4 280.5 267.4 283.5 275.4"/>
    <g>
      <path class="st4" d="M299.8,221.9l-.7,2.3h-1.5l2.6-8.1h1.9l2.6,8.1h-1.6l-.7-2.3h-2.6ZM302.1,220.7l-.6-2c-.2-.5-.3-1-.4-1.5h0c-.1.5-.3,1-.4,1.5l-.6,2h2.1Z"/>
      <path class="st4" d="M305.8,222.5c.5.3,1.2.5,2,.5s1.5-.4,1.5-1.1-.4-1-1.4-1.3c-1.3-.5-2.2-1.2-2.2-2.4s1.1-2.3,2.9-2.3,1.5.2,1.9.4l-.3,1.2c-.3-.2-.9-.4-1.6-.4s-1.3.5-1.3,1,.5.9,1.5,1.3c1.4.5,2.1,1.2,2.1,2.4s-1,2.4-3.1,2.4-1.8-.2-2.2-.5l.3-1.2Z"/>
      <path class="st4" d="M316.6,220.6h-3v2.4h3.4v1.2h-4.9v-8.1h4.7v1.2h-3.2v2.1h3v1.2Z"/>
    </g>
    <g>
      <path class="st4" d="M289.3,236.9c.5.3,1.2.5,2,.5s1.5-.4,1.5-1.1-.4-1-1.4-1.3c-1.3-.5-2.2-1.2-2.2-2.4s1.1-2.3,2.9-2.3,1.5.2,1.9.4l-.3,1.2c-.3-.2-.9-.4-1.6-.4s-1.3.5-1.3,1,.5.9,1.5,1.3c1.4.5,2.1,1.2,2.1,2.4s-1,2.4-3.1,2.4-1.8-.2-2.2-.5l.3-1.2Z"/>
      <path class="st4" d="M296.6,236c0,1.1.9,1.5,1.8,1.5s1.2-.1,1.6-.3l.2,1c-.5.2-1.2.4-2,.4-1.9,0-3-1.2-3-3s1-3.1,2.9-3.1,2.5,1.6,2.5,2.8,0,.5,0,.6h-3.9ZM299.2,235c0-.5-.2-1.4-1.2-1.4s-1.3.8-1.4,1.4h2.6Z"/>
      <path class="st4" d="M301.8,234.6c0-.8,0-1.4,0-1.9h1.3v1.1h0c.3-.8,1-1.2,1.6-1.2s.2,0,.3,0v1.4c-.1,0-.3,0-.4,0-.7,0-1.2.4-1.3,1.1,0,.1,0,.3,0,.4v3h-1.5v-4Z"/>
      <path class="st4" d="M307.3,232.7l.9,3c.2.5.3,1,.4,1.5h0c.1-.5.2-.9.4-1.5l.9-3h1.5l-2.2,5.8h-1.5l-2.2-5.8h1.6Z"/>
      <path class="st4" d="M314,231.1c0,.4-.3.8-.8.8s-.8-.4-.8-.8.3-.8.8-.8.8.3.8.8ZM312.4,238.5v-5.8h1.5v5.8h-1.5Z"/>
      <path class="st4" d="M319.8,238.4c-.3.1-.9.3-1.7.3-1.8,0-3-1.2-3-3s1.2-3.1,3.2-3.1,1.1.1,1.4.3l-.3,1.1c-.2-.1-.6-.2-1.1-.2-1.1,0-1.8.8-1.8,1.9,0,1.2.8,1.9,1.8,1.9s.9-.1,1.2-.2l.2,1.1Z"/>
      <path class="st4" d="M321.8,236c0,1.1.9,1.5,1.8,1.5s1.2-.1,1.6-.3l.2,1c-.5.2-1.2.4-2,.4-1.9,0-3-1.2-3-3s1-3.1,2.9-3.1,2.5,1.6,2.5,2.8,0,.5,0,.6h-3.9ZM324.4,235c0-.5-.2-1.4-1.2-1.4s-1.3.8-1.4,1.4h2.6Z"/>
    </g>
    <rect class="st8" x="337.4" y="253.5" width="31.2" height="118.4" rx="4" ry="4"/>
    <g>
      <path class="st4" d="M355.9,338.2l2.3.7v1.5l-8.1-2.6v-1.9l8.1-2.6v1.6l-2.3.7v2.6ZM354.8,335.8l-2,.6c-.5.2-1,.3-1.5.4h0c.5.1,1,.3,1.5.4l2,.6v-2.1Z"/>
      <path class="st4" d="M356.6,332.2c.3-.5.5-1.2.5-2s-.4-1.5-1.1-1.5-1,.4-1.3,1.4c-.5,1.3-1.2,2.2-2.4,2.2s-2.3-1.1-2.3-2.9.2-1.5.4-1.9l1.2.3c-.2.3-.4.9-.4,1.6s.5,1.3,1,1.3.9-.5,1.3-1.5c.5-1.4,1.2-2.1,2.4-2.1s2.4,1,2.4,3.1-.2,1.8-.5,2.2l-1.2-.3Z"/>
      <path class="st4" d="M354.6,321.4v3h2.4v-3.4h1.2v4.9h-8.1v-4.7h1.2v3.2h2.1v-3h1.2Z"/>
      <path class="st4" d="M350.2,317.2c0-.5-.2-1.3-.2-2.3s.2-1.9.7-2.4c.4-.5,1-.8,1.8-.8s1.4.2,1.8.7c.6.6.9,1.5.9,2.6s0,.5,0,.7h3.1v1.5h-8ZM353.9,315.8c0-.2,0-.4,0-.7,0-1.1-.6-1.8-1.5-1.8s-1.4.6-1.4,1.6,0,.7,0,.9h2.7Z"/>
      <path class="st4" d="M349.6,310.6v-1.5h8.5v1.5h-8.5Z"/>
      <path class="st4" d="M356.4,302.3c.7,0,1.3,0,1.8,0v1.3h-.9c.4.4,1,.9,1,2s-.6,2-2.5,2h-3.4v-1.5h3.2c1,0,1.6-.3,1.6-1.1s-.4-1-.8-1.1c-.1,0-.3,0-.5,0h-3.5v-1.5h4.1Z"/>
      <path class="st4" d="M357.3,295.4c1.2,0,2.1.3,2.7.9.5.6.7,1.5.7,2.3s-.2,1.5-.5,2l-1.1-.3c.2-.4.4-1,.4-1.7s-.5-1.7-1.8-1.7h-.5c.5.4.9.9.9,1.7,0,1.5-1.2,2.5-2.9,2.5s-3.1-1.2-3.1-2.7.4-1.4.9-1.7h0s-.8,0-.8,0v-1.3c.4,0,.9,0,1.7,0h3.3ZM354.7,296.9c-.1,0-.3,0-.4,0-.5.2-.9.6-.9,1.2s.7,1.4,1.9,1.4,1.8-.5,1.8-1.4-.4-1-.9-1.2c-.1,0-.3,0-.5,0h-.9Z"/>
      <path class="st4" d="M350.7,292.3c.4,0,.8.3.8.8s-.4.8-.8.8-.8-.3-.8-.8.3-.8.8-.8ZM358.2,293.9h-5.8v-1.5h5.8v1.5Z"/>
      <path class="st4" d="M354.1,290.8c-.7,0-1.2,0-1.7,0v-1.3h.9c-.5-.4-1-1-1-2s.7-2.1,2.5-2.1h3.5v1.5h-3.3c-.8,0-1.5.3-1.5,1.1s.4,1,.9,1.2c.1,0,.3,0,.5,0h3.4v1.5h-4.1Z"/>
    </g>
    <g>
      <path class="st4" d="M385.9,338.2l2.3.7v1.5l-8.1-2.6v-1.9l8.1-2.6v1.6l-2.3.7v2.6ZM384.8,335.8l-2,.6c-.5.2-1,.3-1.5.4h0c.5.1,1,.3,1.5.4l2,.6v-2.1Z"/>
      <path class="st4" d="M386.6,332.2c.3-.5.5-1.2.5-2s-.4-1.5-1.1-1.5-1,.4-1.3,1.4c-.5,1.3-1.2,2.2-2.4,2.2s-2.3-1.1-2.3-2.9.2-1.5.4-1.9l1.2.3c-.2.3-.4.9-.4,1.6s.5,1.3,1,1.3.9-.5,1.3-1.5c.5-1.4,1.2-2.1,2.4-2.1s2.4,1,2.4,3.1-.2,1.8-.5,2.2l-1.2-.3Z"/>
      <path class="st4" d="M384.6,321.4v3h2.4v-3.4h1.2v4.9h-8.1v-4.7h1.2v3.2h2.1v-3h1.2Z"/>
      <path class="st4" d="M380.3,317.2c0-.5-.2-1.3-.2-2.3s.2-1.9.7-2.4c.4-.5,1-.8,1.8-.8s1.4.2,1.8.7c.6.6.9,1.5.9,2.6s0,.5,0,.7h3.1v1.5h-8ZM384,315.8c0-.2,0-.4,0-.7,0-1.1-.6-1.8-1.5-1.8s-1.4.6-1.4,1.6,0,.7,0,.9h2.7Z"/>
      <path class="st4" d="M379.7,310.6v-1.5h8.5v1.5h-8.5Z"/>
      <path class="st4" d="M386.5,302.3c.7,0,1.3,0,1.8,0v1.3h-.9c.4.4,1,.9,1,2s-.6,2-2.5,2h-3.4v-1.5h3.2c1,0,1.6-.3,1.6-1.1s-.4-1-.8-1.1c-.1,0-.3,0-.5,0h-3.5v-1.5h4.1Z"/>
      <path class="st4" d="M387.4,295.4c1.2,0,2.1.3,2.7.9.5.6.7,1.5.7,2.3s-.2,1.5-.5,2l-1.1-.3c.2-.4.4-1,.4-1.7s-.5-1.7-1.8-1.7h-.5c.5.4.9.9.9,1.7,0,1.5-1.2,2.5-2.9,2.5s-3.1-1.2-3.1-2.7.4-1.4.9-1.7h0s-.8,0-.8,0v-1.3c.4,0,.9,0,1.7,0h3.3ZM384.7,296.9c-.1,0-.3,0-.4,0-.5.2-.9.6-.9,1.2s.7,1.4,1.9,1.4,1.8-.5,1.8-1.4-.4-1-.9-1.2c-.1,0-.3,0-.5,0h-.9Z"/>
      <path class="st4" d="M380.8,292.3c.4,0,.8.3.8.8s-.4.8-.8.8-.8-.3-.8-.8.3-.8.8-.8ZM388.2,293.9h-5.8v-1.5h5.8v1.5Z"/>
      <path class="st4" d="M384.1,290.8c-.7,0-1.2,0-1.7,0v-1.3h.9c-.5-.4-1-1-1-2s.7-2.1,2.5-2.1h3.5v1.5h-3.3c-.8,0-1.5.3-1.5,1.1s.4,1,.9,1.2c.1,0,.3,0,.5,0h3.4v1.5h-4.1Z"/>
    </g>
    <line class="st1" x1="351.6" y1="235.7" x2="351.6" y2="264.6"/>
    <polygon points="351.6 272.6 354.6 264.6 348.6 264.6 351.6 272.6"/>
    <polygon class="st2" points="351.6 272.6 354.6 264.6 348.6 264.6 351.6 272.6"/>
  </g>
</svg>