<?xml version="1.0" encoding="UTF-8"?>
<svg id="Layer_1" xmlns="http://www.w3.org/2000/svg" xmlns:xlink="http://www.w3.org/1999/xlink" version="1.1" viewBox="0 0 287.2 286.7">
  <!-- Generator: Adobe Illustrator 30.5.1, SVG Export Plug-In . SVG Version: 2.1.4 Build 3)  -->
  <defs>
    <style>
      .st0, .st1, .st2, .st3 {
        fill: none;
      }

      .st4 {
        fill: #368ddf;
      }

      .st5 {
        fill: #595959;
      }

      .st1 {
        stroke: #595959;
      }

      .st1, .st2, .st3 {
        stroke-linecap: square;
        stroke-linejoin: round;
        stroke-width: .1px;
      }

      .st2 {
        stroke: #0c4171;
      }

      .st6 {
        fill: #ebb57d;
      }

      .st7 {
        fill: #929292;
      }

      .st8 {
        fill: #0c4171;
      }

      .st9 {
        clip-path: url(#clippath-11);
      }

      .st10 {
        clip-path: url(#clippath-10);
      }

      .st11 {
        clip-path: url(#clippath-12);
      }

      .st3 {
        stroke: #71420d;
      }

      .st12 {
        clip-path: url(#clippath-1);
      }

      .st13 {
        clip-path: url(#clippath-3);
      }

      .st14 {
        clip-path: url(#clippath-4);
      }

      .st15 {
        clip-path: url(#clippath-2);
      }

      .st16 {
        clip-path: url(#clippath-7);
      }

      .st17 {
        clip-path: url(#clippath-6);
      }

      .st18 {
        clip-path: url(#clippath-9);
      }

      .st19 {
        clip-path: url(#clippath-8);
      }

      .st20 {
        clip-path: url(#clippath-5);
      }

      .st21 {
        fill: #fff;
      }

      .st22 {
        fill: #f5dbc1;
      }

      .st23 {
        fill: #7db4ea;
      }

      .st24 {
        fill: #71420d;
      }

      .st25 {
        fill: #f2f2f2;
      }

      .st26 {
        fill: #b26813;
      }

      .st27 {
        fill: #df8f37;
      }

      .st28 {
        fill: #c0dbf5;
      }

      .st29 {
        clip-path: url(#clippath);
      }
    </style>
    <clipPath id="clippath">
      <rect class="st0" x="1.9" y="1.9" width="283.3" height="282.8"/>
    </clipPath>
    <clipPath id="clippath-1">
      <rect class="st0" x="1.9" y="1.9" width="283.3" height="282.8"/>
    </clipPath>
    <clipPath id="clippath-2">
      <rect class="st0" x="1.9" y="1.9" width="283.3" height="282.8"/>
    </clipPath>
    <clipPath id="clippath-3">
      <rect class="st0" x="1.9" y="1.9" width="283.3" height="282.8"/>
    </clipPath>
    <clipPath id="clippath-4">
      <rect class="st0" x="1.9" y="1.9" width="283.3" height="282.8"/>
    </clipPath>
    <clipPath id="clippath-5">
      <rect class="st0" x="1.9" y="169.6" width="283.3" height="15.5"/>
    </clipPath>
    <clipPath id="clippath-6">
      <rect class="st0" x="1.9" y="186" width="283.3" height="15.5"/>
    </clipPath>
    <clipPath id="clippath-7">
      <rect class="st0" x="1.9" y="202.5" width="283.3" height="15.5"/>
    </clipPath>
    <clipPath id="clippath-8">
      <rect class="st0" x="1.9" y="218.9" width="283.3" height="15.5"/>
    </clipPath>
    <clipPath id="clippath-9">
      <rect class="st0" x="1.9" y="235.4" width="283.3" height="15.5"/>
    </clipPath>
    <clipPath id="clippath-10">
      <rect class="st0" x="1.9" y="251.8" width="283.3" height="15.5"/>
    </clipPath>
    <clipPath id="clippath-11">
      <rect class="st0" x="1.9" y="268.2" width="283.3" height="15.5"/>
    </clipPath>
    <clipPath id="clippath-12">
      <rect class="st0" width="287.2" height="286.7"/>
    </clipPath>
  </defs>
  <rect class="st28" x="169.1" y="17.9" width="22.3" height="151.3"/>
  <rect class="st23" x="191.3" y="17.9" width="20.8" height="151.3"/>
  <rect class="st4" x="212" y="17.9" width="24.6" height="151.3"/>
  <rect class="st8" x="236.5" y="17.9" width="23.9" height="151.3"/>
  <rect x="260.2" y="17.9" width="24.6" height="151.3"/>
  <rect class="st22" x="22.9" y="169.1" width="146.3" height="16.6"/>
  <rect class="st7" x="169.1" y="169.1" width="91.2" height="16.6"/>
  <rect class="st25" x="260.2" y="169.1" width="24.6" height="16.6"/>
  <rect class="st6" x="22.9" y="185.5" width="146.3" height="33"/>
  <rect class="st25" x="169.1" y="185.5" width="22.3" height="33"/>
  <rect class="st7" x="191.3" y="185.5" width="93.5" height="33"/>
  <rect class="st27" x="22.9" y="218.5" width="146.3" height="16.6"/>
  <rect class="st25" x="169.1" y="218.5" width="43" height="16.6"/>
  <rect class="st7" x="212" y="218.5" width="48.4" height="16.6"/>
  <rect class="st25" x="260.2" y="218.5" width="24.6" height="16.6"/>
  <rect class="st27" x="22.9" y="234.9" width="146.3" height="16.6"/>
  <rect class="st25" x="169.1" y="234.9" width="43" height="16.6"/>
  <rect class="st7" x="212" y="234.9" width="72.9" height="16.6"/>
  <rect class="st26" x="22.9" y="251.3" width="146.3" height="33"/>
  <rect class="st25" x="169.1" y="251.3" width="67.4" height="33"/>
  <rect class="st7" x="236.5" y="251.3" width="23.9" height="33"/>
  <rect class="st25" x="260.2" y="251.3" width="24.6" height="33"/>
  <g class="st29">
    <g>
      <path d="M185.2,167.6l-9.2-2.9v-1.9l9.2-2.9v1.9l-2.1.6v2.8l2.1.6v1.9ZM181.5,164.8v-2l-3.8,1,3.8,1Z"/>
      <path d="M185.3,157c0,.4-.1.8-.4,1.1-.3.3-.7.6-1.2.8-.5.2-1.2.3-2.1.3s-1.5-.1-2-.3c-.5-.2-.9-.5-1.2-.9-.2-.4-.4-.8-.4-1.2s0-.8.3-1.1c.2-.3.4-.6.8-.7h-3.1v-1.7h9.2v1.6h-1c.3.3.6.6.8.9.2.3.3.7.3,1.2ZM184,156.5c0-.3,0-.6-.3-.8-.2-.2-.4-.4-.7-.6h-2.7c-.3.1-.6.3-.7.5-.2.2-.3.5-.3.8s.2.7.6.9c.4.2.9.3,1.7.3s1.4,0,1.8-.3c.4-.2.6-.5.6-.8Z"/>
      <path d="M182.4,152h-1.4v-3.3h1.4v3.3Z"/>
      <path d="M185.2,147.1h-9.2v-1.8h3.7v-3.5h-3.7v-1.8h9.2v1.8h-4v3.5h4v1.8Z"/>
      <path d="M185.3,135.4c0,.6-.1,1.2-.4,1.6-.3.5-.7.8-1.2,1-.5.2-1.2.4-2,.4s-1.4-.1-2-.4c-.5-.2-.9-.6-1.2-1-.3-.4-.4-1-.4-1.6s.1-1.2.4-1.6c.3-.4.7-.8,1.2-1,.5-.2,1.2-.4,2-.4s1.4.1,2,.4c.5.2.9.6,1.2,1,.3.4.4,1,.4,1.6ZM184,135.4c0-.3-.1-.6-.3-.8-.2-.2-.5-.3-.8-.4s-.7-.1-1.2-.1-.8,0-1.2.1-.6.2-.8.4c-.2.2-.3.5-.3.8s.1.6.3.8c.2.2.5.3.8.4.3,0,.7.1,1.2.1s.8,0,1.2-.1c.3,0,.6-.2.8-.4s.3-.4.3-.8Z"/>
      <path d="M185.3,128.1c0,.6-.1,1.1-.4,1.6-.3.5-.6.8-1.2,1.1-.5.3-1.2.4-2,.4s-1.5-.1-2-.4c-.5-.2-.9-.6-1.2-1-.3-.4-.4-1-.4-1.6s0-.9.2-1.3c.2-.4.4-.7.7-1s.7-.4,1.2-.4v1.7c-.3,0-.5.1-.7.3-.2.2-.2.4-.2.7s.2.8.6,1,1,.3,1.7.3.9,0,1.2-.1c.3,0,.6-.2.8-.4.2-.2.3-.4.3-.7s0-.6-.3-.8c-.2-.2-.4-.3-.8-.3v-1.7c.8,0,1.4.3,1.8.8s.6,1.2.6,1.9Z"/>
      <path d="M185.2,121.2h-9.2v-2.1l5-2.5v.8l-5-2.5v-2h9.2v1.8h-8.3v-.8l5.3,2.7v1.1l-5.3,2.7v-.8h8.3v1.7Z"/>
      <path d="M185.3,108.3c0,.6-.1,1.2-.4,1.6-.3.5-.7.8-1.2,1-.5.2-1.2.4-2,.4s-1.4-.1-2-.4c-.5-.2-.9-.6-1.2-1-.3-.4-.4-1-.4-1.6s.1-1.2.4-1.6c.3-.4.7-.8,1.2-1,.5-.2,1.2-.4,2-.4s1.4.1,2,.4c.5.2.9.6,1.2,1,.3.4.4,1,.4,1.6ZM184,108.3c0-.3-.1-.6-.3-.8-.2-.2-.5-.3-.8-.4s-.7-.1-1.2-.1-.8,0-1.2.1-.6.2-.8.4c-.2.2-.3.5-.3.8s.1.6.3.8c.2.2.5.3.8.4.3,0,.7.1,1.2.1s.8,0,1.2-.1c.3,0,.6-.2.8-.4s.3-.4.3-.8Z"/>
      <path d="M185.3,101.7c0,.4-.1.8-.4,1.1-.3.3-.7.6-1.2.8-.5.2-1.2.3-2.1.3s-1.5-.1-2-.3c-.5-.2-.9-.5-1.2-.9-.2-.4-.4-.8-.4-1.2s0-.8.3-1.1c.2-.3.4-.6.8-.7h-3.1v-1.7h9.2v1.6h-1c.3.3.6.6.8.9s.3.7.3,1.2ZM184,101.2c0-.3,0-.6-.3-.8-.2-.2-.4-.4-.7-.6h-2.7c-.3.1-.6.3-.7.5-.2.2-.3.5-.3.8s.2.7.6.8c.4.2.9.3,1.7.3s1.4,0,1.8-.3c.4-.2.6-.5.6-.8Z"/>
      <path d="M185.3,93.5c0,.7-.1,1.3-.4,1.7s-.7.8-1.2,1-1.2.3-2,.3-1.4-.1-2-.3c-.5-.2-1-.6-1.3-1s-.4-1-.4-1.7.3-1.6.9-2.1c.6-.5,1.5-.8,2.6-.8,0,0,.1,0,.2,0s.2,0,.3,0v4.2c.4,0,.7,0,1-.2.3,0,.6-.2.7-.4s.3-.5.3-.8,0-.5-.2-.6c-.1-.2-.3-.3-.6-.4v-1.8c.5,0,.8.2,1.1.5.3.2.5.5.7.9s.2.8.2,1.4ZM180.9,94.8v-2.5c-.6,0-1,.1-1.3.3-.3.2-.4.5-.4.8s.1.7.4.9c.3.2.7.4,1.3.4Z"/>
    </g>
  </g>
  <g class="st12">
    <g>
      <path d="M206.7,166.7h-9.2v-3.2c0-.6.1-1.1.3-1.5s.5-.8,1-1.1c.4-.3,1-.4,1.7-.4s1.2.1,1.6.4c.4.3.8.6,1,1.1.2.5.3,1,.3,1.5v1.4h3.4v1.8ZM201.9,164.8v-1.2c0-.4-.1-.7-.4-1-.2-.2-.6-.4-1.1-.4s-.9.1-1.1.4c-.2.3-.4.6-.4.9v1.2h3Z"/>
      <path d="M206.7,156.8c0,.6,0,1.1-.2,1.4-.1.3-.4.6-.7.7-.3.1-.7.2-1.3.2h-7.1v-1.7h7c.3,0,.6,0,.7-.1.2,0,.2-.3.2-.6v-.4h1.3v.4Z"/>
      <path d="M206.8,153.7c0,.3,0,.7-.2.9s-.4.5-.7.7c-.3.2-.7.3-1.1.3s-1.1-.2-1.4-.5c-.3-.3-.6-.8-.7-1.4-.1-.6-.2-1.3-.2-2h-.6c-.5,0-.8,0-.9.2s-.3.4-.3.7,0,.5.2.7.4.3.7.3v1.6c-.7,0-1.2-.3-1.5-.8-.3-.5-.4-1-.4-1.8s0-.8.1-1.1.2-.6.4-.8c.2-.2.4-.4.7-.5.3-.1.7-.2,1.1-.2h4.8v1.6h-.9c.3.3.6.6.7.9.2.3.2.7.2,1.1ZM205.7,153.1c0-.3,0-.5-.2-.8-.2-.2-.3-.4-.5-.6h-1.6c0,.8.1,1.3.3,1.7.2.3.5.5,1,.5s.6,0,.8-.2.2-.3.2-.6Z"/>
      <path d="M206.7,148.3h-7v-1.7h1c-.3-.2-.5-.5-.8-.8-.2-.3-.3-.7-.3-1.3s.2-1.1.6-1.4,1-.5,1.7-.5h4.8v1.7h-4.6c-.2,0-.4,0-.6,0-.2,0-.3.1-.4.3-.1.1-.2.3-.2.5s0,.5.2.8c.2.2.4.4.6.6h5v1.7Z"/>
      <path d="M206.7,138.2h-9.2v-2.1l5-2.5v.8l-5-2.5v-2h9.2v1.8h-8.3v-.8l5.3,2.7v1.1l-5.3,2.7v-.8h8.3v1.7Z"/>
      <path d="M206.8,125.3c0,.6-.1,1.2-.4,1.6-.3.5-.7.8-1.2,1-.5.2-1.2.4-2,.4s-1.4-.1-2-.4c-.5-.2-.9-.6-1.2-1-.3-.4-.4-1-.4-1.6s.1-1.2.4-1.6c.3-.4.7-.8,1.2-1,.5-.2,1.2-.4,2-.4s1.4.1,2,.4c.5.2.9.6,1.2,1,.3.4.4,1,.4,1.6ZM205.5,125.3c0-.3-.1-.6-.3-.8-.2-.2-.5-.3-.8-.4s-.7-.1-1.2-.1-.8,0-1.2.1-.6.2-.8.4c-.2.2-.3.5-.3.8s.1.6.3.8c.2.2.5.3.8.4.3,0,.7.1,1.2.1s.8,0,1.2-.1c.3,0,.6-.2.8-.4.2-.2.3-.4.3-.8Z"/>
      <path d="M206.8,118.8c0,.4-.1.8-.4,1.1-.3.3-.7.6-1.2.8-.5.2-1.2.3-2.1.3s-1.5-.1-2-.3c-.5-.2-.9-.5-1.2-.9-.2-.4-.4-.8-.4-1.2s0-.8.3-1.1c.2-.3.4-.6.8-.7h-3.1v-1.7h9.2v1.6h-1c.3.3.6.6.8.9s.3.7.3,1.2ZM205.5,118.2c0-.3,0-.6-.3-.8-.2-.2-.4-.4-.7-.6h-2.7c-.3.1-.6.3-.7.5-.2.2-.3.5-.3.8s.2.7.6.8c.4.2.9.3,1.7.3s1.4,0,1.8-.3c.4-.2.6-.5.6-.8Z"/>
      <path d="M206.8,110.5c0,.7-.1,1.3-.4,1.7s-.7.8-1.2,1-1.2.3-2,.3-1.4-.1-2-.3c-.5-.2-1-.6-1.3-1s-.4-1-.4-1.7.3-1.6.9-2.1c.6-.5,1.5-.8,2.6-.8,0,0,.1,0,.2,0s.2,0,.3,0v4.2c.4,0,.7,0,1-.2.3,0,.6-.2.7-.4s.3-.5.3-.8,0-.5-.2-.6c-.1-.2-.3-.3-.6-.4v-1.8c.5,0,.8.2,1.1.5.3.2.5.5.7.9s.2.8.2,1.4ZM202.4,111.9v-2.5c-.6,0-1,.1-1.3.3-.3.2-.4.5-.4.8s.1.7.4.9c.3.2.7.4,1.3.4Z"/>
    </g>
  </g>
  <g class="st15">
    <g>
      <path class="st21" d="M229.1,165.4h-7.7v2.1h-1.5v-6.1h1.5v2.1h7.7v1.8Z"/>
      <path class="st21" d="M229.2,158.8c0,.3,0,.7-.2.9s-.4.5-.7.7c-.3.2-.7.3-1.1.3s-1.1-.2-1.4-.5c-.3-.3-.6-.8-.7-1.4-.1-.6-.2-1.3-.2-2h-.6c-.5,0-.8,0-.9.2s-.3.4-.3.7,0,.5.2.7.4.3.7.3v1.6c-.7,0-1.2-.3-1.5-.8-.3-.5-.4-1-.4-1.8s0-.8.1-1.1.2-.6.4-.8c.2-.2.4-.4.7-.5.3-.1.7-.2,1.1-.2h4.8v1.6h-.9c.3.3.6.6.7.9.2.3.2.7.2,1.1ZM228.1,158.2c0-.3,0-.5-.2-.8-.2-.2-.3-.4-.5-.6h-1.6c0,.8.1,1.3.3,1.7.2.3.5.5,1,.5s.6,0,.8-.2.2-.3.2-.6Z"/>
      <path class="st21" d="M229.2,151c0,.3,0,.6,0,1,0,.3-.2.6-.3.9-.1.3-.3.5-.6.6-.3.2-.6.2-.9.2v-1.6c.3,0,.5-.1.6-.3.1-.2.2-.5.2-.8s0-.5-.2-.7c-.1-.1-.3-.2-.6-.2s-.6,0-.7.3c-.2.2-.3.5-.4,1-.1.4-.3.8-.4,1.1-.2.3-.4.6-.6.8-.3.2-.6.3-1.1.3s-.7,0-.9-.2-.5-.3-.6-.6c-.2-.2-.3-.5-.4-.8,0-.3-.1-.6-.1-.9s0-.6,0-.9c0-.3.2-.6.3-.8.1-.2.3-.4.6-.6s.5-.2.9-.2v1.6c-.3,0-.5,0-.5.3s-.1.4-.1.6,0,.5.2.6c.1.1.3.2.6.2s.3,0,.4-.2.2-.3.3-.5c0-.2.2-.5.3-.8,0-.3.2-.7.4-1,.2-.3.4-.6.7-.7.3-.2.7-.3,1.1-.3s1,.1,1.3.4c.3.2.6.6.7,1,.1.4.2.8.2,1.3Z"/>
      <path class="st21" d="M229.1,147h-9.2v-1.7h5.4l-3.2-2.2v-1.9l3.2,2.3,3.8-2.4v1.9l-3.7,2.3h3.7v1.7Z"/>
      <path class="st21" d="M229.1,137.6h-9.2v-2.1l5-2.5v.8l-5-2.5v-2h9.2v1.8h-8.3v-.8l5.3,2.7v1.1l-5.3,2.7v-.8h8.3v1.7Z"/>
      <path class="st21" d="M229.2,124.6c0,.6-.1,1.2-.4,1.6s-.7.8-1.2,1-1.2.4-2,.4-1.4-.1-2-.4c-.5-.2-.9-.6-1.2-1-.3-.5-.4-1-.4-1.6s.1-1.2.4-1.6c.3-.4.7-.8,1.2-1,.5-.2,1.2-.4,2-.4s1.4.1,2,.4c.5.2.9.6,1.2,1,.3.4.4,1,.4,1.6ZM227.9,124.6c0-.3-.1-.6-.3-.8-.2-.2-.5-.3-.8-.4s-.7-.1-1.2-.1-.8,0-1.2.1-.6.2-.8.4c-.2.2-.3.5-.3.8s.1.6.3.8c.2.2.5.3.8.4.3,0,.7.1,1.2.1s.8,0,1.2-.1c.3,0,.6-.2.8-.4.2-.2.3-.4.3-.8Z"/>
      <path class="st21" d="M229.2,118.1c0,.4-.1.8-.4,1.1-.3.3-.7.6-1.2.8-.5.2-1.2.3-2.1.3s-1.5-.1-2-.3c-.5-.2-.9-.5-1.2-.9-.2-.4-.4-.8-.4-1.2s0-.8.3-1.1c.2-.3.4-.6.8-.7h-3.1v-1.7h9.2v1.6h-1c.3.3.6.6.8.9s.3.7.3,1.2ZM227.9,117.6c0-.3,0-.6-.3-.8-.2-.2-.4-.4-.7-.6h-2.7c-.3.1-.6.3-.7.5-.2.2-.3.5-.3.8s.2.7.6.8c.4.2.9.3,1.7.3s1.4,0,1.8-.3c.4-.2.6-.5.6-.8Z"/>
      <path class="st21" d="M229.2,109.9c0,.7-.1,1.3-.4,1.7s-.7.8-1.2,1-1.2.3-2,.3-1.4-.1-2-.3c-.5-.2-1-.6-1.3-1s-.4-1-.4-1.7.3-1.6.9-2.1c.6-.5,1.5-.8,2.6-.8,0,0,.1,0,.2,0s.2,0,.3,0v4.2c.4,0,.7,0,1-.2.3,0,.6-.2.7-.4s.3-.5.3-.8,0-.5-.2-.6c-.1-.2-.3-.3-.6-.4v-1.8c.5,0,.8.2,1.1.5.3.2.5.5.7.9s.2.8.2,1.4ZM224.9,111.2v-2.5c-.6,0-1,.1-1.3.3-.3.2-.4.5-.4.8s.1.7.4.9c.3.2.7.4,1.3.4Z"/>
    </g>
  </g>
  <g class="st13">
    <g>
      <path class="st21" d="M253.3,166.7h-9.2v-5.4h1.5v3.5h2.3v-3.2h1.4v3.2h4v1.8Z"/>
      <path class="st21" d="M253.3,158.2c0,.6-.2,1-.6,1.3-.4.3-1,.5-1.7.5h-4.8v-1.7h4.6c.2,0,.4,0,.6,0,.2,0,.3-.1.4-.3.1-.1.2-.3.2-.5,0-.3,0-.5-.2-.8-.2-.2-.3-.4-.5-.6h-5v-1.7h7v1.7h-1c.3.2.5.5.8.8.2.3.3.8.3,1.3Z"/>
      <path class="st21" d="M253.3,152.7h-7v-1.7h1c-.3-.2-.5-.5-.8-.8-.2-.3-.3-.7-.3-1.3s.2-1.1.6-1.4,1-.5,1.7-.5h4.8v1.7h-4.6c-.2,0-.4,0-.6,0-.2,0-.3.1-.4.3-.1.1-.2.3-.2.5s0,.5.2.8c.2.2.4.4.6.6h5v1.7Z"/>
      <path class="st21" d="M253.3,145.3h-7v-1.7h1c-.3-.2-.5-.5-.8-.8-.2-.3-.3-.7-.3-1.3s.2-1.1.6-1.4,1-.5,1.7-.5h4.8v1.7h-4.6c-.2,0-.4,0-.6,0-.2,0-.3.1-.4.3-.1.1-.2.3-.2.5s0,.5.2.8c.2.2.4.4.6.6h5v1.7Z"/>
      <path class="st21" d="M253.4,135.1c0,.7-.1,1.3-.4,1.7-.3.5-.7.8-1.2,1-.5.2-1.2.3-2,.3s-1.4-.1-2-.3c-.5-.2-1-.6-1.3-1s-.4-1-.4-1.7.3-1.6.9-2.1c.6-.5,1.5-.8,2.6-.8,0,0,.1,0,.2,0,.1,0,.2,0,.3,0v4.2c.4,0,.7,0,1-.2.3,0,.6-.2.7-.4s.3-.5.3-.8,0-.5-.2-.6c-.1-.2-.3-.3-.6-.4v-1.8c.5,0,.8.2,1.1.5.3.2.5.5.7.9s.2.8.2,1.4ZM249,136.4v-2.5c-.6,0-1,.1-1.3.3-.3.2-.4.5-.4.8s.1.7.4.9c.3.2.7.4,1.3.4Z"/>
      <path class="st21" d="M253.3,128.5c0,.6,0,1.1-.2,1.4-.1.3-.4.6-.7.7-.3.1-.7.2-1.3.2h-7.1v-1.7h7c.3,0,.6,0,.7-.1.2,0,.2-.3.2-.6v-.4h1.3v.4Z"/>
      <path class="st21" d="M253.3,124.3h-9.2v-2.1l5-2.5v.8l-5-2.5v-2h9.2v1.8h-8.3v-.8l5.3,2.7v1.1l-5.3,2.7v-.8h8.3v1.7Z"/>
      <path class="st21" d="M253.3,111.4c0,.6-.1,1.2-.4,1.6s-.7.8-1.2,1-1.2.4-2,.4-1.4-.1-2-.4-.9-.6-1.2-1c-.3-.5-.4-1-.4-1.6s.1-1.2.4-1.6c.3-.4.7-.8,1.2-1,.5-.2,1.2-.4,2-.4s1.4.1,2,.4c.5.2.9.6,1.2,1,.3.4.4,1,.4,1.6ZM252.1,111.4c0-.3-.1-.6-.3-.8-.2-.2-.5-.3-.8-.4s-.7-.1-1.2-.1-.8,0-1.2.1-.6.2-.8.4c-.2.2-.3.5-.3.8s.1.6.3.8c.2.2.5.3.8.4.3,0,.7.1,1.2.1s.8,0,1.2-.1c.3,0,.6-.2.8-.4.2-.2.3-.4.3-.8Z"/>
      <path class="st21" d="M253.4,104.8c0,.4-.1.8-.4,1.1s-.7.6-1.2.8c-.5.2-1.2.3-2.1.3s-1.5-.1-2-.3c-.5-.2-.9-.5-1.2-.9-.2-.4-.4-.8-.4-1.2s0-.8.3-1.1c.2-.3.4-.6.8-.7h-3.1v-1.7h9.2v1.6h-1c.3.3.6.6.8.9s.3.7.3,1.2ZM252.1,104.3c0-.3,0-.6-.3-.8s-.4-.4-.7-.6h-2.7c-.3.1-.6.3-.7.5-.2.2-.3.5-.3.8s.2.7.6.8c.4.2.9.3,1.7.3s1.4,0,1.8-.3c.4-.2.6-.5.6-.8Z"/>
      <path class="st21" d="M253.4,96.6c0,.7-.1,1.3-.4,1.7-.3.5-.7.8-1.2,1-.5.2-1.2.3-2,.3s-1.4-.1-2-.3c-.5-.2-1-.6-1.3-1s-.4-1-.4-1.7.3-1.6.9-2.1c.6-.5,1.5-.8,2.6-.8,0,0,.1,0,.2,0,.1,0,.2,0,.3,0v4.2c.4,0,.7,0,1-.2.3,0,.6-.2.7-.4s.3-.5.3-.8,0-.5-.2-.6c-.1-.2-.3-.3-.6-.4v-1.8c.5,0,.8.2,1.1.5.3.2.5.5.7.9s.2.8.2,1.4ZM249,97.9v-2.5c-.6,0-1,.1-1.3.3-.3.2-.4.5-.4.8s.1.7.4.9c.3.2.7.4,1.3.4Z"/>
    </g>
  </g>
  <g class="st14">
    <g>
      <path class="st21" d="M277.5,163.8c0,.6,0,1.2-.3,1.7-.2.5-.5.9-.9,1.2-.4.3-1,.4-1.6.4v-1.9c.3,0,.6,0,.8-.2s.3-.3.4-.5c0-.2.1-.5.1-.7s0-.5-.1-.7c0-.2-.2-.4-.4-.5-.2-.1-.4-.2-.6-.2s-.5,0-.7.2c-.2.1-.3.3-.5.5-.1.3-.3.6-.4,1.1-.2.5-.4,1-.6,1.4-.2.4-.5.7-.9,1s-.8.3-1.3.3-1-.1-1.4-.4c-.4-.3-.6-.6-.8-1.1-.2-.5-.3-1-.3-1.6s0-1.1.3-1.6c.2-.5.5-.8.8-1.1.4-.3.9-.4,1.4-.4v1.9c-.4,0-.7.1-.9.4-.2.2-.3.5-.3.9s0,.6.2.9.4.3.7.3.4,0,.6-.2.3-.3.4-.6c.1-.3.3-.7.5-1.1.2-.6.4-1.1.6-1.5s.5-.7.9-.9c.4-.2.8-.3,1.4-.3s1.1.1,1.5.4c.4.3.7.6.9,1.1s.3,1,.3,1.7Z"/>
      <path class="st21" d="M279.8,159.4h-1.4v-.5c0-.2,0-.4-.2-.6-.1-.1-.3-.2-.5-.3h-.4c0-.1-7,2.1-7,2.1v-1.8l5.4-1.4-5.4-1.3v-1.7l7,2.1.5.2c.5.2.9.4,1.2.6s.5.5.6.8c.1.3.2.7.2,1.1v.7Z"/>
      <path class="st21" d="M277.4,152.9h-7v-1.7h1c-.3-.2-.5-.5-.8-.8-.2-.3-.3-.7-.3-1.3s.2-1.1.6-1.4c.4-.3,1-.5,1.7-.5h4.8v1.7h-4.6c-.2,0-.4,0-.6,0-.2,0-.3.1-.4.3s-.2.3-.2.5,0,.5.2.8.4.4.6.6h5v1.7Z"/>
      <path class="st21" d="M277.5,142.8c0,.6-.1,1.1-.4,1.6s-.6.8-1.2,1.1c-.5.3-1.2.4-2,.4s-1.5-.1-2-.4c-.5-.2-.9-.6-1.2-1-.3-.4-.4-1-.4-1.6s0-.9.2-1.3c.2-.4.4-.7.7-1s.7-.4,1.2-.4v1.7c-.3,0-.5.1-.7.3s-.2.4-.2.7.2.8.6,1c.4.2,1,.3,1.7.3s.9,0,1.2-.1.6-.2.8-.4c.2-.2.3-.4.3-.7s0-.6-.3-.8-.4-.3-.8-.3v-1.7c.8,0,1.4.3,1.8.8.4.5.6,1.2.6,1.9Z"/>
      <path class="st21" d="M277.4,135.9h-9.2v-2.1l5-2.5v.8l-5-2.5v-2h9.2v1.8h-8.3v-.8l5.3,2.7v1.1l-5.3,2.7v-.8h8.3v1.7Z"/>
      <path class="st21" d="M277.5,123c0,.6-.1,1.2-.4,1.6s-.7.8-1.2,1-1.2.4-2,.4-1.4-.1-2-.4c-.5-.2-.9-.6-1.2-1s-.4-1-.4-1.6.1-1.2.4-1.6c.3-.4.7-.8,1.2-1,.5-.2,1.2-.4,2-.4s1.4.1,2,.4c.5.2.9.6,1.2,1,.3.4.4,1,.4,1.6ZM276.2,123c0-.3-.1-.6-.3-.8-.2-.2-.5-.3-.8-.4s-.7-.1-1.2-.1-.8,0-1.2.1-.6.2-.8.4c-.2.2-.3.5-.3.8s.1.6.3.8c.2.2.5.3.8.4.3,0,.7.1,1.2.1s.8,0,1.2-.1c.3,0,.6-.2.8-.4.2-.2.3-.4.3-.8Z"/>
      <path class="st21" d="M277.5,116.5c0,.4-.1.8-.4,1.1-.3.3-.7.6-1.2.8-.5.2-1.2.3-2.1.3s-1.5-.1-2-.3c-.5-.2-.9-.5-1.2-.9s-.4-.8-.4-1.2,0-.8.3-1.1c.2-.3.4-.6.8-.7h-3.1v-1.7h9.2v1.6h-1c.3.3.6.6.8.9s.3.7.3,1.2ZM276.2,115.9c0-.3,0-.6-.3-.8-.2-.2-.4-.4-.7-.6h-2.7c-.3.1-.6.3-.7.5-.2.2-.3.5-.3.8s.2.7.6.8c.4.2.9.3,1.7.3s1.4,0,1.8-.3.6-.5.6-.8Z"/>
      <path class="st21" d="M277.5,108.2c0,.7-.1,1.3-.4,1.7-.3.5-.7.8-1.2,1-.5.2-1.2.3-2,.3s-1.4-.1-2-.3c-.5-.2-1-.6-1.3-1s-.4-1-.4-1.7.3-1.6.9-2.1c.6-.5,1.5-.8,2.6-.8,0,0,.1,0,.2,0,.1,0,.2,0,.3,0v4.2c.4,0,.7,0,1-.2.3,0,.6-.2.7-.4s.3-.5.3-.8,0-.5-.2-.6c-.1-.2-.3-.3-.6-.4v-1.8c.5,0,.8.2,1.1.5.3.2.5.5.7.9s.2.8.2,1.4ZM273.1,109.6v-2.5c-.6,0-1,.1-1.3.3-.3.2-.4.5-.4.8s.1.7.4.9.7.4,1.3.4Z"/>
    </g>
  </g>
  <g class="st20">
    <g>
      <path d="M25.8,181.6v-7.9h2.6c.8,0,1.4.2,2,.5s.9.8,1.2,1.4.4,1.3.4,2.1-.1,1.5-.4,2.1-.7,1-1.2,1.4-1.2.5-1.9.5h-2.6ZM27.4,180.3h.9c.4,0,.8,0,1.1-.3s.5-.5.7-.9.2-.9.2-1.5,0-1.1-.3-1.5-.4-.7-.7-.9-.7-.3-1.1-.3h-.9v5.3Z"/>
      <path d="M34.1,175c-.3,0-.5,0-.6-.2s-.2-.3-.2-.5,0-.4.2-.5.3-.2.6-.2.5,0,.6.2.2.3.2.5,0,.4-.2.5-.3.2-.6.2ZM33.3,181.6v-6h1.5v6h-1.5Z"/>
      <path d="M36.3,181.6v-6h1.4v1c.2-.3.3-.6.6-.8s.6-.3.9-.3h.1v1.2h-.1c-.2,0-.4,0-.6,0s-.4.1-.5.2-.3.2-.4.4v4.2h-1.5Z"/>
      <path d="M42.8,181.7c-.6,0-1.1-.1-1.5-.4s-.7-.6-.9-1.1-.3-1-.3-1.7,0-1.2.3-1.7.5-.8.9-1.1.9-.4,1.4-.4,1.4.3,1.8.8.7,1.2.7,2.2c0,0,0,.1,0,.2s0,.2,0,.2h-3.6c0,.3,0,.6.1.9s.2.5.4.6.4.2.7.2.4,0,.5-.2.2-.3.3-.5h1.5c0,.4-.2.7-.4,1s-.5.4-.8.6-.7.2-1.2.2ZM41.6,177.9h2.1c0-.5-.1-.9-.3-1.1s-.4-.4-.7-.4-.6.1-.8.4-.3.6-.3,1.1Z"/>
      <path d="M48.8,181.6c-.5,0-.9-.1-1.3-.3s-.7-.6-.9-1-.3-1-.3-1.8.1-1.3.3-1.7.5-.8.9-1,.8-.3,1.4-.3.8,0,1.1.2.6.3.8.6.3.6.4,1.1h-1.4c0-.2-.1-.4-.3-.6s-.4-.2-.6-.2-.7.2-.8.5-.2.8-.2,1.4,0,.7.1,1,.2.5.3.7.4.2.6.2.5,0,.7-.2.2-.4.3-.7h1.4c0,.7-.3,1.2-.7,1.5s-1,.5-1.6.5Z"/>
      <path d="M54.7,181.6c-.5,0-.9,0-1.2-.2s-.5-.3-.6-.6-.2-.7-.2-1.1v-2.9h-.8v-1.1h.8v-1.3h1.5v1.3h1.1v1.1h-1.1v2.9c0,.3,0,.5.1.7s.2.2.5.2h.5v1.1h-.5Z"/>
      <path d="M58.6,181.6v-7.9h1.6v7.9h-1.6Z"/>
      <path d="M61.7,181.6v-6h1.4v.9c.2-.2.4-.5.7-.7s.6-.3,1.1-.3.9.2,1.2.5.4.8.4,1.5v4.1h-1.5v-3.9c0-.2,0-.3,0-.5s-.1-.3-.2-.4-.2-.1-.4-.1-.5,0-.7.2-.4.3-.5.5v4.2h-1.5Z"/>
      <path d="M70.1,181.7c-.3,0-.5,0-.8,0s-.5-.1-.7-.3-.4-.3-.5-.5-.2-.5-.2-.8h1.4c0,.3.1.4.3.5s.4.1.7.1.4,0,.6-.2.2-.3.2-.5,0-.5-.3-.6-.5-.3-.9-.4c-.3,0-.7-.2-.9-.4s-.5-.3-.7-.6-.2-.5-.2-.9,0-.6.2-.8.3-.4.5-.5.4-.2.7-.3.5,0,.8,0,.5,0,.7,0,.5.1.7.3.4.3.5.5.2.5.2.8h-1.4c0-.2,0-.4-.2-.5s-.3-.1-.5-.1-.4,0-.5.1-.2.3-.2.5,0,.2.1.3.2.2.4.2.4.1.7.2c.3,0,.6.2.8.3s.5.3.6.6.2.6.2,1-.1.8-.3,1.1-.5.5-.8.6-.7.2-1.1.2Z"/>
      <path d="M75.8,181.6c-.5,0-.9,0-1.2-.2s-.5-.3-.6-.6-.2-.7-.2-1.1v-2.9h-.8v-1.1h.8v-1.3h1.5v1.3h1.1v1.1h-1.1v2.9c0,.3,0,.5.1.7s.2.2.5.2h.5v1.1h-.5Z"/>
      <path d="M77.4,181.6v-6h1.4v1c.2-.3.3-.6.6-.8s.6-.3.9-.3h.1v1.2h-.1c-.2,0-.4,0-.6,0s-.4.1-.5.2-.3.2-.4.4v4.2h-1.5Z"/>
      <path d="M83,181.7c-.5,0-.9-.2-1.1-.5s-.4-.8-.4-1.4v-4.1h1.5v3.9c0,.2,0,.3,0,.5s.1.3.2.4.2.1.4.1c.2,0,.5,0,.7-.2s.4-.3.5-.5v-4.3h1.5v6h-1.4v-.9c-.2.2-.4.5-.7.7s-.7.3-1.1.3Z"/>
      <path d="M90.1,181.6c-.5,0-.9-.1-1.3-.3s-.7-.6-.9-1-.3-1-.3-1.8.1-1.3.3-1.7.5-.8.9-1,.8-.3,1.4-.3.8,0,1.1.2.6.3.8.6.3.6.4,1.1h-1.4c0-.2-.1-.4-.3-.6s-.4-.2-.6-.2-.7.2-.8.5-.2.8-.2,1.4,0,.7.1,1,.2.5.3.7.4.2.6.2.5,0,.7-.2.2-.4.3-.7h1.4c0,.7-.3,1.2-.7,1.5s-1,.5-1.6.5Z"/>
      <path d="M95.9,181.6c-.5,0-.9,0-1.2-.2s-.5-.3-.6-.6-.2-.7-.2-1.1v-2.9h-.8v-1.1h.8v-1.3h1.5v1.3h1.1v1.1h-1.1v2.9c0,.3,0,.5.1.7s.2.2.5.2h.5v1.1h-.5Z"/>
      <path d="M98.3,175c-.3,0-.5,0-.6-.2s-.2-.3-.2-.5,0-.4.2-.5.3-.2.6-.2.5,0,.6.2.2.3.2.5,0,.4-.2.5-.3.2-.6.2ZM97.6,181.6v-6h1.5v6h-1.5Z"/>
      <path d="M102.9,181.7c-.6,0-1-.1-1.4-.4s-.7-.6-.9-1-.3-1-.3-1.7.1-1.2.3-1.7.5-.8.9-1.1.9-.4,1.4-.4,1,.1,1.4.4.7.6.9,1.1.3,1,.3,1.7-.1,1.2-.3,1.7-.5.8-.9,1-.9.4-1.4.4ZM102.9,180.6c.3,0,.5,0,.7-.3s.3-.4.3-.7,0-.6,0-1,0-.7,0-1-.2-.5-.3-.7-.4-.3-.7-.3-.5,0-.7.3-.3.4-.3.7,0,.6,0,1,0,.7,0,1,.2.5.3.7.4.3.7.3Z"/>
      <path d="M106.8,181.6v-6h1.4v.9c.2-.2.4-.5.7-.7s.6-.3,1.1-.3.9.2,1.2.5.4.8.4,1.5v4.1h-1.5v-3.9c0-.2,0-.3,0-.5s-.1-.3-.2-.4-.2-.1-.4-.1-.5,0-.7.2-.4.3-.5.5v4.2h-1.5Z"/>
    </g>
  </g>
  <g class="st17">
    <g>
      <path d="M25.8,198v-7.9h2.6c.8,0,1.4.2,2,.5s.9.8,1.2,1.4.4,1.3.4,2.1-.1,1.5-.4,2.1-.7,1-1.2,1.4-1.2.5-1.9.5h-2.6ZM27.4,196.7h.9c.4,0,.8,0,1.1-.3s.5-.5.7-.9.2-.9.2-1.5,0-1.1-.3-1.5-.4-.7-.7-.9-.7-.3-1.1-.3h-.9v5.3Z"/>
      <path d="M35.7,198.1c-.6,0-1.1-.1-1.5-.4s-.7-.6-.9-1.1-.3-1-.3-1.7,0-1.2.3-1.7.5-.8.9-1.1.9-.4,1.4-.4,1.4.3,1.8.8.7,1.2.7,2.2c0,0,0,.1,0,.2s0,.2,0,.2h-3.6c0,.3,0,.6.1.9s.2.5.4.6.4.2.7.2.4,0,.5-.2.2-.3.3-.5h1.5c0,.4-.2.7-.4,1s-.5.4-.8.6-.7.2-1.2.2ZM34.5,194.4h2.1c0-.5-.1-.9-.3-1.1s-.4-.4-.7-.4-.6.1-.8.4-.3.6-.3,1.1Z"/>
      <path d="M39.6,198v-4.9h-.8v-1.1h.8c0-.4,0-.7,0-.9s.2-.4.3-.6.3-.3.6-.4.6-.1,1-.1h.5v1h-.5c-.2,0-.4,0-.5.2s-.1.3-.1.6h0c0,.1,1.1.1,1.1.1v1.1h-1.1v4.9h-1.5Z"/>
      <path d="M45.4,198.1c-.6,0-1.1-.1-1.5-.4s-.7-.6-.9-1.1-.3-1-.3-1.7,0-1.2.3-1.7.5-.8.9-1.1.9-.4,1.4-.4,1.4.3,1.8.8.7,1.2.7,2.2c0,0,0,.1,0,.2s0,.2,0,.2h-3.6c0,.3,0,.6.1.9s.2.5.4.6.4.2.7.2.4,0,.5-.2.2-.3.3-.5h1.5c0,.4-.2.7-.4,1s-.5.4-.8.6-.7.2-1.2.2ZM44.3,194.4h2.1c0-.5-.1-.9-.3-1.1s-.4-.4-.7-.4-.6.1-.8.4-.3.6-.3,1.1Z"/>
      <path d="M49.1,198v-6h1.4v1c.2-.3.3-.6.6-.8s.6-.3.9-.3h.1v1.2h-.1c-.2,0-.4,0-.6,0s-.4.1-.5.2-.3.2-.4.4v4.2h-1.5Z"/>
      <path d="M53.2,198v-6h1.4v1c.2-.3.3-.6.6-.8s.6-.3.9-.3h.1v1.2h-.1c-.2,0-.4,0-.6,0s-.4.1-.5.2-.3.2-.4.4v4.2h-1.5Z"/>
      <path d="M59.7,198.1c-.6,0-1.1-.1-1.5-.4s-.7-.6-.9-1.1-.3-1-.3-1.7,0-1.2.3-1.7.5-.8.9-1.1.9-.4,1.4-.4,1.4.3,1.8.8.7,1.2.7,2.2c0,0,0,.1,0,.2s0,.2,0,.2h-3.6c0,.3,0,.6.1.9s.2.5.4.6.4.2.7.2.4,0,.5-.2.2-.3.3-.5h1.5c0,.4-.2.7-.4,1s-.5.4-.8.6-.7.2-1.2.2ZM58.5,194.4h2.1c0-.5-.1-.9-.3-1.1s-.4-.4-.7-.4-.6.1-.8.4-.3.6-.3,1.1Z"/>
      <path d="M65.1,198.1c-.4,0-.7-.1-1-.3s-.5-.6-.7-1-.3-1.1-.3-1.8,0-1.3.3-1.8.4-.8.7-1,.6-.3,1-.3.7,0,.9.2.5.4.6.7v-2.7h1.5v7.9h-1.4v-.8c-.3.3-.5.5-.8.7s-.6.2-1,.2ZM65.5,197c.3,0,.5,0,.7-.2s.4-.3.5-.6v-2.3c-.1-.3-.2-.5-.4-.6s-.4-.3-.7-.3-.6.2-.7.5-.3.8-.3,1.5,0,1.2.2,1.5.4.5.7.5Z"/>
      <path d="M72,198v-7.9h4.7v1.3h-3.1v2h2.8v1.2h-2.8v2.2h3.1v1.3h-4.7Z"/>
      <path d="M77.3,198l2-3.4.6-.4,1-2.2h1.6l-1.8,3.2-.6.4-1.2,2.4h-1.6ZM81,198l-1.2-2.4-.5-.4-1.8-3.2h1.6l1,2.2.6.4,2,3.4h-1.6Z"/>
      <path d="M85.7,198.1c-.6,0-1.1-.1-1.5-.4s-.7-.6-.9-1.1-.3-1-.3-1.7,0-1.2.3-1.7.5-.8.9-1.1.9-.4,1.4-.4,1.4.3,1.8.8.7,1.2.7,2.2c0,0,0,.1,0,.2s0,.2,0,.2h-3.6c0,.3,0,.6.1.9s.2.5.4.6.4.2.7.2.4,0,.5-.2.2-.3.3-.5h1.5c0,.4-.2.7-.4,1s-.5.4-.8.6-.7.2-1.2.2ZM84.5,194.4h2.1c0-.5-.1-.9-.3-1.1s-.4-.4-.7-.4-.6.1-.8.4-.3.6-.3,1.1Z"/>
      <path d="M91.7,198.1c-.5,0-.9-.1-1.3-.3s-.7-.6-.9-1-.3-1-.3-1.8.1-1.3.3-1.7.5-.8.9-1,.8-.3,1.4-.3.8,0,1.1.2.6.3.8.6.3.6.4,1.1h-1.4c0-.2-.1-.4-.3-.6s-.4-.2-.6-.2-.7.2-.8.5-.2.8-.2,1.4,0,.7.1,1,.2.5.3.7.4.2.6.2.5,0,.7-.2.2-.4.3-.7h1.4c0,.7-.3,1.2-.7,1.5s-1,.5-1.6.5Z"/>
      <path d="M96.9,198.1c-.5,0-.9-.2-1.1-.5s-.4-.8-.4-1.4v-4.1h1.5v3.9c0,.2,0,.3,0,.5s.1.3.2.4.2.1.4.1c.2,0,.5,0,.7-.2s.4-.3.5-.5v-4.3h1.5v6h-1.4v-.9c-.2.2-.4.5-.7.7s-.7.3-1.1.3Z"/>
      <path d="M103.9,198c-.5,0-.9,0-1.2-.2s-.5-.3-.6-.6-.2-.7-.2-1.1v-2.9h-.8v-1.1h.8v-1.3h1.5v1.3h1.1v1.1h-1.1v2.9c0,.3,0,.5.1.7s.2.2.5.2h.5v1.1h-.5Z"/>
      <path d="M106.2,191.4c-.3,0-.5,0-.6-.2s-.2-.3-.2-.5,0-.4.2-.5.3-.2.6-.2.5,0,.6.2.2.3.2.5,0,.4-.2.5-.3.2-.6.2ZM105.5,198v-6h1.5v6h-1.5Z"/>
      <path d="M110.8,198.1c-.6,0-1-.1-1.4-.4s-.7-.6-.9-1-.3-1-.3-1.7.1-1.2.3-1.7.5-.8.9-1.1.9-.4,1.4-.4,1,.1,1.4.4.7.6.9,1.1.3,1,.3,1.7-.1,1.2-.3,1.7-.5.8-.9,1-.9.4-1.4.4ZM110.8,197c.3,0,.5,0,.7-.3s.3-.4.3-.7,0-.6,0-1,0-.7,0-1-.2-.5-.3-.7-.4-.3-.7-.3-.5,0-.7.3-.3.4-.3.7,0,.6,0,1,0,.7,0,1,.2.5.3.7.4.3.7.3Z"/>
      <path d="M114.7,198v-6h1.4v.9c.2-.2.4-.5.7-.7s.6-.3,1.1-.3.9.2,1.2.5.4.8.4,1.5v4.1h-1.5v-3.9c0-.2,0-.3,0-.5s-.1-.3-.2-.4-.2-.1-.4-.1-.5,0-.7.2-.4.3-.5.5v4.2h-1.5Z"/>
    </g>
  </g>
  <g class="st16">
    <g>
      <path d="M25.8,214.5v-7.9h2.7c.5,0,.9,0,1.3.3s.7.5.9.8.3.8.3,1.4-.1,1-.3,1.4-.5.6-.9.8-.8.3-1.3.3h-1.2v2.9h-1.6ZM27.4,210.4h1c.3,0,.6-.1.8-.3s.3-.5.3-.9-.1-.8-.3-1-.5-.3-.8-.3h-1v2.5Z"/>
      <path d="M34.2,214.5c-.5,0-.9,0-1.2-.2s-.5-.3-.6-.6-.2-.6-.2-1.1v-6h1.5v5.9c0,.3,0,.5.1.6s.2.2.5.2h.3v1.1h-.4Z"/>
      <path d="M36.9,214.6c-.3,0-.6,0-.8-.2s-.4-.3-.6-.6-.2-.6-.2-1,.1-.9.4-1.2.7-.5,1.2-.6,1.1-.2,1.7-.2v-.5c0-.4,0-.7-.2-.8s-.3-.2-.6-.2-.4,0-.6.2-.2.3-.2.6h-1.4c0-.6.3-1,.7-1.3s.9-.4,1.5-.4.6,0,.9,0,.5.2.7.3.3.4.4.6.2.6.2,1v4.1h-1.4v-.7c-.3.3-.5.5-.8.6s-.6.2-1,.2ZM37.4,213.6c.2,0,.4,0,.6-.2s.4-.3.5-.5v-1.3c-.7,0-1.1,0-1.4.3s-.4.5-.4.9,0,.5.2.6.3.2.5.2Z"/>
      <path d="M41.5,214.5v-6h1.4v.9c.2-.2.4-.5.7-.7s.6-.3,1.1-.3.9.2,1.2.5.4.8.4,1.5v4.1h-1.5v-3.9c0-.2,0-.3,0-.5s-.1-.3-.2-.4-.2-.1-.4-.1-.5,0-.7.2-.4.3-.5.5v4.2h-1.5Z"/>
      <path d="M50.1,214.5v-7.9h2.9c.5,0,.9,0,1.2.2s.6.4.8.7.3.7.3,1.3-.1.9-.3,1.3-.6.6-1.1.7c.3,0,.6.2.7.3s.3.4.4.6.2.6.3.9l.5,1.9h-1.6l-.3-1.6c0-.3-.1-.6-.2-.8s-.2-.4-.4-.5-.4-.2-.7-.2h-1v3.1h-1.6ZM51.6,210.1h1.1c.2,0,.4,0,.6-.1s.3-.2.4-.4.1-.4.1-.6c0-.4,0-.6-.3-.8s-.4-.3-.8-.3h-1.1v2.3Z"/>
      <path d="M59.2,214.6c-.6,0-1.1-.1-1.5-.4s-.7-.6-.9-1.1-.3-1-.3-1.7,0-1.2.3-1.7.5-.8.9-1.1.9-.4,1.4-.4,1.4.3,1.8.8.7,1.2.7,2.2c0,0,0,.1,0,.2s0,.2,0,.2h-3.6c0,.3,0,.6.1.9s.2.5.4.6.4.2.7.2.4,0,.5-.2.2-.3.3-.5h1.5c0,.4-.2.7-.4,1s-.5.4-.8.6-.7.2-1.2.2ZM58,210.8h2.1c0-.5-.1-.9-.3-1.1s-.4-.4-.7-.4-.6.1-.8.4-.3.6-.3,1.1Z"/>
      <path d="M63.1,214.5v-4.9h-.8v-1.1h.8c0-.4,0-.7,0-.9s.2-.4.3-.6.3-.3.6-.4.6-.1,1-.1h.5v1h-.5c-.2,0-.4,0-.5.2s-.1.3-.1.6h0c0,.1,1.1.1,1.1.1v1.1h-1.1v4.9h-1.5ZM67.3,207.9c-.3,0-.5,0-.6-.2s-.2-.3-.2-.5,0-.4.2-.5.3-.2.6-.2.5,0,.6.2.2.3.2.5,0,.4-.2.5-.3.2-.6.2ZM66.6,214.5v-6h1.5v6h-1.5Z"/>
      <path d="M69.6,214.5v-6h1.4v.9c.2-.2.4-.5.7-.7s.6-.3,1.1-.3.9.2,1.2.5.4.8.4,1.5v4.1h-1.5v-3.9c0-.2,0-.3,0-.5s-.1-.3-.2-.4-.2-.1-.4-.1-.5,0-.7.2-.4.3-.5.5v4.2h-1.5Z"/>
      <path d="M78.3,214.6c-.6,0-1.1-.1-1.5-.4s-.7-.6-.9-1.1-.3-1-.3-1.7,0-1.2.3-1.7.5-.8.9-1.1.9-.4,1.4-.4,1.4.3,1.8.8.7,1.2.7,2.2c0,0,0,.1,0,.2s0,.2,0,.2h-3.6c0,.3,0,.6.1.9s.2.5.4.6.4.2.7.2.4,0,.5-.2.2-.3.3-.5h1.5c0,.4-.2.7-.4,1s-.5.4-.8.6-.7.2-1.2.2ZM77.1,210.8h2.1c0-.5-.1-.9-.3-1.1s-.4-.4-.7-.4-.6.1-.8.4-.3.6-.3,1.1Z"/>
      <path d="M82,214.5v-6h1.4v.9c.2-.2.4-.5.7-.7s.7-.3,1.1-.3.9.2,1.1.5.4.8.4,1.4v4.2h-1.5v-3.9c0-.2,0-.4,0-.5s-.1-.3-.2-.4-.2-.1-.4-.1-.5,0-.7.2-.4.3-.5.5v4.3h-1.5ZM88.7,214.5v-3.9c0-.2,0-.4,0-.5s-.1-.3-.2-.4-.2-.1-.4-.1-.4,0-.6.2-.4.3-.5.4l-.2-.8c.2-.3.5-.5.8-.7s.7-.3,1.1-.3.9.2,1.1.5.4.8.4,1.5v4.1h-1.5Z"/>
      <path d="M94.1,214.6c-.6,0-1.1-.1-1.5-.4s-.7-.6-.9-1.1-.3-1-.3-1.7,0-1.2.3-1.7.5-.8.9-1.1.9-.4,1.4-.4,1.4.3,1.8.8.7,1.2.7,2.2c0,0,0,.1,0,.2s0,.2,0,.2h-3.6c0,.3,0,.6.1.9s.2.5.4.6.4.2.7.2.4,0,.5-.2.2-.3.3-.5h1.5c0,.4-.2.7-.4,1s-.5.4-.8.6-.7.2-1.2.2ZM93,210.8h2.1c0-.5-.1-.9-.3-1.1s-.4-.4-.7-.4-.6.1-.8.4-.3.6-.3,1.1Z"/>
      <path d="M97.8,214.5v-6h1.4v.9c.2-.2.4-.5.7-.7s.6-.3,1.1-.3.9.2,1.2.5.4.8.4,1.5v4.1h-1.5v-3.9c0-.2,0-.3,0-.5s-.1-.3-.2-.4-.2-.1-.4-.1-.5,0-.7.2-.4.3-.5.5v4.2h-1.5Z"/>
      <path d="M106.4,214.5c-.5,0-.9,0-1.2-.2s-.5-.3-.6-.6-.2-.7-.2-1.1v-2.9h-.8v-1.1h.8v-1.3h1.5v1.3h1.1v1.1h-1.1v2.9c0,.3,0,.5.1.7s.2.2.5.2h.5v1.1h-.5Z"/>
    </g>
  </g>
  <g class="st19">
    <g>
      <path class="st21" d="M25.8,230.9v-7.9h2.7c.5,0,.9,0,1.3.3s.7.5.9.8.3.8.3,1.4-.1,1-.3,1.4-.5.6-.9.8-.8.3-1.3.3h-1.2v2.9h-1.6ZM27.4,226.8h1c.3,0,.6-.1.8-.3s.3-.5.3-.9-.1-.8-.3-1-.5-.3-.8-.3h-1v2.5Z"/>
      <path class="st21" d="M33.6,231c-.3,0-.6,0-.8-.2s-.4-.3-.6-.6-.2-.6-.2-1,.1-.9.4-1.2.7-.5,1.2-.6,1.1-.2,1.7-.2v-.5c0-.4,0-.7-.2-.8s-.3-.2-.6-.2-.4,0-.6.2-.2.3-.2.6h-1.4c0-.6.3-1,.7-1.3s.9-.4,1.5-.4.6,0,.9,0,.5.2.7.3.3.4.4.6.2.6.2,1v4.1h-1.4v-.7c-.3.3-.5.5-.8.6s-.6.2-1,.2ZM34.1,230.1c.2,0,.4,0,.6-.2s.4-.3.5-.5v-1.3c-.7,0-1.1,0-1.4.3s-.4.5-.4.9,0,.5.2.6.3.2.5.2Z"/>
      <path class="st21" d="M38.2,230.9v-6h1.4v1c.2-.3.3-.6.6-.8s.6-.3.9-.3h.1v1.2h-.1c-.2,0-.4,0-.6,0s-.4.1-.5.2-.3.2-.4.4v4.2h-1.5Z"/>
      <path class="st21" d="M43.7,231c-.3,0-.6,0-.8-.2s-.4-.3-.6-.6-.2-.6-.2-1,.1-.9.4-1.2.7-.5,1.2-.6,1.1-.2,1.7-.2v-.5c0-.4,0-.7-.2-.8s-.3-.2-.6-.2-.4,0-.6.2-.2.3-.2.6h-1.4c0-.6.3-1,.7-1.3s.9-.4,1.5-.4.6,0,.9,0,.5.2.7.3.3.4.4.6.2.6.2,1v4.1h-1.4v-.7c-.3.3-.5.5-.8.6s-.6.2-1,.2ZM44.2,230.1c.2,0,.4,0,.6-.2s.4-.3.5-.5v-1.3c-.7,0-1.1,0-1.4.3s-.4.5-.4.9,0,.5.2.6.3.2.5.2Z"/>
      <path class="st21" d="M50.3,230.9c-.5,0-.9,0-1.2-.2s-.5-.3-.6-.6-.2-.6-.2-1.1v-6h1.5v5.9c0,.3,0,.5.1.6s.2.2.5.2h.3v1.1h-.4Z"/>
      <path class="st21" d="M53.5,230.9c-.5,0-.9,0-1.2-.2s-.5-.3-.6-.6-.2-.6-.2-1.1v-6h1.5v5.9c0,.3,0,.5.1.6s.2.2.5.2h.3v1.1h-.4Z"/>
      <path class="st21" d="M57.2,231c-.6,0-1.1-.1-1.5-.4s-.7-.6-.9-1.1-.3-1-.3-1.7,0-1.2.3-1.7.5-.8.9-1.1.9-.4,1.4-.4,1.4.3,1.8.8.7,1.2.7,2.2c0,0,0,.1,0,.2s0,.2,0,.2h-3.6c0,.3,0,.6.1.9s.2.5.4.6.4.2.7.2.4,0,.5-.2.2-.3.3-.5h1.5c0,.4-.2.7-.4,1s-.5.4-.8.6-.7.2-1.2.2ZM56,227.3h2.1c0-.5-.1-.9-.3-1.1s-.4-.4-.7-.4-.6.1-.8.4-.3.6-.3,1.1Z"/>
      <path class="st21" d="M62.9,230.9c-.5,0-.9,0-1.2-.2s-.5-.3-.6-.6-.2-.6-.2-1.1v-6h1.5v5.9c0,.3,0,.5.1.6s.2.2.5.2h.3v1.1h-.4Z"/>
      <path class="st21" d="M66.4,230.9v-7.9h2.7c.5,0,.9,0,1.3.3s.7.5.9.8.3.8.3,1.4-.1,1-.3,1.4-.5.6-.9.8-.8.3-1.3.3h-1.2v2.9h-1.6ZM68,226.8h1c.3,0,.6-.1.8-.3s.3-.5.3-.9-.1-.8-.3-1-.5-.3-.8-.3h-1v2.5Z"/>
      <path class="st21" d="M74.8,230.9c-.5,0-.9,0-1.2-.2s-.5-.3-.6-.6-.2-.6-.2-1.1v-6h1.5v5.9c0,.3,0,.5.1.6s.2.2.5.2h.3v1.1h-.4Z"/>
      <path class="st21" d="M77.4,231c-.3,0-.6,0-.8-.2s-.4-.3-.6-.6-.2-.6-.2-1,.1-.9.4-1.2.7-.5,1.2-.6,1.1-.2,1.7-.2v-.5c0-.4,0-.7-.2-.8s-.3-.2-.6-.2-.4,0-.6.2-.2.3-.2.6h-1.4c0-.6.3-1,.7-1.3s.9-.4,1.5-.4.6,0,.9,0,.5.2.7.3.3.4.4.6.2.6.2,1v4.1h-1.4v-.7c-.3.3-.5.5-.8.6s-.6.2-1,.2ZM78,230.1c.2,0,.4,0,.6-.2s.4-.3.5-.5v-1.3c-.7,0-1.1,0-1.4.3s-.4.5-.4.9,0,.5.2.6.3.2.5.2Z"/>
      <path class="st21" d="M82,230.9v-6h1.4v.9c.2-.2.4-.5.7-.7s.6-.3,1.1-.3.9.2,1.2.5.4.8.4,1.5v4.1h-1.5v-3.9c0-.2,0-.3,0-.5s-.1-.3-.2-.4-.2-.1-.4-.1-.5,0-.7.2-.4.3-.5.5v4.2h-1.5Z"/>
      <path class="st21" d="M90.4,231c-.3,0-.5,0-.8,0s-.5-.1-.7-.3-.4-.3-.5-.5-.2-.5-.2-.8h1.4c0,.3.1.4.3.5s.4.1.7.1.4,0,.6-.2.2-.3.2-.5,0-.5-.3-.6-.5-.3-.9-.4c-.3,0-.7-.2-.9-.4s-.5-.3-.7-.6-.2-.5-.2-.9,0-.6.2-.8.3-.4.5-.5.4-.2.7-.3.5,0,.8,0,.5,0,.7,0,.5.1.7.3.4.3.5.5.2.5.2.8h-1.4c0-.2,0-.4-.2-.5s-.3-.1-.5-.1-.4,0-.5.1-.2.3-.2.5,0,.2.1.3.2.2.4.2.4.1.7.2c.3,0,.6.2.8.3s.5.3.6.6.2.6.2,1-.1.8-.3,1.1-.5.5-.8.6-.7.2-1.1.2Z"/>
    </g>
  </g>
  <g class="st18">
    <g>
      <path class="st21" d="M28.9,247.5c-.7,0-1.4-.2-1.9-.5s-.9-.8-1.1-1.4-.4-1.3-.4-2.1.1-1.5.4-2.1.6-1.1,1.1-1.4,1.1-.5,1.9-.5,1.1.1,1.6.3.8.5,1.1.9.4.9.5,1.5h-1.6c0-.3-.1-.6-.3-.8s-.3-.4-.5-.5-.5-.2-.7-.2c-.4,0-.8.1-1.1.4s-.4.6-.6,1-.2.9-.2,1.4,0,1,.2,1.4.3.8.6,1,.6.4,1.1.4.8-.1,1.1-.4.4-.7.4-1.2h1.6c0,.6-.2,1.1-.4,1.6s-.6.8-1,1-1,.3-1.6.3Z"/>
      <path class="st21" d="M33.3,247.4v-6h1.4v1c.2-.3.3-.6.6-.8s.6-.3.9-.3h.1v1.2h-.1c-.2,0-.4,0-.6,0s-.4.1-.5.2-.3.2-.4.4v4.2h-1.5Z"/>
      <path class="st21" d="M39.7,247.5c-.6,0-1-.1-1.4-.4s-.7-.6-.9-1-.3-1-.3-1.7.1-1.2.3-1.7.5-.8.9-1.1.9-.4,1.4-.4,1,.1,1.4.4.7.6.9,1.1.3,1,.3,1.7-.1,1.2-.3,1.7-.5.8-.9,1-.9.4-1.4.4ZM39.7,246.3c.3,0,.5,0,.7-.3s.3-.4.3-.7,0-.6,0-1,0-.7,0-1-.2-.5-.3-.7-.4-.3-.7-.3-.5,0-.7.3-.3.4-.3.7,0,.6,0,1,0,.7,0,1,.2.5.3.7.4.3.7.3Z"/>
      <path class="st21" d="M45.6,247.5c-.3,0-.5,0-.8,0s-.5-.1-.7-.3-.4-.3-.5-.5-.2-.5-.2-.8h1.4c0,.3.1.4.3.5s.4.1.7.1.4,0,.6-.2.2-.3.2-.5,0-.5-.3-.6-.5-.3-.9-.4c-.3,0-.7-.2-.9-.4s-.5-.3-.7-.6-.2-.5-.2-.9,0-.6.2-.8.3-.4.5-.5.4-.2.7-.3.5,0,.8,0,.5,0,.7,0,.5.1.7.3.4.3.5.5.2.5.2.8h-1.4c0-.2,0-.4-.2-.5s-.3-.1-.5-.1-.4,0-.5.1-.2.3-.2.5,0,.2.1.3.2.2.4.2.4.1.7.2c.3,0,.6.2.8.3s.5.3.6.6.2.6.2,1-.1.8-.3,1.1-.5.5-.8.6-.7.2-1.1.2Z"/>
      <path class="st21" d="M51.2,247.5c-.3,0-.5,0-.8,0s-.5-.1-.7-.3-.4-.3-.5-.5-.2-.5-.2-.8h1.4c0,.3.1.4.3.5s.4.1.7.1.4,0,.6-.2.2-.3.2-.5,0-.5-.3-.6-.5-.3-.9-.4c-.3,0-.7-.2-.9-.4s-.5-.3-.7-.6-.2-.5-.2-.9,0-.6.2-.8.3-.4.5-.5.4-.2.7-.3.5,0,.8,0,.5,0,.7,0,.5.1.7.3.4.3.5.5.2.5.2.8h-1.4c0-.2,0-.4-.2-.5s-.3-.1-.5-.1-.4,0-.5.1-.2.3-.2.5,0,.2.1.3.2.2.4.2.4.1.7.2c.3,0,.6.2.8.3s.5.3.6.6.2.6.2,1-.1.8-.3,1.1-.5.5-.8.6-.7.2-1.1.2Z"/>
      <path class="st21" d="M54.3,245v-1.2h2.8v1.2h-2.8Z"/>
      <path class="st21" d="M60.9,247.5c-.6,0-1,0-1.5-.2s-.8-.4-1-.8-.4-.8-.4-1.4h1.6c0,.3,0,.5.2.7s.3.3.5.4.4.1.6.1.4,0,.6-.1.3-.2.4-.3.1-.3.1-.5,0-.4-.1-.6-.2-.3-.5-.4-.5-.2-.9-.4c-.5-.2-.9-.3-1.2-.5s-.6-.4-.8-.7-.3-.7-.3-1.2.1-.9.3-1.2.5-.5.9-.7.8-.2,1.3-.2.9,0,1.3.2.7.4.9.7.4.7.4,1.2h-1.6c0-.3-.1-.6-.3-.7s-.4-.2-.7-.2-.5,0-.7.2-.3.3-.3.6,0,.3.1.5.2.3.5.4.6.2,1,.4c.5.2.9.4,1.3.6s.6.5.8.8.3.7.3,1.2-.1.9-.3,1.3-.6.6-1,.8-.9.3-1.4.3Z"/>
      <path class="st21" d="M67.2,247.5c-.6,0-1.1-.1-1.5-.4s-.7-.6-.9-1.1-.3-1-.3-1.7,0-1.2.3-1.7.5-.8.9-1.1.9-.4,1.4-.4,1.4.3,1.8.8.7,1.2.7,2.2c0,0,0,.1,0,.2s0,.2,0,.2h-3.6c0,.3,0,.6.1.9s.2.5.4.6.4.2.7.2.4,0,.5-.2.2-.3.3-.5h1.5c0,.4-.2.7-.4,1s-.5.4-.8.6-.7.2-1.2.2ZM66,243.7h2.1c0-.5-.1-.9-.3-1.1s-.4-.4-.7-.4-.6.1-.8.4-.3.6-.3,1.1Z"/>
      <path class="st21" d="M73,247.5c-.3,0-.5,0-.8,0s-.5-.1-.7-.3-.4-.3-.5-.5-.2-.5-.2-.8h1.4c0,.3.1.4.3.5s.4.1.7.1.4,0,.6-.2.2-.3.2-.5,0-.5-.3-.6-.5-.3-.9-.4c-.3,0-.7-.2-.9-.4s-.5-.3-.7-.6-.2-.5-.2-.9,0-.6.2-.8.3-.4.5-.5.4-.2.7-.3.5,0,.8,0,.5,0,.7,0,.5.1.7.3.4.3.5.5.2.5.2.8h-1.4c0-.2,0-.4-.2-.5s-.3-.1-.5-.1-.4,0-.5.1-.2.3-.2.5,0,.2.1.3.2.2.4.2.4.1.7.2c.3,0,.6.2.8.3s.5.3.6.6.2.6.2,1-.1.8-.3,1.1-.5.5-.8.6-.7.2-1.1.2Z"/>
      <path class="st21" d="M78.5,247.5c-.3,0-.5,0-.8,0s-.5-.1-.7-.3-.4-.3-.5-.5-.2-.5-.2-.8h1.4c0,.3.1.4.3.5s.4.1.7.1.4,0,.6-.2.2-.3.2-.5,0-.5-.3-.6-.5-.3-.9-.4c-.3,0-.7-.2-.9-.4s-.5-.3-.7-.6-.2-.5-.2-.9,0-.6.2-.8.3-.4.5-.5.4-.2.7-.3.5,0,.8,0,.5,0,.7,0,.5.1.7.3.4.3.5.5.2.5.2.8h-1.4c0-.2,0-.4-.2-.5s-.3-.1-.5-.1-.4,0-.5.1-.2.3-.2.5,0,.2.1.3.2.2.4.2.4.1.7.2c.3,0,.6.2.8.3s.5.3.6.6.2.6.2,1-.1.8-.3,1.1-.5.5-.8.6-.7.2-1.1.2Z"/>
      <path class="st21" d="M82.7,240.8c-.3,0-.5,0-.6-.2s-.2-.3-.2-.5,0-.4.2-.5.3-.2.6-.2.5,0,.6.2.2.3.2.5,0,.4-.2.5-.3.2-.6.2ZM82,247.4v-6h1.5v6h-1.5Z"/>
      <path class="st21" d="M87.3,247.5c-.6,0-1-.1-1.4-.4s-.7-.6-.9-1-.3-1-.3-1.7.1-1.2.3-1.7.5-.8.9-1.1.9-.4,1.4-.4,1,.1,1.4.4.7.6.9,1.1.3,1,.3,1.7-.1,1.2-.3,1.7-.5.8-.9,1-.9.4-1.4.4ZM87.3,246.3c.3,0,.5,0,.7-.3s.3-.4.3-.7,0-.6,0-1,0-.7,0-1-.2-.5-.3-.7-.4-.3-.7-.3-.5,0-.7.3-.3.4-.3.7,0,.6,0,1,0,.7,0,1,.2.5.3.7.4.3.7.3Z"/>
      <path class="st21" d="M91.2,247.4v-6h1.4v.9c.2-.2.4-.5.7-.7s.6-.3,1.1-.3.9.2,1.2.5.4.8.4,1.5v4.1h-1.5v-3.9c0-.2,0-.3,0-.5s-.1-.3-.2-.4-.2-.1-.4-.1-.5,0-.7.2-.4.3-.5.5v4.2h-1.5Z"/>
      <path class="st21" d="M99.8,247.4v-7.9h2.7c.5,0,.9,0,1.3.3s.7.5.9.8.3.8.3,1.4-.1,1-.3,1.4-.5.6-.9.8-.8.3-1.3.3h-1.2v2.9h-1.6ZM101.4,243.3h1c.3,0,.6-.1.8-.3s.3-.5.3-.9-.1-.8-.3-1-.5-.3-.8-.3h-1v2.5Z"/>
      <path class="st21" d="M108.2,247.4c-.5,0-.9,0-1.2-.2s-.5-.3-.6-.6-.2-.6-.2-1.1v-6h1.5v5.9c0,.3,0,.5.1.6s.2.2.5.2h.3v1.1h-.4Z"/>
      <path class="st21" d="M110.8,247.5c-.3,0-.6,0-.8-.2s-.4-.3-.6-.6-.2-.6-.2-1,.1-.9.4-1.2.7-.5,1.2-.6,1.1-.2,1.7-.2v-.5c0-.4,0-.7-.2-.8s-.3-.2-.6-.2-.4,0-.6.2-.2.3-.2.6h-1.4c0-.6.3-1,.7-1.3s.9-.4,1.5-.4.6,0,.9,0,.5.2.7.3.3.4.4.6.2.6.2,1v4.1h-1.4v-.7c-.3.3-.5.5-.8.6s-.6.2-1,.2ZM111.4,246.5c.2,0,.4,0,.6-.2s.4-.3.5-.5v-1.3c-.7,0-1.1,0-1.4.3s-.4.5-.4.9,0,.5.2.6.3.2.5.2Z"/>
      <path class="st21" d="M115.4,247.4v-6h1.4v.9c.2-.2.4-.5.7-.7s.6-.3,1.1-.3.9.2,1.2.5.4.8.4,1.5v4.1h-1.5v-3.9c0-.2,0-.3,0-.5s-.1-.3-.2-.4-.2-.1-.4-.1-.5,0-.7.2-.4.3-.5.5v4.2h-1.5Z"/>
      <path class="st21" d="M123.8,247.5c-.3,0-.5,0-.8,0s-.5-.1-.7-.3-.4-.3-.5-.5-.2-.5-.2-.8h1.4c0,.3.1.4.3.5s.4.1.7.1.4,0,.6-.2.2-.3.2-.5,0-.5-.3-.6-.5-.3-.9-.4c-.3,0-.7-.2-.9-.4s-.5-.3-.7-.6-.2-.5-.2-.9,0-.6.2-.8.3-.4.5-.5.4-.2.7-.3.5,0,.8,0,.5,0,.7,0,.5.1.7.3.4.3.5.5.2.5.2.8h-1.4c0-.2,0-.4-.2-.5s-.3-.1-.5-.1-.4,0-.5.1-.2.3-.2.5,0,.2.1.3.2.2.4.2.4.1.7.2c.3,0,.6.2.8.3s.5.3.6.6.2.6.2,1-.1.8-.3,1.1-.5.5-.8.6-.7.2-1.1.2Z"/>
    </g>
  </g>
  <g class="st10">
    <g>
      <path class="st21" d="M28.7,263.9c-.7,0-1.2-.1-1.7-.3s-.8-.6-1-1-.3-1-.3-1.6v-5h1.6v5.1c0,.5,0,.9.3,1.2s.6.4,1.1.4.9-.1,1-.4.3-.7.3-1.2v-5.1h1.6v5c0,.6-.1,1.2-.3,1.6s-.5.8-.9,1-1,.3-1.7.3Z"/>
      <path class="st21" d="M35.2,263.9c-.3,0-.5,0-.8,0s-.5-.1-.7-.3-.4-.3-.5-.5-.2-.5-.2-.8h1.4c0,.3.1.4.3.5s.4.1.7.1.4,0,.6-.2.2-.3.2-.5,0-.5-.3-.6-.5-.3-.9-.4c-.3,0-.7-.2-.9-.4s-.5-.3-.7-.6-.2-.5-.2-.9,0-.6.2-.8.3-.4.5-.5.4-.2.7-.3.5,0,.8,0,.5,0,.7,0,.5.1.7.3.4.3.5.5.2.5.2.8h-1.4c0-.2,0-.4-.2-.5s-.3-.1-.5-.1-.4,0-.5.1-.2.3-.2.5,0,.2.1.3.2.2.4.2.4.1.7.2c.3,0,.6.2.8.3s.5.3.6.6.2.6.2,1-.1.8-.3,1.1-.5.5-.8.6-.7.2-1.1.2Z"/>
      <path class="st21" d="M41.1,263.9c-.6,0-1.1-.1-1.5-.4s-.7-.6-.9-1.1-.3-1-.3-1.7,0-1.2.3-1.7.5-.8.9-1.1.9-.4,1.4-.4,1.4.3,1.8.8.7,1.2.7,2.2c0,0,0,.1,0,.2s0,.2,0,.2h-3.6c0,.3,0,.6.1.9s.2.5.4.6.4.2.7.2.4,0,.5-.2.2-.3.3-.5h1.5c0,.4-.2.7-.4,1s-.5.4-.8.6-.7.2-1.2.2ZM39.9,260.2h2.1c0-.5-.1-.9-.3-1.1s-.4-.4-.7-.4-.6.1-.8.4-.3.6-.3,1.1Z"/>
      <path class="st21" d="M44.5,261.4v-1.2h2.8v1.2h-2.8Z"/>
      <path class="st21" d="M51.7,263.9c-.7,0-1.4-.2-1.9-.5s-.9-.8-1.1-1.4-.4-1.3-.4-2.1.1-1.5.4-2.1.6-1.1,1.1-1.4,1.1-.5,1.9-.5,1.1.1,1.6.3.8.5,1.1.9.4.9.5,1.5h-1.6c0-.3-.1-.6-.3-.8s-.3-.4-.5-.5-.5-.2-.7-.2c-.4,0-.8.1-1.1.4s-.4.6-.6,1-.2.9-.2,1.4,0,1,.2,1.4.3.8.6,1,.6.4,1.1.4.8-.1,1.1-.4.4-.7.4-1.2h1.6c0,.6-.2,1.1-.4,1.6s-.6.8-1,1-1,.3-1.6.3Z"/>
      <path class="st21" d="M57.4,263.9c-.3,0-.6,0-.8-.2s-.4-.3-.6-.6-.2-.6-.2-1,.1-.9.4-1.2.7-.5,1.2-.6,1.1-.2,1.7-.2v-.5c0-.4,0-.7-.2-.8s-.3-.2-.6-.2-.4,0-.6.2-.2.3-.2.6h-1.4c0-.6.3-1,.7-1.3s.9-.4,1.5-.4.6,0,.9,0,.5.2.7.3.3.4.4.6.2.6.2,1v4.1h-1.4v-.7c-.3.3-.5.5-.8.6s-.6.2-1,.2ZM58,263c.2,0,.4,0,.6-.2s.4-.3.5-.5v-1.3c-.7,0-1.1,0-1.4.3s-.4.5-.4.9,0,.5.2.6.3.2.5.2Z"/>
      <path class="st21" d="M64.1,263.9c-.3,0-.5,0-.8,0s-.5-.1-.7-.3-.4-.3-.5-.5-.2-.5-.2-.8h1.4c0,.3.1.4.3.5s.4.1.7.1.4,0,.6-.2.2-.3.2-.5,0-.5-.3-.6-.5-.3-.9-.4c-.3,0-.7-.2-.9-.4s-.5-.3-.7-.6-.2-.5-.2-.9,0-.6.2-.8.3-.4.5-.5.4-.2.7-.3.5,0,.8,0,.5,0,.7,0,.5.1.7.3.4.3.5.5.2.5.2.8h-1.4c0-.2,0-.4-.2-.5s-.3-.1-.5-.1-.4,0-.5.1-.2.3-.2.5,0,.2.1.3.2.2.4.2.4.1.7.2c.3,0,.6.2.8.3s.5.3.6.6.2.6.2,1-.1.8-.3,1.1-.5.5-.8.6-.7.2-1.1.2Z"/>
      <path class="st21" d="M69.9,263.9c-.6,0-1.1-.1-1.5-.4s-.7-.6-.9-1.1-.3-1-.3-1.7,0-1.2.3-1.7.5-.8.9-1.1.9-.4,1.4-.4,1.4.3,1.8.8.7,1.2.7,2.2c0,0,0,.1,0,.2s0,.2,0,.2h-3.6c0,.3,0,.6.1.9s.2.5.4.6.4.2.7.2.4,0,.5-.2.2-.3.3-.5h1.5c0,.4-.2.7-.4,1s-.5.4-.8.6-.7.2-1.2.2ZM68.8,260.2h2.1c0-.5-.1-.9-.3-1.1s-.4-.4-.7-.4-.6.1-.8.4-.3.6-.3,1.1Z"/>
      <path class="st21" d="M78.4,263.9c-.6,0-1,0-1.5-.2s-.8-.4-1-.8-.4-.8-.4-1.4h1.6c0,.3,0,.5.2.7s.3.3.5.4.4.1.6.1.4,0,.6-.1.3-.2.4-.3.1-.3.1-.5,0-.4-.1-.6-.2-.3-.5-.4-.5-.2-.9-.4c-.5-.2-.9-.3-1.2-.5s-.6-.4-.8-.7-.3-.7-.3-1.2.1-.9.3-1.2.5-.5.9-.7.8-.2,1.3-.2.9,0,1.3.2.7.4.9.7.4.7.4,1.2h-1.6c0-.3-.1-.6-.3-.7s-.4-.2-.7-.2-.5,0-.7.2-.3.3-.3.6,0,.3.1.5.2.3.5.4.6.2,1,.4c.5.2.9.4,1.3.6s.6.5.8.8.3.7.3,1.2-.1.9-.3,1.3-.6.6-1,.8-.9.3-1.4.3Z"/>
      <path class="st21" d="M84.5,263.8c-.5,0-.9,0-1.2-.2s-.5-.3-.6-.6-.2-.7-.2-1.1v-2.9h-.8v-1.1h.8v-1.3h1.5v1.3h1.1v1.1h-1.1v2.9c0,.3,0,.5.1.7s.2.2.5.2h.5v1.1h-.5Z"/>
      <path class="st21" d="M88.5,263.9c-.6,0-1.1-.1-1.5-.4s-.7-.6-.9-1.1-.3-1-.3-1.7,0-1.2.3-1.7.5-.8.9-1.1.9-.4,1.4-.4,1.4.3,1.8.8.7,1.2.7,2.2c0,0,0,.1,0,.2s0,.2,0,.2h-3.6c0,.3,0,.6.1.9s.2.5.4.6.4.2.7.2.4,0,.5-.2.2-.3.3-.5h1.5c0,.4-.2.7-.4,1s-.5.4-.8.6-.7.2-1.2.2ZM87.4,260.2h2.1c0-.5-.1-.9-.3-1.1s-.4-.4-.7-.4-.6.1-.8.4-.3.6-.3,1.1Z"/>
      <path class="st21" d="M94.7,263.9c-.6,0-1.1-.1-1.5-.4s-.7-.6-.9-1.1-.3-1-.3-1.7,0-1.2.3-1.7.5-.8.9-1.1.9-.4,1.4-.4,1.4.3,1.8.8.7,1.2.7,2.2c0,0,0,.1,0,.2s0,.2,0,.2h-3.6c0,.3,0,.6.1.9s.2.5.4.6.4.2.7.2.4,0,.5-.2.2-.3.3-.5h1.5c0,.4-.2.7-.4,1s-.5.4-.8.6-.7.2-1.2.2ZM93.5,260.2h2.1c0-.5-.1-.9-.3-1.1s-.4-.4-.7-.4-.6.1-.8.4-.3.6-.3,1.1Z"/>
      <path class="st21" d="M98.4,263.8v-6h1.4v1c.2-.3.3-.6.6-.8s.6-.3.9-.3h.1v1.2h-.1c-.2,0-.4,0-.6,0s-.4.1-.5.2-.3.2-.4.4v4.2h-1.5Z"/>
      <path class="st21" d="M103.2,257.2c-.3,0-.5,0-.6-.2s-.2-.3-.2-.5,0-.4.2-.5.3-.2.6-.2.5,0,.6.2.2.3.2.5,0,.4-.2.5-.3.2-.6.2ZM102.5,263.8v-6h1.5v6h-1.5Z"/>
      <path class="st21" d="M105.5,263.8v-6h1.4v.9c.2-.2.4-.5.7-.7s.6-.3,1.1-.3.9.2,1.2.5.4.8.4,1.5v4.1h-1.5v-3.9c0-.2,0-.3,0-.5s-.1-.3-.2-.4-.2-.1-.4-.1-.5,0-.7.2-.4.3-.5.5v4.2h-1.5Z"/>
      <path class="st21" d="M113.8,266c-.6,0-1.1,0-1.5-.2s-.6-.3-.8-.6-.2-.5-.2-.7.1-.7.4-.9.7-.4,1.3-.5l.2-.6h.8c.8,0,1.4.1,1.8.4s.6.7.6,1.3-.2,1-.7,1.3-1.1.5-2,.5ZM113.1,263.5c-.4,0-.7-.1-.9-.2s-.4-.2-.5-.4-.2-.3-.2-.5c0-.2,0-.4.3-.6s.4-.3.8-.5l.6.2c-.2,0-.3.1-.4.2s-.1.2-.1.3,0,.1.1.2.2,0,.4.1.4,0,.8,0l-.8,1ZM113.7,261.7c-.5,0-.9,0-1.2-.3s-.6-.4-.8-.7-.3-.6-.3-1,0-.7.3-1,.4-.5.8-.7.7-.3,1.2-.3.9,0,1.3.3.6.4.7.7.2.6.2,1,0,.7-.2,1-.4.5-.7.7-.7.3-1.3.3ZM113.8,265.1c.5,0,.8,0,1-.2s.3-.3.3-.6,0-.3-.1-.4-.2-.2-.4-.2-.4,0-.6,0h-.8c-.1,0-.2.2-.3.3s-.1.3-.1.4,0,.4.3.5.5.2.8.2ZM113.7,260.9c.3,0,.5,0,.6-.3s.2-.5.2-.8,0-.7-.2-.9-.4-.3-.6-.3-.5,0-.6.3-.2.5-.2.9,0,.7.3.8.4.3.6.3ZM115.2,258.5l-.3-.5c.1-.4.3-.6.6-.8s.6-.3,1-.3v1.1c-.3,0-.5,0-.8,0s-.4.2-.5.4Z"/>
    </g>
  </g>
  <g class="st9">
    <g>
      <path class="st21" d="M28.3,280.4c-.6,0-1,0-1.5-.2s-.8-.4-1-.8-.4-.8-.4-1.4h1.6c0,.3,0,.5.2.7s.3.3.5.4.4.1.6.1.4,0,.6-.1.3-.2.4-.3.1-.3.1-.5,0-.4-.1-.6-.2-.3-.5-.4-.5-.2-.9-.4c-.5-.2-.9-.3-1.2-.5s-.6-.4-.8-.7-.3-.7-.3-1.2.1-.9.3-1.2.5-.5.9-.7.8-.2,1.3-.2.9,0,1.3.2.7.4.9.7.4.7.4,1.2h-1.6c0-.3-.1-.6-.3-.7s-.4-.2-.7-.2-.5,0-.7.2-.3.3-.3.6,0,.3.1.5.2.3.5.4.6.2,1,.4c.5.2.9.4,1.3.6s.6.5.8.8.3.7.3,1.2-.1.9-.3,1.3-.6.6-1,.8-.9.3-1.4.3Z"/>
      <path class="st21" d="M34.5,280.3c-.6,0-1-.1-1.4-.4s-.7-.6-.9-1-.3-1-.3-1.7.1-1.2.3-1.7.5-.8.9-1.1.9-.4,1.4-.4,1,.1,1.4.4.7.6.9,1.1.3,1,.3,1.7-.1,1.2-.3,1.7-.5.8-.9,1-.9.4-1.4.4ZM34.5,279.2c.3,0,.5,0,.7-.3s.3-.4.3-.7,0-.6,0-1,0-.7,0-1-.2-.5-.3-.7-.4-.3-.7-.3-.5,0-.7.3-.3.4-.3.7,0,.6,0,1,0,.7,0,1,.2.5.3.7.4.3.7.3Z"/>
      <path class="st21" d="M40.4,280.3c-.5,0-.9,0-1.2-.2s-.5-.3-.6-.6-.2-.6-.2-1.1v-6h1.5v5.9c0,.3,0,.5.1.6s.2.2.5.2h.3v1.1h-.4Z"/>
      <path class="st21" d="M43.2,280.3c-.5,0-.9-.2-1.1-.5s-.4-.8-.4-1.4v-4.1h1.5v3.9c0,.2,0,.3,0,.5s.1.3.2.4.2.1.4.1c.2,0,.5,0,.7-.2s.4-.3.5-.5v-4.3h1.5v6h-1.4v-.9c-.2.2-.4.5-.7.7s-.7.3-1.1.3Z"/>
      <path class="st21" d="M50.2,280.3c-.5,0-.9,0-1.2-.2s-.5-.3-.6-.6-.2-.7-.2-1.1v-2.9h-.8v-1.1h.8v-1.3h1.5v1.3h1.1v1.1h-1.1v2.9c0,.3,0,.5.1.7s.2.2.5.2h.5v1.1h-.5Z"/>
      <path class="st21" d="M52.5,273.7c-.3,0-.5,0-.6-.2s-.2-.3-.2-.5,0-.4.2-.5.3-.2.6-.2.5,0,.6.2.2.3.2.5,0,.4-.2.5-.3.2-.6.2ZM51.8,280.3v-6h1.5v6h-1.5Z"/>
      <path class="st21" d="M57.1,280.3c-.6,0-1-.1-1.4-.4s-.7-.6-.9-1-.3-1-.3-1.7.1-1.2.3-1.7.5-.8.9-1.1.9-.4,1.4-.4,1,.1,1.4.4.7.6.9,1.1.3,1,.3,1.7-.1,1.2-.3,1.7-.5.8-.9,1-.9.4-1.4.4ZM57.1,279.2c.3,0,.5,0,.7-.3s.3-.4.3-.7,0-.6,0-1,0-.7,0-1-.2-.5-.3-.7-.4-.3-.7-.3-.5,0-.7.3-.3.4-.3.7,0,.6,0,1,0,.7,0,1,.2.5.3.7.4.3.7.3Z"/>
      <path class="st21" d="M61,280.3v-6h1.4v.9c.2-.2.4-.5.7-.7s.6-.3,1.1-.3.9.2,1.2.5.4.8.4,1.5v4.1h-1.5v-3.9c0-.2,0-.3,0-.5s-.1-.3-.2-.4-.2-.1-.4-.1-.5,0-.7.2-.4.3-.5.5v4.2h-1.5Z"/>
      <path class="st21" d="M68.8,280.3l2.5-7.9h1.6l2.5,7.9h-1.6l-.5-1.8h-2.4l-.5,1.8h-1.6ZM71.2,277.1h1.7l-.9-3.2-.8,3.2Z"/>
      <path class="st21" d="M76.1,282.3v-8.1h1.4v.9c.3-.3.5-.6.8-.7s.6-.2.9-.2.7.1,1,.3.5.6.7,1,.3,1.1.3,1.8,0,1.3-.3,1.7-.4.8-.7,1-.7.3-1,.3c-.3,0-.6,0-.9-.2s-.5-.4-.7-.7v2.9h-1.5ZM78.7,279.2c.3,0,.6-.2.7-.5s.2-.8.2-1.4,0-1.2-.2-1.5-.4-.5-.7-.5-.5,0-.7.3-.3.4-.4.6v2.3c.1.2.3.4.4.6s.4.2.7.2Z"/>
      <path class="st21" d="M82.5,282.3v-8.1h1.4v.9c.3-.3.5-.6.8-.7s.6-.2.9-.2.7.1,1,.3.5.6.7,1,.3,1.1.3,1.8,0,1.3-.3,1.7-.4.8-.7,1-.7.3-1,.3c-.3,0-.6,0-.9-.2s-.5-.4-.7-.7v2.9h-1.5ZM85.1,279.2c.3,0,.6-.2.7-.5s.2-.8.2-1.4,0-1.2-.2-1.5-.4-.5-.7-.5-.5,0-.7.3-.3.4-.4.6v2.3c.1.2.3.4.4.6s.4.2.7.2Z"/>
      <path class="st21" d="M88.8,280.3v-6h1.4v1c.2-.3.3-.6.6-.8s.6-.3.9-.3h.1v1.2h-.1c-.2,0-.4,0-.6,0s-.4.1-.5.2-.3.2-.4.4v4.2h-1.5Z"/>
      <path class="st21" d="M95.2,280.3c-.6,0-1-.1-1.4-.4s-.7-.6-.9-1-.3-1-.3-1.7.1-1.2.3-1.7.5-.8.9-1.1.9-.4,1.4-.4,1,.1,1.4.4.7.6.9,1.1.3,1,.3,1.7-.1,1.2-.3,1.7-.5.8-.9,1-.9.4-1.4.4ZM95.2,279.2c.3,0,.5,0,.7-.3s.3-.4.3-.7,0-.6,0-1,0-.7,0-1-.2-.5-.3-.7-.4-.3-.7-.3-.5,0-.7.3-.3.4-.3.7,0,.6,0,1,0,.7,0,1,.2.5.3.7.4.3.7.3Z"/>
      <path class="st21" d="M100.5,280.3c-.3,0-.6,0-.8-.2s-.4-.3-.6-.6-.2-.6-.2-1,.1-.9.4-1.2.7-.5,1.2-.6,1.1-.2,1.7-.2v-.5c0-.4,0-.7-.2-.8s-.3-.2-.6-.2-.4,0-.6.2-.2.3-.2.6h-1.4c0-.6.3-1,.7-1.3s.9-.4,1.5-.4.6,0,.9,0,.5.2.7.3.3.4.4.6.2.6.2,1v4.1h-1.4v-.7c-.3.3-.5.5-.8.6s-.6.2-1,.2ZM101,279.4c.2,0,.4,0,.6-.2s.4-.3.5-.5v-1.3c-.7,0-1.1,0-1.4.3s-.4.5-.4.9,0,.5.2.6.3.2.5.2Z"/>
      <path class="st21" d="M107.4,280.3c-.5,0-.9-.1-1.3-.3s-.7-.6-.9-1-.3-1-.3-1.8.1-1.3.3-1.7.5-.8.9-1,.8-.3,1.4-.3.8,0,1.1.2.6.3.8.6.3.6.4,1.1h-1.4c0-.2-.1-.4-.3-.6s-.4-.2-.6-.2-.7.2-.8.5-.2.8-.2,1.4,0,.7.1,1,.2.5.3.7.4.2.6.2.5,0,.7-.2.2-.4.3-.7h1.4c0,.7-.3,1.2-.7,1.5s-1,.5-1.6.5Z"/>
      <path class="st21" d="M111.1,280.3v-7.9h1.5v2.7c.2-.2.4-.5.7-.6s.6-.3,1.1-.3.9.2,1.2.5.4.8.4,1.5v4.2h-1.5v-4c0-.2,0-.3,0-.5s-.1-.3-.2-.4-.2-.1-.4-.1-.5,0-.7.2-.4.3-.5.5v4.3h-1.5Z"/>
      <path class="st21" d="M122.8,280.4c-.7,0-1.4-.2-1.9-.5s-.9-.8-1.1-1.4-.4-1.3-.4-2.1.1-1.5.4-2.1.6-1.1,1.1-1.4,1.1-.5,1.9-.5,1.1.1,1.6.3.8.5,1.1.9.4.9.5,1.5h-1.6c0-.3-.1-.6-.3-.8s-.3-.4-.5-.5-.5-.2-.7-.2c-.4,0-.8.1-1.1.4s-.4.6-.6,1-.2.9-.2,1.4,0,1,.2,1.4.3.8.6,1,.6.4,1.1.4.8-.1,1.1-.4.4-.7.4-1.2h1.6c0,.6-.2,1.1-.4,1.6s-.6.8-1,1-1,.3-1.6.3Z"/>
      <path class="st21" d="M127.2,280.3v-7.9h1.5v2.7c.2-.2.4-.5.7-.6s.6-.3,1.1-.3.9.2,1.2.5.4.8.4,1.5v4.2h-1.5v-4c0-.2,0-.3,0-.5s-.1-.3-.2-.4-.2-.1-.4-.1-.5,0-.7.2-.4.3-.5.5v4.3h-1.5Z"/>
      <path class="st21" d="M135.8,280.3c-.6,0-1-.1-1.4-.4s-.7-.6-.9-1-.3-1-.3-1.7.1-1.2.3-1.7.5-.8.9-1.1.9-.4,1.4-.4,1,.1,1.4.4.7.6.9,1.1.3,1,.3,1.7-.1,1.2-.3,1.7-.5.8-.9,1-.9.4-1.4.4ZM135.8,279.2c.3,0,.5,0,.7-.3s.3-.4.3-.7,0-.6,0-1,0-.7,0-1-.2-.5-.3-.7-.4-.3-.7-.3-.5,0-.7.3-.3.4-.3.7,0,.6,0,1,0,.7,0,1,.2.5.3.7.4.3.7.3Z"/>
      <path class="st21" d="M140.5,273.7c-.3,0-.5,0-.6-.2s-.2-.3-.2-.5,0-.4.2-.5.3-.2.6-.2.5,0,.6.2.2.3.2.5,0,.4-.2.5-.3.2-.6.2ZM139.7,280.3v-6h1.5v6h-1.5Z"/>
      <path class="st21" d="M145,280.3c-.5,0-.9-.1-1.3-.3s-.7-.6-.9-1-.3-1-.3-1.8.1-1.3.3-1.7.5-.8.9-1,.8-.3,1.4-.3.8,0,1.1.2.6.3.8.6.3.6.4,1.1h-1.4c0-.2-.1-.4-.3-.6s-.4-.2-.6-.2-.7.2-.8.5-.2.8-.2,1.4,0,.7.1,1,.2.5.3.7.4.2.6.2.5,0,.7-.2.2-.4.3-.7h1.4c0,.7-.3,1.2-.7,1.5s-1,.5-1.6.5Z"/>
      <path class="st21" d="M151.1,280.3c-.6,0-1.1-.1-1.5-.4s-.7-.6-.9-1.1-.3-1-.3-1.7,0-1.2.3-1.7.5-.8.9-1.1.9-.4,1.4-.4,1.4.3,1.8.8.7,1.2.7,2.2c0,0,0,.1,0,.2s0,.2,0,.2h-3.6c0,.3,0,.6.1.9s.2.5.4.6.4.2.7.2.4,0,.5-.2.2-.3.3-.5h1.5c0,.4-.2.7-.4,1s-.5.4-.8.6-.7.2-1.2.2ZM150,276.6h2.1c0-.5-.1-.9-.3-1.1s-.4-.4-.7-.4-.6.1-.8.4-.3.6-.3,1.1Z"/>
      <path class="st21" d="M156.9,280.3c-.3,0-.5,0-.8,0s-.5-.1-.7-.3-.4-.3-.5-.5-.2-.5-.2-.8h1.4c0,.3.1.4.3.5s.4.1.7.1.4,0,.6-.2.2-.3.2-.5,0-.5-.3-.6-.5-.3-.9-.4c-.3,0-.7-.2-.9-.4s-.5-.3-.7-.6-.2-.5-.2-.9,0-.6.2-.8.3-.4.5-.5.4-.2.7-.3.5,0,.8,0,.5,0,.7,0,.5.1.7.3.4.3.5.5.2.5.2.8h-1.4c0-.2,0-.4-.2-.5s-.3-.1-.5-.1-.4,0-.5.1-.2.3-.2.5,0,.2.1.3.2.2.4.2.4.1.7.2c.3,0,.6.2.8.3s.5.3.6.6.2.6.2,1-.1.8-.3,1.1-.5.5-.8.6-.7.2-1.1.2Z"/>
    </g>
  </g>
  <g class="st11">
    <line class="st3" x1="23.5" y1="168.7" x2="168.6" y2="168.7"/>
    <rect class="st24" x="23.4" y="168.6" width="145.2" height="1"/>
    <line class="st2" x1="168.7" y1="17.5" x2="168.7" y2="169.5"/>
    <rect class="st8" x="168.6" y="17.4" width="1" height="152.2"/>
    <line class="st2" x1="190.9" y1="18.4" x2="190.9" y2="169.5"/>
    <rect class="st8" x="190.8" y="18.4" width="1" height="151.2"/>
    <line class="st2" x1="211.5" y1="18.4" x2="211.5" y2="169.5"/>
    <rect class="st8" x="211.5" y="18.4" width="1" height="151.2"/>
    <line class="st2" x1="236" y1="18.4" x2="236" y2="169.5"/>
    <rect class="st8" x="236" y="18.4" width="1" height="151.2"/>
    <line class="st2" x1="259.8" y1="18.4" x2="259.8" y2="169.5"/>
    <rect class="st8" x="259.7" y="18.4" width="1" height="151.2"/>
    <line class="st2" x1="284.3" y1="18.4" x2="284.3" y2="169.5"/>
    <rect class="st8" x="284.2" y="18.4" width="1" height="151.2"/>
    <line class="st3" x1="23.5" y1="185.1" x2="169.6" y2="185.1"/>
    <rect class="st24" x="23.4" y="185.1" width="146.2" height="1"/>
    <line class="st3" x1="23.5" y1="201.6" x2="169.6" y2="201.6"/>
    <rect class="st24" x="23.4" y="201.5" width="146.2" height="1"/>
    <line class="st3" x1="23.5" y1="218" x2="169.6" y2="218"/>
    <rect class="st24" x="23.4" y="218" width="146.2" height="1"/>
    <line class="st3" x1="23.5" y1="234.5" x2="169.6" y2="234.5"/>
    <rect class="st24" x="23.4" y="234.4" width="146.2" height="1"/>
    <line class="st3" x1="23.5" y1="250.9" x2="169.6" y2="250.9"/>
    <rect class="st24" x="23.4" y="250.9" width="146.2" height="1"/>
    <line class="st3" x1="23.5" y1="267.3" x2="169.6" y2="267.3"/>
    <rect class="st24" x="23.4" y="267.3" width="146.2" height="1"/>
    <line class="st3" x1="23.5" y1="283.8" x2="169.6" y2="283.8"/>
    <rect class="st24" x="23.4" y="283.7" width="146.2" height="1"/>
    <line class="st3" x1="168.7" y1="169.6" x2="168.7" y2="284.6"/>
    <rect class="st24" x="168.6" y="169.6" width="1" height="115.1"/>
    <line class="st1" x1="190.9" y1="169.6" x2="190.9" y2="284.6"/>
    <rect class="st5" x="190.8" y="169.6" width="1" height="115.1"/>
    <line class="st1" x1="211.5" y1="169.6" x2="211.5" y2="284.6"/>
    <rect class="st5" x="211.5" y="169.6" width="1" height="115.1"/>
    <line class="st1" x1="236" y1="169.6" x2="236" y2="284.6"/>
    <rect class="st5" x="236" y="169.6" width="1" height="115.1"/>
    <line class="st1" x1="259.8" y1="169.6" x2="259.8" y2="284.6"/>
    <rect class="st5" x="259.7" y="169.6" width="1" height="115.1"/>
    <line class="st1" x1="284.3" y1="169.6" x2="284.3" y2="284.6"/>
    <rect class="st5" x="284.2" y="169.6" width="1" height="115.1"/>
    <line class="st3" x1="22.5" y1="168.7" x2="22.5" y2="284.6"/>
    <rect class="st24" x="22.5" y="168.6" width="1" height="116.1"/>
    <line class="st2" x1="169.7" y1="17.5" x2="285.1" y2="17.5"/>
    <rect class="st8" x="169.6" y="17.4" width="115.6" height="1"/>
    <line class="st2" x1="169.7" y1="168.7" x2="285.1" y2="168.7"/>
    <rect class="st8" x="169.6" y="168.6" width="115.6" height="1"/>
    <line class="st1" x1="169.7" y1="185.1" x2="285.1" y2="185.1"/>
    <rect class="st5" x="169.6" y="185.1" width="115.6" height="1"/>
    <line class="st1" x1="169.7" y1="201.6" x2="285.1" y2="201.6"/>
    <rect class="st5" x="169.6" y="201.5" width="115.6" height="1"/>
    <line class="st1" x1="169.7" y1="218" x2="285.1" y2="218"/>
    <rect class="st5" x="169.6" y="218" width="115.6" height="1"/>
    <line class="st1" x1="169.7" y1="234.5" x2="285.1" y2="234.5"/>
    <rect class="st5" x="169.6" y="234.4" width="115.6" height="1"/>
    <line class="st1" x1="169.7" y1="250.9" x2="285.1" y2="250.9"/>
    <rect class="st5" x="169.6" y="250.9" width="115.6" height="1"/>
    <line class="st1" x1="169.7" y1="267.3" x2="285.1" y2="267.3"/>
    <rect class="st5" x="169.6" y="267.3" width="115.6" height="1"/>
    <line class="st1" x1="169.7" y1="283.8" x2="285.1" y2="283.8"/>
    <rect class="st5" x="169.6" y="283.7" width="115.6" height="1"/>
  </g>
</svg>