<?xml version="1.0" encoding="UTF-8"?>
<svg id="Layer_1" xmlns="http://www.w3.org/2000/svg" xmlns:xlink="http://www.w3.org/1999/xlink" version="1.1" viewBox="0 0 259.3 288.9">
  <!-- Generator: Adobe Illustrator 30.4.0, SVG Export Plug-In . SVG Version: 2.1.4 Build 226)  -->
  <defs>
    <style>
      .st0, .st1, .st2, .st3 {
        fill: none;
      }

      .st4 {
        fill: #368ddf;
      }

      .st5 {
        fill: #595959;
      }

      .st1 {
        stroke: #595959;
      }

      .st1, .st2, .st3 {
        stroke-linecap: square;
        stroke-linejoin: round;
        stroke-width: .1px;
      }

      .st2 {
        stroke: #0c4171;
      }

      .st6 {
        fill: #ebb57d;
      }

      .st7 {
        fill: #929292;
      }

      .st8 {
        fill: #0c4171;
      }

      .st9 {
        clip-path: url(#clippath-11);
      }

      .st10 {
        clip-path: url(#clippath-10);
      }

      .st3 {
        stroke: #71420d;
      }

      .st11 {
        clip-path: url(#clippath-1);
      }

      .st12 {
        clip-path: url(#clippath-3);
      }

      .st13 {
        clip-path: url(#clippath-4);
      }

      .st14 {
        clip-path: url(#clippath-2);
      }

      .st15 {
        clip-path: url(#clippath-7);
      }

      .st16 {
        clip-path: url(#clippath-6);
      }

      .st17 {
        clip-path: url(#clippath-9);
      }

      .st18 {
        clip-path: url(#clippath-8);
      }

      .st19 {
        clip-path: url(#clippath-5);
      }

      .st20 {
        fill: #fff;
      }

      .st21 {
        fill: #f5dbc1;
      }

      .st22 {
        fill: #7db4ea;
      }

      .st23 {
        fill: #71420d;
      }

      .st24 {
        fill: #f2f2f2;
      }

      .st25 {
        fill: #b26813;
      }

      .st26 {
        fill: #df8f37;
      }

      .st27 {
        fill: #c0dbf5;
      }

      .st28 {
        clip-path: url(#clippath);
      }
    </style>
    <clipPath id="clippath">
      <rect class="st0" x="-9.6" y="-5" width="258.8" height="282.8"/>
    </clipPath>
    <clipPath id="clippath-1">
      <rect class="st0" x="-9.6" y="-5" width="258.8" height="282.8"/>
    </clipPath>
    <clipPath id="clippath-2">
      <rect class="st0" x="-9.6" y="-5" width="258.8" height="282.8"/>
    </clipPath>
    <clipPath id="clippath-3">
      <rect class="st0" x="-9.6" y="-5" width="258.8" height="282.8"/>
    </clipPath>
    <clipPath id="clippath-4">
      <rect class="st0" x="-9.6" y="162.6" width="258.8" height="15.5"/>
    </clipPath>
    <clipPath id="clippath-5">
      <rect class="st0" x="-9.6" y="179.1" width="258.8" height="15.5"/>
    </clipPath>
    <clipPath id="clippath-6">
      <rect class="st0" x="-9.6" y="195.5" width="258.8" height="15.5"/>
    </clipPath>
    <clipPath id="clippath-7">
      <rect class="st0" x="-9.6" y="212" width="258.8" height="15.5"/>
    </clipPath>
    <clipPath id="clippath-8">
      <rect class="st0" x="-9.6" y="228.4" width="258.8" height="15.5"/>
    </clipPath>
    <clipPath id="clippath-9">
      <rect class="st0" x="-9.6" y="244.8" width="258.8" height="15.5"/>
    </clipPath>
    <clipPath id="clippath-10">
      <rect class="st0" x="-9.6" y="261.3" width="258.8" height="15.5"/>
    </clipPath>
    <clipPath id="clippath-11">
      <rect class="st0" x="-11.6" y="-7" width="262.8" height="286.7"/>
    </clipPath>
  </defs>
  <rect class="st27" x="157.6" y="10.9" width="22.3" height="151.3"/>
  <rect class="st22" x="179.8" y="10.9" width="20.8" height="151.3"/>
  <rect class="st4" x="200.4" y="10.9" width="24.6" height="151.3"/>
  <rect class="st8" x="224.9" y="10.9" width="23.9" height="151.3"/>
  <rect class="st21" x="11.4" y="162.1" width="146.3" height="16.6"/>
  <rect class="st7" x="157.6" y="162.1" width="91.2" height="16.6"/>
  <rect class="st6" x="11.4" y="178.6" width="146.3" height="33"/>
  <rect class="st24" x="157.6" y="178.6" width="22.3" height="33"/>
  <rect class="st7" x="179.8" y="178.6" width="69" height="33"/>
  <rect class="st26" x="11.4" y="211.5" width="146.3" height="33"/>
  <rect class="st24" x="157.6" y="211.5" width="43" height="33"/>
  <rect class="st7" x="200.4" y="211.5" width="48.4" height="33"/>
  <rect class="st25" x="11.4" y="244.4" width="146.3" height="33"/>
  <rect class="st24" x="157.6" y="244.4" width="67.4" height="33"/>
  <rect class="st7" x="224.9" y="244.4" width="23.9" height="33"/>
  <g class="st28">
    <g>
      <path d="M173.7,160.7l-9.2-2.9v-1.9l9.2-2.9v1.9l-2.1.6v2.8l2.1.6v1.9ZM170,157.8v-2l-3.8,1,3.8,1Z"/>
      <path d="M173.8,150.1c0,.4-.1.8-.4,1.1-.3.3-.7.6-1.2.8-.5.2-1.2.3-2.1.3s-1.5-.1-2-.3c-.5-.2-.9-.5-1.2-.9-.2-.4-.4-.8-.4-1.2s0-.8.3-1.1c.2-.3.4-.6.8-.7h-3.1v-1.7h9.2v1.6h-1c.3.3.6.6.8.9.2.3.3.7.3,1.2ZM172.5,149.5c0-.3,0-.6-.3-.8-.2-.2-.4-.4-.7-.6h-2.7c-.3.1-.6.3-.7.5-.2.2-.3.5-.3.8s.2.7.6.9c.4.2.9.3,1.7.3s1.4,0,1.8-.3c.4-.2.6-.5.6-.8Z"/>
      <path d="M170.8,145h-1.4v-3.3h1.4v3.3Z"/>
      <path d="M173.7,140.2h-9.2v-1.8h3.7v-3.5h-3.7v-1.8h9.2v1.8h-4v3.5h4v1.8Z"/>
      <path d="M173.7,128.4c0,.6-.1,1.2-.4,1.6-.3.5-.7.8-1.2,1-.5.2-1.2.4-2,.4s-1.4-.1-2-.4c-.5-.2-.9-.6-1.2-1-.3-.4-.4-1-.4-1.6s.1-1.2.4-1.6c.3-.4.7-.8,1.2-1,.5-.2,1.2-.4,2-.4s1.4.1,2,.4c.5.2.9.6,1.2,1,.3.4.4,1,.4,1.6ZM172.5,128.4c0-.3-.1-.6-.3-.8-.2-.2-.5-.3-.8-.4s-.7-.1-1.2-.1-.8,0-1.2.1-.6.2-.8.4c-.2.2-.3.5-.3.8s.1.6.3.8c.2.2.5.3.8.4.3,0,.7.1,1.2.1s.8,0,1.2-.1c.3,0,.6-.2.8-.4s.3-.4.3-.8Z"/>
      <path d="M173.7,121.1c0,.6-.1,1.1-.4,1.6-.3.5-.6.8-1.2,1.1-.5.3-1.2.4-2,.4s-1.5-.1-2-.4c-.5-.2-.9-.6-1.2-1-.3-.4-.4-1-.4-1.6s0-.9.2-1.3c.2-.4.4-.7.7-1s.7-.4,1.2-.4v1.7c-.3,0-.5.1-.7.3-.2.2-.2.4-.2.7s.2.8.6,1,1,.3,1.7.3.9,0,1.2-.1c.3,0,.6-.2.8-.4.2-.2.3-.4.3-.7s0-.6-.3-.8c-.2-.2-.4-.3-.8-.3v-1.7c.8,0,1.4.3,1.8.8s.6,1.2.6,1.9Z"/>
      <path d="M173.7,114.2h-9.2v-2.1l5-2.5v.8l-5-2.5v-2h9.2v1.8h-8.3v-.8l5.3,2.7v1.1l-5.3,2.7v-.8h8.3v1.7Z"/>
      <path d="M173.7,101.3c0,.6-.1,1.2-.4,1.6-.3.5-.7.8-1.2,1-.5.2-1.2.4-2,.4s-1.4-.1-2-.4c-.5-.2-.9-.6-1.2-1-.3-.4-.4-1-.4-1.6s.1-1.2.4-1.6c.3-.4.7-.8,1.2-1,.5-.2,1.2-.4,2-.4s1.4.1,2,.4c.5.2.9.6,1.2,1,.3.4.4,1,.4,1.6ZM172.5,101.3c0-.3-.1-.6-.3-.8-.2-.2-.5-.3-.8-.4s-.7-.1-1.2-.1-.8,0-1.2.1-.6.2-.8.4c-.2.2-.3.5-.3.8s.1.6.3.8c.2.2.5.3.8.4.3,0,.7.1,1.2.1s.8,0,1.2-.1c.3,0,.6-.2.8-.4s.3-.4.3-.8Z"/>
      <path d="M173.8,94.8c0,.4-.1.8-.4,1.1-.3.3-.7.6-1.2.8-.5.2-1.2.3-2.1.3s-1.5-.1-2-.3c-.5-.2-.9-.5-1.2-.9-.2-.4-.4-.8-.4-1.2s0-.8.3-1.1c.2-.3.4-.6.8-.7h-3.1v-1.7h9.2v1.6h-1c.3.3.6.6.8.9s.3.7.3,1.2ZM172.5,94.2c0-.3,0-.6-.3-.8-.2-.2-.4-.4-.7-.6h-2.7c-.3.1-.6.3-.7.5-.2.2-.3.5-.3.8s.2.7.6.8c.4.2.9.3,1.7.3s1.4,0,1.8-.3c.4-.2.6-.5.6-.8Z"/>
      <path d="M173.8,86.5c0,.7-.1,1.3-.4,1.7s-.7.8-1.2,1-1.2.3-2,.3-1.4-.1-2-.3c-.5-.2-1-.6-1.3-1s-.4-1-.4-1.7.3-1.6.9-2.1c.6-.5,1.5-.8,2.6-.8,0,0,.1,0,.2,0s.2,0,.3,0v4.2c.4,0,.7,0,1-.2.3,0,.6-.2.7-.4s.3-.5.3-.8,0-.5-.2-.6c-.1-.2-.3-.3-.6-.4v-1.8c.5,0,.8.2,1.1.5.3.2.5.5.7.9s.2.8.2,1.4ZM169.4,87.9v-2.5c-.6,0-1,.1-1.3.3-.3.2-.4.5-.4.8s.1.7.4.9c.3.2.7.4,1.3.4Z"/>
    </g>
  </g>
  <g class="st11">
    <g>
      <path d="M195.1,159.7h-9.2v-3.2c0-.6.1-1.1.3-1.5s.5-.8,1-1.1c.4-.3,1-.4,1.7-.4s1.2.1,1.6.4c.4.3.8.6,1,1.1.2.5.3,1,.3,1.5v1.4h3.4v1.8ZM190.3,157.9v-1.2c0-.4-.1-.7-.4-1-.2-.2-.6-.4-1.1-.4s-.9.1-1.1.4c-.2.3-.4.6-.4.9v1.2h3Z"/>
      <path d="M195.1,149.8c0,.6,0,1.1-.2,1.4-.1.3-.4.6-.7.7-.3.1-.7.2-1.3.2h-7.1v-1.7h7c.3,0,.6,0,.7-.1.2,0,.2-.3.2-.6v-.4h1.3v.4Z"/>
      <path d="M195.2,146.7c0,.3,0,.7-.2.9s-.4.5-.7.7c-.3.2-.7.3-1.1.3s-1.1-.2-1.4-.5c-.3-.3-.6-.8-.7-1.4-.1-.6-.2-1.3-.2-2h-.6c-.5,0-.8,0-.9.2s-.3.4-.3.7,0,.5.2.7.4.3.7.3v1.6c-.7,0-1.2-.3-1.5-.8-.3-.5-.4-1-.4-1.8s0-.8.1-1.1.2-.6.4-.8c.2-.2.4-.4.7-.5.3-.1.7-.2,1.1-.2h4.8v1.6h-.9c.3.3.6.6.7.9.2.3.2.7.2,1.1ZM194.1,146.1c0-.3,0-.5-.2-.8-.2-.2-.3-.4-.5-.6h-1.6c0,.8.1,1.3.3,1.7.2.3.5.5,1,.5s.6,0,.8-.2.2-.3.2-.6Z"/>
      <path d="M195.1,141.3h-7v-1.7h1c-.3-.2-.5-.5-.8-.8-.2-.3-.3-.7-.3-1.3s.2-1.1.6-1.4,1-.5,1.7-.5h4.8v1.7h-4.6c-.2,0-.4,0-.6,0-.2,0-.3.1-.4.3-.1.1-.2.3-.2.5s0,.5.2.8c.2.2.4.4.6.6h5v1.7Z"/>
      <path d="M195.1,131.3h-9.2v-2.1l5-2.5v.8l-5-2.5v-2h9.2v1.8h-8.3v-.8l5.3,2.7v1.1l-5.3,2.7v-.8h8.3v1.7Z"/>
      <path d="M195.2,118.3c0,.6-.1,1.2-.4,1.6-.3.5-.7.8-1.2,1-.5.2-1.2.4-2,.4s-1.4-.1-2-.4c-.5-.2-.9-.6-1.2-1-.3-.4-.4-1-.4-1.6s.1-1.2.4-1.6c.3-.4.7-.8,1.2-1,.5-.2,1.2-.4,2-.4s1.4.1,2,.4c.5.2.9.6,1.2,1,.3.4.4,1,.4,1.6ZM193.9,118.3c0-.3-.1-.6-.3-.8-.2-.2-.5-.3-.8-.4s-.7-.1-1.2-.1-.8,0-1.2.1-.6.2-.8.4c-.2.2-.3.5-.3.8s.1.6.3.8c.2.2.5.3.8.4.3,0,.7.1,1.2.1s.8,0,1.2-.1c.3,0,.6-.2.8-.4.2-.2.3-.4.3-.8Z"/>
      <path d="M195.2,111.8c0,.4-.1.8-.4,1.1-.3.3-.7.6-1.2.8-.5.2-1.2.3-2.1.3s-1.5-.1-2-.3c-.5-.2-.9-.5-1.2-.9-.2-.4-.4-.8-.4-1.2s0-.8.3-1.1c.2-.3.4-.6.8-.7h-3.1v-1.7h9.2v1.6h-1c.3.3.6.6.8.9s.3.7.3,1.2ZM193.9,111.3c0-.3,0-.6-.3-.8-.2-.2-.4-.4-.7-.6h-2.7c-.3.1-.6.3-.7.5-.2.2-.3.5-.3.8s.2.7.6.8c.4.2.9.3,1.7.3s1.4,0,1.8-.3c.4-.2.6-.5.6-.8Z"/>
      <path d="M195.2,103.6c0,.7-.1,1.3-.4,1.7s-.7.8-1.2,1-1.2.3-2,.3-1.4-.1-2-.3c-.5-.2-1-.6-1.3-1s-.4-1-.4-1.7.3-1.6.9-2.1c.6-.5,1.5-.8,2.6-.8,0,0,.1,0,.2,0s.2,0,.3,0v4.2c.4,0,.7,0,1-.2.3,0,.6-.2.7-.4s.3-.5.3-.8,0-.5-.2-.6c-.1-.2-.3-.3-.6-.4v-1.8c.5,0,.8.2,1.1.5.3.2.5.5.7.9s.2.8.2,1.4ZM190.9,104.9v-2.5c-.6,0-1,.1-1.3.3-.3.2-.4.5-.4.8s.1.7.4.9c.3.2.7.4,1.3.4Z"/>
    </g>
  </g>
  <g class="st14">
    <g>
      <path class="st20" d="M217.6,158.4h-7.7v2.1h-1.5v-6.1h1.5v2.1h7.7v1.8Z"/>
      <path class="st20" d="M217.7,151.9c0,.3,0,.7-.2.9s-.4.5-.7.7c-.3.2-.7.3-1.1.3s-1.1-.2-1.4-.5c-.3-.3-.6-.8-.7-1.4-.1-.6-.2-1.3-.2-2h-.6c-.5,0-.8,0-.9.2s-.3.4-.3.7,0,.5.2.7.4.3.7.3v1.6c-.7,0-1.2-.3-1.5-.8-.3-.5-.4-1-.4-1.8s0-.8.1-1.1.2-.6.4-.8c.2-.2.4-.4.7-.5.3-.1.7-.2,1.1-.2h4.8v1.6h-.9c.3.3.6.6.7.9.2.3.2.7.2,1.1ZM216.6,151.2c0-.3,0-.5-.2-.8-.2-.2-.3-.4-.5-.6h-1.6c0,.8.1,1.3.3,1.7.2.3.5.5,1,.5s.6,0,.8-.2.2-.3.2-.6Z"/>
      <path class="st20" d="M217.7,144.1c0,.3,0,.6,0,1,0,.3-.2.6-.3.9-.1.3-.3.5-.6.6-.3.2-.6.2-.9.2v-1.6c.3,0,.5-.1.6-.3.1-.2.2-.5.2-.8s0-.5-.2-.7c-.1-.1-.3-.2-.6-.2s-.6,0-.7.3c-.2.2-.3.5-.4,1-.1.4-.3.8-.4,1.1-.2.3-.4.6-.6.8-.3.2-.6.3-1.1.3s-.7,0-.9-.2-.5-.3-.6-.6c-.2-.2-.3-.5-.4-.8,0-.3-.1-.6-.1-.9s0-.6,0-.9c0-.3.2-.6.3-.8.1-.2.3-.4.6-.6s.5-.2.9-.2v1.6c-.3,0-.5,0-.5.3s-.1.4-.1.6,0,.5.2.6c.1.1.3.2.6.2s.3,0,.4-.2.2-.3.3-.5c0-.2.2-.5.3-.8,0-.3.2-.7.4-1,.2-.3.4-.6.7-.7.3-.2.7-.3,1.1-.3s1,.1,1.3.4c.3.2.6.6.7,1,.1.4.2.8.2,1.3Z"/>
      <path class="st20" d="M217.6,140h-9.2v-1.7h5.4l-3.2-2.2v-1.9l3.2,2.3,3.8-2.4v1.9l-3.7,2.3h3.7v1.7Z"/>
      <path class="st20" d="M217.6,130.6h-9.2v-2.1l5-2.5v.8l-5-2.5v-2h9.2v1.8h-8.3v-.8l5.3,2.7v1.1l-5.3,2.7v-.8h8.3v1.7Z"/>
      <path class="st20" d="M217.7,117.7c0,.6-.1,1.2-.4,1.6s-.7.8-1.2,1-1.2.4-2,.4-1.4-.1-2-.4c-.5-.2-.9-.6-1.2-1-.3-.5-.4-1-.4-1.6s.1-1.2.4-1.6c.3-.4.7-.8,1.2-1,.5-.2,1.2-.4,2-.4s1.4.1,2,.4c.5.2.9.6,1.2,1,.3.4.4,1,.4,1.6ZM216.4,117.7c0-.3-.1-.6-.3-.8-.2-.2-.5-.3-.8-.4s-.7-.1-1.2-.1-.8,0-1.2.1-.6.2-.8.4c-.2.2-.3.5-.3.8s.1.6.3.8c.2.2.5.3.8.4.3,0,.7.1,1.2.1s.8,0,1.2-.1c.3,0,.6-.2.8-.4.2-.2.3-.4.3-.8Z"/>
      <path class="st20" d="M217.7,111.2c0,.4-.1.8-.4,1.1-.3.3-.7.6-1.2.8-.5.2-1.2.3-2.1.3s-1.5-.1-2-.3c-.5-.2-.9-.5-1.2-.9-.2-.4-.4-.8-.4-1.2s0-.8.3-1.1c.2-.3.4-.6.8-.7h-3.1v-1.7h9.2v1.6h-1c.3.3.6.6.8.9s.3.7.3,1.2ZM216.4,110.6c0-.3,0-.6-.3-.8-.2-.2-.4-.4-.7-.6h-2.7c-.3.1-.6.3-.7.5-.2.2-.3.5-.3.8s.2.7.6.8c.4.2.9.3,1.7.3s1.4,0,1.8-.3c.4-.2.6-.5.6-.8Z"/>
      <path class="st20" d="M217.7,102.9c0,.7-.1,1.3-.4,1.7s-.7.8-1.2,1-1.2.3-2,.3-1.4-.1-2-.3c-.5-.2-1-.6-1.3-1s-.4-1-.4-1.7.3-1.6.9-2.1c.6-.5,1.5-.8,2.6-.8,0,0,.1,0,.2,0s.2,0,.3,0v4.2c.4,0,.7,0,1-.2.3,0,.6-.2.7-.4s.3-.5.3-.8,0-.5-.2-.6c-.1-.2-.3-.3-.6-.4v-1.8c.5,0,.8.2,1.1.5.3.2.5.5.7.9s.2.8.2,1.4ZM213.3,104.3v-2.5c-.6,0-1,.1-1.3.3-.3.2-.4.5-.4.8s.1.7.4.9c.3.2.7.4,1.3.4Z"/>
    </g>
  </g>
  <g class="st12">
    <g>
      <path class="st20" d="M241.7,159.7h-9.2v-5.4h1.5v3.5h2.3v-3.2h1.4v3.2h4v1.8Z"/>
      <path class="st20" d="M241.8,151.3c0,.6-.2,1-.6,1.3-.4.3-1,.5-1.7.5h-4.8v-1.7h4.6c.2,0,.4,0,.6,0,.2,0,.3-.1.4-.3.1-.1.2-.3.2-.5,0-.3,0-.5-.2-.8s-.3-.4-.5-.6h-5v-1.7h7v1.7h-1c.3.2.5.5.8.8.2.3.3.8.3,1.3Z"/>
      <path class="st20" d="M241.7,145.7h-7v-1.7h1c-.3-.2-.5-.5-.8-.8-.2-.3-.3-.7-.3-1.3s.2-1.1.6-1.4,1-.5,1.7-.5h4.8v1.7h-4.6c-.2,0-.4,0-.6,0-.2,0-.3.1-.4.3-.1.1-.2.3-.2.5s0,.5.2.8c.2.2.4.4.6.6h5v1.7Z"/>
      <path class="st20" d="M241.7,138.3h-7v-1.7h1c-.3-.2-.5-.5-.8-.8-.2-.3-.3-.7-.3-1.3s.2-1.1.6-1.4,1-.5,1.7-.5h4.8v1.7h-4.6c-.2,0-.4,0-.6,0-.2,0-.3.1-.4.3-.1.1-.2.3-.2.5s0,.5.2.8c.2.2.4.4.6.6h5v1.7Z"/>
      <path class="st20" d="M241.8,128.1c0,.7-.1,1.3-.4,1.7s-.7.8-1.2,1-1.2.3-2,.3-1.4-.1-2-.3c-.5-.2-1-.6-1.3-1s-.4-1-.4-1.7.3-1.6.9-2.1c.6-.5,1.5-.8,2.6-.8,0,0,.1,0,.2,0s.2,0,.3,0v4.2c.4,0,.7,0,1-.2.3,0,.6-.2.7-.4s.3-.5.3-.8,0-.5-.2-.6c-.1-.2-.3-.3-.6-.4v-1.8c.5,0,.8.2,1.1.5.3.2.5.5.7.9s.2.8.2,1.4ZM237.4,129.5v-2.5c-.6,0-1,.1-1.3.3-.3.2-.4.5-.4.8s.1.7.4.9c.3.2.7.4,1.3.4Z"/>
      <path class="st20" d="M241.7,121.5c0,.6,0,1.1-.2,1.4-.1.3-.4.6-.7.7-.3.1-.7.2-1.3.2h-7.1v-1.7h7c.3,0,.6,0,.7-.1.2,0,.2-.3.2-.6v-.4h1.3v.4Z"/>
      <path class="st20" d="M241.7,117.4h-9.2v-2.1l5-2.5v.8l-5-2.5v-2h9.2v1.8h-8.3v-.8l5.3,2.7v1.1l-5.3,2.7v-.8h8.3v1.7Z"/>
      <path class="st20" d="M241.8,104.4c0,.6-.1,1.2-.4,1.6s-.7.8-1.2,1-1.2.4-2,.4-1.4-.1-2-.4c-.5-.2-.9-.6-1.2-1-.3-.5-.4-1-.4-1.6s.1-1.2.4-1.6c.3-.4.7-.8,1.2-1,.5-.2,1.2-.4,2-.4s1.4.1,2,.4c.5.2.9.6,1.2,1,.3.4.4,1,.4,1.6ZM240.5,104.4c0-.3-.1-.6-.3-.8-.2-.2-.5-.3-.8-.4s-.7-.1-1.2-.1-.8,0-1.2.1-.6.2-.8.4c-.2.2-.3.5-.3.8s.1.6.3.8c.2.2.5.3.8.4.3,0,.7.1,1.2.1s.8,0,1.2-.1c.3,0,.6-.2.8-.4.2-.2.3-.4.3-.8Z"/>
      <path class="st20" d="M241.8,97.9c0,.4-.1.8-.4,1.1-.3.3-.7.6-1.2.8-.5.2-1.2.3-2.1.3s-1.5-.1-2-.3c-.5-.2-.9-.5-1.2-.9-.2-.4-.4-.8-.4-1.2s0-.8.3-1.1c.2-.3.4-.6.8-.7h-3.1v-1.7h9.2v1.6h-1c.3.3.6.6.8.9s.3.7.3,1.2ZM240.5,97.3c0-.3,0-.6-.3-.8-.2-.2-.4-.4-.7-.6h-2.7c-.3.1-.6.3-.7.5-.2.2-.3.5-.3.8s.2.7.6.8c.4.2.9.3,1.7.3s1.4,0,1.8-.3c.4-.2.6-.5.6-.8Z"/>
      <path class="st20" d="M241.8,89.6c0,.7-.1,1.3-.4,1.7s-.7.8-1.2,1-1.2.3-2,.3-1.4-.1-2-.3c-.5-.2-1-.6-1.3-1s-.4-1-.4-1.7.3-1.6.9-2.1c.6-.5,1.5-.8,2.6-.8,0,0,.1,0,.2,0s.2,0,.3,0v4.2c.4,0,.7,0,1-.2.3,0,.6-.2.7-.4s.3-.5.3-.8,0-.5-.2-.6c-.1-.2-.3-.3-.6-.4v-1.8c.5,0,.8.2,1.1.5.3.2.5.5.7.9s.2.8.2,1.4ZM237.4,91v-2.5c-.6,0-1,.1-1.3.3-.3.2-.4.5-.4.8s.1.7.4.9c.3.2.7.4,1.3.4Z"/>
    </g>
  </g>
  <g class="st13">
    <g>
      <path d="M14.3,174.6v-7.9h2.6c.8,0,1.4.2,2,.5s.9.8,1.2,1.4.4,1.3.4,2.1-.1,1.5-.4,2.1-.7,1-1.2,1.4-1.2.5-1.9.5h-2.6ZM15.8,173.3h.9c.4,0,.8,0,1.1-.3s.5-.5.7-.9.2-.9.2-1.5,0-1.1-.3-1.5-.4-.7-.7-.9-.7-.3-1.1-.3h-.9v5.3Z"/>
      <path d="M22.5,168c-.3,0-.5,0-.6-.2s-.2-.3-.2-.5,0-.4.2-.5.3-.2.6-.2.5,0,.6.2.2.3.2.5,0,.4-.2.5-.3.2-.6.2ZM21.8,174.6v-6h1.5v6h-1.5Z"/>
      <path d="M24.8,174.6v-6h1.4v1c.2-.3.3-.6.6-.8s.6-.3.9-.3h.1v1.2h-.1c-.2,0-.4,0-.6,0s-.4.1-.5.2-.3.2-.4.4v4.2h-1.5Z"/>
      <path d="M31.2,174.7c-.6,0-1.1-.1-1.5-.4s-.7-.6-.9-1.1-.3-1-.3-1.7,0-1.2.3-1.7.5-.8.9-1.1.9-.4,1.4-.4,1.4.3,1.8.8.7,1.2.7,2.2c0,0,0,.1,0,.2s0,.2,0,.2h-3.6c0,.3,0,.6.1.9s.2.5.4.6.4.2.7.2.4,0,.5-.2.2-.3.3-.5h1.5c0,.4-.2.7-.4,1s-.5.4-.8.6-.7.2-1.2.2ZM30.1,171h2.1c0-.5-.1-.9-.3-1.1s-.4-.4-.7-.4-.6.1-.8.4-.3.6-.3,1.1Z"/>
      <path d="M37.2,174.7c-.5,0-.9-.1-1.3-.3s-.7-.6-.9-1-.3-1-.3-1.8.1-1.3.3-1.7.5-.8.9-1,.8-.3,1.4-.3.8,0,1.1.2.6.3.8.6.3.6.4,1.1h-1.4c0-.2-.1-.4-.3-.6s-.4-.2-.6-.2-.7.2-.8.5-.2.8-.2,1.4,0,.7.1,1,.2.5.3.7.4.2.6.2.5,0,.7-.2.2-.4.3-.7h1.4c0,.7-.3,1.2-.7,1.5s-1,.5-1.6.5Z"/>
      <path d="M43.1,174.6c-.5,0-.9,0-1.2-.2s-.5-.3-.6-.6-.2-.7-.2-1.1v-2.9h-.8v-1.1h.8v-1.3h1.5v1.3h1.1v1.1h-1.1v2.9c0,.3,0,.5.1.7s.2.2.5.2h.5v1.1h-.5Z"/>
      <path d="M47,174.6v-7.9h1.6v7.9h-1.6Z"/>
      <path d="M50.2,174.6v-6h1.4v.9c.2-.2.4-.5.7-.7s.6-.3,1.1-.3.9.2,1.2.5.4.8.4,1.5v4.1h-1.5v-3.9c0-.2,0-.3,0-.5s-.1-.3-.2-.4-.2-.1-.4-.1-.5,0-.7.2-.4.3-.5.5v4.2h-1.5Z"/>
      <path d="M58.5,174.7c-.3,0-.5,0-.8,0s-.5-.1-.7-.3-.4-.3-.5-.5-.2-.5-.2-.8h1.4c0,.3.1.4.3.5s.4.1.7.1.4,0,.6-.2.2-.3.2-.5,0-.5-.3-.6-.5-.3-.9-.4c-.3,0-.7-.2-.9-.4s-.5-.3-.7-.6-.2-.5-.2-.9,0-.6.2-.8.3-.4.5-.5.4-.2.7-.3.5,0,.8,0,.5,0,.7,0,.5.1.7.3.4.3.5.5.2.5.2.8h-1.4c0-.2,0-.4-.2-.5s-.3-.1-.5-.1-.4,0-.5.1-.2.3-.2.5,0,.2.1.3.2.2.4.2.4.1.7.2c.3,0,.6.2.8.3s.5.3.6.6.2.6.2,1-.1.8-.3,1.1-.5.5-.8.6-.7.2-1.1.2Z"/>
      <path d="M64.2,174.6c-.5,0-.9,0-1.2-.2s-.5-.3-.6-.6-.2-.7-.2-1.1v-2.9h-.8v-1.1h.8v-1.3h1.5v1.3h1.1v1.1h-1.1v2.9c0,.3,0,.5.1.7s.2.2.5.2h.5v1.1h-.5Z"/>
      <path d="M65.8,174.6v-6h1.4v1c.2-.3.3-.6.6-.8s.6-.3.9-.3h.1v1.2h-.1c-.2,0-.4,0-.6,0s-.4.1-.5.2-.3.2-.4.4v4.2h-1.5Z"/>
      <path d="M71.5,174.7c-.5,0-.9-.2-1.1-.5s-.4-.8-.4-1.4v-4.1h1.5v3.9c0,.2,0,.3,0,.5s.1.3.2.4.2.1.4.1c.2,0,.5,0,.7-.2s.4-.3.5-.5v-4.3h1.5v6h-1.4v-.9c-.2.2-.4.5-.7.7s-.7.3-1.1.3Z"/>
      <path d="M78.5,174.7c-.5,0-.9-.1-1.3-.3s-.7-.6-.9-1-.3-1-.3-1.8.1-1.3.3-1.7.5-.8.9-1,.8-.3,1.4-.3.8,0,1.1.2.6.3.8.6.3.6.4,1.1h-1.4c0-.2-.1-.4-.3-.6s-.4-.2-.6-.2-.7.2-.8.5-.2.8-.2,1.4,0,.7.1,1,.2.5.3.7.4.2.6.2.5,0,.7-.2.2-.4.3-.7h1.4c0,.7-.3,1.2-.7,1.5s-1,.5-1.6.5Z"/>
      <path d="M84.4,174.6c-.5,0-.9,0-1.2-.2s-.5-.3-.6-.6-.2-.7-.2-1.1v-2.9h-.8v-1.1h.8v-1.3h1.5v1.3h1.1v1.1h-1.1v2.9c0,.3,0,.5.1.7s.2.2.5.2h.5v1.1h-.5Z"/>
      <path d="M86.7,168c-.3,0-.5,0-.6-.2s-.2-.3-.2-.5,0-.4.2-.5.3-.2.6-.2.5,0,.6.2.2.3.2.5,0,.4-.2.5-.3.2-.6.2ZM86,174.6v-6h1.5v6h-1.5Z"/>
      <path d="M91.3,174.7c-.6,0-1-.1-1.4-.4s-.7-.6-.9-1-.3-1-.3-1.7.1-1.2.3-1.7.5-.8.9-1.1.9-.4,1.4-.4,1,.1,1.4.4.7.6.9,1.1.3,1,.3,1.7-.1,1.2-.3,1.7-.5.8-.9,1-.9.4-1.4.4ZM91.3,173.6c.3,0,.5,0,.7-.3s.3-.4.3-.7,0-.6,0-1,0-.7,0-1-.2-.5-.3-.7-.4-.3-.7-.3-.5,0-.7.3-.3.4-.3.7,0,.6,0,1,0,.7,0,1,.2.5.3.7.4.3.7.3Z"/>
      <path d="M95.2,174.6v-6h1.4v.9c.2-.2.4-.5.7-.7s.6-.3,1.1-.3.9.2,1.2.5.4.8.4,1.5v4.1h-1.5v-3.9c0-.2,0-.3,0-.5s-.1-.3-.2-.4-.2-.1-.4-.1-.5,0-.7.2-.4.3-.5.5v4.2h-1.5Z"/>
    </g>
  </g>
  <g class="st19">
    <g>
      <path d="M14.3,191.1v-7.9h2.6c.8,0,1.4.2,2,.5s.9.8,1.2,1.4.4,1.3.4,2.1-.1,1.5-.4,2.1-.7,1-1.2,1.4-1.2.5-1.9.5h-2.6ZM15.8,189.8h.9c.4,0,.8,0,1.1-.3s.5-.5.7-.9.2-.9.2-1.5,0-1.1-.3-1.5-.4-.7-.7-.9-.7-.3-1.1-.3h-.9v5.3Z"/>
      <path d="M24.1,191.2c-.6,0-1.1-.1-1.5-.4s-.7-.6-.9-1.1-.3-1-.3-1.7,0-1.2.3-1.7.5-.8.9-1.1.9-.4,1.4-.4,1.4.3,1.8.8.7,1.2.7,2.2c0,0,0,.1,0,.2s0,.2,0,.2h-3.6c0,.3,0,.6.1.9s.2.5.4.6.4.2.7.2.4,0,.5-.2.2-.3.3-.5h1.5c0,.4-.2.7-.4,1s-.5.4-.8.6-.7.2-1.2.2ZM23,187.4h2.1c0-.5-.1-.9-.3-1.1s-.4-.4-.7-.4-.6.1-.8.4-.3.6-.3,1.1Z"/>
      <path d="M28.1,191.1v-4.9h-.8v-1.1h.8c0-.4,0-.7,0-.9s.2-.4.3-.6.3-.3.6-.4.6-.1,1-.1h.5v1h-.5c-.2,0-.4,0-.5.2s-.1.3-.1.6h0c0,.1,1.1.1,1.1.1v1.1h-1.1v4.9h-1.5Z"/>
      <path d="M33.9,191.2c-.6,0-1.1-.1-1.5-.4s-.7-.6-.9-1.1-.3-1-.3-1.7,0-1.2.3-1.7.5-.8.9-1.1.9-.4,1.4-.4,1.4.3,1.8.8.7,1.2.7,2.2c0,0,0,.1,0,.2s0,.2,0,.2h-3.6c0,.3,0,.6.1.9s.2.5.4.6.4.2.7.2.4,0,.5-.2.2-.3.3-.5h1.5c0,.4-.2.7-.4,1s-.5.4-.8.6-.7.2-1.2.2ZM32.7,187.4h2.1c0-.5-.1-.9-.3-1.1s-.4-.4-.7-.4-.6.1-.8.4-.3.6-.3,1.1Z"/>
      <path d="M37.6,191.1v-6h1.4v1c.2-.3.3-.6.6-.8s.6-.3.9-.3h.1v1.2h-.1c-.2,0-.4,0-.6,0s-.4.1-.5.2-.3.2-.4.4v4.2h-1.5Z"/>
      <path d="M41.7,191.1v-6h1.4v1c.2-.3.3-.6.6-.8s.6-.3.9-.3h.1v1.2h-.1c-.2,0-.4,0-.6,0s-.4.1-.5.2-.3.2-.4.4v4.2h-1.5Z"/>
      <path d="M48.1,191.2c-.6,0-1.1-.1-1.5-.4s-.7-.6-.9-1.1-.3-1-.3-1.7,0-1.2.3-1.7.5-.8.9-1.1.9-.4,1.4-.4,1.4.3,1.8.8.7,1.2.7,2.2c0,0,0,.1,0,.2s0,.2,0,.2h-3.6c0,.3,0,.6.1.9s.2.5.4.6.4.2.7.2.4,0,.5-.2.2-.3.3-.5h1.5c0,.4-.2.7-.4,1s-.5.4-.8.6-.7.2-1.2.2ZM46.9,187.4h2.1c0-.5-.1-.9-.3-1.1s-.4-.4-.7-.4-.6.1-.8.4-.3.6-.3,1.1Z"/>
      <path d="M53.5,191.1c-.4,0-.7-.1-1-.3s-.5-.6-.7-1-.3-1.1-.3-1.8,0-1.3.3-1.8.4-.8.7-1,.6-.3,1-.3.7,0,.9.2.5.4.6.7v-2.7h1.5v7.9h-1.4v-.8c-.3.3-.5.5-.8.7s-.6.2-1,.2ZM54,190c.3,0,.5,0,.7-.2s.4-.3.5-.6v-2.3c-.1-.3-.2-.5-.4-.6s-.4-.3-.7-.3-.6.2-.7.5-.3.8-.3,1.5,0,1.2.2,1.5.4.5.7.5Z"/>
      <path d="M60.4,191.1v-7.9h4.7v1.3h-3.1v2h2.8v1.2h-2.8v2.2h3.1v1.3h-4.7Z"/>
      <path d="M65.7,191.1l2-3.4.6-.4,1-2.2h1.6l-1.8,3.2-.6.4-1.2,2.4h-1.6ZM69.5,191.1l-1.2-2.4-.5-.4-1.8-3.2h1.6l1,2.2.6.4,2,3.4h-1.6Z"/>
      <path d="M74.1,191.2c-.6,0-1.1-.1-1.5-.4s-.7-.6-.9-1.1-.3-1-.3-1.7,0-1.2.3-1.7.5-.8.9-1.1.9-.4,1.4-.4,1.4.3,1.8.8.7,1.2.7,2.2c0,0,0,.1,0,.2s0,.2,0,.2h-3.6c0,.3,0,.6.1.9s.2.5.4.6.4.2.7.2.4,0,.5-.2.2-.3.3-.5h1.5c0,.4-.2.7-.4,1s-.5.4-.8.6-.7.2-1.2.2ZM73,187.4h2.1c0-.5-.1-.9-.3-1.1s-.4-.4-.7-.4-.6.1-.8.4-.3.6-.3,1.1Z"/>
      <path d="M80.2,191.1c-.5,0-.9-.1-1.3-.3s-.7-.6-.9-1-.3-1-.3-1.8.1-1.3.3-1.7.5-.8.9-1,.8-.3,1.4-.3.8,0,1.1.2.6.3.8.6.3.6.4,1.1h-1.4c0-.2-.1-.4-.3-.6s-.4-.2-.6-.2-.7.2-.8.5-.2.8-.2,1.4,0,.7.1,1,.2.5.3.7.4.2.6.2.5,0,.7-.2.2-.4.3-.7h1.4c0,.7-.3,1.2-.7,1.5s-1,.5-1.6.5Z"/>
      <path d="M85.4,191.1c-.5,0-.9-.2-1.1-.5s-.4-.8-.4-1.4v-4.1h1.5v3.9c0,.2,0,.3,0,.5s.1.3.2.4.2.1.4.1c.2,0,.5,0,.7-.2s.4-.3.5-.5v-4.3h1.5v6h-1.4v-.9c-.2.2-.4.5-.7.7s-.7.3-1.1.3Z"/>
      <path d="M92.3,191.1c-.5,0-.9,0-1.2-.2s-.5-.3-.6-.6-.2-.7-.2-1.1v-2.9h-.8v-1.1h.8v-1.3h1.5v1.3h1.1v1.1h-1.1v2.9c0,.3,0,.5.1.7s.2.2.5.2h.5v1.1h-.5Z"/>
      <path d="M94.7,184.5c-.3,0-.5,0-.6-.2s-.2-.3-.2-.5,0-.4.2-.5.3-.2.6-.2.5,0,.6.2.2.3.2.5,0,.4-.2.5-.3.2-.6.2ZM93.9,191.1v-6h1.5v6h-1.5Z"/>
      <path d="M99.3,191.1c-.6,0-1-.1-1.4-.4s-.7-.6-.9-1-.3-1-.3-1.7.1-1.2.3-1.7.5-.8.9-1.1.9-.4,1.4-.4,1,.1,1.4.4.7.6.9,1.1.3,1,.3,1.7-.1,1.2-.3,1.7-.5.8-.9,1-.9.4-1.4.4ZM99.3,190c.3,0,.5,0,.7-.3s.3-.4.3-.7,0-.6,0-1,0-.7,0-1-.2-.5-.3-.7-.4-.3-.7-.3-.5,0-.7.3-.3.4-.3.7,0,.6,0,1,0,.7,0,1,.2.5.3.7.4.3.7.3Z"/>
      <path d="M103.2,191.1v-6h1.4v.9c.2-.2.4-.5.7-.7s.6-.3,1.1-.3.9.2,1.2.5.4.8.4,1.5v4.1h-1.5v-3.9c0-.2,0-.3,0-.5s-.1-.3-.2-.4-.2-.1-.4-.1-.5,0-.7.2-.4.3-.5.5v4.2h-1.5Z"/>
    </g>
  </g>
  <g class="st16">
    <g>
      <path d="M14.3,207.5v-7.9h2.7c.5,0,.9,0,1.3.3s.7.5.9.8.3.8.3,1.4-.1,1-.3,1.4-.5.6-.9.8-.8.3-1.3.3h-1.2v2.9h-1.6ZM15.8,203.4h1c.3,0,.6-.1.8-.3s.3-.5.3-.9-.1-.8-.3-1-.5-.3-.8-.3h-1v2.5Z"/>
      <path d="M22.6,207.5c-.5,0-.9,0-1.2-.2s-.5-.3-.6-.6-.2-.6-.2-1.1v-6h1.5v5.9c0,.3,0,.5.1.6s.2.2.5.2h.3v1.1h-.4Z"/>
      <path d="M25.3,207.6c-.3,0-.6,0-.8-.2s-.4-.3-.6-.6-.2-.6-.2-1,.1-.9.4-1.2.7-.5,1.2-.6,1.1-.2,1.7-.2v-.5c0-.4,0-.7-.2-.8s-.3-.2-.6-.2-.4,0-.6.2-.2.3-.2.6h-1.4c0-.6.3-1,.7-1.3s.9-.4,1.5-.4.6,0,.9,0,.5.2.7.3.3.4.4.6.2.6.2,1v4.1h-1.4v-.7c-.3.3-.5.5-.8.6s-.6.2-1,.2ZM25.8,206.7c.2,0,.4,0,.6-.2s.4-.3.5-.5v-1.3c-.7,0-1.1,0-1.4.3s-.4.5-.4.9,0,.5.2.6.3.2.5.2Z"/>
      <path d="M29.9,207.5v-6h1.4v.9c.2-.2.4-.5.7-.7s.6-.3,1.1-.3.9.2,1.2.5.4.8.4,1.5v4.1h-1.5v-3.9c0-.2,0-.3,0-.5s-.1-.3-.2-.4-.2-.1-.4-.1-.5,0-.7.2-.4.3-.5.5v4.2h-1.5Z"/>
      <path d="M38.5,207.5v-7.9h2.9c.5,0,.9,0,1.2.2s.6.4.8.7.3.7.3,1.3-.1.9-.3,1.3-.6.6-1.1.7c.3,0,.6.2.7.3s.3.4.4.6.2.6.3.9l.5,1.9h-1.6l-.3-1.6c0-.3-.1-.6-.2-.8s-.2-.4-.4-.5-.4-.2-.7-.2h-1v3.1h-1.6ZM40.1,203.2h1.1c.2,0,.4,0,.6-.1s.3-.2.4-.4.1-.4.1-.6c0-.4,0-.6-.3-.8s-.4-.3-.8-.3h-1.1v2.3Z"/>
      <path d="M47.6,207.6c-.6,0-1.1-.1-1.5-.4s-.7-.6-.9-1.1-.3-1-.3-1.7,0-1.2.3-1.7.5-.8.9-1.1.9-.4,1.4-.4,1.4.3,1.8.8.7,1.2.7,2.2c0,0,0,.1,0,.2s0,.2,0,.2h-3.6c0,.3,0,.6.1.9s.2.5.4.6.4.2.7.2.4,0,.5-.2.2-.3.3-.5h1.5c0,.4-.2.7-.4,1s-.5.4-.8.6-.7.2-1.2.2ZM46.5,203.9h2.1c0-.5-.1-.9-.3-1.1s-.4-.4-.7-.4-.6.1-.8.4-.3.6-.3,1.1Z"/>
      <path d="M51.6,207.5v-4.9h-.8v-1.1h.8c0-.4,0-.7,0-.9s.2-.4.3-.6.3-.3.6-.4.6-.1,1-.1h.5v1h-.5c-.2,0-.4,0-.5.2s-.1.3-.1.6h0c0,.1,1.1.1,1.1.1v1.1h-1.1v4.9h-1.5ZM55.8,200.9c-.3,0-.5,0-.6-.2s-.2-.3-.2-.5,0-.4.2-.5.3-.2.6-.2.5,0,.6.2.2.3.2.5,0,.4-.2.5-.3.2-.6.2ZM55,207.5v-6h1.5v6h-1.5Z"/>
      <path d="M58,207.5v-6h1.4v.9c.2-.2.4-.5.7-.7s.6-.3,1.1-.3.9.2,1.2.5.4.8.4,1.5v4.1h-1.5v-3.9c0-.2,0-.3,0-.5s-.1-.3-.2-.4-.2-.1-.4-.1-.5,0-.7.2-.4.3-.5.5v4.2h-1.5Z"/>
      <path d="M66.7,207.6c-.6,0-1.1-.1-1.5-.4s-.7-.6-.9-1.1-.3-1-.3-1.7,0-1.2.3-1.7.5-.8.9-1.1.9-.4,1.4-.4,1.4.3,1.8.8.7,1.2.7,2.2c0,0,0,.1,0,.2s0,.2,0,.2h-3.6c0,.3,0,.6.1.9s.2.5.4.6.4.2.7.2.4,0,.5-.2.2-.3.3-.5h1.5c0,.4-.2.7-.4,1s-.5.4-.8.6-.7.2-1.2.2ZM65.6,203.9h2.1c0-.5-.1-.9-.3-1.1s-.4-.4-.7-.4-.6.1-.8.4-.3.6-.3,1.1Z"/>
      <path d="M70.5,207.5v-6h1.4v.9c.2-.2.4-.5.7-.7s.7-.3,1.1-.3.9.2,1.1.5.4.8.4,1.4v4.2h-1.5v-3.9c0-.2,0-.4,0-.5s-.1-.3-.2-.4-.2-.1-.4-.1-.5,0-.7.2-.4.3-.5.5v4.3h-1.5ZM77.2,207.5v-3.9c0-.2,0-.4,0-.5s-.1-.3-.2-.4-.2-.1-.4-.1-.4,0-.6.2-.4.3-.5.4l-.2-.8c.2-.3.5-.5.8-.7s.7-.3,1.1-.3.9.2,1.1.5.4.8.4,1.5v4.1h-1.5Z"/>
      <path d="M82.6,207.6c-.6,0-1.1-.1-1.5-.4s-.7-.6-.9-1.1-.3-1-.3-1.7,0-1.2.3-1.7.5-.8.9-1.1.9-.4,1.4-.4,1.4.3,1.8.8.7,1.2.7,2.2c0,0,0,.1,0,.2s0,.2,0,.2h-3.6c0,.3,0,.6.1.9s.2.5.4.6.4.2.7.2.4,0,.5-.2.2-.3.3-.5h1.5c0,.4-.2.7-.4,1s-.5.4-.8.6-.7.2-1.2.2ZM81.4,203.9h2.1c0-.5-.1-.9-.3-1.1s-.4-.4-.7-.4-.6.1-.8.4-.3.6-.3,1.1Z"/>
      <path d="M86.3,207.5v-6h1.4v.9c.2-.2.4-.5.7-.7s.6-.3,1.1-.3.9.2,1.2.5.4.8.4,1.5v4.1h-1.5v-3.9c0-.2,0-.3,0-.5s-.1-.3-.2-.4-.2-.1-.4-.1-.5,0-.7.2-.4.3-.5.5v4.2h-1.5Z"/>
      <path d="M94.8,207.5c-.5,0-.9,0-1.2-.2s-.5-.3-.6-.6-.2-.7-.2-1.1v-2.9h-.8v-1.1h.8v-1.3h1.5v1.3h1.1v1.1h-1.1v2.9c0,.3,0,.5.1.7s.2.2.5.2h.5v1.1h-.5Z"/>
    </g>
  </g>
  <g class="st15">
    <g>
      <path class="st20" d="M14.3,224v-7.9h2.7c.5,0,.9,0,1.3.3s.7.5.9.8.3.8.3,1.4-.1,1-.3,1.4-.5.6-.9.8-.8.3-1.3.3h-1.2v2.9h-1.6ZM15.8,219.9h1c.3,0,.6-.1.8-.3s.3-.5.3-.9-.1-.8-.3-1-.5-.3-.8-.3h-1v2.5Z"/>
      <path class="st20" d="M22.1,224.1c-.3,0-.6,0-.8-.2s-.4-.3-.6-.6-.2-.6-.2-1,.1-.9.4-1.2.7-.5,1.2-.6,1.1-.2,1.7-.2v-.5c0-.4,0-.7-.2-.8s-.3-.2-.6-.2-.4,0-.6.2-.2.3-.2.6h-1.4c0-.6.3-1,.7-1.3s.9-.4,1.5-.4.6,0,.9,0,.5.2.7.3.3.4.4.6.2.6.2,1v4.1h-1.4v-.7c-.3.3-.5.5-.8.6s-.6.2-1,.2ZM22.6,223.1c.2,0,.4,0,.6-.2s.4-.3.5-.5v-1.3c-.7,0-1.1,0-1.4.3s-.4.5-.4.9,0,.5.2.6.3.2.5.2Z"/>
      <path class="st20" d="M26.7,224v-6h1.4v1c.2-.3.3-.6.6-.8s.6-.3.9-.3h.1v1.2h-.1c-.2,0-.4,0-.6,0s-.4.1-.5.2-.3.2-.4.4v4.2h-1.5Z"/>
      <path class="st20" d="M32.1,224.1c-.3,0-.6,0-.8-.2s-.4-.3-.6-.6-.2-.6-.2-1,.1-.9.4-1.2.7-.5,1.2-.6,1.1-.2,1.7-.2v-.5c0-.4,0-.7-.2-.8s-.3-.2-.6-.2-.4,0-.6.2-.2.3-.2.6h-1.4c0-.6.3-1,.7-1.3s.9-.4,1.5-.4.6,0,.9,0,.5.2.7.3.3.4.4.6.2.6.2,1v4.1h-1.4v-.7c-.3.3-.5.5-.8.6s-.6.2-1,.2ZM32.7,223.1c.2,0,.4,0,.6-.2s.4-.3.5-.5v-1.3c-.7,0-1.1,0-1.4.3s-.4.5-.4.9,0,.5.2.6.3.2.5.2Z"/>
      <path class="st20" d="M38.7,224c-.5,0-.9,0-1.2-.2s-.5-.3-.6-.6-.2-.6-.2-1.1v-6h1.5v5.9c0,.3,0,.5.1.6s.2.2.5.2h.3v1.1h-.4Z"/>
      <path class="st20" d="M42,224c-.5,0-.9,0-1.2-.2s-.5-.3-.6-.6-.2-.6-.2-1.1v-6h1.5v5.9c0,.3,0,.5.1.6s.2.2.5.2h.3v1.1h-.4Z"/>
      <path class="st20" d="M45.6,224.1c-.6,0-1.1-.1-1.5-.4s-.7-.6-.9-1.1-.3-1-.3-1.7,0-1.2.3-1.7.5-.8.9-1.1.9-.4,1.4-.4,1.4.3,1.8.8.7,1.2.7,2.2c0,0,0,.1,0,.2s0,.2,0,.2h-3.6c0,.3,0,.6.1.9s.2.5.4.6.4.2.7.2.4,0,.5-.2.2-.3.3-.5h1.5c0,.4-.2.7-.4,1s-.5.4-.8.6-.7.2-1.2.2ZM44.5,220.3h2.1c0-.5-.1-.9-.3-1.1s-.4-.4-.7-.4-.6.1-.8.4-.3.6-.3,1.1Z"/>
      <path class="st20" d="M51.3,224c-.5,0-.9,0-1.2-.2s-.5-.3-.6-.6-.2-.6-.2-1.1v-6h1.5v5.9c0,.3,0,.5.1.6s.2.2.5.2h.3v1.1h-.4Z"/>
      <path class="st20" d="M54.9,224v-7.9h2.7c.5,0,.9,0,1.3.3s.7.5.9.8.3.8.3,1.4-.1,1-.3,1.4-.5.6-.9.8-.8.3-1.3.3h-1.2v2.9h-1.6ZM56.4,219.9h1c.3,0,.6-.1.8-.3s.3-.5.3-.9-.1-.8-.3-1-.5-.3-.8-.3h-1v2.5Z"/>
      <path class="st20" d="M63.2,224c-.5,0-.9,0-1.2-.2s-.5-.3-.6-.6-.2-.6-.2-1.1v-6h1.5v5.9c0,.3,0,.5.1.6s.2.2.5.2h.3v1.1h-.4Z"/>
      <path class="st20" d="M65.9,224.1c-.3,0-.6,0-.8-.2s-.4-.3-.6-.6-.2-.6-.2-1,.1-.9.4-1.2.7-.5,1.2-.6,1.1-.2,1.7-.2v-.5c0-.4,0-.7-.2-.8s-.3-.2-.6-.2-.4,0-.6.2-.2.3-.2.6h-1.4c0-.6.3-1,.7-1.3s.9-.4,1.5-.4.6,0,.9,0,.5.2.7.3.3.4.4.6.2.6.2,1v4.1h-1.4v-.7c-.3.3-.5.5-.8.6s-.6.2-1,.2ZM66.4,223.1c.2,0,.4,0,.6-.2s.4-.3.5-.5v-1.3c-.7,0-1.1,0-1.4.3s-.4.5-.4.9,0,.5.2.6.3.2.5.2Z"/>
      <path class="st20" d="M70.5,224v-6h1.4v.9c.2-.2.4-.5.7-.7s.6-.3,1.1-.3.9.2,1.2.5.4.8.4,1.5v4.1h-1.5v-3.9c0-.2,0-.3,0-.5s-.1-.3-.2-.4-.2-.1-.4-.1-.5,0-.7.2-.4.3-.5.5v4.2h-1.5Z"/>
      <path class="st20" d="M78.9,224.1c-.3,0-.5,0-.8,0s-.5-.1-.7-.3-.4-.3-.5-.5-.2-.5-.2-.8h1.4c0,.3.1.4.3.5s.4.1.7.1.4,0,.6-.2.2-.3.2-.5,0-.5-.3-.6-.5-.3-.9-.4c-.3,0-.7-.2-.9-.4s-.5-.3-.7-.6-.2-.5-.2-.9,0-.6.2-.8.3-.4.5-.5.4-.2.7-.3.5,0,.8,0,.5,0,.7,0,.5.1.7.3.4.3.5.5.2.5.2.8h-1.4c0-.2,0-.4-.2-.5s-.3-.1-.5-.1-.4,0-.5.1-.2.3-.2.5,0,.2.1.3.2.2.4.2.4.1.7.2c.3,0,.6.2.8.3s.5.3.6.6.2.6.2,1-.1.8-.3,1.1-.5.5-.8.6-.7.2-1.1.2Z"/>
    </g>
  </g>
  <g class="st18">
    <g>
      <path class="st20" d="M17.4,240.5c-.7,0-1.4-.2-1.9-.5s-.9-.8-1.1-1.4-.4-1.3-.4-2.1.1-1.5.4-2.1.6-1.1,1.1-1.4,1.1-.5,1.9-.5,1.1.1,1.6.3.8.5,1.1.9.4.9.5,1.5h-1.6c0-.3-.1-.6-.3-.8s-.3-.4-.5-.5-.5-.2-.7-.2c-.4,0-.8.1-1.1.4s-.4.6-.6,1-.2.9-.2,1.4,0,1,.2,1.4.3.8.6,1,.6.4,1.1.4.8-.1,1.1-.4.4-.7.4-1.2h1.6c0,.6-.2,1.1-.4,1.6s-.6.8-1,1-1,.3-1.6.3Z"/>
      <path class="st20" d="M21.8,240.4v-6h1.4v1c.2-.3.3-.6.6-.8s.6-.3.9-.3h.1v1.2h-.1c-.2,0-.4,0-.6,0s-.4.1-.5.2-.3.2-.4.4v4.2h-1.5Z"/>
      <path class="st20" d="M28.2,240.5c-.6,0-1-.1-1.4-.4s-.7-.6-.9-1-.3-1-.3-1.7.1-1.2.3-1.7.5-.8.9-1.1.9-.4,1.4-.4,1,.1,1.4.4.7.6.9,1.1.3,1,.3,1.7-.1,1.2-.3,1.7-.5.8-.9,1-.9.4-1.4.4ZM28.2,239.4c.3,0,.5,0,.7-.3s.3-.4.3-.7,0-.6,0-1,0-.7,0-1-.2-.5-.3-.7-.4-.3-.7-.3-.5,0-.7.3-.3.4-.3.7,0,.6,0,1,0,.7,0,1,.2.5.3.7.4.3.7.3Z"/>
      <path class="st20" d="M34.1,240.5c-.3,0-.5,0-.8,0s-.5-.1-.7-.3-.4-.3-.5-.5-.2-.5-.2-.8h1.4c0,.3.1.4.3.5s.4.1.7.1.4,0,.6-.2.2-.3.2-.5,0-.5-.3-.6-.5-.3-.9-.4c-.3,0-.7-.2-.9-.4s-.5-.3-.7-.6-.2-.5-.2-.9,0-.6.2-.8.3-.4.5-.5.4-.2.7-.3.5,0,.8,0,.5,0,.7,0,.5.1.7.3.4.3.5.5.2.5.2.8h-1.4c0-.2,0-.4-.2-.5s-.3-.1-.5-.1-.4,0-.5.1-.2.3-.2.5,0,.2.1.3.2.2.4.2.4.1.7.2c.3,0,.6.2.8.3s.5.3.6.6.2.6.2,1-.1.8-.3,1.1-.5.5-.8.6-.7.2-1.1.2Z"/>
      <path class="st20" d="M39.6,240.5c-.3,0-.5,0-.8,0s-.5-.1-.7-.3-.4-.3-.5-.5-.2-.5-.2-.8h1.4c0,.3.1.4.3.5s.4.1.7.1.4,0,.6-.2.2-.3.2-.5,0-.5-.3-.6-.5-.3-.9-.4c-.3,0-.7-.2-.9-.4s-.5-.3-.7-.6-.2-.5-.2-.9,0-.6.2-.8.3-.4.5-.5.4-.2.7-.3.5,0,.8,0,.5,0,.7,0,.5.1.7.3.4.3.5.5.2.5.2.8h-1.4c0-.2,0-.4-.2-.5s-.3-.1-.5-.1-.4,0-.5.1-.2.3-.2.5,0,.2.1.3.2.2.4.2.4.1.7.2c.3,0,.6.2.8.3s.5.3.6.6.2.6.2,1-.1.8-.3,1.1-.5.5-.8.6-.7.2-1.1.2Z"/>
      <path class="st20" d="M42.8,238v-1.2h2.8v1.2h-2.8Z"/>
      <path class="st20" d="M49.3,240.5c-.6,0-1,0-1.5-.2s-.8-.4-1-.8-.4-.8-.4-1.4h1.6c0,.3,0,.5.2.7s.3.3.5.4.4.1.6.1.4,0,.6-.1.3-.2.4-.3.1-.3.1-.5,0-.4-.1-.6-.2-.3-.5-.4-.5-.2-.9-.4c-.5-.2-.9-.3-1.2-.5s-.6-.4-.8-.7-.3-.7-.3-1.2.1-.9.3-1.2.5-.5.9-.7.8-.2,1.3-.2.9,0,1.3.2.7.4.9.7.4.7.4,1.2h-1.6c0-.3-.1-.6-.3-.7s-.4-.2-.7-.2-.5,0-.7.2-.3.3-.3.6,0,.3.1.5.2.3.5.4.6.2,1,.4c.5.2.9.4,1.3.6s.6.5.8.8.3.7.3,1.2-.1.9-.3,1.3-.6.6-1,.8-.9.3-1.4.3Z"/>
      <path class="st20" d="M55.6,240.5c-.6,0-1.1-.1-1.5-.4s-.7-.6-.9-1.1-.3-1-.3-1.7,0-1.2.3-1.7.5-.8.9-1.1.9-.4,1.4-.4,1.4.3,1.8.8.7,1.2.7,2.2c0,0,0,.1,0,.2s0,.2,0,.2h-3.6c0,.3,0,.6.1.9s.2.5.4.6.4.2.7.2.4,0,.5-.2.2-.3.3-.5h1.5c0,.4-.2.7-.4,1s-.5.4-.8.6-.7.2-1.2.2ZM54.5,236.8h2.1c0-.5-.1-.9-.3-1.1s-.4-.4-.7-.4-.6.1-.8.4-.3.6-.3,1.1Z"/>
      <path class="st20" d="M61.4,240.5c-.3,0-.5,0-.8,0s-.5-.1-.7-.3-.4-.3-.5-.5-.2-.5-.2-.8h1.4c0,.3.1.4.3.5s.4.1.7.1.4,0,.6-.2.2-.3.2-.5,0-.5-.3-.6-.5-.3-.9-.4c-.3,0-.7-.2-.9-.4s-.5-.3-.7-.6-.2-.5-.2-.9,0-.6.2-.8.3-.4.5-.5.4-.2.7-.3.5,0,.8,0,.5,0,.7,0,.5.1.7.3.4.3.5.5.2.5.2.8h-1.4c0-.2,0-.4-.2-.5s-.3-.1-.5-.1-.4,0-.5.1-.2.3-.2.5,0,.2.1.3.2.2.4.2.4.1.7.2c.3,0,.6.2.8.3s.5.3.6.6.2.6.2,1-.1.8-.3,1.1-.5.5-.8.6-.7.2-1.1.2Z"/>
      <path class="st20" d="M66.9,240.5c-.3,0-.5,0-.8,0s-.5-.1-.7-.3-.4-.3-.5-.5-.2-.5-.2-.8h1.4c0,.3.1.4.3.5s.4.1.7.1.4,0,.6-.2.2-.3.2-.5,0-.5-.3-.6-.5-.3-.9-.4c-.3,0-.7-.2-.9-.4s-.5-.3-.7-.6-.2-.5-.2-.9,0-.6.2-.8.3-.4.5-.5.4-.2.7-.3.5,0,.8,0,.5,0,.7,0,.5.1.7.3.4.3.5.5.2.5.2.8h-1.4c0-.2,0-.4-.2-.5s-.3-.1-.5-.1-.4,0-.5.1-.2.3-.2.5,0,.2.1.3.2.2.4.2.4.1.7.2c.3,0,.6.2.8.3s.5.3.6.6.2.6.2,1-.1.8-.3,1.1-.5.5-.8.6-.7.2-1.1.2Z"/>
      <path class="st20" d="M71.2,233.8c-.3,0-.5,0-.6-.2s-.2-.3-.2-.5,0-.4.2-.5.3-.2.6-.2.5,0,.6.2.2.3.2.5,0,.4-.2.5-.3.2-.6.2ZM70.4,240.4v-6h1.5v6h-1.5Z"/>
      <path class="st20" d="M75.8,240.5c-.6,0-1-.1-1.4-.4s-.7-.6-.9-1-.3-1-.3-1.7.1-1.2.3-1.7.5-.8.9-1.1.9-.4,1.4-.4,1,.1,1.4.4.7.6.9,1.1.3,1,.3,1.7-.1,1.2-.3,1.7-.5.8-.9,1-.9.4-1.4.4ZM75.8,239.4c.3,0,.5,0,.7-.3s.3-.4.3-.7,0-.6,0-1,0-.7,0-1-.2-.5-.3-.7-.4-.3-.7-.3-.5,0-.7.3-.3.4-.3.7,0,.6,0,1,0,.7,0,1,.2.5.3.7.4.3.7.3Z"/>
      <path class="st20" d="M79.7,240.4v-6h1.4v.9c.2-.2.4-.5.7-.7s.6-.3,1.1-.3.9.2,1.2.5.4.8.4,1.5v4.1h-1.5v-3.9c0-.2,0-.3,0-.5s-.1-.3-.2-.4-.2-.1-.4-.1-.5,0-.7.2-.4.3-.5.5v4.2h-1.5Z"/>
      <path class="st20" d="M88.3,240.4v-7.9h2.7c.5,0,.9,0,1.3.3s.7.5.9.8.3.8.3,1.4-.1,1-.3,1.4-.5.6-.9.8-.8.3-1.3.3h-1.2v2.9h-1.6ZM89.8,236.3h1c.3,0,.6-.1.8-.3s.3-.5.3-.9-.1-.8-.3-1-.5-.3-.8-.3h-1v2.5Z"/>
      <path class="st20" d="M96.6,240.4c-.5,0-.9,0-1.2-.2s-.5-.3-.6-.6-.2-.6-.2-1.1v-6h1.5v5.9c0,.3,0,.5.1.6s.2.2.5.2h.3v1.1h-.4Z"/>
      <path class="st20" d="M99.3,240.5c-.3,0-.6,0-.8-.2s-.4-.3-.6-.6-.2-.6-.2-1,.1-.9.4-1.2.7-.5,1.2-.6,1.1-.2,1.7-.2v-.5c0-.4,0-.7-.2-.8s-.3-.2-.6-.2-.4,0-.6.2-.2.3-.2.6h-1.4c0-.6.3-1,.7-1.3s.9-.4,1.5-.4.6,0,.9,0,.5.2.7.3.3.4.4.6.2.6.2,1v4.1h-1.4v-.7c-.3.3-.5.5-.8.6s-.6.2-1,.2ZM99.8,239.6c.2,0,.4,0,.6-.2s.4-.3.5-.5v-1.3c-.7,0-1.1,0-1.4.3s-.4.5-.4.9,0,.5.2.6.3.2.5.2Z"/>
      <path class="st20" d="M103.9,240.4v-6h1.4v.9c.2-.2.4-.5.7-.7s.6-.3,1.1-.3.9.2,1.2.5.4.8.4,1.5v4.1h-1.5v-3.9c0-.2,0-.3,0-.5s-.1-.3-.2-.4-.2-.1-.4-.1-.5,0-.7.2-.4.3-.5.5v4.2h-1.5Z"/>
      <path class="st20" d="M112.3,240.5c-.3,0-.5,0-.8,0s-.5-.1-.7-.3-.4-.3-.5-.5-.2-.5-.2-.8h1.4c0,.3.1.4.3.5s.4.1.7.1.4,0,.6-.2.2-.3.2-.5,0-.5-.3-.6-.5-.3-.9-.4c-.3,0-.7-.2-.9-.4s-.5-.3-.7-.6-.2-.5-.2-.9,0-.6.2-.8.3-.4.5-.5.4-.2.7-.3.5,0,.8,0,.5,0,.7,0,.5.1.7.3.4.3.5.5.2.5.2.8h-1.4c0-.2,0-.4-.2-.5s-.3-.1-.5-.1-.4,0-.5.1-.2.3-.2.5,0,.2.1.3.2.2.4.2.4.1.7.2c.3,0,.6.2.8.3s.5.3.6.6.2.6.2,1-.1.8-.3,1.1-.5.5-.8.6-.7.2-1.1.2Z"/>
    </g>
  </g>
  <g class="st17">
    <g>
      <path class="st20" d="M17.1,257c-.7,0-1.2-.1-1.7-.3s-.8-.6-1-1-.3-1-.3-1.6v-5h1.6v5.1c0,.5,0,.9.3,1.2s.6.4,1.1.4.9-.1,1-.4.3-.7.3-1.2v-5.1h1.6v5c0,.6-.1,1.2-.3,1.6s-.5.8-.9,1-1,.3-1.7.3Z"/>
      <path class="st20" d="M23.6,256.9c-.3,0-.5,0-.8,0s-.5-.1-.7-.3-.4-.3-.5-.5-.2-.5-.2-.8h1.4c0,.3.1.4.3.5s.4.1.7.1.4,0,.6-.2.2-.3.2-.5,0-.5-.3-.6-.5-.3-.9-.4c-.3,0-.7-.2-.9-.4s-.5-.3-.7-.6-.2-.5-.2-.9,0-.6.2-.8.3-.4.5-.5.4-.2.7-.3.5,0,.8,0,.5,0,.7,0,.5.1.7.3.4.3.5.5.2.5.2.8h-1.4c0-.2,0-.4-.2-.5s-.3-.1-.5-.1-.4,0-.5.1-.2.3-.2.5,0,.2.1.3.2.2.4.2.4.1.7.2c.3,0,.6.2.8.3s.5.3.6.6.2.6.2,1-.1.8-.3,1.1-.5.5-.8.6-.7.2-1.1.2Z"/>
      <path class="st20" d="M29.5,256.9c-.6,0-1.1-.1-1.5-.4s-.7-.6-.9-1.1-.3-1-.3-1.7,0-1.2.3-1.7.5-.8.9-1.1.9-.4,1.4-.4,1.4.3,1.8.8.7,1.2.7,2.2c0,0,0,.1,0,.2s0,.2,0,.2h-3.6c0,.3,0,.6.1.9s.2.5.4.6.4.2.7.2.4,0,.5-.2.2-.3.3-.5h1.5c0,.4-.2.7-.4,1s-.5.4-.8.6-.7.2-1.2.2ZM28.4,253.2h2.1c0-.5-.1-.9-.3-1.1s-.4-.4-.7-.4-.6.1-.8.4-.3.6-.3,1.1Z"/>
      <path class="st20" d="M32.9,254.4v-1.2h2.8v1.2h-2.8Z"/>
      <path class="st20" d="M40.1,257c-.7,0-1.4-.2-1.9-.5s-.9-.8-1.1-1.4-.4-1.3-.4-2.1.1-1.5.4-2.1.6-1.1,1.1-1.4,1.1-.5,1.9-.5,1.1.1,1.6.3.8.5,1.1.9.4.9.5,1.5h-1.6c0-.3-.1-.6-.3-.8s-.3-.4-.5-.5-.5-.2-.7-.2c-.4,0-.8.1-1.1.4s-.4.6-.6,1-.2.9-.2,1.4,0,1,.2,1.4.3.8.6,1,.6.4,1.1.4.8-.1,1.1-.4.4-.7.4-1.2h1.6c0,.6-.2,1.1-.4,1.6s-.6.8-1,1-1,.3-1.6.3Z"/>
      <path class="st20" d="M45.9,256.9c-.3,0-.6,0-.8-.2s-.4-.3-.6-.6-.2-.6-.2-1,.1-.9.4-1.2.7-.5,1.2-.6,1.1-.2,1.7-.2v-.5c0-.4,0-.7-.2-.8s-.3-.2-.6-.2-.4,0-.6.2-.2.3-.2.6h-1.4c0-.6.3-1,.7-1.3s.9-.4,1.5-.4.6,0,.9,0,.5.2.7.3.3.4.4.6.2.6.2,1v4.1h-1.4v-.7c-.3.3-.5.5-.8.6s-.6.2-1,.2ZM46.4,256c.2,0,.4,0,.6-.2s.4-.3.5-.5v-1.3c-.7,0-1.1,0-1.4.3s-.4.5-.4.9,0,.5.2.6.3.2.5.2Z"/>
      <path class="st20" d="M52.5,256.9c-.3,0-.5,0-.8,0s-.5-.1-.7-.3-.4-.3-.5-.5-.2-.5-.2-.8h1.4c0,.3.1.4.3.5s.4.1.7.1.4,0,.6-.2.2-.3.2-.5,0-.5-.3-.6-.5-.3-.9-.4c-.3,0-.7-.2-.9-.4s-.5-.3-.7-.6-.2-.5-.2-.9,0-.6.2-.8.3-.4.5-.5.4-.2.7-.3.5,0,.8,0,.5,0,.7,0,.5.1.7.3.4.3.5.5.2.5.2.8h-1.4c0-.2,0-.4-.2-.5s-.3-.1-.5-.1-.4,0-.5.1-.2.3-.2.5,0,.2.1.3.2.2.4.2.4.1.7.2c.3,0,.6.2.8.3s.5.3.6.6.2.6.2,1-.1.8-.3,1.1-.5.5-.8.6-.7.2-1.1.2Z"/>
      <path class="st20" d="M58.4,256.9c-.6,0-1.1-.1-1.5-.4s-.7-.6-.9-1.1-.3-1-.3-1.7,0-1.2.3-1.7.5-.8.9-1.1.9-.4,1.4-.4,1.4.3,1.8.8.7,1.2.7,2.2c0,0,0,.1,0,.2s0,.2,0,.2h-3.6c0,.3,0,.6.1.9s.2.5.4.6.4.2.7.2.4,0,.5-.2.2-.3.3-.5h1.5c0,.4-.2.7-.4,1s-.5.4-.8.6-.7.2-1.2.2ZM57.2,253.2h2.1c0-.5-.1-.9-.3-1.1s-.4-.4-.7-.4-.6.1-.8.4-.3.6-.3,1.1Z"/>
      <path class="st20" d="M66.8,257c-.6,0-1,0-1.5-.2s-.8-.4-1-.8-.4-.8-.4-1.4h1.6c0,.3,0,.5.2.7s.3.3.5.4.4.1.6.1.4,0,.6-.1.3-.2.4-.3.1-.3.1-.5,0-.4-.1-.6-.2-.3-.5-.4-.5-.2-.9-.4c-.5-.2-.9-.3-1.2-.5s-.6-.4-.8-.7-.3-.7-.3-1.2.1-.9.3-1.2.5-.5.9-.7.8-.2,1.3-.2.9,0,1.3.2.7.4.9.7.4.7.4,1.2h-1.6c0-.3-.1-.6-.3-.7s-.4-.2-.7-.2-.5,0-.7.2-.3.3-.3.6,0,.3.1.5.2.3.5.4.6.2,1,.4c.5.2.9.4,1.3.6s.6.5.8.8.3.7.3,1.2-.1.9-.3,1.3-.6.6-1,.8-.9.3-1.4.3Z"/>
      <path class="st20" d="M73,256.9c-.5,0-.9,0-1.2-.2s-.5-.3-.6-.6-.2-.7-.2-1.1v-2.9h-.8v-1.1h.8v-1.3h1.5v1.3h1.1v1.1h-1.1v2.9c0,.3,0,.5.1.7s.2.2.5.2h.5v1.1h-.5Z"/>
      <path class="st20" d="M77,256.9c-.6,0-1.1-.1-1.5-.4s-.7-.6-.9-1.1-.3-1-.3-1.7,0-1.2.3-1.7.5-.8.9-1.1.9-.4,1.4-.4,1.4.3,1.8.8.7,1.2.7,2.2c0,0,0,.1,0,.2s0,.2,0,.2h-3.6c0,.3,0,.6.1.9s.2.5.4.6.4.2.7.2.4,0,.5-.2.2-.3.3-.5h1.5c0,.4-.2.7-.4,1s-.5.4-.8.6-.7.2-1.2.2ZM75.8,253.2h2.1c0-.5-.1-.9-.3-1.1s-.4-.4-.7-.4-.6.1-.8.4-.3.6-.3,1.1Z"/>
      <path class="st20" d="M83.1,256.9c-.6,0-1.1-.1-1.5-.4s-.7-.6-.9-1.1-.3-1-.3-1.7,0-1.2.3-1.7.5-.8.9-1.1.9-.4,1.4-.4,1.4.3,1.8.8.7,1.2.7,2.2c0,0,0,.1,0,.2s0,.2,0,.2h-3.6c0,.3,0,.6.1.9s.2.5.4.6.4.2.7.2.4,0,.5-.2.2-.3.3-.5h1.5c0,.4-.2.7-.4,1s-.5.4-.8.6-.7.2-1.2.2ZM81.9,253.2h2.1c0-.5-.1-.9-.3-1.1s-.4-.4-.7-.4-.6.1-.8.4-.3.6-.3,1.1Z"/>
      <path class="st20" d="M86.8,256.9v-6h1.4v1c.2-.3.3-.6.6-.8s.6-.3.9-.3h.1v1.2h-.1c-.2,0-.4,0-.6,0s-.4.1-.5.2-.3.2-.4.4v4.2h-1.5Z"/>
      <path class="st20" d="M91.6,250.3c-.3,0-.5,0-.6-.2s-.2-.3-.2-.5,0-.4.2-.5.3-.2.6-.2.5,0,.6.2.2.3.2.5,0,.4-.2.5-.3.2-.6.2ZM90.9,256.9v-6h1.5v6h-1.5Z"/>
      <path class="st20" d="M93.9,256.9v-6h1.4v.9c.2-.2.4-.5.7-.7s.6-.3,1.1-.3.9.2,1.2.5.4.8.4,1.5v4.1h-1.5v-3.9c0-.2,0-.3,0-.5s-.1-.3-.2-.4-.2-.1-.4-.1-.5,0-.7.2-.4.3-.5.5v4.2h-1.5Z"/>
      <path class="st20" d="M102.3,259.1c-.6,0-1.1,0-1.5-.2s-.6-.3-.8-.6-.2-.5-.2-.7.1-.7.4-.9.7-.4,1.3-.5l.2-.6h.8c.8,0,1.4.1,1.8.4s.6.7.6,1.3-.2,1-.7,1.3-1.1.5-2,.5ZM101.5,256.5c-.4,0-.7-.1-.9-.2s-.4-.2-.5-.4-.2-.3-.2-.5c0-.2,0-.4.3-.6s.4-.3.8-.5l.6.2c-.2,0-.3.1-.4.2s-.1.2-.1.3,0,.1.1.2.2,0,.4.1.4,0,.8,0l-.8,1ZM102.2,254.8c-.5,0-.9,0-1.2-.3s-.6-.4-.8-.7-.3-.6-.3-1,0-.7.3-1,.4-.5.8-.7.7-.3,1.2-.3.9,0,1.3.3.6.4.7.7.2.6.2,1,0,.7-.2,1-.4.5-.7.7-.7.3-1.3.3ZM102.3,258.1c.5,0,.8,0,1-.2s.3-.3.3-.6,0-.3-.1-.4-.2-.2-.4-.2-.4,0-.6,0h-.8c-.1,0-.2.2-.3.3s-.1.3-.1.4,0,.4.3.5.5.2.8.2ZM102.2,253.9c.3,0,.5,0,.6-.3s.2-.5.2-.8,0-.7-.2-.9-.4-.3-.6-.3-.5,0-.6.3-.2.5-.2.9,0,.7.3.8.4.3.6.3ZM103.6,251.6l-.3-.5c.1-.4.3-.6.6-.8s.6-.3,1-.3v1.1c-.3,0-.5,0-.8,0s-.4.2-.5.4Z"/>
    </g>
  </g>
  <g class="st10">
    <g>
      <path class="st20" d="M16.7,273.4c-.6,0-1,0-1.5-.2s-.8-.4-1-.8-.4-.8-.4-1.4h1.6c0,.3,0,.5.2.7s.3.3.5.4.4.1.6.1.4,0,.6-.1.3-.2.4-.3.1-.3.1-.5,0-.4-.1-.6-.2-.3-.5-.4-.5-.2-.9-.4c-.5-.2-.9-.3-1.2-.5s-.6-.4-.8-.7-.3-.7-.3-1.2.1-.9.3-1.2.5-.5.9-.7.8-.2,1.3-.2.9,0,1.3.2.7.4.9.7.4.7.4,1.2h-1.6c0-.3-.1-.6-.3-.7s-.4-.2-.7-.2-.5,0-.7.2-.3.3-.3.6,0,.3.1.5.2.3.5.4.6.2,1,.4c.5.2.9.4,1.3.6s.6.5.8.8.3.7.3,1.2-.1.9-.3,1.3-.6.6-1,.8-.9.3-1.4.3Z"/>
      <path class="st20" d="M23,273.4c-.6,0-1-.1-1.4-.4s-.7-.6-.9-1-.3-1-.3-1.7.1-1.2.3-1.7.5-.8.9-1.1.9-.4,1.4-.4,1,.1,1.4.4.7.6.9,1.1.3,1,.3,1.7-.1,1.2-.3,1.7-.5.8-.9,1-.9.4-1.4.4ZM23,272.3c.3,0,.5,0,.7-.3s.3-.4.3-.7,0-.6,0-1,0-.7,0-1-.2-.5-.3-.7-.4-.3-.7-.3-.5,0-.7.3-.3.4-.3.7,0,.6,0,1,0,.7,0,1,.2.5.3.7.4.3.7.3Z"/>
      <path class="st20" d="M28.9,273.3c-.5,0-.9,0-1.2-.2s-.5-.3-.6-.6-.2-.6-.2-1.1v-6h1.5v5.9c0,.3,0,.5.1.6s.2.2.5.2h.3v1.1h-.4Z"/>
      <path class="st20" d="M31.7,273.4c-.5,0-.9-.2-1.1-.5s-.4-.8-.4-1.4v-4.1h1.5v3.9c0,.2,0,.3,0,.5s.1.3.2.4.2.1.4.1c.2,0,.5,0,.7-.2s.4-.3.5-.5v-4.3h1.5v6h-1.4v-.9c-.2.2-.4.5-.7.7s-.7.3-1.1.3Z"/>
      <path class="st20" d="M38.6,273.3c-.5,0-.9,0-1.2-.2s-.5-.3-.6-.6-.2-.7-.2-1.1v-2.9h-.8v-1.1h.8v-1.3h1.5v1.3h1.1v1.1h-1.1v2.9c0,.3,0,.5.1.7s.2.2.5.2h.5v1.1h-.5Z"/>
      <path class="st20" d="M41,266.7c-.3,0-.5,0-.6-.2s-.2-.3-.2-.5,0-.4.2-.5.3-.2.6-.2.5,0,.6.2.2.3.2.5,0,.4-.2.5-.3.2-.6.2ZM40.2,273.3v-6h1.5v6h-1.5Z"/>
      <path class="st20" d="M45.6,273.4c-.6,0-1-.1-1.4-.4s-.7-.6-.9-1-.3-1-.3-1.7.1-1.2.3-1.7.5-.8.9-1.1.9-.4,1.4-.4,1,.1,1.4.4.7.6.9,1.1.3,1,.3,1.7-.1,1.2-.3,1.7-.5.8-.9,1-.9.4-1.4.4ZM45.6,272.3c.3,0,.5,0,.7-.3s.3-.4.3-.7,0-.6,0-1,0-.7,0-1-.2-.5-.3-.7-.4-.3-.7-.3-.5,0-.7.3-.3.4-.3.7,0,.6,0,1,0,.7,0,1,.2.5.3.7.4.3.7.3Z"/>
      <path class="st20" d="M49.5,273.3v-6h1.4v.9c.2-.2.4-.5.7-.7s.6-.3,1.1-.3.9.2,1.2.5.4.8.4,1.5v4.1h-1.5v-3.9c0-.2,0-.3,0-.5s-.1-.3-.2-.4-.2-.1-.4-.1-.5,0-.7.2-.4.3-.5.5v4.2h-1.5Z"/>
      <path class="st20" d="M57.2,273.3l2.5-7.9h1.6l2.5,7.9h-1.6l-.5-1.8h-2.4l-.5,1.8h-1.6ZM59.7,270.1h1.7l-.9-3.2-.8,3.2Z"/>
      <path class="st20" d="M64.6,275.4v-8.1h1.4v.9c.3-.3.5-.6.8-.7s.6-.2.9-.2.7.1,1,.3.5.6.7,1,.3,1.1.3,1.8,0,1.3-.3,1.7-.4.8-.7,1-.7.3-1,.3c-.3,0-.6,0-.9-.2s-.5-.4-.7-.7v2.9h-1.5ZM67.2,272.3c.3,0,.6-.2.7-.5s.2-.8.2-1.4,0-1.2-.2-1.5-.4-.5-.7-.5-.5,0-.7.3-.3.4-.4.6v2.3c.1.2.3.4.4.6s.4.2.7.2Z"/>
      <path class="st20" d="M70.9,275.4v-8.1h1.4v.9c.3-.3.5-.6.8-.7s.6-.2.9-.2.7.1,1,.3.5.6.7,1,.3,1.1.3,1.8,0,1.3-.3,1.7-.4.8-.7,1-.7.3-1,.3c-.3,0-.6,0-.9-.2s-.5-.4-.7-.7v2.9h-1.5ZM73.5,272.3c.3,0,.6-.2.7-.5s.2-.8.2-1.4,0-1.2-.2-1.5-.4-.5-.7-.5-.5,0-.7.3-.3.4-.4.6v2.3c.1.2.3.4.4.6s.4.2.7.2Z"/>
      <path class="st20" d="M77.3,273.3v-6h1.4v1c.2-.3.3-.6.6-.8s.6-.3.9-.3h.1v1.2h-.1c-.2,0-.4,0-.6,0s-.4.1-.5.2-.3.2-.4.4v4.2h-1.5Z"/>
      <path class="st20" d="M83.7,273.4c-.6,0-1-.1-1.4-.4s-.7-.6-.9-1-.3-1-.3-1.7.1-1.2.3-1.7.5-.8.9-1.1.9-.4,1.4-.4,1,.1,1.4.4.7.6.9,1.1.3,1,.3,1.7-.1,1.2-.3,1.7-.5.8-.9,1-.9.4-1.4.4ZM83.7,272.3c.3,0,.5,0,.7-.3s.3-.4.3-.7,0-.6,0-1,0-.7,0-1-.2-.5-.3-.7-.4-.3-.7-.3-.5,0-.7.3-.3.4-.3.7,0,.6,0,1,0,.7,0,1,.2.5.3.7.4.3.7.3Z"/>
      <path class="st20" d="M88.9,273.4c-.3,0-.6,0-.8-.2s-.4-.3-.6-.6-.2-.6-.2-1,.1-.9.4-1.2.7-.5,1.2-.6,1.1-.2,1.7-.2v-.5c0-.4,0-.7-.2-.8s-.3-.2-.6-.2-.4,0-.6.2-.2.3-.2.6h-1.4c0-.6.3-1,.7-1.3s.9-.4,1.5-.4.6,0,.9,0,.5.2.7.3.3.4.4.6.2.6.2,1v4.1h-1.4v-.7c-.3.3-.5.5-.8.6s-.6.2-1,.2ZM89.5,272.4c.2,0,.4,0,.6-.2s.4-.3.5-.5v-1.3c-.7,0-1.1,0-1.4.3s-.4.5-.4.9,0,.5.2.6.3.2.5.2Z"/>
      <path class="st20" d="M95.9,273.4c-.5,0-.9-.1-1.3-.3s-.7-.6-.9-1-.3-1-.3-1.8.1-1.3.3-1.7.5-.8.9-1,.8-.3,1.4-.3.8,0,1.1.2.6.3.8.6.3.6.4,1.1h-1.4c0-.2-.1-.4-.3-.6s-.4-.2-.6-.2-.7.2-.8.5-.2.8-.2,1.4,0,.7.1,1,.2.5.3.7.4.2.6.2.5,0,.7-.2.2-.4.3-.7h1.4c0,.7-.3,1.2-.7,1.5s-1,.5-1.6.5Z"/>
      <path class="st20" d="M99.5,273.3v-7.9h1.5v2.7c.2-.2.4-.5.7-.6s.6-.3,1.1-.3.9.2,1.2.5.4.8.4,1.5v4.2h-1.5v-4c0-.2,0-.3,0-.5s-.1-.3-.2-.4-.2-.1-.4-.1-.5,0-.7.2-.4.3-.5.5v4.3h-1.5Z"/>
      <path class="st20" d="M111.2,273.4c-.7,0-1.4-.2-1.9-.5s-.9-.8-1.1-1.4-.4-1.3-.4-2.1.1-1.5.4-2.1.6-1.1,1.1-1.4,1.1-.5,1.9-.5,1.1.1,1.6.3.8.5,1.1.9.4.9.5,1.5h-1.6c0-.3-.1-.6-.3-.8s-.3-.4-.5-.5-.5-.2-.7-.2c-.4,0-.8.1-1.1.4s-.4.6-.6,1-.2.9-.2,1.4,0,1,.2,1.4.3.8.6,1,.6.4,1.1.4.8-.1,1.1-.4.4-.7.4-1.2h1.6c0,.6-.2,1.1-.4,1.6s-.6.8-1,1-1,.3-1.6.3Z"/>
      <path class="st20" d="M115.6,273.3v-7.9h1.5v2.7c.2-.2.4-.5.7-.6s.6-.3,1.1-.3.9.2,1.2.5.4.8.4,1.5v4.2h-1.5v-4c0-.2,0-.3,0-.5s-.1-.3-.2-.4-.2-.1-.4-.1-.5,0-.7.2-.4.3-.5.5v4.3h-1.5Z"/>
      <path class="st20" d="M124.3,273.4c-.6,0-1-.1-1.4-.4s-.7-.6-.9-1-.3-1-.3-1.7.1-1.2.3-1.7.5-.8.9-1.1.9-.4,1.4-.4,1,.1,1.4.4.7.6.9,1.1.3,1,.3,1.7-.1,1.2-.3,1.7-.5.8-.9,1-.9.4-1.4.4ZM124.3,272.3c.3,0,.5,0,.7-.3s.3-.4.3-.7,0-.6,0-1,0-.7,0-1-.2-.5-.3-.7-.4-.3-.7-.3-.5,0-.7.3-.3.4-.3.7,0,.6,0,1,0,.7,0,1,.2.5.3.7.4.3.7.3Z"/>
      <path class="st20" d="M128.9,266.7c-.3,0-.5,0-.6-.2s-.2-.3-.2-.5,0-.4.2-.5.3-.2.6-.2.5,0,.6.2.2.3.2.5,0,.4-.2.5-.3.2-.6.2ZM128.2,273.3v-6h1.5v6h-1.5Z"/>
      <path class="st20" d="M133.5,273.4c-.5,0-.9-.1-1.3-.3s-.7-.6-.9-1-.3-1-.3-1.8.1-1.3.3-1.7.5-.8.9-1,.8-.3,1.4-.3.8,0,1.1.2.6.3.8.6.3.6.4,1.1h-1.4c0-.2-.1-.4-.3-.6s-.4-.2-.6-.2-.7.2-.8.5-.2.8-.2,1.4,0,.7.1,1,.2.5.3.7.4.2.6.2.5,0,.7-.2.2-.4.3-.7h1.4c0,.7-.3,1.2-.7,1.5s-1,.5-1.6.5Z"/>
      <path class="st20" d="M139.6,273.4c-.6,0-1.1-.1-1.5-.4s-.7-.6-.9-1.1-.3-1-.3-1.7,0-1.2.3-1.7.5-.8.9-1.1.9-.4,1.4-.4,1.4.3,1.8.8.7,1.2.7,2.2c0,0,0,.1,0,.2s0,.2,0,.2h-3.6c0,.3,0,.6.1.9s.2.5.4.6.4.2.7.2.4,0,.5-.2.2-.3.3-.5h1.5c0,.4-.2.7-.4,1s-.5.4-.8.6-.7.2-1.2.2ZM138.4,269.6h2.1c0-.5-.1-.9-.3-1.1s-.4-.4-.7-.4-.6.1-.8.4-.3.6-.3,1.1Z"/>
      <path class="st20" d="M145.3,273.4c-.3,0-.5,0-.8,0s-.5-.1-.7-.3-.4-.3-.5-.5-.2-.5-.2-.8h1.4c0,.3.1.4.3.5s.4.1.7.1.4,0,.6-.2.2-.3.2-.5,0-.5-.3-.6-.5-.3-.9-.4c-.3,0-.7-.2-.9-.4s-.5-.3-.7-.6-.2-.5-.2-.9,0-.6.2-.8.3-.4.5-.5.4-.2.7-.3.5,0,.8,0,.5,0,.7,0,.5.1.7.3.4.3.5.5.2.5.2.8h-1.4c0-.2,0-.4-.2-.5s-.3-.1-.5-.1-.4,0-.5.1-.2.3-.2.5,0,.2.1.3.2.2.4.2.4.1.7.2c.3,0,.6.2.8.3s.5.3.6.6.2.6.2,1-.1.8-.3,1.1-.5.5-.8.6-.7.2-1.1.2Z"/>
    </g>
  </g>
  <g class="st9">
    <line class="st3" x1="11.9" y1="161.7" x2="157" y2="161.7"/>
    <rect class="st23" x="11.9" y="161.7" width="145.2" height="1"/>
    <line class="st2" x1="157.1" y1="10.5" x2="157.1" y2="162.6"/>
    <rect class="st8" x="157.1" y="10.4" width="1" height="152.2"/>
    <line class="st2" x1="179.4" y1="11.5" x2="179.4" y2="162.6"/>
    <rect class="st8" x="179.3" y="11.4" width="1" height="151.2"/>
    <line class="st2" x1="200" y1="11.5" x2="200" y2="162.6"/>
    <rect class="st8" x="199.9" y="11.4" width="1" height="151.2"/>
    <line class="st2" x1="224.5" y1="11.5" x2="224.5" y2="162.6"/>
    <rect class="st8" x="224.4" y="11.4" width="1" height="151.2"/>
    <line class="st2" x1="248.2" y1="11.5" x2="248.2" y2="162.6"/>
    <rect class="st8" x="248.2" y="11.4" width="1" height="151.2"/>
    <line class="st3" x1="11.9" y1="178.2" x2="158" y2="178.2"/>
    <rect class="st23" x="11.9" y="178.1" width="146.2" height="1"/>
    <line class="st3" x1="11.9" y1="194.6" x2="158" y2="194.6"/>
    <rect class="st23" x="11.9" y="194.5" width="146.2" height="1"/>
    <line class="st3" x1="11.9" y1="211.1" x2="158" y2="211.1"/>
    <rect class="st23" x="11.9" y="211" width="146.2" height="1"/>
    <line class="st3" x1="11.9" y1="227.5" x2="158" y2="227.5"/>
    <rect class="st23" x="11.9" y="227.5" width="146.2" height="1"/>
    <line class="st3" x1="11.9" y1="244" x2="158" y2="244"/>
    <rect class="st23" x="11.9" y="243.9" width="146.2" height="1"/>
    <line class="st3" x1="11.9" y1="260.4" x2="158" y2="260.4"/>
    <rect class="st23" x="11.9" y="260.3" width="146.2" height="1"/>
    <line class="st3" x1="11.9" y1="276.8" x2="158" y2="276.8"/>
    <rect class="st23" x="11.9" y="276.8" width="146.2" height="1"/>
    <line class="st3" x1="157.1" y1="162.7" x2="157.1" y2="277.7"/>
    <rect class="st23" x="157.1" y="162.6" width="1" height="115.1"/>
    <line class="st1" x1="179.4" y1="162.7" x2="179.4" y2="277.7"/>
    <rect class="st5" x="179.3" y="162.6" width="1" height="115.1"/>
    <line class="st1" x1="200" y1="162.7" x2="200" y2="277.7"/>
    <rect class="st5" x="199.9" y="162.6" width="1" height="115.1"/>
    <line class="st1" x1="224.5" y1="162.7" x2="224.5" y2="277.7"/>
    <rect class="st5" x="224.4" y="162.6" width="1" height="115.1"/>
    <line class="st1" x1="248.2" y1="162.7" x2="248.2" y2="277.7"/>
    <rect class="st5" x="248.2" y="162.6" width="1" height="115.1"/>
    <line class="st3" x1="11" y1="161.7" x2="11" y2="277.7"/>
    <rect class="st23" x="10.9" y="161.7" width="1" height="116.1"/>
    <line class="st2" x1="158.1" y1="10.5" x2="249.1" y2="10.5"/>
    <rect class="st8" x="158.1" y="10.4" width="91.1" height="1"/>
    <line class="st2" x1="158.1" y1="161.7" x2="249.1" y2="161.7"/>
    <rect class="st8" x="158.1" y="161.7" width="91.1" height="1"/>
    <line class="st1" x1="158.1" y1="178.2" x2="249.1" y2="178.2"/>
    <rect class="st5" x="158.1" y="178.1" width="91.1" height="1"/>
    <line class="st1" x1="158.1" y1="194.6" x2="249.1" y2="194.6"/>
    <rect class="st5" x="158.1" y="194.5" width="91.1" height="1"/>
    <line class="st1" x1="158.1" y1="211.1" x2="249.1" y2="211.1"/>
    <rect class="st5" x="158.1" y="211" width="91.1" height="1"/>
    <line class="st1" x1="158.1" y1="227.5" x2="249.1" y2="227.5"/>
    <rect class="st5" x="158.1" y="227.5" width="91.1" height="1"/>
    <line class="st1" x1="158.1" y1="244" x2="249.1" y2="244"/>
    <rect class="st5" x="158.1" y="243.9" width="91.1" height="1"/>
    <line class="st1" x1="158.1" y1="260.4" x2="249.1" y2="260.4"/>
    <rect class="st5" x="158.1" y="260.3" width="91.1" height="1"/>
    <line class="st1" x1="158.1" y1="276.8" x2="249.1" y2="276.8"/>
    <rect class="st5" x="158.1" y="276.8" width="91.1" height="1"/>
  </g>
</svg>