<?xml version="1.0" encoding="UTF-8" standalone="no"?>
<!DOCTYPE svg PUBLIC "-//W3C//DTD SVG 1.1//EN" "http://www.w3.org/Graphics/SVG/1.1/DTD/svg11.dtd">
<svg xmlns:dc="http://purl.org/dc/elements/1.1/" xmlns="http://www.w3.org/2000/svg" version="1.1" xmlns:xl="http://www.w3.org/1999/xlink" viewBox="35.850395 9.383158 787.837 550.04205" width="787.837" height="550.04205">
  <defs>
    <marker orient="auto" overflow="visible" markerUnits="strokeWidth" id="FilledArrow_Marker" stroke-linejoin="miter" stroke-miterlimit="10" viewBox="-1 -3 6 6" markerWidth="6" markerHeight="6" color="#1067b2">
      <g>
        <path d="M 3.6 0 L 0 -1.35 L 0 1.35 Z" fill="currentColor" stroke="currentColor" stroke-width="1"/>
      </g>
    </marker>
    <marker orient="auto" overflow="visible" markerUnits="strokeWidth" id="FilledArrow_Marker_2" stroke-linejoin="miter" stroke-miterlimit="10" viewBox="-1 -3 6 6" markerWidth="6" markerHeight="6" color="#b31f19">
      <g>
        <path d="M 3.6 0 L 0 -1.35 L 0 1.35 Z" fill="currentColor" stroke="currentColor" stroke-width="1"/>
      </g>
    </marker>
    <marker orient="auto" overflow="visible" markerUnits="strokeWidth" id="FilledArrow_Marker_3" stroke-linejoin="miter" stroke-miterlimit="10" viewBox="-1 -3 6 6" markerWidth="6" markerHeight="6" color="#b26813">
      <g>
        <path d="M 3.6 0 L 0 -1.35 L 0 1.35 Z" fill="currentColor" stroke="currentColor" stroke-width="1"/>
      </g>
    </marker>
    <marker orient="auto" overflow="visible" markerUnits="strokeWidth" id="FilledArrow_Marker_4" stroke-linejoin="miter" stroke-miterlimit="10" viewBox="-5 -3 6 6" markerWidth="6" markerHeight="6" color="#b26813">
      <g>
        <path d="M -3.6 0 L 0 1.35 L 0 -1.35 Z" fill="currentColor" stroke="currentColor" stroke-width="1"/>
      </g>
    </marker>
    <marker orient="auto" overflow="visible" markerUnits="strokeWidth" id="FilledArrow_Marker_5" stroke-linejoin="miter" stroke-miterlimit="10" viewBox="-1 -3 6 6" markerWidth="6" markerHeight="6" color="black">
      <g>
        <path d="M 3.6 0 L 0 -1.35 L 0 1.35 Z" fill="currentColor" stroke="currentColor" stroke-width="1"/>
      </g>
    </marker>
  </defs>
  <g id="Canvas_1" fill="none" fill-opacity="1" stroke-opacity="1" stroke-dasharray="none" stroke="none">
    <title>Canvas 1</title>
    <g id="Canvas_1_Content">
      <title>Content</title>
      <g id="Graphic_799">
        <path d="M 103.52756 345.8268 L 716 345.8268 C 718.2092 345.8268 720 347.61764 720 349.8268 L 720 528.9134 C 720 531.12254 718.2092 532.9134 716 532.9134 L 103.52756 532.9134 C 101.31842 532.9134 99.52756 531.12254 99.52756 528.9134 L 99.52756 349.8268 C 99.52756 347.61764 101.31842 345.8268 103.52756 345.8268 Z" fill="#f5dbc1"/>
      </g>
      <g id="Graphic_798">
        <path d="M 103.52756 99.2126 L 716 99.2126 C 718.2092 99.2126 720 101.00346 720 103.2126 L 720 336.1575 C 720 338.36663 718.2092 340.1575 716 340.1575 L 103.52756 340.1575 C 101.31842 340.1575 99.52756 338.36663 99.52756 336.1575 L 99.52756 103.2126 C 99.52756 101.00346 101.31842 99.2126 103.52756 99.2126 Z" fill="#c0dbf5"/>
      </g>
      <g id="Group_774">
        <g id="Graphic_629">
          <path d="M 218.4252 232.44095 L 296.8504 232.44095 C 307.8961 232.44095 316.8504 241.39526 316.8504 252.44095 L 316.8504 257.79528 C 316.8504 268.84098 307.8961 277.79528 296.8504 277.79528 L 218.4252 277.79528 C 207.3795 277.79528 198.4252 268.84098 198.4252 257.79528 L 198.4252 252.44095 C 198.4252 241.39526 207.3795 232.44095 218.4252 232.44095 Z" fill="#929292"/>
        </g>
        <g id="Graphic_624">
          <rect x="226.77166" y="238.11024" width="61.92" height="29.200006" fill="#929292"/>
          <text transform="translate(231.77166 243.11024)" fill="white">
            <tspan font-family="Myriad Pro" font-size="16" fill="white" x="0" y="12" xml:space="preserve">SKETCH</tspan>
          </text>
        </g>
      </g>
      <g id="Group_767">
        <g id="Graphic_631">
          <path d="M 358.96064 110.55118 L 469.38584 110.55118 C 471.595 110.55118 473.38584 112.34205 473.38584 114.55118 L 473.38584 151.90552 C 473.38584 154.11466 471.595 155.90552 469.38584 155.90552 L 358.96064 155.90552 C 356.7515 155.90552 354.96064 154.11466 354.96064 151.90552 L 354.96064 114.55118 C 354.96064 112.34205 356.7515 110.55118 358.96064 110.55118 Z" fill="#368ddf"/>
        </g>
        <g id="Graphic_628">
          <text transform="translate(390.5118 126.88977)" fill="white">
            <tspan font-family="Myriad Pro" font-weight="bold" font-size="16" fill="white" x=".304" y="12" xml:space="preserve">analyse</tspan>
          </text>
        </g>
      </g>
      <g id="Line_639">
        <path d="M 354.96064 130.3937 L 153.07087 130.3937 L 153.07087 255.11812 L 187.9252 255.11812" marker-end="url(#FilledArrow_Marker)" stroke="#1067b2" stroke-linecap="round" stroke-linejoin="round" stroke-width="2"/>
      </g>
      <g id="Group_777">
        <g id="Graphic_725">
          <path d="M 530.23623 413.8583 L 608.6614 413.8583 C 619.7071 413.8583 628.6614 422.8126 628.6614 433.8583 L 628.6614 439.2126 C 628.6614 450.2583 619.7071 459.2126 608.6614 459.2126 L 530.23623 459.2126 C 519.19054 459.2126 510.23623 450.2583 510.23623 439.2126 L 510.23623 433.8583 C 510.23623 422.8126 519.19054 413.8583 530.23623 413.8583 Z" fill="#494949"/>
        </g>
        <g id="Graphic_726">
          <text transform="translate(537.9134 424.52757)" fill="white">
            <tspan font-family="Myriad Pro" font-size="16" fill="white" x="682121e-18" y="12" xml:space="preserve">ARTIFACT</tspan>
          </text>
        </g>
      </g>
      <g id="Group_768">
        <g id="Graphic_728">
          <path d="M 358.96064 177.47088 L 469.38584 177.47088 C 471.595 177.47088 473.38584 179.26174 473.38584 181.47088 L 473.38584 218.8252 C 473.38584 221.03435 471.595 222.8252 469.38584 222.8252 L 358.96064 222.8252 C 356.7515 222.8252 354.96064 221.03435 354.96064 218.8252 L 354.96064 181.47088 C 354.96064 179.26174 356.7515 177.47088 358.96064 177.47088 Z" fill="#1067b2"/>
        </g>
        <g id="Graphic_727">
          <text transform="translate(382.4217 193.80946)" fill="white">
            <tspan font-family="Myriad Pro" font-weight="bold" font-size="16" fill="white" x="8100187e-19" y="12" xml:space="preserve">elaborate</tspan>
          </text>
        </g>
      </g>
      <g id="Line_729">
        <path d="M 316.6429 250.2329 L 331.65355 250.2329 L 331.65355 197.3134 L 343.8307 197.3134" marker-end="url(#FilledArrow_Marker)" stroke="#1067b2" stroke-linecap="round" stroke-linejoin="round" stroke-width="2"/>
      </g>
      <g id="Group_769">
        <g id="Graphic_731">
          <path d="M 358.96064 231.32914 L 469.38584 231.32914 C 471.595 231.32914 473.38584 233.12 473.38584 235.32914 L 473.38584 272.68348 C 473.38584 274.8926 471.595 276.68348 469.38584 276.68348 L 358.96064 276.68348 C 356.7515 276.68348 354.96064 274.8926 354.96064 272.68348 L 354.96064 235.32914 C 354.96064 233.12 356.7515 231.32914 358.96064 231.32914 Z" fill="#1067b2"/>
        </g>
        <g id="Graphic_730">
          <text transform="translate(388.1897 247.66773)" fill="white">
            <tspan font-family="Myriad Pro" font-weight="bold" font-size="16" fill="white" x="7744916e-19" y="12" xml:space="preserve">refactor</tspan>
          </text>
        </g>
      </g>
      <g id="Line_734">
        <line x1="316.8504" y1="255.11812" x2="346.66536" y2="255.11812" marker-end="url(#FilledArrow_Marker)" stroke="#1067b2" stroke-linecap="round" stroke-linejoin="round" stroke-width="2"/>
      </g>
      <g id="Line_735">
        <path d="M 317.48032 260.7874 L 331.65355 260.7874 L 331.65355 306.14174 L 346.66536 306.14174" marker-end="url(#FilledArrow_Marker)" stroke="#1067b2" stroke-linecap="round" stroke-linejoin="round" stroke-width="2"/>
      </g>
      <g id="Group_775">
        <g id="Graphic_737">
          <path d="M 530.23623 232.44095 L 608.6614 232.44095 C 619.7071 232.44095 628.6614 241.39526 628.6614 252.44095 L 628.6614 257.79528 C 628.6614 268.84098 619.7071 277.79528 608.6614 277.79528 L 530.23623 277.79528 C 519.19054 277.79528 510.23623 268.84098 510.23623 257.79528 L 510.23623 252.44095 C 510.23623 241.39526 519.19054 232.44095 530.23623 232.44095 Z" fill="#929292"/>
        </g>
        <g id="Graphic_736">
          <text transform="translate(526.5748 243.11024)" fill="white">
            <tspan font-family="Myriad Pro" font-size="16" fill="white" x="0" y="12" xml:space="preserve">APPROACHES</tspan>
          </text>
        </g>
      </g>
      <g id="Line_738">
        <path d="M 473.38584 197.3134 L 490.3937 197.3134 L 490.3937 250.2329 L 499.73623 250.2329" marker-end="url(#FilledArrow_Marker)" stroke="#1067b2" stroke-linecap="round" stroke-linejoin="round" stroke-width="2"/>
      </g>
      <g id="Line_739">
        <line x1="473.38584" y1="255.11812" x2="499.73623" y2="255.11812" marker-end="url(#FilledArrow_Marker)" stroke="#1067b2" stroke-linecap="round" stroke-linejoin="round" stroke-width="2"/>
      </g>
      <g id="Line_740">
        <path d="M 473.38584 306.14174 L 490.3937 306.14174 L 490.3937 260.7874 L 499.73623 260.7874" marker-end="url(#FilledArrow_Marker)" stroke="#1067b2" stroke-linecap="round" stroke-linejoin="round" stroke-width="2"/>
      </g>
      <g id="Group_776">
        <g id="Graphic_742">
          <path d="M 218.4252 411.02363 L 296.8504 411.02363 C 307.8961 411.02363 316.8504 419.97794 316.8504 431.02363 L 316.8504 436.37797 C 316.8504 447.42366 307.8961 456.37797 296.8504 456.37797 L 218.4252 456.37797 C 207.3795 456.37797 198.4252 447.42366 198.4252 436.37797 L 198.4252 431.02363 C 198.4252 419.97794 207.3795 411.02363 218.4252 411.02363 Z" fill="#494949"/>
        </g>
        <g id="Graphic_741">
          <text transform="translate(240.4943 421.6929)" fill="white">
            <tspan font-family="Myriad Pro" font-size="16" fill="white" x="0" y="12" xml:space="preserve">TASK</tspan>
          </text>
        </g>
      </g>
      <g id="Line_743">
        <path d="M 628.6614 255.11812 L 643.4646 255.11812 L 643.4646 343.74345 L 170.07874 343.74345 L 170.07874 428.0315 L 187.9252 428.0315" marker-end="url(#FilledArrow_Marker_2)" stroke="#b31f19" stroke-linecap="round" stroke-linejoin="round" stroke-width="2"/>
      </g>
      <g id="Group_771">
        <g id="Graphic_749">
          <path d="M 358.96064 360.7841 L 469.38584 360.7841 C 471.595 360.7841 473.38584 362.57495 473.38584 364.7841 L 473.38584 402.1384 C 473.38584 404.34756 471.595 406.1384 469.38584 406.1384 L 358.96064 406.1384 C 356.7515 406.1384 354.96064 404.34756 354.96064 402.1384 L 354.96064 364.7841 C 354.96064 362.57495 356.7515 360.7841 358.96064 360.7841 Z" fill="#df8f37"/>
        </g>
        <g id="Graphic_748">
          <text transform="translate(401.9097 377.12267)" fill="white">
            <tspan font-family="Myriad Pro" font-weight="bold" font-size="16" fill="white" x="0" y="12" xml:space="preserve">edit</tspan>
          </text>
        </g>
      </g>
      <g id="Group_772">
        <g id="Graphic_747">
          <path d="M 358.96064 414.64236 L 469.38584 414.64236 C 471.595 414.64236 473.38584 416.4332 473.38584 418.64236 L 473.38584 455.9967 C 473.38584 458.20583 471.595 459.9967 469.38584 459.9967 L 358.96064 459.9967 C 356.7515 459.9967 354.96064 458.20583 354.96064 455.9967 L 354.96064 418.64236 C 354.96064 416.4332 356.7515 414.64236 358.96064 414.64236 Z" fill="#b26813"/>
        </g>
        <g id="Graphic_746">
          <text transform="translate(377.5897 430.98094)" fill="white">
            <tspan font-family="Myriad Pro" font-weight="bold" font-size="16" fill="white" x="0" y="12" xml:space="preserve">implement</tspan>
          </text>
        </g>
      </g>
      <g id="Group_773">
        <g id="Graphic_745">
          <path d="M 358.96064 468.5006 L 469.38584 468.5006 C 471.595 468.5006 473.38584 470.2915 473.38584 472.5006 L 473.38584 509.85496 C 473.38584 512.0641 471.595 513.85496 469.38584 513.85496 L 358.96064 513.85496 C 356.7515 513.85496 354.96064 512.0641 354.96064 509.85496 L 354.96064 472.5006 C 354.96064 470.2915 356.7515 468.5006 358.96064 468.5006 Z" fill="#df8f37"/>
        </g>
        <g id="Graphic_744">
          <text transform="translate(385.5097 484.8392)" fill="white">
            <tspan font-family="Myriad Pro" font-weight="bold" font-size="16" fill="white" x="0" y="12" xml:space="preserve">preflight</tspan>
          </text>
        </g>
      </g>
      <g id="Line_755">
        <line x1="473.38584" y1="439.3701" x2="499.73623" y2="439.3701" marker-end="url(#FilledArrow_Marker_3)" stroke="#b26813" stroke-linecap="round" stroke-linejoin="round" stroke-width="2"/>
      </g>
      <g id="Line_756">
        <path d="M 628.6614 439.3701 L 651.9685 439.3701 L 651.9685 130.3937 L 483.88584 130.3937" marker-end="url(#FilledArrow_Marker)" stroke="#1067b2" stroke-linecap="round" stroke-linejoin="round" stroke-width="2"/>
      </g>
      <g id="Group_770">
        <g id="Graphic_733">
          <path d="M 358.96064 285.1874 L 469.38584 285.1874 C 471.595 285.1874 473.38584 286.97827 473.38584 289.1874 L 473.38584 326.54175 C 473.38584 328.7509 471.595 330.54175 469.38584 330.54175 L 358.96064 330.54175 C 356.7515 330.54175 354.96064 328.7509 354.96064 326.54175 L 354.96064 289.1874 C 354.96064 286.97827 356.7515 285.1874 358.96064 285.1874 Z" fill="#1067b2"/>
        </g>
        <g id="Graphic_758">
          <text transform="translate(398.49357 299.80316)" fill="white">
            <tspan font-family="Myriad Pro" font-weight="bold" font-size="16" fill="white" x="6430412e-19" y="12" xml:space="preserve">craft</tspan>
          </text>
        </g>
      </g>
      <g id="Line_761">
        <path d="M 354.3307 496.063 L 153.07087 496.063 L 153.07087 443.31654 L 187.9252 443.31654" marker-end="url(#FilledArrow_Marker_3)" stroke="#b26813" stroke-linecap="round" stroke-linejoin="round" stroke-width="2"/>
      </g>
      <g id="Line_763">
        <path d="M 187.9252 422.3622 L 181.41733 422.3622 L 181.41733 371.3386 L 354.3307 371.3386" marker-start="url(#FilledArrow_Marker_4)" stroke="#b26813" stroke-linecap="round" stroke-linejoin="round" stroke-width="2"/>
      </g>
      <g id="Line_780">
        <path d="M 317.48032 432.76204 L 332.491 432.76204 L 332.491 379.84253 L 344.66815 379.84253" marker-end="url(#FilledArrow_Marker_3)" stroke="#b26813" stroke-linecap="round" stroke-linejoin="round" stroke-width="2"/>
      </g>
      <g id="Line_779">
        <line x1="317.68784" y1="437.64725" x2="347.5028" y2="437.64725" marker-end="url(#FilledArrow_Marker_3)" stroke="#b26813" stroke-linecap="round" stroke-linejoin="round" stroke-width="2"/>
      </g>
      <g id="Line_778">
        <path d="M 316.6429 443.31654 L 332.491 443.31654 L 332.491 488.6709 L 347.5028 488.6709" marker-end="url(#FilledArrow_Marker_3)" stroke="#b26813" stroke-linecap="round" stroke-linejoin="round" stroke-width="2"/>
      </g>
      <g id="Graphic_781">
        <text transform="translate(238.24195 261.99528)" fill="white">
          <tspan font-family="Myriad Pro" font-size="9" fill="white" x="0" y="7" xml:space="preserve">ephemeral</tspan>
        </text>
      </g>
      <g id="Graphic_782">
        <text transform="translate(550.053 261.99528)" fill="white">
          <tspan font-family="Myriad Pro" font-size="9" fill="white" x="0" y="7" xml:space="preserve">ephemeral</tspan>
        </text>
      </g>
      <g id="Graphic_783">
        <text transform="translate(240.2756 440.57796)" fill="white">
          <tspan font-family="Myriad Pro" font-size="9" fill="white" x="14566126e-20" y="7" xml:space="preserve">persistant</tspan>
        </text>
      </g>
      <g id="Graphic_784">
        <text transform="translate(552.0866 444.3701)" fill="white">
          <tspan font-family="Myriad Pro" font-size="9" fill="white" x="14566126e-20" y="7" xml:space="preserve">persistant</tspan>
        </text>
      </g>
      <g id="Line_785">
        <path d="M 138.89764 342.99214 L 153.07087 342.99214 L 153.07087 260.7874 L 187.9252 260.7874" marker-end="url(#FilledArrow_Marker_5)" stroke="black" stroke-linecap="round" stroke-linejoin="round" stroke-width="2"/>
      </g>
      <g id="Graphic_786">
        <circle cx="127.55906" cy="342.99214" r="11.338601110497" fill="black"/>
        <circle cx="127.55906" cy="342.99214" r="11.338601110497" stroke="black" stroke-linecap="round" stroke-linejoin="round" stroke-width="1"/>
      </g>
      <g id="Line_788">
        <path d="M 628.6614 445.0394 L 660.47246 445.0394 L 660.47246 344.71497 L 672.6496 344.71497" marker-end="url(#FilledArrow_Marker_5)" stroke="black" stroke-linecap="round" stroke-linejoin="round" stroke-width="2"/>
      </g>
      <g id="Group_791">
        <g id="Graphic_787">
          <circle cx="694.4882" cy="342.99214" r="11.3386011104969" stroke="black" stroke-linecap="round" stroke-linejoin="round" stroke-width="1"/>
        </g>
        <g id="Graphic_789">
          <circle cx="694.6334" cy="342.84696" r="7.08662569406062" fill="black"/>
          <circle cx="694.6334" cy="342.84696" r="7.08662569406062" stroke="black" stroke-linecap="round" stroke-linejoin="round" stroke-width="1"/>
        </g>
      </g>
      <g id="Line_790">
        <path d="M 138.89764 342.99214 L 153.07087 342.99214 L 153.07087 435.57796 L 187.9252 435.57796" marker-end="url(#FilledArrow_Marker_5)" stroke="black" stroke-linecap="round" stroke-linejoin="round" stroke-width="2"/>
      </g>
      <g id="Graphic_792">
        <text transform="translate(552.0866 330.98426)" fill="#b31f19">
          <tspan font-family="Myriad Pro" font-size="9" fill="#b31f19" x="0" y="7" xml:space="preserve">single choice selection</tspan>
        </text>
      </g>
      <g id="Line_793">
        <line x1="610.721" y1="257.91025" x2="617.6788" y2="257.91025" stroke="white" stroke-linecap="round" stroke-linejoin="round" stroke-width="1"/>
      </g>
      <g id="Line_794">
        <line x1="610.95146" y1="259.70323" x2="617.9093" y2="259.70323" stroke="white" stroke-linecap="round" stroke-linejoin="round" stroke-width="1"/>
      </g>
      <g id="Group_797">
        <g id="Graphic_796">
          <circle cx="297.6378" cy="425.19686" r="8.50395083287274" fill="white"/>
        </g>
        <g id="Graphic_795">
          <text transform="translate(293.92237 421.7771)" fill="black">
            <tspan font-family="Myriad Pro" font-size="9" fill="black" x="2184919e-19" y="7" xml:space="preserve">ID</tspan>
          </text>
        </g>
      </g>
      <g id="Graphic_800">
        <text transform="translate(115.55118 319.64568)" fill="black">
          <tspan font-family="Myriad Pro" font-size="9" fill="black" x="35171865e-20" y="7" xml:space="preserve">START</tspan>
        </text>
      </g>
      <g id="Graphic_801">
        <text transform="translate(685.5043 319.64568)" fill="black">
          <tspan font-family="Myriad Pro" font-size="9" fill="black" x="0" y="7" xml:space="preserve">END</tspan>
        </text>
      </g>
      <g id="Line_802">
        <path d="M 257.95276 456.37797 L 257.95276 489.563 C 264.45276 489.563 264.45276 502.563 257.95276 502.563 L 257.95276 520.463 L 665.9113 518.7402 L 665.9113 359.5714" marker-end="url(#FilledArrow_Marker_5)" stroke="black" stroke-linecap="round" stroke-linejoin="round" stroke-width="2"/>
      </g>
    </g>
  </g>
</svg>
