<?xml version="1.0" encoding="UTF-8"?>
<svg id="Layer_1" xmlns="http://www.w3.org/2000/svg" xmlns:xlink="http://www.w3.org/1999/xlink" version="1.1" viewBox="0 0 821 560">
  <!-- Generator: Adobe Illustrator 30.4.0, SVG Export Plug-In . SVG Version: 2.1.4 Build 226)  -->
  <defs>
    <style>
      .st0, .st1, .st2, .st3, .st4, .st5, .st6, .st7, .st8, .st9, .st10, .st11, .st12 {
        fill: none;
      }

      .st1, .st2, .st3, .st4, .st6, .st7, .st8, .st10, .st11, .st12 {
        stroke-width: 2px;
      }

      .st1, .st3, .st4, .st5, .st6, .st8, .st9 {
        stroke-linecap: round;
        stroke-linejoin: round;
      }

      .st1, .st12 {
        stroke: #b3201a;
      }

      .st13 {
        fill: #6d6d6d;
      }

      .st14 {
        fill: #dbdbdb;
      }

      .st2, .st3 {
        stroke: #6d6d6d;
      }

      .st2, .st7, .st10, .st11, .st12 {
        stroke-miterlimit: 10;
      }

      .st15 {
        fill: #c0daf5;
      }

      .st4, .st5, .st10 {
        stroke: #000;
      }

      .st16 {
        fill: #929292;
      }

      .st17 {
        fill: #f5dbc0;
      }

      .st18 {
        fill: #fff;
      }

      .st6, .st7 {
        stroke: #1167b2;
      }

      .st8, .st11 {
        stroke: #b26914;
      }

      .st9 {
        stroke: #fff;
      }

      .st19 {
        fill: #494949;
      }

      .st20 {
        fill: #df8f38;
      }

      .st21 {
        fill: #b26914;
      }

      .st22 {
        fill: #b26814;
      }

      .st23 {
        clip-path: url(#clippath);
      }

      .st24 {
        fill: #b3201a;
      }

      .st25 {
        fill: #1167b2;
      }
    </style>
    <clipPath id="clippath">
      <rect class="st0" width="821" height="560"/>
    </clipPath>
  </defs>
  <g class="st23">
    <rect class="st18" width="821" height="560"/>
    <rect class="st18" x="-7" y="-22" width="841.9" height="595.3"/>
    <rect class="st14" x="101" y="20.5" width="620.5" height="85" rx="4" ry="4"/>
    <path class="st14" d="M10.9.7h-6C2.7.7.9,2.6.9,4.9v549.9c0,2.4,1.8,4.3,4,4.3h812.1c2.2,0,4-1.9,4-4.3V4.9c0-2.4-1.8-4.3-4-4.3H10.9ZM98.5,15.8h624.7c2.2,0,4,1.9,4,4.3v468.4c0,2.4-1.8,4.3-4,4.3H98.5c-2.2,0-4-1.9-4-4.3V20c0-2.4,1.8-4.3,4-4.3Z"/>
    <rect class="st17" x="101.3" y="255.8" width="620.5" height="235.3" rx="4" ry="4"/>
    <rect class="st15" x="101" y="111.2" width="620.5" height="133.2" rx="4" ry="4"/>
    <path class="st16" d="M222.9,153.7h73.1c12.5,0,22.7,10.2,22.7,22.7s-10.2,22.7-22.7,22.7h-73.1c-12.5,0-22.7-10.2-22.7-22.7s10.2-22.7,22.7-22.7Z"/>
    <rect class="st16" x="228.6" y="159.4" width="61.9" height="29.2"/>
    <g>
      <path class="st18" d="M234.6,174.7c.6.4,1.5.7,2.5.7,1.4,0,2.3-.8,2.3-1.8s-.6-1.6-2-2.1c-1.8-.6-2.8-1.6-2.8-3.1s1.4-2.9,3.5-2.9,1.9.3,2.4.5l-.4,1.1c-.3-.2-1.1-.5-2-.5-1.5,0-2,.9-2,1.6s.7,1.5,2.1,2.1c1.8.7,2.7,1.6,2.7,3.2s-1.2,3.1-3.8,3.1-2.2-.3-2.8-.7l.4-1.2Z"/>
      <path class="st18" d="M242.7,165.6h1.4v5.2h0c.3-.4.6-.8.8-1.2l3.3-4h1.7l-3.9,4.6,4.2,6.2h-1.6l-3.5-5.3-1,1.2v4.1h-1.4v-10.8Z"/>
      <path class="st18" d="M256.9,171.4h-4.2v3.9h4.7v1.2h-6.1v-10.8h5.8v1.2h-4.4v3.4h4.2v1.2Z"/>
      <path class="st18" d="M261.5,166.8h-3.3v-1.2h8v1.2h-3.3v9.6h-1.4v-9.6Z"/>
      <path class="st18" d="M274.5,176.1c-.5.3-1.5.5-2.8.5-3,0-5.3-1.9-5.3-5.5s2.3-5.7,5.6-5.7,2.2.3,2.6.5l-.4,1.1c-.5-.3-1.3-.4-2.2-.4-2.5,0-4.2,1.6-4.2,4.5s1.5,4.3,4.1,4.3,1.7-.2,2.3-.4l.3,1.1Z"/>
      <path class="st18" d="M277.7,165.6v4.5h5.2v-4.5h1.4v10.8h-1.4v-5.1h-5.2v5.1h-1.4v-10.8h1.4Z"/>
    </g>
    <rect class="st13" x="356.5" y="65.9" width="118.4" height="34" rx="4" ry="4"/>
    <g>
      <path class="st18" d="M380.3,87.4c-.3.2-1.1.5-2.3.5-2.2,0-3.7-1.6-3.7-3.9s1.7-4.1,4-4.1,1.7.3,2,.5l-.3.6c-.4-.2-1-.4-1.8-.4-2.1,0-3.1,1.6-3.1,3.4s1.3,3.3,3,3.3,1.5-.3,1.9-.4l.2.6Z"/>
      <path class="st18" d="M388.7,83.8c0,2.9-2,4.1-3.7,4.1s-3.5-1.6-3.5-4,1.7-4.1,3.6-4.1,3.6,1.6,3.6,3.9ZM382.2,83.9c0,1.9,1.2,3.4,2.8,3.4s2.9-1.4,2.9-3.4-.8-3.3-2.8-3.3-2.8,1.7-2.8,3.4Z"/>
      <path class="st18" d="M396.7,76.4v9.6c0,.6,0,1.2,0,1.8h-.7v-1.5h0c-.4.8-1.3,1.6-2.7,1.6s-3.3-1.6-3.3-3.9c0-2.6,1.6-4.2,3.5-4.2s2.2.7,2.5,1.4h0v-4.9h.8ZM396,83.1c0-.2,0-.5,0-.7-.3-1-1.2-1.9-2.4-1.9s-2.7,1.5-2.7,3.4.9,3.3,2.7,3.3,2.1-.7,2.5-2c0-.2,0-.4,0-.6v-1.5Z"/>
      <path class="st18" d="M399.4,83.8c0,2.4,1.3,3.4,2.9,3.4s1.7-.2,2.1-.4l.2.6c-.3.2-1.1.5-2.4.5-2.2,0-3.6-1.6-3.6-3.9s1.5-4.2,3.5-4.2,3,2.4,3,3.5,0,.3,0,.5h-5.7ZM404.3,83.2c0-1.1-.4-2.7-2.3-2.7s-2.4,1.5-2.6,2.7h4.9Z"/>
      <path class="st18" d="M410.5,83v.7h-3.8v-.7h3.8Z"/>
    </g>
    <g>
      <path class="st18" d="M418.1,85.9c0,.7,0,1.4.1,1.9h-1.8v-.9h-.2c-.5.6-1.3,1-2.3,1-1.6,0-2.4-1.1-2.4-2.3,0-2,1.7-3,4.6-2.9h0c0-.6-.2-1.5-1.6-1.5s-1.6.2-2.1.6l-.4-1.3c.6-.4,1.6-.7,2.8-.7,2.5,0,3.2,1.6,3.2,3.3v2.8ZM416.2,83.9c-1.4,0-2.7.3-2.7,1.5s.5,1.1,1.1,1.1,1.4-.5,1.6-1.1c0-.1,0-.3,0-.4v-1.1Z"/>
      <path class="st18" d="M420.2,82.3c0-.9,0-1.6,0-2.3h1.7v1.2h.1c.4-.6,1.2-1.3,2.5-1.3s2.8.9,2.8,3.3v4.6h-2v-4.4c0-1.1-.4-2-1.5-2s-1.3.6-1.5,1.2c0,.2,0,.4,0,.6v4.6h-2v-5.5Z"/>
      <path class="st18" d="M435.4,85.9c0,.7,0,1.4.1,1.9h-1.8v-.9h-.2c-.5.6-1.3,1-2.3,1-1.6,0-2.4-1.1-2.4-2.3,0-2,1.7-3,4.6-2.9h0c0-.6-.2-1.5-1.6-1.5s-1.6.2-2.1.6l-.4-1.3c.6-.4,1.6-.7,2.8-.7,2.5,0,3.2,1.6,3.2,3.3v2.8ZM433.4,83.9c-1.4,0-2.7.3-2.7,1.5s.5,1.1,1.1,1.1,1.4-.5,1.6-1.1c0-.1,0-.3,0-.4v-1.1Z"/>
      <path class="st18" d="M437.4,76.4h2v11.4h-2v-11.4Z"/>
      <path class="st18" d="M442.8,79.9l1.4,4.2c.2.5.3,1.1.4,1.5h0c.1-.4.3-1,.4-1.5l1.2-4.2h2.1l-2,5.3c-1.1,2.9-1.8,4.2-2.7,5-.8.7-1.6.9-2.1,1l-.4-1.6c.3,0,.7-.3,1.1-.5.4-.2.8-.7,1.1-1.2,0-.1.1-.3.1-.4s0-.2,0-.4l-2.9-7.2h2.2Z"/>
      <path class="st18" d="M449.3,85.9c.4.3,1.3.6,2,.6s1.2-.4,1.2-.9-.3-.8-1.3-1.1c-1.5-.5-2.1-1.3-2.1-2.3,0-1.4,1.1-2.4,2.9-2.4s1.6.2,2.1.5l-.4,1.4c-.3-.2-1-.4-1.6-.4s-1.1.4-1.1.8.4.7,1.4,1.1c1.4.5,2.1,1.2,2.1,2.4,0,1.4-1.1,2.4-3.2,2.4s-1.8-.2-2.4-.5l.4-1.4Z"/>
      <path class="st18" d="M457.4,84.4c0,1.4,1.1,2,2.4,2s1.6-.1,2.2-.4l.3,1.3c-.7.3-1.6.5-2.7.5-2.5,0-4-1.6-4-3.9s1.3-4.2,3.8-4.2,3.4,2.1,3.4,3.8,0,.7,0,.8h-5.2ZM460.9,83c0-.7-.3-1.9-1.6-1.9s-1.7,1.1-1.8,1.9h3.4Z"/>
    </g>
    <polyline class="st3" points="355.8 80 154.9 80 154.9 170.8 189.7 170.8"/>
    <polygon class="st13" points="196.9 170.8 189.7 168.1 189.7 173.5 196.9 170.8"/>
    <polygon class="st2" points="196.9 170.8 189.7 168.1 189.7 173.5 196.9 170.8"/>
    <path class="st19" d="M534.7,368.7h73.1c12.5,0,22.7,10.2,22.7,22.7s-10.2,22.7-22.7,22.7h-73.1c-12.5,0-22.7-10.2-22.7-22.7s10.2-22.7,22.7-22.7Z"/>
    <g>
      <path class="st18" d="M542.7,388l-1.1,3.4h-1.4l3.7-10.8h1.7l3.7,10.8h-1.5l-1.2-3.4h-3.8ZM546.2,386.9l-1.1-3.1c-.2-.7-.4-1.3-.6-2h0c-.2.6-.3,1.3-.5,2l-1.1,3.1h3.3Z"/>
      <path class="st18" d="M550.7,380.7c.7-.1,1.7-.2,2.7-.2,1.5,0,2.5.3,3.1.9.5.5.8,1.2.8,2.1,0,1.4-.9,2.4-2,2.7h0c.8.3,1.3,1.1,1.6,2.2.4,1.5.6,2.5.8,3h-1.4c-.2-.3-.4-1.2-.7-2.6-.3-1.5-.9-2-2.2-2.1h-1.3v4.7h-1.4v-10.6ZM552.1,385.6h1.4c1.5,0,2.4-.8,2.4-2s-1-2-2.5-2-1.1,0-1.4.1v3.9Z"/>
      <path class="st18" d="M561.5,381.8h-3.3v-1.2h8v1.2h-3.3v9.6h-1.4v-9.6Z"/>
      <path class="st18" d="M568.8,380.6v10.8h-1.4v-10.8h1.4Z"/>
      <path class="st18" d="M571.2,380.6h5.8v1.2h-4.4v3.6h4.1v1.2h-4.1v4.9h-1.4v-10.8Z"/>
      <path class="st18" d="M579.5,388l-1.1,3.4h-1.4l3.7-10.8h1.7l3.7,10.8h-1.5l-1.2-3.4h-3.8ZM583.1,386.9l-1.1-3.1c-.2-.7-.4-1.3-.6-2h0c-.2.6-.3,1.3-.5,2l-1.1,3.1h3.3Z"/>
      <path class="st18" d="M594.9,391c-.5.3-1.5.5-2.8.5-3,0-5.3-1.9-5.3-5.5s2.3-5.7,5.6-5.7,2.2.3,2.6.5l-.4,1.1c-.5-.3-1.3-.4-2.2-.4-2.5,0-4.2,1.6-4.2,4.4s1.5,4.3,4.1,4.3,1.7-.2,2.3-.4l.3,1.1Z"/>
      <path class="st18" d="M599.1,381.8h-3.3v-1.2h8v1.2h-3.3v9.6h-1.4v-9.6Z"/>
    </g>
    <rect class="st25" x="356.5" y="120.6" width="118.4" height="33.1" rx="4" ry="4"/>
    <g>
      <path class="st18" d="M380.1,141.6c-.3.2-1.1.5-2.3.5-2.2,0-3.7-1.6-3.7-3.9s1.7-4.1,4-4.1,1.7.3,2,.5l-.3.6c-.4-.2-1-.4-1.8-.4-2.1,0-3.1,1.6-3.1,3.4s1.3,3.3,3,3.3,1.5-.3,1.9-.4l.2.6Z"/>
      <path class="st18" d="M388.5,138c0,2.9-2,4.1-3.7,4.1s-3.5-1.6-3.5-4,1.7-4.1,3.6-4.1,3.6,1.6,3.6,3.9ZM382.1,138.1c0,1.9,1.2,3.4,2.8,3.4s2.9-1.4,2.9-3.4-.8-3.3-2.8-3.3-2.8,1.7-2.8,3.4Z"/>
      <path class="st18" d="M396.6,130.6v9.6c0,.6,0,1.2,0,1.8h-.7v-1.5h0c-.4.8-1.3,1.6-2.7,1.6s-3.3-1.6-3.3-3.9c0-2.6,1.6-4.2,3.5-4.2s2.2.7,2.5,1.4h0v-4.9h.8ZM395.8,137.3c0-.2,0-.5,0-.7-.3-1-1.2-1.9-2.4-1.9s-2.7,1.5-2.7,3.4.9,3.3,2.7,3.3,2.1-.7,2.5-2c0-.2,0-.4,0-.6v-1.5Z"/>
      <path class="st18" d="M399.3,138c0,2.4,1.3,3.4,2.9,3.4s1.7-.2,2.1-.4l.2.6c-.3.2-1.1.5-2.4.5-2.2,0-3.6-1.6-3.6-3.9s1.5-4.2,3.5-4.2,3,2.4,3,3.5,0,.3,0,.5h-5.7ZM404.2,137.4c0-1.1-.4-2.7-2.3-2.7s-2.4,1.5-2.6,2.7h4.9Z"/>
      <path class="st18" d="M410.3,137.2v.7h-3.8v-.7h3.8Z"/>
    </g>
    <g>
      <path class="st18" d="M411.9,136.6c0-1.1,0-1.8,0-2.5h1.7v1.5h.1c.4-1.1,1.3-1.6,2.1-1.6s.3,0,.5,0v1.8c-.2,0-.4,0-.6,0-.9,0-1.6.6-1.8,1.5,0,.2,0,.4,0,.6v4h-2v-5.3Z"/>
      <path class="st18" d="M418.8,138.6c0,1.4,1.1,2,2.4,2s1.6-.1,2.2-.4l.3,1.3c-.7.3-1.6.5-2.7.5-2.5,0-4-1.6-4-3.9s1.3-4.2,3.8-4.2,3.4,2.1,3.4,3.8,0,.7,0,.8h-5.2ZM422.2,137.2c0-.7-.3-1.9-1.6-1.9s-1.7,1.1-1.8,1.9h3.4Z"/>
      <path class="st18" d="M425.6,140.1c.4.3,1.3.6,2,.6s1.2-.4,1.2-.9-.3-.8-1.3-1.1c-1.5-.5-2.1-1.3-2.1-2.3,0-1.4,1.1-2.4,2.9-2.4s1.6.2,2.1.5l-.4,1.4c-.3-.2-1-.4-1.6-.4s-1.1.4-1.1.8.4.7,1.4,1.1c1.4.5,2.1,1.2,2.1,2.4,0,1.4-1.1,2.4-3.2,2.4s-1.8-.2-2.4-.5l.4-1.4Z"/>
      <path class="st18" d="M439.8,137.9c0,2.9-2,4.1-4,4.1s-3.9-1.5-3.9-4,1.7-4.1,4-4.1,3.9,1.6,3.9,4ZM433.9,138c0,1.5.8,2.6,1.9,2.6s1.9-1.1,1.9-2.7-.5-2.6-1.9-2.6-2,1.4-2,2.7Z"/>
      <path class="st18" d="M441.4,130.6h2v11.4h-2v-11.4Z"/>
      <path class="st18" d="M446.7,134.1l1.3,4c.2.7.4,1.3.5,2h0c.1-.6.3-1.2.5-2l1.2-4h2.1l-3,7.8h-1.9l-2.9-7.8h2.1Z"/>
      <path class="st18" d="M454.8,138.6c0,1.4,1.1,2,2.4,2s1.6-.1,2.2-.4l.3,1.3c-.7.3-1.6.5-2.7.5-2.5,0-4-1.6-4-3.9s1.3-4.2,3.8-4.2,3.4,2.1,3.4,3.8,0,.7,0,.8h-5.2ZM458.2,137.2c0-.7-.3-1.9-1.6-1.9s-1.7,1.1-1.8,1.9h3.4Z"/>
    </g>
    <polyline class="st6" points="318.4 171.5 333.4 171.5 333.4 139.6 345.3 139.6"/>
    <polygon class="st25" points="352.5 139.6 345.3 136.9 345.3 142.3 352.5 139.6"/>
    <polygon class="st7" points="352.5 139.6 345.3 136.9 345.3 142.3 352.5 139.6"/>
    <rect class="st25" x="356.5" y="159.9" width="118.4" height="33.1" rx="4" ry="4"/>
    <g>
      <path class="st18" d="M377.6,180.9c-.3.2-1.1.5-2.3.5-2.2,0-3.7-1.6-3.7-3.9s1.7-4.1,4-4.1,1.7.3,2,.5l-.3.6c-.4-.2-1-.4-1.8-.4-2.1,0-3.1,1.6-3.1,3.4s1.3,3.3,3,3.3,1.5-.3,1.9-.4l.2.6Z"/>
      <path class="st18" d="M386,177.3c0,2.9-2,4.1-3.7,4.1s-3.5-1.6-3.5-4,1.7-4.1,3.6-4.1,3.6,1.6,3.6,3.9ZM379.6,177.4c0,1.9,1.2,3.4,2.8,3.4s2.9-1.4,2.9-3.4-.8-3.3-2.8-3.3-2.8,1.7-2.8,3.4Z"/>
      <path class="st18" d="M394.1,169.8v9.6c0,.6,0,1.2,0,1.8h-.7v-1.5h0c-.4.8-1.3,1.6-2.7,1.6s-3.3-1.6-3.3-3.9c0-2.6,1.6-4.2,3.5-4.2s2.2.7,2.5,1.4h0v-4.9h.8ZM393.4,176.6c0-.2,0-.5,0-.7-.3-1-1.2-1.9-2.4-1.9s-2.7,1.5-2.7,3.4.9,3.3,2.7,3.3,2.1-.7,2.5-2c0-.2,0-.4,0-.6v-1.5Z"/>
      <path class="st18" d="M396.8,177.3c0,2.4,1.3,3.4,2.9,3.4s1.7-.2,2.1-.4l.2.6c-.3.2-1.1.5-2.4.5-2.2,0-3.6-1.6-3.6-3.9s1.5-4.2,3.5-4.2,3,2.4,3,3.5,0,.3,0,.5h-5.7ZM401.7,176.7c0-1.1-.4-2.7-2.3-2.7s-2.4,1.5-2.6,2.7h4.9Z"/>
      <path class="st18" d="M407.9,176.5v.7h-3.8v-.7h3.8Z"/>
    </g>
    <g>
      <path class="st18" d="M409.4,175.9c0-1.1,0-1.8,0-2.5h1.7v1.5h.1c.4-1.1,1.3-1.6,2.1-1.6s.3,0,.5,0v1.8c-.2,0-.4,0-.6,0-.9,0-1.6.6-1.8,1.5,0,.2,0,.4,0,.6v4h-2v-5.3Z"/>
      <path class="st18" d="M416.4,177.9c0,1.4,1.1,2,2.4,2s1.6-.1,2.2-.4l.3,1.3c-.7.3-1.6.5-2.7.5-2.5,0-4-1.6-4-3.9s1.3-4.2,3.8-4.2,3.4,2.1,3.4,3.8,0,.7,0,.8h-5.2ZM419.8,176.5c0-.7-.3-1.9-1.6-1.9s-1.7,1.1-1.8,1.9h3.4Z"/>
      <path class="st18" d="M423.4,181.2v-6.3h-1.1v-1.5h1.1v-.3c0-1,.3-2,.9-2.7.6-.5,1.3-.8,2-.8s.9,0,1.2.2v1.5c-.4,0-.6-.1-1-.1-1,0-1.3.8-1.3,1.8v.4h1.7v1.5h-1.7v6.3h-2Z"/>
      <path class="st18" d="M434.4,179.3c0,.7,0,1.4.1,1.9h-1.8v-.9h-.2c-.5.6-1.3,1-2.3,1-1.6,0-2.4-1.1-2.4-2.3,0-2,1.7-3,4.6-2.9h0c0-.6-.2-1.5-1.6-1.5s-1.6.2-2.1.6l-.4-1.3c.6-.4,1.6-.7,2.8-.7,2.5,0,3.2,1.6,3.2,3.3v2.8ZM432.5,177.4c-1.4,0-2.7.3-2.7,1.5s.5,1.1,1.1,1.1,1.4-.5,1.6-1.1c0-.1,0-.3,0-.4v-1.1Z"/>
      <path class="st18" d="M442.2,181c-.4.2-1.2.4-2.2.4-2.4,0-4-1.6-4-4s1.6-4.1,4.3-4.1,1.5.2,1.9.4l-.4,1.5c-.3-.2-.8-.3-1.5-.3-1.5,0-2.4,1.1-2.4,2.5,0,1.6,1,2.5,2.4,2.5s1.2-.1,1.6-.3l.3,1.5Z"/>
      <path class="st18" d="M446.1,171.4v2h1.9v1.5h-1.9v3.4c0,1,.3,1.4,1,1.4s.5,0,.8,0v1.5c-.3.1-.8.2-1.4.2s-1.3-.2-1.7-.6c-.4-.4-.6-1.2-.6-2.2v-3.7h-1.1v-1.5h1.1v-1.5l1.9-.5Z"/>
      <path class="st18" d="M456.8,177.2c0,2.9-2,4.1-4,4.1s-3.9-1.5-3.9-4,1.7-4.1,4-4.1,3.9,1.6,3.9,4ZM450.9,177.3c0,1.5.8,2.6,1.9,2.6s1.9-1.1,1.9-2.7-.5-2.6-1.9-2.6-2,1.4-2,2.7Z"/>
      <path class="st18" d="M458.4,175.9c0-1.1,0-1.8,0-2.5h1.7v1.5h.1c.4-1.1,1.3-1.6,2.1-1.6s.3,0,.5,0v1.8c-.2,0-.4,0-.6,0-.9,0-1.6.6-1.8,1.5,0,.2,0,.4,0,.6v4h-2v-5.3Z"/>
    </g>
    <line class="st6" x1="318.6" y1="176.4" x2="348.5" y2="176.4"/>
    <polygon class="st25" points="355.7 176.4 348.5 173.7 348.5 179.1 355.7 176.4"/>
    <polygon class="st7" points="355.7 176.4 348.5 173.7 348.5 179.1 355.7 176.4"/>
    <polyline class="st6" points="319.3 182.1 333.4 182.1 333.4 216.1 345.3 216.1"/>
    <polygon class="st25" points="352.5 216.1 345.3 213.4 345.3 218.8 352.5 216.1"/>
    <polygon class="st7" points="352.5 216.1 345.3 213.4 345.3 218.8 352.5 216.1"/>
    <path class="st16" d="M534.7,153.7h73.1c12.5,0,22.7,10.2,22.7,22.7s-10.2,22.7-22.7,22.7h-73.1c-12.5,0-22.7-10.2-22.7-22.7s10.2-22.7,22.7-22.7Z"/>
    <g>
      <path class="st18" d="M531.3,173l-1.1,3.4h-1.4l3.7-10.8h1.7l3.7,10.8h-1.5l-1.2-3.4h-3.8ZM534.9,171.9l-1.1-3.1c-.2-.7-.4-1.3-.6-2h0c-.2.6-.3,1.3-.5,2l-1.1,3.1h3.3Z"/>
      <path class="st18" d="M539.4,165.8c.7-.1,1.6-.2,2.7-.2s2.4.3,3,.9c.6.5.9,1.3.9,2.3s-.3,1.7-.8,2.3c-.8.8-1.9,1.2-3.3,1.2s-.8,0-1.1,0v4.3h-1.4v-10.7ZM540.8,171c.3,0,.7.1,1.2.1,1.7,0,2.7-.8,2.7-2.3s-1-2.1-2.5-2.1-1.1,0-1.3.1v4.2Z"/>
      <path class="st18" d="M547.9,165.8c.7-.1,1.6-.2,2.7-.2s2.4.3,3,.9c.6.5.9,1.3.9,2.3s-.3,1.7-.8,2.3c-.8.8-1.9,1.2-3.3,1.2s-.8,0-1.1,0v4.3h-1.4v-10.7ZM549.3,171c.3,0,.7.1,1.2.1,1.7,0,2.7-.8,2.7-2.3s-1-2.1-2.5-2.1-1.1,0-1.3.1v4.2Z"/>
      <path class="st18" d="M556.4,165.8c.7-.1,1.7-.2,2.7-.2,1.5,0,2.5.3,3.1.9.5.5.8,1.2.8,2.1,0,1.4-.9,2.4-2,2.7h0c.8.3,1.3,1.1,1.6,2.2.4,1.5.6,2.5.8,3h-1.4c-.2-.3-.4-1.2-.7-2.6-.3-1.5-.9-2-2.2-2.1h-1.3v4.7h-1.4v-10.6ZM557.8,170.7h1.4c1.5,0,2.4-.8,2.4-2s-1-2-2.5-2-1.1,0-1.4.1v3.9Z"/>
      <path class="st18" d="M574.3,170.9c0,3.7-2.3,5.7-5,5.7s-4.8-2.2-4.8-5.5,2.1-5.7,5-5.7,4.9,2.3,4.9,5.5ZM565.9,171.1c0,2.3,1.2,4.4,3.5,4.4s3.5-2,3.5-4.5-1.1-4.4-3.4-4.4-3.5,2.1-3.5,4.5Z"/>
      <path class="st18" d="M577.6,173l-1.1,3.4h-1.4l3.7-10.8h1.7l3.7,10.8h-1.5l-1.2-3.4h-3.8ZM581.1,171.9l-1.1-3.1c-.2-.7-.4-1.3-.6-2h0c-.2.6-.3,1.3-.5,2l-1.1,3.1h3.3Z"/>
      <path class="st18" d="M592.9,176.1c-.5.3-1.5.5-2.8.5-3,0-5.3-1.9-5.3-5.5s2.3-5.7,5.6-5.7,2.2.3,2.6.5l-.4,1.1c-.5-.3-1.3-.4-2.2-.4-2.5,0-4.2,1.6-4.2,4.5s1.5,4.3,4.1,4.3,1.7-.2,2.3-.4l.3,1.1Z"/>
      <path class="st18" d="M596.1,165.6v4.5h5.2v-4.5h1.4v10.8h-1.4v-5.1h-5.2v5.1h-1.4v-10.8h1.4Z"/>
      <path class="st18" d="M610.7,171.4h-4.2v3.9h4.7v1.2h-6.1v-10.8h5.8v1.2h-4.4v3.4h4.2v1.2Z"/>
      <path class="st18" d="M612.8,174.7c.6.4,1.5.7,2.5.7,1.4,0,2.3-.8,2.3-1.8s-.6-1.6-2-2.1c-1.8-.6-2.8-1.6-2.8-3.1s1.4-2.9,3.5-2.9,1.9.3,2.4.5l-.4,1.1c-.3-.2-1.1-.5-2-.5-1.5,0-2,.9-2,1.6s.7,1.5,2.1,2.1c1.8.7,2.7,1.6,2.7,3.2s-1.2,3.1-3.8,3.1-2.2-.3-2.8-.7l.4-1.2Z"/>
    </g>
    <polyline class="st6" points="474.9 139.6 491.9 139.6 492.2 171.5 501.5 171.5"/>
    <polygon class="st25" points="508.7 171.5 501.5 168.8 501.5 174.2 508.7 171.5"/>
    <polygon class="st7" points="508.7 171.5 501.5 168.8 501.5 174.2 508.7 171.5"/>
    <line class="st6" x1="475.2" y1="176.4" x2="501.5" y2="176.4"/>
    <polygon class="st25" points="508.7 176.4 501.5 173.7 501.5 179.1 508.7 176.4"/>
    <polygon class="st7" points="508.7 176.4 501.5 173.7 501.5 179.1 508.7 176.4"/>
    <polyline class="st6" points="474.9 216.1 491.9 216.1 491.9 182.1 501.2 182.1"/>
    <polygon class="st25" points="508.4 182.1 501.2 179.4 501.2 184.8 508.4 182.1"/>
    <polygon class="st7" points="508.4 182.1 501.2 179.4 501.2 184.8 508.4 182.1"/>
    <path class="st19" d="M222.9,365.9h73.1c12.5,0,22.7,10.2,22.7,22.7s-10.2,22.7-22.7,22.7h-73.1c-12.5,0-22.7-10.2-22.7-22.7s10.2-22.7,22.7-22.7Z"/>
    <g>
      <path class="st18" d="M245.5,378.9h-3.3v-1.2h8v1.2h-3.3v9.6h-1.4v-9.6Z"/>
      <path class="st18" d="M252,385.1l-1.1,3.4h-1.4l3.7-10.8h1.7l3.7,10.8h-1.5l-1.2-3.4h-3.8ZM255.6,384.1l-1.1-3.1c-.2-.7-.4-1.3-.6-2h0c-.2.6-.3,1.3-.5,2l-1.1,3.1h3.3Z"/>
      <path class="st18" d="M259.9,386.8c.6.4,1.5.7,2.5.7,1.4,0,2.3-.8,2.3-1.8s-.6-1.6-2-2.1c-1.8-.6-2.8-1.6-2.8-3.1s1.4-2.9,3.5-2.9,1.9.3,2.4.5l-.4,1.1c-.3-.2-1.1-.5-2-.5-1.5,0-2,.9-2,1.6s.7,1.5,2.1,2.1c1.8.7,2.7,1.6,2.7,3.2s-1.2,3.1-3.8,3.1-2.2-.3-2.8-.7l.4-1.2Z"/>
      <path class="st18" d="M267.9,377.7h1.4v5.2h0c.3-.4.6-.8.8-1.2l3.3-4h1.7l-3.9,4.6,4.2,6.2h-1.6l-3.5-5.3-1,1.2v4.1h-1.4v-10.8Z"/>
    </g>
    <polyline class="st1" points="630.2 176.4 645 176.4 645 250.1 171.6 250.1 171.6 386.2 189.7 386.2"/>
    <polygon class="st24" points="196.9 386.2 189.7 383.5 189.7 388.9 196.9 386.2"/>
    <polygon class="st12" points="196.9 386.2 189.7 383.5 189.7 388.9 196.9 386.2"/>
    <rect class="st21" x="355.8" y="300" width="118.4" height="29.5" rx="4" ry="4"/>
    <g>
      <path class="st18" d="M390.4,309.9v1.7h2.2v.6h-2.2v5c0,1,.3,1.6,1.1,1.6s.7,0,.9-.1v.6c-.2.1-.5.2-1,.2s-1-.2-1.3-.5c-.4-.4-.5-1.1-.5-1.8v-4.9h-1.3v-.6h1.3v-1.4l.8-.3Z"/>
      <path class="st18" d="M399.1,317.5c0,.6,0,1.2.1,1.8h-.7v-1.1h-.1c-.4.6-1.2,1.3-2.5,1.3s-2.3-1.1-2.3-2.1c0-1.8,1.6-2.8,4.7-2.8v-.2c0-.8-.1-2.3-2-2.3-.7,0-1.4.2-1.9.6l-.2-.6c.7-.5,1.6-.7,2.3-.7,2.2,0,2.7,1.7,2.7,3v3ZM398.3,315.2c-1.7,0-3.9.2-3.9,2s.7,1.6,1.5,1.6c1.3,0,2-.8,2.3-1.5,0-.2,0-.3,0-.5v-1.6Z"/>
      <path class="st18" d="M401.2,318.3c.4.3,1,.5,1.7.5,1.2,0,1.8-.7,1.8-1.5s-.5-1.3-1.6-1.7c-1.3-.5-2-1.2-2-2.1s.9-2.1,2.4-2.1,1.3.2,1.7.5l-.3.6c-.3-.2-.8-.5-1.5-.5s-1.5.6-1.5,1.3.5,1.2,1.6,1.6c1.2.5,2,1.1,2,2.3s-1,2.2-2.6,2.2-1.4-.2-2-.5l.3-.6Z"/>
      <path class="st18" d="M408.3,315.3h0c.2-.2.5-.6.7-.8l2.7-2.8h.9l-3.1,3.2,3.5,4.5h-.9l-3.1-4-.8.8v3.2h-.8v-11.4h.8v7.4Z"/>
      <path class="st18" d="M417.1,314.5v.7h-3.8v-.7h3.8Z"/>
    </g>
    <g>
      <path class="st18" d="M420,315.9c0,1.4,1.1,2,2.4,2s1.6-.1,2.2-.4l.3,1.3c-.7.3-1.6.5-2.7.5-2.5,0-4-1.6-4-3.9s1.3-4.2,3.8-4.2,3.4,2.1,3.4,3.8,0,.7,0,.8h-5.2ZM423.4,314.6c0-.7-.3-1.9-1.6-1.9s-1.7,1.1-1.8,1.9h3.4Z"/>
      <path class="st18" d="M434,307.9v9.2c0,.8,0,1.7,0,2.2h-1.7v-1.2h-.1c-.5.9-1.4,1.4-2.5,1.4-1.9,0-3.3-1.6-3.3-4,0-2.6,1.6-4.2,3.5-4.2s1.8.4,2.2,1h0v-4.4h2ZM432.1,314.7c0-.2,0-.4,0-.5-.2-.8-.8-1.4-1.7-1.4s-2,1.1-2,2.6.7,2.5,2,2.5,1.5-.5,1.7-1.4c0-.2,0-.4,0-.6v-1.2Z"/>
      <path class="st18" d="M438.2,309.3c0,.6-.4,1.1-1.1,1.1s-1.1-.5-1.1-1.1.4-1.1,1.1-1.1,1.1.5,1.1,1.1ZM436.1,319.3v-7.8h2v7.8h-2Z"/>
      <path class="st18" d="M442.5,309.5v2h1.9v1.5h-1.9v3.4c0,1,.3,1.4,1,1.4s.5,0,.8,0v1.5c-.3.1-.8.2-1.4.2s-1.3-.2-1.7-.6c-.4-.4-.6-1.2-.6-2.2v-3.7h-1.1v-1.5h1.1v-1.5l1.9-.5Z"/>
    </g>
    <rect class="st21" x="356.5" y="372.4" width="118.4" height="32.1" rx="4" ry="4"/>
    <g>
      <path class="st18" d="M366.7,383.8v1.7h2.2v.6h-2.2v5c0,1,.3,1.6,1.1,1.6s.7,0,.9-.1v.6c-.2.1-.5.2-1,.2s-1-.2-1.3-.5c-.4-.4-.5-1.1-.5-1.8v-4.9h-1.3v-.6h1.3v-1.4l.8-.3Z"/>
      <path class="st18" d="M375.4,391.4c0,.6,0,1.2.1,1.8h-.7v-1.1h-.1c-.4.6-1.2,1.3-2.5,1.3s-2.3-1.1-2.3-2.1c0-1.8,1.6-2.8,4.7-2.8v-.2c0-.8-.1-2.3-2-2.3-.7,0-1.4.2-1.9.6l-.2-.6c.7-.5,1.6-.7,2.3-.7,2.2,0,2.7,1.7,2.7,3v3ZM374.6,389.1c-1.7,0-3.9.2-3.9,2s.7,1.6,1.5,1.6c1.3,0,2-.8,2.3-1.5,0-.2,0-.3,0-.5v-1.6Z"/>
      <path class="st18" d="M377.5,392.2c.4.3,1,.5,1.7.5,1.2,0,1.8-.7,1.8-1.5s-.5-1.3-1.6-1.7c-1.3-.5-2-1.2-2-2.1s.9-2.1,2.4-2.1,1.3.2,1.7.5l-.3.6c-.3-.2-.8-.5-1.5-.5s-1.5.6-1.5,1.3.5,1.2,1.6,1.6c1.2.5,2,1.1,2,2.3s-1,2.2-2.6,2.2-1.4-.2-2-.5l.3-.6Z"/>
      <path class="st18" d="M384.6,389.2h0c.2-.2.5-.6.7-.8l2.7-2.8h.9l-3.1,3.2,3.5,4.5h-.9l-3.1-4-.8.8v3.2h-.8v-11.4h.8v7.4Z"/>
      <path class="st18" d="M393.4,388.5v.7h-3.8v-.7h3.8Z"/>
    </g>
    <g>
      <path class="st18" d="M397,383.2c0,.6-.4,1.1-1.1,1.1s-1.1-.5-1.1-1.1.4-1.1,1.1-1.1,1.1.5,1.1,1.1ZM394.9,393.2v-7.8h2v7.8h-2Z"/>
      <path class="st18" d="M399,387.7c0-.9,0-1.6,0-2.3h1.7v1.2h.1c.4-.6,1.1-1.3,2.4-1.3s1.8.6,2.2,1.4h0c.3-.4.6-.8.9-1,.4-.3.9-.5,1.6-.5,1.3,0,2.6.9,2.6,3.4v4.6h-1.9v-4.3c0-1.3-.4-2.1-1.4-2.1s-1.2.5-1.4,1c0,.2,0,.4,0,.7v4.7h-1.9v-4.5c0-1.1-.4-1.9-1.3-1.9s-1.2.6-1.4,1.1c0,.2,0,.4,0,.7v4.6h-1.9v-5.5Z"/>
      <path class="st18" d="M412.6,388c0-1,0-1.9,0-2.6h1.7v1.2h.1c.6-.9,1.5-1.4,2.7-1.4,1.8,0,3.3,1.5,3.3,4s-1.8,4.2-3.6,4.2-1.8-.4-2.2-1h0v4h-2v-8.4ZM414.5,389.9c0,.2,0,.4,0,.5.2.8.9,1.4,1.7,1.4,1.2,0,2-1,2-2.6s-.7-2.5-1.9-2.5-1.6.6-1.8,1.5c0,.2,0,.3,0,.5v1.2Z"/>
      <path class="st18" d="M421.9,381.8h2v11.4h-2v-11.4Z"/>
      <path class="st18" d="M427.4,389.9c0,1.4,1.1,2,2.4,2s1.6-.1,2.2-.4l.3,1.3c-.7.3-1.6.5-2.7.5-2.5,0-4-1.6-4-3.9s1.3-4.2,3.8-4.2,3.4,2.1,3.4,3.8,0,.7,0,.8h-5.2ZM430.9,388.5c0-.7-.3-1.9-1.6-1.9s-1.7,1.1-1.8,1.9h3.4Z"/>
      <path class="st18" d="M434.3,387.7c0-.9,0-1.6,0-2.3h1.7v1.2h.1c.4-.6,1.1-1.3,2.4-1.3s1.8.6,2.2,1.4h0c.3-.4.6-.8.9-1,.4-.3.9-.5,1.6-.5,1.3,0,2.6.9,2.6,3.4v4.6h-1.9v-4.3c0-1.3-.4-2.1-1.4-2.1s-1.2.5-1.4,1c0,.2,0,.4,0,.7v4.7h-1.9v-4.5c0-1.1-.4-1.9-1.3-1.9s-1.2.6-1.4,1.1c0,.2,0,.4,0,.7v4.6h-1.9v-5.5Z"/>
      <path class="st18" d="M449.3,389.9c0,1.4,1.1,2,2.4,2s1.6-.1,2.2-.4l.3,1.3c-.7.3-1.6.5-2.7.5-2.5,0-4-1.6-4-3.9s1.3-4.2,3.8-4.2,3.4,2.1,3.4,3.8,0,.7,0,.8h-5.2ZM452.7,388.5c0-.7-.3-1.9-1.6-1.9s-1.7,1.1-1.8,1.9h3.4Z"/>
      <path class="st18" d="M456.1,387.7c0-.9,0-1.6,0-2.3h1.7v1.2h.1c.4-.6,1.2-1.3,2.5-1.3s2.8.9,2.8,3.3v4.6h-2v-4.4c0-1.1-.4-2-1.5-2s-1.3.6-1.5,1.2c0,.2,0,.4,0,.6v4.6h-2v-5.5Z"/>
      <path class="st18" d="M467.5,383.4v2h1.9v1.5h-1.9v3.4c0,1,.3,1.4,1,1.4s.5,0,.8,0v1.5c-.3.1-.8.2-1.4.2s-1.3-.2-1.7-.6c-.4-.4-.6-1.2-.6-2.2v-3.7h-1.1v-1.5h1.1v-1.5l1.9-.5Z"/>
    </g>
    <rect class="st20" x="356.5" y="410.9" width="118.4" height="28.1" rx="4" ry="4"/>
    <g>
      <path class="st18" d="M374.6,420v1.7h2.2v.6h-2.2v5c0,1,.3,1.6,1.1,1.6s.7,0,.9-.1v.6c-.2.1-.5.2-1,.2s-1-.2-1.3-.5c-.4-.4-.5-1.1-.5-1.8v-4.8h-1.3v-.6h1.3v-1.4l.8-.3Z"/>
      <path class="st18" d="M383.3,427.6c0,.6,0,1.2.1,1.8h-.7v-1.1h-.1c-.4.6-1.2,1.3-2.5,1.3s-2.3-1.1-2.3-2.1c0-1.8,1.6-2.8,4.7-2.8v-.2c0-.8-.1-2.3-2-2.3-.7,0-1.4.2-1.9.6l-.2-.6c.7-.5,1.6-.7,2.3-.7,2.2,0,2.7,1.7,2.7,3v3ZM382.5,425.3c-1.7,0-3.9.2-3.9,2s.7,1.6,1.5,1.6c1.3,0,2-.8,2.3-1.5,0-.2,0-.3,0-.5v-1.6Z"/>
      <path class="st18" d="M385.4,428.4c.4.3,1,.5,1.7.5,1.2,0,1.8-.7,1.8-1.5s-.5-1.3-1.6-1.7c-1.3-.5-2-1.2-2-2.1s.9-2.1,2.4-2.1,1.3.2,1.7.5l-.3.6c-.3-.2-.8-.5-1.5-.5s-1.5.6-1.5,1.3.5,1.2,1.6,1.6c1.2.5,2,1.1,2,2.3s-1,2.2-2.6,2.2-1.4-.2-2-.5l.3-.6Z"/>
      <path class="st18" d="M392.5,425.4h0c.2-.2.5-.6.7-.8l2.7-2.8h.9l-3.1,3.2,3.5,4.5h-.9l-3.1-4-.8.8v3.2h-.8v-11.4h.8v7.4Z"/>
      <path class="st18" d="M401.3,424.7v.7h-3.8v-.7h3.8Z"/>
    </g>
    <g>
      <path class="st18" d="M402.8,424.2c0-1,0-1.9,0-2.6h1.7v1.2h.1c.6-.9,1.5-1.4,2.7-1.4,1.8,0,3.3,1.5,3.3,4s-1.8,4.2-3.6,4.2-1.8-.4-2.2-1h0v4h-2v-8.4ZM404.8,426.1c0,.2,0,.4,0,.5.2.8.9,1.4,1.7,1.4,1.2,0,2-1,2-2.6s-.7-2.5-1.9-2.5-1.6.6-1.8,1.5c0,.2,0,.3,0,.5v1.2Z"/>
      <path class="st18" d="M412.2,424.1c0-1.1,0-1.8,0-2.5h1.7v1.5h.1c.4-1.1,1.3-1.6,2.1-1.6s.3,0,.5,0v1.8c-.2,0-.4,0-.6,0-.9,0-1.6.6-1.8,1.5,0,.2,0,.4,0,.6v4h-2v-5.3Z"/>
      <path class="st18" d="M419.1,426c0,1.4,1.1,2,2.4,2s1.6-.1,2.2-.4l.3,1.3c-.7.3-1.6.5-2.7.5-2.5,0-4-1.6-4-3.9s1.3-4.2,3.8-4.2,3.4,2.1,3.4,3.8,0,.7,0,.8h-5.2ZM422.6,424.7c0-.7-.3-1.9-1.6-1.9s-1.7,1.1-1.8,1.9h3.4Z"/>
    </g>
    <path class="st18" d="M426.2,429.4v-6.3h-1.1v-1.5h1.1v-.3c0-1,.4-2,1.2-2.6.7-.6,1.6-.8,2.8-.8s2,.2,2.7.6v10.9h-2v-9.9c-.2-.1-.5-.2-1-.2-1.2,0-1.6.9-1.6,1.9v.4h1.6v1.5h-1.6v6.3h-2Z"/>
    <g>
      <path class="st18" d="M437,419.4c0,.6-.4,1.1-1.1,1.1s-1.1-.5-1.1-1.1.4-1.1,1.1-1.1,1.1.5,1.1,1.1ZM434.9,429.4v-7.8h2v7.8h-2Z"/>
      <path class="st18" d="M446.1,428.3c0,1.6-.3,2.8-1.2,3.5-.8.7-1.9.9-3,.9s-2-.2-2.7-.6l.4-1.5c.5.3,1.3.6,2.3.6s2.2-.7,2.2-2.4v-.7h0c-.4.7-1.2,1.2-2.3,1.2-1.9,0-3.3-1.6-3.3-3.8s1.7-4.1,3.5-4.1,1.9.6,2.3,1.2h0v-1h1.8c0,.5,0,1.2,0,2.2v4.4ZM444.1,424.7c0-.2,0-.4,0-.5-.2-.7-.8-1.3-1.6-1.3s-1.9,1-1.9,2.5.7,2.4,1.9,2.4,1.4-.5,1.6-1.2c0-.2,0-.5,0-.7v-1.3Z"/>
      <path class="st18" d="M448.2,418h2v4.6h0c.2-.4.6-.7,1-.9.4-.2.9-.4,1.4-.4,1.3,0,2.7.9,2.7,3.4v4.6h-2v-4.4c0-1.1-.4-2-1.5-2s-1.3.5-1.5,1.1c0,.2,0,.4,0,.6v4.7h-2v-11.4Z"/>
      <path class="st18" d="M459.5,419.6v2h1.9v1.5h-1.9v3.4c0,1,.3,1.4,1,1.4s.5,0,.8,0v1.5c-.3.1-.8.2-1.4.2s-1.3-.2-1.7-.6c-.4-.4-.6-1.2-.6-2.2v-3.7h-1.1v-1.5h1.1v-1.5l1.9-.5Z"/>
    </g>
    <line class="st8" x1="474.9" y1="390.4" x2="501.2" y2="390.4"/>
    <polygon class="st21" points="508.4 390.4 501.2 387.7 501.2 393.1 508.4 390.4"/>
    <polygon class="st11" points="508.4 390.4 501.2 387.7 501.2 393.1 508.4 390.4"/>
    <polyline class="st3" points="630.4 397.5 653.8 397.5 653.8 80 485.4 80"/>
    <polygon class="st13" points="478.2 80 485.4 82.7 485.4 77.3 478.2 80"/>
    <polygon class="st2" points="478.2 80 485.4 82.7 485.4 77.3 478.2 80"/>
    <rect class="st25" x="356.5" y="199.2" width="118.4" height="33.1" rx="4" ry="4"/>
    <g>
      <path class="st18" d="M387.9,218.9c-.3.2-1.1.5-2.3.5-2.2,0-3.7-1.6-3.7-3.9s1.7-4.1,4-4.1,1.7.3,2,.5l-.3.6c-.4-.2-1-.4-1.8-.4-2.1,0-3.1,1.6-3.1,3.4s1.3,3.3,3,3.3,1.5-.3,1.9-.4l.2.6Z"/>
      <path class="st18" d="M396.3,215.3c0,2.9-2,4.1-3.7,4.1s-3.5-1.6-3.5-4,1.7-4.1,3.6-4.1,3.6,1.6,3.6,3.9ZM389.9,215.4c0,1.9,1.2,3.4,2.8,3.4s2.9-1.4,2.9-3.4-.8-3.3-2.8-3.3-2.8,1.7-2.8,3.4Z"/>
      <path class="st18" d="M404.4,207.9v9.6c0,.6,0,1.2,0,1.8h-.7v-1.5h0c-.4.8-1.3,1.6-2.7,1.6s-3.3-1.6-3.3-3.9c0-2.6,1.6-4.2,3.5-4.2s2.2.7,2.5,1.4h0v-4.9h.8ZM403.7,214.6c0-.2,0-.5,0-.7-.3-1-1.2-1.9-2.4-1.9s-2.7,1.5-2.7,3.4.9,3.3,2.7,3.3,2.1-.7,2.5-2c0-.2,0-.4,0-.6v-1.5Z"/>
      <path class="st18" d="M407.1,215.3c0,2.4,1.3,3.4,2.9,3.4s1.7-.2,2.1-.4l.2.6c-.3.2-1.1.5-2.4.5-2.2,0-3.6-1.6-3.6-3.9s1.5-4.2,3.5-4.2,3,2.4,3,3.5,0,.3,0,.5h-5.7ZM412,214.7c0-1.1-.4-2.7-2.3-2.7s-2.4,1.5-2.6,2.7h4.9Z"/>
      <path class="st18" d="M418.2,214.5v.7h-3.8v-.7h3.8Z"/>
    </g>
    <g>
      <path class="st18" d="M425.4,219c-.4.2-1.2.4-2.2.4-2.4,0-4-1.6-4-4s1.6-4.1,4.3-4.1,1.5.2,1.9.4l-.4,1.5c-.3-.2-.8-.3-1.5-.3-1.5,0-2.4,1.1-2.4,2.5,0,1.6,1,2.5,2.4,2.5s1.2-.1,1.6-.3l.3,1.5Z"/>
      <path class="st18" d="M426.9,214c0-1.1,0-1.8,0-2.5h1.7v1.5h.1c.4-1.1,1.3-1.6,2.1-1.6s.3,0,.5,0v1.8c-.2,0-.4,0-.6,0-.9,0-1.6.6-1.8,1.5,0,.2,0,.4,0,.6v4h-2v-5.3Z"/>
      <path class="st18" d="M438.5,217.4c0,.7,0,1.4.1,1.9h-1.8v-.9h-.2c-.5.6-1.3,1-2.3,1-1.6,0-2.4-1.1-2.4-2.3,0-2,1.7-3,4.6-2.9h0c0-.6-.2-1.5-1.6-1.5s-1.6.2-2.1.6l-.4-1.3c.6-.4,1.6-.7,2.8-.7,2.5,0,3.2,1.6,3.2,3.3v2.8ZM436.6,215.4c-1.4,0-2.7.3-2.7,1.5s.5,1.1,1.1,1.1,1.4-.5,1.6-1.1c0-.1,0-.3,0-.4v-1.1Z"/>
      <path class="st18" d="M440.8,219.2v-6.3h-1.1v-1.5h1.1v-.3c0-1,.3-2,.9-2.7.6-.5,1.3-.8,2-.8s.9,0,1.2.2v1.5c-.4,0-.6-.1-1-.1-1,0-1.3.8-1.3,1.8v.4h1.7v1.5h-1.7v6.3h-2Z"/>
      <path class="st18" d="M448.2,209.4v2h1.9v1.5h-1.9v3.4c0,1,.3,1.4,1,1.4s.5,0,.8,0v1.5c-.3.1-.8.2-1.4.2s-1.3-.2-1.7-.6c-.4-.4-.6-1.2-.6-2.2v-3.7h-1.1v-1.5h1.1v-1.5l1.9-.5Z"/>
    </g>
    <polyline class="st8" points="345.3 459.9 330.3 459.9 330.3 406 323.8 406"/>
    <polygon class="st21" points="316.6 406 323.8 408.7 323.8 403.3 316.6 406"/>
    <polygon class="st11" points="316.6 406 323.8 408.7 323.8 403.3 316.6 406"/>
    <polygon class="st21" points="352.5 459.9 345.3 457.2 345.3 462.6 352.5 459.9"/>
    <polygon class="st11" points="352.5 459.9 345.3 457.2 345.3 462.6 352.5 459.9"/>
    <polyline class="st8" points="326 377.7 333.2 377.7 333.2 312.5 345.3 312.5"/>
    <polygon class="st21" points="352.5 312.5 345.3 309.8 345.3 315.2 352.5 312.5"/>
    <polygon class="st11" points="352.5 312.5 345.3 309.8 345.3 315.2 352.5 312.5"/>
    <polygon class="st21" points="318.8 377.7 326 380.4 326 375 318.8 377.7"/>
    <polygon class="st11" points="318.8 377.7 326 380.4 326 375 318.8 377.7"/>
    <polyline class="st8" points="329.5 386.2 338.8 386.2 338.8 349.3 345.3 349.3"/>
    <polygon class="st21" points="352.5 349.3 345.3 346.6 345.3 352 352.5 349.3"/>
    <polygon class="st11" points="352.5 349.3 345.3 346.6 345.3 352 352.5 349.3"/>
    <polygon class="st21" points="322.3 386.2 329.5 388.9 329.5 383.5 322.3 386.2"/>
    <polygon class="st11" points="322.3 386.2 329.5 388.9 329.5 383.5 322.3 386.2"/>
    <polyline class="st8" points="329.5 397.5 338.8 397.5 338.8 425.9 345.3 425.9"/>
    <polygon class="st21" points="352.5 425.9 345.3 423.2 345.3 428.6 352.5 425.9"/>
    <polygon class="st11" points="352.5 425.9 345.3 423.2 345.3 428.6 352.5 425.9"/>
    <polygon class="st21" points="322.3 397.5 329.5 400.2 329.5 394.8 322.3 397.5"/>
    <polygon class="st11" points="322.3 397.5 329.5 400.2 329.5 394.8 322.3 397.5"/>
    <g>
      <path class="st18" d="M223.7,188.1c0,1.4.7,1.9,1.6,1.9s1-.1,1.2-.2v.3c0,0-.5.3-1.3.3-1.2,0-2-.9-2-2.2s.8-2.3,1.9-2.3,1.7,1.3,1.7,2,0,.2,0,.3h-3.2ZM226.5,187.8c0-.6-.2-1.5-1.3-1.5s-1.4.8-1.4,1.5h2.7Z"/>
      <path class="st18" d="M228,187.4c0-.5,0-1,0-1.4h.4v.8h0c.3-.6.8-.9,1.6-.9,1.1,0,1.9.9,1.9,2.2s-.9,2.3-2,2.3-1.2-.3-1.5-.8h0v2.5h-.4v-4.7ZM228.5,188.6c0,.1,0,.2,0,.3.2.7.8,1.1,1.4,1.1,1,0,1.6-.8,1.6-2s-.5-1.8-1.5-1.8-1.2.4-1.4,1.1c0,.1,0,.3,0,.4v.8Z"/>
      <path class="st18" d="M233,183.9h.4v2.8h0c.1-.2.3-.5.6-.6.3-.2.5-.3.9-.3s1.5.2,1.5,1.8v2.6h-.4v-2.6c0-.8-.3-1.5-1.2-1.5s-1.1.4-1.3,1c0,.1,0,.3,0,.4v2.6h-.4v-6.4Z"/>
      <path class="st18" d="M237.9,188.1c0,1.4.7,1.9,1.6,1.9s1-.1,1.2-.2v.3c0,0-.5.3-1.3.3-1.2,0-2-.9-2-2.2s.8-2.3,1.9-2.3,1.7,1.3,1.7,2,0,.2,0,.3h-3.2ZM240.6,187.8c0-.6-.2-1.5-1.3-1.5s-1.4.8-1.4,1.5h2.7Z"/>
      <path class="st18" d="M242.2,187c0-.4,0-.7,0-1h.4v.8h0c.3-.5.7-.9,1.4-.9s1.1.4,1.2.9h0c.1-.3.3-.5.4-.6.3-.2.6-.4,1-.4s1.4.2,1.4,1.9v2.5h-.4v-2.5c0-1-.4-1.5-1.1-1.5s-1,.4-1.1.9c0,.1,0,.3,0,.4v2.8h-.4v-2.7c0-.8-.4-1.3-1.1-1.3s-1,.5-1.2,1c0,.1,0,.3,0,.4v2.7h-.4v-3.3Z"/>
      <path class="st18" d="M249.6,188.1c0,1.4.7,1.9,1.6,1.9s1-.1,1.2-.2v.3c0,0-.5.3-1.3.3-1.2,0-2-.9-2-2.2s.8-2.3,1.9-2.3,1.7,1.3,1.7,2,0,.2,0,.3h-3.2ZM252.4,187.8c0-.6-.2-1.5-1.3-1.5s-1.4.8-1.4,1.5h2.7Z"/>
      <path class="st18" d="M253.9,187.3c0-.4,0-.9,0-1.3h.4v.9h0c.2-.5.6-1,1.2-1s.1,0,.2,0v.4c0,0-.1,0-.2,0-.6,0-1,.5-1.1,1.2,0,.1,0,.3,0,.4v2.4h-.4v-3Z"/>
      <path class="st18" d="M259.3,189.3c0,.3,0,.7,0,1h-.4v-.6h0c-.2.3-.7.7-1.4.7s-1.3-.6-1.3-1.2c0-1,.9-1.6,2.6-1.6h0c0-.5,0-1.4-1.1-1.4-.4,0-.8,0-1.1.3v-.3c.3-.3.7-.4,1.1-.4,1.3,0,1.5.9,1.5,1.7v1.7ZM258.8,188c-.9,0-2.2.1-2.2,1.2s.4.9.9.9c.7,0,1.1-.4,1.3-.9,0,0,0-.2,0-.3v-.9Z"/>
      <path class="st18" d="M260.7,183.9h.4v6.4h-.4v-6.4Z"/>
      <path class="st18" d="M266.1,184c-.7.9-1.3,2.1-1.3,3.7s.5,2.7,1.3,3.7h-.4c-.6-.8-1.3-1.9-1.3-3.7s.6-2.9,1.3-3.7h.4Z"/>
      <path class="st18" d="M266.9,187.4c0-.5,0-1,0-1.4h.4v.8h0c.3-.6.8-.9,1.6-.9,1.1,0,1.9.9,1.9,2.2s-.9,2.3-2,2.3-1.2-.3-1.5-.8h0v2.5h-.4v-4.7ZM267.4,188.6c0,.1,0,.2,0,.3.2.7.8,1.1,1.4,1.1,1,0,1.6-.8,1.6-2s-.5-1.8-1.5-1.8-1.2.4-1.4,1.1c0,.1,0,.3,0,.4v.8Z"/>
      <path class="st18" d="M271.9,187.3c0-.4,0-.9,0-1.3h.4v.9h0c.2-.5.6-1,1.2-1s.1,0,.2,0v.4c0,0-.1,0-.2,0-.6,0-1,.5-1.1,1.2,0,.1,0,.3,0,.4v2.4h-.4v-3Z"/>
      <path class="st18" d="M278.2,188.1c0,1.6-1.1,2.3-2.1,2.3s-2-.9-2-2.2,1-2.3,2-2.3,2,.9,2,2.2ZM274.5,188.2c0,1.1.7,1.9,1.6,1.9s1.6-.8,1.6-1.9-.4-1.9-1.6-1.9-1.6,1-1.6,1.9Z"/>
      <path class="st18" d="M279.3,187c0-.4,0-.7,0-1h.4v.8h0c.3-.5.7-.9,1.4-.9s1.1.4,1.2.9h0c.1-.3.3-.5.4-.6.3-.2.6-.4,1-.4s1.4.2,1.4,1.9v2.5h-.4v-2.5c0-1-.4-1.5-1.1-1.5s-1,.4-1.1.9c0,.1,0,.3,0,.4v2.8h-.4v-2.7c0-.8-.4-1.3-1.1-1.3s-1,.5-1.2,1c0,.1,0,.3,0,.4v2.7h-.4v-3.3Z"/>
      <path class="st18" d="M286.6,187.4c0-.5,0-1,0-1.4h.4v.8h0c.3-.6.8-.9,1.6-.9,1.1,0,1.9.9,1.9,2.2s-.9,2.3-2,2.3-1.2-.3-1.5-.8h0v2.5h-.4v-4.7ZM287,188.6c0,.1,0,.2,0,.3.2.7.8,1.1,1.4,1.1,1,0,1.6-.8,1.6-2s-.5-1.8-1.5-1.8-1.2.4-1.4,1.1c0,.1,0,.3,0,.4v.8Z"/>
      <path class="st18" d="M292.2,185v1h1.2v.4h-1.2v2.8c0,.5.2.9.6.9s.4,0,.5,0v.3c0,0-.3.1-.5.1s-.6,0-.7-.3c-.2-.2-.3-.6-.3-1v-2.7h-.7v-.4h.7v-.8l.4-.2Z"/>
      <path class="st18" d="M293.8,191.4c.7-.9,1.3-2.1,1.3-3.7s-.5-2.7-1.3-3.7h.4c.6.8,1.3,1.9,1.3,3.7s-.6,2.9-1.3,3.7h-.4Z"/>
    </g>
    <g>
      <path class="st18" d="M541.4,188.1c0,1.4.7,1.9,1.6,1.9s1-.1,1.2-.2v.3c0,0-.5.3-1.3.3-1.2,0-2-.9-2-2.2s.8-2.3,1.9-2.3,1.7,1.3,1.7,2,0,.2,0,.3h-3.2ZM544.1,187.8c0-.6-.2-1.5-1.3-1.5s-1.4.8-1.4,1.5h2.7Z"/>
      <path class="st18" d="M545.7,187.4c0-.5,0-1,0-1.4h.4v.8h0c.3-.6.8-.9,1.6-.9,1.1,0,1.9.9,1.9,2.2s-.9,2.3-2,2.3-1.2-.3-1.5-.8h0v2.5h-.4v-4.7ZM546.1,188.6c0,.1,0,.2,0,.3.2.7.8,1.1,1.4,1.1,1,0,1.6-.8,1.6-2s-.5-1.8-1.5-1.8-1.2.4-1.4,1.1c0,.1,0,.3,0,.4v.8Z"/>
      <path class="st18" d="M550.6,183.9h.4v2.8h0c.1-.2.3-.5.6-.6.3-.2.5-.3.9-.3s1.5.2,1.5,1.8v2.6h-.4v-2.6c0-.8-.3-1.5-1.2-1.5s-1.1.4-1.3,1c0,.1,0,.3,0,.4v2.6h-.4v-6.4Z"/>
      <path class="st18" d="M555.5,188.1c0,1.4.7,1.9,1.6,1.9s1-.1,1.2-.2v.3c0,0-.5.3-1.3.3-1.2,0-2-.9-2-2.2s.8-2.3,1.9-2.3,1.7,1.3,1.7,2,0,.2,0,.3h-3.2ZM558.3,187.8c0-.6-.2-1.5-1.3-1.5s-1.4.8-1.4,1.5h2.7Z"/>
      <path class="st18" d="M559.8,187c0-.4,0-.7,0-1h.4v.8h0c.3-.5.7-.9,1.4-.9s1.1.4,1.2.9h0c.1-.3.3-.5.4-.6.3-.2.6-.4,1-.4s1.4.2,1.4,1.9v2.5h-.4v-2.5c0-1-.4-1.5-1.1-1.5s-1,.4-1.1.9c0,.1,0,.3,0,.4v2.8h-.4v-2.7c0-.8-.4-1.3-1.1-1.3s-1,.5-1.2,1c0,.1,0,.3,0,.4v2.7h-.4v-3.3Z"/>
      <path class="st18" d="M567.3,188.1c0,1.4.7,1.9,1.6,1.9s1-.1,1.2-.2v.3c0,0-.5.3-1.3.3-1.2,0-2-.9-2-2.2s.8-2.3,1.9-2.3,1.7,1.3,1.7,2,0,.2,0,.3h-3.2ZM570,187.8c0-.6-.2-1.5-1.3-1.5s-1.4.8-1.4,1.5h2.7Z"/>
      <path class="st18" d="M571.6,187.3c0-.4,0-.9,0-1.3h.4v.9h0c.2-.5.6-1,1.2-1s.1,0,.2,0v.4c0,0-.1,0-.2,0-.6,0-1,.5-1.1,1.2,0,.1,0,.3,0,.4v2.4h-.4v-3Z"/>
      <path class="st18" d="M576.9,189.3c0,.3,0,.7,0,1h-.4v-.6h0c-.2.3-.7.7-1.4.7s-1.3-.6-1.3-1.2c0-1,.9-1.6,2.6-1.6h0c0-.5,0-1.4-1.1-1.4-.4,0-.8,0-1.1.3v-.3c.3-.3.7-.4,1.1-.4,1.3,0,1.5.9,1.5,1.7v1.7ZM576.5,188c-.9,0-2.2.1-2.2,1.2s.4.9.9.9c.7,0,1.1-.4,1.3-.9,0,0,0-.2,0-.3v-.9Z"/>
      <path class="st18" d="M578.3,183.9h.4v6.4h-.4v-6.4Z"/>
      <path class="st18" d="M583.7,184c-.7.9-1.3,2.1-1.3,3.7s.5,2.7,1.3,3.7h-.4c-.6-.8-1.3-1.9-1.3-3.7s.6-2.9,1.3-3.7h.4Z"/>
      <path class="st18" d="M584.6,187.4c0-.5,0-1,0-1.4h.4v.8h0c.3-.6.8-.9,1.6-.9,1.1,0,1.9.9,1.9,2.2s-.9,2.3-2,2.3-1.2-.3-1.5-.8h0v2.5h-.4v-4.7ZM585,188.6c0,.1,0,.2,0,.3.2.7.8,1.1,1.4,1.1,1,0,1.6-.8,1.6-2s-.5-1.8-1.5-1.8-1.2.4-1.4,1.1c0,.1,0,.3,0,.4v.8Z"/>
      <path class="st18" d="M589.5,183.9h.4v6.4h-.4v-6.4Z"/>
      <path class="st18" d="M594.1,189.3c0,.3,0,.7,0,1h-.4v-.6h0c-.2.3-.7.7-1.4.7s-1.3-.6-1.3-1.2c0-1,.9-1.6,2.6-1.6h0c0-.5,0-1.4-1.1-1.4-.4,0-.8,0-1.1.3v-.3c.3-.3.7-.4,1.1-.4,1.3,0,1.5.9,1.5,1.7v1.7ZM593.7,188c-.9,0-2.2.1-2.2,1.2s.4.9.9.9c.7,0,1.1-.4,1.3-.9,0,0,0-.2,0-.3v-.9Z"/>
      <path class="st18" d="M595.5,187c0-.4,0-.7,0-1h.4v.8h0c.2-.5.8-.9,1.5-.9s1.5.2,1.5,1.8v2.6h-.4v-2.6c0-.8-.3-1.5-1.2-1.5s-1.1.4-1.3,1c0,.1,0,.3,0,.4v2.7h-.4v-3.3Z"/>
      <path class="st18" d="M599.7,191.4c.7-.9,1.3-2.1,1.3-3.7s-.5-2.7-1.3-3.7h.4c.6.8,1.3,1.9,1.3,3.7s-.6,2.9-1.3,3.7h-.4Z"/>
    </g>
    <g>
      <path class="st18" d="M242.8,399.5c0-.5,0-1,0-1.4h.4v.8h0c.3-.6.8-.9,1.6-.9,1.1,0,1.9.9,1.9,2.2s-.9,2.3-2,2.3-1.2-.3-1.5-.8h0v2.5h-.4v-4.7ZM243.2,400.7c0,.1,0,.2,0,.3.2.7.8,1.1,1.4,1.1,1,0,1.6-.8,1.6-2s-.5-1.8-1.5-1.8-1.2.4-1.4,1.1c0,.1,0,.3,0,.4v.8Z"/>
      <path class="st18" d="M247.8,400.2c0,1.4.7,1.9,1.6,1.9s1-.1,1.2-.2v.3c0,0-.5.3-1.3.3-1.2,0-2-.9-2-2.2s.8-2.3,1.9-2.3,1.7,1.3,1.7,2,0,.2,0,.3h-3.2ZM250.6,399.9c0-.6-.2-1.5-1.3-1.5s-1.4.8-1.4,1.5h2.7Z"/>
      <path class="st18" d="M252.1,399.4c0-.4,0-.9,0-1.3h.4v.9h0c.2-.5.6-1,1.2-1s.1,0,.2,0v.4c0,0-.1,0-.2,0-.6,0-1,.5-1.1,1.2,0,.1,0,.3,0,.4v2.4h-.4v-3Z"/>
      <path class="st18" d="M254.6,401.9c.2.1.6.3,1,.3.7,0,1-.4,1-.8s-.3-.7-.9-1c-.7-.3-1.1-.7-1.1-1.2s.5-1.2,1.3-1.2.7.1,1,.3l-.2.4c-.2-.1-.4-.3-.9-.3s-.8.4-.8.7.3.6.9.9c.7.3,1.1.6,1.1,1.3s-.6,1.2-1.5,1.2-.8-.1-1.1-.3l.2-.4Z"/>
      <path class="st18" d="M258.7,396.9c0,.2-.1.4-.4.4s-.3-.2-.3-.4.2-.4.4-.4.3.2.3.4ZM258.1,402.4v-4.3h.4v4.3h-.4Z"/>
      <path class="st18" d="M259.8,401.9c.2.1.6.3,1,.3.7,0,1-.4,1-.8s-.3-.7-.9-1c-.7-.3-1.1-.7-1.1-1.2s.5-1.2,1.3-1.2.7.1,1,.3l-.2.4c-.2-.1-.4-.3-.9-.3s-.8.4-.8.7.3.6.9.9c.7.3,1.1.6,1.1,1.3s-.6,1.2-1.5,1.2-.8-.1-1.1-.3l.2-.4Z"/>
      <path class="st18" d="M264,397.1v1h1.2v.4h-1.2v2.8c0,.5.2.9.6.9s.4,0,.5,0v.3c0,0-.3.1-.5.1s-.6,0-.7-.3c-.2-.2-.3-.6-.3-1v-2.7h-.7v-.4h.7v-.8l.4-.2Z"/>
      <path class="st18" d="M268.8,401.4c0,.3,0,.7,0,1h-.4v-.6h0c-.2.3-.7.7-1.4.7s-1.3-.6-1.3-1.2c0-1,.9-1.6,2.6-1.6h0c0-.5,0-1.4-1.1-1.4-.4,0-.8,0-1.1.3v-.3c.3-.3.7-.4,1.1-.4,1.3,0,1.5.9,1.5,1.7v1.7ZM268.4,400.1c-.9,0-2.2.1-2.2,1.2s.4.9.9.9c.7,0,1.1-.4,1.3-.9,0,0,0-.2,0-.3v-.9Z"/>
      <path class="st18" d="M270.2,399.1c0-.4,0-.7,0-1h.4v.8h0c.2-.5.8-.9,1.5-.9s1.5.2,1.5,1.8v2.6h-.4v-2.6c0-.8-.3-1.5-1.2-1.5s-1.1.4-1.3,1c0,.1,0,.3,0,.4v2.7h-.4v-3.3Z"/>
      <path class="st18" d="M275.7,397.1v1h1.2v.4h-1.2v2.8c0,.5.2.9.6.9s.4,0,.5,0v.3c0,0-.3.1-.5.1s-.6,0-.7-.3c-.2-.2-.3-.6-.3-1v-2.7h-.7v-.4h.7v-.8l.4-.2Z"/>
    </g>
    <g>
      <path class="st18" d="M554.6,403.3c0-.5,0-1,0-1.4h.4v.8h0c.3-.6.8-.9,1.6-.9,1.1,0,1.9.9,1.9,2.2s-.9,2.3-2,2.3-1.2-.3-1.5-.8h0v2.5h-.4v-4.7ZM555,404.5c0,.1,0,.2,0,.3.2.7.8,1.1,1.4,1.1,1,0,1.6-.8,1.6-2s-.5-1.8-1.5-1.8-1.2.4-1.4,1.1c0,.1,0,.3,0,.4v.8Z"/>
      <path class="st18" d="M559.6,404c0,1.4.7,1.9,1.6,1.9s1-.1,1.2-.2v.3c0,0-.5.3-1.3.3-1.2,0-2-.9-2-2.2s.8-2.3,1.9-2.3,1.7,1.3,1.7,2,0,.2,0,.3h-3.2ZM562.4,403.7c0-.6-.2-1.5-1.3-1.5s-1.4.8-1.4,1.5h2.7Z"/>
      <path class="st18" d="M563.9,403.2c0-.4,0-.9,0-1.3h.4v.9h0c.2-.5.6-1,1.2-1s.1,0,.2,0v.4c0,0-.1,0-.2,0-.6,0-1,.5-1.1,1.2,0,.1,0,.3,0,.4v2.4h-.4v-3Z"/>
      <path class="st18" d="M566.4,405.6c.2.1.6.3,1,.3.7,0,1-.4,1-.8s-.3-.7-.9-1c-.7-.3-1.1-.7-1.1-1.2s.5-1.2,1.3-1.2.7.1,1,.3l-.2.4c-.2-.1-.4-.3-.9-.3s-.8.4-.8.7.3.6.9.9c.7.3,1.1.6,1.1,1.3s-.6,1.2-1.5,1.2-.8-.1-1.1-.3l.2-.4Z"/>
      <path class="st18" d="M570.5,400.7c0,.2-.1.4-.4.4s-.3-.2-.3-.4.2-.4.4-.4.3.2.3.4ZM569.9,406.2v-4.3h.4v4.3h-.4Z"/>
      <path class="st18" d="M571.6,405.6c.2.1.6.3,1,.3.7,0,1-.4,1-.8s-.3-.7-.9-1c-.7-.3-1.1-.7-1.1-1.2s.5-1.2,1.3-1.2.7.1,1,.3l-.2.4c-.2-.1-.4-.3-.9-.3s-.8.4-.8.7.3.6.9.9c.7.3,1.1.6,1.1,1.3s-.6,1.2-1.5,1.2-.8-.1-1.1-.3l.2-.4Z"/>
      <path class="st18" d="M575.8,400.9v1h1.2v.4h-1.2v2.8c0,.5.2.9.6.9s.4,0,.5,0v.3c0,0-.3.1-.5.1s-.6,0-.7-.3c-.2-.2-.3-.6-.3-1v-2.7h-.7v-.4h.7v-.8l.4-.2Z"/>
      <path class="st18" d="M580.7,405.2c0,.3,0,.7,0,1h-.4v-.6h0c-.2.3-.7.7-1.4.7s-1.3-.6-1.3-1.2c0-1,.9-1.6,2.6-1.6h0c0-.5,0-1.4-1.1-1.4-.4,0-.8,0-1.1.3v-.3c.3-.3.7-.4,1.1-.4,1.3,0,1.5.9,1.5,1.7v1.7ZM580.2,403.9c-.9,0-2.2.1-2.2,1.2s.4.9.9.9c.7,0,1.1-.4,1.3-.9,0,0,0-.2,0-.3v-.9Z"/>
      <path class="st18" d="M582.1,402.9c0-.4,0-.7,0-1h.4v.8h0c.2-.5.8-.9,1.5-.9s1.5.2,1.5,1.8v2.6h-.4v-2.6c0-.8-.3-1.5-1.2-1.5s-1.1.4-1.3,1c0,.1,0,.3,0,.4v2.7h-.4v-3.3Z"/>
      <path class="st18" d="M587.5,400.9v1h1.2v.4h-1.2v2.8c0,.5.2.9.6.9s.4,0,.5,0v.3c0,0-.3.1-.5.1s-.6,0-.7-.3c-.2-.2-.3-.6-.3-1v-2.7h-.7v-.4h.7v-.8l.4-.2Z"/>
    </g>
    <polyline class="st4" points="140.7 250.1 154.9 250.1 154.9 179.3 189.7 179.3"/>
    <polygon points="196.9 179.3 189.7 176.6 189.7 182 196.9 179.3"/>
    <polygon class="st10" points="196.9 179.3 189.7 176.6 189.7 182 196.9 179.3"/>
    <path d="M137.4,242.1c4.4,4.4,4.4,11.6,0,16-4.4,4.4-11.6,4.4-16,0-4.4-4.4-4.4-11.6,0-16,4.4-4.4,11.6-4.4,16,0"/>
    <path class="st5" d="M137.4,242.1c4.4,4.4,4.4,11.6,0,16-4.4,4.4-11.6,4.4-16,0-4.4-4.4-4.4-11.6,0-16,4.4-4.4,11.6-4.4,16,0"/>
    <polyline class="st4" points="630.4 403.2 662.3 403.2 662.3 242.6 674.4 242.6"/>
    <polygon points="681.6 242.6 674.4 239.9 674.4 245.3 681.6 242.6"/>
    <polygon class="st10" points="681.6 242.6 674.4 239.9 674.4 245.3 681.6 242.6"/>
    <path class="st5" d="M704.3,242.1c4.4,4.4,4.4,11.6,0,16-4.4,4.4-11.6,4.4-16,0-4.4-4.4-4.4-11.6,0-16s11.6-4.4,16,0"/>
    <path d="M701.4,245c2.8,2.8,2.8,7.3,0,10-2.8,2.8-7.3,2.8-10,0-2.8-2.8-2.8-7.3,0-10,2.8-2.8,7.3-2.8,10,0"/>
    <path class="st5" d="M701.4,245c2.8,2.8,2.8,7.3,0,10-2.8,2.8-7.3,2.8-10,0-2.8-2.8-2.8-7.3,0-10,2.8-2.8,7.3-2.8,10,0"/>
    <polyline class="st4" points="140.7 250.1 154.9 250.1 154.9 394.7 189.7 394.7"/>
    <polygon points="196.9 394.7 189.7 392 189.7 397.4 196.9 394.7"/>
    <polygon class="st10" points="196.9 394.7 189.7 392 189.7 397.4 196.9 394.7"/>
    <g>
      <path class="st24" d="M554.1,240.8c.2.1.6.3,1,.3.7,0,1-.4,1-.8s-.3-.7-.9-1c-.7-.3-1.1-.7-1.1-1.2s.5-1.2,1.3-1.2.7.1,1,.3l-.2.4c-.2-.1-.4-.3-.9-.3s-.8.4-.8.7.3.6.9.9c.7.3,1.1.6,1.1,1.3s-.6,1.2-1.5,1.2-.8-.1-1.1-.3l.2-.4Z"/>
      <path class="st24" d="M558.2,235.8c0,.2-.1.4-.4.4s-.3-.2-.3-.4.2-.4.4-.4.3.2.3.4ZM557.7,241.3v-4.3h.4v4.3h-.4Z"/>
      <path class="st24" d="M559.6,238c0-.4,0-.7,0-1h.4v.8h0c.2-.5.8-.9,1.5-.9s1.5.2,1.5,1.8v2.6h-.4v-2.6c0-.8-.3-1.5-1.2-1.5s-1.1.4-1.3,1c0,.1,0,.3,0,.4v2.7h-.4v-3.3Z"/>
      <path class="st24" d="M567.8,240.7c0,1.1-.2,1.7-.6,2-.4.4-1,.5-1.5.5s-1-.1-1.4-.4l.2-.3c.3.2.7.4,1.3.4.9,0,1.6-.5,1.6-1.7v-.6h0c-.2.4-.7.8-1.5.8s-1.9-.9-1.9-2.1,1-2.3,1.9-2.3,1.3.5,1.5.8h0v-.7h.4c0,.3,0,.7,0,1.1v2.6ZM567.4,238.7c0-.2,0-.3,0-.4-.2-.5-.6-1-1.3-1s-1.5.7-1.5,1.9.5,1.8,1.5,1.8,1.1-.4,1.3-1c0-.1,0-.3,0-.5v-.9Z"/>
      <path class="st24" d="M569.3,234.9h.4v6.4h-.4v-6.4Z"/>
      <path class="st24" d="M571.2,239.1c0,1.4.7,1.9,1.6,1.9s1-.1,1.2-.2v.3c0,0-.5.3-1.3.3-1.2,0-2-.9-2-2.2s.8-2.3,1.9-2.3,1.7,1.3,1.7,2,0,.2,0,.3h-3.2ZM574,238.8c0-.6-.2-1.5-1.3-1.5s-1.4.8-1.4,1.5h2.7Z"/>
      <path class="st24" d="M580.5,241.1c-.2,0-.6.3-1.3.3-1.2,0-2.1-.9-2.1-2.2s.9-2.3,2.2-2.3,1,.2,1.1.3l-.2.4c-.2-.1-.5-.3-1-.3-1.2,0-1.8.9-1.8,1.9s.7,1.9,1.7,1.9.8-.1,1.1-.3v.3Z"/>
      <path class="st24" d="M581.5,234.9h.4v2.8h0c.1-.2.3-.5.6-.6.3-.2.5-.3.9-.3s1.5.2,1.5,1.8v2.6h-.4v-2.6c0-.8-.3-1.5-1.2-1.5s-1.1.4-1.3,1c0,.1,0,.3,0,.4v2.6h-.4v-6.4Z"/>
      <path class="st24" d="M590,239.1c0,1.6-1.1,2.3-2.1,2.3s-2-.9-2-2.2,1-2.3,2-2.3,2,.9,2,2.2ZM586.4,239.2c0,1.1.7,1.9,1.6,1.9s1.6-.8,1.6-1.9-.4-1.9-1.6-1.9-1.6,1-1.6,1.9Z"/>
      <path class="st24" d="M591.7,235.8c0,.2-.1.4-.4.4s-.3-.2-.3-.4.2-.4.4-.4.3.2.3.4ZM591.1,241.3v-4.3h.4v4.3h-.4Z"/>
      <path class="st24" d="M596,241.1c-.2,0-.6.3-1.3.3-1.2,0-2.1-.9-2.1-2.2s.9-2.3,2.2-2.3,1,.2,1.1.3l-.2.4c-.2-.1-.5-.3-1-.3-1.2,0-1.8.9-1.8,1.9s.7,1.9,1.7,1.9.8-.1,1.1-.3v.3Z"/>
      <path class="st24" d="M597.1,239.1c0,1.4.7,1.9,1.6,1.9s1-.1,1.2-.2v.3c0,0-.5.3-1.3.3-1.2,0-2-.9-2-2.2s.8-2.3,1.9-2.3,1.7,1.3,1.7,2,0,.2,0,.3h-3.2ZM599.9,238.8c0-.6-.2-1.5-1.3-1.5s-1.4.8-1.4,1.5h2.7Z"/>
      <path class="st24" d="M603.2,240.8c.2.1.6.3,1,.3.7,0,1-.4,1-.8s-.3-.7-.9-1c-.7-.3-1.1-.7-1.1-1.2s.5-1.2,1.3-1.2.7.1,1,.3l-.2.4c-.2-.1-.4-.3-.9-.3s-.8.4-.8.7.3.6.9.9c.7.3,1.1.6,1.1,1.3s-.6,1.2-1.5,1.2-.8-.1-1.1-.3l.2-.4Z"/>
      <path class="st24" d="M606.8,239.1c0,1.4.7,1.9,1.6,1.9s1-.1,1.2-.2v.3c0,0-.5.3-1.3.3-1.2,0-2-.9-2-2.2s.8-2.3,1.9-2.3,1.7,1.3,1.7,2,0,.2,0,.3h-3.2ZM609.6,238.8c0-.6-.2-1.5-1.3-1.5s-1.4.8-1.4,1.5h2.7Z"/>
      <path class="st24" d="M611.1,234.9h.4v6.4h-.4v-6.4Z"/>
      <path class="st24" d="M613.1,239.1c0,1.4.7,1.9,1.6,1.9s1-.1,1.2-.2v.3c0,0-.5.3-1.3.3-1.2,0-2-.9-2-2.2s.8-2.3,1.9-2.3,1.7,1.3,1.7,2,0,.2,0,.3h-3.2ZM615.8,238.8c0-.6-.2-1.5-1.3-1.5s-1.4.8-1.4,1.5h2.7Z"/>
      <path class="st24" d="M620.4,241.1c-.2,0-.6.3-1.3.3-1.2,0-2.1-.9-2.1-2.2s.9-2.3,2.2-2.3,1,.2,1.1.3l-.2.4c-.2-.1-.5-.3-1-.3-1.2,0-1.8.9-1.8,1.9s.7,1.9,1.7,1.9.8-.1,1.1-.3v.3Z"/>
      <path class="st24" d="M622.1,236.1v1h1.2v.4h-1.2v2.8c0,.5.2.9.6.9s.4,0,.5,0v.3c0,0-.3.1-.5.1s-.6,0-.7-.3c-.2-.2-.3-.6-.3-1v-2.7h-.7v-.4h.7v-.8l.4-.2Z"/>
      <path class="st24" d="M624.8,235.8c0,.2-.1.4-.4.4s-.3-.2-.3-.4.2-.4.4-.4.3.2.3.4ZM624.3,241.3v-4.3h.4v4.3h-.4Z"/>
      <path class="st24" d="M629.8,239.1c0,1.6-1.1,2.3-2.1,2.3s-2-.9-2-2.2,1-2.3,2-2.3,2,.9,2,2.2ZM626.2,239.2c0,1.1.7,1.9,1.6,1.9s1.6-.8,1.6-1.9-.4-1.9-1.6-1.9-1.6,1-1.6,1.9Z"/>
      <path class="st24" d="M630.9,238c0-.4,0-.7,0-1h.4v.8h0c.2-.5.8-.9,1.5-.9s1.5.2,1.5,1.8v2.6h-.4v-2.6c0-.8-.3-1.5-1.2-1.5s-1.1.4-1.3,1c0,.1,0,.3,0,.4v2.7h-.4v-3.3Z"/>
    </g>
    <line class="st9" x1="612.5" y1="183.4" x2="619.5" y2="183.4"/>
    <line class="st9" x1="612.7" y1="181" x2="619.7" y2="181"/>
    <path class="st18" d="M305.4,374c3.3,3.3,3.3,8.7,0,12-3.3,3.3-8.7,3.3-12,0-3.3-3.3-3.3-8.7,0-12,3.3-3.3,8.7-3.3,12,0"/>
    <g>
      <path d="M297.2,377.6v6.1h-.8v-6.1h.8Z"/>
      <path d="M298.5,377.6c.5,0,1-.1,1.7-.1,1.1,0,1.9.3,2.5.8.5.5.9,1.2.9,2.2s-.3,1.8-.9,2.4c-.6.6-1.5.9-2.7.9s-1,0-1.4,0v-6ZM299.3,383c.2,0,.5,0,.8,0,1.7,0,2.6-.9,2.6-2.6,0-1.4-.8-2.3-2.5-2.3s-.7,0-.9,0v4.8Z"/>
    </g>
    <g>
      <path d="M117.9,233.1c.3.2.8.4,1.3.4.9,0,1.5-.5,1.5-1.3s-.4-1.1-1.2-1.4c-1-.3-1.6-.8-1.6-1.7s.7-1.5,1.8-1.5,1,.1,1.2.3l-.2.4c-.2-.1-.5-.3-1.1-.3-1,0-1.3.6-1.3,1.1s.4,1,1.3,1.4c1,.4,1.5.9,1.5,1.8s-.6,1.7-1.9,1.7-1.1-.2-1.4-.4l.2-.4Z"/>
      <path d="M123.4,228.1h-2v-.4h4.4v.4h-2v5.7h-.4v-5.7Z"/>
      <path d="M126.5,231.7l-.7,2.1h-.4l2.2-6.1h.4l2.2,6.1h-.4l-.8-2.1h-2.4ZM128.7,231.3l-.7-2c-.2-.4-.2-.7-.3-1.1h0c0,.4-.2.7-.3,1.1l-.7,2h2.1Z"/>
      <path d="M131,227.8c.4,0,.9-.1,1.3-.1.8,0,1.3.2,1.6.5.3.2.4.6.4,1.1,0,.8-.5,1.3-1.2,1.6h0c.5.2.8.6.9,1.3.2.9.3,1.4.5,1.6h-.4c0-.2-.2-.7-.4-1.5-.2-.9-.6-1.3-1.4-1.3h-.9v2.8h-.4v-6ZM131.4,230.6h1c.9,0,1.5-.5,1.5-1.3s-.7-1.3-1.6-1.3-.7,0-.9,0v2.5Z"/>
      <path d="M136.8,228.1h-2v-.4h4.4v.4h-2v5.7h-.4v-5.7Z"/>
    </g>
    <g>
      <path d="M690.9,230.8h-2.4v2.7h2.7v.4h-3.1v-6.1h3v.4h-2.6v2.3h2.4v.4Z"/>
      <path d="M692.2,233.8v-6.1h.4l2.4,3.6c.5.8.8,1.3,1.1,1.9h0c0-.8,0-1.5,0-2.5v-3h.4v6.1h-.4l-2.3-3.5c-.5-.7-.9-1.3-1.2-2h0c0,.8,0,1.4,0,2.4v3.1h-.4Z"/>
      <path d="M698,227.8c.5,0,1-.1,1.6-.1,1.1,0,1.9.3,2.4.8.5.5.8,1.2.8,2.1s-.2,1.7-.8,2.3c-.5.6-1.4.9-2.6.9s-.9,0-1.4,0v-6ZM698.4,233.4c.2,0,.6,0,1,0,1.9,0,2.9-1.1,2.9-2.8,0-1.5-.8-2.6-2.8-2.6s-.8,0-1.1,0v5.3Z"/>
    </g>
    <polyline class="st4" points="205.6 403.2 154.9 403.2 154.9 482.6 667.6 482.6 667.6 250.1 674.4 250.1"/>
    <polygon points="681.6 250.1 674.4 247.4 674.4 252.8 681.6 250.1"/>
    <polygon class="st10" points="681.6 250.1 674.4 247.4 674.4 252.8 681.6 250.1"/>
    <g>
      <path class="st25" d="M228.5,226h4.4v.9h-3.3v2.7h3v.9h-3v3.7h-1.1v-8.1Z"/>
      <path class="st25" d="M235.4,226v4.8c0,1.8.8,2.6,1.9,2.6s2-.8,2-2.6v-4.8h1.1v4.7c0,2.5-1.3,3.5-3.1,3.5s-2.9-.9-2.9-3.5v-4.8h1.1Z"/>
      <path class="st25" d="M242.1,234.1v-8.1h1.2l2.6,4.1c.6.9,1.1,1.8,1.4,2.6h0c0-1.1-.1-2.1-.1-3.3v-3.4h1v8.1h-1.1l-2.6-4.1c-.6-.9-1.1-1.8-1.5-2.7h0c0,1,0,2,0,3.3v3.5h-1Z"/>
      <path class="st25" d="M250,234.1v-8.1h1.2l2.6,4.1c.6.9,1.1,1.8,1.4,2.6h0c0-1.1-.1-2.1-.1-3.3v-3.4h1v8.1h-1.1l-2.6-4.1c-.6-.9-1.1-1.8-1.5-2.7h0c0,1,0,2,0,3.3v3.5h-1Z"/>
      <path class="st25" d="M262.1,230.3h-3.1v2.9h3.5v.9h-4.6v-8.1h4.4v.9h-3.3v2.6h3.1v.9Z"/>
      <path class="st25" d="M263.8,226h1.1v7.2h3.5v.9h-4.5v-8.1Z"/>
      <path class="st25" d="M278.8,230.5c0-1.1-.1-2.5-.1-3.5h0c-.3.9-.6,2-1,3.1l-1.4,3.9h-.8l-1.3-3.8c-.4-1.2-.7-2.2-.9-3.1h0c0,1,0,2.4-.2,3.6l-.2,3.5h-1l.6-8.1h1.3l1.4,3.9c.3,1,.6,1.9.8,2.7h0c.2-.8.5-1.7.9-2.7l1.4-3.9h1.3l.5,8.1h-1l-.2-3.5Z"/>
      <path class="st25" d="M288.6,229.9c0,2.8-1.7,4.3-3.8,4.3s-3.6-1.7-3.6-4.1,1.6-4.2,3.7-4.2,3.6,1.7,3.6,4.1ZM282.3,230.1c0,1.7.9,3.3,2.6,3.3s2.6-1.5,2.6-3.4-.8-3.3-2.6-3.3-2.6,1.6-2.6,3.4Z"/>
      <path class="st25" d="M289.9,226.1c.6-.1,1.4-.2,2.2-.2,1.5,0,2.6.4,3.3,1,.7.7,1.2,1.6,1.2,2.9s-.4,2.4-1.2,3.1c-.8.8-2,1.2-3.6,1.2s-1.4,0-1.9,0v-7.9ZM291,233.2c.3,0,.6,0,1.1,0,2.2,0,3.4-1.2,3.4-3.4,0-1.9-1.1-3.1-3.3-3.1s-.9,0-1.2.1v6.4Z"/>
      <path class="st25" d="M302.1,230.3h-3.1v2.9h3.5v.9h-4.6v-8.1h4.4v.9h-3.3v2.6h3.1v.9Z"/>
    </g>
    <g>
      <path class="st22" d="M230.1,268.3h-2.5v-.9h6v.9h-2.5v7.2h-1.1v-7.2Z"/>
      <path class="st22" d="M234.9,272.9l-.8,2.5h-1.1l2.8-8.1h1.2l2.8,8.1h-1.1l-.9-2.5h-2.9ZM237.6,272.1l-.8-2.3c-.2-.5-.3-1-.4-1.5h0c-.1.5-.2,1-.4,1.5l-.8,2.3h2.4Z"/>
      <path class="st22" d="M240.8,274.2c.5.3,1.1.5,1.9.5,1.1,0,1.7-.6,1.7-1.4s-.4-1.2-1.5-1.6c-1.3-.5-2.1-1.2-2.1-2.3s1-2.2,2.6-2.2,1.4.2,1.8.4l-.3.9c-.3-.2-.8-.4-1.5-.4-1.1,0-1.5.7-1.5,1.2s.5,1.1,1.6,1.6c1.4.5,2.1,1.2,2.1,2.4s-.9,2.3-2.8,2.3-1.6-.2-2.1-.5l.3-.9Z"/>
      <path class="st22" d="M246.9,267.4h1v3.9h0c.2-.3.4-.6.6-.9l2.5-3h1.3l-2.9,3.4,3.2,4.7h-1.2l-2.7-4-.8.9v3.1h-1v-8.1Z"/>
      <path class="st22" d="M262.7,271.9c0-1.1-.1-2.5-.1-3.5h0c-.3.9-.6,2-1,3.1l-1.4,3.9h-.8l-1.3-3.9c-.4-1.2-.7-2.2-.9-3.1h0c0,1,0,2.4-.2,3.6l-.2,3.5h-1l.6-8.1h1.3l1.4,3.9c.3,1,.6,1.9.8,2.7h0c.2-.8.5-1.7.9-2.7l1.4-3.9h1.3l.5,8.1h-1l-.2-3.5Z"/>
      <path class="st22" d="M272.5,271.3c0,2.8-1.7,4.3-3.8,4.3s-3.6-1.7-3.6-4.1,1.6-4.2,3.7-4.2,3.6,1.7,3.6,4.1ZM266.2,271.5c0,1.7.9,3.3,2.6,3.3s2.6-1.5,2.6-3.4-.8-3.3-2.6-3.3-2.6,1.6-2.6,3.4Z"/>
      <path class="st22" d="M273.8,267.5c.6-.1,1.4-.2,2.2-.2,1.5,0,2.6.4,3.3,1,.7.7,1.2,1.6,1.2,2.9s-.4,2.4-1.2,3.1c-.8.8-2,1.2-3.6,1.2s-1.4,0-1.9,0v-7.9ZM274.9,274.6c.3,0,.6,0,1.1,0,2.2,0,3.4-1.2,3.4-3.4,0-1.9-1.1-3.1-3.3-3.1s-.9,0-1.2.1v6.4Z"/>
      <path class="st22" d="M286,271.7h-3.1v2.9h3.5v.9h-4.6v-8.1h4.4v.9h-3.3v2.6h3.1v.9Z"/>
    </g>
    <rect class="st16" x="7.2" y="360.7" width="81.9" height="45.4" rx="4" ry="4"/>
    <g>
      <path class="st18" d="M39.2,378.3c0,.6,0,1.2.1,1.8h-.7v-1.1h-.1c-.4.6-1.2,1.3-2.5,1.3s-2.3-1.1-2.3-2.1c0-1.8,1.6-2.8,4.7-2.8v-.2c0-.8-.1-2.3-2-2.3-.7,0-1.4.2-1.9.6l-.2-.6c.7-.5,1.6-.7,2.3-.7,2.2,0,2.7,1.7,2.7,3v3ZM38.4,376c-1.7,0-3.9.2-3.9,2s.7,1.6,1.5,1.6c1.3,0,2-.8,2.3-1.5,0-.2,0-.3,0-.5v-1.6Z"/>
      <path class="st18" d="M41.7,374.8c0-.8,0-1.6,0-2.3h.7v1.6h0c.3-1,1.1-1.7,2.2-1.7s.2,0,.3,0v.7c-.1,0-.2,0-.4,0-1.1,0-1.8.9-2,2.1,0,.2,0,.5,0,.7v4.2h-.8v-5.4Z"/>
      <path class="st18" d="M51.6,379.8c-.3.2-1.1.5-2.3.5-2.2,0-3.7-1.6-3.7-3.9s1.7-4.1,4-4.1,1.7.3,2,.5l-.3.6c-.4-.2-1-.4-1.8-.4-2.1,0-3.1,1.6-3.1,3.4s1.3,3.3,3,3.3,1.5-.3,1.9-.4l.2.6Z"/>
      <path class="st18" d="M53.4,368.8h.8v5.1h0c.2-.4.6-.8,1-1.1.4-.3,1-.4,1.6-.4s2.7.4,2.7,3.2v4.6h-.8v-4.5c0-1.4-.5-2.6-2.1-2.6s-2,.8-2.3,1.7c0,.2,0,.4,0,.8v4.7h-.8v-11.4Z"/>
      <path class="st18" d="M65,375.4v.7h-3.8v-.7h3.8Z"/>
    </g>
    <g>
      <path class="st18" d="M28.6,384.8v9.2c0,.8,0,1.7,0,2.2h-1.7v-1.2h-.1c-.5.9-1.4,1.4-2.5,1.4-1.9,0-3.3-1.6-3.3-4,0-2.6,1.6-4.2,3.5-4.2s1.8.4,2.2,1h0v-4.4h2ZM26.6,391.6c0-.2,0-.4,0-.5-.2-.8-.8-1.4-1.7-1.4s-2,1.1-2,2.6.7,2.5,2,2.5,1.5-.5,1.7-1.4c0-.2,0-.4,0-.6v-1.2Z"/>
      <path class="st18" d="M32.8,386.2c0,.6-.4,1.1-1.1,1.1s-1.1-.5-1.1-1.1.4-1.1,1.1-1.1,1.1.5,1.1,1.1ZM30.7,396.1v-7.8h2v7.8h-2Z"/>
      <path class="st18" d="M34.7,394.3c.4.3,1.3.6,2,.6s1.2-.4,1.2-.9-.3-.8-1.3-1.1c-1.5-.5-2.1-1.3-2.1-2.3,0-1.4,1.1-2.4,2.9-2.4s1.6.2,2.1.5l-.4,1.4c-.3-.2-1-.4-1.6-.4s-1.1.4-1.1.8.4.7,1.4,1.1c1.4.5,2.1,1.2,2.1,2.4,0,1.4-1.1,2.4-3.2,2.4s-1.8-.2-2.4-.5l.4-1.4Z"/>
      <path class="st18" d="M47.2,395.9c-.4.2-1.2.4-2.2.4-2.4,0-4-1.6-4-4s1.6-4.1,4.3-4.1,1.5.2,1.9.4l-.4,1.5c-.3-.2-.8-.3-1.5-.3-1.5,0-2.4,1.1-2.4,2.5,0,1.6,1,2.5,2.4,2.5s1.2-.1,1.6-.3l.3,1.5Z"/>
      <path class="st18" d="M55.9,392.2c0,2.9-2,4.1-4,4.1s-3.9-1.5-3.9-4,1.7-4.1,4-4.1,3.9,1.6,3.9,4ZM50.1,392.3c0,1.5.8,2.6,1.9,2.6s1.9-1.1,1.9-2.7-.5-2.6-1.9-2.6-2,1.4-2,2.7Z"/>
      <path class="st18" d="M58.7,388.4l1.3,4c.2.7.4,1.3.5,2h0c.1-.6.3-1.2.5-2l1.2-4h2.1l-3,7.8h-1.9l-2.9-7.8h2.1Z"/>
      <path class="st18" d="M66.7,392.8c0,1.4,1.1,2,2.4,2s1.6-.1,2.2-.4l.3,1.3c-.7.3-1.6.5-2.7.5-2.5,0-4-1.6-4-3.9s1.3-4.2,3.8-4.2,3.4,2.1,3.4,3.8,0,.7,0,.8h-5.2ZM70.2,391.4c0-.7-.3-1.9-1.6-1.9s-1.7,1.1-1.8,1.9h3.4Z"/>
      <path class="st18" d="M73.6,390.9c0-1.1,0-1.8,0-2.5h1.7v1.5h.1c.4-1.1,1.3-1.6,2.1-1.6s.3,0,.5,0v1.8c-.2,0-.4,0-.6,0-.9,0-1.6.6-1.8,1.5,0,.2,0,.4,0,.6v4h-2v-5.3Z"/>
    </g>
    <rect class="st16" x="734.6" y="309.7" width="79.4" height="45.4" rx="4" ry="4"/>
    <g>
      <path class="st18" d="M754.8,323.3c0-.7,0-1.2,0-1.8h.7v1.4h0c.5-.9,1.2-1.5,2.5-1.5s1.9.7,2.2,1.7h0c.2-.5.5-.8.8-1,.5-.4,1-.6,1.8-.6s2.5.4,2.5,3.3v4.5h-.8v-4.5c0-1.7-.7-2.8-2-2.8s-1.7.7-2,1.5c0,.2-.1.5-.1.8v4.9h-.8v-4.8c0-1.4-.7-2.4-1.9-2.4s-1.8.8-2.1,1.7c0,.2-.1.5-.1.7v4.7h-.8v-5.8Z"/>
      <path class="st18" d="M768,325.2c0,2.4,1.3,3.4,2.9,3.4s1.7-.2,2.1-.4l.2.6c-.3.2-1.1.5-2.4.5-2.2,0-3.6-1.6-3.6-3.9s1.5-4.2,3.5-4.2,3,2.4,3,3.5,0,.3,0,.5h-5.7ZM772.9,324.6c0-1.1-.4-2.7-2.3-2.7s-2.4,1.5-2.6,2.7h4.9Z"/>
      <path class="st18" d="M776.7,319.7v1.7h2.2v.6h-2.2v5c0,1,.3,1.6,1.1,1.6s.7,0,.9-.1v.6c-.2.1-.5.2-1,.2s-1-.2-1.3-.5c-.4-.4-.5-1.1-.5-1.8v-4.9h-1.3v-.6h1.3v-1.4l.8-.3Z"/>
      <path class="st18" d="M785.4,327.3c0,.6,0,1.2.1,1.8h-.7v-1.1h-.1c-.4.6-1.2,1.3-2.5,1.3s-2.3-1.1-2.3-2.1c0-1.8,1.6-2.8,4.7-2.8v-.2c0-.8-.1-2.3-2-2.3-.7,0-1.4.2-1.9.6l-.2-.6c.7-.5,1.6-.7,2.3-.7,2.2,0,2.7,1.7,2.7,3v3ZM784.6,325c-1.7,0-3.9.2-3.9,2s.7,1.6,1.5,1.6c1.3,0,2-.8,2.3-1.5,0-.2,0-.3,0-.5v-1.6Z"/>
      <path class="st18" d="M790.8,324.4v.7h-3.8v-.7h3.8Z"/>
    </g>
    <g>
      <path class="st18" d="M750.3,344.9c-.4.2-1.2.4-2.2.4-2.4,0-4-1.6-4-4s1.6-4.1,4.3-4.1,1.5.2,1.9.4l-.4,1.5c-.3-.2-.8-.3-1.5-.3-1.5,0-2.4,1.1-2.4,2.5,0,1.6,1,2.5,2.4,2.5s1.2-.1,1.6-.3l.3,1.5Z"/>
      <path class="st18" d="M751.8,333.8h2v4.6h0c.2-.4.6-.7,1-.9.4-.2.9-.4,1.4-.4,1.3,0,2.7.9,2.7,3.4v4.6h-2v-4.4c0-1.1-.4-2-1.5-2s-1.3.5-1.5,1.1c0,.2,0,.4,0,.6v4.7h-2v-11.4Z"/>
      <path class="st18" d="M767,343.2c0,.7,0,1.4.1,1.9h-1.8v-.9h-.2c-.5.6-1.3,1-2.3,1-1.6,0-2.4-1.1-2.4-2.3,0-2,1.7-3,4.6-2.9h0c0-.6-.2-1.5-1.6-1.5s-1.6.2-2.1.6l-.4-1.3c.6-.4,1.6-.7,2.8-.7,2.5,0,3.2,1.6,3.2,3.3v2.8ZM765.1,341.3c-1.4,0-2.7.3-2.7,1.5s.5,1.1,1.1,1.1,1.4-.5,1.6-1.1c0-.1,0-.3,0-.4v-1.1Z"/>
      <path class="st18" d="M769.1,339.6c0-.9,0-1.6,0-2.3h1.7v1.2h.1c.4-.6,1.2-1.3,2.5-1.3s2.8.9,2.8,3.3v4.6h-2v-4.4c0-1.1-.4-2-1.5-2s-1.3.6-1.5,1.2c0,.2,0,.4,0,.6v4.6h-2v-5.5Z"/>
      <path class="st18" d="M785.3,344c0,1.6-.3,2.8-1.2,3.5-.8.7-1.9.9-3,.9s-2-.2-2.7-.6l.4-1.5c.5.3,1.3.6,2.3.6s2.2-.7,2.2-2.4v-.7h0c-.4.7-1.2,1.2-2.3,1.2-1.9,0-3.3-1.6-3.3-3.8s1.7-4.1,3.5-4.1,1.9.6,2.3,1.2h0v-1h1.8c0,.5,0,1.2,0,2.2v4.4ZM783.3,340.4c0-.2,0-.4,0-.5-.2-.7-.8-1.3-1.6-1.3s-1.9,1-1.9,2.5.7,2.4,1.9,2.4,1.4-.5,1.6-1.2c0-.2,0-.5,0-.7v-1.3Z"/>
      <path class="st18" d="M788.8,341.8c0,1.4,1.1,2,2.4,2s1.6-.1,2.2-.4l.3,1.3c-.7.3-1.6.5-2.7.5-2.5,0-4-1.6-4-3.9s1.3-4.2,3.8-4.2,3.4,2.1,3.4,3.8,0,.7,0,.8h-5.2ZM792.2,340.4c0-.7-.3-1.9-1.6-1.9s-1.7,1.1-1.8,1.9h3.4Z"/>
      <path class="st18" d="M795.6,343.3c.4.3,1.3.6,2,.6s1.2-.4,1.2-.9-.3-.8-1.3-1.1c-1.5-.5-2.1-1.3-2.1-2.3,0-1.4,1.1-2.4,2.9-2.4s1.6.2,2.1.5l-.4,1.4c-.3-.2-1-.4-1.6-.4s-1.1.4-1.1.8.4.7,1.4,1.1c1.4.5,2.1,1.2,2.1,2.4,0,1.4-1.1,2.4-3.2,2.4s-1.8-.2-2.4-.5l.4-1.4Z"/>
    </g>
    <rect class="st16" x="734.6" y="142.4" width="79.4" height="45.4" rx="4" ry="4"/>
    <g>
      <path class="st18" d="M761.3,161.5c-.3.2-1.1.5-2.3.5-2.2,0-3.7-1.6-3.7-3.9s1.7-4.1,4-4.1,1.7.3,2,.5l-.3.6c-.4-.2-1-.4-1.8-.4-2.1,0-3.1,1.6-3.1,3.4s1.3,3.3,3,3.3,1.5-.3,1.9-.4l.2.6Z"/>
      <path class="st18" d="M769.7,158c0,2.9-2,4.1-3.7,4.1s-3.5-1.6-3.5-4,1.7-4.1,3.6-4.1,3.6,1.6,3.6,3.9ZM763.3,158.1c0,1.9,1.2,3.4,2.8,3.4s2.9-1.4,2.9-3.4-.8-3.3-2.8-3.3-2.8,1.7-2.8,3.4Z"/>
      <path class="st18" d="M777.8,150.5v9.6c0,.6,0,1.2,0,1.8h-.7v-1.5h0c-.4.8-1.3,1.6-2.7,1.6s-3.3-1.6-3.3-3.9c0-2.6,1.6-4.2,3.5-4.2s2.2.7,2.5,1.4h0v-4.9h.8ZM777,157.2c0-.2,0-.5,0-.7-.3-1-1.2-1.9-2.4-1.9s-2.7,1.5-2.7,3.4.9,3.3,2.7,3.3,2.1-.7,2.5-2c0-.2,0-.4,0-.6v-1.5Z"/>
      <path class="st18" d="M780.5,158c0,2.4,1.3,3.4,2.9,3.4s1.7-.2,2.1-.4l.2.6c-.3.2-1.1.5-2.4.5-2.2,0-3.6-1.6-3.6-3.9s1.5-4.2,3.5-4.2,3,2.4,3,3.5,0,.3,0,.5h-5.7ZM785.4,157.3c0-1.1-.4-2.7-2.3-2.7s-2.4,1.5-2.6,2.7h4.9Z"/>
      <path class="st18" d="M791.5,157.1v.7h-3.8v-.7h3.8Z"/>
    </g>
    <g>
      <path class="st18" d="M750.4,174.5c0,1.4,1.1,2,2.4,2s1.6-.1,2.2-.4l.3,1.3c-.7.3-1.6.5-2.7.5-2.5,0-4-1.6-4-3.9s1.3-4.2,3.8-4.2,3.4,2.1,3.4,3.8,0,.7,0,.8h-5.2ZM753.8,173.2c0-.7-.3-1.9-1.6-1.9s-1.7,1.1-1.8,1.9h3.4Z"/>
      <path class="st18" d="M758.4,170.1l.9,1.5c.3.4.5.8.7,1.2h0c.2-.4.4-.8.7-1.2l.9-1.4h2.1l-2.6,3.7,2.7,4h-2.2l-.9-1.6c-.3-.4-.5-.8-.7-1.3h0c-.2.4-.5.8-.7,1.3l-.9,1.6h-2.2l2.7-4-2.6-3.8h2.2Z"/>
      <path class="st18" d="M765,172.7c0-1,0-1.9,0-2.6h1.7v1.2h.1c.6-.9,1.5-1.4,2.7-1.4,1.8,0,3.3,1.5,3.3,4s-1.8,4.2-3.6,4.2-1.8-.4-2.2-1h0v4h-2v-8.4ZM767,174.6c0,.2,0,.4,0,.5.2.8.9,1.4,1.7,1.4,1.2,0,2-1,2-2.6s-.7-2.5-1.9-2.5-1.6.6-1.8,1.5c0,.2,0,.3,0,.5v1.2Z"/>
      <path class="st18" d="M774.4,166.5h2v11.4h-2v-11.4Z"/>
      <path class="st18" d="M784.5,176c0,.7,0,1.4.1,1.9h-1.8v-.9h-.2c-.5.6-1.3,1-2.3,1-1.6,0-2.4-1.1-2.4-2.3,0-2,1.7-3,4.6-2.9h0c0-.6-.2-1.5-1.6-1.5s-1.6.2-2.1.6l-.4-1.3c.6-.4,1.6-.7,2.8-.7,2.5,0,3.2,1.6,3.2,3.3v2.8ZM782.6,174.1c-1.4,0-2.7.3-2.7,1.5s.5,1.1,1.1,1.1,1.4-.5,1.6-1.1c0-.1,0-.3,0-.4v-1.1Z"/>
      <path class="st18" d="M788.7,167.9c0,.6-.4,1.1-1.1,1.1s-1.1-.5-1.1-1.1.4-1.1,1.1-1.1,1.1.5,1.1,1.1ZM786.6,177.9v-7.8h2v7.8h-2Z"/>
      <path class="st18" d="M790.7,172.4c0-.9,0-1.6,0-2.3h1.7v1.2h.1c.4-.6,1.2-1.3,2.5-1.3s2.8.9,2.8,3.3v4.6h-2v-4.4c0-1.1-.4-2-1.5-2s-1.3.6-1.5,1.2c0,.2,0,.4,0,.6v4.6h-2v-5.5Z"/>
    </g>
    <rect class="st16" x="734.6" y="91.4" width="79.4" height="45.4" rx="4" ry="4"/>
    <g>
      <path class="st18" d="M761.3,110.5c-.3.2-1.1.5-2.3.5-2.2,0-3.7-1.6-3.7-3.9s1.7-4.1,4-4.1,1.7.3,2,.5l-.3.6c-.4-.2-1-.4-1.8-.4-2.1,0-3.1,1.6-3.1,3.4s1.3,3.3,3,3.3,1.5-.3,1.9-.4l.2.6Z"/>
      <path class="st18" d="M769.7,106.9c0,2.9-2,4.1-3.7,4.1s-3.5-1.6-3.5-4,1.7-4.1,3.6-4.1,3.6,1.6,3.6,3.9ZM763.3,107c0,1.9,1.2,3.4,2.8,3.4s2.9-1.4,2.9-3.4-.8-3.3-2.8-3.3-2.8,1.7-2.8,3.4Z"/>
      <path class="st18" d="M777.8,99.5v9.6c0,.6,0,1.2,0,1.8h-.7v-1.5h0c-.4.8-1.3,1.6-2.7,1.6s-3.3-1.6-3.3-3.9c0-2.6,1.6-4.2,3.5-4.2s2.2.7,2.5,1.4h0v-4.9h.8ZM777,106.2c0-.2,0-.5,0-.7-.3-1-1.2-1.9-2.4-1.9s-2.7,1.5-2.7,3.4.9,3.3,2.7,3.3,2.1-.7,2.5-2c0-.2,0-.4,0-.6v-1.5Z"/>
      <path class="st18" d="M780.5,106.9c0,2.4,1.3,3.4,2.9,3.4s1.7-.2,2.1-.4l.2.6c-.3.2-1.1.5-2.4.5-2.2,0-3.6-1.6-3.6-3.9s1.5-4.2,3.5-4.2,3,2.4,3,3.5,0,.3,0,.5h-5.7ZM785.4,106.3c0-1.1-.4-2.7-2.3-2.7s-2.4,1.5-2.6,2.7h4.9Z"/>
      <path class="st18" d="M791.5,106.1v.7h-3.8v-.7h3.8Z"/>
    </g>
    <g>
      <path class="st18" d="M752.6,116.9c0,.6-.4,1.1-1.1,1.1s-1.1-.5-1.1-1.1.4-1.1,1.1-1.1,1.1.5,1.1,1.1ZM750.5,126.9v-7.8h2v7.8h-2Z"/>
      <path class="st18" d="M754.6,121.4c0-.9,0-1.6,0-2.3h1.7v1.2h.1c.4-.6,1.2-1.3,2.5-1.3s2.8.9,2.8,3.3v4.6h-2v-4.4c0-1.1-.4-2-1.5-2s-1.3.6-1.5,1.2c0,.2,0,.4,0,.6v4.6h-2v-5.5Z"/>
      <path class="st18" d="M763.6,125c.4.3,1.3.6,2,.6s1.2-.4,1.2-.9-.3-.8-1.3-1.1c-1.5-.5-2.1-1.3-2.1-2.3,0-1.4,1.1-2.4,2.9-2.4s1.6.2,2.1.5l-.4,1.4c-.3-.2-1-.4-1.6-.4s-1.1.4-1.1.8.4.7,1.4,1.1c1.4.5,2.1,1.2,2.1,2.4,0,1.4-1.1,2.4-3.2,2.4s-1.8-.2-2.4-.5l.4-1.4Z"/>
      <path class="st18" d="M772.5,116.9c0,.6-.4,1.1-1.1,1.1s-1.1-.5-1.1-1.1.4-1.1,1.1-1.1,1.1.5,1.1,1.1ZM770.4,126.9v-7.8h2v7.8h-2Z"/>
      <path class="st18" d="M781.5,125.7c0,1.6-.3,2.8-1.2,3.5-.8.7-1.9.9-3,.9s-2-.2-2.7-.6l.4-1.5c.5.3,1.3.6,2.3.6s2.2-.7,2.2-2.4v-.7h0c-.4.7-1.2,1.2-2.3,1.2-1.9,0-3.3-1.6-3.3-3.8s1.7-4.1,3.5-4.1,1.9.6,2.3,1.2h0v-1h1.8c0,.5,0,1.2,0,2.2v4.4ZM779.6,122.2c0-.2,0-.4,0-.5-.2-.7-.8-1.3-1.6-1.3s-1.9,1-1.9,2.5.7,2.4,1.9,2.4,1.4-.5,1.6-1.2c0-.2,0-.5,0-.7v-1.3Z"/>
      <path class="st18" d="M783.6,115.5h2v4.6h0c.2-.4.6-.7,1-.9.4-.2.9-.4,1.4-.4,1.3,0,2.7.9,2.7,3.4v4.6h-2v-4.4c0-1.1-.4-2-1.5-2s-1.3.5-1.5,1.1c0,.2,0,.4,0,.6v4.7h-2v-11.4Z"/>
      <path class="st18" d="M795,117.1v2h1.9v1.5h-1.9v3.4c0,1,.3,1.4,1,1.4s.5,0,.8,0v1.5c-.3.1-.8.2-1.4.2s-1.3-.2-1.7-.6c-.4-.4-.6-1.2-.6-2.2v-3.7h-1.1v-1.5h1.1v-1.5l1.9-.5Z"/>
    </g>
    <rect class="st16" x="7.2" y="142.4" width="81.9" height="45.4" rx="4" ry="4"/>
    <g>
      <path class="st18" d="M31.7,156c0-.7,0-1.2,0-1.8h.7v1.4h0c.5-.9,1.2-1.5,2.5-1.5s1.9.7,2.2,1.7h0c.2-.5.5-.8.8-1,.5-.4,1-.6,1.8-.6s2.5.4,2.5,3.3v4.5h-.8v-4.5c0-1.7-.7-2.8-2-2.8s-1.7.7-2,1.5c0,.2-.1.5-.1.8v4.9h-.8v-4.8c0-1.4-.7-2.4-1.9-2.4s-1.8.8-2.1,1.7c0,.2-.1.5-.1.7v4.7h-.8v-5.8Z"/>
      <path class="st18" d="M44.9,158c0,2.4,1.3,3.4,2.9,3.4s1.7-.2,2.1-.4l.2.6c-.3.2-1.1.5-2.4.5-2.2,0-3.6-1.6-3.6-3.9s1.5-4.2,3.5-4.2,3,2.4,3,3.5,0,.3,0,.5h-5.7ZM49.8,157.3c0-1.1-.4-2.7-2.3-2.7s-2.4,1.5-2.6,2.7h4.9Z"/>
      <path class="st18" d="M53.6,152.5v1.7h2.2v.6h-2.2v5c0,1,.3,1.6,1.1,1.6s.7,0,.9-.1v.6c-.2.1-.5.2-1,.2s-1-.2-1.3-.5c-.4-.4-.5-1.1-.5-1.8v-4.8h-1.3v-.6h1.3v-1.4l.8-.3Z"/>
      <path class="st18" d="M62.3,160.1c0,.6,0,1.2.1,1.8h-.7v-1.1h-.1c-.4.6-1.2,1.3-2.5,1.3s-2.3-1.1-2.3-2.1c0-1.8,1.6-2.8,4.7-2.8v-.2c0-.8-.1-2.3-2-2.3-.7,0-1.4.2-1.9.6l-.2-.6c.7-.5,1.6-.7,2.3-.7,2.2,0,2.7,1.7,2.7,3v3ZM61.5,157.8c-1.7,0-3.9.2-3.9,2s.7,1.6,1.5,1.6c1.3,0,2-.8,2.3-1.5,0-.2,0-.3,0-.5v-1.6Z"/>
      <path class="st18" d="M67.8,157.1v.7h-3.8v-.7h3.8Z"/>
    </g>
    <g>
      <path class="st18" d="M22.1,174.5c0,1.4,1.1,2,2.4,2s1.6-.1,2.2-.4l.3,1.3c-.7.3-1.6.5-2.7.5-2.5,0-4-1.6-4-3.9s1.3-4.2,3.8-4.2,3.4,2.1,3.4,3.8,0,.7,0,.8h-5.2ZM25.5,173.2c0-.7-.3-1.9-1.6-1.9s-1.7,1.1-1.8,1.9h3.4Z"/>
      <path class="st18" d="M30.2,170.1l1.3,4c.2.7.4,1.3.5,2h0c.1-.6.3-1.2.5-2l1.2-4h2.1l-3,7.8h-1.9l-2.9-7.8h2.1Z"/>
      <path class="st18" d="M43,176c0,.7,0,1.4.1,1.9h-1.8v-.9h-.2c-.5.6-1.3,1-2.3,1-1.6,0-2.4-1.1-2.4-2.3,0-2,1.7-3,4.6-2.9h0c0-.6-.2-1.5-1.6-1.5s-1.6.2-2.1.6l-.4-1.3c.6-.4,1.6-.7,2.8-.7,2.5,0,3.2,1.6,3.2,3.3v2.8ZM41.1,174.1c-1.4,0-2.7.3-2.7,1.5s.5,1.1,1.1,1.1,1.4-.5,1.6-1.1c0-.1,0-.3,0-.4v-1.1Z"/>
      <path class="st18" d="M45.1,166.5h2v11.4h-2v-11.4Z"/>
      <path class="st18" d="M56.2,175.5c0,.9,0,1.7,0,2.3h-1.7v-1.2h-.1c-.3.5-1.1,1.3-2.5,1.3s-2.7-.8-2.7-3.4v-4.6h2v4.2c0,1.3.4,2.1,1.5,2.1s1.3-.5,1.5-1.1c0-.2.1-.4.1-.6v-4.7h2v5.5Z"/>
      <path class="st18" d="M64.3,176c0,.7,0,1.4.1,1.9h-1.8v-.9h-.2c-.5.6-1.3,1-2.3,1-1.6,0-2.4-1.1-2.4-2.3,0-2,1.7-3,4.6-2.9h0c0-.6-.2-1.5-1.6-1.5s-1.6.2-2.1.6l-.4-1.3c.6-.4,1.6-.7,2.8-.7,2.5,0,3.2,1.6,3.2,3.3v2.8ZM62.4,174.1c-1.4,0-2.7.3-2.7,1.5s.5,1.1,1.1,1.1,1.4-.5,1.6-1.1c0-.1,0-.3,0-.4v-1.1Z"/>
      <path class="st18" d="M68.6,168.1v2h1.9v1.5h-1.9v3.4c0,1,.3,1.4,1,1.4s.5,0,.8,0v1.5c-.3.1-.8.2-1.4.2s-1.3-.2-1.7-.6c-.4-.4-.6-1.2-.6-2.2v-3.7h-1.1v-1.5h1.1v-1.5l1.9-.5Z"/>
      <path class="st18" d="M73.2,174.5c0,1.4,1.1,2,2.4,2s1.6-.1,2.2-.4l.3,1.3c-.7.3-1.6.5-2.7.5-2.5,0-4-1.6-4-3.9s1.3-4.2,3.8-4.2,3.4,2.1,3.4,3.8,0,.7,0,.8h-5.2ZM76.7,173.2c0-.7-.3-1.9-1.6-1.9s-1.7,1.1-1.8,1.9h3.4Z"/>
    </g>
    <rect class="st16" x="7.2" y="193.4" width="81.9" height="45.4" rx="4" ry="4"/>
    <g>
      <path class="st18" d="M31.6,207.1c0-.7,0-1.2,0-1.8h.7v1.4h0c.5-.9,1.2-1.5,2.5-1.5s1.9.7,2.2,1.7h0c.2-.5.5-.8.8-1,.5-.4,1-.6,1.8-.6s2.5.4,2.5,3.3v4.5h-.8v-4.5c0-1.7-.7-2.8-2-2.8s-1.7.7-2,1.5c0,.2-.1.5-.1.8v4.9h-.8v-4.8c0-1.4-.7-2.4-1.9-2.4s-1.8.8-2.1,1.7c0,.2-.1.5-.1.7v4.7h-.8v-5.8Z"/>
      <path class="st18" d="M44.8,209c0,2.4,1.3,3.4,2.9,3.4s1.7-.2,2.1-.4l.2.6c-.3.2-1.1.5-2.4.5-2.2,0-3.6-1.6-3.6-3.9s1.5-4.2,3.5-4.2,3,2.4,3,3.5,0,.3,0,.5h-5.7ZM49.7,208.4c0-1.1-.4-2.7-2.3-2.7s-2.4,1.5-2.6,2.7h4.9Z"/>
      <path class="st18" d="M53.5,203.5v1.7h2.2v.6h-2.2v5c0,1,.3,1.6,1.1,1.6s.7,0,.9-.1v.6c-.2.1-.5.2-1,.2s-1-.2-1.3-.5c-.4-.4-.5-1.1-.5-1.8v-4.8h-1.3v-.6h1.3v-1.4l.8-.3Z"/>
      <path class="st18" d="M62.2,211.1c0,.6,0,1.2.1,1.8h-.7v-1.1h-.1c-.4.6-1.2,1.3-2.5,1.3s-2.3-1.1-2.3-2.1c0-1.8,1.6-2.8,4.7-2.8v-.2c0-.8-.1-2.3-2-2.3-.7,0-1.4.2-1.9.6l-.2-.6c.7-.5,1.6-.7,2.3-.7,2.2,0,2.7,1.7,2.7,3v3ZM61.4,208.8c-1.7,0-3.9.2-3.9,2s.7,1.6,1.5,1.6c1.3,0,2-.8,2.3-1.5,0-.2,0-.3,0-.5v-1.6Z"/>
      <path class="st18" d="M67.7,208.2v.7h-3.8v-.7h3.8Z"/>
    </g>
    <g>
      <path class="st18" d="M27.6,227.8h0c-.5.8-1.3,1.2-2.4,1.2-1.8,0-3.3-1.5-3.3-4s1.8-4.2,3.5-4.2,1.9.5,2.3,1.2h0s0-1,0-1h1.9c0,.7,0,1.4,0,2.3v8.7h-2v-4.2ZM27.6,224.3c0-.2,0-.3,0-.5-.2-.7-.8-1.4-1.7-1.4-1.3,0-2,1.1-2,2.5s.7,2.5,1.9,2.5,1.5-.5,1.7-1.3c0-.2,0-.4,0-.6v-1.3Z"/>
      <path class="st18" d="M38.6,226.6c0,.9,0,1.7,0,2.3h-1.7v-1.2h-.1c-.3.5-1.1,1.3-2.5,1.3s-2.7-.8-2.7-3.4v-4.6h2v4.2c0,1.3.4,2.1,1.5,2.1s1.3-.5,1.5-1.1c0-.2.1-.4.1-.6v-4.7h2v5.5Z"/>
      <path class="st18" d="M48.2,224.9c0,2.9-2,4.1-4,4.1s-3.9-1.5-3.9-4,1.7-4.1,4-4.1,3.9,1.6,3.9,4ZM42.3,225c0,1.5.8,2.6,1.9,2.6s1.9-1.1,1.9-2.7-.5-2.6-1.9-2.6-2,1.4-2,2.7Z"/>
      <path class="st18" d="M49.8,223.6c0-1.1,0-1.8,0-2.5h1.7v1.5h.1c.4-1.1,1.3-1.6,2.1-1.6s.3,0,.5,0v1.8c-.2,0-.4,0-.6,0-.9,0-1.6.6-1.8,1.5,0,.2,0,.4,0,.6v4h-2v-5.3Z"/>
      <path class="st18" d="M62.5,226.6c0,.9,0,1.7,0,2.3h-1.7v-1.2h-.1c-.3.5-1.1,1.3-2.5,1.3s-2.7-.8-2.7-3.4v-4.6h2v4.2c0,1.3.4,2.1,1.5,2.1s1.3-.5,1.5-1.1c0-.2.1-.4.1-.6v-4.7h2v5.5Z"/>
      <path class="st18" d="M64.6,223.4c0-.9,0-1.6,0-2.3h1.7v1.2h.1c.4-.6,1.1-1.3,2.4-1.3s1.8.6,2.2,1.4h0c.3-.4.6-.8.9-1,.4-.3.9-.5,1.6-.5,1.3,0,2.6.9,2.6,3.4v4.6h-1.9v-4.3c0-1.3-.4-2.1-1.4-2.1s-1.2.5-1.4,1c0,.2,0,.4,0,.7v4.7h-1.9v-4.5c0-1.1-.4-1.9-1.3-1.9s-1.2.6-1.4,1.1c0,.2,0,.4,0,.7v4.6h-1.9v-5.5Z"/>
    </g>
    <rect class="st16" x="7.2" y="309.7" width="81.9" height="45.4" rx="4" ry="4"/>
    <g>
      <path class="st18" d="M31.3,323.3c0-.7,0-1.2,0-1.8h.7v1.4h0c.5-.9,1.2-1.5,2.5-1.5s1.9.7,2.2,1.7h0c.2-.5.5-.8.8-1,.5-.4,1-.6,1.8-.6s2.5.4,2.5,3.3v4.5h-.8v-4.5c0-1.7-.7-2.8-2-2.8s-1.7.7-2,1.5c0,.2-.1.5-.1.8v4.9h-.8v-4.8c0-1.4-.7-2.4-1.9-2.4s-1.8.8-2.1,1.7c0,.2-.1.5-.1.7v4.7h-.8v-5.8Z"/>
      <path class="st18" d="M44.5,325.2c0,2.4,1.3,3.4,2.9,3.4s1.7-.2,2.1-.4l.2.6c-.3.2-1.1.5-2.4.5-2.2,0-3.6-1.6-3.6-3.9s1.5-4.2,3.5-4.2,3,2.4,3,3.5,0,.3,0,.5h-5.7ZM49.4,324.6c0-1.1-.4-2.7-2.3-2.7s-2.4,1.5-2.6,2.7h4.9Z"/>
      <path class="st18" d="M53.2,319.7v1.7h2.2v.6h-2.2v5c0,1,.3,1.6,1.1,1.6s.7,0,.9-.1v.6c-.2.1-.5.2-1,.2s-1-.2-1.3-.5c-.4-.4-.5-1.1-.5-1.8v-4.9h-1.3v-.6h1.3v-1.4l.8-.3Z"/>
      <path class="st18" d="M61.8,327.3c0,.6,0,1.2.1,1.8h-.7v-1.1h-.1c-.4.6-1.2,1.3-2.5,1.3s-2.3-1.1-2.3-2.1c0-1.8,1.6-2.8,4.7-2.8v-.2c0-.8-.1-2.3-2-2.3-.7,0-1.4.2-1.9.6l-.2-.6c.7-.5,1.6-.7,2.3-.7,2.2,0,2.7,1.7,2.7,3v3ZM61.1,325c-1.7,0-3.9.2-3.9,2s.7,1.6,1.5,1.6c1.3,0,2-.8,2.3-1.5,0-.2,0-.3,0-.5v-1.6Z"/>
      <path class="st18" d="M67.3,324.4v.7h-3.8v-.7h3.8Z"/>
    </g>
    <g>
      <path class="st18" d="M27.4,343.3c.4.3,1.3.6,2,.6s1.2-.4,1.2-.9-.3-.8-1.3-1.1c-1.5-.5-2.1-1.3-2.1-2.3,0-1.4,1.1-2.4,2.9-2.4s1.6.2,2.1.5l-.4,1.4c-.3-.2-1-.4-1.6-.4s-1.1.4-1.1.8.4.7,1.4,1.1c1.4.5,2.1,1.2,2.1,2.4,0,1.4-1.1,2.4-3.2,2.4s-1.8-.2-2.4-.5l.4-1.4Z"/>
      <path class="st18" d="M35.5,341.8c0,1.4,1.1,2,2.4,2s1.6-.1,2.2-.4l.3,1.3c-.7.3-1.6.5-2.7.5-2.5,0-4-1.6-4-3.9s1.3-4.2,3.8-4.2,3.4,2.1,3.4,3.8,0,.7,0,.8h-5.2ZM39,340.4c0-.7-.3-1.9-1.6-1.9s-1.7,1.1-1.8,1.9h3.4Z"/>
      <path class="st18" d="M48.4,343.2c0,.7,0,1.4.1,1.9h-1.8v-.9h-.2c-.5.6-1.3,1-2.3,1-1.6,0-2.4-1.1-2.4-2.3,0-2,1.7-3,4.6-2.9h0c0-.6-.2-1.5-1.6-1.5s-1.6.2-2.1.6l-.4-1.3c.6-.4,1.6-.7,2.8-.7,2.5,0,3.2,1.6,3.2,3.3v2.8ZM46.5,341.3c-1.4,0-2.7.3-2.7,1.5s.5,1.1,1.1,1.1,1.4-.5,1.6-1.1c0-.1,0-.3,0-.4v-1.1Z"/>
      <path class="st18" d="M50.5,339.8c0-1.1,0-1.8,0-2.5h1.7v1.5h.1c.4-1.1,1.3-1.6,2.1-1.6s.3,0,.5,0v1.8c-.2,0-.4,0-.6,0-.9,0-1.6.6-1.8,1.5,0,.2,0,.4,0,.6v4h-2v-5.3Z"/>
      <path class="st18" d="M61.8,344.9c-.4.2-1.2.4-2.2.4-2.4,0-4-1.6-4-4s1.6-4.1,4.3-4.1,1.5.2,1.9.4l-.4,1.5c-.3-.2-.8-.3-1.5-.3-1.5,0-2.4,1.1-2.4,2.5,0,1.6,1,2.5,2.4,2.5s1.2-.1,1.6-.3l.3,1.5Z"/>
      <path class="st18" d="M63.3,333.8h2v4.6h0c.2-.4.6-.7,1-.9.4-.2.9-.4,1.4-.4,1.3,0,2.7.9,2.7,3.4v4.6h-2v-4.4c0-1.1-.4-2-1.5-2s-1.3.5-1.5,1.1c0,.2,0,.4,0,.6v4.7h-2v-11.4Z"/>
    </g>
    <rect class="st16" x="7.2" y="91.4" width="81.9" height="45.4" rx="4" ry="4"/>
    <g>
      <path class="st18" d="M30.8,105c0-.7,0-1.2,0-1.8h.7v1.4h0c.5-.9,1.2-1.5,2.5-1.5s1.9.7,2.2,1.7h0c.2-.5.5-.8.8-1,.5-.4,1-.6,1.8-.6s2.5.4,2.5,3.3v4.5h-.8v-4.5c0-1.7-.7-2.8-2-2.8s-1.7.7-2,1.5c0,.2-.1.5-.1.8v4.9h-.8v-4.8c0-1.4-.7-2.4-1.9-2.4s-1.8.8-2.1,1.7c0,.2-.1.5-.1.7v4.7h-.8v-5.8Z"/>
      <path class="st18" d="M44,106.9c0,2.4,1.3,3.4,2.9,3.4s1.7-.2,2.1-.4l.2.6c-.3.2-1.1.5-2.4.5-2.2,0-3.6-1.6-3.6-3.9s1.5-4.2,3.5-4.2,3,2.4,3,3.5,0,.3,0,.5h-5.7ZM48.9,106.3c0-1.1-.4-2.7-2.3-2.7s-2.4,1.5-2.6,2.7h4.9Z"/>
      <path class="st18" d="M52.7,101.5v1.7h2.2v.6h-2.2v5c0,1,.3,1.6,1.1,1.6s.7,0,.9-.1v.6c-.2.1-.5.2-1,.2s-1-.2-1.3-.5c-.4-.4-.5-1.1-.5-1.8v-4.8h-1.3v-.6h1.3v-1.4l.8-.3Z"/>
      <path class="st18" d="M61.4,109c0,.6,0,1.2.1,1.8h-.7v-1.1h-.1c-.4.6-1.2,1.3-2.5,1.3s-2.3-1.1-2.3-2.1c0-1.8,1.6-2.8,4.7-2.8v-.2c0-.8-.1-2.3-2-2.3-.7,0-1.4.2-1.9.6l-.2-.6c.7-.5,1.6-.7,2.3-.7,2.2,0,2.7,1.7,2.7,3v3ZM60.6,106.7c-1.7,0-3.9.2-3.9,2s.7,1.6,1.5,1.6c1.3,0,2-.8,2.3-1.5,0-.2,0-.3,0-.5v-1.6Z"/>
      <path class="st18" d="M66.8,106.1v.7h-3.8v-.7h3.8Z"/>
    </g>
    <g>
      <path class="st18" d="M36.2,119.1l.8,3.5c.2.8.4,1.7.5,2.5h0c.2-.8.4-1.7.6-2.5l1-3.6h1.6l1,3.5c.2.9.4,1.8.6,2.6h0c.1-.8.3-1.7.5-2.6l.9-3.5h1.9l-2.4,7.8h-1.8l-.9-3.2c-.2-.8-.4-1.6-.6-2.5h0c-.2,1-.4,1.7-.6,2.5l-1,3.2h-1.8l-2.3-7.8h2Z"/>
      <path class="st18" d="M47,115.5h2v4.6h0c.2-.4.6-.7,1-.9.4-.2.9-.4,1.4-.4,1.3,0,2.7.9,2.7,3.4v4.6h-2v-4.4c0-1.1-.4-2-1.5-2s-1.3.5-1.5,1.1c0,.2,0,.4,0,.6v4.7h-2v-11.4Z"/>
      <path class="st18" d="M57.1,119.1l1.4,4.2c.2.5.3,1.1.4,1.5h0c.1-.4.3-1,.4-1.5l1.2-4.2h2.1l-2,5.3c-1.1,2.9-1.8,4.2-2.7,5-.8.7-1.6.9-2.1,1l-.4-1.6c.3,0,.7-.3,1.1-.5.4-.2.8-.7,1.1-1.2,0-.1.1-.3.1-.4s0-.2,0-.4l-2.9-7.2h2.2Z"/>
    </g>
    <rect class="st16" x="7.2" y="258.6" width="81.9" height="45.4" rx="4" ry="4"/>
    <g>
      <path class="st18" d="M30.8,272.3c0-.7,0-1.2,0-1.8h.7v1.4h0c.5-.9,1.2-1.5,2.5-1.5s1.9.7,2.2,1.7h0c.2-.5.5-.8.8-1,.5-.4,1-.6,1.8-.6s2.5.4,2.5,3.3v4.5h-.8v-4.4c0-1.7-.7-2.8-2-2.8s-1.7.7-2,1.5c0,.2-.1.5-.1.8v4.9h-.8v-4.8c0-1.4-.7-2.4-1.9-2.4s-1.8.8-2.1,1.7c0,.2-.1.5-.1.7v4.7h-.8v-5.8Z"/>
      <path class="st18" d="M44,274.2c0,2.4,1.3,3.4,2.9,3.4s1.7-.2,2.1-.4l.2.6c-.3.2-1.1.5-2.4.5-2.2,0-3.6-1.6-3.6-3.9s1.5-4.2,3.5-4.2,3,2.4,3,3.5,0,.3,0,.5h-5.7ZM48.9,273.6c0-1.1-.4-2.7-2.3-2.7s-2.4,1.5-2.6,2.7h4.9Z"/>
      <path class="st18" d="M52.7,268.7v1.7h2.2v.6h-2.2v5c0,1,.3,1.6,1.1,1.6s.7,0,.9-.1v.6c-.2.1-.5.2-1,.2s-1-.2-1.3-.5c-.4-.4-.5-1.1-.5-1.8v-4.9h-1.3v-.6h1.3v-1.4l.8-.3Z"/>
      <path class="st18" d="M61.4,276.3c0,.6,0,1.2.1,1.8h-.7v-1.1h-.1c-.4.6-1.2,1.3-2.5,1.3s-2.3-1.1-2.3-2.1c0-1.8,1.6-2.8,4.7-2.8v-.2c0-.8-.1-2.3-2-2.3-.7,0-1.4.2-1.9.6l-.2-.6c.7-.5,1.6-.7,2.3-.7,2.2,0,2.7,1.7,2.7,3v3ZM60.6,274c-1.7,0-3.9.2-3.9,2s.7,1.6,1.5,1.6c1.3,0,2-.8,2.3-1.5,0-.2,0-.3,0-.5v-1.6Z"/>
      <path class="st18" d="M66.9,273.4v.7h-3.8v-.7h3.8Z"/>
    </g>
    <g>
      <path class="st18" d="M40.2,293.9c-.4.2-1.2.4-2.2.4-2.4,0-4-1.6-4-4s1.6-4.1,4.3-4.1,1.5.2,1.9.4l-.4,1.5c-.3-.2-.8-.3-1.5-.3-1.5,0-2.4,1.1-2.4,2.5,0,1.6,1,2.5,2.4,2.5s1.2-.1,1.6-.3l.3,1.5Z"/>
      <path class="st18" d="M41.7,282.7h2v4.6h0c.2-.4.6-.7,1-.9.4-.2.9-.4,1.4-.4,1.3,0,2.7.9,2.7,3.4v4.6h-2v-4.4c0-1.1-.4-2-1.5-2s-1.3.5-1.5,1.1c0,.2,0,.4,0,.6v4.7h-2v-11.4Z"/>
      <path class="st18" d="M56.9,292.2c0,.7,0,1.4.1,1.9h-1.8v-.9h-.2c-.5.6-1.3,1-2.3,1-1.6,0-2.4-1.1-2.4-2.3,0-2,1.7-3,4.6-2.9h0c0-.6-.2-1.5-1.6-1.5s-1.6.2-2.1.6l-.4-1.3c.6-.4,1.6-.7,2.8-.7,2.5,0,3.2,1.6,3.2,3.3v2.8ZM54.9,290.3c-1.4,0-2.7.3-2.7,1.5s.5,1.1,1.1,1.1,1.4-.5,1.6-1.1c0-.1,0-.3,0-.4v-1.1Z"/>
      <path class="st18" d="M61.1,284.3v2h1.9v1.5h-1.9v3.4c0,1,.3,1.4,1,1.4s.5,0,.8,0v1.5c-.3.1-.8.2-1.4.2s-1.3-.2-1.7-.6c-.4-.4-.6-1.2-.6-2.2v-3.7h-1.1v-1.5h1.1v-1.5l1.9-.5Z"/>
    </g>
    <rect class="st16" x="734.6" y="258.6" width="79.4" height="45.4" rx="4" ry="4"/>
    <g>
      <path class="st18" d="M760.3,277.8c-.3.2-1.1.5-2.3.5-2.2,0-3.7-1.6-3.7-3.9s1.7-4.1,4-4.1,1.7.3,2,.5l-.3.6c-.4-.2-1-.4-1.8-.4-2.1,0-3.1,1.6-3.1,3.4s1.3,3.3,3,3.3,1.5-.3,1.9-.4l.2.6Z"/>
      <path class="st18" d="M768.8,274.2c0,2.9-2,4.1-3.7,4.1s-3.5-1.6-3.5-4,1.7-4.1,3.6-4.1,3.6,1.6,3.6,3.9ZM762.3,274.3c0,1.9,1.2,3.4,2.8,3.4s2.9-1.4,2.9-3.4-.8-3.3-2.8-3.3-2.8,1.7-2.8,3.4Z"/>
      <path class="st18" d="M776.8,266.7v9.6c0,.6,0,1.2,0,1.8h-.7v-1.5h0c-.4.8-1.3,1.6-2.7,1.6s-3.3-1.6-3.3-3.9c0-2.6,1.6-4.2,3.5-4.2s2.2.7,2.5,1.4h0v-4.9h.8ZM776.1,273.5c0-.2,0-.5,0-.7-.3-1-1.2-1.9-2.4-1.9s-2.7,1.5-2.7,3.4.9,3.3,2.7,3.3,2.1-.7,2.5-2c0-.2,0-.4,0-.6v-1.5Z"/>
      <path class="st18" d="M779.5,274.2c0,2.4,1.3,3.4,2.9,3.4s1.7-.2,2.1-.4l.2.6c-.3.2-1.1.5-2.4.5-2.2,0-3.6-1.6-3.6-3.9s1.5-4.2,3.5-4.2,3,2.4,3,3.5,0,.3,0,.5h-5.7ZM784.4,273.6c0-1.1-.4-2.7-2.3-2.7s-2.4,1.5-2.6,2.7h4.9Z"/>
      <path class="st18" d="M790.6,273.4v.7h-3.8v-.7h3.8Z"/>
    </g>
    <g>
      <path class="st18" d="M762,282.7h2v11.4h-2v-11.4Z"/>
      <path class="st18" d="M768.2,284.1c0,.6-.4,1.1-1.1,1.1s-1.1-.5-1.1-1.1.4-1.1,1.1-1.1,1.1.5,1.1,1.1ZM766.1,294.1v-7.8h2v7.8h-2Z"/>
      <path class="st18" d="M770.2,288.6c0-.9,0-1.6,0-2.3h1.7v1.2h.1c.4-.6,1.2-1.3,2.5-1.3s2.8.9,2.8,3.3v4.6h-2v-4.4c0-1.1-.4-2-1.5-2s-1.3.6-1.5,1.2c0,.2,0,.4,0,.6v4.6h-2v-5.5Z"/>
      <path class="st18" d="M781.6,284.3v2h1.9v1.5h-1.9v3.4c0,1,.3,1.4,1,1.4s.5,0,.8,0v1.5c-.3.1-.8.2-1.4.2s-1.3-.2-1.7-.6c-.4-.4-.6-1.2-.6-2.2v-3.7h-1.1v-1.5h1.1v-1.5l1.9-.5Z"/>
    </g>
    <rect class="st16" x="415.1" y="505.2" width="103.6" height="45.4" rx="4" ry="4"/>
    <g>
      <path class="st18" d="M421.4,527.7c0-.7,0-1.2,0-1.8h.7v1.4h0c.5-.9,1.2-1.5,2.5-1.5s1.9.7,2.2,1.7h0c.2-.5.5-.8.8-1,.5-.4,1-.6,1.8-.6s2.5.4,2.5,3.3v4.5h-.8v-4.5c0-1.7-.7-2.8-2-2.8s-1.7.7-2,1.5c0,.2-.1.5-.1.8v4.9h-.8v-4.8c0-1.4-.7-2.4-1.9-2.4s-1.8.8-2.1,1.7c0,.2-.1.5-.1.7v4.7h-.8v-5.8Z"/>
      <path class="st18" d="M434.6,529.7c0,2.4,1.3,3.4,2.9,3.4s1.7-.2,2.1-.4l.2.6c-.3.2-1.1.5-2.4.5-2.2,0-3.6-1.6-3.6-3.9s1.5-4.2,3.5-4.2,3,2.4,3,3.5,0,.3,0,.5h-5.7ZM439.5,529.1c0-1.1-.4-2.7-2.3-2.7s-2.4,1.5-2.6,2.7h4.9Z"/>
      <path class="st18" d="M443.3,524.2v1.7h2.2v.6h-2.2v5c0,1,.3,1.6,1.1,1.6s.7,0,.9-.1v.6c-.2.1-.5.2-1,.2s-1-.2-1.3-.5c-.4-.4-.5-1.1-.5-1.8v-4.9h-1.3v-.6h1.3v-1.4l.8-.3Z"/>
      <path class="st18" d="M452,531.8c0,.6,0,1.2.1,1.8h-.7v-1.1h-.1c-.4.6-1.2,1.3-2.5,1.3s-2.3-1.1-2.3-2.1c0-1.8,1.6-2.8,4.7-2.8v-.2c0-.8-.1-2.3-2-2.3-.7,0-1.4.2-1.9.6l-.2-.6c.7-.5,1.6-.7,2.3-.7,2.2,0,2.7,1.7,2.7,3v3ZM451.2,529.5c-1.7,0-3.9.2-3.9,2s.7,1.6,1.5,1.6c1.3,0,2-.8,2.3-1.5,0-.2,0-.3,0-.5v-1.6Z"/>
      <path class="st18" d="M457.4,528.8v.7h-3.8v-.7h3.8Z"/>
    </g>
    <g>
      <path class="st18" d="M459,528.4c0-1,0-1.9,0-2.6h1.7v1.2h.1c.6-.9,1.5-1.4,2.7-1.4,1.8,0,3.3,1.5,3.3,4s-1.8,4.2-3.6,4.2-1.8-.4-2.2-1h0v4h-2v-8.4ZM460.9,530.3c0,.2,0,.4,0,.5.2.8.9,1.4,1.7,1.4,1.2,0,2-1,2-2.6s-.7-2.5-1.9-2.5-1.6.6-1.8,1.5c0,.2,0,.3,0,.5v1.2Z"/>
      <path class="st18" d="M469.7,530.2c0,1.4,1.1,2,2.4,2s1.6-.1,2.2-.4l.3,1.3c-.7.3-1.6.5-2.7.5-2.5,0-4-1.6-4-3.9s1.3-4.2,3.8-4.2,3.4,2.1,3.4,3.8,0,.7,0,.8h-5.2ZM473.1,528.9c0-.7-.3-1.9-1.6-1.9s-1.7,1.1-1.8,1.9h3.4Z"/>
      <path class="st18" d="M476.6,528.3c0-1.1,0-1.8,0-2.5h1.7v1.5h.1c.4-1.1,1.3-1.6,2.1-1.6s.3,0,.5,0v1.8c-.2,0-.4,0-.6,0-.9,0-1.6.6-1.8,1.5,0,.2,0,.4,0,.6v4h-2v-5.3Z"/>
      <path class="st18" d="M482.2,531.8c.4.3,1.3.6,2,.6s1.2-.4,1.2-.9-.3-.8-1.3-1.1c-1.5-.5-2.1-1.3-2.1-2.3,0-1.4,1.1-2.4,2.9-2.4s1.6.2,2.1.5l-.4,1.4c-.3-.2-1-.4-1.6-.4s-1.1.4-1.1.8.4.7,1.4,1.1c1.4.5,2.1,1.2,2.1,2.4,0,1.4-1.1,2.4-3.2,2.4s-1.8-.2-2.4-.5l.4-1.4Z"/>
      <path class="st18" d="M496.4,529.6c0,2.9-2,4.1-4,4.1s-3.9-1.5-3.9-4,1.7-4.1,4-4.1,3.9,1.6,3.9,4ZM490.5,529.7c0,1.5.8,2.6,1.9,2.6s1.9-1.1,1.9-2.7-.5-2.6-1.9-2.6-2,1.4-2,2.7Z"/>
      <path class="st18" d="M498,528.1c0-.9,0-1.6,0-2.3h1.7v1.2h.1c.4-.6,1.2-1.3,2.5-1.3s2.8.9,2.8,3.3v4.6h-2v-4.4c0-1.1-.4-2-1.5-2s-1.3.6-1.5,1.2c0,.2,0,.4,0,.6v4.6h-2v-5.5Z"/>
      <path class="st18" d="M513.2,531.7c0,.7,0,1.4.1,1.9h-1.8v-.9h-.2c-.5.6-1.3,1-2.3,1-1.6,0-2.4-1.1-2.4-2.3,0-2,1.7-3,4.6-2.9h0c0-.6-.2-1.5-1.6-1.5s-1.6.2-2.1.6l-.4-1.3c.6-.4,1.6-.7,2.8-.7,2.5,0,3.2,1.6,3.2,3.3v2.8ZM511.2,529.8c-1.4,0-2.7.3-2.7,1.5s.5,1.1,1.1,1.1,1.4-.5,1.6-1.1c0-.1,0-.3,0-.4v-1.1Z"/>
    </g>
    <rect class="st16" x="304.8" y="505.2" width="103.6" height="45.4" rx="4" ry="4"/>
    <g>
      <path class="st18" d="M337.1,524.2v1.7h2.2v.6h-2.2v5c0,1,.3,1.6,1.1,1.6s.7,0,.9-.1v.6c-.2.1-.5.2-1,.2s-1-.2-1.3-.5c-.4-.4-.5-1.1-.5-1.8v-4.9h-1.3v-.6h1.3v-1.4l.8-.3Z"/>
      <path class="st18" d="M345.8,531.8c0,.6,0,1.2.1,1.8h-.7v-1.1h-.1c-.4.6-1.2,1.3-2.5,1.3s-2.3-1.1-2.3-2.1c0-1.8,1.6-2.8,4.7-2.8v-.2c0-.8-.1-2.3-2-2.3-.7,0-1.4.2-1.9.6l-.2-.6c.7-.5,1.6-.7,2.3-.7,2.2,0,2.7,1.7,2.7,3v3ZM345,529.5c-1.7,0-3.9.2-3.9,2s.7,1.6,1.5,1.6c1.3,0,2-.8,2.3-1.5,0-.2,0-.3,0-.5v-1.6Z"/>
      <path class="st18" d="M347.9,532.6c.4.3,1,.5,1.7.5,1.2,0,1.8-.7,1.8-1.5s-.5-1.3-1.6-1.7c-1.3-.5-2-1.2-2-2.1s.9-2.1,2.4-2.1,1.3.2,1.7.5l-.3.6c-.3-.2-.8-.5-1.5-.5s-1.5.6-1.5,1.3.5,1.2,1.6,1.6c1.2.5,2,1.1,2,2.3s-1,2.2-2.6,2.2-1.4-.2-2-.5l.3-.6Z"/>
      <path class="st18" d="M355,529.6h0c.2-.2.5-.6.7-.8l2.7-2.8h.9l-3.1,3.2,3.5,4.5h-.9l-3.1-4-.8.8v3.2h-.8v-11.4h.8v7.4Z"/>
      <path class="st18" d="M363.8,528.8v.7h-3.8v-.7h3.8Z"/>
    </g>
    <g>
      <path class="st18" d="M367.4,523.6c0,.6-.4,1.1-1.1,1.1s-1.1-.5-1.1-1.1.4-1.1,1.1-1.1,1.1.5,1.1,1.1ZM365.3,533.6v-7.8h2v7.8h-2Z"/>
      <path class="st18" d="M376.6,522.2v9.2c0,.8,0,1.7,0,2.2h-1.7v-1.2h-.1c-.5.9-1.4,1.4-2.5,1.4-1.9,0-3.3-1.6-3.3-4,0-2.6,1.6-4.2,3.5-4.2s1.8.4,2.2,1h0v-4.4h2ZM374.6,529c0-.2,0-.4,0-.5-.2-.8-.8-1.4-1.7-1.4s-2,1.1-2,2.6.7,2.5,2,2.5,1.5-.5,1.7-1.4c0-.2,0-.4,0-.6v-1.2Z"/>
    </g>
    <rect class="st16" x="734.6" y="193.4" width="79.4" height="45.4" rx="4" ry="4"/>
    <g>
      <path class="st18" d="M755.7,207.1c0-.7,0-1.2,0-1.8h.7v1.4h0c.5-.9,1.2-1.5,2.5-1.5s1.9.7,2.2,1.7h0c.2-.5.5-.8.8-1,.5-.4,1-.6,1.8-.6s2.5.4,2.5,3.3v4.5h-.8v-4.5c0-1.7-.7-2.8-2-2.8s-1.7.7-2,1.5c0,.2-.1.5-.1.8v4.9h-.8v-4.8c0-1.4-.7-2.4-1.9-2.4s-1.8.8-2.1,1.7c0,.2-.1.5-.1.7v4.7h-.8v-5.8Z"/>
      <path class="st18" d="M768.9,209c0,2.4,1.3,3.4,2.9,3.4s1.7-.2,2.1-.4l.2.6c-.3.2-1.1.5-2.4.5-2.2,0-3.6-1.6-3.6-3.9s1.5-4.2,3.5-4.2,3,2.4,3,3.5,0,.3,0,.5h-5.7ZM773.8,208.4c0-1.1-.4-2.7-2.3-2.7s-2.4,1.5-2.6,2.7h4.9Z"/>
      <path class="st18" d="M777.6,203.5v1.7h2.2v.6h-2.2v5c0,1,.3,1.6,1.1,1.6s.7,0,.9-.1v.6c-.2.1-.5.2-1,.2s-1-.2-1.3-.5c-.4-.4-.5-1.1-.5-1.8v-4.8h-1.3v-.6h1.3v-1.4l.8-.3Z"/>
      <path class="st18" d="M786.3,211.1c0,.6,0,1.2.1,1.8h-.7v-1.1h-.1c-.4.6-1.2,1.3-2.5,1.3s-2.3-1.1-2.3-2.1c0-1.8,1.6-2.8,4.7-2.8v-.2c0-.8-.1-2.3-2-2.3-.7,0-1.4.2-1.9.6l-.2-.6c.7-.5,1.6-.7,2.3-.7,2.2,0,2.7,1.7,2.7,3v3ZM785.5,208.8c-1.7,0-3.9.2-3.9,2s.7,1.6,1.5,1.6c1.3,0,2-.8,2.3-1.5,0-.2,0-.3,0-.5v-1.6Z"/>
      <path class="st18" d="M791.8,208.2v.7h-3.8v-.7h3.8Z"/>
    </g>
    <g>
      <path class="st18" d="M752.7,217.5v9.2c0,.8,0,1.7,0,2.2h-1.7v-1.2h-.1c-.5.9-1.4,1.4-2.5,1.4-1.9,0-3.3-1.6-3.3-4,0-2.6,1.6-4.2,3.5-4.2s1.8.4,2.2,1h0v-4.4h2ZM750.7,224.4c0-.2,0-.4,0-.5-.2-.8-.8-1.4-1.7-1.4s-2,1.1-2,2.6.7,2.5,2,2.5,1.5-.5,1.7-1.4c0-.2,0-.4,0-.6v-1.2Z"/>
      <path class="st18" d="M756.9,218.9c0,.6-.4,1.1-1.1,1.1s-1.1-.5-1.1-1.1.4-1.1,1.1-1.1,1.1.5,1.1,1.1ZM754.8,228.9v-7.8h2v7.8h-2Z"/>
      <path class="st18" d="M764.9,227c0,.7,0,1.4.1,1.9h-1.8v-.9h-.2c-.5.6-1.3,1-2.3,1-1.6,0-2.4-1.1-2.4-2.3,0-2,1.7-3,4.6-2.9h0c0-.6-.2-1.5-1.6-1.5s-1.6.2-2.1.6l-.4-1.3c.6-.4,1.6-.7,2.8-.7,2.5,0,3.2,1.6,3.2,3.3v2.8ZM763,225.1c-1.4,0-2.7.3-2.7,1.5s.5,1.1,1.1,1.1,1.4-.5,1.6-1.1c0-.1,0-.3,0-.4v-1.1Z"/>
      <path class="st18" d="M774,227.8c0,1.6-.3,2.8-1.2,3.5-.8.7-1.9.9-3,.9s-2-.2-2.7-.6l.4-1.5c.5.3,1.3.6,2.3.6s2.2-.7,2.2-2.4v-.7h0c-.4.7-1.2,1.2-2.3,1.2-1.9,0-3.3-1.6-3.3-3.8s1.7-4.1,3.5-4.1,1.9.6,2.3,1.2h0v-1h1.8c0,.5,0,1.2,0,2.2v4.4ZM772.1,224.2c0-.2,0-.4,0-.5-.2-.7-.8-1.3-1.6-1.3s-1.9,1-1.9,2.5.7,2.4,1.9,2.4,1.4-.5,1.6-1.2c0-.2,0-.5,0-.7v-1.3Z"/>
      <path class="st18" d="M776.1,223.6c0-1.1,0-1.8,0-2.5h1.7v1.5h.1c.4-1.1,1.3-1.6,2.1-1.6s.3,0,.5,0v1.8c-.2,0-.4,0-.6,0-.9,0-1.6.6-1.8,1.5,0,.2,0,.4,0,.6v4h-2v-5.3Z"/>
      <path class="st18" d="M787.7,227c0,.7,0,1.4.1,1.9h-1.8v-.9h-.2c-.5.6-1.3,1-2.3,1-1.6,0-2.4-1.1-2.4-2.3,0-2,1.7-3,4.6-2.9h0c0-.6-.2-1.5-1.6-1.5s-1.6.2-2.1.6l-.4-1.3c.6-.4,1.6-.7,2.8-.7,2.5,0,3.2,1.6,3.2,3.3v2.8ZM785.8,225.1c-1.4,0-2.7.3-2.7,1.5s.5,1.1,1.1,1.1,1.4-.5,1.6-1.1c0-.1,0-.3,0-.4v-1.1Z"/>
      <path class="st18" d="M789.8,223.4c0-.9,0-1.6,0-2.3h1.7v1.2h.1c.4-.6,1.1-1.3,2.4-1.3s1.8.6,2.2,1.4h0c.3-.4.6-.8.9-1,.4-.3.9-.5,1.6-.5,1.3,0,2.6.9,2.6,3.4v4.6h-1.9v-4.3c0-1.3-.4-2.1-1.4-2.1s-1.2.5-1.4,1c0,.2,0,.4,0,.7v4.7h-1.9v-4.5c0-1.1-.4-1.9-1.3-1.9s-1.2.6-1.4,1.1c0,.2,0,.4,0,.7v4.6h-1.9v-5.5Z"/>
    </g>
    <rect class="st16" x="734.6" y="360.7" width="79.4" height="45.4" rx="4" ry="4"/>
    <g>
      <path class="st18" d="M755.7,374.3c0-.7,0-1.2,0-1.8h.7v1.4h0c.5-.9,1.2-1.5,2.5-1.5s1.9.7,2.2,1.7h0c.2-.5.5-.8.8-1,.5-.4,1-.6,1.8-.6s2.5.4,2.5,3.3v4.5h-.8v-4.4c0-1.7-.7-2.8-2-2.8s-1.7.7-2,1.5c0,.2-.1.5-.1.8v4.9h-.8v-4.8c0-1.4-.7-2.4-1.9-2.4s-1.8.8-2.1,1.7c0,.2-.1.5-.1.7v4.7h-.8v-5.8Z"/>
      <path class="st18" d="M768.9,376.2c0,2.4,1.3,3.4,2.9,3.4s1.7-.2,2.1-.4l.2.6c-.3.2-1.1.5-2.4.5-2.2,0-3.6-1.6-3.6-3.9s1.5-4.2,3.5-4.2,3,2.4,3,3.5,0,.3,0,.5h-5.7ZM773.8,375.6c0-1.1-.4-2.7-2.3-2.7s-2.4,1.5-2.6,2.7h4.9Z"/>
      <path class="st18" d="M777.6,370.8v1.7h2.2v.6h-2.2v5c0,1,.3,1.6,1.1,1.6s.7,0,.9-.1v.6c-.2.1-.5.2-1,.2s-1-.2-1.3-.5c-.4-.4-.5-1.1-.5-1.8v-4.8h-1.3v-.6h1.3v-1.4l.8-.3Z"/>
      <path class="st18" d="M786.3,378.3c0,.6,0,1.2.1,1.8h-.7v-1.1h-.1c-.4.6-1.2,1.3-2.5,1.3s-2.3-1.1-2.3-2.1c0-1.8,1.6-2.8,4.7-2.8v-.2c0-.8-.1-2.3-2-2.3-.7,0-1.4.2-1.9.6l-.2-.6c.7-.5,1.6-.7,2.3-.7,2.2,0,2.7,1.7,2.7,3v3ZM785.5,376c-1.7,0-3.9.2-3.9,2s.7,1.6,1.5,1.6c1.3,0,2-.8,2.3-1.5,0-.2,0-.3,0-.5v-1.6Z"/>
      <path class="st18" d="M791.8,375.4v.7h-3.8v-.7h3.8Z"/>
    </g>
    <g>
      <path class="st18" d="M753.7,395.9c-.4.2-1.2.4-2.2.4-2.4,0-4-1.6-4-4s1.6-4.1,4.3-4.1,1.5.2,1.9.4l-.4,1.5c-.3-.2-.8-.3-1.5-.3-1.5,0-2.4,1.1-2.4,2.5,0,1.6,1,2.5,2.4,2.5s1.2-.1,1.6-.3l.3,1.5Z"/>
      <path class="st18" d="M762.4,392.2c0,2.9-2,4.1-4,4.1s-3.9-1.5-3.9-4,1.7-4.1,4-4.1,3.9,1.6,3.9,4ZM756.5,392.3c0,1.5.8,2.6,1.9,2.6s1.9-1.1,1.9-2.7-.5-2.6-1.9-2.6-2,1.4-2,2.7Z"/>
      <path class="st18" d="M764,390.7c0-.9,0-1.6,0-2.3h1.7v1.2h.1c.4-.6,1.1-1.3,2.4-1.3s1.8.6,2.2,1.4h0c.3-.4.6-.8.9-1,.4-.3.9-.5,1.6-.5,1.3,0,2.6.9,2.6,3.4v4.6h-1.9v-4.3c0-1.3-.4-2.1-1.4-2.1s-1.2.5-1.4,1c0,.2,0,.4,0,.7v4.7h-1.9v-4.5c0-1.1-.4-1.9-1.3-1.9s-1.2.6-1.4,1.1c0,.2,0,.4,0,.7v4.6h-1.9v-5.5Z"/>
      <path class="st18" d="M777.6,390.7c0-.9,0-1.6,0-2.3h1.7v1.2h.1c.4-.6,1.1-1.3,2.4-1.3s1.8.6,2.2,1.4h0c.3-.4.6-.8.9-1,.4-.3.9-.5,1.6-.5,1.3,0,2.6.9,2.6,3.4v4.6h-1.9v-4.3c0-1.3-.4-2.1-1.4-2.1s-1.2.5-1.4,1c0,.2,0,.4,0,.7v4.7h-1.9v-4.5c0-1.1-.4-1.9-1.3-1.9s-1.2.6-1.4,1.1c0,.2,0,.4,0,.7v4.6h-1.9v-5.5Z"/>
      <path class="st18" d="M793.3,386.2c0,.6-.4,1.1-1.1,1.1s-1.1-.5-1.1-1.1.4-1.1,1.1-1.1,1.1.5,1.1,1.1ZM791.2,396.1v-7.8h2v7.8h-2Z"/>
      <path class="st18" d="M797.5,386.4v2h1.9v1.5h-1.9v3.4c0,1,.3,1.4,1,1.4s.5,0,.8,0v1.5c-.3.1-.8.2-1.4.2s-1.3-.2-1.7-.6c-.4-.4-.6-1.2-.6-2.2v-3.7h-1.1v-1.5h1.1v-1.5l1.9-.5Z"/>
    </g>
    <g>
      <path class="st19" d="M24.3,529.3c.5.3,1.1.5,1.9.5,1.1,0,1.7-.6,1.7-1.4s-.4-1.2-1.5-1.6c-1.3-.5-2.1-1.2-2.1-2.3s1-2.2,2.6-2.2,1.4.2,1.8.4l-.3.9c-.3-.2-.8-.4-1.5-.4-1.1,0-1.5.7-1.5,1.2s.5,1.1,1.6,1.6c1.4.5,2.1,1.2,2.1,2.4s-.9,2.3-2.8,2.3-1.6-.2-2.1-.5l.3-.9Z"/>
      <path class="st19" d="M31.9,523.4h-2.5v-.9h6v.9h-2.5v7.2h-1.1v-7.2Z"/>
      <path class="st19" d="M36.7,528l-.8,2.5h-1.1l2.8-8.1h1.2l2.8,8.1h-1.1l-.9-2.5h-2.9ZM39.4,527.2l-.8-2.3c-.2-.5-.3-1-.4-1.5h0c-.1.5-.2,1-.4,1.5l-.8,2.3h2.4Z"/>
      <path class="st19" d="M42.7,530.6v-8.1h1.2l2.6,4.1c.6.9,1.1,1.8,1.4,2.6h0c0-1.1-.1-2.1-.1-3.3v-3.4h1v8.1h-1.1l-2.6-4.1c-.6-.9-1.1-1.8-1.5-2.7h0c0,1,0,2,0,3.3v3.5h-1Z"/>
      <path class="st19" d="M50.6,522.6c.6-.1,1.4-.2,2.2-.2,1.5,0,2.6.4,3.3,1,.7.7,1.2,1.6,1.2,2.9s-.4,2.4-1.2,3.1c-.8.8-2,1.2-3.6,1.2s-1.4,0-1.9,0v-7.9ZM51.7,529.8c.3,0,.6,0,1.1,0,2.2,0,3.4-1.2,3.4-3.4,0-1.9-1.1-3.1-3.3-3.1s-.9,0-1.2.1v6.4Z"/>
      <path class="st19" d="M59.8,528l-.8,2.5h-1.1l2.8-8.1h1.2l2.8,8.1h-1.1l-.9-2.5h-2.9ZM62.4,527.2l-.8-2.3c-.2-.5-.3-1-.4-1.5h0c-.1.5-.2,1-.4,1.5l-.8,2.3h2.4Z"/>
      <path class="st19" d="M65.8,522.5h1.1v7.2h3.5v.9h-4.5v-8.1Z"/>
      <path class="st19" d="M77.9,526.5c0,2.8-1.7,4.3-3.8,4.3s-3.6-1.7-3.6-4.1,1.6-4.2,3.7-4.2,3.6,1.7,3.6,4.1ZM71.7,526.6c0,1.7.9,3.3,2.6,3.3s2.6-1.5,2.6-3.4-.8-3.3-2.6-3.3-2.6,1.6-2.6,3.4Z"/>
      <path class="st19" d="M79.3,530.6v-8.1h1.2l2.6,4.1c.6.9,1.1,1.8,1.4,2.6h0c0-1.1-.1-2.1-.1-3.3v-3.4h1v8.1h-1.1l-2.6-4.1c-.6-.9-1.1-1.8-1.5-2.7h0c0,1,0,2,0,3.3v3.5h-1Z"/>
      <path class="st19" d="M91.4,526.8h-3.1v2.9h3.5v.9h-4.6v-8.1h4.4v.9h-3.3v2.6h3.1v.9Z"/>
      <path class="st19" d="M102.5,527c0-1.1-.1-2.5-.1-3.5h0c-.3.9-.6,2-1,3.1l-1.4,3.9h-.8l-1.3-3.9c-.4-1.2-.7-2.2-.9-3.1h0c0,1,0,2.4-.2,3.6l-.2,3.5h-1l.6-8.1h1.3l1.4,3.9c.3,1,.6,1.9.8,2.7h0c.2-.8.5-1.7.9-2.7l1.4-3.9h1.3l.5,8.1h-1l-.2-3.6Z"/>
      <path class="st19" d="M112.2,526.5c0,2.8-1.7,4.3-3.8,4.3s-3.6-1.7-3.6-4.1,1.6-4.2,3.7-4.2,3.6,1.7,3.6,4.1ZM105.9,526.6c0,1.7.9,3.3,2.6,3.3s2.6-1.5,2.6-3.4-.8-3.3-2.6-3.3-2.6,1.6-2.6,3.4Z"/>
      <path class="st19" d="M113.6,522.6c.6-.1,1.4-.2,2.2-.2,1.5,0,2.6.4,3.3,1,.7.7,1.2,1.6,1.2,2.9s-.4,2.4-1.2,3.1c-.8.8-2,1.2-3.6,1.2s-1.4,0-1.9,0v-7.9ZM114.6,529.8c.3,0,.6,0,1.1,0,2.2,0,3.4-1.2,3.4-3.4,0-1.9-1.1-3.1-3.3-3.1s-.9,0-1.2.1v6.4Z"/>
      <path class="st19" d="M125.7,526.8h-3.1v2.9h3.5v.9h-4.6v-8.1h4.4v.9h-3.3v2.6h3.1v.9Z"/>
    </g>
    <rect class="st20" x="355.8" y="335.8" width="118.4" height="30.3" rx="4" ry="4"/>
    <g>
      <path class="st18" d="M380.6,346.2v1.7h2.2v.6h-2.2v5c0,1,.3,1.6,1.1,1.6s.7,0,.9-.1v.6c-.2.1-.5.2-1,.2s-1-.2-1.3-.5c-.4-.4-.5-1.1-.5-1.8v-4.8h-1.3v-.6h1.3v-1.4l.8-.3Z"/>
      <path class="st18" d="M389.3,353.7c0,.6,0,1.2.1,1.8h-.7v-1.1h-.1c-.4.6-1.2,1.3-2.5,1.3s-2.3-1.1-2.3-2.1c0-1.8,1.6-2.8,4.7-2.8v-.2c0-.8-.1-2.3-2-2.3-.7,0-1.4.2-1.9.6l-.2-.6c.7-.5,1.6-.7,2.3-.7,2.2,0,2.7,1.7,2.7,3v3ZM388.5,351.4c-1.7,0-3.9.2-3.9,2s.7,1.6,1.5,1.6c1.3,0,2-.8,2.3-1.5,0-.2,0-.3,0-.5v-1.6Z"/>
      <path class="st18" d="M391.4,354.5c.4.3,1,.5,1.7.5,1.2,0,1.8-.7,1.8-1.5s-.5-1.3-1.6-1.7c-1.3-.5-2-1.2-2-2.1s.9-2.1,2.4-2.1,1.3.2,1.7.5l-.3.6c-.3-.2-.8-.5-1.5-.5s-1.5.6-1.5,1.3.5,1.2,1.6,1.6c1.2.5,2,1.1,2,2.3s-1,2.2-2.6,2.2-1.4-.2-2-.5l.3-.6Z"/>
      <path class="st18" d="M398.5,351.6h0c.2-.2.5-.6.7-.8l2.7-2.8h.9l-3.1,3.2,3.5,4.5h-.9l-3.1-4-.8.8v3.2h-.8v-11.4h.8v7.4Z"/>
      <path class="st18" d="M407.3,350.8v.7h-3.8v-.7h3.8Z"/>
    </g>
    <g>
      <path class="st18" d="M408.8,350.3c0-1.1,0-1.8,0-2.5h1.7v1.5h.1c.4-1.1,1.3-1.6,2.1-1.6s.3,0,.5,0v1.8c-.2,0-.4,0-.6,0-.9,0-1.6.6-1.8,1.5,0,.2,0,.4,0,.6v4h-2v-5.3Z"/>
      <path class="st18" d="M415.8,352.2c0,1.4,1.1,2,2.4,2s1.6-.1,2.2-.4l.3,1.3c-.7.3-1.6.5-2.7.5-2.5,0-4-1.6-4-3.9s1.3-4.2,3.8-4.2,3.4,2.1,3.4,3.8,0,.7,0,.8h-5.2ZM419.2,350.8c0-.7-.3-1.9-1.6-1.9s-1.7,1.1-1.8,1.9h3.4Z"/>
      <path class="st18" d="M422.6,344.2h2v4.6h0c.5-.8,1.3-1.2,2.5-1.2,1.9,0,3.3,1.6,3.2,4,0,2.8-1.8,4.2-3.5,4.2s-1.9-.4-2.5-1.3h0v1.2h-1.8c0-.5,0-1.4,0-2.2v-9.2ZM424.6,352.3c0,.2,0,.3,0,.5.2.8.9,1.4,1.7,1.4,1.2,0,2-1,2-2.6s-.7-2.5-2-2.5-1.5.6-1.7,1.4c0,.1,0,.3,0,.5v1.3Z"/>
      <path class="st18" d="M439.4,351.6c0,2.9-2,4.1-4,4.1s-3.9-1.5-3.9-4,1.7-4.1,4-4.1,3.9,1.6,3.9,4ZM433.5,351.7c0,1.5.8,2.6,1.9,2.6s1.9-1.1,1.9-2.7-.5-2.6-1.9-2.6-2,1.4-2,2.7Z"/>
      <path class="st18" d="M448.4,351.6c0,2.9-2,4.1-4,4.1s-3.9-1.5-3.9-4,1.7-4.1,4-4.1,3.9,1.6,3.9,4ZM442.6,351.7c0,1.5.8,2.6,1.9,2.6s1.9-1.1,1.9-2.7-.5-2.6-1.9-2.6-2,1.4-2,2.7Z"/>
      <path class="st18" d="M452.3,345.8v2h1.9v1.5h-1.9v3.4c0,1,.3,1.4,1,1.4s.5,0,.8,0v1.5c-.3.1-.8.2-1.4.2s-1.3-.2-1.7-.6c-.4-.4-.6-1.2-.6-2.2v-3.7h-1.1v-1.5h1.1v-1.5l1.9-.5Z"/>
    </g>
    <rect class="st20" x="356.5" y="445.4" width="118.4" height="28.1" rx="4" ry="4"/>
    <g>
      <path class="st18" d="M382.8,454.5v1.7h2.2v.6h-2.2v5c0,1,.3,1.6,1.1,1.6s.7,0,.9-.1v.6c-.2.1-.5.2-1,.2s-1-.2-1.3-.5c-.4-.4-.5-1.1-.5-1.8v-4.8h-1.3v-.6h1.3v-1.4l.8-.3Z"/>
      <path class="st18" d="M391.5,462c0,.6,0,1.2.1,1.8h-.7v-1.1h-.1c-.4.6-1.2,1.3-2.5,1.3s-2.3-1.1-2.3-2.1c0-1.8,1.6-2.8,4.7-2.8v-.2c0-.8-.1-2.3-2-2.3-.7,0-1.4.2-1.9.6l-.2-.6c.7-.5,1.6-.7,2.3-.7,2.2,0,2.7,1.7,2.7,3v3ZM390.7,459.8c-1.7,0-3.9.2-3.9,2s.7,1.6,1.5,1.6c1.3,0,2-.8,2.3-1.5,0-.2,0-.3,0-.5v-1.6Z"/>
      <path class="st18" d="M393.6,462.9c.4.3,1,.5,1.7.5,1.2,0,1.8-.7,1.8-1.5s-.5-1.3-1.6-1.7c-1.3-.5-2-1.2-2-2.1s.9-2.1,2.4-2.1,1.3.2,1.7.5l-.3.6c-.3-.2-.8-.5-1.5-.5s-1.5.6-1.5,1.3.5,1.2,1.6,1.6c1.2.5,2,1.1,2,2.3s-1,2.2-2.6,2.2-1.4-.2-2-.5l.3-.6Z"/>
      <path class="st18" d="M400.7,459.9h0c.2-.2.5-.6.7-.8l2.7-2.8h.9l-3.1,3.2,3.5,4.5h-.9l-3.1-4-.8.8v3.2h-.8v-11.4h.8v7.4Z"/>
      <path class="st18" d="M409.5,459.1v.7h-3.8v-.7h3.8Z"/>
    </g>
    <g>
      <path class="st18" d="M418.2,452.5v9.2c0,.8,0,1.7,0,2.2h-1.7v-1.2h-.1c-.5.9-1.4,1.4-2.5,1.4-1.9,0-3.3-1.6-3.3-4,0-2.6,1.6-4.2,3.5-4.2s1.8.4,2.2,1h0v-4.4h2ZM416.2,459.3c0-.2,0-.4,0-.5-.2-.8-.8-1.4-1.7-1.4s-2,1.1-2,2.6.7,2.5,2,2.5,1.5-.5,1.7-1.4c0-.2,0-.4,0-.6v-1.2Z"/>
      <path class="st18" d="M421.7,460.5c0,1.4,1.1,2,2.4,2s1.6-.1,2.2-.4l.3,1.3c-.7.3-1.6.5-2.7.5-2.5,0-4-1.6-4-3.9s1.3-4.2,3.8-4.2,3.4,2.1,3.4,3.8,0,.7,0,.8h-5.2ZM425.1,459.2c0-.7-.3-1.9-1.6-1.9s-1.7,1.1-1.8,1.9h3.4Z"/>
      <path class="st18" d="M428.6,452.5h2v11.4h-2v-11.4Z"/>
      <path class="st18" d="M434.1,460.5c0,1.4,1.1,2,2.4,2s1.6-.1,2.2-.4l.3,1.3c-.7.3-1.6.5-2.7.5-2.5,0-4-1.6-4-3.9s1.3-4.2,3.8-4.2,3.4,2.1,3.4,3.8,0,.7,0,.8h-5.2ZM437.5,459.2c0-.7-.3-1.9-1.6-1.9s-1.7,1.1-1.8,1.9h3.4Z"/>
      <path class="st18" d="M443.2,454.1v2h1.9v1.5h-1.9v3.4c0,1,.3,1.4,1,1.4s.5,0,.8,0v1.5c-.3.1-.8.2-1.4.2s-1.3-.2-1.7-.6c-.4-.4-.6-1.2-.6-2.2v-3.7h-1.1v-1.5h1.1v-1.5l1.9-.5Z"/>
      <path class="st18" d="M447.8,460.5c0,1.4,1.1,2,2.4,2s1.6-.1,2.2-.4l.3,1.3c-.7.3-1.6.5-2.7.5-2.5,0-4-1.6-4-3.9s1.3-4.2,3.8-4.2,3.4,2.1,3.4,3.8,0,.7,0,.8h-5.2ZM451.3,459.2c0-.7-.3-1.9-1.6-1.9s-1.7,1.1-1.8,1.9h3.4Z"/>
    </g>
    <rect class="st20" x="356.5" y="265.5" width="118.4" height="28.1" rx="4" ry="4"/>
    <g>
      <path class="st18" d="M388.4,274.7v1.7h2.2v.6h-2.2v5c0,1,.3,1.6,1.1,1.6s.7,0,.9-.1v.6c-.2.1-.5.2-1,.2s-1-.2-1.3-.5c-.4-.4-.5-1.1-.5-1.8v-4.9h-1.3v-.6h1.3v-1.4l.8-.3Z"/>
      <path class="st18" d="M397.1,282.2c0,.6,0,1.2.1,1.8h-.7v-1.1h-.1c-.4.6-1.2,1.3-2.5,1.3s-2.3-1.1-2.3-2.1c0-1.8,1.6-2.8,4.7-2.8v-.2c0-.8-.1-2.3-2-2.3-.7,0-1.4.2-1.9.6l-.2-.6c.7-.5,1.6-.7,2.3-.7,2.2,0,2.7,1.7,2.7,3v3ZM396.3,279.9c-1.7,0-3.9.2-3.9,2s.7,1.6,1.5,1.6c1.3,0,2-.8,2.3-1.5,0-.2,0-.3,0-.5v-1.6Z"/>
      <path class="st18" d="M399.3,283c.4.3,1,.5,1.7.5,1.2,0,1.8-.7,1.8-1.5s-.5-1.3-1.6-1.7c-1.3-.5-2-1.2-2-2.1s.9-2.1,2.4-2.1,1.3.2,1.7.5l-.3.6c-.3-.2-.8-.5-1.5-.5s-1.5.6-1.5,1.3.5,1.2,1.6,1.6c1.2.5,2,1.1,2,2.3s-1,2.2-2.6,2.2-1.4-.2-2-.5l.3-.6Z"/>
      <path class="st18" d="M406.3,280.1h0c.2-.2.5-.6.7-.8l2.7-2.8h.9l-3.1,3.2,3.5,4.5h-.9l-3.1-4-.8.8v3.2h-.8v-11.4h.8v7.4Z"/>
      <path class="st18" d="M415.1,279.3v.7h-3.8v-.7h3.8Z"/>
    </g>
    <g>
      <path class="st18" d="M417.9,276.2l1.3,4c.2.7.4,1.3.5,2h0c.1-.6.3-1.2.5-2l1.2-4h2.1l-3,7.8h-1.9l-2.9-7.8h2.1Z"/>
      <path class="st18" d="M426.9,274.1c0,.6-.4,1.1-1.1,1.1s-1.1-.5-1.1-1.1.4-1.1,1.1-1.1,1.1.5,1.1,1.1ZM424.8,284v-7.8h2v7.8h-2Z"/>
      <path class="st18" d="M430.3,280.7c0,1.4,1.1,2,2.4,2s1.6-.1,2.2-.4l.3,1.3c-.7.3-1.6.5-2.7.5-2.5,0-4-1.6-4-3.9s1.3-4.2,3.8-4.2,3.4,2.1,3.4,3.8,0,.7,0,.8h-5.2ZM433.7,279.3c0-.7-.3-1.9-1.6-1.9s-1.7,1.1-1.8,1.9h3.4Z"/>
      <path class="st18" d="M438.3,276.2l.8,3.5c.2.8.4,1.7.5,2.5h0c.2-.8.4-1.7.6-2.5l1-3.6h1.6l1,3.5c.2.9.4,1.8.6,2.6h0c.1-.8.3-1.7.5-2.6l.9-3.5h1.9l-2.4,7.8h-1.8l-.9-3.2c-.2-.8-.4-1.6-.6-2.5h0c-.2,1-.4,1.7-.6,2.5l-1,3.2h-1.8l-2.3-7.8h2Z"/>
    </g>
    <line class="st8" x1="319" y1="391.4" x2="345.3" y2="391.4"/>
    <polygon class="st21" points="352.5 391.4 345.3 388.7 345.3 394.1 352.5 391.4"/>
    <polygon class="st11" points="352.5 391.4 345.3 388.7 345.3 394.1 352.5 391.4"/>
    <polyline class="st8" points="307.4 369.2 327.5 368.7 327.5 278.5 345.3 278.5"/>
    <polygon class="st21" points="352.5 278.5 345.3 275.8 345.3 281.2 352.5 278.5"/>
    <polygon class="st11" points="352.5 278.5 345.3 275.8 345.3 281.2 352.5 278.5"/>
    <rect class="st13" x="356.5" y="27.7" width="118.4" height="34" rx="4" ry="4"/>
    <g>
      <path class="st18" d="M382.3,47.8c0,.6,0,1.2.1,1.8h-.7v-1.1h-.1c-.4.6-1.2,1.3-2.5,1.3s-2.3-1.1-2.3-2.1c0-1.8,1.6-2.8,4.7-2.8v-.2c0-.8-.1-2.3-2-2.3-.7,0-1.4.2-1.9.6l-.2-.6c.7-.5,1.6-.7,2.3-.7,2.2,0,2.7,1.7,2.7,3v3ZM381.5,45.5c-1.7,0-3.9.2-3.9,2s.7,1.6,1.5,1.6c1.3,0,2-.8,2.3-1.5,0-.2,0-.3,0-.5v-1.6Z"/>
      <path class="st18" d="M384.7,44.2c0-.8,0-1.6,0-2.3h.7v1.6h0c.3-1,1.1-1.7,2.2-1.7s.2,0,.3,0v.7c-.1,0-.2,0-.4,0-1.1,0-1.8.9-2,2.1,0,.2,0,.5,0,.7v4.2h-.8v-5.4Z"/>
      <path class="st18" d="M394.6,49.2c-.3.2-1.1.5-2.3.5-2.2,0-3.7-1.6-3.7-3.9s1.7-4.1,4-4.1,1.7.3,2,.5l-.3.6c-.4-.2-1-.4-1.8-.4-2.1,0-3.1,1.6-3.1,3.4s1.3,3.3,3,3.3,1.5-.3,1.9-.4l.2.6Z"/>
      <path class="st18" d="M396.4,38.2h.8v5.1h0c.2-.4.6-.8,1-1.1.4-.3,1-.4,1.6-.4s2.7.4,2.7,3.2v4.6h-.8v-4.5c0-1.4-.5-2.6-2.1-2.6s-2,.8-2.3,1.7c0,.2,0,.4,0,.8v4.7h-.8v-11.4Z"/>
      <path class="st18" d="M408,44.8v.7h-3.8v-.7h3.8Z"/>
    </g>
    <g>
      <path class="st18" d="M415.6,47.7c0,.7,0,1.4.1,1.9h-1.8v-.9h-.2c-.5.6-1.3,1-2.3,1-1.6,0-2.4-1.1-2.4-2.3,0-2,1.7-3,4.6-2.9h0c0-.6-.2-1.5-1.6-1.5s-1.6.2-2.1.6l-.4-1.3c.6-.4,1.6-.7,2.8-.7,2.5,0,3.2,1.6,3.2,3.3v2.8ZM413.7,45.8c-1.4,0-2.7.3-2.7,1.5s.5,1.1,1.1,1.1,1.4-.5,1.6-1.1c0-.1,0-.3,0-.4v-1.1Z"/>
      <path class="st18" d="M417.6,44.1c0-.9,0-1.6,0-2.3h1.7v1.2h.1c.4-.6,1.2-1.3,2.5-1.3s2.8.9,2.8,3.3v4.6h-2v-4.4c0-1.1-.4-2-1.5-2s-1.3.6-1.5,1.2c0,.2,0,.4,0,.6v4.6h-2v-5.5Z"/>
      <path class="st18" d="M432.9,47.7c0,.7,0,1.4.1,1.9h-1.8v-.9h-.2c-.5.6-1.3,1-2.3,1-1.6,0-2.4-1.1-2.4-2.3,0-2,1.7-3,4.6-2.9h0c0-.6-.2-1.5-1.6-1.5s-1.6.2-2.1.6l-.4-1.3c.6-.4,1.6-.7,2.8-.7,2.5,0,3.2,1.6,3.2,3.3v2.8ZM430.9,45.8c-1.4,0-2.7.3-2.7,1.5s.5,1.1,1.1,1.1,1.4-.5,1.6-1.1c0-.1,0-.3,0-.4v-1.1Z"/>
      <path class="st18" d="M434.9,38.2h2v11.4h-2v-11.4Z"/>
      <path class="st18" d="M440.3,41.8l1.4,4.2c.2.5.3,1.1.4,1.5h0c.1-.4.3-1,.4-1.5l1.2-4.2h2.1l-2,5.3c-1.1,2.9-1.8,4.2-2.7,5-.8.7-1.6.9-2.1,1l-.4-1.6c.3,0,.7-.3,1.1-.5.4-.2.8-.7,1.1-1.2,0-.1.1-.3.1-.4s0-.2,0-.4l-2.9-7.2h2.2Z"/>
      <path class="st18" d="M446.8,47.8c.4.3,1.3.6,2,.6s1.2-.4,1.2-.9-.3-.8-1.3-1.1c-1.5-.5-2.1-1.3-2.1-2.3,0-1.4,1.1-2.4,2.9-2.4s1.6.2,2.1.5l-.4,1.4c-.3-.2-1-.4-1.6-.4s-1.1.4-1.1.8.4.7,1.4,1.1c1.4.5,2.1,1.2,2.1,2.4,0,1.4-1.1,2.4-3.2,2.4s-1.8-.2-2.4-.5l.4-1.4Z"/>
      <path class="st18" d="M454.9,46.2c0,1.4,1.1,2,2.4,2s1.6-.1,2.2-.4l.3,1.3c-.7.3-1.6.5-2.7.5-2.5,0-4-1.6-4-3.9s1.3-4.2,3.8-4.2,3.4,2.1,3.4,3.8,0,.7,0,.8h-5.2ZM458.3,44.9c0-.7-.3-1.9-1.6-1.9s-1.7,1.1-1.8,1.9h3.4Z"/>
    </g>
    <polyline class="st3" points="630.4 397.5 653.8 397.5 653.8 43.2 486 43.2"/>
    <polygon class="st13" points="478.8 43.2 486 45.9 486 40.5 478.8 43.2"/>
    <polygon class="st2" points="478.8 43.2 486 45.9 486 40.5 478.8 43.2"/>
    <polyline class="st3" points="355.8 43.2 154.9 43.2 154.9 170.8 189.7 170.8"/>
    <polygon class="st13" points="196.9 170.8 189.7 168.1 189.7 173.5 196.9 170.8"/>
    <polygon class="st2" points="196.9 170.8 189.7 168.1 189.7 173.5 196.9 170.8"/>
  </g>
</svg>