<?xml version="1.0" encoding="UTF-8" standalone="no"?>
<!DOCTYPE svg PUBLIC "-//W3C//DTD SVG 1.1//EN" "http://www.w3.org/Graphics/SVG/1.1/DTD/svg11.dtd">
<svg xmlns="http://www.w3.org/2000/svg" xmlns:xl="http://www.w3.org/1999/xlink" xmlns:dc="http://purl.org/dc/elements/1.1/" version="1.1" viewBox="7.937054 5.6692915 820.0629 583.937" width="820.0629" height="583.937">
  <defs>
    <marker orient="auto" overflow="visible" markerUnits="strokeWidth" id="FilledArrow_Marker" stroke-linejoin="miter" stroke-miterlimit="10" viewBox="-1 -3 6 6" markerWidth="6" markerHeight="6" color="#1067b2">
      <g>
        <path d="M 3.6 0 L 0 -1.35 L 0 1.35 Z" fill="currentColor" stroke="currentColor" stroke-width="1"/>
      </g>
    </marker>
    <marker orient="auto" overflow="visible" markerUnits="strokeWidth" id="FilledArrow_Marker_2" stroke-linejoin="miter" stroke-miterlimit="10" viewBox="-1 -3 6 6" markerWidth="6" markerHeight="6" color="#b31f19">
      <g>
        <path d="M 3.6 0 L 0 -1.35 L 0 1.35 Z" fill="currentColor" stroke="currentColor" stroke-width="1"/>
      </g>
    </marker>
    <marker orient="auto" overflow="visible" markerUnits="strokeWidth" id="FilledArrow_Marker_3" stroke-linejoin="miter" stroke-miterlimit="10" viewBox="-1 -3 6 6" markerWidth="6" markerHeight="6" color="#b26813">
      <g>
        <path d="M 3.6 0 L 0 -1.35 L 0 1.35 Z" fill="currentColor" stroke="currentColor" stroke-width="1"/>
      </g>
    </marker>
    <marker orient="auto" overflow="visible" markerUnits="strokeWidth" id="FilledArrow_Marker_4" stroke-linejoin="miter" stroke-miterlimit="10" viewBox="-1 -3 6 6" markerWidth="6" markerHeight="6" color="black">
      <g>
        <path d="M 3.6 0 L 0 -1.35 L 0 1.35 Z" fill="currentColor" stroke="currentColor" stroke-width="1"/>
      </g>
    </marker>
    <marker orient="auto" overflow="visible" markerUnits="strokeWidth" id="FilledArrow_Marker_5" stroke-linejoin="miter" stroke-miterlimit="10" viewBox="-5 -3 6 6" markerWidth="6" markerHeight="6" color="#b26813">
      <g>
        <path d="M -3.6 0 L 0 1.35 L 0 -1.35 Z" fill="currentColor" stroke="currentColor" stroke-width="1"/>
      </g>
    </marker>
    <marker orient="auto" overflow="visible" markerUnits="strokeWidth" id="FilledArrow_Marker_6" stroke-linejoin="miter" stroke-miterlimit="10" viewBox="-1 -3 6 6" markerWidth="6" markerHeight="6" color="#b26813">
      <g>
        <path d="M 3.6 0 L 0 -1.35 L 0 1.35 Z" fill="currentColor" stroke="currentColor" stroke-width="1"/>
      </g>
    </marker>
    <marker orient="auto" overflow="visible" markerUnits="strokeWidth" id="FilledArrow_Marker_7" stroke-linejoin="miter" stroke-miterlimit="10" viewBox="-5 -3 6 6" markerWidth="6" markerHeight="6" color="#b26813">
      <g>
        <path d="M -3.6 0 L 0 1.35 L 0 -1.35 Z" fill="currentColor" stroke="currentColor" stroke-width="1"/>
      </g>
    </marker>
  </defs>
  <g id="Canvas_1" stroke-dasharray="none" stroke-opacity="1" stroke="none" fill="none" fill-opacity="1">
    <title>Canvas 1</title>
    <rect fill="white" x="7.937054" y="5.6692915" width="820.0629" height="583.937"/>
    <g id="Canvas_1_Content">
      <title>Content</title>
      <g id="Graphic_915">
        <path d="M 17.889763 5.6692915 L 11.937054 5.6692915 C 9.727915 5.6692915 7.937054 7.663439 7.937054 10.123346 L 7.937054 585.15226 C 7.937054 587.6122 9.727915 589.6063 11.937054 589.6063 L 17.889763 589.6063 L 48.50394 589.6063 L 824 589.6063 C 826.2091 589.6063 828 587.6122 828 585.15226 L 828 10.123346 C 828 7.663439 826.2091 5.6692915 824 5.6692915 L 48.50394 5.6692915 Z M 102.04725 517.99817 C 101.6873 517.32965 101.48036 516.5473 101.48036 515.7111 L 101.48036 25.905423 C 101.48036 23.445517 103.27122 21.45137 105.48036 21.45137 L 730.17325 21.45137 C 732.3824 21.45137 734.17325 23.445517 734.17325 25.905423 L 734.17325 463.2126 L 734.17325 515.7111 L 734.17325 526.07875 C 734.17325 528.2879 732.3824 530.07875 730.17325 530.07875 L 106.04725 530.07875 C 103.83811 530.07875 102.04725 528.2879 102.04725 526.07875 Z" fill="#dbdbdb"/>
      </g>
      <g id="Graphic_799">
        <path d="M 112.31496 238.11024 L 724.7874 238.11024 C 726.9966 238.11024 728.7874 239.9011 728.7874 242.11024 L 728.7874 520.40946 C 728.7874 522.6186 726.9966 524.40946 724.7874 524.40946 L 112.31496 524.40946 C 110.10583 524.40946 108.31496 522.6186 108.31496 520.40946 L 108.31496 242.11024 C 108.31496 239.9011 110.10583 238.11024 112.31496 238.11024 Z" fill="#f5dbc1"/>
      </g>
      <g id="Graphic_798">
        <path d="M 112.0315 27.595145 L 724.504 27.595145 C 726.7131 27.595145 728.504 29.386006 728.504 31.595145 L 728.504 230.52428 C 728.504 232.73342 726.7131 234.52428 724.504 234.52428 L 112.0315 234.52428 C 109.82236 234.52428 108.0315 232.73342 108.0315 230.52428 L 108.0315 31.595145 C 108.0315 29.386006 109.82236 27.595145 112.0315 27.595145 Z" fill="#c0dbf5"/>
      </g>
      <g id="Group_774">
        <g id="Graphic_629">
          <path d="M 229.88977 150.23622 L 302.96064 150.23622 C 315.4849 150.23622 325.6378 160.38914 325.6378 172.9134 L 325.6378 172.9134 C 325.6378 185.43764 315.4849 195.59056 302.96064 195.59056 L 229.88977 195.59056 C 217.36552 195.59056 207.2126 185.43764 207.2126 172.9134 L 207.2126 172.9134 C 207.2126 160.38914 217.36552 150.23622 229.88977 150.23622 Z" fill="#929292"/>
        </g>
        <g id="Graphic_624">
          <rect x="235.55906" y="155.90552" width="61.92" height="29.200006" fill="#929292"/>
          <text transform="translate(240.55906 160.90552)" fill="white">
            <tspan font-family="Myriad Pro" font-size="16" fill="white" x="0" y="12" xml:space="preserve">SKETCH</tspan>
          </text>
        </g>
      </g>
      <g id="Group_767">
        <g id="Graphic_631">
          <path d="M 367.46458 70.86614 L 477.8898 70.86614 C 480.0989 70.86614 481.8898 72.657005 481.8898 74.86614 L 481.8898 100.88189 C 481.8898 103.09103 480.0989 104.88189 477.8898 104.88189 L 367.46458 104.88189 C 365.25544 104.88189 363.46458 103.09103 363.46458 100.88189 L 363.46458 74.86614 C 363.46458 72.657005 365.25544 70.86614 367.46458 70.86614 Z" fill="#368ddf"/>
        </g>
        <g id="Graphic_628">
          <text transform="translate(380.67176 80.72008)" fill="white">
            <tspan font-family="Myriad Pro" font-size="16" fill="white" x="0" y="12" xml:space="preserve">code-</tspan>
            <tspan font-family="Myriad Pro" font-weight="bold" font-size="16" fill="white" y="12" xml:space="preserve">analyse</tspan>
          </text>
        </g>
      </g>
      <g id="Line_639">
        <path d="M 362.83466 85.03937 L 161.85827 85.03937 L 161.5748 170.07874 L 196.7126 170.07874" marker-end="url(#FilledArrow_Marker)" stroke="#1067b2" stroke-linecap="round" stroke-linejoin="round" stroke-width="2"/>
      </g>
      <g id="Group_777">
        <g id="Graphic_725">
          <path d="M 541.7008 345.34804 L 614.7717 345.34804 C 627.2959 345.34804 637.4488 355.50095 637.4488 368.0252 L 637.4488 368.0252 C 637.4488 380.54946 627.2959 390.70237 614.7717 390.70237 L 541.7008 390.70237 C 529.17655 390.70237 519.02364 380.54946 519.02364 368.0252 L 519.02364 368.0252 C 519.02364 355.50095 529.17655 345.34804 541.7008 345.34804 Z" fill="#494949"/>
        </g>
        <g id="Graphic_726">
          <text transform="translate(546.7008 356.01733)" fill="white">
            <tspan font-family="Myriad Pro" font-size="16" fill="white" x="682121e-18" y="12" xml:space="preserve">ARTIFACT</tspan>
          </text>
        </g>
      </g>
      <g id="Group_768">
        <g id="Graphic_728">
          <path d="M 367.46458 117.0819 L 477.8898 117.0819 C 480.0989 117.0819 481.8898 118.87276 481.8898 121.0819 L 481.8898 146.16723 C 481.8898 148.37636 480.0989 150.16723 477.8898 150.16723 L 367.46458 150.16723 C 365.25544 150.16723 363.46458 148.37636 363.46458 146.16723 L 363.46458 121.0819 C 363.46458 118.87276 365.25544 117.0819 367.46458 117.0819 Z" fill="#1067b2"/>
        </g>
        <g id="Graphic_727">
          <text transform="translate(380.5016 126.40372)" fill="white">
            <tspan font-family="Myriad Pro" font-size="16" fill="white" x="0" y="12" xml:space="preserve">code-</tspan>
            <tspan font-family="Myriad Pro" font-weight="bold" font-size="16" fill="white" y="12" xml:space="preserve">resolve</tspan>
          </text>
        </g>
      </g>
      <g id="Line_729">
        <path d="M 325.4303 168.02818 L 340.44096 168.02818 L 340.44096 136.063 L 352.33466 136.063" marker-end="url(#FilledArrow_Marker)" stroke="#1067b2" stroke-linecap="round" stroke-linejoin="round" stroke-width="2"/>
      </g>
      <g id="Group_769">
        <g id="Graphic_731">
          <path d="M 367.46458 156.37073 L 477.8898 156.37073 C 480.0989 156.37073 481.8898 158.16159 481.8898 160.37073 L 481.8898 185.45606 C 481.8898 187.6652 480.0989 189.45606 477.8898 189.45606 L 367.46458 189.45606 C 365.25544 189.45606 363.46458 187.6652 363.46458 185.45606 L 363.46458 160.37073 C 363.46458 158.16159 365.25544 156.37073 367.46458 156.37073 Z" fill="#1067b2"/>
        </g>
        <g id="Graphic_730">
          <text transform="translate(378.0456 165.69255)" fill="white">
            <tspan font-family="Myriad Pro" font-size="16" fill="white" x="7105427e-21" y="12" xml:space="preserve">code-</tspan>
            <tspan font-family="Myriad Pro" font-weight="bold" font-size="16" fill="white" y="12" xml:space="preserve">refactor</tspan>
          </text>
        </g>
      </g>
      <g id="Line_734">
        <line x1="325.6378" y1="172.9134" x2="355.45277" y2="172.9134" marker-end="url(#FilledArrow_Marker)" stroke="#1067b2" stroke-linecap="round" stroke-linejoin="round" stroke-width="2"/>
      </g>
      <g id="Line_735">
        <path d="M 326.26773 178.58268 L 340.44096 178.58268 L 340.44096 212.59843 L 352.33466 212.59843" marker-end="url(#FilledArrow_Marker)" stroke="#1067b2" stroke-linecap="round" stroke-linejoin="round" stroke-width="2"/>
      </g>
      <g id="Group_775">
        <g id="Graphic_737">
          <path d="M 541.7008 150.23622 L 614.7717 150.23622 C 627.2959 150.23622 637.4488 160.38914 637.4488 172.9134 L 637.4488 172.9134 C 637.4488 185.43764 627.2959 195.59056 614.7717 195.59056 L 541.7008 195.59056 C 529.17655 195.59056 519.02364 185.43764 519.02364 172.9134 L 519.02364 172.9134 C 519.02364 160.38914 529.17655 150.23622 541.7008 150.23622 Z" fill="#929292"/>
        </g>
        <g id="Graphic_736">
          <text transform="translate(535.3622 160.90552)" fill="white">
            <tspan font-family="Myriad Pro" font-size="16" fill="white" x="0" y="12" xml:space="preserve">APPROACHES</tspan>
          </text>
        </g>
      </g>
      <g id="Line_738">
        <path d="M 481.8898 136.063 L 498.89765 136.063 L 499.1811 168.02818 L 508.52364 168.02818" marker-end="url(#FilledArrow_Marker)" stroke="#1067b2" stroke-linecap="round" stroke-linejoin="round" stroke-width="2"/>
      </g>
      <g id="Line_739">
        <line x1="482.17324" y1="172.9134" x2="508.52364" y2="172.9134" marker-end="url(#FilledArrow_Marker)" stroke="#1067b2" stroke-linecap="round" stroke-linejoin="round" stroke-width="2"/>
      </g>
      <g id="Line_740">
        <path d="M 481.8898 212.59843 L 498.89765 212.59843 L 498.89765 178.58268 L 508.2402 178.58268" marker-end="url(#FilledArrow_Marker)" stroke="#1067b2" stroke-linecap="round" stroke-linejoin="round" stroke-width="2"/>
      </g>
      <g id="Group_776">
        <g id="Graphic_742">
          <path d="M 229.88977 342.5134 L 302.96064 342.5134 C 315.4849 342.5134 325.6378 352.6663 325.6378 365.19056 L 325.6378 365.19056 C 325.6378 377.7148 315.4849 387.86773 302.96064 387.86773 L 229.88977 387.86773 C 217.36552 387.86773 207.2126 377.7148 207.2126 365.19056 L 207.2126 365.19056 C 207.2126 352.6663 217.36552 342.5134 229.88977 342.5134 Z" fill="#494949"/>
        </g>
        <g id="Graphic_741">
          <text transform="translate(249.2817 353.1827)" fill="white">
            <tspan font-family="Myriad Pro" font-size="16" fill="white" x="0" y="12" xml:space="preserve">TASK</tspan>
          </text>
        </g>
      </g>
      <g id="Line_743">
        <path d="M 637.1654 181.41733 L 651.9685 181.41733 L 651.9685 246.61418 L 178.58268 246.0945 L 178.58268 357.16536 L 196.7126 357.16536" marker-end="url(#FilledArrow_Marker_2)" stroke="#b31f19" stroke-linecap="round" stroke-linejoin="round" stroke-width="2"/>
      </g>
      <g id="Group_771">
        <g id="Graphic_749">
          <path d="M 367.46458 252.28347 L 477.8898 252.28347 C 480.0989 252.28347 481.8898 254.07433 481.8898 256.28347 L 481.8898 277.7557 C 481.8898 279.96485 480.0989 281.7557 477.8898 281.7557 L 367.46458 281.7557 C 365.25544 281.7557 363.46458 279.96485 363.46458 277.7557 L 363.46458 256.28347 C 363.46458 254.07433 365.25544 252.28347 367.46458 252.28347 Z" fill="#b26813"/>
        </g>
        <g id="Graphic_748">
          <text transform="translate(395.6616 259.53893)" fill="white">
            <tspan font-family="Myriad Pro" font-size="16" fill="white" x="14210855e-21" y="12" xml:space="preserve">task-</tspan>
            <tspan font-family="Myriad Pro" font-weight="bold" font-size="16" fill="white" y="12" xml:space="preserve">edit</tspan>
          </text>
        </g>
      </g>
      <g id="Group_772">
        <g id="Graphic_747">
          <path d="M 367.46458 352.26728 L 477.8898 352.26728 C 480.0989 352.26728 481.8898 354.05814 481.8898 356.26728 L 481.8898 380.3836 C 481.8898 382.59276 480.0989 384.3836 477.8898 384.3836 L 367.46458 384.3836 C 365.25544 384.3836 363.46458 382.59276 363.46458 380.3836 L 363.46458 356.26728 C 363.46458 354.05814 365.25544 352.26728 367.46458 352.26728 Z" fill="#b26813"/>
        </g>
        <g id="Graphic_746">
          <text transform="translate(373.0916 361.03493)" fill="white">
            <tspan font-family="Myriad Pro" font-size="16" fill="white" x="0" y="12" xml:space="preserve">task-</tspan>
            <tspan font-family="Myriad Pro" font-weight="bold" font-size="16" fill="white" y="12" xml:space="preserve">implement</tspan>
          </text>
        </g>
      </g>
      <g id="Group_773">
        <g id="Graphic_745">
          <path d="M 367.46458 320.51472 L 477.8898 320.51472 C 480.0989 320.51472 481.8898 322.3056 481.8898 324.51472 L 481.8898 344.66143 C 481.8898 346.87057 480.0989 348.66143 477.8898 348.66143 L 367.46458 348.66143 C 365.25544 348.66143 363.46458 346.87057 363.46458 344.66143 L 363.46458 324.51472 C 363.46458 322.3056 365.25544 320.51472 367.46458 320.51472 Z" fill="#df8f37"/>
        </g>
        <g id="Graphic_744">
          <text transform="translate(379.2616 327.0121)" fill="white">
            <tspan font-family="Myriad Pro" font-size="16" fill="white" x="0" y="12" xml:space="preserve">task-</tspan>
            <tspan font-family="Myriad Pro" font-weight="bold" font-size="16" fill="white" y="12" xml:space="preserve">preflight</tspan>
          </text>
        </g>
      </g>
      <g id="Line_755">
        <line x1="481.8898" y1="367.06772" x2="508.2402" y2="367.06772" marker-end="url(#FilledArrow_Marker_3)" stroke="#b26813" stroke-linecap="round" stroke-linejoin="round" stroke-width="2"/>
      </g>
      <g id="Line_756">
        <path d="M 637.4488 360 L 660.7559 360 L 660.7559 85.03937 L 492.3898 85.03937" marker-end="url(#FilledArrow_Marker_4)" stroke="black" stroke-linecap="round" stroke-linejoin="round" stroke-width="2"/>
      </g>
      <g id="Group_770">
        <g id="Graphic_733">
          <path d="M 367.46458 195.65956 L 477.8898 195.65956 C 480.0989 195.65956 481.8898 197.45042 481.8898 199.65956 L 481.8898 224.74489 C 481.8898 226.95403 480.0989 228.74489 477.8898 228.74489 L 367.46458 228.74489 C 365.25544 228.74489 363.46458 226.95403 363.46458 224.74489 L 363.46458 199.65956 C 363.46458 197.45042 365.25544 195.65956 367.46458 195.65956 Z" fill="#1067b2"/>
        </g>
        <g id="Graphic_758">
          <text transform="translate(388.3495 203.7246)" fill="white">
            <tspan font-family="Myriad Pro" font-size="16" fill="white" x="0" y="12" xml:space="preserve">code-</tspan>
            <tspan font-family="Myriad Pro" font-weight="bold" font-size="16" fill="white" y="12" xml:space="preserve">craft</tspan>
          </text>
        </g>
      </g>
      <g id="Line_761">
        <path d="M 352.33466 436.53545 L 337.32284 436.53545 L 337.32284 385.99056 L 320.31497 379.84253" marker-start="url(#FilledArrow_Marker_5)" stroke="#b26813" stroke-linecap="round" stroke-linejoin="round" stroke-width="2"/>
      </g>
      <g id="Line_780">
        <path d="M 331.88614 348.50637 L 340.1575 342.99214 L 340.1575 297.6378 L 352.33466 297.6378" marker-end="url(#FilledArrow_Marker_3)" marker-start="url(#FilledArrow_Marker_5)" stroke="#b26813" stroke-linecap="round" stroke-linejoin="round" stroke-width="2"/>
      </g>
      <g id="Line_779">
        <path d="M 336.48426 360 L 345.8268 360 L 345.8268 335.90552 L 352.33466 335.90552" marker-end="url(#FilledArrow_Marker_3)" marker-start="url(#FilledArrow_Marker_5)" stroke="#b26813" stroke-linecap="round" stroke-linejoin="round" stroke-width="2"/>
      </g>
      <g id="Line_778">
        <path d="M 352.33466 399.68505 L 345.8268 399.68505 L 345.8268 374.17324 L 325.98426 374.17324" marker-start="url(#FilledArrow_Marker_5)" stroke="#b26813" stroke-linecap="round" stroke-linejoin="round" stroke-width="2"/>
      </g>
      <g id="Graphic_781">
        <text transform="translate(229.94285 179.79055)" fill="white">
          <tspan font-family="Myriad Pro" font-size="9" fill="white" x="8668621e-19" y="7" xml:space="preserve">ephemeral (prompt)</tspan>
        </text>
      </g>
      <g id="Graphic_782">
        <text transform="translate(547.5769 179.79055)" fill="white">
          <tspan font-family="Myriad Pro" font-size="9" fill="white" x="55777605e-20" y="7" xml:space="preserve">ephemeral (plan)</tspan>
        </text>
      </g>
      <g id="Graphic_783">
        <text transform="translate(249.063 372.0677)" fill="white">
          <tspan font-family="Myriad Pro" font-size="9" fill="white" x="14566126e-20" y="7" xml:space="preserve">persistant</tspan>
        </text>
      </g>
      <g id="Graphic_784">
        <text transform="translate(560.874 375.85985)" fill="white">
          <tspan font-family="Myriad Pro" font-size="9" fill="white" x="14566126e-20" y="7" xml:space="preserve">persistant</tspan>
        </text>
      </g>
      <g id="Line_785">
        <path d="M 147.68504 235.2756 L 161.5748 235.2756 L 161.5748 178.58268 L 196.7126 178.58268" marker-end="url(#FilledArrow_Marker_4)" stroke="black" stroke-linecap="round" stroke-linejoin="round" stroke-width="2"/>
      </g>
      <g id="Graphic_786">
        <circle cx="136.34646" cy="235.2756" r="11.338601110497" fill="black"/>
        <circle cx="136.34646" cy="235.2756" r="11.338601110497" stroke="black" stroke-linecap="round" stroke-linejoin="round" stroke-width="1"/>
      </g>
      <g id="Line_788">
        <path d="M 637.4488 368.50395 L 668.9764 368.50395 L 669.2599 227.72914 L 681.437 227.72914" marker-end="url(#FilledArrow_Marker_4)" stroke="black" stroke-linecap="round" stroke-linejoin="round" stroke-width="2"/>
      </g>
      <g id="Group_791">
        <g id="Graphic_787">
          <circle cx="703.2756" cy="235.2756" r="11.3386011104969" stroke="black" stroke-linecap="round" stroke-linejoin="round" stroke-width="1"/>
        </g>
        <g id="Graphic_789">
          <circle cx="703.4208" cy="235.13042" r="7.0866256940606" fill="black"/>
          <circle cx="703.4208" cy="235.13042" r="7.0866256940606" stroke="black" stroke-linecap="round" stroke-linejoin="round" stroke-width="1"/>
        </g>
      </g>
      <g id="Line_790">
        <path d="M 147.68504 235.2756 L 161.85827 235.2756 L 161.85827 365.6693 L 196.7126 365.6693" marker-end="url(#FilledArrow_Marker_4)" stroke="black" stroke-linecap="round" stroke-linejoin="round" stroke-width="2"/>
      </g>
      <g id="Graphic_792">
        <text transform="translate(560.5906 251.61418)" fill="#b31f19">
          <tspan font-family="Myriad Pro" font-size="9" fill="#b31f19" x="0" y="7" xml:space="preserve">single choice selection</tspan>
        </text>
      </g>
      <g id="Line_793">
        <line x1="619.5084" y1="178.81316" x2="626.4662" y2="178.81316" stroke="white" stroke-linecap="round" stroke-linejoin="round" stroke-width="1"/>
      </g>
      <g id="Line_794">
        <line x1="619.7389" y1="176.45683" x2="626.6967" y2="176.45683" stroke="white" stroke-linecap="round" stroke-linejoin="round" stroke-width="1"/>
      </g>
      <g id="Group_797">
        <g id="Graphic_796">
          <circle cx="306.4252" cy="356.68662" r="8.50395083287275" fill="white"/>
        </g>
        <g id="Graphic_795">
          <text transform="translate(302.70977 353.26687)" fill="black">
            <tspan font-family="Myriad Pro" font-size="9" fill="black" x="2184919e-19" y="7" xml:space="preserve">ID</tspan>
          </text>
        </g>
      </g>
      <g id="Graphic_800">
        <text transform="translate(124.33859 211.92914)" fill="black">
          <tspan font-family="Myriad Pro" font-size="9" fill="black" x="35171865e-20" y="7" xml:space="preserve">START</tspan>
        </text>
      </g>
      <g id="Graphic_801">
        <text transform="translate(694.2917 211.92914)" fill="black">
          <tspan font-family="Myriad Pro" font-size="9" fill="black" x="0" y="7" xml:space="preserve">END</tspan>
        </text>
      </g>
      <g id="Line_802">
        <path d="M 206.92914 374.17324 L 161.5748 374.17324 L 161.85827 515.9055 L 674.6457 515.9055 L 674.6457 235.2756 L 681.437 235.2756" marker-end="url(#FilledArrow_Marker_4)" stroke="black" stroke-linecap="round" stroke-linejoin="round" stroke-width="2"/>
      </g>
      <g id="Graphic_803">
        <text transform="translate(194.92126 211.92914)" fill="#1067b2">
          <tspan font-family="Myriad Pro" font-size="12" fill="#1067b2" x="2629008e-19" y="9" xml:space="preserve">FUNNEL MODE</tspan>
        </text>
      </g>
      <g id="Graphic_804">
        <text transform="translate(194.92126 262.95276)" fill="#b26813">
          <tspan font-family="Myriad Pro" font-size="12" fill="#b26813" x="5506706e-19" y="9" xml:space="preserve">TASK MODE</tspan>
        </text>
      </g>
      <g id="Group_805">
        <g id="Graphic_807">
          <path d="M 743.8425 82.20473 L 815.2126 82.20473 C 817.4218 82.20473 819.2126 83.99559 819.2126 86.20473 L 819.2126 123.55906 C 819.2126 125.7682 817.4218 127.55906 815.2126 127.55906 L 743.8425 127.55906 C 741.6334 127.55906 739.8425 125.7682 739.8425 123.55906 L 739.8425 86.20473 C 739.8425 83.99559 741.6334 82.20473 743.8425 82.20473 Z" fill="#929292"/>
        </g>
        <g id="Graphic_806">
          <text transform="translate(744.9871 92.87402)" fill="white">
            <tspan font-family="Myriad Pro" font-size="16" fill="white" x="20.816" y="8.8" xml:space="preserve">arch-</tspan>
            <tspan font-family="Myriad Pro" font-weight="bold" font-size="16" fill="white" x="8.024" y="24.800006" xml:space="preserve">discover</tspan>
          </text>
        </g>
      </g>
      <g id="Group_808">
        <g id="Graphic_810">
          <path d="M 18.963042 337.76828 L 90.33312 337.76828 C 92.54226 337.76828 94.33312 339.55914 94.33312 341.76828 L 94.33312 379.1226 C 94.33312 381.33175 92.54226 383.1226 90.33312 383.1226 L 18.963042 383.1226 C 16.753903 383.1226 14.963042 381.33175 14.963042 379.1226 L 14.963042 341.76828 C 14.963042 339.55914 16.753903 337.76828 18.963042 337.76828 Z" fill="#929292"/>
        </g>
        <g id="Graphic_809">
          <text transform="translate(16.338581 348.43757)" fill="white">
            <tspan font-family="Myriad Pro" font-size="16" fill="white" x="17.472" y="8.8" xml:space="preserve">meta-</tspan>
            <tspan font-family="Myriad Pro" font-weight="bold" font-size="16" fill="white" x="7.536" y="24.800006" xml:space="preserve">changes</tspan>
          </text>
        </g>
      </g>
      <g id="Group_818">
        <g id="Graphic_820">
          <path d="M 743.8425 184.25197 L 815.2126 184.25197 C 817.4218 184.25197 819.2126 186.04283 819.2126 188.25197 L 819.2126 225.6063 C 819.2126 227.81544 817.4218 229.6063 815.2126 229.6063 L 743.8425 229.6063 C 741.6334 229.6063 739.8425 227.81544 739.8425 225.6063 L 739.8425 188.25197 C 739.8425 186.04283 741.6334 184.25197 743.8425 184.25197 Z" fill="#929292"/>
        </g>
        <g id="Graphic_819">
          <text transform="translate(746.8138 194.92127)" fill="white">
            <tspan font-family="Myriad Pro" font-size="16" fill="white" x="13.088" y="8.8" xml:space="preserve">code-</tspan>
            <tspan font-family="Myriad Pro" font-weight="bold" font-size="16" fill="white" x="6.296" y="24.800006" xml:space="preserve">explain</tspan>
          </text>
        </g>
      </g>
      <g id="Group_821">
        <g id="Graphic_823">
          <path d="M 743.8425 133.22835 L 815.2126 133.22835 C 817.4218 133.22835 819.2126 135.01921 819.2126 137.22835 L 819.2126 174.58268 C 819.2126 176.79182 817.4218 178.58268 815.2126 178.58268 L 743.8425 178.58268 C 741.6334 178.58268 739.8425 176.79182 739.8425 174.58268 L 739.8425 137.22835 C 739.8425 135.01921 741.6334 133.22835 743.8425 133.22835 Z" fill="#929292"/>
        </g>
        <g id="Graphic_822">
          <text transform="translate(746.5498 143.89764)" fill="white">
            <tspan font-family="Myriad Pro" font-size="16" fill="white" x="13.352" y="8.8" xml:space="preserve">code-</tspan>
            <tspan font-family="Myriad Pro" font-weight="bold" font-size="16" fill="white" x="8.064" y="24.800006" xml:space="preserve">insight</tspan>
          </text>
        </g>
      </g>
      <g id="Group_827">
        <g id="Graphic_829">
          <path d="M 18.173229 82.27897 L 92.0315 82.27897 C 94.24064 82.27897 96.0315 84.06983 96.0315 86.27897 L 96.0315 123.6333 C 96.0315 125.84244 94.24064 127.6333 92.0315 127.6333 L 18.173229 127.6333 C 15.96409 127.6333 14.173229 125.84244 14.173229 123.6333 L 14.173229 86.27897 C 14.173229 84.06983 15.96409 82.27897 18.173229 82.27897 Z" fill="#929292"/>
        </g>
        <g id="Graphic_828">
          <text transform="translate(19.88469 92.94826)" fill="white">
            <tspan font-family="Myriad Pro" font-size="16" fill="white" x="17.52" y="8.8" xml:space="preserve">meta-</tspan>
            <tspan font-family="Myriad Pro" font-weight="bold" font-size="16" fill="white" x="6.744" y="24.800006" xml:space="preserve">evaluate</tspan>
          </text>
        </g>
      </g>
      <g id="Group_830">
        <g id="Graphic_832">
          <path d="M 18.173229 133.37683 L 92.0315 133.37683 C 94.24064 133.37683 96.0315 135.16769 96.0315 137.37683 L 96.0315 174.73116 C 96.0315 176.9403 94.24064 178.73116 92.0315 178.73116 L 18.173229 178.73116 C 15.96409 178.73116 14.173229 176.9403 14.173229 174.73116 L 14.173229 137.37683 C 14.173229 135.16769 15.96409 133.37683 18.173229 133.37683 Z" fill="#929292"/>
        </g>
        <g id="Graphic_831">
          <text transform="translate(24.229572 144.04612)" fill="white">
            <tspan font-family="Myriad Pro" font-size="16" fill="white" x="13.064" y="8.8" xml:space="preserve">meta-</tspan>
            <tspan font-family="Myriad Pro" font-weight="bold" font-size="16" fill="white" x="4.088" y="24.800006" xml:space="preserve">quorum</tspan>
          </text>
        </g>
      </g>
      <g id="Group_833">
        <g id="Graphic_835">
          <path d="M 18.173229 235.57255 L 92.0315 235.57255 C 94.24064 235.57255 96.0315 237.36341 96.0315 239.57255 L 96.0315 276.9269 C 96.0315 279.13602 94.24064 280.9269 92.0315 280.9269 L 18.173229 280.9269 C 15.96409 280.9269 14.173229 279.13602 14.173229 276.9269 L 14.173229 239.57255 C 14.173229 237.36341 15.96409 235.57255 18.173229 235.57255 Z" fill="#929292"/>
        </g>
        <g id="Graphic_834">
          <text transform="translate(27.110734 246.24184)" fill="white">
            <tspan font-family="Myriad Pro" font-size="16" fill="white" x="9.848" y="8.8" xml:space="preserve">meta-</tspan>
            <tspan font-family="Myriad Pro" font-weight="bold" font-size="16" fill="white" x="6.296" y="24.800006" xml:space="preserve">search</tspan>
          </text>
        </g>
      </g>
      <g id="Group_836">
        <g id="Graphic_838">
          <path d="M 18.173229 31.181103 L 92.0315 31.181103 C 94.24064 31.181103 96.0315 32.971964 96.0315 35.181103 L 96.0315 72.535435 C 96.0315 74.74457 94.24064 76.535435 92.0315 76.535435 L 18.173229 76.535435 C 15.96409 76.535435 14.173229 74.74457 14.173229 72.535435 L 14.173229 35.181103 C 14.173229 32.971964 15.96409 31.181103 18.173229 31.181103 Z" fill="#929292"/>
        </g>
        <g id="Graphic_837">
          <text transform="translate(29.254896 41.850395)" fill="white">
            <tspan font-family="Myriad Pro" font-size="16" fill="white" x="7.208" y="8.8" xml:space="preserve">meta-</tspan>
            <tspan font-family="Myriad Pro" font-weight="bold" font-size="16" fill="white" x="11.688" y="24.800006" xml:space="preserve">why</tspan>
          </text>
        </g>
      </g>
      <g id="Group_839">
        <g id="Graphic_841">
          <path d="M 18.173229 184.4747 L 92.0315 184.4747 C 94.24064 184.4747 96.0315 186.26555 96.0315 188.4747 L 96.0315 225.82902 C 96.0315 228.03816 94.24064 229.82902 92.0315 229.82902 L 18.173229 229.82902 C 15.96409 229.82902 14.173229 228.03816 14.173229 225.82902 L 14.173229 188.4747 C 14.173229 186.26555 15.96409 184.4747 18.173229 184.4747 Z" fill="#929292"/>
        </g>
        <g id="Graphic_840">
          <text transform="translate(29.288973 195.14398)" fill="white">
            <tspan font-family="Myriad Pro" font-size="16" fill="white" x="7.208" y="8.8" xml:space="preserve">meta-</tspan>
            <tspan font-family="Myriad Pro" font-weight="bold" font-size="16" fill="white" x="11.136" y="24.800006" xml:space="preserve">chat</tspan>
          </text>
        </g>
      </g>
      <g id="Group_842">
        <g id="Graphic_844">
          <path d="M 743.8425 235.2756 L 815.2126 235.2756 C 817.4218 235.2756 819.2126 237.06646 819.2126 239.2756 L 819.2126 276.62993 C 819.2126 278.83907 817.4218 280.62993 815.2126 280.62993 L 743.8425 280.62993 C 741.6334 280.62993 739.8425 278.83907 739.8425 276.62993 L 739.8425 239.2756 C 739.8425 237.06646 741.6334 235.2756 743.8425 235.2756 Z" fill="#929292"/>
        </g>
        <g id="Graphic_843">
          <text transform="translate(751.7541 245.9449)" fill="white">
            <tspan font-family="Myriad Pro" font-size="16" fill="white" x="7.208" y="8.8" xml:space="preserve">code-</tspan>
            <tspan font-family="Myriad Pro" font-weight="bold" font-size="16" fill="white" x="14.408" y="24.800006" xml:space="preserve">lint</tspan>
          </text>
        </g>
      </g>
      <g id="Group_845">
        <g id="Graphic_847">
          <path d="M 426.4244 538.5827 L 521.99705 538.5827 C 524.2062 538.5827 525.99705 540.37355 525.99705 542.5827 L 525.99705 579.937 C 525.99705 582.14616 524.2062 583.937 521.99705 583.937 L 426.4244 583.937 C 424.21527 583.937 422.4244 582.14616 422.4244 579.937 L 422.4244 542.5827 C 422.4244 540.37355 424.21527 538.5827 426.4244 538.5827 Z" fill="#929292"/>
        </g>
        <g id="Graphic_846">
          <text transform="translate(427.3622 554.9213)" fill="white">
            <tspan font-family="Myriad Pro" font-size="16" fill="white" x="30553338e-20" y="12" xml:space="preserve">meta-</tspan>
            <tspan font-family="Myriad Pro" font-weight="bold" font-size="16" fill="white" y="12" xml:space="preserve">persona</tspan>
          </text>
        </g>
      </g>
      <g id="Group_848">
        <g id="Graphic_850">
          <path d="M 315.81103 538.5827 L 411.38367 538.5827 C 413.5928 538.5827 415.38367 540.37355 415.38367 542.5827 L 415.38367 579.937 C 415.38367 582.14616 413.5928 583.937 411.38367 583.937 L 315.81103 583.937 C 313.6019 583.937 311.81103 582.14616 311.81103 579.937 L 311.81103 542.5827 C 311.81103 540.37355 313.6019 538.5827 315.81103 538.5827 Z" fill="#929292"/>
        </g>
        <g id="Graphic_849">
          <text transform="translate(342.58363 554.9213)" fill="white">
            <tspan font-family="Myriad Pro" font-weight="bold" font-size="16" fill="white" x="5115908e-19" y="12" xml:space="preserve">task-id</tspan>
          </text>
        </g>
      </g>
      <g id="Group_866">
        <g id="Graphic_868">
          <path d="M 18.963042 286.6704 L 90.33312 286.6704 C 92.54226 286.6704 94.33312 288.46128 94.33312 290.6704 L 94.33312 328.02475 C 94.33312 330.2339 92.54226 332.02475 90.33312 332.02475 L 18.963042 332.02475 C 16.753903 332.02475 14.963042 330.2339 14.963042 328.02475 L 14.963042 290.6704 C 14.963042 288.46128 16.753903 286.6704 18.963042 286.6704 Z" fill="#929292"/>
        </g>
        <g id="Graphic_867">
          <text transform="translate(20.646314 297.3397)" fill="white">
            <tspan font-family="Myriad Pro" font-size="16" fill="white" x="14.104" y="8.8" xml:space="preserve">meta-</tspan>
            <tspan font-family="Myriad Pro" font-weight="bold" font-size="16" fill="white" x="4.088" y="24.800006" xml:space="preserve">diagram</tspan>
          </text>
        </g>
      </g>
      <g id="Group_872">
        <g id="Graphic_874">
          <path d="M 18.985955 388.86614 L 90.35604 388.86614 C 92.56517 388.86614 94.35604 390.657 94.35604 392.86614 L 94.35604 430.22047 C 94.35604 432.4296 92.56517 434.22047 90.35604 434.22047 L 18.985955 434.22047 C 16.776816 434.22047 14.985955 432.4296 14.985955 430.22047 L 14.985955 392.86614 C 14.985955 390.657 16.776816 388.86614 18.985955 388.86614 Z" fill="#929292"/>
        </g>
        <g id="Graphic_873">
          <text transform="translate(19.17323 399.53543)" fill="white">
            <tspan font-family="Myriad Pro" font-size="16" fill="white" x="15.6" y="8.8" xml:space="preserve">meta-</tspan>
            <tspan font-family="Myriad Pro" font-weight="bold" font-size="16" fill="white" x="8.064" y="24.800006" xml:space="preserve">commit</tspan>
          </text>
        </g>
      </g>
      <g id="Graphic_883">
        <text transform="translate(194.92127 543.5827)" fill="#494949">
          <tspan font-family="Myriad Pro" font-size="12" fill="#494949" x="8171241e-19" y="9" xml:space="preserve">STANDALONE MODE</tspan>
        </text>
      </g>
      <g id="Group_884">
        <g id="Graphic_886">
          <path d="M 367.46458 285.36956 L 477.8898 285.36956 C 480.0989 285.36956 481.8898 287.16042 481.8898 289.36956 L 481.8898 311.65146 C 481.8898 313.8606 480.0989 315.65146 477.8898 315.65146 L 367.46458 315.65146 C 365.25544 315.65146 363.46458 313.8606 363.46458 311.65146 L 363.46458 289.36956 C 363.46458 287.16042 365.25544 285.36956 367.46458 285.36956 Z" fill="#df8f37"/>
        </g>
        <g id="Graphic_885">
          <text transform="translate(385.8776 293.08807)" fill="white">
            <tspan font-family="Myriad Pro" font-size="16" fill="white" x="0" y="12" xml:space="preserve">task-</tspan>
            <tspan font-family="Myriad Pro" font-weight="bold" font-size="16" fill="white" y="12" xml:space="preserve">reboot</tspan>
          </text>
        </g>
      </g>
      <g id="Group_887">
        <g id="Graphic_889">
          <path d="M 367.46458 483.2791 L 477.8898 483.2791 C 480.0989 483.2791 481.8898 485.07 481.8898 487.2791 L 481.8898 507.42583 C 481.8898 509.635 480.0989 511.42583 477.8898 511.42583 L 367.46458 511.42583 C 365.25544 511.42583 363.46458 509.635 363.46458 507.42583 L 363.46458 487.2791 C 363.46458 485.07 365.25544 483.2791 367.46458 483.2791 Z" fill="#df8f37"/>
        </g>
        <g id="Graphic_888">
          <text transform="translate(387.4456 489.7765)" fill="white">
            <tspan font-family="Myriad Pro" font-size="16" fill="white" x="3623768e-19" y="12" xml:space="preserve">task-</tspan>
            <tspan font-family="Myriad Pro" font-weight="bold" font-size="16" fill="white" y="12" xml:space="preserve">delete</tspan>
          </text>
        </g>
      </g>
      <g id="Group_890">
        <g id="Graphic_892">
          <path d="M 367.46458 388.34647 L 477.8898 388.34647 C 480.0989 388.34647 481.8898 390.13733 481.8898 392.34647 L 481.8898 412.49317 C 481.8898 414.7023 480.0989 416.49317 477.8898 416.49317 L 367.46458 416.49317 C 365.25544 416.49317 363.46458 414.7023 363.46458 412.49317 L 363.46458 392.34647 C 363.46458 390.13733 365.25544 388.34647 367.46458 388.34647 Z" fill="#df8f37"/>
        </g>
        <g id="Graphic_891">
          <text transform="translate(393.0856 394.84384)" fill="white">
            <tspan font-family="Myriad Pro" font-size="16" fill="white" x="0" y="12" xml:space="preserve">task-</tspan>
            <tspan font-family="Myriad Pro" font-weight="bold" font-size="16" fill="white" y="12" xml:space="preserve">view</tspan>
          </text>
        </g>
      </g>
      <g id="Line_893">
        <line x1="325.98426" y1="368.06772" x2="352.33466" y2="368.06772" marker-end="url(#FilledArrow_Marker_6)" stroke="#b26813" stroke-linecap="round" stroke-linejoin="round" stroke-width="2"/>
      </g>
      <g id="Line_894">
        <path d="M 327.7396 341.2368 L 334.4882 334.4882 L 334.4882 267.41418 L 352.33466 267.41418" marker-end="url(#FilledArrow_Marker_6)" marker-start="url(#FilledArrow_Marker_7)" stroke="#b26813" stroke-linecap="round" stroke-linejoin="round" stroke-width="2"/>
      </g>
      <g id="Group_898">
        <g id="Graphic_900">
          <path d="M 367.46458 32.716494 L 477.8898 32.716494 C 480.0989 32.716494 481.8898 34.507355 481.8898 36.716494 L 481.8898 62.73224 C 481.8898 64.94138 480.0989 66.73224 477.8898 66.73224 L 367.46458 66.73224 C 365.25544 66.73224 363.46458 64.94138 363.46458 62.73224 L 363.46458 36.716494 C 363.46458 34.507355 365.25544 32.716494 367.46458 32.716494 Z" fill="#368ddf"/>
        </g>
        <g id="Graphic_899">
          <text transform="translate(383.17576 42.57043)" fill="white">
            <tspan font-family="Myriad Pro" font-size="16" fill="white" x="8455459e-19" y="12" xml:space="preserve">arch-</tspan>
            <tspan font-family="Myriad Pro" font-weight="bold" font-size="16" fill="white" y="12" xml:space="preserve">analyse</tspan>
          </text>
        </g>
      </g>
      <g id="Line_901">
        <path d="M 637.4488 360 L 660.7559 360 L 660.7559 48.18898 L 493.0197 48.18898" marker-end="url(#FilledArrow_Marker_4)" stroke="black" stroke-linecap="round" stroke-linejoin="round" stroke-width="2"/>
      </g>
      <g id="Line_902">
        <path d="M 362.83466 48.18898 L 161.85827 48.18898 L 161.5748 170.07874 L 196.7126 170.07874" marker-end="url(#FilledArrow_Marker)" stroke="#1067b2" stroke-linecap="round" stroke-linejoin="round" stroke-width="2"/>
      </g>
      <g id="Group_903">
        <g id="Graphic_905">
          <path d="M 367.46458 451.51857 L 477.8898 451.51857 C 480.0989 451.51857 481.8898 453.30943 481.8898 455.51857 L 481.8898 475.6653 C 481.8898 477.8744 480.0989 479.6653 477.8898 479.6653 L 367.46458 479.6653 C 365.25544 479.6653 363.46458 477.8744 363.46458 475.6653 L 363.46458 455.51857 C 363.46458 453.30943 365.25544 451.51857 367.46458 451.51857 Z" fill="#df8f37"/>
        </g>
        <g id="Graphic_904">
          <text transform="translate(382.8376 458.01595)" fill="white">
            <tspan font-family="Myriad Pro" font-size="16" fill="white" x="5400125e-19" y="12" xml:space="preserve">task-</tspan>
            <tspan font-family="Myriad Pro" font-weight="bold" font-size="16" fill="white" y="12" xml:space="preserve">rename</tspan>
          </text>
        </g>
      </g>
      <g id="Line_906">
        <path d="M 352.33466 464.8819 L 331.65355 464.8819 L 331.65355 399.68505 L 314.42373 386.92914" marker-start="url(#FilledArrow_Marker_7)" stroke="#b26813" stroke-linecap="round" stroke-linejoin="round" stroke-width="2"/>
      </g>
      <g id="Group_907">
        <g id="Graphic_909">
          <path d="M 744.3026 31.181103 L 815.6727 31.181103 C 817.8819 31.181103 819.6727 32.971964 819.6727 35.181103 L 819.6727 72.535435 C 819.6727 74.74457 817.8819 76.535435 815.6727 76.535435 L 744.3026 76.535435 C 742.0935 76.535435 740.3026 74.74457 740.3026 72.535435 L 740.3026 35.181103 C 740.3026 32.971964 742.0935 31.181103 744.3026 31.181103 Z" fill="#929292"/>
        </g>
        <g id="Graphic_908">
          <text transform="translate(738.1379 41.850395)" fill="white">
            <tspan font-family="Myriad Pro" font-size="16" fill="white" x="23.328" y="8.8" xml:space="preserve">docs-</tspan>
            <tspan font-family="Myriad Pro" font-weight="bold" font-size="16" fill="white" x="6.224" y="24.800006" xml:space="preserve">proofread</tspan>
          </text>
        </g>
      </g>
      <g id="Group_911">
        <g id="Graphic_913">
          <path d="M 367.46458 419.758 L 477.8898 419.758 C 480.0989 419.758 481.8898 421.5489 481.8898 423.758 L 481.8898 443.9047 C 481.8898 446.11387 480.0989 447.9047 477.8898 447.9047 L 367.46458 447.9047 C 365.25544 447.9047 363.46458 446.11387 363.46458 443.9047 L 363.46458 423.758 C 363.46458 421.5489 365.25544 419.758 367.46458 419.758 Z" fill="#df8f37"/>
        </g>
        <g id="Graphic_912">
          <text transform="translate(399.0456 426.2554)" fill="white">
            <tspan font-family="Myriad Pro" font-size="16" fill="white" x="0" y="12" xml:space="preserve">task-</tspan>
            <tspan font-family="Myriad Pro" font-weight="bold" font-size="16" fill="white" y="12" xml:space="preserve">list</tspan>
          </text>
        </g>
      </g>
      <g id="Line_916">
        <path d="M 352.33466 497.4803 L 325.98426 497.4803 L 325.98426 405.35434 L 309.261 391.1811" marker-start="url(#FilledArrow_Marker_7)" stroke="#b26813" stroke-linecap="round" stroke-linejoin="round" stroke-width="2"/>
      </g>
      <g id="Line_917">
        <path d="M 481.8898 436.53545 L 668.9764 436.53545 L 669.6063 227.72914 L 681.7835 227.72914" marker-end="url(#FilledArrow_Marker_4)" stroke="black" stroke-linecap="round" stroke-linejoin="round" stroke-width="2"/>
      </g>
      <g id="Line_918">
        <path d="M 481.8898 464.8819 L 668.9764 464.8819 L 669.6063 227.72914 L 681.7835 227.72914" marker-end="url(#FilledArrow_Marker_4)" stroke="black" stroke-linecap="round" stroke-linejoin="round" stroke-width="2"/>
      </g>
      <g id="Line_919">
        <path d="M 481.25986 497.4803 L 668.9764 497.4803 L 669.6063 227.72914 L 681.7835 227.72914" marker-end="url(#FilledArrow_Marker_4)" stroke="black" stroke-linecap="round" stroke-linejoin="round" stroke-width="2"/>
      </g>
      <g id="Line_920">
        <path d="M 482.5197 405.35434 L 668.9764 405.35434 L 669.7154 227.81333 L 681.8926 227.81333" marker-end="url(#FilledArrow_Marker_4)" stroke="black" stroke-linecap="round" stroke-linejoin="round" stroke-width="2"/>
      </g>
    </g>
  </g>
</svg>
